<?xml version="1.0" encoding="UTF-8" standalone="no"?>
<svg
   xmlns:svg="http://www.w3.org/2000/svg"
   xmlns="http://www.w3.org/2000/svg"
   xmlns:inkscape="http://www.inkscape.org/namespaces/inkscape"
   width="400mm"
   height="400mm"
   viewBox="0 0 400 400"
   version="1.1"
   id="gear_hobbymat">
   <defs>
     
            <path id="gear" style="fill:#cccccc;stroke:#000000;stroke-width:0.025000"
                d="  M  18.75 0.0      
          A 18.75 18.75 0 0 1 18.717069970581026 1.1107617730071428
          A 5.0 5.0 0 0 1 20.91388125243784 1.8998870911001657
          L 20.834154452697597 2.634009916674729 
          A 5.0 5.0 0 0 1 18.519156386158834 2.933146219504329
        
          A 18.75 18.75 0 0 1 18.31287035629875 4.025081280346351
          A 5.0 5.0 0 0 1 20.359188848891 5.148148153966874
          L 20.16560150686202 5.860760690084894 
          A 5.0 5.0 0 0 1 17.832309680534134 5.794068644530266
        
          A 18.75 18.75 0 0 1 17.457747096912172 6.840289928084538
          A 5.0 5.0 0 0 1 19.30318564761053 8.269644723558763
          L 19.000504526133117 8.943200084555599 
          A 5.0 5.0 0 0 1 16.706372328531906 8.512321870116507
        
          A 18.75 18.75 0 0 1 16.17275616505879 9.487067936172553
          A 5.0 5.0 0 0 1 17.77187395208564 11.187515194679309
          L 17.367552064911624 11.805428212165136 
          A 5.0 5.0 0 0 1 15.169068644530274 11.02097348048388
        
          A 18.75 18.75 0 0 1 14.489538302121218 11.900242845898678
          A 5.0 5.0 0 0 1 15.80295973839231 13.829911912472632
          L 15.306952832251318 14.37696751722122 
          A 5.0 5.0 0 0 1 13.258252147247775 13.25825214724778
        
          A 18.75 18.75 0 0 1 12.449539918164803 14.020394282117097
          A 5.0 5.0 0 0 1 13.444924208923302 16.131770300134733
          L 12.869445619997073 16.59449816758371 
          A 5.0 5.0 0 0 1 11.020973480483882 15.169068644530281
        
          A 18.75 18.75 0 0 1 10.102992543769025 15.795317080088903
          A 5.0 5.0 0 0 1 10.755830024285395 18.036410964731367
          L 10.115049945337228 18.40341719907839 
          A 5.0 5.0 0 0 1 8.512321870116514 16.706372328531916
        
          A 18.75 18.75 0 0 1 7.507675963035752 17.181306749896997
          A 5.0 5.0 0 0 1 7.801891607896299 19.496935331960213
          L 7.111588171097056 19.759183021691804 
          A 5.0 5.0 0 0 1 5.794068644530275 17.832309680534156
        
          A 18.75 18.75 0 0 1 4.727495483544542 18.144235626034707
          A 5.0 5.0 0 0 1 4.6558447271270555 20.477380444697626
          L 3.9330154940764928 20.628412181342405 
          A 5.0 5.0 0 0 1 2.9331462195043354 18.519156386158866
        
          A 18.75 18.75 0 0 1 1.8309083755904791 18.660393203793802
          A 5.0 5.0 0 0 1 1.3951554973131854 20.953604490357225
          L 0.6575989226616955 20.989701371313405 
          A 5.0 5.0 0 0 1 1.0903976134711359e-15 18.750000000000036
        
          A 18.75 18.75 0 0 1 -1.110761773007144 18.71706997058106
          A 5.0 5.0 0 0 1 -1.8998870911001682 20.913881252437882
          L -2.634009916674733 20.83415445269764 
          A 5.0 5.0 0 0 1 -2.933146219504334 18.519156386158873
        
          A 18.75 18.75 0 0 1 -4.025081280346358 18.312870356298788
          A 5.0 5.0 0 0 1 -5.148148153966883 20.359188848891044
          L -5.860760690084905 20.165601506862064 
          A 5.0 5.0 0 0 1 -5.7940686445302765 17.832309680534173
        
          A 18.75 18.75 0 0 1 -6.840289928084551 17.45774709691221
          A 5.0 5.0 0 0 1 -8.269644723558777 19.303185647610572
          L -8.943200084555613 19.00050452613316 
          A 5.0 5.0 0 0 1 -8.512321870116521 16.706372328531945
        
          A 18.75 18.75 0 0 1 -9.48706793617257 16.172756165058825
          A 5.0 5.0 0 0 1 -11.18751519467933 17.77187395208568
          L -11.80542821216516 17.36755206491166 
          A 5.0 5.0 0 0 1 -11.0209734804839 15.169068644530306
        
          A 18.75 18.75 0 0 1 -11.900242845898699 14.489538302121248
          A 5.0 5.0 0 0 1 -13.829911912472655 15.802959738392342
          L -14.376967517221244 15.30695283225135 
          A 5.0 5.0 0 0 1 -13.258252147247802 13.258252147247802
        
          A 18.75 18.75 0 0 1 -14.020394282117119 12.44953991816483
          A 5.0 5.0 0 0 1 -16.13177030013476 13.44492420892333
          L -16.594498167583737 12.8694456199971 
          A 5.0 5.0 0 0 1 -15.169068644530306 11.020973480483905
        
          A 18.75 18.75 0 0 1 -15.79531708008893 10.102992543769046
          A 5.0 5.0 0 0 1 -18.0364109647314 10.755830024285418
          L -18.403417199078422 10.11504994533725 
          A 5.0 5.0 0 0 1 -16.706372328531945 8.512321870116532
        
          A 18.75 18.75 0 0 1 -17.181306749897022 7.507675963035768
          A 5.0 5.0 0 0 1 -19.496935331960245 7.801891607896316
          L -19.759183021691836 7.111588171097072 
          A 5.0 5.0 0 0 1 -17.832309680534184 5.794068644530288
        
          A 18.75 18.75 0 0 1 -18.144235626034735 4.727495483544554
          A 5.0 5.0 0 0 1 -20.47738044469766 4.655844727127068
          L -20.628412181342437 3.9330154940765043 
          A 5.0 5.0 0 0 1 -18.519156386158894 2.9331462195043447
        
          A 18.75 18.75 0 0 1 -18.66039320379383 1.830908375590487
          A 5.0 5.0 0 0 1 -20.953604490357257 1.395155497313193
          L -20.989701371313437 0.657598922661702 
          A 5.0 5.0 0 0 1 -18.750000000000064 5.947623346206196e-15
        
          A 18.75 18.75 0 0 1 -18.71706997058109 -1.1107617730071406
          A 5.0 5.0 0 0 1 -20.91388125243791 -1.8998870911001655
          L -20.834154452697668 -2.6340099166747315 
          A 5.0 5.0 0 0 1 -18.519156386158897 -2.9331462195043336
        
          A 18.75 18.75 0 0 1 -18.312870356298813 -4.02508128034636
          A 5.0 5.0 0 0 1 -20.359188848891073 -5.148148153966885
          L -20.165601506862092 -5.860760690084908 
          A 5.0 5.0 0 0 1 -17.8323096805342 -5.794068644530281
        
          A 18.75 18.75 0 0 1 -17.457747096912236 -6.840289928084557
          A 5.0 5.0 0 0 1 -19.3031856476106 -8.269644723558786
          L -19.000504526133188 -8.943200084555624 
          A 5.0 5.0 0 0 1 -16.70637232853197 -8.51232187011653
        
          A 18.75 18.75 0 0 1 -16.17275616505885 -9.48706793617258
          A 5.0 5.0 0 0 1 -17.77187395208571 -11.18751519467934
          L -17.36755206491169 -11.80542821216517 
          A 5.0 5.0 0 0 1 -15.16906864453033 -11.02097348048391
        
          A 18.75 18.75 0 0 1 -14.489538302121273 -11.900242845898712
          A 5.0 5.0 0 0 1 -15.80295973839237 -13.82991191247267
          L -15.306952832251376 -14.37696751722126 
          A 5.0 5.0 0 0 1 -13.258252147247827 -13.258252147247818
        
          A 18.75 18.75 0 0 1 -12.449539918164852 -14.020394282117136
          A 5.0 5.0 0 0 1 -13.444924208923357 -16.13177030013478
          L -12.869445619997126 -16.594498167583755 
          A 5.0 5.0 0 0 1 -11.020973480483926 -15.169068644530325
        
          A 18.75 18.75 0 0 1 -10.102992543769066 -15.79531708008895
          A 5.0 5.0 0 0 1 -10.755830024285439 -18.03641096473142
          L -10.11504994533727 -18.403417199078444 
          A 5.0 5.0 0 0 1 -8.51232187011655 -16.706372328531963
        
          A 18.75 18.75 0 0 1 -7.507675963035785 -17.181306749897043
          A 5.0 5.0 0 0 1 -7.801891607896334 -19.49693533196027
          L -7.111588171097088 -19.75918302169186 
          A 5.0 5.0 0 0 1 -5.7940686445303005 -17.83230968053421
        
          A 18.75 18.75 0 0 1 -4.727495483544565 -18.14423562603476
          A 5.0 5.0 0 0 1 -4.655844727127079 -20.477380444697687
          L -3.9330154940765136 -20.628412181342465 
          A 5.0 5.0 0 0 1 -2.9331462195043523 -18.51915638615892
        
          A 18.75 18.75 0 0 1 -1.830908375590493 -18.660393203793856
          A 5.0 5.0 0 0 1 -1.395155497313199 -20.953604490357286
          L -0.6575989226617069 -20.989701371313465 
          A 5.0 5.0 0 0 1 -9.615324409700017e-15 -18.75000000000009
        
          A 18.75 18.75 0 0 1 1.1107617730071386 -18.717069970581115
          A 5.0 5.0 0 0 1 1.899887091100164 -20.91388125243794
          L 2.6340099166747306 -20.834154452697696 
          A 5.0 5.0 0 0 1 2.9331462195043336 -18.519156386158922
        
          A 18.75 18.75 0 0 1 4.0250812803463605 -18.312870356298838
          A 5.0 5.0 0 0 1 5.148148153966888 -20.359188848891097
          L 5.860760690084912 -20.165601506862117 
          A 5.0 5.0 0 0 1 5.7940686445302845 -17.83230968053422
        
          A 18.75 18.75 0 0 1 6.840289928084562 -17.457747096912257
          A 5.0 5.0 0 0 1 8.269644723558793 -19.303185647610626
          L 8.943200084555633 -19.000504526133213 
          A 5.0 5.0 0 0 1 8.512321870116539 -16.70637232853199
        
          A 18.75 18.75 0 0 1 9.48706793617259 -16.17275616505887
          A 5.0 5.0 0 0 1 11.187515194679351 -17.771873952085734
          L 11.805428212165182 -17.367552064911713 
          A 5.0 5.0 0 0 1 11.020973480483923 -15.169068644530354
        
          A 18.75 18.75 0 0 1 11.900242845898724 -14.489538302121296
          A 5.0 5.0 0 0 1 13.829911912472685 -15.802959738392397
          L 14.376967517221276 -15.306952832251403 
          A 5.0 5.0 0 0 1 13.258252147247832 -13.25825214724785
        
          A 18.75 18.75 0 0 1 14.020394282117152 -12.449539918164875
          A 5.0 5.0 0 0 1 16.131770300134797 -13.444924208923382
          L 16.594498167583772 -12.86944561999715 
          A 5.0 5.0 0 0 1 15.169068644530341 -11.020973480483947
        
          A 18.75 18.75 0 0 1 15.795317080088967 -10.102992543769087
          A 5.0 5.0 0 0 1 18.036410964731445 -10.755830024285462
          L 18.403417199078472 -10.115049945337292 
          A 5.0 5.0 0 0 1 16.70637232853199 -8.512321870116569
        
          A 18.75 18.75 0 0 1 17.18130674989707 -7.507675963035803
          A 5.0 5.0 0 0 1 19.4969353319603 -7.801891607896352
          L 19.759183021691893 -7.111588171097106 
          A 5.0 5.0 0 0 1 17.832309680534237 -5.794068644530316
        
          A 18.75 18.75 0 0 1 18.14423562603479 -4.727495483544578
          A 5.0 5.0 0 0 1 20.47738044469772 -4.655844727127093
          L 20.628412181342497 -3.933015494076527 
          A 5.0 5.0 0 0 1 18.519156386158947 -2.9331462195043634
        
          A 18.75 18.75 0 0 1 18.660393203793888 -1.8309083755905022
          A 5.0 5.0 0 0 1 20.95360449035732 -1.3951554973132083
          L 20.9897013713135 -0.657598922661715 
          A 5.0 5.0 0 0 1 18.75000000000012 -1.5860328923216522e-14
        
         z"
            />
        
     
        <circle id="reinforcement" style="fill:none;stroke:#000000;stroke-width:0.025000"
            cx="0" cy="0" r="15"
        />
        
     
        <path id="bearing" style="fill:#ffcccc;stroke:#000000;stroke-width:0.025000"
            d="M 1.961161351381842 9.8058067569092 A 10 10 0 1 0 -1.9611613513818411 9.8058067569092
              L -1.9611613513818411 11.8058067569092  1.961161351381842 11.8058067569092  1.961161351381842 9.8058067569092"
        />
        
   </defs>

   <!--
   module                   : 1.000000
   nb-teeth                 : 40
   ratio-teeth-gap          : 1.650000
   teeth-curvature          : 5.000000
   ratio-teeth-head-base    : 0.400000

   25 -> 8.45
   40 -> ok
   80
   -->

   <g>
     <!-- first gear -->
     <use href="#gear"    id="gear_1"    transform="translate(200,200) rotate(0)" >
      <animateTransform attributeType="xml" attributeName="transform" type="rotate" from="0 0 0" to="380 0 0" dur="30.000000s" additive="sum" repeatCount="indefinite" />
     </use>
     <use href="#bearing" id="bearing_1" transform="translate(200,200)">
      <animateTransform attributeType="xml" attributeName="transform" type="rotate" from="0 0 0" to="380 0 0" dur="30.000000s" additive="sum" repeatCount="indefinite" />
     </use>

     <!-- second gear -->
     <use href="#gear"    id="gear_2"    transform="translate(240.000000,200) rotate(0)">
      <animateTransform attributeType="xml" attributeName="transform" type="rotate" from="1.103774 0 0" to="-378.896226 0 0" dur="30.000000s" additive="sum" repeatCount="indefinite" />
    </use>
     
     <use href="#bearing" id="bearing_2" transform="translate(240.000000,200) rotate(0)">
       <animateTransform attributeType="xml" attributeName="transform" type="rotate" from="1.103774 0 0" to="-378.896226 0 0" dur="30.000000s" additive="sum" repeatCount="indefinite" />
     </use>

     <!-- refernece line -->
    <path style="fill:#ffcccc;stroke:#000000;stroke-width:0.050000" d="M 0 200 L 300 200" ></path>
    <path style="fill:#ffcccc;stroke:#000000;stroke-width:0.050000" d="M 200 0 L 200 300" ></path>
    <path style="fill:#ffcccc;stroke:#000000;stroke-width:0.050000" d="M 240.000000 0 L 240.000000 300" ></path>

    <path style="fill:#ffcccc;stroke:#000000;stroke-width:0.050000" d="M 220.000000 0 L 220.000000 300" ></path>

   </g>
   
</svg>
