<?xml version="1.0" encoding="UTF-8" standalone="no"?>
<svg
   xmlns:svg="http://www.w3.org/2000/svg"
   xmlns="http://www.w3.org/2000/svg"
   xmlns:inkscape="http://www.inkscape.org/namespaces/inkscape"
   width="400mm"
   height="400mm"
   viewBox="0 0 400 400"
   version="1.1"
   id="gear_hobbymat">
   <g>
   
    <g style="fill:#cccccc" transform="translate(200,200)">
        <path style="fill:#cccccc;stroke:#000000;stroke-width:0.050000"
            d="  M  48.75 0.0      
          A 48.75 48.75 0 0 1 48.733294592558416 1.276126230008816
          A 4 4 0 0 1 50.96574808271147 1.86882914403437
          L 50.93010627248327 2.6691337683901355 
          A 4 4 0 0 1 48.65380301087824 3.0610378270540277
        
          A 48.75 48.75 0 0 1 48.55700193877502 4.333596972239024
          A 4 4 0 0 1 50.74783406802255 5.06530723692559
          L 50.662011045620226 5.861794675136197 
          A 4 4 0 0 1 48.3655916890808 6.109995136259833
        
          A 48.75 48.75 0 0 1 48.18907698192333 7.373964987051938
          A 4 4 0 0 1 50.32964153674718 8.24179487627142
          L 50.19397600643135 9.03132175629875 
          A 4 4 0 0 1 47.88650347302358 9.134839086054077
        
          A 48.75 48.75 0 0 1 47.63097175371911 10.38523133090511
          A 4 4 0 0 1 49.71282090375232 11.385755916558523
          L 49.52784827539145 12.165206336507628 
          A 4 4 0 0 1 47.218429105020775 12.123631999286674
        
          A 48.75 48.75 0 0 1 46.88488884052406 13.355511911256086
          A 4 4 0 0 1 48.89980647827786 14.484782579900058
          L 48.666256754330135 15.251080405060424 
          A 4 4 0 0 1 46.364005169388754 15.064578475778694
        
          A 48.75 48.75 0 0 1 45.95377269074371 16.27308438764634
          A 4 4 0 0 1 47.89380685683018 17.52664442386643
          L 47.6126017513573 18.276765426810325 
          A 4 4 0 0 1 45.32660368705227 17.94607194337806
        
          A 48.75 48.75 0 0 1 44.84129799443472 19.126434434423636
          A 4 4 0 0 1 46.698792260317624 20.499336609453984
          L 46.3710415614005 21.230320405280477 
          A 4 4 0 0 1 44.11031880771846 20.75674046379731
        
          A 48.75 48.75 0 0 1 43.55185518098209 21.904301182524975
          A 4 4 0 0 1 45.3194788654024 23.391127278700075
          L 44.94647605531462 24.100089008321767 
          A 4 4 0 0 1 42.719950652138365 23.485491612458635
        
          A 48.75 48.75 0 0 1 42.09053309208013 24.595721660982203
          A 4 4 0 0 1 43.76131019190589 26.190603854966692
          L 43.34452734233008 26.87474557033057 
          A 4 4 0 0 1 41.160986368223256 26.1215562552261
        
          A 48.75 48.75 0 0 1 40.46309889839918 27.190074062759912
          A 4 4 0 0 1 42.03043561972282 28.886718083166496
          L 41.57151758215629 29.54333978947664 
          A 4 4 0 0 1 39.43957847577871 28.654531049258086
        
          A 48.75 48.75 0 0 1 38.675975339197734 29.67711966417515
          A 4 4 0 0 1 40.13368612002822 31.468829632178203
          L 39.63444403430553 32.09533994354173 
          A 4 4 0 0 1 37.562520585319746 31.07441950024865
        
          A 48.75 48.75 0 0 1 36.73621537470486 32.047043232462194
          A 4 4 0 0 1 38.07854729655498 33.92674808737243
          L 37.540951443106465 34.52067445381572 
          A 4 4 0 0 1 35.53722058679382 33.371671414023595
        
          A 48.75 48.75 0 0 1 34.651474351308394 34.29049176201209
          A 4 4 0 0 1 35.87312984333571 36.250773167522645
          L 35.29930186739076 36.8097716330165 
          A 4 4 0 0 1 33.37167141402359 35.537220586793836
        
          A 48.75 48.75 0 0 1 32.42997978940011 36.39861138641285
          A 4 4 0 0 1 33.526137535498904 38.431733007383556
          L 32.9183420739215 38.95359746036678 
          A 4 4 0 0 1 31.07441950024865 37.56252058531976
        
          A 48.75 48.75 0 0 1 30.08049891311152 38.36308232061523
          A 4 4 0 0 1 31.046832879444775 40.461020354853034
          L 30.407468623246427 40.94369123474688 
          A 4 4 0 0 1 28.65453104925809 39.439578475778724
        
          A 48.75 48.75 0 0 1 27.612304050085623 40.1761516953233
          A 4 4 0 0 1 28.44500055796422 42.330626539863786
          L 27.776590785766402 42.77219896521667 
          A 4 4 0 0 1 26.121556255226103 41.16098636822328
        
          A 48.75 48.75 0 0 1 25.03513603783581 41.83066415402771
          A 4 4 0 0 1 25.730908814566 44.033173080945396
          L 25.0360914343722 44.4319043671297 
          A 4 4 0 0 1 23.485491612458635 42.71995065213839
        
          A 48.75 48.75 0 0 1 22.359165781110367 43.32009009192879
          A 4 4 0 0 1 22.91526892941074 45.56194080471976
          L 22.196786067988715 45.916257341511916 
          A 4 4 0 0 1 20.756740463797307 44.11031880771849
        
          A 48.75 48.75 0 0 1 19.59495411197807 44.63855142530364
          A 4 4 0 0 1 20.009192946781653 46.91089636340866
          L 19.26988012774184 47.21939982530977 
          A 4 4 0 0 1 17.94607194337807 45.3266036870523
        
          A 48.75 48.75 0 0 1 16.7534101110488 45.78084478961711
          A 4 4 0 0 1 17.024149820922336 48.074716045701145
          L 16.266924774201584 48.33618891048892 
          A 4 4 0 0 1 15.064578475778703 46.36400516938879
        
          A 48.75 48.75 0 0 1 13.845748054316243 46.74246207482446
          A 4 4 0 0 1 13.971920153314072 49.04880678700984
          L 13.199771300228575 49.26221714074254 
          A 4 4 0 0 1 12.123631999286685 47.21842910502083
        
          A 48.75 48.75 0 0 1 10.88344315553389 47.51960821682213
          A 4 4 0 0 1 10.864549700023815 49.829324296198514
          L 10.080524359335442 49.993829905707884 
          A 4 4 0 0 1 9.134839086054084 47.886503473023645
        
          A 48.75 48.75 0 0 1 7.878186278788863 48.10921617483192
          A 4 4 0 0 1 7.714301832608187 50.413188227242934
          L 6.92149419414953 50.5281398640437 
          A 4 4 0 0 1 6.109995136259838 48.36559168908087
        
          A 48.75 48.75 0 0 1 4.841837800002406 48.508959035609855
          A 4 4 0 0 1 4.533609140188521 50.79809433594933
          L 3.735148053509218 50.863038338447446 
          A 4 4 0 0 1 3.0610378270540286 48.65380301087832
        
          A 48.75 48.75 0 0 1 1.7863807994446177 48.71725919670957
          A 4 4 0 0 1 1.3350243637015293 50.982523573753504
          L 0.5340609899285328 50.9972036376412 
          A 4 4 0 0 1 -3.395976310618126e-15 48.75000000000008
        
          A 48.75 48.75 0 0 1 -1.2761262300088216 48.733294592558494
          A 4 4 0 0 1 -1.8688291440343765 50.965748082711556
          L -2.669133768390143 50.93010627248336 
          A 4 4 0 0 1 -3.0610378270540357 48.65380301087833
        
          A 48.75 48.75 0 0 1 -4.333596972239035 48.5570019387751
          A 4 4 0 0 1 -5.0653072369256025 50.747834068022634
          L -5.861794675136211 50.66201104562031 
          A 4 4 0 0 1 -6.109995136259847 48.36559168908089
        
          A 48.75 48.75 0 0 1 -7.373964987051953 48.189076981923414
          A 4 4 0 0 1 -8.241794876271436 50.329641536747275
          L -9.031321756298768 50.19397600643144 
          A 4 4 0 0 1 -9.134839086054095 47.88650347302367
        
          A 48.75 48.75 0 0 1 -10.38523133090513 47.6309717537192
          A 4 4 0 0 1 -11.385755916558544 49.71282090375242
          L -12.165206336507651 49.52784827539155 
          A 4 4 0 0 1 -12.123631999286697 47.218429105020874
        
          A 48.75 48.75 0 0 1 -13.35551191125611 46.88488884052416
          A 4 4 0 0 1 -14.484782579900084 48.89980647827797
          L -15.251080405060453 48.66625675433024 
          A 4 4 0 0 1 -15.06457847577872 46.36400516938886
        
          A 48.75 48.75 0 0 1 -16.27308438764637 45.95377269074382
          A 4 4 0 0 1 -17.52664442386646 47.893806856830295
          L -18.276765426810357 47.61260175135742 
          A 4 4 0 0 1 -17.946071943378094 45.326603687052376
        
          A 48.75 48.75 0 0 1 -19.12643443442367 44.841297994434825
          A 4 4 0 0 1 -20.499336609454023 46.69879226031774
          L -21.23032040528052 46.37104156140062 
          A 4 4 0 0 1 -20.75674046379735 44.11031880771857
        
          A 48.75 48.75 0 0 1 -21.904301182525018 43.551855180982194
          A 4 4 0 0 1 -23.391127278700125 45.31947886540251
          L -24.100089008321817 44.946476055314726 
          A 4 4 0 0 1 -23.485491612458684 42.719950652138465
        
          A 48.75 48.75 0 0 1 -24.595721660982257 42.09053309208023
          A 4 4 0 0 1 -26.19060385496675 43.76131019190599
          L -26.87474557033063 43.344527342330174 
          A 4 4 0 0 1 -26.12155625522616 41.16098636822334
        
          A 48.75 48.75 0 0 1 -27.190074062759972 40.46309889839927
          A 4 4 0 0 1 -28.88671808316656 42.030435619722915
          L -29.543339789476708 41.57151758215638 
          A 4 4 0 0 1 -28.654531049258154 39.4395784757788
        
          A 48.75 48.75 0 0 1 -29.677119664175223 38.67597533919783
          A 4 4 0 0 1 -31.468829632178277 40.13368612002832
          L -32.09533994354181 39.63444403430563 
          A 4 4 0 0 1 -31.074419500248723 37.56252058531984
        
          A 48.75 48.75 0 0 1 -32.04704323246227 36.736215374704955
          A 4 4 0 0 1 -33.92674808737251 38.078547296555065
          L -34.5206744538158 37.54095144310655 
          A 4 4 0 0 1 -33.37167141402367 35.53722058679391
        
          A 48.75 48.75 0 0 1 -34.29049176201217 34.65147435130847
          A 4 4 0 0 1 -36.25077316752272 35.87312984333579
          L -36.80977163301658 35.29930186739084 
          A 4 4 0 0 1 -35.53722058679392 33.37167141402366
        
          A 48.75 48.75 0 0 1 -36.39861138641294 32.42997978940018
          A 4 4 0 0 1 -38.43173300738365 33.52613753549898
          L -38.95359746036687 32.91834207392158 
          A 4 4 0 0 1 -37.562520585319845 31.074419500248723
        
          A 48.75 48.75 0 0 1 -38.36308232061531 30.080498913111594
          A 4 4 0 0 1 -40.46102035485312 31.046832879444853
          L -40.94369123474697 30.407468623246505 
          A 4 4 0 0 1 -39.439578475778816 28.65453104925816
        
          A 48.75 48.75 0 0 1 -40.17615169532339 27.61230405008569
          A 4 4 0 0 1 -42.33062653986388 28.445000557964292
          L -42.77219896521676 27.776590785766473 
          A 4 4 0 0 1 -41.16098636822337 26.121556255226174
        
          A 48.75 48.75 0 0 1 -41.8306641540278 25.03513603783588
          A 4 4 0 0 1 -44.033173080945495 25.730908814566074
          L -44.431904367129796 25.03609143437227 
          A 4 4 0 0 1 -42.71995065213848 23.485491612458702
        
          A 48.75 48.75 0 0 1 -43.32009009192888 22.35916578111043
          A 4 4 0 0 1 -45.56194080471986 22.915268929410807
          L -45.916257341512015 22.19678606798878 
          A 4 4 0 0 1 -44.11031880771859 20.756740463797364
        
          A 48.75 48.75 0 0 1 -44.638551425303746 19.594954111978126
          A 4 4 0 0 1 -46.910896363408774 20.009192946781706
          L -47.219399825309885 19.26988012774189 
          A 4 4 0 0 1 -45.326603687052405 17.946071943378115
        
          A 48.75 48.75 0 0 1 -45.78084478961722 16.753410111048844
          A 4 4 0 0 1 -48.07471604570126 17.024149820922382
          L -48.336188910489035 16.26692477420163 
          A 4 4 0 0 1 -46.364005169388896 15.064578475778747
        
          A 48.75 48.75 0 0 1 -46.742462074824566 13.845748054316283
          A 4 4 0 0 1 -49.048806787009944 13.971920153314114
          L -49.26221714074265 13.199771300228615 
          A 4 4 0 0 1 -47.21842910502093 12.123631999286724
        
          A 48.75 48.75 0 0 1 -47.51960821682223 10.883443155533927
          A 4 4 0 0 1 -49.82932429619862 10.864549700023852
          L -49.99382990570799 10.080524359335477 
          A 4 4 0 0 1 -47.886503473023744 9.134839086054116
        
          A 48.75 48.75 0 0 1 -48.10921617483203 7.878186278788892
          A 4 4 0 0 1 -50.41318822724305 7.714301832608216
          L -50.528139864043816 6.921494194149557 
          A 4 4 0 0 1 -48.36559168908098 6.109995136259863
        
          A 48.75 48.75 0 0 1 -48.50895903560996 4.841837800002427
          A 4 4 0 0 1 -50.79809433594944 4.533609140188542
          L -50.86303833844756 3.7351480535092376 
          A 4 4 0 0 1 -48.65380301087843 3.061037827054046
        
          A 48.75 48.75 0 0 1 -48.717259196709676 1.7863807994446324
          A 4 4 0 0 1 -50.98252357375362 1.3350243637015433
          L -50.99720363764131 0.534060989928545 
          A 4 4 0 0 1 -48.750000000000185 7.110325400356701e-15
        
          A 48.75 48.75 0 0 1 -48.7332945925586 -1.2761262300088139
          A 4 4 0 0 1 -50.96574808271166 -1.8688291440343696
          L -50.930106272483464 -2.669133768390138 
          A 4 4 0 0 1 -48.65380301087843 -3.0610378270540317
        
          A 48.75 48.75 0 0 1 -48.5570019387752 -4.333596972239033
          A 4 4 0 0 1 -50.74783406802274 -5.065307236925602
          L -50.66201104562042 -5.8617946751362116 
          A 4 4 0 0 1 -48.365591689080986 -6.109995136259849
        
          A 48.75 48.75 0 0 1 -48.18907698192351 -7.373964987051958
          A 4 4 0 0 1 -50.329641536747374 -8.241794876271443
          L -50.19397600643154 -9.031321756298777 
          A 4 4 0 0 1 -47.886503473023765 -9.134839086054104
        
          A 48.75 48.75 0 0 1 -47.630971753719294 -10.38523133090514
          A 4 4 0 0 1 -49.712820903752515 -11.385755916558557
          L -49.52784827539164 -12.165206336507664 
          A 4 4 0 0 1 -47.21842910502096 -12.12363199928671
        
          A 48.75 48.75 0 0 1 -46.88488884052425 -13.355511911256126
          A 4 4 0 0 1 -48.89980647827805 -14.484782579900102
          L -48.66625675433033 -15.251080405060472 
          A 4 4 0 0 1 -46.36400516938894 -15.06457847577874
        
          A 48.75 48.75 0 0 1 -45.9537726907439 -16.273084387646392
          A 4 4 0 0 1 -47.89380685683037 -17.526644423866482
          L -47.612601751357495 -18.27676542681038 
          A 4 4 0 0 1 -45.326603687052454 -17.946071943378115
        
          A 48.75 48.75 0 0 1 -44.8412979944349 -19.126434434423693
          A 4 4 0 0 1 -46.698792260317816 -20.499336609454048
          L -46.371041561400695 -21.230320405280544 
          A 4 4 0 0 1 -44.11031880771864 -20.756740463797374
        
          A 48.75 48.75 0 0 1 -43.551855180982265 -21.904301182525046
          A 4 4 0 0 1 -45.31947886540259 -23.391127278700154
          L -44.9464760553148 -24.10008900832185 
          A 4 4 0 0 1 -42.719950652138536 -23.485491612458713
        
          A 48.75 48.75 0 0 1 -42.0905330920803 -24.595721660982285
          A 4 4 0 0 1 -43.76131019190607 -26.190603854966778
          L -43.34452734233025 -26.87474557033066 
          A 4 4 0 0 1 -41.16098636822341 -26.121556255226185
        
          A 48.75 48.75 0 0 1 -40.46309889839934 -27.19007406276
          A 4 4 0 0 1 -42.03043561972299 -28.88671808316659
          L -41.57151758215645 -29.543339789476736 
          A 4 4 0 0 1 -39.439578475778866 -28.65453104925818
        
          A 48.75 48.75 0 0 1 -38.67597533919789 -29.677119664175247
          A 4 4 0 0 1 -40.133686120028386 -31.468829632178306
          L -39.634444034305695 -32.09533994354184 
          A 4 4 0 0 1 -37.5625205853199 -31.07441950024875
        
          A 48.75 48.75 0 0 1 -36.73621537470502 -32.0470432324623
          A 4 4 0 0 1 -38.078547296555136 -33.92674808737254
          L -37.54095144310662 -34.52067445381583 
          A 4 4 0 0 1 -35.53722058679397 -33.3716714140237
        
          A 48.75 48.75 0 0 1 -34.651474351308536 -34.2904917620122
          A 4 4 0 0 1 -35.87312984333586 -36.250773167522766
          L -35.29930186739091 -36.809771633016624 
          A 4 4 0 0 1 -33.37167141402373 -35.537220586793964
        
          A 48.75 48.75 0 0 1 -32.42997978940024 -36.39861138641299
          A 4 4 0 0 1 -33.52613753549904 -38.4317330073837
          L -32.918342073921636 -38.95359746036692 
          A 4 4 0 0 1 -31.074419500248776 -37.562520585319895
        
          A 48.75 48.75 0 0 1 -30.080498913111644 -38.36308232061536
          A 4 4 0 0 1 -31.046832879444906 -40.461020354853176
          L -30.407468623246555 -40.94369123474703 
          A 4 4 0 0 1 -28.654531049258207 -39.439578475778866
        
          A 48.75 48.75 0 0 1 -27.612304050085736 -40.17615169532344
          A 4 4 0 0 1 -28.445000557964338 -42.330626539863935
          L -27.77659078576652 -42.772198965216816 
          A 4 4 0 0 1 -26.121556255226217 -41.16098636822342
        
          A 48.75 48.75 0 0 1 -25.03513603783592 -41.83066415402786
          A 4 4 0 0 1 -25.730908814566114 -44.03317308094555
          L -25.03609143437231 -44.43190436712985 
          A 4 4 0 0 1 -23.48549161245874 -42.719950652138536
        
          A 48.75 48.75 0 0 1 -22.35916578111047 -43.32009009192894
          A 4 4 0 0 1 -22.91526892941085 -45.56194080471992
          L -22.19678606798882 -45.91625734151207 
          A 4 4 0 0 1 -20.756740463797403 -44.11031880771865
        
          A 48.75 48.75 0 0 1 -19.59495411197816 -44.6385514253038
          A 4 4 0 0 1 -20.009192946781745 -46.91089636340884
          L -19.269880127741928 -47.21939982530995 
          A 4 4 0 0 1 -17.94607194337815 -45.32660368705247
        
          A 48.75 48.75 0 0 1 -16.75341011104888 -45.780844789617284
          A 4 4 0 0 1 -17.024149820922418 -48.07471604570132
          L -16.266924774201662 -48.3361889104891 
          A 4 4 0 0 1 -15.064578475778777 -46.36400516938896
        
          A 48.75 48.75 0 0 1 -13.845748054316312 -46.74246207482464
          A 4 4 0 0 1 -13.97192015331414 -49.04880678701002
          L -13.19977130022864 -49.26221714074273 
          A 4 4 0 0 1 -12.123631999286745 -47.21842910502101
        
          A 48.75 48.75 0 0 1 -10.883443155533946 -47.519608216822306
          A 4 4 0 0 1 -10.864549700023874 -49.8293242961987
          L -10.080524359335499 -49.99382990570807 
          A 4 4 0 0 1 -9.134839086054136 -47.88650347302382
        
          A 48.75 48.75 0 0 1 -7.87818627878891 -48.109216174832106
          A 4 4 0 0 1 -7.714301832608234 -50.41318822724313
          L -6.921494194149573 -50.5281398640439 
          A 4 4 0 0 1 -6.109995136259877 -48.365591689081064
        
          A 48.75 48.75 0 0 1 -4.841837800002439 -48.50895903561005
          A 4 4 0 0 1 -4.533609140188554 -50.798094335949536
          L -3.7351480535092487 -50.86303833844765 
          A 4 4 0 0 1 -3.0610378270540557 -48.65380301087852
        
          A 48.75 48.75 0 0 1 -1.7863807994446397 -48.71725919670977
          A 4 4 0 0 1 -1.3350243637015502 -50.98252357375371
          L -0.5340609899285504 -50.997203637641405 
          A 4 4 0 0 1 -1.1355295788629359e-14 -48.75000000000028
        
          A 48.75 48.75 0 0 1 1.276126230008812 -48.73329459255869
          A 4 4 0 0 1 1.868829144034369 -50.96574808271176
          L 2.669133768390139 -50.93010627248356 
          A 4 4 0 0 1 3.0610378270540335 -48.653803010878526
        
          A 48.75 48.75 0 0 1 4.333596972239038 -48.5570019387753
          A 4 4 0 0 1 5.065307236925607 -50.74783406802285
          L 5.861794675136219 -50.662011045620524 
          A 4 4 0 0 1 6.109995136259856 -48.365591689081086
        
          A 48.75 48.75 0 0 1 7.373964987051968 -48.18907698192361
          A 4 4 0 0 1 8.241794876271456 -50.32964153674748
          L 9.03132175629879 -50.19397600643165 
          A 4 4 0 0 1 9.13483908605412 -47.886503473023865
        
          A 48.75 48.75 0 0 1 10.38523133090516 -47.630971753719386
          A 4 4 0 0 1 11.385755916558578 -49.712820903752615
          L 12.165206336507687 -49.52784827539174 
          A 4 4 0 0 1 12.123631999286733 -47.21842910502106
        
          A 48.75 48.75 0 0 1 13.355511911256151 -46.88488884052435
          A 4 4 0 0 1 14.484782579900129 -48.89980647827816
          L 15.2510804050605 -48.66625675433043 
          A 4 4 0 0 1 15.064578475778768 -46.36400516938904
        
          A 48.75 48.75 0 0 1 16.27308438764642 -45.953772690743996
          A 4 4 0 0 1 17.526644423866518 -47.89380685683048
          L 18.276765426810417 -47.6126017513576 
          A 4 4 0 0 1 17.94607194337815 -45.32660368705255
        
          A 48.75 48.75 0 0 1 19.126434434423732 -44.841297994434996
          A 4 4 0 0 1 20.49933660945409 -46.69879226031791
          L 21.230320405280587 -46.37104156140079 
          A 4 4 0 0 1 20.756740463797417 -44.110318807718734
        
          A 48.75 48.75 0 0 1 21.90430118252509 -43.55185518098236
          A 4 4 0 0 1 23.3911272787002 -45.31947886540268
          L 24.100089008321895 -44.94647605531489 
          A 4 4 0 0 1 23.48549161245876 -42.71995065213862
        
          A 48.75 48.75 0 0 1 24.595721660982335 -42.090533092080385
          A 4 4 0 0 1 26.190603854966835 -43.76131019190615
          L 26.874745570330717 -43.34452734233033 
          A 4 4 0 0 1 26.121556255226245 -41.16098636822349
        
          A 48.75 48.75 0 0 1 27.19007406276006 -40.46309889839941
          A 4 4 0 0 1 28.886718083166652 -42.03043561972306
          L 29.5433397894768 -41.571517582156524 
          A 4 4 0 0 1 28.654531049258242 -39.43957847577894
        
          A 48.75 48.75 0 0 1 29.677119664175315 -38.675975339197954
          A 4 4 0 0 1 31.468829632178377 -40.13368612002846
          L 32.09533994354191 -39.634444034305766 
          A 4 4 0 0 1 31.07441950024882 -37.562520585319966
        
          A 48.75 48.75 0 0 1 32.04704323246237 -36.73621537470508
          A 4 4 0 0 1 33.92674808737262 -38.0785472965552
          L 34.52067445381592 -37.540951443106685 
          A 4 4 0 0 1 33.37167141402379 -35.537220586794035
        
          A 48.75 48.75 0 0 1 34.29049176201229 -34.6514743513086
          A 4 4 0 0 1 36.25077316752285 -35.873129843335924
          L 36.809771633016716 -35.29930186739097 
          A 4 4 0 0 1 35.53722058679405 -33.37167141402379
        
          A 48.75 48.75 0 0 1 36.39861138641307 -32.4299797894003
          A 4 4 0 0 1 38.43173300738379 -33.526137535499096
          L 38.953597460367014 -32.918342073921686 
          A 4 4 0 0 1 37.56252058531998 -31.074419500248826
        
          A 48.75 48.75 0 0 1 38.363082320615455 -30.080498913111693
          A 4 4 0 0 1 40.46102035485327 -31.046832879444953
          L 40.94369123474712 -30.4074686232466 
          A 4 4 0 0 1 39.439578475778966 -28.65453104925825
        
          A 48.75 48.75 0 0 1 40.17615169532355 -27.612304050085775
          A 4 4 0 0 1 42.33062653986404 -28.445000557964377
          L 42.77219896521693 -27.776590785766555 
          A 4 4 0 0 1 41.16098636822353 -26.12155625522625
        
          A 48.75 48.75 0 0 1 41.83066415402797 -25.035136037835947
          A 4 4 0 0 1 44.03317308094567 -25.73090881456614
          L 44.43190436712998 -25.03609143437233 
          A 4 4 0 0 1 42.71995065213866 -23.48549161245876
        
          A 48.75 48.75 0 0 1 43.32009009192906 -22.359165781110484
          A 4 4 0 0 1 45.561940804720045 -22.91526892941086
          L 45.9162573415122 -22.196786067988832 
          A 4 4 0 0 1 44.11031880771877 -20.756740463797414
        
          A 48.75 48.75 0 0 1 44.63855142530392 -19.59495411197817
          A 4 4 0 0 1 46.910896363408966 -20.009192946781752
          L 47.219399825310084 -19.26988012774193 
          A 4 4 0 0 1 45.3266036870526 -17.946071943378154
        
          A 48.75 48.75 0 0 1 45.78084478961741 -16.75341011104888
          A 4 4 0 0 1 48.07471604570146 -17.024149820922414
          L 48.336188910489234 -16.26692477420166 
          A 4 4 0 0 1 46.36400516938909 -15.064578475778772
        
          A 48.75 48.75 0 0 1 46.74246207482476 -13.845748054316303
          A 4 4 0 0 1 49.04880678701015 -13.971920153314132
          L 49.262217140742855 -13.19977130022863 
          A 4 4 0 0 1 47.21842910502113 -12.123631999286735
        
          A 48.75 48.75 0 0 1 47.51960821682243 -10.883443155533932
          A 4 4 0 0 1 49.82932429619883 -10.864549700023856
          L 49.993829905708196 -10.08052435933548 
          A 4 4 0 0 1 47.88650347302394 -9.134839086054116
        
          A 48.75 48.75 0 0 1 48.10921617483223 -7.8781862787888866
          A 4 4 0 0 1 50.41318822724325 -7.714301832608209
          L 50.52813986404402 -6.921494194149547 
          A 4 4 0 0 1 48.36559168908118 -6.109995136259851
        
          A 48.75 48.75 0 0 1 48.50895903561016 -4.841837800002411
          A 4 4 0 0 1 50.79809433594965 -4.533609140188523
          L 50.863038338447765 -3.7351480535092154 
          A 4 4 0 0 1 48.653803010878626 -3.0610378270540224
        
          A 48.75 48.75 0 0 1 48.717259196709875 -1.7863807994446035
          A 4 4 0 0 1 50.982523573753824 -1.3350243637015113
          L 50.99720363764152 -0.5340609899285098 
          A 4 4 0 0 1 48.750000000000384 2.854742586113362e-14
        
         z"
            id="gear" />
    </g>
        
   
    <g style="fill:#ffcccc"  transform="translate(200,200)">
        <path style="fill:#ffcccc;stroke:#000000;stroke-width:0.050000"
            d="M 1.961161351381842 9.8058067569092 A 10 10 0 1 0 -1.9611613513818411 9.8058067569092
              L -1.9611613513818411 11.8058067569092  1.961161351381842 11.8058067569092  1.961161351381842 9.8058067569092"
            id="bearing" />
    </g>
        
   </g>
   
</svg>
