<?xml version="1.0" encoding="UTF-8" standalone="no"?>
<svg
   xmlns:svg="http://www.w3.org/2000/svg"
   xmlns="http://www.w3.org/2000/svg"
   xmlns:inkscape="http://www.inkscape.org/namespaces/inkscape"
   width="400mm"
   height="400mm"
   viewBox="0 0 400 400"
   version="1.1"
   id="gear_hobbymat">
   <g>
   
    <g style="fill:#cccccc" transform="translate(200,200)">
        <path style="fill:#cccccc;stroke:#000000;stroke-width:0.050000"
            d="  M  33.75 0.0      
          A 33.75 33.75 0 0 1 33.72639878660845 1.2619528068259898
          A 4 4 0 0 1 35.950663251164656 1.884094424745978
          L 35.89933669852248 2.690283369111273 
          A 4 4 0 0 1 33.61413242233932 3.0253266754908807
        
          A 33.75 33.75 0 0 1 33.47750564302161 4.2800836348670055
          A 4 4 0 0 1 35.63704752809627 5.099102222961205
          L 35.51366138124677 5.897444810944957 
          A 4 4 0 0 1 33.20762361520375 6.026295199453987
        
          A 33.75 33.75 0 0 1 32.9590713084517 7.263753746128494
          A 4 4 0 0 1 35.03650325257625 8.273055048300701
          L 34.84205094422399 9.057123494802305 
          A 4 4 0 0 1 32.53374654848505 8.978743537875285
        
          A 33.75 33.75 0 0 1 32.17526991132624 10.188940383244194
          A 4 4 0 0 1 34.153865653996796 11.380398098868877
          L 33.88991279979252 12.14387954578188 
          A 4 4 0 0 1 31.597926884091137 11.858900312745316
        
          A 33.75 33.75 0 0 1 31.13241215962712 13.032091663393938
          A 4 4 0 0 1 32.996241211319145 14.396112875510676
          L 32.664913004443136 15.132860219144359 
          A 4 4 0 0 1 30.40769929170665 14.643576195217587
        
          A 33.75 33.75 0 0 1 29.838894530780582 15.770316204215842
          A 4 4 0 0 1 31.572950435883598 17.295918616056156
          L 31.176914536239792 18.0 
          A 4 4 0 0 1 28.972646784062984 17.310350612449337
        
          A 33.75 33.75 0 0 1 28.30513166815806 18.38156743175717
          A 4 4 0 0 1 29.895452828132537 20.056467789740612
          L 29.43789788391953 20.722214364684255 
          A 4 4 0 0 1 27.304323560154476 19.837752264870975
        
          A 33.75 33.75 0 0 1 26.543472528491435 20.844821086524608
          A 4 4 0 0 1 27.977254612450952 22.655534077794155
          L 27.461864587041593 23.27758564376879 
          A 4 4 0 0 1 25.416161977621872 22.205432000465304
        
          A 33.75 33.75 0 0 1 24.568100955334497 23.140244498459655
          A 4 4 0 0 1 25.833799992989228 25.07219132669161
          L 25.26472450382369 25.645539490248414 
          A 4 4 0 0 1 23.323364403306684 24.394326654174463
        
          A 33.75 33.75 0 0 1 22.39492147909463 25.249356267936534
          A 4 4 0 0 1 23.482346806012362 27.286982033236306
          L 22.864167714318434 27.80701053208558 
          A 4 4 0 0 1 21.042780812732257 26.386812533296006
        
          A 33.75 33.75 0 0 1 20.04143126310568 27.155175067125054
          A 4 4 0 0 1 20.941827569949808 29.282074004935
          L 20.279522090290392 29.744595875375815 
          A 4 4 0 0 1 18.59277312400846 28.166847313093967
        
          A 33.75 33.75 0 0 1 17.52657922675695 28.842356363657455
          A 4 4 0 0 1 18.23269705188922 31.04140393432665
          L 17.53159767855722 31.442695222216667 
          A 4 4 0 0 1 15.993067358463705 29.720099200164903
        
          A 33.75 33.75 0 0 1 14.870613479936075 30.297315965780584
          A 4 4 0 0 1 15.376767577819082 32.55080673128903
          L 14.642519150728805 32.887636475133625 
          A 4 4 0 0 1 13.264594818319921 31.034062323611458
        
          A 33.75 33.75 0 0 1 12.094918297153882 31.508339394280558
          A 4 4 0 0 1 12.39703341260526 33.7981295720155
          L 11.635547668360559 34.067785816769906 
          A 4 4 0 0 1 10.429323560154472 32.09815742496143
        
          A 33.75 33.75 0 0 1 9.221841943939797 32.46567620058131
          A 4 4 0 0 1 9.317485623690743 34.77332974640645
          L 8.534893597757906 34.97364137854323 
          A 4 4 0 0 1 7.510081521025605 32.903817036136545
        
          A 33.75 33.75 0 0 1 6.274516741748361 33.16161847162348
          A 4 4 0 0 1 6.162918919127094 35.468555516066125
          L 5.365521582342273 35.59790974410462 
          A 4 4 0 0 1 4.530372721345866 33.44455445966779
        
          A 33.75 33.75 0 0 1 3.2766728201084683 33.59056288944801
          A 4 4 0 0 1 2.9587320151642773 35.87820933188335
          L 2.152949542021225 35.93556467163846 
          A 4 4 0 0 1 1.514188024329874 33.71601599576937
        
          A 33.75 33.75 0 0 1 0.252447055573481 33.74905584581785
          A 4 4 0 0 1 -0.26927685927839 35.99899290220571
          L -1.0769567820983494 35.983887562206114 
          A 4 4 0 0 1 -1.5141880243298835 33.71601599576937
        
          A 33.75 33.75 0 0 1 -2.77381126421652 33.63582124864064
          A 4 4 0 0 1 -3.4951176747823776 35.82993374874455
          L -4.298192083448801 35.742489348306144 
          A 4 4 0 0 1 -4.530372721345877 33.4445544596678
        
          A 33.75 33.75 0 0 1 -5.777736486681661 33.251770796311995
          A 4 4 0 0 1 -6.69281785786493 35.372393036398364
          L -7.48482086943934 35.21331362641699 
          A 4 4 0 0 1 -7.510081521025615 32.90381703613654
        
          A 33.75 33.75 0 0 1 -8.735142772210079 32.59999663725604
          A 4 4 0 0 1 -9.836631406869124 34.63005461395339
          L -10.611186278792555 34.400621008301044 
          A 4 4 0 0 1 -10.42932356015448 32.098157424961414
        
          A 33.75 33.75 0 0 1 -11.622218824317436 31.68574647376451
          A 4 4 0 0 1 -12.901246183630812 33.608895353899236
          L -13.652116655505424 33.31095481706385 
          A 4 4 0 0 1 -13.264594818319924 31.03406232361143
        
          A 33.75 33.75 0 0 1 -14.41571960420539 30.516381310583444
          A 4 4 0 0 1 -15.861987711931814 32.31713703016593
          L -16.58312821622276 31.953088404163914 
          A 4 4 0 0 1 -15.993067358463705 29.720099200164878
        
          A 33.75 33.75 0 0 1 -17.093153486146146 29.101316188431202
          A 4 4 0 0 1 -18.69501784187408 30.765180121234582
          L -19.38062217926456 30.337954511545373 
          A 4 4 0 0 1 -18.592773124008453 28.166847313093932
        
          A 33.75 33.75 0 0 1 -19.632963346827935 27.45194437962653
          A 4 4 0 0 1 -21.37752668064605 28.965520071600025
          L -22.022074768140218 28.47855724762825 
          A 4 4 0 0 1 -21.042780812732246 26.386812533295974
        
          A 33.75 33.75 0 0 1 -22.014700130636577 25.581545656159
          A 4 4 0 0 1 -23.88791624436759 26.932646685798936
          L -24.486218559753084 26.38986738587371 
          A 4 4 0 0 1 -23.32336440330667 24.394326654174428
        
          A 33.75 33.75 0 0 1 -24.219187493427388 23.50517936877334
          A 4 4 0 0 1 -26.20597435235678 24.682927465023585
          L -26.753213717186174 24.08870182891885 
          A 4 4 0 0 1 -25.41616197762185 22.205432000465258
        
          A 33.75 33.75 0 0 1 -26.228676199172746 21.23956319793197
          A 4 4 0 0 1 -28.313037363724174 22.234475825626195
          L -28.8048077284034 21.59358820876485 
          A 4 4 0 0 1 -27.304323560154454 19.83775226487093
        
          A 33.75 33.75 0 0 1 -28.02698702637423 18.80293855288178
          A 4 4 0 0 1 -30.192140446035243 19.607005260540934
          L -30.624482364744196 18.924615713178127 
          A 4 4 0 0 1 -28.972646784062952 17.310350612449295
        
          A 33.75 33.75 0 0 1 -29.59964103364084 16.214923702552607
          A 4 4 0 0 1 -31.82815416616592 16.821670617830193
          L -32.19758667598809 16.103273339362737 
          A 4 4 0 0 1 -30.407699291706617 14.643576195217552
        
          A 33.75 33.75 0 0 1 -30.933976135611665 13.496355820791223
          A 4 4 0 0 1 -33.20790630360222 13.90089777428683
          L -33.51145495119132 13.152276877190184 
          A 4 4 0 0 1 -31.597926884091095 11.858900312745284
        
          A 33.75 33.75 0 0 1 -32.01924905062195 10.66912321768954
          A 4 4 0 0 1 -34.32028790541461 10.86820307546044
          L -34.555508695543956 10.095386015016068 
          A 4 4 0 0 1 -32.533746548485006 8.978743537875257
        
          A 33.75 33.75 0 0 1 -32.846721799290194 7.755989107781881
          A 4 4 0 0 1 -35.15634272901511 7.748003995870365
          L -35.32134180219017 6.957213040639889 
          A 4 4 0 0 1 -33.20762361520371 6.02629519945396
        
          A 33.75 33.75 0 0 1 -33.409732057590205 4.780408334026104
          A 4 4 0 0 1 -35.709339352556334 4.565422543858111
          L -35.80278823325779 3.7630246776354985 
          A 4 4 0 0 1 -33.614132422339274 3.0253266754908563
        
          A 33.75 33.75 0 0 1 -33.70374679796682 1.7663385231993316
          A 4 4 0 0 1 -35.9748253723823 1.346082993947699
          L -35.99597166516979 0.538538652549468 
          A 4 4 0 0 1 -33.74999999999995 -2.0088097851811426e-14
        
          A 33.75 33.75 0 0 1 -33.7263987866084 -1.261952806826008
          A 4 4 0 0 1 -35.9506632511646 -1.8840944247459968
          L -35.899336698522426 -2.6902833691112904 
          A 4 4 0 0 1 -33.61413242233926 -3.025326675490896
        
          A 33.75 33.75 0 0 1 -33.47750564302155 -4.280083634867019
          A 4 4 0 0 1 -35.63704752809621 -5.099102222961219
          L -35.51366138124671 -5.897444810944968 
          A 4 4 0 0 1 -33.20762361520369 -6.0262951994539975
        
          A 33.75 33.75 0 0 1 -32.959071308451634 -7.2637537461285016
          A 4 4 0 0 1 -35.03650325257618 -8.27305504830071
          L -34.84205094422392 -9.057123494802312 
          A 4 4 0 0 1 -32.53374654848498 -8.97874353787529
        
          A 33.75 33.75 0 0 1 -32.17526991132617 -10.188940383244196
          A 4 4 0 0 1 -34.15386565399672 -11.380398098868877
          L -33.88991279979244 -12.143879545781878 
          A 4 4 0 0 1 -31.597926884091063 -11.858900312745314
        
          A 33.75 33.75 0 0 1 -31.132412159627044 -13.032091663393935
          A 4 4 0 0 1 -32.99624121131907 -14.396112875510672
          L -32.66491300444306 -15.132860219144353 
          A 4 4 0 0 1 -30.407699291706574 -14.643576195217582
        
          A 33.75 33.75 0 0 1 -29.838894530780507 -15.770316204215835
          A 4 4 0 0 1 -31.57295043588352 -17.295918616056145
          L -31.176914536239714 -17.999999999999986 
          A 4 4 0 0 1 -28.97264678406291 -17.31035061244932
        
          A 33.75 33.75 0 0 1 -28.305131668157987 -18.381567431757148
          A 4 4 0 0 1 -29.89545282813246 -20.056467789740587
          L -29.43789788391945 -20.722214364684227 
          A 4 4 0 0 1 -27.304323560154405 -19.837752264870947
        
          A 33.75 33.75 0 0 1 -26.543472528491364 -20.844821086524576
          A 4 4 0 0 1 -27.977254612450874 -22.655534077794123
          L -27.461864587041514 -23.27758564376876 
          A 4 4 0 0 1 -25.416161977621798 -22.205432000465272
        
          A 33.75 33.75 0 0 1 -24.568100955334426 -23.140244498459623
          A 4 4 0 0 1 -25.833799992989153 -25.07219132669157
          L -25.264724503823615 -25.645539490248375 
          A 4 4 0 0 1 -23.323364403306613 -24.394326654174428
        
          A 33.75 33.75 0 0 1 -22.39492147909456 -25.249356267936495
          A 4 4 0 0 1 -23.482346806012288 -27.286982033236264
          L -22.86416771431836 -27.807010532085535 
          A 4 4 0 0 1 -21.04278081273219 -26.386812533295963
        
          A 33.75 33.75 0 0 1 -20.041431263105615 -27.155175067125008
          A 4 4 0 0 1 -20.94182756994974 -29.282074004934948
          L -20.279522090290325 -29.744595875375758 
          A 4 4 0 0 1 -18.592773124008396 -28.16684731309391
        
          A 33.75 33.75 0 0 1 -17.526579226756887 -28.842356363657395
          A 4 4 0 0 1 -18.232697051889154 -31.041403934326585
          L -17.53159767855715 -31.442695222216603 
          A 4 4 0 0 1 -15.993067358463641 -29.720099200164842
        
          A 33.75 33.75 0 0 1 -14.870613479936013 -30.29731596578052
          A 4 4 0 0 1 -15.376767577819018 -32.55080673128896
          L -14.642519150728743 -32.88763647513355 
          A 4 4 0 0 1 -13.264594818319864 -31.034062323611384
        
          A 33.75 33.75 0 0 1 -12.094918297153828 -31.50833939428048
          A 4 4 0 0 1 -12.397033412605204 -33.79812957201542
          L -11.635547668360504 -34.06778581676983 
          A 4 4 0 0 1 -10.429323560154423 -32.09815742496136
        
          A 33.75 33.75 0 0 1 -9.221841943939749 -32.46567620058124
          A 4 4 0 0 1 -9.317485623690693 -34.773329746406375
          L -8.534893597757858 -34.97364137854314 
          A 4 4 0 0 1 -7.510081521025562 -32.903817036136466
        
          A 33.75 33.75 0 0 1 -6.27451674174832 -33.16161847162339
          A 4 4 0 0 1 -6.162918919127051 -35.46855551606603
          L -5.365521582342232 -35.59790974410453 
          A 4 4 0 0 1 -4.530372721345829 -33.44455445966771
        
          A 33.75 33.75 0 0 1 -3.276672820108434 -33.590562889447924
          A 4 4 0 0 1 -2.9587320151642422 -35.878209331883255
          L -2.1529495420211915 -35.93556467163836 
          A 4 4 0 0 1 -1.514188024329844 -33.71601599576927
        
          A 33.75 33.75 0 0 1 -0.2524470555734548 -33.74905584581775
          A 4 4 0 0 1 0.2692768592784163 -35.9989929022056
          L 1.0769567820983732 -35.98388756220601 
          A 4 4 0 0 1 1.514188024329904 -33.71601599576926
        
          A 33.75 33.75 0 0 1 2.7738112642165365 -33.63582124864053
          A 4 4 0 0 1 3.4951176747823935 -35.82993374874444
          L 4.298192083448814 -35.74248934830603 
          A 4 4 0 0 1 4.530372721345888 -33.44455445966769
        
          A 33.75 33.75 0 0 1 5.777736486681668 -33.25177079631189
          A 4 4 0 0 1 6.692817857864936 -35.37239303639825
          L 7.484820869439344 -35.21331362641688 
          A 4 4 0 0 1 7.510081521025617 -32.90381703613643
        
          A 33.75 33.75 0 0 1 8.735142772210077 -32.599996637255934
          A 4 4 0 0 1 9.83663140686912 -34.63005461395328
          L 10.611186278792548 -34.40062100830093 
          A 4 4 0 0 1 10.429323560154472 -32.09815742496131
        
          A 33.75 33.75 0 0 1 11.622218824317425 -31.685746473764404
          A 4 4 0 0 1 12.9012461836308 -33.60889535389912
          L 13.65211665550541 -33.31095481706374 
          A 4 4 0 0 1 13.264594818319908 -31.034062323611323
        
          A 33.75 33.75 0 0 1 14.415719604205371 -30.516381310583338
          A 4 4 0 0 1 15.861987711931791 -32.31713703016582
          L 16.583128216222732 -31.9530884041638 
          A 4 4 0 0 1 15.993067358463675 -29.72009920016477
        
          A 33.75 33.75 0 0 1 17.09315348614611 -29.101316188431095
          A 4 4 0 0 1 18.695017841874044 -30.76518012123447
          L 19.38062217926452 -30.33795451154526 
          A 4 4 0 0 1 18.592773124008417 -28.166847313093825
        
          A 33.75 33.75 0 0 1 19.632963346827896 -27.451944379626422
          A 4 4 0 0 1 21.377526680646003 -28.96552007159991
          L 22.02207476814017 -28.47855724762814 
          A 4 4 0 0 1 21.042780812732197 -26.38681253329587
        
          A 33.75 33.75 0 0 1 22.014700130636523 -25.5815456561589
          A 4 4 0 0 1 23.887916244367535 -26.93264668579883
          L 24.486218559753024 -26.389867385873604 
          A 4 4 0 0 1 23.323364403306613 -24.394326654174332
        
          A 33.75 33.75 0 0 1 24.219187493427327 -23.50517936877325
          A 4 4 0 0 1 26.205974352356716 -24.682927465023493
          L 26.75321371718611 -24.088701828918758 
          A 4 4 0 0 1 25.41616197762179 -22.205432000465176
        
          A 33.75 33.75 0 0 1 26.228676199172682 -21.23956319793189
          A 4 4 0 0 1 28.313037363724106 -22.234475825626106
          L 28.804807728403333 -21.593588208764764 
          A 4 4 0 0 1 27.304323560154387 -19.83775226487085
        
          A 33.75 33.75 0 0 1 28.026987026374158 -18.802938552881702
          A 4 4 0 0 1 30.192140446035165 -19.607005260540852
          L 30.624482364744118 -18.924615713178046 
          A 4 4 0 0 1 28.97264678406288 -17.31035061244922
        
          A 33.75 33.75 0 0 1 29.599641033640765 -16.214923702552536
          A 4 4 0 0 1 31.82815416616584 -16.82167061783012
          L 32.19758667598801 -16.103273339362666 
          A 4 4 0 0 1 30.407699291706543 -14.643576195217486
        
          A 33.75 33.75 0 0 1 30.933976135611587 -13.49635582079116
          A 4 4 0 0 1 33.20790630360214 -13.900897774286765
          L 33.51145495119123 -13.15227687719012 
          A 4 4 0 0 1 31.597926884091017 -11.858900312745225
        
          A 33.75 33.75 0 0 1 32.01924905062187 -10.669123217689485
          A 4 4 0 0 1 34.320287905414524 -10.868203075460384
          L 34.55550869554387 -10.095386015016013 
          A 4 4 0 0 1 32.53374654848493 -8.978743537875207
        
          A 33.75 33.75 0 0 1 32.846721799290115 -7.755989107781835
          A 4 4 0 0 1 35.15634272901502 -7.7480039958703175
          L 35.321341802190084 -6.957213040639845 
          A 4 4 0 0 1 33.20762361520363 -6.02629519945392
        
          A 33.75 33.75 0 0 1 33.40973205759012 -4.780408334026067
          A 4 4 0 0 1 35.70933935255624 -4.565422543858074
          L 35.8027882332577 -3.763024677635463 
          A 4 4 0 0 1 33.61413242233919 -3.0253266754908243
        
          A 33.75 33.75 0 0 1 33.70374679796674 -1.7663385231993027
          A 4 4 0 0 1 35.974825372382206 -1.3460829939476693
          L 35.9959716651697 -0.5385386525494402 
          A 4 4 0 0 1 33.749999999999865 4.475586568020162e-14
        
         z"
            id="gear" />
    </g>
        
   
    <g style="fill:#ffcccc"  transform="translate(200,200)">
        <path style="fill:#ffcccc;stroke:#000000;stroke-width:0.050000"
            d="M 1.961161351381842 9.8058067569092 A 10 10 0 1 0 -1.9611613513818411 9.8058067569092
              L -1.9611613513818411 11.8058067569092  1.961161351381842 11.8058067569092  1.961161351381842 9.8058067569092"
            id="bearing" />
    </g>
        
   </g>
   
</svg>
