<?xml version="1.0" encoding="UTF-8" standalone="no"?>
<svg
   xmlns:svg="http://www.w3.org/2000/svg"
   xmlns="http://www.w3.org/2000/svg"
   xmlns:inkscape="http://www.inkscape.org/namespaces/inkscape"
   width="400mm"
   height="400mm"
   viewBox="0 0 400 400"
   version="1.1"
   id="gear_hobbymat">
   <g>
   
    <g style="fill:#cccccc" transform="translate(200,200)">
        <path style="fill:#cccccc;stroke:#000000;stroke-width:0.050000"
            d="  M  18.75 0.0      
          A 18.75 18.75 0 0 1 18.709854810723815 1.2263086730651827
          A 4 4 0 0 1 20.9119034790679 1.9215339919314502
          L 20.82034208885002 2.7410500366210835 
          A 4 4 0 0 1 18.519156386158834 2.9331462195043287
        
          A 18.75 18.75 0 0 1 18.287668509534615 4.138076906653145
          A 4 4 0 0 1 20.35384910384185 5.169219153608854
          L 20.13521443223206 5.964322238782375 
          A 4 4 0 0 1 17.832309680534138 5.794068644530264
        
          A 18.75 18.75 0 0 1 17.415179116348586 6.947951953309429
          A 4 4 0 0 1 19.294615413126873 8.289620984069613
          L 18.95429097134708 9.040733032974199 
          A 4 4 0 0 1 16.706372328531906 8.512321870116503
        
          A 18.75 18.75 0 0 1 16.113870215652245 9.586745363944729
          A 4 4 0 0 1 17.76028425578345 11.205904834227846
          L 17.306649961062337 11.894530975421493 
          A 4 4 0 0 1 15.16906864453027 11.020973480483875
        
          A 18.75 18.75 0 0 1 14.415784351377372 11.989481287135968
          A 4 4 0 0 1 15.788635957058533 13.846262117101453
          L 15.232861791258047 14.455446089568841 
          A 4 4 0 0 1 13.258252147247772 13.258252147247774
        
          A 18.75 18.75 0 0 1 12.362734033126296 14.096996390230835
          A 4 4 0 0 1 13.428219041592286 16.14567847354266
          L 12.783990009183139 16.660420146115946 
          A 4 4 0 0 1 11.020973480483876 15.16906864453027
        
          A 18.75 18.75 0 0 1 10.005272173417719 15.857396656949504
          A 4 4 0 0 1 10.737154807618097 18.047534641530515
          L 10.02033396545178 18.45515936590128 
          A 4 4 0 0 1 8.512321870116505 16.706372328531906
        
          A 18.75 18.75 0 0 1 7.4014473072050135 17.22733519029185
          A 4 4 0 0 1 7.781706187706564 19.505000610310418
          L 7.009944043909192 19.795471312935753 
          A 4 4 0 0 1 5.794068644530267 17.832309680534134
        
          A 18.75 18.75 0 0 1 4.615374244293622 18.17307955700165
          A 4 4 0 0 1 4.6346461354515265 20.482188730678775
          L 3.8269460353350997 20.648353058843057 
          A 4 4 0 0 1 2.9331462195043314 18.519156386158844
        
          A 18.75 18.75 0 0 1 1.715655349938796 18.67134239202492
          A 4 4 0 0 1 1.3734657138330058 20.955037388010687
          L 0.5497159144653371 20.992803824486714 
          A 4 4 0 0 1 5.947623346206196e-16 18.75000000000001
        
          A 18.75 18.75 0 0 1 -1.2263086730651827 18.709854810723826
          A 4 4 0 0 1 -1.921533991931451 20.91190347906791
          L -2.741050036621085 20.82034208885003 
          A 4 4 0 0 1 -2.9331462195043305 18.519156386158844
        
          A 18.75 18.75 0 0 1 -4.138076906653148 18.287668509534626
          A 4 4 0 0 1 -5.169219153608857 20.35384910384186
          L -5.96432223878238 20.135214432232072 
          A 4 4 0 0 1 -5.794068644530269 17.83230968053415
        
          A 18.75 18.75 0 0 1 -6.947951953309436 17.415179116348597
          A 4 4 0 0 1 -8.289620984069622 19.294615413126884
          L -9.04073303297421 18.954290971347092 
          A 4 4 0 0 1 -8.512321870116514 16.706372328531916
        
          A 18.75 18.75 0 0 1 -9.58674536394474 16.113870215652256
          A 4 4 0 0 1 -11.205904834227859 17.76028425578346
          L -11.894530975421507 17.306649961062348 
          A 4 4 0 0 1 -11.020973480483887 15.169068644530281
        
          A 18.75 18.75 0 0 1 -11.98948128713598 14.415784351377381
          A 4 4 0 0 1 -13.846262117101467 15.788635957058542
          L -14.455446089568856 15.232861791258056 
          A 4 4 0 0 1 -13.258252147247786 13.25825214724778
        
          A 18.75 18.75 0 0 1 -14.096996390230847 12.362734033126305
          A 4 4 0 0 1 -16.145678473542674 13.428219041592296
          L -16.66042014611596 12.783990009183148 
          A 4 4 0 0 1 -15.169068644530284 11.020973480483883
        
          A 18.75 18.75 0 0 1 -15.85739665694952 10.005272173417726
          A 4 4 0 0 1 -18.047534641530532 10.737154807618106
          L -18.4551593659013 10.020333965451787 
          A 4 4 0 0 1 -16.706372328531923 8.512321870116512
        
          A 18.75 18.75 0 0 1 -17.227335190291868 7.401447307205019
          A 4 4 0 0 1 -19.50500061031044 7.781706187706569
          L -19.795471312935774 7.009944043909196 
          A 4 4 0 0 1 -17.832309680534156 5.794068644530269
        
          A 18.75 18.75 0 0 1 -18.17307955700167 4.615374244293623
          A 4 4 0 0 1 -20.4821887306788 4.6346461354515265
          L -20.64835305884308 3.826946035335099 
          A 4 4 0 0 1 -18.519156386158866 2.93314621950433
        
          A 18.75 18.75 0 0 1 -18.67134239202494 1.7156553499387934
          A 4 4 0 0 1 -20.955037388010712 1.3734657138330022
          L -20.99280382448674 0.5497159144653325 
          A 4 4 0 0 1 -18.750000000000032 -4.064209286574234e-15
        
          A 18.75 18.75 0 0 1 -18.709854810723847 -1.2263086730651886
          A 4 4 0 0 1 -20.911903479067934 -1.921533991931458
          L -20.820342088850055 -2.741050036621093 
          A 4 4 0 0 1 -18.519156386158866 -2.9331462195043376
        
          A 18.75 18.75 0 0 1 -18.287668509534647 -4.138076906653156
          A 4 4 0 0 1 -20.353849103841885 -5.169219153608867
          L -20.135214432232097 -5.96432223878239 
          A 4 4 0 0 1 -17.83230968053417 -5.794068644530279
        
          A 18.75 18.75 0 0 1 -17.415179116348618 -6.947951953309447
          A 4 4 0 0 1 -19.29461541312691 -8.289620984069634
          L -18.954290971347113 -9.040733032974222 
          A 4 4 0 0 1 -16.706372328531934 -8.512321870116525
        
          A 18.75 18.75 0 0 1 -16.11387021565227 -9.586745363944752
          A 4 4 0 0 1 -17.760284255783475 -11.205904834227873
          L -17.306649961062362 -11.894530975421521 
          A 4 4 0 0 1 -15.169068644530293 -11.0209734804839
        
          A 18.75 18.75 0 0 1 -14.415784351377393 -11.989481287135993
          A 4 4 0 0 1 -15.788635957058556 -13.84626211710148
          L -15.23286179125807 -14.455446089568868 
          A 4 4 0 0 1 -13.258252147247791 -13.258252147247799
        
          A 18.75 18.75 0 0 1 -12.362734033126314 -14.09699639023086
          A 4 4 0 0 1 -13.428219041592305 -16.14567847354269
          L -12.783990009183157 -16.66042014611598 
          A 4 4 0 0 1 -11.020973480483892 -15.169068644530302
        
          A 18.75 18.75 0 0 1 -10.005272173417733 -15.857396656949538
          A 4 4 0 0 1 -10.737154807618111 -18.04753464153055
          L -10.020333965451792 -18.455159365901316 
          A 4 4 0 0 1 -8.512321870116516 -16.706372328531938
        
          A 18.75 18.75 0 0 1 -7.4014473072050215 -17.227335190291882
          A 4 4 0 0 1 -7.781706187706572 -19.505000610310454
          L -7.009944043909199 -19.79547131293579 
          A 4 4 0 0 1 -5.794068644530272 -17.832309680534166
        
          A 18.75 18.75 0 0 1 -4.6153742442936245 -18.17307955700168
          A 4 4 0 0 1 -4.634646135451528 -20.48218873067881
          L -3.8269460353351 -20.648353058843092 
          A 4 4 0 0 1 -2.933146219504331 -18.519156386158873
        
          A 18.75 18.75 0 0 1 -1.7156553499387939 -18.671342392024947
          A 4 4 0 0 1 -1.3734657138330024 -20.95503738801072
          L -0.5497159144653324 -20.992803824486746 
          A 4 4 0 0 1 4.262463398114441e-15 -18.75000000000004
        
          A 18.75 18.75 0 0 1 1.2263086730651895 -18.709854810723854
          A 4 4 0 0 1 1.9215339919314594 -20.91190347906794
          L 2.7410500366210946 -20.82034208885006 
          A 4 4 0 0 1 2.93314621950434 -18.519156386158873
        
          A 18.75 18.75 0 0 1 4.1380769066531595 -18.287668509534655
          A 4 4 0 0 1 5.1692191536088705 -20.353849103841892
          L 5.964322238782394 -20.135214432232104 
          A 4 4 0 0 1 5.794068644530283 -17.832309680534177
        
          A 18.75 18.75 0 0 1 6.947951953309451 -17.415179116348625
          A 4 4 0 0 1 8.28962098406964 -19.294615413126916
          L 9.040733032974227 -18.95429097134712 
          A 4 4 0 0 1 8.512321870116528 -16.706372328531938
        
          A 18.75 18.75 0 0 1 9.586745363944756 -16.113870215652273
          A 4 4 0 0 1 11.205904834227876 -17.76028425578348
          L 11.894530975421524 -17.306649961062366 
          A 4 4 0 0 1 11.020973480483903 -15.169068644530297
        
          A 18.75 18.75 0 0 1 11.989481287135998 -14.415784351377397
          A 4 4 0 0 1 13.846262117101487 -15.788635957058558
          L 14.455446089568875 -15.23286179125807 
          A 4 4 0 0 1 13.258252147247804 -13.258252147247791
        
          A 18.75 18.75 0 0 1 14.096996390230865 -12.362734033126314
          A 4 4 0 0 1 16.145678473542695 -13.428219041592305
          L 16.660420146115985 -12.783990009183157 
          A 4 4 0 0 1 15.169068644530306 -11.020973480483892
        
          A 18.75 18.75 0 0 1 15.857396656949541 -10.005272173417733
          A 4 4 0 0 1 18.047534641530557 -10.737154807618111
          L 18.455159365901324 -10.020333965451792 
          A 4 4 0 0 1 16.706372328531945 -8.512321870116516
        
          A 18.75 18.75 0 0 1 17.22733519029189 -7.4014473072050215
          A 4 4 0 0 1 19.50500061031046 -7.781706187706572
          L 19.795471312935796 -7.009944043909198 
          A 4 4 0 0 1 17.832309680534173 -5.79406864453027
        
          A 18.75 18.75 0 0 1 18.17307955700169 -4.615374244293623
          A 4 4 0 0 1 20.482188730678818 -4.6346461354515265
          L 20.6483530588431 -3.826946035335098 
          A 4 4 0 0 1 18.51915638615888 -2.933146219504329
        
          A 18.75 18.75 0 0 1 18.671342392024954 -1.7156553499387917
          A 4 4 0 0 1 20.955037388010727 -1.3734657138329998
          L 20.992803824486753 -0.5497159144653295 
          A 4 4 0 0 1 18.750000000000046 7.038020959677332e-15
        
         z"
            id="gear" />
    </g>
        
   
    <g style="fill:#ffcccc"  transform="translate(200,200)">
        <path style="fill:#ffcccc;stroke:#000000;stroke-width:0.050000"
            d="M 1.961161351381842 9.8058067569092 A 10 10 0 1 0 -1.9611613513818411 9.8058067569092
              L -1.9611613513818411 11.8058067569092  1.961161351381842 11.8058067569092  1.961161351381842 9.8058067569092"
            id="bearing" />
    </g>
        
   </g>
   
</svg>
