<?xml version="1.0" encoding="UTF-8" standalone="no"?>
<svg
   xmlns:svg="http://www.w3.org/2000/svg"
   xmlns="http://www.w3.org/2000/svg"
   xmlns:inkscape="http://www.inkscape.org/namespaces/inkscape"
   width="400mm"
   height="400mm"
   viewBox="0 0 400 400"
   version="1.1"
   id="gear_hobbymat">
   <g>
   
    <g style="fill:#cccccc" transform="translate(200,200)">
        <path style="fill:#cccccc;stroke:#000000;stroke-width:0.050000"
            d="  M  26.25 0.0      
          A 26.25 26.25 0 0 1 26.220267653553957 1.249025290373235
          A 4 4 0 0 1 28.4367410347601 1.8978301615241575
          L 28.37094979333291 2.709097234169205 
          A 4 4 0 0 1 26.07889555289944 2.99227450962669
        
          A 26.25 26.25 0 0 1 25.906978855917657 4.22976909051018
          A 4 4 0 0 1 28.035046495025863 5.127003805512333
          L 27.87720662091346 5.9254831883061385 
          A 4 4 0 0 1 25.56781281973625 5.945540144926313
        
          A 26.25 26.25 0 0 1 25.255952969276585 7.1553713819541915
          A 4 4 0 0 1 27.267872250151065 8.28933911415387
          L 27.020041427497485 9.06462140722488 
          A 4 4 0 0 1 24.723414545537526 8.821296571905037
        
          A 26.25 26.25 0 0 1 24.275677111678892 9.987692464704226
          A 4 4 0 0 1 26.145219589659455 11.343610210532068
          L 25.81062867224638 12.085588423548646 
          A 4 4 0 0 1 23.55670875314816 11.582053907634556
        
          A 26.25 26.25 0 0 1 22.978930678067066 12.689808701969797
          A 4 4 0 0 1 24.681724007856506 14.249999999999995
          L 24.264734899983278 14.949001312246034 
          A 4 4 0 0 1 22.082905236818515 14.19182145820943
        
          A 26.25 26.25 0 0 1 21.382618741321323 15.226493876243946
          A 4 4 0 0 1 22.896464407779053 16.970619246901602
          L 22.40251320016945 17.617531107287242 
          A 4 4 0 0 1 20.32121727927592 16.616576912482838
        
          A 26.25 26.25 0 0 1 19.507551668781602 17.564678416920017
          A 4 4 0 0 1 20.812714378516787 19.47000051870262
          L 20.248240480563016 20.05638944180355 
          A 4 4 0 0 1 18.294611177201457 18.824709874922778
        
          A 26.25 26.25 0 0 1 17.37817382728399 19.673880512717904
          A 4 4 0 0 1 18.457638788386113 21.715560558214104
          L 17.830000980599568 22.233782067651426 
          A 4 4 0 0 1 16.02950684043026 20.78743395545971
        
          A 26.25 26.25 0 0 1 15.02224491345611 21.526603488710006
          A 4 4 0 0 1 15.861939649328306 23.678025056179543
          L 15.179320150381805 24.12132334206008 
          A 4 4 0 0 1 13.555433368022758 22.479162044104196
        
          A 26.25 26.25 0 0 1 12.470478063618623 23.09869426752963
          A 4 4 0 0 1 13.059455869231204 25.331810286665302
          L 12.330753668225494 25.69440627789525 
          A 4 4 0 0 1 10.904644091299527 23.877839878056093
        
          A 26.25 26.25 0 0 1 9.756139461083608 24.36965824167189
          A 4 4 0 0 1 10.08672211001495 26.655356630053458
          L 9.32143695454653 26.932523333368035 
          A 4 4 0 0 1 8.111696102342382 24.965233552747765
        
          A 26.25 26.25 0 0 1 6.914614660581002 25.322926452044946
          A 4 4 0 0 1 6.98249250244128 27.631409635654684
          L 6.190601054864486 27.819533759204337 
          A 4 4 0 0 1 5.212999749450833 25.72716722867531
        
          A 26.25 26.25 0 0 1 3.98294728343747 25.946071589690746
          A 4 4 0 0 1 3.7872354267522566 28.24724495986027
          L 2.979061203128141 28.34387401799577 
          A 4 4 0 0 1 2.24634397256956 26.15370793514563
        
          A 26.25 26.25 0 0 1 0.9993560973215041 26.230970004762412
          A 4 4 0 0 1 0.5426059454454003 28.49483424742046
          L -0.27131526727791355 28.498708532593902 
          A 4 4 0 0 1 -0.7495963333345069 26.23929506173994
        
          A 26.25 26.25 0 0 1 -1.9972632238412247 26.173907610723507
          A 4 4 0 0 1 -2.709097234169182 28.37094979333288
          L -3.5181547282517753 28.282018798312077 
          A 4 4 0 0 1 -3.735764504673712 25.982812849374454
        
          A 26.25 26.25 0 0 1 -4.967845164460742 25.77562830314602
          A 4 4 0 0 1 -5.925483188306113 27.87720662091343
          L -6.719129662018647 27.69662969722091 
          A 4 4 0 0 1 -6.673231272579004 25.387604935926348
        
          A 26.25 26.25 0 0 1 -7.8736636460215 25.04132426189393
          A 4 4 0 0 1 -9.064621407224852 27.020041427497453
          L -9.83251046505663 26.750172671490358 
          A 4 4 0 0 1 -9.523702265454295 24.461430766800596
        
          A 26.25 26.25 0 0 1 -10.676836880739723 23.980568263118247
          A 4 4 0 0 1 -12.085588423548613 25.810628672246352
          L -12.817709457295836 25.454986235870305 
          A 4 4 0 0 1 -12.2500172346739 23.216364438692604
        
          A 26.25 26.25 0 0 1 -13.340821218599903 22.60718888348024
          A 4 4 0 0 1 -14.949001312245997 24.264734899983246
          L -15.63581000459895 23.827955126281417 
          A 4 4 0 0 1 -14.81663449525265 21.66863729527279
        
          A 26.25 26.25 0 0 1 -15.830887549719058 20.939090223506554
          A 4 4 0 0 1 -17.617531107287203 22.402513200169416
          L -18.25007385660254 21.890290181460582 
          A 4 4 0 0 1 -17.19009426606369 19.838426326799254
        
          A 26.25 26.25 0 0 1 -18.114574051405395 18.998018500258066
          A 4 4 0 0 1 -20.056389441803514 20.24824048056298
          L -20.626420085994447 19.667251827240165 
          A 4 4 0 0 1 -19.339454869255583 17.74959113219299
        
          A 26.25 26.25 0 0 1 -20.162109377661043 16.809278552133943
          A 4 4 0 0 1 -22.233782067651386 17.830000980599536
          L -22.733869385521373 17.18782076826643 
          A 4 4 0 0 1 -21.236696102342318 15.4293628726774
        
          A 26.25 26.25 0 0 1 -21.94680077420654 14.401403951604319
          A 4 4 0 0 1 -24.12132334206004 15.179320150381777
          L -24.54494793063566 14.484320180194203 
          A 4 4 0 0 1 -22.8570845243941 12.907989271947084
        
          A 26.25 26.25 0 0 1 -23.4453820593542 11.805785026456714
          A 4 4 0 0 1 -25.69440627789521 12.330753668225475
          L -26.03604554281407 11.591994327660297 
          A 4 4 0 0 1 -24.179495894264765 10.21834029083152
        
          A 26.25 26.25 0 0 1 -24.638316934267408 9.056259638867976
          A 4 4 0 0 1 -26.932523333367993 9.321436954546513
          L -27.18772348434195 8.548549101394801 
          A 4 4 0 0 1 -25.1866905573805 7.39547961708753
        
          A 26.25 26.25 0 0 1 -25.510053668492915 6.188672057122468
          A 4 4 0 0 1 -27.819533759204294 6.190601054864475
          L -27.984967871987077 5.393660464271696 
          A 4 4 0 0 1 -25.865538191001885 4.47620755660638
        
          A 26.25 26.25 0 0 1 -26.04922784055057 3.2404056707582454
          A 4 4 0 0 1 -28.343874017995727 2.9790612031281345
          L -28.417385405928343 2.168457214456222 
          A 4 4 0 0 1 -26.207188978061 1.4985812851476723
        
          A 26.25 26.25 0 0 1 -26.24881049054698 0.2498956409139026
          A 4 4 0 0 1 -28.498708532593863 -0.27131526727791594
          L -28.479338862313433 -1.0850151913775932 
          A 4 4 0 0 1 -26.207188978061005 -1.4985812851476394
        
          A 26.25 26.25 0 0 1 -26.10619975341712 -2.7438721607758807
          A 4 4 0 0 1 -28.28201879831205 -3.518154728251773
          L -28.170020583092768 -4.324342764874923 
          A 4 4 0 0 1 -25.865538191001885 -4.476207556606347
        
          A 26.25 26.25 0 0 1 -25.623254778214484 -5.701869392638299
          A 4 4 0 0 1 -27.696629697220878 -6.719129662018642
          L -27.49346300507733 -7.507295917202179 
          A 4 4 0 0 1 -25.186690557380505 -7.395479617087494
        
          A 26.25 26.25 0 0 1 -24.80627149126 -8.58553403708228
          A 4 4 0 0 1 -26.750172671490333 -9.83251046505662
          L -26.458486090958015 -10.592379986319289 
          A 4 4 0 0 1 -24.179495894264765 -10.218340290831483
        
          A 26.25 26.25 0 0 1 -23.66590051911401 -11.357273115470797
          A 4 4 0 0 1 -25.454986235870276 -12.817709457295823
          L -25.078582347603565 -13.539376183357302 
          A 4 4 0 0 1 -22.857084524394104 -12.90798927194705
        
          A 26.25 26.25 0 0 1 -22.217008341371095 -13.980952770088445
          A 4 4 0 0 1 -23.827955126281392 -15.635810004598936
          L -23.371740930599398 -16.309865906037995 
          A 4 4 0 0 1 -21.236696102342325 -15.429362872677364
        
          A 26.25 26.25 0 0 1 -20.478483483363128 -16.422369324236378
          A 4 4 0 0 1 -21.890290181460568 -18.25007385660252
          L -21.3602131280937 -18.867731583908256 
          A 4 4 0 0 1 -19.339454869255594 -17.749591132192943
        
          A 26.25 26.25 0 0 1 -18.472990275345357 -18.64969517946586
          A 4 4 0 0 1 -19.66725182724016 -20.626420085994422
          L -19.07022228122743 -21.17962752610566 
          A 4 4 0 0 1 -17.19009426606371 -19.83842632679921
        
          A 26.25 26.25 0 0 1 -16.22667338829087 -20.633893736998097
          A 4 4 0 0 1 -17.187820768266434 -22.733869385521345
          L -16.531621922779134 -23.215414633434484 
          A 4 4 0 0 1 -14.816634495252679 -21.668637295272738
        
          A 26.25 26.25 0 0 1 -13.768816998121343 -22.34909793419504
          A 4 4 0 0 1 -14.484320180194212 -24.544947930635626
          L -13.777506590710065 -24.94855330761558 
          A 4 4 0 0 1 -12.250017234673932 -23.216364438692548
        
          A 26.25 26.25 0 0 1 -11.131463021689546 -23.772947461279482
          A 4 4 0 0 1 -11.591994327660307 -26.03604554281404
          L -10.843780390250311 -26.356449435536994 
          A 4 4 0 0 1 -9.523702265454332 -24.461430766800543
        
          A 26.25 26.25 0 0 1 -8.34899340139135 -24.886880262168656
          A 4 4 0 0 1 -8.548549101394814 -27.18772348434192
          L -7.768688928978853 -27.420748938071632 
          A 4 4 0 0 1 -6.673231272579047 -25.387604935926287
        
          A 26.25 26.25 0 0 1 -5.457681883966202 -25.67637451926231
          A 4 4 0 0 1 -5.393660464271713 -27.984967871987045
          L -4.592320726839651 -28.127577043567648 
          A 4 4 0 0 1 -3.7357645046737593 -25.982812849374394
        
          A 26.25 26.25 0 0 1 -2.4952211367348234 -26.13113796754338
          A 4 4 0 0 1 -2.1684572144562426 -28.41738540592831
          L -1.3560846009766911 -28.467719166715632 
          A 4 4 0 0 1 -0.7495963333345614 -26.23929506173988
        
          A 26.25 26.25 0 0 1 0.49976863396281124 -26.245242069992468
          A 4 4 0 0 1 1.0850151913775692 -28.479338862313405
          L 1.8978301615241109 -28.436741034760015 
          A 4 4 0 0 1 2.2463439725694982 -26.15370793514557
        
          A 26.25 26.25 0 0 1 3.4882431562191196 -26.017199305134405
          A 4 4 0 0 1 4.324342764874896 -28.170020583092747
          L 5.1270038055122775 -28.035046495025785 
          A 4 4 0 0 1 5.212999749450764 -25.727167228675253
        
          A 26.25 26.25 0 0 1 6.431243094353738 -25.449982559155576
          A 4 4 0 0 1 7.50729591720215 -27.493463005077306
          L 8.289339114153805 -27.26787225015099 
          A 4 4 0 0 1 8.111696102342304 -24.965233552747712
        
          A 26.25 26.25 0 0 1 9.290401943434743 -24.55098636978603
          A 4 4 0 0 1 10.592379986319258 -26.458486090957997
          L 11.343610210531995 -26.145219589659384 
          A 4 4 0 0 1 10.904644091299447 -23.877839878056044
        
          A 26.25 26.25 0 0 1 12.028446195344449 -23.33193052719168
          A 4 4 0 0 1 13.539376183357273 -25.078582347603547
          L 14.249999999999918 -24.681724007856438 
          A 4 4 0 0 1 13.555433368022673 -22.479162044104154
        
          A 26.25 26.25 0 0 1 14.609681255960194 -21.80870728858638
          A 4 4 0 0 1 16.309865906037963 -23.371740930599387
          L 16.970619246901514 -22.89646440777899 
          A 4 4 0 0 1 16.029506840430162 -20.787433955459672
        
          A 26.25 26.25 0 0 1 17.000456778776584 -20.001174198355063
          A 4 4 0 0 1 18.867731583908228 -21.360213128093694
          L 19.47000051870253 -20.81271437851674 
          A 4 4 0 0 1 18.294611177201357 -18.824709874922757
        
          A 26.25 26.25 0 0 1 19.169605348633784 -17.9328952145945
          A 4 4 0 0 1 21.17962752610563 -19.070222281227426
          L 21.715560558214012 -18.457638788386078 
          A 4 4 0 0 1 20.321217279275817 -16.616576912482824
        
          A 26.25 26.25 0 0 1 21.088848796638498 -15.63083351688304
          A 4 4 0 0 1 23.21541463343446 -16.531621922779127
          L 23.678025056179447 -15.861939649328278 
          A 4 4 0 0 1 22.0829052368184 -14.19182145820942
        
          A 26.25 26.25 0 0 1 22.73316684934141 -13.124999999999988
          A 4 4 0 0 1 24.94855330761555 -13.77750659071006
          L 25.331810286665203 -13.05945586923119 
          A 4 4 0 0 1 23.55670875314805 -11.582053907634554
        
          A 26.25 26.25 0 0 1 24.08112330626518 -10.448062036016383
          A 4 4 0 0 1 26.356449435536963 -10.843780390250307
          L 26.655356630053358 -10.086722110014943 
          A 4 4 0 0 1 24.723414545537413 -8.821296571905046
        
          A 26.25 26.25 0 0 1 25.11514549356008 -7.634917605141736
          A 4 4 0 0 1 27.420748938071604 -7.768688928978851
          L 27.63140963565458 -6.982492502441282 
          A 4 4 0 0 1 25.567812819736144 -5.9455401449263325
        
          A 26.25 26.25 0 0 1 25.821753350681607 -4.722240347182437
          A 4 4 0 0 1 28.12757704356762 -4.592320726839652
          L 28.24724495986017 -3.78723542675227 
          A 4 4 0 0 1 26.07889555289933 -2.992274509626721
        
          A 26.25 26.25 0 0 1 26.19173516359472 -1.7480014645617599
          A 4 4 0 0 1 28.467719166715607 -1.356084600976696
          L 28.494834247420364 -0.5426059454454245 
          A 4 4 0 0 1 26.249999999999886 -4.294810121576263e-14
        
         z"
            id="gear" />
    </g>
        
   
    <g style="fill:#ffcccc"  transform="translate(200,200)">
        <path style="fill:#ffcccc;stroke:#000000;stroke-width:0.050000"
            d="M 1.961161351381842 9.8058067569092 A 10 10 0 1 0 -1.9611613513818411 9.8058067569092
              L -1.9611613513818411 11.8058067569092  1.961161351381842 11.8058067569092  1.961161351381842 9.8058067569092"
            id="bearing" />
    </g>
        
   </g>
   
</svg>
