<?xml version="1.0" encoding="UTF-8" standalone="no"?>
<svg
   xmlns:svg="http://www.w3.org/2000/svg"
   xmlns="http://www.w3.org/2000/svg"
   xmlns:inkscape="http://www.inkscape.org/namespaces/inkscape"
   width="400mm"
   height="400mm"
   viewBox="0 0 400 400"
   version="1.1"
   id="gear_hobbymat">
   <g>
   
    <g style="fill:#cccccc" transform="translate(200,200)">
        <path style="fill:#cccccc;stroke:#000000;stroke-width:0.050000"
            d="  M  36.25 0.0      
          A 36.25 36.25 0 0 1 36.22791747944222 1.26510675546566
          A 4 4 0 0 1 38.45403628764521 1.8807161371311103
          L 38.40621593500323 2.6856242391488236 
          A 4 4 0 0 1 36.122866147794525 3.0333218207964365
        
          A 36.25 36.25 0 0 1 35.99499966886196 4.292143851110659
          A 4 4 0 0 1 38.16179829968434 5.091871024899213
          L 38.04679268569227 5.889954696935464 
          A 4 4 0 0 1 35.74235634380579 6.045367068458707
        
          A 36.25 36.25 0 0 1 35.50960279797621 7.289074641541219
          A 4 4 0 0 1 37.60188271586544 8.267310095931931
          L 37.42049852227401 9.052971354449713 
          A 4 4 0 0 1 35.11113959091286 9.015008409725985
        
          A 36.25 36.25 0 0 1 34.77513157707707 10.23487781055427
          A 4 4 0 0 1 36.77821694171021 11.384759926695796
          L 36.531726448313094 12.152487922463443 
          A 4 4 0 0 1 34.23364342110867 11.92141594427364
        
          A 36.25 36.25 0 0 1 33.7967377940623 13.108890665475844
          A 4 4 0 0 1 35.69657840082129 14.422353846512609
          L 35.386710561326495 15.166763519251612 
          A 4 4 0 0 1 33.11602283954426 14.744203311497753
        
          A 36.25 36.25 0 0 1 32.58128417834478 15.890954071104051
          A 4 4 0 0 1 34.364554010406806 17.358785316543077
          L 33.99348232506866 18.07465516725679 
          A 4 4 0 0 1 31.76611715159003 17.463570686187172
        
          A 36.25 36.25 0 0 1 31.13729626373656 18.561553851558212
          A 4 4 0 0 1 32.7914869645073 20.17345737984804
          L 32.36181423458381 20.85576609588548 
          A 4 4 0 0 1 30.193394975741082 20.06044366007122
        
          A 36.25 36.25 0 0 1 29.474902587954727 21.101957668201734
          A 4 4 0 0 1 30.988411198202662 22.846627134242496
          L 30.50315126917481 23.490588810198794 
          A 4 4 0 0 1 28.408887828061665 22.516607035088743
        
          A 36.25 36.25 0 0 1 27.605763648206683 23.494346413538487
          A 4 4 0 0 1 28.96797399248536 25.35954421456919
          L 28.430530614096497 25.96064192197334 
          A 4 4 0 0 1 26.42511274402614 24.814832589914953
        
          A 36.25 36.25 0 0 1 25.54299011118028 25.721939199448872
          A 4 4 0 0 1 26.744347262671365 27.694582313038055
          L 26.158490214068355 28.248599783360728 
          A 4 4 0 0 1 24.255984480508584 26.93899992355553
        
          A 36.25 36.25 0 0 1 23.301050851137024 27.769111063062944
          A 4 4 0 0 1 24.33312815259673 29.835362815110898
          L 23.702966800037817 30.338414013858777 
          A 4 4 0 0 1 21.916717913761065 28.8742095283771
        
          A 36.25 36.25 0 0 1 20.895671461154983 29.621502564648395
          A 4 4 0 0 1 21.751229631860088 31.766869683714347
          L 21.081184104463162 32.21542606817001 
          A 4 4 0 0 1 19.42372131798861 30.606887299448037
        
          A 36.25 36.25 0 0 1 18.34372394939217 31.266120508763073
          A 4 4 0 0 1 19.016761863492878 33.47555478595092
          L 18.31153204920558 33.86647005536472 
          A 4 4 0 0 1 16.794481273094977 32.124879747131516
        
          A 36.25 36.25 0 0 1 15.663108394071848 32.69142908218536
          A 4 4 0 0 1 16.14890517417781 34.94943292351696
          L 15.413437753440448 35.2799650881462 
          A 4 4 0 0 1 14.047440008888728 33.41753924508312
        
          A 36.25 36.25 0 0 1 12.872627387294965 33.8874307693555
          A 4 4 0 0 1 13.167775518038244 36.17816590025744
          L 12.407229266374676 36.44599651445428 
          A 4 4 0 0 1 11.201866046091846 34.47579871569929
        
          A 36.25 36.25 0 0 1 9.991854148366224 34.845736477764035
          A 4 4 0 0 1 10.094283377673294 37.153135037183965
          L 9.313992980587212 37.35638546162584 
          A 4 4 0 0 1 8.277719041511277 35.29223522915204
        
          A 36.25 36.25 0 0 1 7.040995231723992 35.55962438140818
          A 4 4 0 0 1 6.949987092146567 37.86750162631534
          L 6.15542572613565 38.00474620531002 
          A 4 4 0 0 1 5.29550978538743 35.86112206990832
        
          A 36.25 36.25 0 0 1 4.040748792479308 36.024087069571614
          A 4 4 0 0 1 3.7569416407272644 38.31625489930049
          L 2.9536825828825277 38.386530960736415 
          A 4 4 0 0 1 2.2761563329376195 36.17846890552483
        
          A 36.25 36.25 0 0 1 1.0121594037293824 36.235866670212836
          A 4 4 0 0 1 0.5375439430571043 38.496247174358196
          L -0.26877852147150805 38.49906178215768 
          A 4 4 0 0 1 -0.7591627207716785 36.24204977596313
        
          A 36.25 36.25 0 0 1 -2.0235295560021758 36.19347770159679
          A 4 4 0 0 1 -2.685624239148811 38.40621593500321
          L -3.4893543376145226 38.341549346714835 
          A 4 4 0 0 1 -3.7891567934524257 36.051418707099884
        
          A 36.25 36.25 0 0 1 -5.045024909802359 35.897217491881904
          A 4 4 0 0 1 -5.889954696935451 38.04679268569226
          L -6.685454840176803 37.91509849096999 
          A 4 4 0 0 1 -6.7925726537325035 35.60791283891494
        
          A 36.25 36.25 0 0 1 -8.031133038705676 35.34916409357665
          A 4 4 0 0 1 -9.0529713544497 37.42049852227401
          L -9.834661680527919 37.22270046127167 
          A 4 4 0 0 1 -9.748343497303367 34.914643046415094
        
          A 36.25 36.25 0 0 1 -10.960908539703599 34.55316170749432
          A 4 4 0 0 1 -12.152487922463429 36.5317264483131
          L -12.914885435384802 36.26921193231091 
          A 4 4 0 0 1 -12.635736715415787 33.97647211908105
        
          A 36.25 36.25 0 0 1 -13.81380114269742 33.514793718446334
          A 4 4 0 0 1 -15.1667635192516 35.3867105613265
          L -15.90452054824484 35.0613209410378 
          A 4 4 0 0 1 -15.434499319233868 32.799980651893186
        
          A 36.25 36.25 0 0 1 -16.569799855877648 32.24134353180952
          A 4 4 0 0 1 -18.07465516725678 33.99348232506867
          L -18.78259687684119 33.60749997488765 
          A 4 4 0 0 1 -18.124999999999982 31.393420887185886
        
          A 36.25 36.25 0 0 1 -19.20957332845366 30.74174348567043
          A 4 4 0 0 1 -20.85576609588546 32.361814234583825
          L -21.528926783623728 31.917946543369084 
          A 4 4 0 0 1 -20.688366828560625 29.766658831096755
        
          A 36.25 36.25 0 0 1 -21.714605446189964 29.026512196891577
          A 4 4 0 0 1 -23.49058881019878 30.50315126917483
          L -24.124246737531706 30.004511649861744 
          A 4 4 0 0 1 -23.106619628389982 27.931105050622353
        
          A 36.25 36.25 0 0 1 -24.06732520864374 27.107680780571776
          A 4 4 0 0 1 -25.960641921973334 28.43053061409652
          L -26.55035243382327 27.88061666534249 
          A 4 4 0 0 1 -25.362796093609482 25.899634636689118
        
          A 36.25 36.25 0 0 1 -26.251229977108185 24.99870846041803
          A 4 4 0 0 1 -28.248599783360728 26.158490214068387
          L -28.790226484193465 25.5611591871113 
          A 4 4 0 0 1 -27.44107076737616 23.686496894641323
        
          A 36.25 36.25 0 0 1 -28.251001228765926 22.714388161961697
          A 4 4 0 0 1 -30.33841401385878 23.702966800037846
          L -30.828157781526226 23.062408542850054 
          A 4 4 0 0 1 -29.326866046091833 21.307215395602153
        
          A 36.25 36.25 0 0 1 -30.052612005120253 20.270742750814573
          A 4 4 0 0 1 -32.21542606817001 21.08118410446318
          L -32.64985170202239 20.401891672978387 
          A 4 4 0 0 1 -31.006954430818357 18.77847908977597
        
          A 36.25 36.25 0 0 1 -31.643425301030593 17.68491264377906
          A 4 4 0 0 1 -33.86647005536473 18.311532049205596
          L -34.242530371714956 17.598270191759728 
          A 4 4 0 0 1 -32.46955130867872 16.118025245453627
        
          A 36.25 36.25 0 0 1 -33.01228270422392 14.975035581139643
          A 4 4 0 0 1 -35.27996508814623 15.413437753440459
          L -35.59502229407406 14.671209489485557 
          A 4 4 0 0 1 -33.704397613449125 13.344515034819581
        
          A 36.25 36.25 0 0 1 -34.14958266353952 12.16011940344675
          A 4 4 0 0 1 -36.445996514454315 12.407229266374681
          L -36.697840710028466 11.64124079389212 
          A 4 4 0 0 1 -34.70283178553745 10.477402639237102
        
          A 36.25 36.25 0 0 1 -35.04734783691167 9.259908725172414
          A 4 4 0 0 1 -37.35638546162588 9.313992980587214
          L -37.5432501407642 8.529617158349497 
          A 4 4 0 0 1 -35.457850526600474 7.536798792143782
        
          A 36.25 36.25 0 0 1 -35.69928104669256 6.2947464404262305
          A 4 4 0 0 1 -38.00474620531005 6.155425726135648
          L -38.12532064655047 5.3581643869625255 
          A 4 4 0 0 1 -35.96415792264984 4.543329716706034
        
          A 36.25 36.25 0 0 1 -36.100809449828944 3.2854310321695355
          A 4 4 0 0 1 -38.38653096073645 2.9536825828825224
          L -38.43996942100629 2.149127942236811 
          A 4 4 0 0 1 -36.21820259108364 1.5179924476834907
        
          A 36.25 36.25 0 0 1 -36.24911661307058 0.2530706858011098
          A 4 4 0 0 1 -38.49906178215772 -0.2687785214715162
          L -38.48498942905366 -1.0749830908573985 
          A 4 4 0 0 1 -36.21820259108364 -1.5179924476834836
        
          A 36.25 36.25 0 0 1 -36.14316226822588 -2.7810647695971737
          A 4 4 0 0 1 -38.34154934671488 -3.4893543376145337
          L -38.26006488768298 -4.291553889943529 
          A 4 4 0 0 1 -35.96415792264984 -4.543329716706028
        
          A 36.25 36.25 0 0 1 -35.78368960889583 -5.795693053829013
          A 4 4 0 0 1 -37.91509849097002 -6.685454840176818
          L -37.76677348094388 -7.478022521968921 
          A 4 4 0 0 1 -35.45785052660047 -7.5367987921437765
        
          A 36.25 36.25 0 0 1 -35.17322007750489 -8.769668715487956
          A 4 4 0 0 1 -37.2227004612717 -9.834661680527937
          L -37.008575293625285 -10.612038198954469 
          A 4 4 0 0 1 -34.70283178553745 -10.477402639237097
        
          A 36.25 36.25 0 0 1 -34.31603567919401 -11.682131452106027
          A 4 4 0 0 1 -36.26921193231094 -12.914885435384816
          L -35.99078854124657 -13.671618052713274 
          A 4 4 0 0 1 -33.70439761344913 -13.344515034819574
        
          A 36.25 36.25 0 0 1 -33.21814894663121 -14.51265243018744
          A 4 4 0 0 1 -35.06132094103784 -15.904520548244857
          L -34.720552266596904 -16.63530132887632 
          A 4 4 0 0 1 -32.46955130867873 -16.118025245453627
        
          A 36.25 36.25 0 0 1 -31.887260766414865 -17.241377578797483
          A 4 4 0 0 1 -33.60749997488769 -18.78259687684121
          L -33.20677626447942 -19.48229991866481 
          A 4 4 0 0 1 -31.006954430818375 -18.778479089775974
        
          A 36.25 36.25 0 0 1 -30.33270636288737 -19.84916685160495
          A 4 4 0 0 1 -31.917946543369112 -21.528926783623756
          L -31.460078585902455 -22.192644172537044 
          A 4 4 0 0 1 -29.32686604609185 -21.307215395602157
        
          A 36.25 36.25 0 0 1 -28.565389818243677 -22.317728480555118
          A 4 4 0 0 1 -30.004511649861758 -24.12424673753173
          L -29.492711060080662 -24.747322972931766 
          A 4 4 0 0 1 -27.441070767376175 -23.686496894641326
        
          A 36.25 36.25 0 0 1 -26.597707588229273 -24.62974727947998
          A 4 4 0 0 1 -27.8806166653425 -26.550352433823292
          L -27.31847335665606 -27.1284170835984 
          A 4 4 0 0 1 -25.362796093609504 -25.89963463668913
        
          A 36.25 36.25 0 0 1 -24.44346154990998 -26.769006097688298
          A 4 4 0 0 1 -25.561159187111308 -28.790226484193486
          L -24.95261619093055 -29.31922484016437 
          A 4 4 0 0 1 -23.106619628390014 -27.931105050622367
        
          A 36.25 36.25 0 0 1 -22.117762191420965 -28.720499571625673
          A 4 4 0 0 1 -23.06240854285007 -30.828157781526247
          L -22.411734351055657 -31.304379300310572 
          A 4 4 0 0 1 -20.688366828560664 -29.76665883109678
        
          A 36.25 36.25 0 0 1 -19.636922622749335 -30.470539376718566
          A 4 4 0 0 1 -20.401891672978405 -32.64985170202241
          L -19.71365029751702 -33.06995603183059 
          A 4 4 0 0 1 -18.125000000000018 -31.39342088718592
        
          A 36.25 36.25 0 0 1 -17.018344150988558 -32.00685024113612
          A 4 4 0 0 1 -17.598270191759745 -34.24253037171497
          L -16.8772891513795 -34.60357078251794 
          A 4 4 0 0 1 -15.434499319233906 -32.79998065189322
        
          A 36.25 36.25 0 0 1 -14.280394222672001 -33.31865604800227
          A 4 4 0 0 1 -14.671209489485578 -35.59502229407407
          L -13.92254594816058 -35.89446634679723 
          A 4 4 0 0 1 -12.635736715415828 -33.97647211908108
        
          A 36.25 36.25 0 0 1 -11.44227758933249 -34.39675542211301
          A 4 4 0 0 1 -11.64124079389214 -36.697840710028466
          L -10.87014608845077 -36.93358801979222 
          A 4 4 0 0 1 -9.748343497303408 -34.914643046415115
        
          A 36.25 36.25 0 0 1 -8.523901599968914 -35.23358627097231
          A 4 4 0 0 1 -8.529617158349518 -37.54325014076419
          L -7.741499964119667 -37.71364710957475 
          A 4 4 0 0 1 -6.792572653732544 -35.60791283891497
        
          A 36.25 36.25 0 0 1 -5.545736565296407 -35.82327882743755
          A 4 4 0 0 1 -5.358164386962547 -38.12532064655046
          L -4.558552779800314 -38.22917206210168 
          A 4 4 0 0 1 -3.7891567934524644 -36.05141870709992
        
          A 36.25 36.25 0 0 1 -2.5286721732245683 -36.16169682191864
          A 4 4 0 0 1 -2.149127942236834 -38.439969421006275
          L -1.343630623046315 -38.47654684023519 
          A 4 4 0 0 1 -0.759162720771716 -36.24204977596315
        
          A 36.25 36.25 0 0 1 0.50612903729399 -36.24646649533728
          A 4 4 0 0 1 1.0749830908573739 -38.48498942905364
          L 1.8807161371310825 -38.45403628764521 
          A 4 4 0 0 1 2.276156332937583 -36.178468905524845
        
          A 36.25 36.25 0 0 1 3.5373801162691416 -36.076993249341385
          A 4 4 0 0 1 4.2915538899435015 -38.26006488768296
          L 5.091871024899185 -38.16179829968435 
          A 4 4 0 0 1 5.295509785387394 -35.86112206990832
        
          A 36.25 36.25 0 0 1 6.543819015332772 -35.65446581698523
          A 4 4 0 0 1 7.478022521968892 -37.76677348094386
          L 8.267310095931904 -37.60188271586546 
          A 4 4 0 0 1 8.277719041511244 -35.292235229152055
        
          A 36.25 36.25 0 0 1 9.504357725731317 -34.981847924621285
          A 4 4 0 0 1 10.612038198954435 -37.00857529362527
          L 11.384759926695766 -36.77821694171023 
          A 4 4 0 0 1 11.201866046091816 -34.47579871569932
        
          A 36.25 36.25 0 0 1 12.398230195555463 -34.06385750348918
          A 4 4 0 0 1 13.671618052713246 -35.99078854124655
          L 14.422353846512584 -35.69657840082131 
          A 4 4 0 0 1 14.047440008888705 -33.41753924508314
        
          A 36.25 36.25 0 0 1 15.205137988673894 -32.906933596817936
          A 4 4 0 0 1 16.635301328876288 -34.720552266596876
          L 17.358785316543052 -34.36455401040683 
          A 4 4 0 0 1 16.79448127309496 -32.12487974713153
        
          A 36.25 36.25 0 0 1 17.905392663678345 -31.51919119456419
          A 4 4 0 0 1 19.482299918664776 -33.20677626447941
          L 20.173457379848017 -32.791486964507335 
          A 4 4 0 0 1 19.4237213179886 -30.60688729944805
        
          A 36.25 36.25 0 0 1 20.480053874153974 -29.910364312588207
          A 4 4 0 0 1 22.192644172537012 -31.460078585902455
          L 22.846627134242475 -30.988411198202705 
          A 4 4 0 0 1 21.91671791376106 -28.87420952837713
        
          A 36.25 36.25 0 0 1 22.91106222160082 -28.091737715526527
          A 4 4 0 0 1 24.747322972931737 -29.492711060080673
          L 25.359544214569173 -28.96797399248541 
          A 4 4 0 0 1 24.255984480508587 -26.93899992355556
        
          A 36.25 36.25 0 0 1 25.18136592913863 -26.076067762276125
          A 4 4 0 0 1 27.12841708359837 -27.318473356656074
          L 27.694582313038048 -26.744347262671415 
          A 4 4 0 0 1 26.425112744026148 -24.81483258991499
        
          A 36.25 36.25 0 0 1 27.27504044746999 -23.877492929302196
          A 4 4 0 0 1 29.319224840164345 -24.952616190930566
          L 29.835362815110894 -24.333128152596785 
          A 4 4 0 0 1 28.408887828061676 -22.51660703508878
        
          A 36.25 36.25 0 0 1 29.177400154151872 -21.511434639384206
          A 4 4 0 0 1 31.304379300310547 -22.41173435105567
          L 31.766869683714347 -21.751229631860138 
          A 4 4 0 0 1 30.193394975741096 -20.06044366007125
        
          A 36.25 36.25 0 0 1 30.875101362685466 -18.994489091415396
          A 4 4 0 0 1 33.06995603183057 -19.713650297517034
          L 33.475554785950926 -19.016761863492924 
          A 4 4 0 0 1 31.766117151590052 -17.46357068618721
        
          A 36.25 36.25 0 0 1 32.356235918889546 -16.3443108499919
          A 4 4 0 0 1 34.60357078251793 -16.877289151379514
          L 34.94943292351698 -16.148905174177855 
          A 4 4 0 0 1 33.11602283954428 -14.744203311497794
        
          A 36.25 36.25 0 0 1 33.61041472804604 -13.579489011326848
          A 4 4 0 0 1 35.894466346797216 -13.922545948160591
          L 36.17816590025747 -13.167775518038283 
          A 4 4 0 0 1 34.23364342110868 -11.921415944273678
        
          A 36.25 36.25 0 0 1 34.62884062693496 -10.719416814096729
          A 4 4 0 0 1 36.93358801979221 -10.870146088450781
          L 37.153135037183986 -10.09428337767333 
          A 4 4 0 0 1 35.11113959091287 -9.015008409726024
        
          A 36.25 36.25 0 0 1 35.40437008961358 -7.784155609806079
          A 4 4 0 0 1 37.71364710957474 -7.74149996411968
          L 37.867501626315345 -6.949987092146601 
          A 4 4 0 0 1 35.742356343805795 -6.045367068458748
        
          A 36.25 36.25 0 0 1 35.93156333411838 -4.79429414682073
          A 4 4 0 0 1 38.22917206210167 -4.55855277980033
          L 38.316254899300496 -3.7569416407272986 
          A 4 4 0 0 1 36.122866147794525 -3.0333218207964783
        
          A 36.25 36.25 0 0 1 36.20672247862698 -1.7708041550910232
          A 4 4 0 0 1 38.47654684023517 -1.3436306230463326
          L 38.4962471743582 -0.5375439430571385 
          A 4 4 0 0 1 36.24999999999999 -4.3068002266952505e-14
        
         z"
            id="gear" />
    </g>
        
   
    <g style="fill:#ffcccc"  transform="translate(200,200)">
        <path style="fill:#ffcccc;stroke:#000000;stroke-width:0.050000"
            d="M 1.961161351381842 9.8058067569092 A 10 10 0 1 0 -1.9611613513818411 9.8058067569092
              L -1.9611613513818411 11.8058067569092  1.961161351381842 11.8058067569092  1.961161351381842 9.8058067569092"
            id="bearing" />
    </g>
        
   </g>
   
</svg>
