<?xml version="1.0" encoding="UTF-8" standalone="no"?>
<svg
   xmlns:svg="http://www.w3.org/2000/svg"
   xmlns="http://www.w3.org/2000/svg"
   xmlns:inkscape="http://www.inkscape.org/namespaces/inkscape"
   width="400mm"
   height="400mm"
   viewBox="0 0 400 400"
   version="1.1"
   id="gear_hobbymat">
   <defs>
     
    <g style="fill:#cccccc">
        <path style="fill:#cccccc;stroke:#000000;stroke-width:0.050000"
            d="  M  38.75 0.0      
          A 38.75 38.75 0 0 1 38.72925276470917 1.2678644593438255
          A 5.0 5.0 0 0 1 40.956977935713276 1.8777535443973514
          L 40.91221585278275 2.6815282984358655 
          A 5.0 5.0 0 0 1 38.630546682158716 3.040289959453991
        
          A 38.75 38.75 0 0 1 38.510387904684656 4.30261820647826
          A 5.0 5.0 0 0 1 40.68339439634465 5.085412509469898
          L 40.575706859606484 5.88319750163835 
          A 5.0 5.0 0 0 1 38.27292319806159 6.061835520308945
        
          A 38.75 38.75 0 0 1 38.05409369722428 7.310844881604015
          A 5.0 5.0 0 0 1 40.15898420192111 8.261718215350301
          L 39.98903514084902 9.048594835881543 
          A 5.0 5.0 0 0 1 37.67933441540996 9.046007849416332
        
          A 38.75 38.75 0 0 1 37.36318334785025 10.27399776693206
          A 5.0 5.0 0 0 1 39.38698051567535 11.38708768113298
          L 39.15581772274465 12.15820457399841 
          A 5.0 5.0 0 0 1 36.8534400064372 11.974408532029212
        
          A 38.75 38.75 0 0 1 36.4419165486175 13.173808039576027
          A 5.0 5.0 0 0 1 38.37214299705035 14.442251964770573
          L 38.08119166774888 15.192854937903284 
          A 5.0 5.0 0 0 1 35.800331884812344 14.828983004147227
        
          A 38.75 38.75 0 0 1 35.29597321569555 15.992397404920295
          A 5.0 5.0 0 0 1 37.12072845681615 17.408374962509235
          L 36.77178240284021 18.133836298979052 
          A 5.0 5.0 0 0 1 34.52650281229924 17.592131864907437
        
          A 38.75 38.75 0 0 1 33.932418470796726 18.712388322251442
          A 5.0 5.0 0 0 1 35.64045228175087 20.267169539731924
          L 35.23566287155954 20.963016529159127 
          A 5.0 5.0 0 0 1 33.03980636872105 20.24681938274301
        
          A 38.75 38.75 0 0 1 32.35965908235127 21.317011143075355
          A 5.0 5.0 0 0 1 33.94044086671556 23.001010277224392
          L 33.48230376162881 23.662952791526564 
          A 5.0 5.0 0 0 1 31.349408532029187 22.776678526333317
        
          A 38.75 38.75 0 0 1 30.58739163498454 23.790207501576685
          A 5.0 5.0 0 0 1 32.03117534739508 25.59304213774571
          L 31.522515115011814 26.216999081203955 
          A 5.0 5.0 0 0 1 29.465731167001174 25.166111872794595
        
          A 38.75 38.75 0 0 1 28.62654274684827 26.11672931978402
          A 5.0 5.0 0 0 1 29.92442698061124 28.0272843829377
          L 29.368379680410804 28.60940885350886 
          A 5.0 5.0 0 0 1 27.400387770978696 27.400387770978693
        
          A 38.75 38.75 0 0 1 26.489201703386243 28.28223281704111
          A 5.0 5.0 0 0 1 27.63318457061019 30.28872909989107
          L 27.033178419102804 30.825432106638047 
          A 5.0 5.0 0 0 1 25.166111872794595 29.465731167001174
        
          A 38.75 38.75 0 0 1 24.188545922869416 30.27336694418437
          A 5.0 5.0 0 0 1 25.171574388765002 32.36343372991912
          L 24.531308623396995 32.85140632033346 
          A 5.0 5.0 0 0 1 22.776678526333306 31.349408532029187
        
          A 38.75 38.75 0 0 1 21.73875971323036 32.07785569720068
          A 5.0 5.0 0 0 1 22.5547730804152 34.23860702906844
          L 21.878195152540044 34.67484068986287 
          A 5.0 5.0 0 0 1 20.24681938274299 33.03980636872104
        
          A 38.75 38.75 0 0 1 19.15494682108808 33.68457380287428
          A 5.0 5.0 0 0 1 19.798914095801504 35.902687930391345
          L 19.09019533332954 36.28449313598467 
          A 5.0 5.0 0 0 1 17.59213186490741 34.526502812299206
        
          A 38.75 38.75 0 0 1 16.45303731212761 35.08361530979572
          A 5.0 5.0 0 0 1 16.92098822198016 37.345416821768154
          L 16.184498111754934 37.67043961610477 
          A 5.0 5.0 0 0 1 14.828983004147206 35.80033188481231
        
          A 38.75 38.75 0 0 1 13.649689356947778 36.26635466184632
          A 5.0 5.0 0 0 1 13.938738828970743 38.5578987998275
          L 13.179018077429605 38.82413530929928 
          A 5.0 5.0 0 0 1 11.974408532029194 36.85344000643715
        
          A 38.75 38.75 0 0 1 10.762186527900058 37.225499877619946
          A 5.0 5.0 0 0 1 10.870552475979714 39.53265850998345
          L 10.0922850141887 39.738467297976875 
          A 5.0 5.0 0 0 1 9.046007849416322 37.67933441540991
        
          A 38.75 38.75 0 0 1 7.808331240117654 37.955137507913186
          A 5.0 5.0 0 0 1 7.735345552148755 40.2636862344824
          L 6.9433296578100006 40.40779842138112 
          A 5.0 5.0 0 0 1 6.0618355203089385 38.27292319806152
        
          A 38.75 38.75 0 0 1 4.806334993706302 38.45076909410616
          A 5.0 5.0 0 0 1 4.552447650725381 40.74647494431143
          L 3.751566365199495 40.82800203056106 
          A 5.0 5.0 0 0 1 3.04028995945399 38.63054668215864
        
          A 38.75 38.75 0 0 1 1.7747060937901806 38.70933890265576
          A 5.0 5.0 0 0 1 1.3414823956928237 40.978048086530926
          L 0.5366734184251254 40.99648743053422 
          A 5.0 5.0 0 0 1 4.09225499015797e-15 38.74999999999993
        
          A 38.75 38.75 0 0 1 -1.2678644593438193 38.7292527647091
          A 5.0 5.0 0 0 1 -1.877753544397344 40.9569779357132
          L -2.6815282984358566 40.91221585278267 
          A 5.0 5.0 0 0 1 -3.0402899594539816 38.63054668215864
        
          A 38.75 38.75 0 0 1 -4.3026182064782486 38.51038790468458
          A 5.0 5.0 0 0 1 -5.085412509469886 40.683394396344575
          L -5.883197501638337 40.575706859606406 
          A 5.0 5.0 0 0 1 -6.0618355203089305 38.27292319806152
        
          A 38.75 38.75 0 0 1 -7.310844881603998 38.05409369722421
          A 5.0 5.0 0 0 1 -8.261718215350282 40.15898420192104
          L -9.048594835881522 39.98903514084895 
          A 5.0 5.0 0 0 1 -9.046007849416311 37.6793344154099
        
          A 38.75 38.75 0 0 1 -10.273997766932036 37.36318334785019
          A 5.0 5.0 0 0 1 -11.387087681132954 39.386980515675276
          L -12.15820457399838 39.15581772274458 
          A 5.0 5.0 0 0 1 -11.974408532029186 36.853440006437125
        
          A 38.75 38.75 0 0 1 -13.173808039575999 36.44191654861743
          A 5.0 5.0 0 0 1 -14.442251964770543 38.372142997050275
          L -15.192854937903252 38.08119166774881 
          A 5.0 5.0 0 0 1 -14.828983004147196 35.80033188481228
        
          A 38.75 38.75 0 0 1 -15.992397404920261 35.29597321569548
          A 5.0 5.0 0 0 1 -17.4083749625092 37.12072845681609
          L -18.133836298979013 36.771782402840145 
          A 5.0 5.0 0 0 1 -17.592131864907397 34.526502812299185
        
          A 38.75 38.75 0 0 1 -18.712388322251403 33.93241847079667
          A 5.0 5.0 0 0 1 -20.267169539731885 35.64045228175081
          L -20.963016529159088 35.235662871559484 
          A 5.0 5.0 0 0 1 -20.24681938274297 33.039806368720996
        
          A 38.75 38.75 0 0 1 -21.317011143075316 32.359659082351214
          A 5.0 5.0 0 0 1 -23.00101027722435 33.940440866715505
          L -23.66295279152652 33.482303761628756 
          A 5.0 5.0 0 0 1 -22.776678526333278 31.349408532029134
        
          A 38.75 38.75 0 0 1 -23.790207501576646 30.587391634984492
          A 5.0 5.0 0 0 1 -25.59304213774567 32.03117534739503
          L -26.216999081203916 31.522515115011768 
          A 5.0 5.0 0 0 1 -25.16611187279456 29.465731167001127
        
          A 38.75 38.75 0 0 1 -26.116729319783982 28.626542746848223
          A 5.0 5.0 0 0 1 -28.02728438293766 29.92442698061119
          L -28.609408853508818 29.368379680410754 
          A 5.0 5.0 0 0 1 -27.400387770978647 27.400387770978647
        
          A 38.75 38.75 0 0 1 -28.28223281704106 26.489201703386197
          A 5.0 5.0 0 0 1 -30.28872909989102 27.633184570610144
          L -30.825432106637997 27.033178419102757 
          A 5.0 5.0 0 0 1 -29.465731167001124 25.166111872794556
        
          A 38.75 38.75 0 0 1 -30.273366944184318 24.18854592286938
          A 5.0 5.0 0 0 1 -32.363433729919066 25.171574388764963
          L -32.851406320333396 24.53130862339696 
          A 5.0 5.0 0 0 1 -31.349408532029127 22.776678526333278
        
          A 38.75 38.75 0 0 1 -32.07785569720062 21.73875971323033
          A 5.0 5.0 0 0 1 -34.238607029068376 22.554773080415174
          L -34.674840689862805 21.87819515254002 
          A 5.0 5.0 0 0 1 -33.039806368720974 20.246819382742967
        
          A 38.75 38.75 0 0 1 -33.68457380287422 19.154946821088053
          A 5.0 5.0 0 0 1 -35.90268793039128 19.79891409580148
          L -36.284493135984604 19.09019533332952 
          A 5.0 5.0 0 0 1 -34.52650281229915 17.59213186490739
        
          A 38.75 38.75 0 0 1 -35.08361530979566 16.453037312127588
          A 5.0 5.0 0 0 1 -37.3454168217681 16.920988221980135
          L -37.670439616104716 16.18449811175491 
          A 5.0 5.0 0 0 1 -35.80033188481225 14.828983004147183
        
          A 38.75 38.75 0 0 1 -36.266354661846265 13.649689356947757
          A 5.0 5.0 0 0 1 -38.557898799827434 13.938738828970724
          L -38.824135309299216 13.179018077429587 
          A 5.0 5.0 0 0 1 -36.85344000643709 11.974408532029177
        
          A 38.75 38.75 0 0 1 -37.22549987761989 10.762186527900042
          A 5.0 5.0 0 0 1 -39.53265850998339 10.870552475979697
          L -39.73846729797682 10.092285014188684 
          A 5.0 5.0 0 0 1 -37.679334415409855 9.046007849416307
        
          A 38.75 38.75 0 0 1 -37.95513750791313 7.808331240117641
          A 5.0 5.0 0 0 1 -40.26368623448234 7.735345552148743
          L -40.40779842138107 6.94332965780999 
          A 5.0 5.0 0 0 1 -38.27292319806146 6.06183552030893
        
          A 38.75 38.75 0 0 1 -38.4507690941061 4.806334993706295
          A 5.0 5.0 0 0 1 -40.74647494431137 4.552447650725375
          L -40.828002030561 3.75156636519949 
          A 5.0 5.0 0 0 1 -38.63054668215859 3.040289959453986
        
          A 38.75 38.75 0 0 1 -38.70933890265571 1.7747060937901784
          A 5.0 5.0 0 0 1 -40.97804808653087 1.341482395692822
          L -40.99648743053417 0.5366734184251247 
          A 5.0 5.0 0 0 1 -38.74999999999988 4.09225499015797e-15
        
          A 38.75 38.75 0 0 1 -38.72925276470905 -1.2678644593438175
          A 5.0 5.0 0 0 1 -40.95697793571315 -1.8777535443973412
          L -40.91221585278262 -2.681528298435853 
          A 5.0 5.0 0 0 1 -38.630546682158595 -3.0402899594539776
        
          A 38.75 38.75 0 0 1 -38.510387904684535 -4.302618206478243
          A 5.0 5.0 0 0 1 -40.683394396344525 -5.0854125094698786
          L -40.575706859606356 -5.883197501638329 
          A 5.0 5.0 0 0 1 -38.27292319806147 -6.0618355203089225
        
          A 38.75 38.75 0 0 1 -38.05409369722416 -7.310844881603988
          A 5.0 5.0 0 0 1 -40.15898420192098 -8.261718215350273
          L -39.98903514084889 -9.048594835881513 
          A 5.0 5.0 0 0 1 -37.67933441540984 -9.046007849416304
        
          A 38.75 38.75 0 0 1 -37.36318334785013 -10.273997766932027
          A 5.0 5.0 0 0 1 -39.38698051567522 -11.387087681132941
          L -39.15581772274452 -12.158204573998367 
          A 5.0 5.0 0 0 1 -36.853440006437076 -11.97440853202917
        
          A 38.75 38.75 0 0 1 -36.44191654861738 -13.173808039575981
          A 5.0 5.0 0 0 1 -38.37214299705022 -14.442251964770524
          L -38.081191667748755 -15.192854937903233 
          A 5.0 5.0 0 0 1 -35.80033188481222 -14.828983004147176
        
          A 38.75 38.75 0 0 1 -35.295973215695426 -15.99239740492024
          A 5.0 5.0 0 0 1 -37.120728456816025 -17.408374962509175
          L -36.77178240284008 -18.133836298978988 
          A 5.0 5.0 0 0 1 -34.52650281229912 -17.592131864907376
        
          A 38.75 38.75 0 0 1 -33.932418470796605 -18.71238832225138
          A 5.0 5.0 0 0 1 -35.64045228175075 -20.267169539731857
          L -35.23566287155942 -20.96301652915906 
          A 5.0 5.0 0 0 1 -33.03980636872094 -20.246819382742945
        
          A 38.75 38.75 0 0 1 -32.359659082351165 -21.317011143075288
          A 5.0 5.0 0 0 1 -33.94044086671545 -23.00101027722432
          L -33.4823037616287 -23.662952791526493 
          A 5.0 5.0 0 0 1 -31.34940853202908 -22.776678526333246
        
          A 38.75 38.75 0 0 1 -30.58739163498444 -23.79020750157661
          A 5.0 5.0 0 0 1 -32.03117534739497 -25.59304213774563
          L -31.52251511501171 -26.216999081203877 
          A 5.0 5.0 0 0 1 -29.465731167001074 -25.16611187279452
        
          A 38.75 38.75 0 0 1 -28.626542746848173 -26.116729319783943
          A 5.0 5.0 0 0 1 -29.924426980611138 -28.027284382937616
          L -29.3683796804107 -28.609408853508775 
          A 5.0 5.0 0 0 1 -27.4003877709786 -27.400387770978607
        
          A 38.75 38.75 0 0 1 -26.48920170338615 -28.28223281704102
          A 5.0 5.0 0 0 1 -27.633184570610098 -30.288729099890976
          L -27.03317841910271 -30.82543210663795 
          A 5.0 5.0 0 0 1 -25.166111872794513 -29.46573116700108
        
          A 38.75 38.75 0 0 1 -24.188545922869338 -30.273366944184275
          A 5.0 5.0 0 0 1 -25.171574388764924 -32.36343372991903
          L -24.53130862339692 -32.85140632033336 
          A 5.0 5.0 0 0 1 -22.776678526333242 -31.349408532029095
        
          A 38.75 38.75 0 0 1 -21.738759713230298 -32.07785569720059
          A 5.0 5.0 0 0 1 -22.55477308041514 -34.23860702906835
          L -21.878195152539984 -34.674840689862776 
          A 5.0 5.0 0 0 1 -20.246819382742935 -33.039806368720946
        
          A 38.75 38.75 0 0 1 -19.154946821088025 -33.68457380287418
          A 5.0 5.0 0 0 1 -19.798914095801447 -35.90268793039124
          L -19.090195333329486 -36.28449313598456 
          A 5.0 5.0 0 0 1 -17.592131864907362 -34.52650281229911
        
          A 38.75 38.75 0 0 1 -16.453037312127563 -35.08361530979562
          A 5.0 5.0 0 0 1 -16.920988221980114 -37.34541682176805
          L -16.184498111754888 -37.670439616104666 
          A 5.0 5.0 0 0 1 -14.828983004147165 -35.80033188481221
        
          A 38.75 38.75 0 0 1 -13.649689356947741 -36.26635466184622
          A 5.0 5.0 0 0 1 -13.938738828970706 -38.55789879982739
          L -13.17901807742957 -38.82413530929917 
          A 5.0 5.0 0 0 1 -11.97440853202916 -36.85344000643705
        
          A 38.75 38.75 0 0 1 -10.762186527900027 -37.225499877619846
          A 5.0 5.0 0 0 1 -10.870552475979682 -39.53265850998334
          L -10.09228501418867 -39.73846729797677 
          A 5.0 5.0 0 0 1 -9.046007849416295 -37.67933441540981
        
          A 38.75 38.75 0 0 1 -7.80833124011763 -37.955137507913086
          A 5.0 5.0 0 0 1 -7.735345552148732 -40.26368623448229
          L -6.943329657809979 -40.40779842138102 
          A 5.0 5.0 0 0 1 -6.06183552030892 -38.27292319806142
        
          A 38.75 38.75 0 0 1 -4.806334993706287 -38.45076909410606
          A 5.0 5.0 0 0 1 -4.552447650725367 -40.74647494431133
          L -3.751566365199483 -40.82800203056096 
          A 5.0 5.0 0 0 1 -3.04028995945398 -38.630546682158545
        
          A 38.75 38.75 0 0 1 -1.7747060937901735 -38.70933890265567
          A 5.0 5.0 0 0 1 -1.3414823956928175 -40.978048086530826
          L -0.5366734184251211 -40.996487430534124 
          A 5.0 5.0 0 0 1 -1.1542257664548121e-15 -38.74999999999984
        
          A 38.75 38.75 0 0 1 1.267864459343819 -38.72925276470901
          A 5.0 5.0 0 0 1 1.8777535443973423 -40.9569779357131
          L 2.681528298435853 -40.91221585278257 
          A 5.0 5.0 0 0 1 3.0402899594539767 -38.630546682158545
        
          A 38.75 38.75 0 0 1 4.302618206478241 -38.510387904684485
          A 5.0 5.0 0 0 1 5.085412509469876 -40.683394396344475
          L 5.883197501638325 -40.575706859606306 
          A 5.0 5.0 0 0 1 6.061835520308918 -38.27292319806143
        
          A 38.75 38.75 0 0 1 7.310844881603983 -38.05409369722412
          A 5.0 5.0 0 0 1 8.261718215350266 -40.15898420192094
          L 9.048594835881504 -39.98903514084885 
          A 5.0 5.0 0 0 1 9.046007849416293 -37.679334415409805
        
          A 38.75 38.75 0 0 1 10.273997766932016 -37.3631833478501
          A 5.0 5.0 0 0 1 11.38708768113293 -39.38698051567518
          L 12.158204573998356 -39.15581772274448 
          A 5.0 5.0 0 0 1 11.97440853202916 -36.85344000643703
        
          A 38.75 38.75 0 0 1 13.17380803957597 -36.441916548617336
          A 5.0 5.0 0 0 1 14.442251964770511 -38.372142997050176
          L 15.192854937903219 -38.08119166774871 
          A 5.0 5.0 0 0 1 14.828983004147162 -35.80033188481219
        
          A 38.75 38.75 0 0 1 15.992397404920224 -35.29597321569539
          A 5.0 5.0 0 0 1 17.40837496250916 -37.12072845681599
          L 18.133836298978974 -36.771782402840046 
          A 5.0 5.0 0 0 1 17.592131864907362 -34.526502812299086
        
          A 38.75 38.75 0 0 1 18.712388322251364 -33.93241847079657
          A 5.0 5.0 0 0 1 20.26716953973184 -35.64045228175071
          L 20.963016529159038 -35.235662871559384 
          A 5.0 5.0 0 0 1 20.246819382742924 -33.0398063687209
        
          A 38.75 38.75 0 0 1 21.317011143075266 -32.35965908235113
          A 5.0 5.0 0 0 1 23.001010277224296 -33.94044086671541
          L 23.662952791526468 -33.482303761628664 
          A 5.0 5.0 0 0 1 22.776678526333225 -31.349408532029052
        
          A 38.75 38.75 0 0 1 23.79020750157659 -30.58739163498441
          A 5.0 5.0 0 0 1 25.59304213774561 -32.03117534739494
          L 26.216999081203856 -31.522515115011682 
          A 5.0 5.0 0 0 1 25.1661118727945 -29.46573116700105
        
          A 38.75 38.75 0 0 1 26.11672931978392 -28.62654274684815
          A 5.0 5.0 0 0 1 28.027284382937594 -29.924426980611113
          L 28.609408853508754 -29.368379680410676 
          A 5.0 5.0 0 0 1 27.400387770978586 -27.400387770978575
        
          A 38.75 38.75 0 0 1 28.282232817041 -26.489201703386126
          A 5.0 5.0 0 0 1 30.288729099890954 -27.63318457061007
          L 30.825432106637926 -27.033178419102683 
          A 5.0 5.0 0 0 1 29.465731167001056 -25.166111872794485
        
          A 38.75 38.75 0 0 1 30.27336694418425 -24.18854592286931
          A 5.0 5.0 0 0 1 32.363433729918995 -25.171574388764892
          L 32.851406320333325 -24.53130862339689 
          A 5.0 5.0 0 0 1 31.34940853202906 -22.77667852633321
        
          A 38.75 38.75 0 0 1 32.07785569720055 -21.738759713230266
          A 5.0 5.0 0 0 1 34.2386070290683 -22.554773080415107
          L 34.67484068986273 -21.878195152539956 
          A 5.0 5.0 0 0 1 33.0398063687209 -20.246819382742906
        
          A 38.75 38.75 0 0 1 33.68457380287414 -19.154946821087997
          A 5.0 5.0 0 0 1 35.902687930391195 -19.798914095801422
          L 36.28449313598452 -19.09019533332946 
          A 5.0 5.0 0 0 1 34.526502812299064 -17.592131864907337
        
          A 38.75 38.75 0 0 1 35.083615309795576 -16.453037312127538
          A 5.0 5.0 0 0 1 37.345416821768005 -16.920988221980085
          L 37.67043961610462 -16.184498111754863 
          A 5.0 5.0 0 0 1 35.80033188481216 -14.82898300414714
        
          A 38.75 38.75 0 0 1 36.266354661846165 -13.649689356947718
          A 5.0 5.0 0 0 1 38.55789879982733 -13.938738828970683
          L 38.82413530929911 -13.179018077429548 
          A 5.0 5.0 0 0 1 36.85344000643698 -11.974408532029141
        
          A 38.75 38.75 0 0 1 37.225499877619775 -10.76218652790001
          A 5.0 5.0 0 0 1 39.53265850998327 -10.870552475979665
          L 39.7384672979767 -10.092285014188654 
          A 5.0 5.0 0 0 1 37.67933441540974 -9.046007849416279
        
          A 38.75 38.75 0 0 1 37.955137507913015 -7.808331240117616
          A 5.0 5.0 0 0 1 40.26368623448222 -7.735345552148718
          L 40.407798421380946 -6.943329657809968 
          A 5.0 5.0 0 0 1 38.27292319806135 -6.06183552030891
        
          A 38.75 38.75 0 0 1 38.450769094105986 -4.806334993706279
          A 5.0 5.0 0 0 1 40.74647494431125 -4.55244765072536
          L 40.82800203056088 -3.7515663651994773 
          A 5.0 5.0 0 0 1 38.63054668215847 -3.0402899594539754
        
          A 38.75 38.75 0 0 1 38.70933890265559 -1.7747060937901717
          A 5.0 5.0 0 0 1 40.97804808653074 -1.3414823956928168
          L 40.99648743053404 -0.5366734184251221 
          A 5.0 5.0 0 0 1 38.74999999999976 -3.1478884539676692e-15
        
         z"
            id="gear" />
    </g>
        
     
    <g style="fill:#ffcccc">
        <path style="fill:#ffcccc;stroke:#000000;stroke-width:0.050000"
            d="M 1.961161351381842 9.8058067569092 A 10 10 0 1 0 -1.9611613513818411 9.8058067569092
              L -1.9611613513818411 11.8058067569092  1.961161351381842 11.8058067569092  1.961161351381842 9.8058067569092"
            id="bearing" />
    </g>
        
   </defs>

   <!--
   module                   : 1.000000
   nb-teeth                 : 80
   ratio-teeth-gap          : 1.400000
   teeth-curvature          : 5.000000
   ratio-teeth-head-base    : 0.428571

   25 -> 8.45
   40 -> ok
   80 -> ok
   -->

   <g>
     <!-- first gear -->
     <use href="#gear"    id="gear_1"    transform="translate(200,200) rotate(0)" >
      <animateTransform attributeType="xml" attributeName="transform" type="rotate" from="0 0 0" to="380 0 0" dur="20.000000s" additive="sum" repeatCount="indefinite" />
     </use>
     <use href="#bearing" id="bearing_1" transform="translate(200,200)">
      <animateTransform attributeType="xml" attributeName="transform" type="rotate" from="0 0 0" to="380 0 0" dur="20.000000s" additive="sum" repeatCount="indefinite" />
     </use>

     <!-- second gear -->
     <use href="#gear"    id="gear_2"    transform="translate(280.000000,200) rotate(0)">
      <animateTransform attributeType="xml" attributeName="transform" type="rotate" from="0.375000 0 0" to="-379.625000 0 0" dur="20.000000s" additive="sum" repeatCount="indefinite" />
    </use>
     
     <use href="#bearing" id="bearing_2" transform="translate(280.000000,200) rotate(0)">
       <animateTransform attributeType="xml" attributeName="transform" type="rotate" from="0.375000 0 0" to="-379.625000 0 0" dur="20.000000s" additive="sum" repeatCount="indefinite" />
     </use>

     <!-- refernece line -->
    <path style="fill:#ffcccc;stroke:#000000;stroke-width:0.050000" d="M 0 200 L 300 200" ></path>
    <path style="fill:#ffcccc;stroke:#000000;stroke-width:0.050000" d="M 200 0 L 200 300" ></path>
    <path style="fill:#ffcccc;stroke:#000000;stroke-width:0.050000" d="M 280.000000 0 L 280.000000 300" ></path>

    <path style="fill:#ffcccc;stroke:#000000;stroke-width:0.050000" d="M 240.000000 0 L 240.000000 300" ></path>

   </g>
   
</svg>
