<?xml version="1.0" encoding="UTF-8" standalone="no"?>
<svg
   xmlns:svg="http://www.w3.org/2000/svg"
   xmlns="http://www.w3.org/2000/svg"
   xmlns:inkscape="http://www.inkscape.org/namespaces/inkscape"
   width="400mm"
   height="400mm"
   viewBox="0 0 400 400"
   version="1.1"
   id="gear_hobbymat">
   <defs>
     
            <path id="gear" style="fill:#cccccc;stroke:#000000;stroke-width:0.025000"
                d="  M  38.75 0.0      
          A 38.75 38.75 0 0 1 38.73298241471578 1.14829145312419
          A 5.0 5.0 0 0 1 40.95880899536598 1.8373801134025074
          L 40.91776080971858 2.5955443203031976 
          A 5.0 5.0 0 0 1 38.63054668215871 3.0402899594539914
        
          A 38.75 38.75 0 0 1 38.52348764736645 4.183706428898226
          A 5.0 5.0 0 0 1 40.688387474338825 5.045307199573435
          L 40.58798094846199 5.7979136357216 
          A 5.0 5.0 0 0 1 38.272923198061584 6.061835520308946
        
          A 38.75 38.75 0 0 1 38.07648276831153 7.193327463314543
          A 5.0 5.0 0 0 1 40.167108514270545 8.222128289124102
          L 40.00796268778487 8.96453688557385 
          A 5.0 5.0 0 0 1 37.67933441540997 9.046007849416336
        
          A 38.75 38.75 0 0 1 37.394723711274594 10.158599241895415
          A 5.0 5.0 0 0 1 39.39818597329281 11.348257223637216
          L 39.18128203313993 12.075890784515526 
          A 5.0 5.0 0 0 1 36.85344000643721 11.974408532029216
        
          A 38.75 38.75 0 0 1 36.48241374755017 13.061239878072959
          A 5.0 5.0 0 0 1 38.386360514563435 14.404420378688142
          L 38.113035745662266 15.112792801129487 
          A 5.0 5.0 0 0 1 35.80033188481237 14.828983004147231
        
          A 38.75 38.75 0 0 1 35.345177571438455 15.883353627099183
          A 5.0 5.0 0 0 1 37.137870378501596 17.371775492148615
          L 36.80980991894213 18.056519424610908 
          A 5.0 5.0 0 0 1 34.52650281229928 17.592131864907444
        
          A 38.75 38.75 0 0 1 33.99002662213461 18.607541219263297
          A 5.0 5.0 0 0 1 35.66041292196121 20.23202783299845
          L 35.279639373567804 20.888921601437602 
          A 5.0 5.0 0 0 1 33.039806368721095 20.24681938274303
        
          A 38.75 38.75 0 0 1 32.425315855874466 21.217007132175304
          A 5.0 5.0 0 0 1 33.96309716146631 22.967542994425887
          L 33.53195811978485 23.592536630320126 
          A 5.0 5.0 0 0 1 31.349408532029226 22.77667852633335
        
          A 38.75 38.75 0 0 1 30.660692234851172 23.69566314074663
          A 5.0 5.0 0 0 1 32.0563876130951 25.561455615809624
          L 31.577541193685846 26.15069582556218 
          A 5.0 5.0 0 0 1 29.465731167001213 25.166111872794634
        
          A 38.75 38.75 0 0 1 28.70703525048525 26.028227506447667
          A 5.0 5.0 0 0 1 29.95203977525857 27.997773363275353
          L 29.428438225529774 28.547627285050858 
          A 5.0 5.0 0 0 1 27.400387770978735 27.40038777097874
        
          A 38.75 38.75 0 0 1 26.576389847742174 28.200319194307518
          A 5.0 5.0 0 0 1 27.663027652143644 30.26147552775209
          L 27.097899149764565 30.76855312927781 
          A 5.0 5.0 0 0 1 25.166111872794634 29.46573116700122
        
          A 38.75 38.75 0 0 1 24.28189216404134 30.19854653677673
          A 5.0 5.0 0 0 1 25.203463764663095 32.338605632638476
          L 24.600292514775195 32.79978061188059 
          A 5.0 5.0 0 0 1 22.77667852633335 31.349408532029233
        
          A 38.75 38.75 0 0 1 21.837688540600684 32.010589797810965
          A 5.0 5.0 0 0 1 22.588512142071227 34.21635748012203
          L 21.951016896004862 34.62878653997727 
          A 5.0 5.0 0 0 1 20.24681938274303 33.03980636872109
        
          A 38.75 38.75 0 0 1 19.258848305538883 33.625277128140425
          A 5.0 5.0 0 0 1 19.834294830680978 35.88315410564718
          L 19.166405958616824 36.24429448381496 
          A 5.0 5.0 0 0 1 17.59213186490745 34.52650281229928
        
          A 38.75 38.75 0 0 1 16.56127086645651 35.032653443435606
          A 5.0 5.0 0 0 1 16.95779249608726 37.328719153751436
          L 16.263627755017183 37.63634429970899 
          A 5.0 5.0 0 0 1 14.82898300414724 35.80033188481239
        
          A 38.75 38.75 0 0 1 13.761587685301025 36.2240418007126
          A 5.0 5.0 0 0 1 13.976739731716934 38.54414023521407
          L 13.260578878102828 38.796353537640826 
          A 5.0 5.0 0 0 1 11.974408532029223 36.85344000643723
        
          A 38.75 38.75 0 0 1 10.877059739873381 37.19209689457195
          A 5.0 5.0 0 0 1 10.90951571916298 39.52192387489935
          L 10.175774122815026 39.71717035491642 
          A 5.0 5.0 0 0 1 9.04600784941634 37.67933441541001
        
          A 38.75 38.75 0 0 1 7.925471104160015 37.93085034344904
          A 5.0 5.0 0 0 1 7.775030914418277 40.256041711522556
          L 7.028232336271803 40.39311760965459 
          A 5.0 5.0 0 0 1 6.061835520308949 38.27292319806163
        
          A 38.75 38.75 0 0 1 4.925019303602925 38.435747486671076
          A 5.0 5.0 0 0 1 4.592610458626046 40.741967664501956
          L 3.837359160251051 40.8200278622546 
          A 5.0 5.0 0 0 1 3.0402899594539914 38.63054668215876
        
          A 38.75 38.75 0 0 1 1.894203121304012 38.70367546545477
          A 5.0 5.0 0 0 1 1.3818750321584337 40.97670583875064
          L 0.6228273889559416 40.9952690690471 
          A 5.0 5.0 0 0 1 -3.567606914496692e-15 38.750000000000036
        
          A 38.75 38.75 0 0 1 -1.1482914531241946 38.73298241471581
          A 5.0 5.0 0 0 1 -1.837380113402513 40.95880899536601
          L -2.595544320303204 40.917760809718615 
          A 5.0 5.0 0 0 1 -3.040289959453998 38.63054668215874
        
          A 38.75 38.75 0 0 1 -4.183706428898234 38.52348764736648
          A 5.0 5.0 0 0 1 -5.045307199573445 40.68838747433885
          L -5.79791363572161 40.58798094846202 
          A 5.0 5.0 0 0 1 -6.061835520308955 38.27292319806161
        
          A 38.75 38.75 0 0 1 -7.193327463314554 38.07648276831156
          A 5.0 5.0 0 0 1 -8.222128289124113 40.16710851427058
          L -8.964536885573862 40.007962687784904 
          A 5.0 5.0 0 0 1 -9.046007849416347 37.679334415410004
        
          A 38.75 38.75 0 0 1 -10.158599241895427 37.39472371127463
          A 5.0 5.0 0 0 1 -11.34825722363723 39.39818597329285
          L -12.075890784515542 39.181282033139965 
          A 5.0 5.0 0 0 1 -11.974408532029232 36.85344000643724
        
          A 38.75 38.75 0 0 1 -13.061239878072977 36.48241374755019
          A 5.0 5.0 0 0 1 -14.404420378688162 38.38636051456346
          L -15.112792801129507 38.11303574566229 
          A 5.0 5.0 0 0 1 -14.82898300414725 35.800331884812394
        
          A 38.75 38.75 0 0 1 -15.883353627099202 35.34517757143848
          A 5.0 5.0 0 0 1 -17.371775492148632 37.13787037850162
          L -18.05651942461093 36.80980991894215 
          A 5.0 5.0 0 0 1 -17.59213186490746 34.5265028122993
        
          A 38.75 38.75 0 0 1 -18.607541219263315 33.99002662213463
          A 5.0 5.0 0 0 1 -20.23202783299847 35.66041292196123
          L -20.88892160143762 35.279639373567825 
          A 5.0 5.0 0 0 1 -20.246819382743045 33.039806368721116
        
          A 38.75 38.75 0 0 1 -21.21700713217532 32.42531585587449
          A 5.0 5.0 0 0 1 -22.967542994425905 33.96309716146633
          L -23.592536630320144 33.531958119784875 
          A 5.0 5.0 0 0 1 -22.776678526333367 31.349408532029248
        
          A 38.75 38.75 0 0 1 -23.69566314074665 30.660692234851194
          A 5.0 5.0 0 0 1 -25.561455615809646 32.05638761309511
          L -26.150695825562202 31.57754119368586 
          A 5.0 5.0 0 0 1 -25.16611187279465 29.465731167001227
        
          A 38.75 38.75 0 0 1 -26.028227506447685 28.707035250485262
          A 5.0 5.0 0 0 1 -27.997773363275375 29.95203977525858
          L -28.54762728505088 29.428438225529785 
          A 5.0 5.0 0 0 1 -27.40038777097876 27.400387770978742
        
          A 38.75 38.75 0 0 1 -28.20031919430754 26.57638984774218
          A 5.0 5.0 0 0 1 -30.26147552775212 27.663027652143654
          L -30.768553129277837 27.097899149764576 
          A 5.0 5.0 0 0 1 -29.46573116700125 25.16611187279464
        
          A 38.75 38.75 0 0 1 -30.198546536776757 24.28189216404135
          A 5.0 5.0 0 0 1 -32.338605632638505 25.203463764663102
          L -32.79978061188062 24.6002925147752 
          A 5.0 5.0 0 0 1 -31.349408532029262 22.776678526333356
        
          A 38.75 38.75 0 0 1 -32.010589797810994 21.837688540600688
          A 5.0 5.0 0 0 1 -34.216357480122056 22.588512142071234
          L -34.6287865399773 21.951016896004866 
          A 5.0 5.0 0 0 1 -33.039806368721116 20.246819382743034
        
          A 38.75 38.75 0 0 1 -33.62527712814045 19.258848305538887
          A 5.0 5.0 0 0 1 -35.88315410564721 19.834294830680978
          L -36.24429448381499 19.166405958616824 
          A 5.0 5.0 0 0 1 -34.526502812299306 17.59213186490745
        
          A 38.75 38.75 0 0 1 -35.032653443435635 16.56127086645651
          A 5.0 5.0 0 0 1 -37.328719153751464 16.957792496087254
          L -37.636344299709016 16.263627755017176 
          A 5.0 5.0 0 0 1 -35.800331884812415 14.828983004147233
        
          A 38.75 38.75 0 0 1 -36.22404180071263 13.761587685301016
          A 5.0 5.0 0 0 1 -38.5441402352141 13.976739731716926
          L -38.796353537640854 13.26057887810282 
          A 5.0 5.0 0 0 1 -36.85344000643725 11.974408532029214
        
          A 38.75 38.75 0 0 1 -37.19209689457196 10.877059739873372
          A 5.0 5.0 0 0 1 -39.521923874899365 10.909515719162972
          L -39.71717035491643 10.175774122815017 
          A 5.0 5.0 0 0 1 -37.679334415410025 9.046007849416332
        
          A 38.75 38.75 0 0 1 -37.93085034344905 7.925471104160007
          A 5.0 5.0 0 0 1 -40.25604171152258 7.775030914418269
          L -40.39311760965461 7.0282323362717944 
          A 5.0 5.0 0 0 1 -38.272923198061655 6.061835520308941
        
          A 38.75 38.75 0 0 1 -38.4357474866711 4.925019303602916
          A 5.0 5.0 0 0 1 -40.74196766450198 4.592610458626036
          L -40.82002786225462 3.8373591602510406 
          A 5.0 5.0 0 0 1 -38.63054668215878 3.0402899594539816
        
          A 38.75 38.75 0 0 1 -38.70367546545479 1.8942031213040018
          A 5.0 5.0 0 0 1 -40.97670583875067 1.3818750321584223
          L -40.995269069047126 0.6228273889559297 
          A 5.0 5.0 0 0 1 -38.750000000000064 -1.5214794194177068e-14
        
          A 38.75 38.75 0 0 1 -38.73298241471584 -1.148291453124207
          A 5.0 5.0 0 0 1 -40.95880899536604 -1.8373801134025267
          L -40.917760809718644 -2.595544320303218 
          A 5.0 5.0 0 0 1 -38.630546682158766 -3.040289959454012
        
          A 38.75 38.75 0 0 1 -38.52348764736651 -4.183706428898249
          A 5.0 5.0 0 0 1 -40.68838747433889 -5.045307199573461
          L -40.587980948462054 -5.797913635721627 
          A 5.0 5.0 0 0 1 -38.27292319806165 -6.061835520308972
        
          A 38.75 38.75 0 0 1 -38.076482768311585 -7.193327463314572
          A 5.0 5.0 0 0 1 -40.16710851427061 -8.222128289124132
          L -40.00796268778493 -8.964536885573882 
          A 5.0 5.0 0 0 1 -37.67933441541003 -9.046007849416366
        
          A 38.75 38.75 0 0 1 -37.39472371127466 -10.158599241895445
          A 5.0 5.0 0 0 1 -39.39818597329288 -11.348257223637248
          L -39.18128203314 -12.07589078451556 
          A 5.0 5.0 0 0 1 -36.853440006437275 -11.97440853202925
        
          A 38.75 38.75 0 0 1 -36.482413747550225 -13.061239878072994
          A 5.0 5.0 0 0 1 -38.3863605145635 -14.40442037868818
          L -38.11303574566233 -15.112792801129526 
          A 5.0 5.0 0 0 1 -35.80033188481244 -14.82898300414727
        
          A 38.75 38.75 0 0 1 -35.34517757143852 -15.883353627099224
          A 5.0 5.0 0 0 1 -37.13787037850166 -17.37177549214866
          L -36.80980991894219 -18.056519424610958 
          A 5.0 5.0 0 0 1 -34.526502812299334 -17.59213186490749
        
          A 38.75 38.75 0 0 1 -33.990026622134664 -18.607541219263343
          A 5.0 5.0 0 0 1 -35.660412921961274 -20.2320278329985
          L -35.27963937356787 -20.88892160143765 
          A 5.0 5.0 0 0 1 -33.03980636872116 -20.246819382743077
        
          A 38.75 38.75 0 0 1 -32.42531585587453 -21.21700713217535
          A 5.0 5.0 0 0 1 -33.96309716146637 -22.967542994425937
          L -33.53195811978492 -23.592536630320176 
          A 5.0 5.0 0 0 1 -31.349408532029287 -22.776678526333395
        
          A 38.75 38.75 0 0 1 -30.660692234851233 -23.695663140746678
          A 5.0 5.0 0 0 1 -32.056387613095154 -25.56145561580968
          L -31.577541193685903 -26.150695825562238 
          A 5.0 5.0 0 0 1 -29.465731167001266 -25.166111872794687
        
          A 38.75 38.75 0 0 1 -28.7070352504853 -26.02822750644772
          A 5.0 5.0 0 0 1 -29.95203977525862 -27.99777336327541
          L -29.428438225529824 -28.547627285050915 
          A 5.0 5.0 0 0 1 -27.400387770978778 -27.400387770978792
        
          A 38.75 38.75 0 0 1 -26.576389847742217 -28.20031919430757
          A 5.0 5.0 0 0 1 -27.66302765214369 -30.26147552775215
          L -27.09789914976461 -30.76855312927787 
          A 5.0 5.0 0 0 1 -25.166111872794673 -29.46573116700128
        
          A 38.75 38.75 0 0 1 -24.281892164041377 -30.198546536776792
          A 5.0 5.0 0 0 1 -25.20346376466313 -32.33860563263855
          L -24.600292514775226 -32.799780611880664 
          A 5.0 5.0 0 0 1 -22.776678526333377 -31.349408532029308
        
          A 38.75 38.75 0 0 1 -21.83768854060071 -32.01058979781104
          A 5.0 5.0 0 0 1 -22.588512142071256 -34.216357480122106
          L -21.951016896004887 -34.62878653997735 
          A 5.0 5.0 0 0 1 -20.246819382743052 -33.039806368721166
        
          A 38.75 38.75 0 0 1 -19.258848305538905 -33.6252771281405
          A 5.0 5.0 0 0 1 -19.834294830680996 -35.88315410564726
          L -19.166405958616842 -36.24429448381504 
          A 5.0 5.0 0 0 1 -17.592131864907465 -34.52650281229935
        
          A 38.75 38.75 0 0 1 -16.561270866456525 -35.03265344343568
          A 5.0 5.0 0 0 1 -16.957792496087272 -37.32871915375151
          L -16.263627755017193 -37.63634429970906 
          A 5.0 5.0 0 0 1 -14.828983004147249 -35.80033188481246
        
          A 38.75 38.75 0 0 1 -13.761587685301032 -36.22404180071267
          A 5.0 5.0 0 0 1 -13.97673973171694 -38.54414023521415
          L -13.260578878102832 -38.796353537640904 
          A 5.0 5.0 0 0 1 -11.974408532029226 -36.8534400064373
        
          A 38.75 38.75 0 0 1 -10.877059739873383 -37.19209689457202
          A 5.0 5.0 0 0 1 -10.90951571916298 -39.52192387489942
          L -10.175774122815026 -39.71717035491649 
          A 5.0 5.0 0 0 1 -9.046007849416338 -37.67933441541008
        
          A 38.75 38.75 0 0 1 -7.92547110416001 -37.93085034344911
          A 5.0 5.0 0 0 1 -7.775030914418271 -40.256041711522634
          L -7.028232336271795 -40.39311760965467 
          A 5.0 5.0 0 0 1 -6.061835520308941 -38.272923198061704
        
          A 38.75 38.75 0 0 1 -4.925019303602914 -38.43574748667115
          A 5.0 5.0 0 0 1 -4.592610458626034 -40.74196766450203
          L -3.837359160251037 -40.82002786225467 
          A 5.0 5.0 0 0 1 -3.040289959453977 -38.63054668215883
        
          A 38.75 38.75 0 0 1 -1.8942031213039958 -38.70367546545484
          A 5.0 5.0 0 0 1 -1.3818750321584152 -40.97670583875072
          L -0.6228273889559217 -40.995269069047175 
          A 5.0 5.0 0 0 1 2.3504233789625263e-14 -38.750000000000114
        
          A 38.75 38.75 0 0 1 1.1482914531242168 -38.73298241471589
          A 5.0 5.0 0 0 1 1.8373801134025374 -40.9588089953661
          L 2.59554432030323 -40.9177608097187 
          A 5.0 5.0 0 0 1 3.040289959454024 -38.63054668215882
        
          A 38.75 38.75 0 0 1 4.183706428898263 -38.523487647366565
          A 5.0 5.0 0 0 1 5.045307199573476 -40.688387474338946
          L 5.797913635721643 -40.58798094846211 
          A 5.0 5.0 0 0 1 6.061835520308988 -38.272923198061704
        
          A 38.75 38.75 0 0 1 7.193327463314589 -38.07648276831164
          A 5.0 5.0 0 0 1 8.222128289124152 -40.167108514270666
          L 8.964536885573903 -40.00796268778499 
          A 5.0 5.0 0 0 1 9.046007849416387 -37.67933441541008
        
          A 38.75 38.75 0 0 1 10.158599241895468 -37.3947237112747
          A 5.0 5.0 0 0 1 11.348257223637274 -39.398185973292925
          L 12.075890784515586 -39.18128203314004 
          A 5.0 5.0 0 0 1 11.974408532029274 -36.85344000643732
        
          A 38.75 38.75 0 0 1 13.061239878073021 -36.48241374755027
          A 5.0 5.0 0 0 1 14.404420378688208 -38.38636051456354
          L 15.112792801129554 -38.11303574566237 
          A 5.0 5.0 0 0 1 14.828983004147297 -35.80033188481247
        
          A 38.75 38.75 0 0 1 15.88335362709925 -35.345177571438555
          A 5.0 5.0 0 0 1 17.371775492148686 -37.1378703785017
          L 18.056519424610983 -36.809809918942236 
          A 5.0 5.0 0 0 1 17.59213186490751 -34.52650281229938
        
          A 38.75 38.75 0 0 1 18.607541219263364 -33.9900266221347
          A 5.0 5.0 0 0 1 20.232027832998522 -35.66041292196131
          L 20.888921601437676 -35.2796393735679 
          A 5.0 5.0 0 0 1 20.246819382743098 -33.039806368721194
        
          A 38.75 38.75 0 0 1 21.217007132175375 -32.425315855874565
          A 5.0 5.0 0 0 1 22.967542994425962 -33.963097161466415
          L 23.5925366303202 -33.53195811978496 
          A 5.0 5.0 0 0 1 22.77667852633342 -31.34940853202933
        
          A 38.75 38.75 0 0 1 23.695663140746703 -30.660692234851275
          A 5.0 5.0 0 0 1 25.561455615809706 -32.0563876130952
          L 26.150695825562266 -31.577541193685946 
          A 5.0 5.0 0 0 1 25.166111872794716 -29.465731167001305
        
          A 38.75 38.75 0 0 1 26.028227506447752 -28.70703525048534
          A 5.0 5.0 0 0 1 27.997773363275446 -29.952039775258662
          L 28.54762728505095 -29.428438225529867 
          A 5.0 5.0 0 0 1 27.400387770978824 -27.40038777097882
        
          A 38.75 38.75 0 0 1 28.200319194307607 -26.576389847742256
          A 5.0 5.0 0 0 1 30.26147552775219 -27.663027652143732
          L 30.768553129277908 -27.09789914976465 
          A 5.0 5.0 0 0 1 29.465731167001316 -25.16611187279471
        
          A 38.75 38.75 0 0 1 30.198546536776828 -24.281892164041412
          A 5.0 5.0 0 0 1 32.33860563263858 -25.203463764663166
          L 32.7997806118807 -24.600292514775262 
          A 5.0 5.0 0 0 1 31.349408532029344 -22.776678526333413
        
          A 38.75 38.75 0 0 1 32.01058979781108 -21.837688540600745
          A 5.0 5.0 0 0 1 34.216357480122156 -22.58851214207129
          L 34.6287865399774 -21.951016896004923 
          A 5.0 5.0 0 0 1 33.03980636872121 -20.246819382743087
        
          A 38.75 38.75 0 0 1 33.625277128140546 -19.258848305538937
          A 5.0 5.0 0 0 1 35.88315410564731 -19.83429483068103
          L 36.24429448381509 -19.166405958616874 
          A 5.0 5.0 0 0 1 34.5265028122994 -17.592131864907497
        
          A 38.75 38.75 0 0 1 35.032653443435734 -16.561270866456553
          A 5.0 5.0 0 0 1 37.32871915375157 -16.9577924960873
          L 37.63634429970912 -16.263627755017218 
          A 5.0 5.0 0 0 1 35.800331884812515 -14.828983004147272
        
          A 38.75 38.75 0 0 1 36.224041800712726 -13.761587685301054
          A 5.0 5.0 0 0 1 38.54414023521421 -13.976739731716963
          L 38.79635353764096 -13.260578878102853 
          A 5.0 5.0 0 0 1 36.85344000643735 -11.974408532029244
        
          A 38.75 38.75 0 0 1 37.19209689457207 -10.877059739873399
          A 5.0 5.0 0 0 1 39.52192387489948 -10.909515719162998
          L 39.71717035491655 -10.175774122815042 
          A 5.0 5.0 0 0 1 37.67933441541013 -9.046007849416354
        
          A 38.75 38.75 0 0 1 37.93085034344916 -7.925471104160025
          A 5.0 5.0 0 0 1 40.256041711522684 -7.775030914418287
          L 40.393117609654716 -7.02823233627181 
          A 5.0 5.0 0 0 1 38.272923198061754 -6.0618355203089545
        
          A 38.75 38.75 0 0 1 38.4357474866712 -4.925019303602927
          A 5.0 5.0 0 0 1 40.741967664502084 -4.592610458626046
          L 40.820027862254726 -3.8373591602510486 
          A 5.0 5.0 0 0 1 38.63054668215888 -3.0402899594539874
        
          A 38.75 38.75 0 0 1 38.70367546545489 -1.8942031213040045
          A 5.0 5.0 0 0 1 40.97670583875077 -1.3818750321584237
          L 40.995269069047225 -0.6228273889559292 
          A 5.0 5.0 0 0 1 38.750000000000156 1.7208456881689926e-14
        
         z"
            />
        
     
        <circle id="reinforcement" style="fill:none;stroke:#000000;stroke-width:0.025000"
            cx="0" cy="0" r="15"
        />
        
     
        <path id="bearing" style="fill:#ffcccc;stroke:#000000;stroke-width:0.025000"
            d="M 1.961161351381842 9.8058067569092 A 10 10 0 1 0 -1.9611613513818411 9.8058067569092
              L -1.9611613513818411 11.8058067569092  1.961161351381842 11.8058067569092  1.961161351381842 9.8058067569092"
        />
        
   </defs>

   <!--
   module                   : 1.000000
   nb-teeth                 : 80
   ratio-teeth-gap          : 1.650000
   teeth-curvature          : 5.000000
   ratio-teeth-head-base    : 0.400000

   25 -> 8.45
   40 -> ok
   80
   -->

   <g>
     <!-- first gear -->
     <use href="#gear"    id="gear_1"    transform="translate(200,200) rotate(0)" >
      <animateTransform attributeType="xml" attributeName="transform" type="rotate" from="0 0 0" to="380 0 0" dur="30.000000s" additive="sum" repeatCount="indefinite" />
     </use>
     <use href="#bearing" id="bearing_1" transform="translate(200,200)">
      <animateTransform attributeType="xml" attributeName="transform" type="rotate" from="0 0 0" to="380 0 0" dur="30.000000s" additive="sum" repeatCount="indefinite" />
     </use>

     <!-- second gear -->
     <use href="#gear"    id="gear_2"    transform="translate(280.000000,200) rotate(0)">
      <animateTransform attributeType="xml" attributeName="transform" type="rotate" from="0.551887 0 0" to="-379.448113 0 0" dur="30.000000s" additive="sum" repeatCount="indefinite" />
    </use>
     
     <use href="#bearing" id="bearing_2" transform="translate(280.000000,200) rotate(0)">
       <animateTransform attributeType="xml" attributeName="transform" type="rotate" from="0.551887 0 0" to="-379.448113 0 0" dur="30.000000s" additive="sum" repeatCount="indefinite" />
     </use>

     <!-- refernece line -->
    <path style="fill:#ffcccc;stroke:#000000;stroke-width:0.050000" d="M 0 200 L 300 200" ></path>
    <path style="fill:#ffcccc;stroke:#000000;stroke-width:0.050000" d="M 200 0 L 200 300" ></path>
    <path style="fill:#ffcccc;stroke:#000000;stroke-width:0.050000" d="M 280.000000 0 L 280.000000 300" ></path>

    <path style="fill:#ffcccc;stroke:#000000;stroke-width:0.050000" d="M 240.000000 0 L 240.000000 300" ></path>

   </g>
   
</svg>
