<?xml version="1.0" encoding="UTF-8" standalone="no"?>
<svg
   xmlns:svg="http://www.w3.org/2000/svg"
   xmlns="http://www.w3.org/2000/svg"
   xmlns:inkscape="http://www.inkscape.org/namespaces/inkscape"
   width="400mm"
   height="400mm"
   viewBox="0 0 400 400"
   version="1.1"
   id="gear_hobbymat">
   <g>
   
    <g style="fill:#cccccc" transform="translate(200,200)">
        <path style="fill:#cccccc;stroke:#000000;stroke-width:0.050000"
            d="  M  23.75 0.0      
          A 23.75 23.75 0 0 1 23.71745145042113 1.242978960769916
          A 4 4 0 0 1 25.930176407835912 1.904193125318424
          L 25.85756927957511 2.7177400449589904 
          A 4 4 0 0 1 23.562724156218852 2.976664297152226
        
          A 23.75 23.75 0 0 1 23.3746456892695 4.205762582590103
          A 4 4 0 0 1 25.487050540164777 5.139090849857281
          L 25.313051474702178 5.937122622877051 
          A 4 4 0 0 1 23.003850076804998 5.906384820165303
        
          A 23.75 23.75 0 0 1 22.663207802261585 7.10221881608206
          A 4 4 0 0 1 24.64197866024924 8.292942041749823
          L 24.36933172678919 9.0628732303672 
          A 4 4 0 0 1 22.08219153984598 8.742958126261106
        
          A 23.75 23.75 0 0 1 21.594357589867887 9.886668816184532
          A 4 4 0 0 1 23.408288056457042 11.316008583680523
          L 23.041293060011593 12.045696913116412 
          A 4 4 0 0 1 20.81228365104177 11.441649759915745
        
          A 23.75 23.75 0 0 1 20.184951458438025 12.515200143046098
          A 4 4 0 0 1 21.805434766581033 14.160614910390711
          L 21.349879437476314 14.838552759795231 
          A 4 4 0 0 1 19.21415361640501 13.959899741946243
        
          A 23.75 23.75 0 0 1 18.457216584603067 14.946359287433644
          A 4 4 0 0 1 19.858696744500705 16.78189988082272
          L 19.32176546241226 17.397395765330323 
          A 4 4 0 0 1 17.31300490125853 16.257993765806365
        
          A 23.75 23.75 0 0 1 16.438400379422166 17.141805417336112
          A 4 4 0 0 1 17.598775211749185 19.138524265113105
          L 16.988935703742747 19.681871446945678 
          A 4 4 0 0 1 15.138819756531388 18.299689515925003
        
          A 23.75 23.75 0 0 1 14.160340780433382 19.06691503578898
          A 4 4 0 0 1 15.061310480909656 21.193322688942423
          L 14.388180280326953 21.655952258462598 
          A 4 4 0 0 1 12.725886380751176 20.052788230672867
        
          A 23.75 23.75 0 0 1 11.658964148359601 20.691328014104506
          A 4 4 0 0 1 12.286319886595413 22.91388975368981
          L 11.560514658808124 23.288505766224745 
          A 4 4 0 0 1 10.112258174670483 21.489642496067976
        
          A 23.75 23.75 0 0 1 8.9737186869386 21.989426389237387
          A 4 4 0 0 1 9.317566688177815 24.27309108892726
          L 8.550532815203171 24.553785626174523 
          A 4 4 0 0 1 7.339153616405007 22.587592262009913
        
          A 23.75 23.75 0 0 1 6.146952321184871 22.940738374365388
          A 4 4 0 0 1 6.201869897043108 25.249491277650556
          L 5.4057039612617475 25.43183761907897 
          A 4 4 0 0 1 4.450306221410964 23.329322204806374
        
          A 23.75 23.75 0 0 1 3.223244845314732 23.5302612111968
          A 4 4 0 0 1 2.988365912814535 25.827691905610326
          L 2.1756239266402058 25.908814340487133 
          A 4 4 0 0 1 1.491274838821195 23.70313480017147
        
          A 23.75 23.75 0 0 1 0.24870487276083875 23.748697772430933
          A 4 4 0 0 1 -0.2722663870223899 25.99857440350334
          L -1.0887669969591904 25.977193582570344 
          A 4 4 0 0 1 -1.4912748388211934 23.703134800171473
        
          A 23.75 23.75 0 0 1 -2.729757324205584 23.592603183009437
          A 4 4 0 0 1 -3.528604883291917 25.75944385225756
          L -4.335987414618663 25.635896963833158 
          A 4 4 0 0 1 -4.4503062214109645 23.32932220480638
        
          A 23.75 23.75 0 0 1 -5.665169617491302 23.064439147853882
          A 4 4 0 0 1 -6.729295172665548 25.114071483515808
          L -7.514826720556271 24.89030693583378 
          A 4 4 0 0 1 -7.33915361640501 22.587592262009924
        
          A 23.75 23.75 0 0 1 -8.511238801700891 22.172535129308567
          A 4 4 0 0 1 -9.823860457280157 24.072635205059893
          L -10.575152719970818 23.75218189870765 
          A 4 4 0 0 1 -10.112258174670488 21.489642496067987
        
          A 23.75 23.75 0 0 1 -11.223080665640046 20.93095698654359
          A 4 4 0 0 1 -12.763497593993677 22.651559089124955
          L -13.4687022437014 22.239470764173202 
          A 4 4 0 0 1 -12.725886380751184 20.052788230672885
        
          A 23.75 23.75 0 0 1 -13.757927843138638 19.359285148553187
          A 4 4 0 0 1 -15.501846749106031 20.873254354969006
          L -16.14984228723609 20.376029890471866 
          A 4 4 0 0 1 -15.1388197565314 18.299689515925024
        
          A 23.75 23.75 0 0 1 -16.07580427996321 17.482305819093718
          A 4 4 0 0 1 -17.995722520630597 18.765765930557446
          L -18.576289670452912 18.19124685334753 
          A 4 4 0 0 1 -17.313004901258548 16.257993765806383
        
          A 23.75 23.75 0 0 1 -18.140155680072777 15.32962008344385
          A 4 4 0 0 1 -20.20579499788127 16.362330167295802
          L -20.709777868629132 15.719576986421774 
          A 4 4 0 0 1 -19.214153616405024 13.959899741946261
        
          A 23.75 23.75 0 0 1 -19.918425988703845 12.935177081606914
          A 4 4 0 0 1 -22.09721001765849 13.70085068291364
          L -22.516660498395435 13.000000000000021 
          A 4 4 0 0 1 -20.81228365104179 11.441649759915757
        
          A 23.75 23.75 0 0 1 -21.382570820802123 10.336738610092794
          A 4 4 0 0 1 -23.640138835223812 10.823300598770446
          L -23.968441941301045 10.075405247754691 
          A 4 4 0 0 1 -22.082191539845997 8.742958126261113
        
          A 23.75 23.75 0 0 1 -22.509499737727687 7.5752835958291715
          A 4 4 0 0 1 -24.81024854142323 7.775060598658264
          L -25.042226736739146 6.991915335996918 
          A 4 4 0 0 1 -23.00385007680502 5.906384820165309
        
          A 23.75 23.75 0 0 1 -23.281440397265925 4.694361834004252
          A 4 4 0 0 1 -25.589085807200327 4.604203248309171
          L -25.721080657037735 3.7981587426227064 
          A 4 4 0 0 1 -23.562724156218884 2.9766642971522295
        
          A 23.75 23.75 0 0 1 -23.686218834080915 1.739407181781254
          A 4 4 0 0 1 -25.964367903618964 1.3607348623165405
          L -25.994297770346027 0.5445029169672806 
          A 4 4 0 0 1 -23.750000000000043 -1.1155606353204698e-15
        
          A 23.75 23.75 0 0 1 -23.717451450421173 -1.2429789607699193
          A 4 4 0 0 1 -25.93017640783596 -1.904193125318429
          L -25.857569279575156 -2.717740044958997 
          A 4 4 0 0 1 -23.56272415621889 -2.976664297152233
        
          A 23.75 23.75 0 0 1 -23.37464568926954 -4.205762582590112
          A 4 4 0 0 1 -25.48705054016482 -5.139090849857292
          L -25.31305147470222 -5.937122622877062 
          A 4 4 0 0 1 -23.003850076805037 -5.906384820165314
        
          A 23.75 23.75 0 0 1 -22.66320780226162 -7.102218816082074
          A 4 4 0 0 1 -24.64197866024928 -8.292942041749837
          L -24.36933172678923 -9.062873230367217 
          A 4 4 0 0 1 -22.08219153984602 -8.74295812626112
        
          A 23.75 23.75 0 0 1 -21.594357589867926 -9.88666881618455
          A 4 4 0 0 1 -23.408288056457085 -11.316008583680542
          L -23.041293060011636 -12.045696913116434 
          A 4 4 0 0 1 -20.812283651041806 -11.441649759915764
        
          A 23.75 23.75 0 0 1 -20.18495145843806 -12.515200143046119
          A 4 4 0 0 1 -21.805434766581072 -14.160614910390736
          L -21.349879437476353 -14.838552759795258 
          A 4 4 0 0 1 -19.214153616405046 -13.95989974194627
        
          A 23.75 23.75 0 0 1 -18.457216584603103 -14.946359287433673
          A 4 4 0 0 1 -19.858696744500744 -16.781899880822753
          L -19.321765462412294 -17.397395765330355 
          A 4 4 0 0 1 -17.313004901258562 -16.257993765806393
        
          A 23.75 23.75 0 0 1 -16.438400379422195 -17.14180541733614
          A 4 4 0 0 1 -17.598775211749217 -19.138524265113134
          L -16.98893570374278 -19.68187144694571 
          A 4 4 0 0 1 -15.138819756531415 -18.29968951592503
        
          A 23.75 23.75 0 0 1 -14.160340780433406 -19.06691503578901
          A 4 4 0 0 1 -15.061310480909684 -21.19332268894246
          L -14.38818028032698 -21.655952258462637 
          A 4 4 0 0 1 -12.7258863807512 -20.052788230672903
        
          A 23.75 23.75 0 0 1 -11.658964148359622 -20.691328014104542
          A 4 4 0 0 1 -12.286319886595434 -22.913889753689848
          L -11.560514658808145 -23.288505766224787 
          A 4 4 0 0 1 -10.112258174670503 -21.489642496068015
        
          A 23.75 23.75 0 0 1 -8.973718686938618 -21.98942638923743
          A 4 4 0 0 1 -9.317566688177834 -24.273091088927305
          L -8.55053281520319 -24.55378562617457 
          A 4 4 0 0 1 -7.339153616405023 -22.587592262009956
        
          A 23.75 23.75 0 0 1 -6.1469523211848855 -22.94073837436543
          A 4 4 0 0 1 -6.201869897043121 -25.249491277650602
          L -5.405703961261759 -25.431837619079015 
          A 4 4 0 0 1 -4.450306221410973 -23.329322204806417
        
          A 23.75 23.75 0 0 1 -3.2232448453147393 -23.530261211196848
          A 4 4 0 0 1 -2.9883659128145417 -25.827691905610376
          L -2.1756239266402106 -25.908814340487183 
          A 4 4 0 0 1 -1.4912748388211985 -23.703134800171515
        
          A 23.75 23.75 0 0 1 -0.24870487276083986 -23.74869777243098
          A 4 4 0 0 1 0.2722663870223897 -25.99857440350339
          L 1.0887669969591918 -25.977193582570393 
          A 4 4 0 0 1 1.4912748388211954 -23.70313480017152
        
          A 23.75 23.75 0 0 1 2.7297573242055884 -23.592603183009484
          A 4 4 0 0 1 3.528604883291923 -25.75944385225761
          L 4.33598741461867 -25.635896963833208 
          A 4 4 0 0 1 4.450306221410972 -23.329322204806427
        
          A 23.75 23.75 0 0 1 5.665169617491312 -23.064439147853925
          A 4 4 0 0 1 6.72929517266556 -25.114071483515854
          L 7.514826720556283 -24.890306935833827 
          A 4 4 0 0 1 7.339153616405023 -22.587592262009967
        
          A 23.75 23.75 0 0 1 8.511238801700905 -22.17253512930861
          A 4 4 0 0 1 9.823860457280173 -24.07263520505994
          L 10.575152719970836 -23.752181898707697 
          A 4 4 0 0 1 10.112258174670504 -21.48964249606803
        
          A 23.75 23.75 0 0 1 11.223080665640065 -20.930956986543627
          A 4 4 0 0 1 12.763497593993701 -22.651559089124994
          L 13.468702243701427 -22.23947076417324 
          A 4 4 0 0 1 12.725886380751207 -20.05278823067292
        
          A 23.75 23.75 0 0 1 13.757927843138663 -19.359285148553223
          A 4 4 0 0 1 15.50184674910606 -20.873254354969045
          L 16.149842287236122 -20.3760298904719 
          A 4 4 0 0 1 15.138819756531431 -18.299689515925056
        
          A 23.75 23.75 0 0 1 16.075804279963243 -17.48230581909375
          A 4 4 0 0 1 17.995722520630633 -18.765765930557478
          L 18.576289670452947 -18.19124685334756 
          A 4 4 0 0 1 17.31300490125858 -16.257993765806408
        
          A 23.75 23.75 0 0 1 18.14015568007281 -15.329620083443873
          A 4 4 0 0 1 20.20579499788131 -16.362330167295827
          L 20.70977786862917 -15.7195769864218 
          A 4 4 0 0 1 19.21415361640506 -13.959899741946282
        
          A 23.75 23.75 0 0 1 19.91842598870388 -12.935177081606934
          A 4 4 0 0 1 22.09721001765853 -13.70085068291366
          L 22.516660498395474 -13.000000000000043 
          A 4 4 0 0 1 20.812283651041824 -11.441649759915775
        
          A 23.75 23.75 0 0 1 21.382570820802158 -10.33673861009281
          A 4 4 0 0 1 23.64013883522385 -10.823300598770464
          L 23.968441941301084 -10.07540524775471 
          A 4 4 0 0 1 22.082191539846033 -8.74295812626113
        
          A 23.75 23.75 0 0 1 22.509499737727722 -7.575283595829186
          A 4 4 0 0 1 24.810248541423274 -7.775060598658278
          L 25.042226736739188 -6.991915335996931 
          A 4 4 0 0 1 23.003850076805058 -5.906384820165321
        
          A 23.75 23.75 0 0 1 23.281440397265964 -4.694361834004262
          A 4 4 0 0 1 25.58908580720037 -4.604203248309181
          L 25.721080657037774 -3.7981587426227157 
          A 4 4 0 0 1 23.56272415621892 -2.9766642971522366
        
          A 23.75 23.75 0 0 1 23.68621883408095 -1.7394071817812593
          A 4 4 0 0 1 25.964367903619 -1.3607348623165456
          L 25.994297770346062 -0.5445029169672846 
          A 4 4 0 0 1 23.750000000000075 -1.8254628577971325e-15
        
         z"
            id="gear" />
    </g>
        
   
    <g style="fill:#ffcccc"  transform="translate(200,200)">
        <path style="fill:#ffcccc;stroke:#000000;stroke-width:0.050000"
            d="M 1.961161351381842 9.8058067569092 A 10 10 0 1 0 -1.9611613513818411 9.8058067569092
              L -1.9611613513818411 11.8058067569092  1.961161351381842 11.8058067569092  1.961161351381842 9.8058067569092"
            id="bearing" />
    </g>
        
   </g>
   
</svg>
