<?xml version='1.0' encoding='UTF-8'?>
<svg xmlns="http://www.w3.org/2000/svg" xmlns:xlink="http://www.w3.org/1999/xlink" xmlns:svg="http://www.w3.org/2000/svg" width="400mm" height="400mm" viewBox="0 0 400 400" version="1.1" id="gear_hobbymat">
  <g id="layer1">
    <path id="gear" d="M 208.750112725,200.000108 A 8.75,8.75 0 0,1 208.675255222,201.142212799 A 4,4 0 0,1 210.815917824,202.004699863 L 210.625297827,202.847119034 A 4,4 0 0,1 208.321857011,202.704008161 A 8.75,8.75 0 0,1 207.897733503,203.767082131 A 4,4 0 0,1 209.667101459,205.248857197 L 209.225489229,205.99114062 A 4,4 0 0,1 207.079010523,205.143231735 A 8.75,8.75 0 0,1 206.347137174,206.02321379 A 4,4 0 0,1 207.572012421,207.97923039 L 206.92263604,208.548718192 A 4,4 0 0,1 205.143231735,207.079010523 A 8.75,8.75 0 0,1 204.175249407,207.689761888 A 4,4 0 0,1 204.735732622,209.928551489 L 203.942157574,210.269498237 A 4,4 0 0,1 202.704008161,208.321857011 A 8.75,8.75 0 0,1 201.594669709,208.603593087 A 4,4 0 0,1 201.43589689,210.906007364 L 200.57580383,210.985038814 A 4,4 0 0,1 200.000108,208.750112725 A 8.75,8.75 0 0,1 198.858003201,208.675255222 A 4,4 0 0,1 197.995516137,210.815917824 L 197.153096966,210.625297827 A 4,4 0 0,1 197.296207839,208.321857011 A 8.75,8.75 0 0,1 196.233133869,207.897733503 A 4,4 0 0,1 194.751358803,209.667101459 L 194.00907538,209.225489229 A 4,4 0 0,1 194.856984265,207.079010523 A 8.75,8.75 0 0,1 193.97700221,206.347137174 A 4,4 0 0,1 192.02098561,207.572012421 L 191.451497808,206.92263604 A 4,4 0 0,1 192.921205477,205.143231735 A 8.75,8.75 0 0,1 192.310454112,204.175249407 A 4,4 0 0,1 190.071664511,204.735732622 L 189.730717763,203.942157574 A 4,4 0 0,1 191.678358989,202.704008161 A 8.75,8.75 0 0,1 191.396622913,201.594669709 A 4,4 0 0,1 189.094208636,201.43589689 L 189.015177186,200.57580383 A 4,4 0 0,1 191.250103275,200.000108 A 8.75,8.75 0 0,1 191.324960778,198.858003201 A 4,4 0 0,1 189.184298176,197.995516137 L 189.374918173,197.153096966 A 4,4 0 0,1 191.678358989,197.296207839 A 8.75,8.75 0 0,1 192.102482497,196.233133869 A 4,4 0 0,1 190.333114541,194.751358803 L 190.774726771,194.00907538 A 4,4 0 0,1 192.921205477,194.856984265 A 8.75,8.75 0 0,1 193.653078826,193.97700221 A 4,4 0 0,1 192.428203579,192.02098561 L 193.07757996,191.451497808 A 4,4 0 0,1 194.856984265,192.921205477 A 8.75,8.75 0 0,1 195.824966593,192.310454112 A 4,4 0 0,1 195.264483378,190.071664511 L 196.058058426,189.730717763 A 4,4 0 0,1 197.296207839,191.678358989 A 8.75,8.75 0 0,1 198.405546291,191.396622913 A 4,4 0 0,1 198.56431911,189.094208636 L 199.42441217,189.015177186 A 4,4 0 0,1 200.000108,191.250103275 A 8.75,8.75 0 0,1 201.142212799,191.324960778 A 4,4 0 0,1 202.004699863,189.184298176 L 202.847119034,189.374918173 A 4,4 0 0,1 202.704008161,191.678358989 A 8.75,8.75 0 0,1 203.767082131,192.102482497 A 4,4 0 0,1 205.248857197,190.333114541 L 205.99114062,190.774726771 A 4,4 0 0,1 205.143231735,192.921205477 A 8.75,8.75 0 0,1 206.02321379,193.653078826 A 4,4 0 0,1 207.97923039,192.428203579 L 208.548718192,193.07757996 A 4,4 0 0,1 207.079010523,194.856984265 A 8.75,8.75 0 0,1 207.689761888,195.824966593 A 4,4 0 0,1 209.928551489,195.264483378 L 210.269498237,196.058058426 A 4,4 0 0,1 208.321857011,197.296207839 A 8.75,8.75 0 0,1 208.603593087,198.405546291 A 4,4 0 0,1 210.906007364,198.56431911 L 210.985038814,199.42441217 A 4,4 0 0,1 208.750112725,200.000108 z" style="fill:#cccccc;stroke:#000000;stroke-width:0.050000"/>
  </g>
</svg>
