<?xml version="1.0" encoding="UTF-8" standalone="no"?>
<svg
   xmlns:svg="http://www.w3.org/2000/svg"
   xmlns="http://www.w3.org/2000/svg"
   xmlns:inkscape="http://www.inkscape.org/namespaces/inkscape"
   width="400mm"
   height="400mm"
   viewBox="0 0 400 400"
   version="1.1"
   id="gear_hobbymat">
   <defs>
     
    <g style="fill:#cccccc">
        <path style="fill:#cccccc;stroke:#000000;stroke-width:0.050000"
            d="  M  11.25 0.0      
          A 11.25 11.25 0 0 1 11.188371322893074 1.1759452117611016
          A 5.0 5.0 0 0 1 13.35517649500034 1.9721208855925567
          L 13.204992609906373 2.806807826039751 
          A 5.0 5.0 0 0 1 10.896560562697099 2.7977612306046162
        
          A 11.25 11.25 0 0 1 10.544422381783779 3.921435532370421
          A 5.0 5.0 0 0 1 12.445152546444756 5.231460417103389
          L 12.092108763232073 6.00257491899652 
          A 5.0 5.0 0 0 1 9.858450150493466 5.419728833644296
        
          A 11.25 11.25 0 0 1 9.23792860275417 6.420527636449855
          A 5.0 5.0 0 0 1 10.75315389332665 8.16208805064206
          L 10.21943325129871 8.821178153866422 
          A 5.0 5.0 0 0 1 8.20089705849088 7.701154941697747
        
          A 11.25 11.25 0 0 1 7.350981794888685 8.51619437608226
          A 5.0 5.0 0 0 1 8.38549503375719 10.579861673898836
          L 7.704633163739828 11.085514323305004 
          A 5.0 5.0 0 0 1 6.0280514435137125 9.49868916189767
        
          A 11.25 11.25 0 0 1 5.002145765830435 10.076757302693393
          A 5.0 5.0 0 0 1 5.490944681523303 12.33286367817511
          L 4.705722638844506 12.653306858140533 
          A 5.0 5.0 0 0 1 3.4764411867181595 10.699385808320477
        
          A 11.25 11.25 0 0 1 2.339006521699793 11.00416050825531
          A 5.0 5.0 0 0 1 2.2513780806673815 13.310946500451813
          L 1.411134254113323 13.426045587471686 
          A 5.0 5.0 0 0 1 0.7063933447047765 11.227800694818052
        
          A 11.25 11.25 0 0 1 -0.4711011044534945 11.240131838612154
          A 5.0 5.0 0 0 1 -1.1296508849862574 13.452653599868306
          L -1.9721208855925547 13.355176495000341 
          A 5.0 5.0 0 0 1 -2.1080397890894007 11.050731570697748
        
          A 11.25 11.25 0 0 1 -3.251607715625304 10.769844347235756
          A 5.0 5.0 0 0 1 -4.439699730970872 12.749080998205992
          L -5.2314604171033885 12.445152546444755 
          A 5.0 5.0 0 0 1 -4.790017030107067 10.17930434024272
        
          A 11.25 11.25 0 0 1 -5.827803855447714 9.622847926805699
          A 5.0 5.0 0 0 1 -7.470785914785143 11.244436749586344
          L -8.162088050642058 10.753153893326651 
          A 5.0 5.0 0 0 1 -7.1710198846727575 8.66827398122763
        
          A 11.25 11.25 0 0 1 -8.037817645869037 7.871212580775363
          A 5.0 5.0 0 0 1 -10.032455143944821 9.033263185844588
          L -10.579861673898836 8.385495033757191 
          A 5.0 5.0 0 0 1 -9.101441186718159 6.612584088290324
        
          A 11.25 11.25 0 0 1 -9.742785792574935 5.625000000000001
          A 5.0 5.0 0 0 1 -11.9637483196214 6.254496474118135
          L -12.332863678175114 5.490944681523304 
          A 5.0 5.0 0 0 1 -10.45998546624283 4.1414012177026285
        
          A 11.25 11.25 0 0 1 -10.835578876473656 3.0253479819217395
          A 5.0 5.0 0 0 1 -13.143315188787666 3.0827367464938527
          L -13.310946500451818 2.2513780806673807 
          A 5.0 5.0 0 0 1 -11.161290389787878 1.4099988775984227
        
          A 11.25 11.25 0 0 1 -11.247532689092013 0.2356022236877655
          A 5.0 5.0 0 0 1 -13.497039226910415 -0.28272266842531935
          L -13.45265359986831 -1.1296508849862594 
          A 5.0 5.0 0 0 1 -11.161290389787878 -1.4099988775984231
        
          A 11.25 11.25 0 0 1 -10.952762657323055 -2.5689472887448774
          A 5.0 5.0 0 0 1 -13.002694651768387 -3.630417578306087
          L -12.749080998205995 -4.439699730970874 
          A 5.0 5.0 0 0 1 -10.45998546624283 -4.141401217702628
        
          A 11.25 11.25 0 0 1 -9.969790266351167 -5.212080395098446
          A 5.0 5.0 0 0 1 -11.691342951089924 -6.750000000000001
          L -11.244436749586345 -7.470785914785146 
          A 5.0 5.0 0 0 1 -9.10144118671816 -6.6125840882903235
        
          A 11.25 11.25 0 0 1 -8.360379286620686 -7.527719321537155
          A 5.0 5.0 0 0 1 -9.645381175042846 -9.445455096930434
          L -9.033263185844588 -10.032455143944823 
          A 5.0 5.0 0 0 1 -7.171019884672762 -8.66827398122763
        
          A 11.25 11.25 0 0 1 -6.225654928987623 -9.370363957988621
          A 5.0 5.0 0 0 1 -6.993364626537261 -11.547417512166843
          L -6.2544964741181355 -11.963748319621402 
          A 5.0 5.0 0 0 1 -4.7900170301070695 -10.179304340242723
        
          A 11.25 11.25 0 0 1 -3.699749775809063 -10.624234165171666
          A 5.0 5.0 0 0 1 -3.9019292587503682 -12.923813216682912
          L -3.082736746493854 -13.143315188787668 
          A 5.0 5.0 0 0 1 -2.108039789089404 -11.050731570697751
        
          A 11.25 11.25 0 0 1 -0.9413757374885507 -11.210544666556926
          A 5.0 5.0 0 0 1 -0.5653213253441968 -13.48815820633459
          L 0.28272266842531735 -13.497039226910418 
          A 5.0 5.0 0 0 1 0.7063933447047743 -11.22780069481806
        
          A 11.25 11.25 0 0 1 1.8761484005561497 -11.092455417043185
          A 5.0 5.0 0 0 1 2.8068078260397504 -13.204992609906382
          L 3.6304175783060866 -13.002694651768392 
          A 5.0 5.0 0 0 1 3.4764411867181586 -10.699385808320486
        
          A 11.25 11.25 0 0 1 4.575787234602753 -10.277386398479267
          A 5.0 5.0 0 0 1 6.002574918996523 -12.092108763232083
          L 6.7500000000000036 -11.691342951089933 
          A 5.0 5.0 0 0 1 6.028051443513716 -9.498689161897678
        
          A 11.25 11.25 0 0 1 6.987912528130996 -8.816551394915704
          A 5.0 5.0 0 0 1 8.82117815386643 -10.21943325129872
          L 9.44545509693044 -9.645381175042854 
          A 5.0 5.0 0 0 1 8.200897058490886 -7.701154941697754
        
          A 11.25 11.25 0 0 1 8.960961577772215 -6.801740042201723
          A 5.0 5.0 0 0 1 11.085514323305013 -7.704633163739834
          L 11.547417512166847 -6.993364626537264 
          A 5.0 5.0 0 0 1 9.858450150493471 -5.419728833644303
        
          A 11.25 11.25 0 0 1 10.370960455370637 -4.359550347586163
          A 5.0 5.0 0 0 1 12.653306858140542 -4.705722638844511
          L 12.923813216682916 -3.9019292587503718 
          A 5.0 5.0 0 0 1 10.89656056269711 -2.7977612306046207
        
          A 11.25 11.25 0 0 1 11.12931374583363 -1.6434340713271338
          A 5.0 5.0 0 0 1 13.426045587471702 -1.4111342541133254
          L 13.4881582063346 -0.5653213253441979 
          A 5.0 5.0 0 0 1 11.25000000000001 -2.035408878479454e-15
        
         z"
            id="gear" />
    </g>
        
     
    <g style="fill:#ffcccc">
        <path style="fill:#ffcccc;stroke:#000000;stroke-width:0.050000"
            d="M 1.961161351381842 9.8058067569092 A 10 10 0 1 0 -1.9611613513818411 9.8058067569092
              L -1.9611613513818411 11.8058067569092  1.961161351381842 11.8058067569092  1.961161351381842 9.8058067569092"
            id="bearing" />
    </g>
        
   </defs>

   <!--
   module                   : 1.000000
   nb-teeth                 : 25
   ratio-teeth-gap          : 1.400000
   teeth-curvature          : 5.000000
   ratio-teeth-head-base    : 0.428571
   -->

   <g>
     <!-- first gear -->
     <use href="#gear"    id="gear_1"    transform="translate(200,200) rotate(0)" >
     </use>
     <use href="#bearing" id="bearing_1" transform="translate(200,200)">
      <animateTransform attributeType="xml" attributeName="transform" type="rotate" from="0 0 0" to="380 0 0" dur="30.000000s" additive="sum" repeatCount="indefinite" />
     </use>

     <!-- second gear -->
     <use href="#gear"    id="gear_2"    transform="translate(225.000000,200) rotate(8.45)">
     </use>
     
     <use href="#bearing" id="bearing_2" transform="translate(225.000000,200) rotate(30)">
    </use>

     <!-- refernece line -->
    <path style="fill:#ffcccc;stroke:#000000;stroke-width:0.050000" d="M 0 200 L 300 200" ></path>
    <path style="fill:#ffcccc;stroke:#000000;stroke-width:0.050000" d="M 200 0 L 200 300" ></path>
    <path style="fill:#ffcccc;stroke:#000000;stroke-width:0.050000" d="M 225.000000 0 L 225.000000 300" ></path>

    <path style="fill:#ffcccc;stroke:#000000;stroke-width:0.050000" d="M 212.500000 0 L 212.500000 300" ></path>

   </g>
   
</svg>
