<?xml version="1.0" encoding="UTF-8" standalone="no"?>
<svg
   xmlns:svg="http://www.w3.org/2000/svg"
   xmlns="http://www.w3.org/2000/svg"
   xmlns:inkscape="http://www.inkscape.org/namespaces/inkscape"
   width="400mm"
   height="400mm"
   viewBox="0 0 400 400"
   version="1.1"
   id="gear_hobbymat">
   <defs>
     
            <path id="gear" style="fill:#cccccc;stroke:#000000;stroke-width:0.025000"
                d="  M  28.75 0.0      
          A 28.75 28.75 0 0 1 28.72755514391519 1.1358148851427625
          A 5.0 5.0 0 0 1 30.944239867399784 1.8584991333938476
          L 30.890047472943586 2.608633189870008 
          A 5.0 5.0 0 0 1 28.592504491837854 3.005193318945037
        
          A 28.75 28.75 0 0 1 28.45145760652262 4.132439964989906
          A 5.0 5.0 0 0 1 30.58045802525899 5.0828719210081
          L 30.448152142241685 5.823232016921763 
          A 5.0 5.0 0 0 1 28.121743521096906 5.97746111101058
        
          A 28.75 28.75 0 0 1 27.863639945742722 7.083789167811962
          A 5.0 5.0 0 0 1 29.881630285621213 8.251555700196453
          L 29.672660484983922 8.974030295406475 
          A 5.0 5.0 0 0 1 27.342874843485657 8.884238588279734
        
          A 28.75 28.75 0 0 1 26.970542414875748 9.957526894133284
          A 5.0 5.0 0 0 1 28.855413151441024 11.329833708384413
          L 28.57206895004927 12.026507220038146 
          A 5.0 5.0 0 0 1 26.264431907224765 11.69367848842925
        
          A 28.75 28.75 0 0 1 25.78194997736255 12.722167872056017
          A 5.0 5.0 0 0 1 27.51305007239024 14.283979687543185
          L 27.15843584860806 14.947219214858647 
          A 5.0 5.0 0 0 1 24.898230358802596 14.374999999999991
        
          A 28.75 28.75 0 0 1 24.310885100677485 15.347422116487722
          A 5.0 5.0 0 0 1 25.86924825927048 17.08162739613032
          L 25.447249240741428 17.704166348054446 
          A 5.0 5.0 0 0 1 23.259238588279718 16.898826003408587
        
          A 28.75 28.75 0 0 1 22.573465079449623 17.804526792556633
          A 5.0 5.0 0 0 1 23.94201754873393 19.692125220405106
          L 23.457257245013977 20.267142929905965 
          A 5.0 5.0 0 0 1 21.365413732475062 19.237504932817153
        
          A 28.75 28.75 0 0 1 20.588725451010056 20.066561347249532
          A 5.0 5.0 0 0 1 21.752473083744174 22.08687199992301
          L 21.2102626301635 22.60806845264512 
          A 5.0 5.0 0 0 1 19.23750493281715 21.365413732475062
        
          A 28.75 28.75 0 0 1 18.378411438061438 22.108742456624043
          A 5.0 5.0 0 0 1 19.324603971651282 24.239630387834648
          L 18.73088393940414 24.701295246374617 
          A 5.0 5.0 0 0 1 16.89882600340857 23.259238588279707
        
          A 28.75 28.75 0 0 1 15.966739703467569 23.90869555709198
          A 5.0 5.0 0 0 1 16.68501045451162 26.126814312748408
          L 16.046285764515222 26.52388948030649 
          A 5.0 5.0 0 0 1 14.374999999999968 24.898230358802575
        
          A 28.75 28.75 0 0 1 13.380133027427428 25.446699985820224
          A 5.0 5.0 0 0 1 13.862612471269424 27.727747392664305
          L 13.1858811248891 28.055882430611412 
          A 5.0 5.0 0 0 1 11.693678488429226 26.264431907224733
        
          A 28.75 28.75 0 0 1 10.64693081396595 26.705905044439504
          A 5.0 5.0 0 0 1 10.888332804853844 29.024889469742
          L 10.181009212335677 29.280489261935713 
          A 5.0 5.0 0 0 1 8.884238588279711 27.342874843485617
        
          A 28.75 28.75 0 0 1 7.797078598493151 27.672514618821992
          A 5.0 5.0 0 0 1 7.794758285698161 30.004028783940598
          L 7.064592032338758 30.184292925569945 
          A 5.0 5.0 0 0 1 5.977461111010557 28.121743521096857
        
          A 28.75 28.75 0 0 1 4.861799958251669 28.335938332194694
          A 5.0 5.0 0 0 1 4.615782763606335 30.654437680035667
          L 3.870773703674612 30.75739115944226 
          A 5.0 5.0 0 0 1 3.005193318945019 28.592504491837794
        
          A 28.75 28.75 0 0 1 1.8732544202705352 28.688907575523558
          A 5.0 5.0 0 0 1 1.3862357596417985 30.96899014205477
          L 0.6345463683015369 30.99350497937383 
          A 5.0 5.0 0 0 1 -1.1017172837106896e-14 28.749999999999925
        
          A 28.75 28.75 0 0 1 -1.1358148851427707 28.727555143915115
          A 5.0 5.0 0 0 1 -1.8584991333938548 30.944239867399702
          L -2.6086331898700132 30.890047472943504 
          A 5.0 5.0 0 0 1 -3.0051933189450404 28.592504491837776
        
          A 28.75 28.75 0 0 1 -4.132439964989906 28.451457606522542
          A 5.0 5.0 0 0 1 -5.082871921008097 30.58045802525891
          L -5.823232016921757 30.448152142241604 
          A 5.0 5.0 0 0 1 -5.977461111010575 28.12174352109683
        
          A 28.75 28.75 0 0 1 -7.083789167811954 27.863639945742644
          A 5.0 5.0 0 0 1 -8.251555700196445 29.881630285621128
          L -8.974030295406465 29.672660484983837 
          A 5.0 5.0 0 0 1 -8.884238588279723 27.34287484348558
        
          A 28.75 28.75 0 0 1 -9.95752689413327 26.97054241487567
          A 5.0 5.0 0 0 1 -11.329833708384395 28.85541315144094
          L -12.026507220038127 28.572068950049186 
          A 5.0 5.0 0 0 1 -11.69367848842923 26.264431907224687
        
          A 28.75 28.75 0 0 1 -12.722167872055994 25.781949977362476
          A 5.0 5.0 0 0 1 -14.283979687543159 27.513050072390158
          L -14.947219214858618 27.15843584860798 
          A 5.0 5.0 0 0 1 -14.374999999999963 24.898230358802522
        
          A 28.75 28.75 0 0 1 -15.34742211648769 24.310885100677414
          A 5.0 5.0 0 0 1 -17.08162739613028 25.869248259270407
          L -17.704166348054404 25.447249240741357 
          A 5.0 5.0 0 0 1 -16.898826003408548 23.259238588279654
        
          A 28.75 28.75 0 0 1 -17.80452679255659 22.573465079449562
          A 5.0 5.0 0 0 1 -19.692125220405057 23.942017548733865
          L -20.267142929905916 23.457257245013913 
          A 5.0 5.0 0 0 1 -19.237504932817107 21.365413732475
        
          A 28.75 28.75 0 0 1 -20.066561347249483 20.58872545101
          A 5.0 5.0 0 0 1 -22.086871999922952 21.752473083744114
          L -22.608068452645064 21.210262630163438 
          A 5.0 5.0 0 0 1 -21.365413732475005 19.237504932817092
        
          A 28.75 28.75 0 0 1 -22.108742456623983 18.378411438061384
          A 5.0 5.0 0 0 1 -24.239630387834584 19.32460397165123
          L -24.701295246374553 18.73088393940409 
          A 5.0 5.0 0 0 1 -23.259238588279647 16.898826003408523
        
          A 28.75 28.75 0 0 1 -23.908695557091917 15.966739703467525
          A 5.0 5.0 0 0 1 -26.126814312748337 16.685010454511573
          L -26.52388948030642 16.04628576451518 
          A 5.0 5.0 0 0 1 -24.898230358802508 14.37499999999993
        
          A 28.75 28.75 0 0 1 -25.446699985820157 13.380133027427393
          A 5.0 5.0 0 0 1 -27.727747392664234 13.862612471269388
          L -28.05588243061134 13.185881124889066 
          A 5.0 5.0 0 0 1 -26.264431907224665 11.693678488429198
        
          A 28.75 28.75 0 0 1 -26.705905044439437 10.646930813965923
          A 5.0 5.0 0 0 1 -29.024889469741925 10.888332804853817
          L -29.280489261935635 10.181009212335653 
          A 5.0 5.0 0 0 1 -27.342874843485543 8.88423858827969
        
          A 28.75 28.75 0 0 1 -27.67251461882192 7.797078598493133
          A 5.0 5.0 0 0 1 -30.00402878394052 7.794758285698144
          L -30.184292925569864 7.0645920323387426 
          A 5.0 5.0 0 0 1 -28.121743521096782 5.977461111010545
        
          A 28.75 28.75 0 0 1 -28.33593833219462 4.861799958251659
          A 5.0 5.0 0 0 1 -30.65443768003559 4.615782763606326
          L -30.757391159442182 3.870773703674605 
          A 5.0 5.0 0 0 1 -28.592504491837722 3.0051933189450137
        
          A 28.75 28.75 0 0 1 -28.688907575523487 1.8732544202705326
          A 5.0 5.0 0 0 1 -30.968990142054697 1.3862357596417971
          L -30.993504979373757 0.6345463683015373 
          A 5.0 5.0 0 0 1 -28.749999999999858 -9.266780891024492e-15
        
          A 28.75 28.75 0 0 1 -28.727555143915048 -1.1358148851427663
          A 5.0 5.0 0 0 1 -30.94423986739963 -1.8584991333938485
          L -30.890047472943433 -2.6086331898700053 
          A 5.0 5.0 0 0 1 -28.592504491837712 -3.005193318945031
        
          A 28.75 28.75 0 0 1 -28.451457606522478 -4.132439964989895
          A 5.0 5.0 0 0 1 -30.58045802525884 -5.082871921008083
          L -30.448152142241533 -5.823232016921741 
          A 5.0 5.0 0 0 1 -28.121743521096764 -5.977461111010558
        
          A 28.75 28.75 0 0 1 -27.863639945742584 -7.0837891678119345
          A 5.0 5.0 0 0 1 -29.881630285621064 -8.251555700196421
          L -29.672660484983776 -8.97403029540644 
          A 5.0 5.0 0 0 1 -27.34287484348552 -8.884238588279699
        
          A 28.75 28.75 0 0 1 -26.970542414875617 -9.957526894133244
          A 5.0 5.0 0 0 1 -28.85541315144088 -11.329833708384367
          L -28.57206895004913 -12.026507220038097 
          A 5.0 5.0 0 0 1 -26.264431907224633 -11.6936784884292
        
          A 28.75 28.75 0 0 1 -25.781949977362423 -12.722167872055962
          A 5.0 5.0 0 0 1 -27.5130500723901 -14.283979687543123
          L -27.158435848607922 -14.947219214858581 
          A 5.0 5.0 0 0 1 -24.89823035880247 -14.374999999999927
        
          A 28.75 28.75 0 0 1 -24.31088510067736 -15.347422116487653
          A 5.0 5.0 0 0 1 -25.86924825927035 -17.08162739613024
          L -25.4472492407413 -17.704166348054365 
          A 5.0 5.0 0 0 1 -23.2592385882796 -16.898826003408512
        
          A 28.75 28.75 0 0 1 -22.57346507944951 -17.80452679255655
          A 5.0 5.0 0 0 1 -23.94201754873381 -19.692125220405018
          L -23.457257245013864 -20.267142929905877 
          A 5.0 5.0 0 0 1 -21.365413732474956 -19.23750493281707
        
          A 28.75 28.75 0 0 1 -20.588725451009953 -20.066561347249444
          A 5.0 5.0 0 0 1 -21.752473083744068 -22.08687199992291
          L -21.210262630163392 -22.60806845264502 
          A 5.0 5.0 0 0 1 -19.23750493281705 -21.365413732474966
        
          A 28.75 28.75 0 0 1 -18.37841143806134 -22.108742456623943
          A 5.0 5.0 0 0 1 -19.324603971651182 -24.23963038783454
          L -18.730883939404045 -24.70129524637451 
          A 5.0 5.0 0 0 1 -16.898826003408484 -23.259238588279604
        
          A 28.75 28.75 0 0 1 -15.966739703467487 -23.908695557091875
          A 5.0 5.0 0 0 1 -16.685010454511534 -26.12681431274829
          L -16.04628576451514 -26.523889480306373 
          A 5.0 5.0 0 0 1 -14.374999999999893 -24.898230358802465
        
          A 28.75 28.75 0 0 1 -13.380133027427357 -25.446699985820114
          A 5.0 5.0 0 0 1 -13.86261247126935 -27.727747392664188
          L -13.185881124889029 -28.05588243061129 
          A 5.0 5.0 0 0 1 -11.693678488429162 -26.264431907224623
        
          A 28.75 28.75 0 0 1 -10.64693081396589 -26.705905044439394
          A 5.0 5.0 0 0 1 -10.88833280485378 -29.02488946974188
          L -10.181009212335617 -29.28048926193559 
          A 5.0 5.0 0 0 1 -8.884238588279658 -27.3428748434855
        
          A 28.75 28.75 0 0 1 -7.797078598493103 -27.672514618821875
          A 5.0 5.0 0 0 1 -7.794758285698112 -30.00402878394047
          L -7.064592032338712 -30.184292925569814 
          A 5.0 5.0 0 0 1 -5.977461111010518 -28.121743521096732
        
          A 28.75 28.75 0 0 1 -4.861799958251635 -28.33593833219457
          A 5.0 5.0 0 0 1 -4.615782763606301 -30.654437680035535
          L -3.8707737036745815 -30.75739115944213 
          A 5.0 5.0 0 0 1 -3.0051933189449933 -28.592504491837673
        
          A 28.75 28.75 0 0 1 -1.8732544202705141 -28.688907575523437
          A 5.0 5.0 0 0 1 -1.3862357596417785 -30.96899014205464
          L -0.6345463683015201 -30.9935049793737 
          A 5.0 5.0 0 0 1 2.4093630316663678e-14 -28.749999999999805
        
          A 28.75 28.75 0 0 1 1.1358148851427787 -28.727555143914994
          A 5.0 5.0 0 0 1 1.8584991333938607 -30.944239867399574
          L 2.608633189870016 -30.890047472943376 
          A 5.0 5.0 0 0 1 3.0051933189450404 -28.59250449183766
        
          A 28.75 28.75 0 0 1 4.132439964989901 -28.451457606522425
          A 5.0 5.0 0 0 1 5.082871921008089 -30.580458025258782
          L 5.823232016921747 -30.448152142241476 
          A 5.0 5.0 0 0 1 5.977461111010562 -28.12174352109671
        
          A 28.75 28.75 0 0 1 7.083789167811936 -27.86363994574253
          A 5.0 5.0 0 0 1 8.251555700196421 -29.881630285621007
          L 8.974030295406438 -29.67266048498372 
          A 5.0 5.0 0 0 1 8.884238588279695 -27.34287484348547
        
          A 28.75 28.75 0 0 1 9.957526894133238 -26.970542414875563
          A 5.0 5.0 0 0 1 11.32983370838436 -28.855413151440825
          L 12.02650722003809 -28.572068950049072 
          A 5.0 5.0 0 0 1 11.693678488429194 -26.26443190722458
        
          A 28.75 28.75 0 0 1 12.722167872055955 -25.78194997736237
          A 5.0 5.0 0 0 1 14.283979687543113 -27.513050072390044
          L 14.947219214858569 -27.158435848607866 
          A 5.0 5.0 0 0 1 14.374999999999913 -24.898230358802415
        
          A 28.75 28.75 0 0 1 15.347422116487637 -24.310885100677307
          A 5.0 5.0 0 0 1 17.081627396130223 -25.869248259270293
          L 17.704166348054347 -25.447249240741243 
          A 5.0 5.0 0 0 1 16.898826003408495 -23.259238588279548
        
          A 28.75 28.75 0 0 1 17.804526792556533 -22.573465079449456
          A 5.0 5.0 0 0 1 19.692125220404996 -23.94201754873375
          L 20.26714292990585 -23.457257245013807 
          A 5.0 5.0 0 0 1 19.237504932817043 -21.365413732474902
        
          A 28.75 28.75 0 0 1 20.066561347249415 -20.5887254510099
          A 5.0 5.0 0 0 1 22.08687199992288 -21.75247308374401
          L 22.60806845264499 -21.21026263016334 
          A 5.0 5.0 0 0 1 21.365413732474934 -19.237504932817
        
          A 28.75 28.75 0 0 1 22.108742456623908 -18.378411438061296
          A 5.0 5.0 0 0 1 24.2396303878345 -19.324603971651133
          L 24.701295246374464 -18.730883939403995 
          A 5.0 5.0 0 0 1 23.259238588279562 -16.898826003408438
        
          A 28.75 28.75 0 0 1 23.90869555709183 -15.966739703467443
          A 5.0 5.0 0 0 1 26.126814312748238 -16.685010454511488
          L 26.523889480306316 -16.046285764515094 
          A 5.0 5.0 0 0 1 24.89823035880241 -14.374999999999853
        
          A 28.75 28.75 0 0 1 25.446699985820057 -13.380133027427318
          A 5.0 5.0 0 0 1 27.727747392664124 -13.862612471269308
          L 28.055882430611227 -13.18588112488899 
          A 5.0 5.0 0 0 1 26.264431907224562 -11.693678488429128
        
          A 28.75 28.75 0 0 1 26.70590504443933 -10.64693081396586
          A 5.0 5.0 0 0 1 29.02488946974181 -10.88833280485375
          L 29.28048926193552 -10.181009212335589 
          A 5.0 5.0 0 0 1 27.34287484348544 -8.884238588279633
        
          A 28.75 28.75 0 0 1 27.672514618821815 -7.79707859849308
          A 5.0 5.0 0 0 1 30.004028783940406 -7.794758285698089
          L 30.18429292556975 -7.06459203233869 
          A 5.0 5.0 0 0 1 28.121743521096672 -5.9774611110104985
        
          A 28.75 28.75 0 0 1 28.33593833219451 -4.861799958251618
          A 5.0 5.0 0 0 1 30.654437680035468 -4.615782763606284
          L 30.75739115944206 -3.8707737036745664 
          A 5.0 5.0 0 0 1 28.59250449183761 -3.0051933189449804
        
          A 28.75 28.75 0 0 1 28.688907575523373 -1.8732544202705037
          A 5.0 5.0 0 0 1 30.968990142054572 -1.3862357596417685
          L 30.993504979373633 -0.6345463683015117 
          A 5.0 5.0 0 0 1 28.74999999999974 3.068334117250332e-14
        
         z"
            />
        
     
        <circle id="reinforcement" style="fill:none;stroke:#000000;stroke-width:0.025000"
            cx="0" cy="0" r="15"
        />
        
     
        <path id="bearing" style="fill:#ffcccc;stroke:#000000;stroke-width:0.025000"
            d="M 1.961161351381842 9.8058067569092 A 10 10 0 1 0 -1.9611613513818411 9.8058067569092
              L -1.9611613513818411 11.8058067569092  1.961161351381842 11.8058067569092  1.961161351381842 9.8058067569092"
        />
        
   </defs>

   <!--
   module                   : 1.000000
   nb-teeth                 : 60
   ratio-teeth-gap          : 1.650000
   teeth-curvature          : 5.000000
   ratio-teeth-head-base    : 0.400000

   25 -> 8.45
   40 -> ok
   80
   -->

   <g>
     <!-- first gear -->
     <use href="#gear"    id="gear_1"    transform="translate(200,200) rotate(0)" >
      <animateTransform attributeType="xml" attributeName="transform" type="rotate" from="0 0 0" to="380 0 0" dur="30.000000s" additive="sum" repeatCount="indefinite" />
     </use>
     <use href="#bearing" id="bearing_1" transform="translate(200,200)">
      <animateTransform attributeType="xml" attributeName="transform" type="rotate" from="0 0 0" to="380 0 0" dur="30.000000s" additive="sum" repeatCount="indefinite" />
     </use>

     <!-- second gear -->
     <use href="#gear"    id="gear_2"    transform="translate(260.000000,200) rotate(0)">
      <animateTransform attributeType="xml" attributeName="transform" type="rotate" from="0.735849 0 0" to="-379.264151 0 0" dur="30.000000s" additive="sum" repeatCount="indefinite" />
    </use>
     
     <use href="#bearing" id="bearing_2" transform="translate(260.000000,200) rotate(0)">
       <animateTransform attributeType="xml" attributeName="transform" type="rotate" from="0.735849 0 0" to="-379.264151 0 0" dur="30.000000s" additive="sum" repeatCount="indefinite" />
     </use>

     <!-- refernece line -->
    <path style="fill:#ffcccc;stroke:#000000;stroke-width:0.050000" d="M 0 200 L 300 200" ></path>
    <path style="fill:#ffcccc;stroke:#000000;stroke-width:0.050000" d="M 200 0 L 200 300" ></path>
    <path style="fill:#ffcccc;stroke:#000000;stroke-width:0.050000" d="M 260.000000 0 L 260.000000 300" ></path>

    <path style="fill:#ffcccc;stroke:#000000;stroke-width:0.050000" d="M 230.000000 0 L 230.000000 300" ></path>

   </g>
   
</svg>
