<?xml version="1.0" encoding="UTF-8" standalone="no"?>
<!-- Created with Inkscape (http://www.inkscape.org/) -->

<svg
   width="460mm"
   height="80mm"
   viewBox="0 0 460 80"
   version="1.1"
   id="slaine"
   xmlns="http://www.w3.org/2000/svg"
   xmlns:svg="http://www.w3.org/2000/svg">
  <g id="layer1" style="opacity:0.5">
    <text
       xml:space="preserve"
       style="font-size:22.5778px;line-height:1.25;font-family:Sl치ine;-inkscape-font-specification:'Sl치ine, Normal';font-variant-ligatures:none;stroke-width:0.264583"
       x="10"
       y="25"
       id="text_lowercase"><tspan>abcdefghijklmnopqrstuvwxyz</tspan></text>
    <text
       xml:space="preserve"
       style="font-size:22.5778px;line-height:1.25;font-family:Sl치ine;-inkscape-font-specification:'Sl치ine, Normal';font-variant-ligatures:none;stroke-width:0.264583"
       x="10"
       y="60"
       id="text_uppercase"><tspan>ABCDEFGHIJKLMNOPQRSTUVWXYZ</tspan></text>
	   
	</g>
	<g style="opacity:1.0;fill:#ff0000">
<path id="text_lowercase_0" style="fill:#0000ff;fill-opacity:1.0;" d="M 10.0,25.01102431640625 Q 11.66467177734375,22.71796650390625 15.94210654296875,13.8874890625 L 17.386291992187502,13.8874890625 Q 21.553483593750002,22.662844921875 23.9347359375,25.0 L 20.31876015625,25.0 Q 20.451051953125003,24.29444375 19.7013984375,23.103817578125 Q 18.290285937500002,24.91180546875 16.2397630859375,24.91180546875 Q 14.189240234375,24.91180546875 12.954516796875,23.4124984375 Q 12.513544140625001,24.162151953124997 12.17179033203125,25.0 L 10.0,25.01102431640625 M 13.7041703125,21.869094140625002 Q 14.718407421875,24.3164923828125 16.217714453124998,24.23932216796875 Q 17.717021484375,24.162151953124997 18.9958421875,21.780899609375 Q 
17.49653515625,17.9444375 16.305908984375,16.886103124999998 Q 15.423963671875,17.459367578125 13.7041703125,21.869094140625002" />
<path id="text_lowercase_1" style="fill:#0000ff;fill-opacity:1.0;" d="M 24.81668125,12.873251953125 Q 26.448280078125,12.255890234375 27.242030859375,10.491999609375 Q 28.60904609375,12.03540390625 28.564948828125,15.03401796875 Q 29.78864794921875,13.85441611328125 31.9383896484375,13.870952587890624 Q 34.08813134765625,13.8874890625 35.581926220703124,15.452941992187501 Q 37.07572109375,17.018394921875 36.678845703125,20.20442236328125 Q 36.2819703125,23.3904498046875 34.1873501953125,24.393662597656252 Q 32.092730078125,25.396875390625 29.683916943359375,24.889756835937497 Q 27.275103808593748,24.38263828125 26.43725576171875,22.365188378906247 Q 25.59940771484375,20.347738476562498 26.089989794921873,17.795609228515623 Q 26.580571875,15.243479980468749 26.2498423828125,14.212706396484375 Q 25.919112890625,13.1819328125 24.81668125,12.873251953125 M 28.60904609375,16.224644140625 Q 28.123976171875,20.237495312500002 28.8515810546875,22.26596953125 Q 29.5791859375,24.29444375 31.2328333984375,24.38263828125 Q 32.886480859375,24.4708328125 33.636134375,22.486455859375 Q 34.385787890625,20.50207890625 33.9889125,18.0105833984375 Q 33.592037109375,15.519087890624998 31.976974755859374,14.896214013671875 Q 30.361912402343748,14.273340136718751 28.60904609375,16.224644140625" />
<path id="text_lowercase_2" style="fill:#0000ff;fill-opacity:1.0;" d="M 48.71739921875,21.780899609375 L 49.80880654296875,22.97152578125 Q 48.320523828125005,25.01102431640625 45.66917573242188,25.071658056640622 Q 43.01782763671875,25.132291796875002 41.16574248046875,23.655033398437503 Q 39.31365732421875,22.177775 39.29712084960938,19.890229345703126 Q 39.280584375000004,17.60268369140625 40.7578427734375,15.756110693359375 Q 42.235101171875,13.9095376953125 45.206154443359374,13.876464746093749 Q 48.17720771484375,13.843391796875 50.0182685546875,16.80893291015625 L 47.703162109375,17.7680484375 Q 46.909411328125,14.372558984375 45.035277539062506,14.416656249999999 Q 43.16114375,14.460753515625 42.2571498046875,16.8640544921875 Q 41.353155859375,19.267355468749997 42.4335388671875,21.8470455078125 Q 43.513921875,24.426735546875 45.586493359375,24.536978710937497 Q 47.65906484375,24.647221875 48.71739921875,21.780899609375" />
<path id="text_lowercase_3" style="fill:#0000ff;fill-opacity:1.0;" d="M 51.407332421875,13.97568359375 Q 52.333375,12.652765625 52.818444921875,10.668388671875 Q 54.361849218749995,13.00554375 56.6328583984375,13.248078710937499 Q 58.903867578124995,13.490613671875 61.5717521484375,14.372558984375 Q 64.23963671875,15.254504296875 64.724706640625,18.181460302734376 Q 65.2097765625,21.10841630859375 63.57266557617187,23.120354052734378 Q 61.93555458984375,25.132291796875002 58.744014990234376,25.110243164062503 Q 55.552475390625,25.08819453125 53.86575498046875,23.5227416015625 Q 52.179034570312496,21.957288671875 52.388496582031244,19.5319390625 Q 52.59795859375,17.106589453125 54.053168359375,15.6513796875 Q 55.508378125,14.196169921875 58.24240859375,14.107975390625 Q 54.6264328125,13.578808203125 51.407332421875,13.97568359375 M 59.3889375,14.460753515625 Q 55.640669921874995,15.342698828125 55.023308203125,18.341312890624998 Q 54.405946484375,21.339926953125 55.86115625,22.883331249999998 Q 57.316366015625,24.426735546875 58.727478515624995,24.38263828125 Q 60.138591015624996,24.338541015624997 61.152828125,22.4644072265625 Q 62.167065234375,20.590273437500002 61.902481640625,17.8341943359375 Q 61.637898046874994,15.078115234375 59.3889375,14.460753515625" />      
<path id="text_lowercase_4" style="fill:#0000ff;fill-opacity:1.0;" d="M 69.97228125000001,19.443744531249997 Q 70.23686484375,22.398261328125 71.780269140625,23.5888875 Q 73.32367343749999,24.779513671875 74.8009318359375,24.4708328125 Q 76.278190234375,24.162151953124997 77.071941015625,22.221872265625002 L 78.0641294921875,22.9053798828125 Q 77.4026705078125,24.01883583984375 76.31126318359375,24.597612451171877 Q 75.219855859375,25.1763890625 73.32918559570312,25.115755322265628 Q 71.43851533203124,25.055121582031248 69.5092599609375,23.8314224609375 Q 67.58000458984375,22.60772333984375 67.27683588867188,19.956375244140624 Q 66.9736671875,17.3050271484375 68.47848637695313,15.634843212890624 Q 69.98330556640624,13.964659277343749 72.73387250976563,13.815831005859375 Q 75.48443945312499,13.667002734375 76.8735033203125,14.675727685546875 Q 78.2625671875,15.68445263671875 78.1082267578125,16.880590966796873 Q 77.953886328125,18.076729296875 76.278190234375,18.64999375 Q 78.58227236328125,18.418483105468752 79.05631796875,18.076729296875 L 78.70353984375,19.1791609375 L 69.97228125000001,19.443744531249997 M 69.928183984375,18.73818828125 Q 73.5000625,18.782285546875002 74.5804455078125,18.1428751953125 Q 75.660828515625,17.50346484375 75.50648808593749,16.26874140625 Q 75.35214765625,15.03401796875 74.11742421875,14.5709966796875 Q 72.88270078125001,14.107975390625 71.44953964843751,14.879677539062499 Q 70.01637851562501,15.6513796875 69.928183984375,18.73818828125" />
<path id="text_lowercase_5" style="fill:#0000ff;fill-opacity:1.0;" d="M 81.0847921875,28.26319765625 Q 81.55883779296875,21.163537890625 81.45410678710937,18.870480078125 Q 81.34937578124999,16.577422265625 81.13991376953125,16.10337666015625 Q 80.93045175781249,15.6293310546875 80.29104140624999,15.55216083984375 Q 82.6502451171875,14.73636142578125 83.774725390625,13.755197265625 Q 83.59833632812499,14.637142578125001 83.730628125,16.224644140625 Q 86.37646406249999,12.785057421874999 88.97820273437499,13.7111 Q 91.57994140624999,14.637142578125001 91.46969824218749,17.3932216796875 L 89.24278632812499,18.1208265625 Q 89.46327265625,15.342698828125 87.78757656249999,14.5709966796875 Q 86.11188046874999,13.79929453125 83.774725390625,17.67985390625 Q 83.421947265625,19.576036328125 83.730628125,24.162151953124997 Q 88.1403546875,24.1180546875 90.477509765625,23.4124984375 L 89.507369921875,24.691319140624998 L 83.774725390625,24.91180546875 Q 83.730628125,25.837848046875 84.25979531249999,27.248960546874997 L 81.0847921875,28.26319765625" />
<path id="text_lowercase_6" style="fill:#0000ff;fill-opacity:1.0;" d="M 93.564318359375,14.5930453125 Q 94.40216640624999,13.44651640625 94.4903609375,12.079501171875 Q 95.90147343749999,13.843391796875 98.2606771484375,13.89851337890625 Q 100.61988085937499,13.9536349609375 104.20278369140624,13.7772458984375 Q 103.78385966796874,14.372558984375 103.706689453125,14.85762890625 Q 102.2514796875,14.548948046875001 100.3773458984375,14.5709966796875 Q 98.503212109375,14.5930453125 97.885850390625,15.452941992187501 Q 97.26848867187499,16.312838671875 98.10633671874999,17.7459998046875 Q 98.944184765625,19.1791609375 101.0829021484375,20.987148828125 Q 103.22161953125,22.79513671875 103.6625921875,24.6251732421875 Q 104.10356484375,26.455209765625 103.22161953125,28.219100390625 Q 102.33967421874999,29.982991015624997 100.38285805664061,30.313720507812498 Q 98.42604189453124,30.64445 97.09761176757812,29.299483398437502 Q 95.76918164062499,27.954516796874998 96.298348828125,24.779513671875 Q 98.02916650390624,25.055121582031248 98.855990234375,24.514930078124998 Q 98.37092031249999,28.175003124999996 99.6276923828125,28.902608007812496 Q 100.88446445312499,29.630212890624996 101.766409765625,28.4616353515625 Q 102.648355078125,27.293057812500003 102.00894472656249,26.058334375 Q 101.369534375,24.8236109375 100.090713671875,23.8314224609375 Q 98.81189296874999,22.839233984375 97.092099609375,20.876905664062498 Q 95.37230625,18.91457734375 95.28411171875,17.1286380859375 Q 95.19591718749999,15.342698828125 97.136196875,14.50485078125 Q 94.94235791015625,14.4387048828125 93.564318359375,14.5930453125" />
<path id="text_lowercase_7" style="fill:#0000ff;fill-opacity:1.0;" d="M 108.6014859375,16.665616796875 Q 108.51329140625,20.017008984375 108.557388671875,21.428121484374998 Q 108.6014859375,22.839233984375 108.94323974609375,25.0 L 106.14306337890625,25.0 Q 106.352525390625,21.262756738281247 106.3304767578125,18.170435986328123 Q 106.30842812499999,15.078115234375 
105.9776986328125,14.0859267578125 Q 105.646969140625,13.09373828125 104.85321835937499,12.608668359374999 Q 106.66120624999999,11.4180421875 106.969887109375,10.403805078125 Q 108.86606953124999,10.7124859375 108.6014859375,15.695476953124999 Q 110.45357109375,13.7111 112.6363857421875,13.843391796875 Q 114.819200390625,13.97568359375 115.6790970703125,15.7616228515625 Q 116.53899375,17.547562109375 115.92163203125,19.708328125 Q 115.3042703125,21.869094140625002 113.09940703125,24.162151953124997 Q 114.422325,24.29444375 115.965729296875,23.721179296875 L 115.44758642578125,25.0 L 111.291419140625,25.0 Q 114.290033203125,21.2958296875 114.069546875,18.7602369140625 Q 113.849060546875,16.224644140625 112.2395103515625,15.342698828125 Q 110.62996015625,14.460753515625 108.6014859375,16.665616796875" />
<path id="text_lowercase_8" style="fill:#0000ff;fill-opacity:1.0;" d="M 120.41955312500001,13.667002734375 Q 121.47788750000001,14.240267187499999 121.698373828125,15.21040703125 Q 121.91886015625,16.180546875 121.786568359375,19.862668554687502 Q 121.6542765625,23.544790234375 121.962957421875,25.0 L 118.68873544921875,25.0 Q 119.5376078125,22.530553124999997 119.5155591796875,19.9508630859375 Q 119.493510546875,17.371173046875 119.17380537109375,16.505764208984374 Q 118.8541001953125,15.64035537109375 117.641425390625,15.39782041015625 Q 119.8242400390625,14.6591912109375 120.41955312500001,13.667002734375" />
<path id="text_lowercase_9" style="fill:#0000ff;fill-opacity:1.0;" d="M 126.372683984375,13.7111 Q 127.21053203125,14.019780859375 127.3648724609375,15.144261132812499 Q 127.519212890625,16.26874140625 127.5412615234375,19.5980849609375 Q 127.56331015625,22.927428515625 127.3207751953125,24.713367773437497 Q 127.078240234375,26.499307031249998 125.93722348632812,27.645835937500003 Q 124.79620673828126,28.79236484375 123.42919150390625,30.379866406250002 L 123.0653890625,29.762504687499998 Q 124.91747421875,26.2347234375 125.13796054687501,24.4487841796875 Q 125.358446875,22.662844921875 125.3363982421875,20.347738476562498 Q 125.314349609375,18.03263203125 125.0277173828125,16.842005859375 Q 124.74108515625,15.6513796875 123.68275078125001,15.56318515625 Q 125.47971435546876,14.85762890625 126.372683984375,13.7111" />
<path id="text_lowercase_10" style="fill:#0000ff;fill-opacity:1.0;" d="M 132.987273828125,20.457981640625 Q 132.7667875,23.5888875 133.20776015625,25.0 L 130.4075837890625,25.0 Q 130.7162646484375,22.49748017578125 130.7603619140625,19.74140107421875 Q 130.8044591796875,16.98532197265625 130.5894850097656,16.307326513671875 Q 130.37451083984377,15.6293310546875 129.41539531249998,15.02299365234375 Q 131.21235888671873,14.692264160156249 132.14942578125,13.5347109375 Q 132.899079296875,13.931586328125 133.00932246093748,14.637142578125001 Q 133.119565625,15.342698828125 133.03137109375,19.1791609375 Q 136.20637421875,16.753811328125 136.956027734375,15.6513796875 Q 137.70568125,14.548948046875001 138.05845937499998,13.490613671875 Q 138.49943203125,14.107975390625 139.337280078125,14.5930453125 Q 136.77963867187498,17.50346484375 134.751164453125,19.135063671875002 Q 136.05203378906248,21.72577802734375 136.96153989257812,23.059720312499998 Q 137.87104599609376,24.39366259765625 139.37035302734375,25.0 L 135.633109765625,25.0 Q 134.43145927734375,22.60772333984375 132.987273828125,20.457981640625" />
<path id="text_lowercase_11" style="fill:#0000ff;fill-opacity:1.0;" d="M 143.5265203125,10.27151328125 Q 144.67304921875,10.3597078125 144.717146484375,11.50623671875 Q 144.76124375,12.652765625 144.276173828125,14.7914830078125 Q 143.79110390625002,16.930200390625 143.482423046875,19.399647265625 Q 143.1737421875,21.869094140625002 144.6510005859375,23.059720312499998 Q 146.128258984375,24.250346484375 146.8779125,23.4124984375 L 147.36298242187502,23.853471093750002 Q 146.17235625,25.352778125 144.51870878906252,25.066145898437497 Q 142.865061328125,24.779513671875 141.894921484375,23.258158007812497 Q 140.924781640625,21.73680234375 141.453948828125,19.443744531249997 Q 141.983116015625,17.15068671875 142.35794277343751,14.725337109375 Q 142.73276953125,12.2999875 140.660198046875,12.432279296875 Q 142.90915859375,11.197555859374999 143.5265203125,10.27151328125" />
<path id="text_lowercase_12" style="fill:#0000ff;fill-opacity:1.0;" d="M 159.31334140625,16.224644140625 Q 159.225146875,18.694091015625 159.181049609375,20.67846796875 Q 159.13695234375,22.662844921875 159.269244140625,25.0 L 156.447019140625,25.0 Q 156.82184589843752,23.26918232421875 156.96516201171875,19.835107763671875 Q 157.108478125,16.401033203125 156.00604648437502,15.695476953124999 Q 154.90361484375,14.989920703125 152.5223625,16.79790859375 Q 152.3459734375,19.752425390625 152.3239248046875,21.626559179687497 Q 152.301876171875,23.500692968750002 152.78694609375,25.0 L 149.55682138671875,25.0 Q 149.82140498046874,22.38723701171875 149.98125756835938,19.857156396484374 Q 150.14111015625,17.32707578125 149.95920893554688,16.58844658203125 Q 149.77730771484374,15.8498173828125 148.72999765625,15.783671484374999 Q 150.6041314453125,15.21040703125 151.508125390625,13.931586328125 Q 152.742848828125,14.372558984375 152.566459765625,16.048255078125 Q 154.37444765625,14.0418294921875 156.49111640625,13.83236748046875 Q 158.60778515625,13.62290546875 159.092855078125,15.519087890624998 Q 161.11030498046875,13.843391796875 163.07814545898438,13.79929453125 Q 165.0459859375,13.755197265625 166.1043203125,15.2986015625 Q 167.1626546875,16.842005859375 165.92793125,19.796522656249998 Q 164.6932078125,22.751039453125 163.37028984375002,24.250346484375 Q 164.51681875,24.37161396484375 166.1043203125,23.721179296875 L 165.6853962890625,25.0 L 161.60639921875,25.0 Q 163.73409228515627,22.18879931640625 164.13647983398437,19.5539876953125 Q 164.5388673828125,16.91917607421875 163.14429135742188,15.73957421875 Q 161.74971533203126,14.55997236328125 159.31334140625,16.224644140625" />
<path id="text_lowercase_13" style="fill:#0000ff;fill-opacity:1.0;" d="M 172.2779375,16.489227734375 Q 172.145645703125,19.972911718749998 172.18974296875,21.7588509765625 Q 172.233840234375,23.544790234375 172.674812890625,25.0 L 169.147031640625,25.0 Q 169.588004296875,22.43133427734375 169.64312587890626,19.76344970703125 Q 169.6982474609375,17.09556513671875 169.60454077148438,16.45615478515625 Q 169.51083408203124,15.816744433593751 168.794253515625,15.474990625 Q 170.50302255859376,14.901726171875 171.34087060546875,13.7772458984375 Q 172.2779375,14.460753515625 172.2779375,15.607282421874999 Q 174.085925390625,13.843391796875 176.5333236328125,13.8654404296875 Q 178.980721875,13.8874890625 179.6642294921875,16.0262064453125 Q 180.347737109375,18.164923828124998 179.377597265625,20.32568984375 Q 178.407457421875,22.486455859375 177.0404421875,24.1180546875 Q 178.02160634765625,24.404686914062502 179.63115654296874,23.787325195312498 L 179.12403798828126,25.0 L 175.056065234375,25.0 Q 177.91136318359375,22.144702050781248 177.7294619628906,19.16813662109375 Q 177.5475607421875,16.19157119140625 176.08132666015624,15.480502783203125 Q 174.615092578125,14.769434375 172.2779375,16.489227734375" />
<path id="text_lowercase_14" style="fill:#0000ff;fill-opacity:1.0;" d="M 188.32934218749998,14.372558984375 Q 185.94808984374998,14.372558984375 185.37482539062498,15.8939146484375 Q 184.8015609375,17.4152703125 185.0881931640625,19.5980849609375 Q 185.37482539062498,21.780899609375 186.521354296875,23.103817578125 Q 187.667883203125,24.426735546875 189.3215306640625,24.338541015624997 Q 190.97517812499999,24.250346484375 191.680734375,22.839233984375 Q 192.386290625,21.428121484374998 192.0996583984375,19.267355468749997 Q 191.81302617187498,17.106589453125 190.6885458984375,15.7175255859375 Q 189.56406562499998,14.328461718749999 188.32934218749998,14.372558984375 M 188.11988017578125,13.8213431640625 Q 190.6224,13.490613671875 192.3642419921875,14.5268994140625 Q 194.10608398437498,15.56318515625 194.5691052734375,18.7602369140625 Q 195.0321265625,21.957288671875 193.15799277343748,23.544790234375 Q 191.283858984375,25.132291796875002 188.30729355468748,25.132291796875002 Q 185.33072812499998,25.132291796875002 183.98576152343747,23.5668388671875 Q 182.640794921875,22.0013859375 182.59669765625,19.1571123046875 Q 182.55260039062497,16.312838671875 184.2503451171875,15.0119693359375 Q 185.94808984374998,13.7111 188.11988017578125,13.8213431640625" />
<path id="text_lowercase_15" style="fill:#0000ff;fill-opacity:1.0;" d="M 200.05921484375,16.048255078125 Q 199.88282578125,20.105203515625 199.9048744140625,22.398261328125002 Q 199.926923046875,24.691319140624998 199.838728515625,28.219100390625 Q 198.07483789062502,29.101045703125003 197.02752783203127,30.291671875 Q 197.5677193359375,25.14331611328125 197.66693818359377,21.213147314453124 Q 197.76615703125,17.282978515625 197.59528012695313,16.6435681640625 Q 197.42440322265625,16.0041578125 196.75191992187501,15.86084169921875 Q 198.4937619140625,14.89070185546875 199.37570722656253,13.85441611328125 Q 199.838728515625,14.416656249999999 199.9710203125,15.166309765625 Q 201.3821328125,13.755197265625 203.93977421875002,13.7111 Q 206.497415625,13.667002734375 207.37936093750002,17.437318945312498 Q 208.26130625000002,21.20763515625 206.5194642578125,23.2140607421875 Q 204.777622265625,25.220486328125 203.01373164062502,25.132291796875002 Q 201.249841015625,25.044097265625 200.32379843750002,24.29444375 Q 200.76477109375,23.632984765625 200.94116015625002,22.486455859375 Q 202.043591796875,24.55902734375 203.4767529296875,24.1842005859375 Q 204.9099140625,23.809373828125 205.37293535156252,22.26596953125 Q 205.835956640625,20.722565234375 205.042205859375,18.0105833984375 Q 204.248455078125,15.2986015625 202.7270994140625,14.8796775390625 Q 201.20574375,14.460753515625 200.05921484375,16.048255078125" />
<path id="text_lowercase_16" style="fill:#0000ff;fill-opacity:1.0;" d="M 217.74221835937502,17.900340234375 Q 215.58145234375002,14.5930453125 214.12624257812502,14.7032884765625 Q 212.67103281250002,14.813531640625 211.96547656250002,16.9963462890625 Q 211.25992031250001,19.1791609375 212.60488691406252,21.494267382812502 Q 213.94985351562502,23.809373828125 215.58145234375002,23.897568359375 Q 217.213051171875,23.985762890624997 217.60992656250002,22.2439208984375 Q 218.006801953125,20.50207890625 217.74221835937502,17.900340234375 M 217.65402382812502,24.38263828125 Q 215.713744140625,25.308680859375002 213.552978125,24.9779513671875 Q 211.392212109375,24.647221875 210.48821816406252,22.574650390625003 Q 209.58422421875002,20.50207890625 210.46616953125002,17.591659375 Q 211.34811484375,14.68123984375 213.5750267578125,14.0859267578125 Q 215.801938671875,13.490613671875 217.69812109375002,15.38679609375 
Q 217.74221835937502,14.85762890625 217.52173203125002,14.548948046875001 Q 218.99899042968752,14.2623158203125 220.56444335937502,13.402419140625 Q 220.2557625,16.974297656250002 220.1014220703125,21.494267382812502 Q 219.94708164062502,26.014237109375 220.34395703125,28.660073046875 Q 218.888747265625,28.880559374999997 217.389440234375,30.291671875 Q 217.69812109375002,26.67569609375 217.65402382812502,24.38263828125" />
<path id="text_lowercase_17" style="fill:#0000ff;fill-opacity:1.0;" d="M 225.76792070312501,16.79790859375 Q 225.591531640625,20.105203515625 225.76792070312501,21.824996875 Q 225.944309765625,23.544790234375 226.34118515625,25.0 L 222.857501171875,25.0 Q 223.210279296875,23.7652765625 223.34257109375,20.524127539062498 Q 223.474862890625,17.282978515625 223.30398598632812,16.6435681640625 Q 223.13310908203124,16.0041578125 222.46062578125,15.86084169921875 Q 224.2024677734375,14.89070185546875 225.0844130859375,13.85441611328125 Q 225.81201796875,14.196169921875 225.76792070312501,15.783671484374999 Q 227.620005859375,13.7111 230.2437931640625,13.7772458984375 Q 232.86758046875,13.843391796875 232.999872265625,16.886103124999998 L 230.57452265625,18.03263203125 Q 230.6627171875,15.2986015625 229.383896484375,14.7473857421875 Q 228.10507578125,14.196169921875 225.76792070312501,16.79790859375" />
<path id="text_lowercase_18" style="fill:#0000ff;fill-opacity:1.0;" d="M 242.260298046875,17.0845408203125 Q 242.348492578125,15.03401796875 241.02006245117187,14.576508837890625 Q 239.69163232421874,14.11899970703125 238.63881010742188,14.841092431640625 Q 237.585987890625,15.56318515625 237.7844255859375,16.8640544921875 Q 237.98286328125,18.164923828124998 239.8128998046875,18.57282353515625 Q 241.642936328125,18.9807232421875 243.406826953125,19.82959560546875 Q 245.170717578125,20.67846796875 245.258912109375,22.354164062499997 Q 245.347106640625,24.02986015625 243.41785126953124,24.713367773437497 Q 241.4885958984375,25.396875390625 238.83173564453125,24.9779513671875 Q 236.174875390625,24.55902734375 235.16063828125,21.2958296875 Q 236.82531005859374,21.32890263671875 237.98286328125,20.7666625 Q 238.15925234374998,22.97152578125 239.4821703125,23.8314224609375 Q 240.80508828125,24.691319140624998 241.819325390625,24.338541015624997 Q 242.8335625,23.985762890624997 242.8335625,22.905379882812497 Q 242.8335625,21.824996875 241.4004013671875,20.810759765625 Q 239.967240234375,19.796522656249998 237.80647421875,19.35555 Q 235.645708203125,18.91457734375 235.3149787109375,17.371173046875 Q 234.98424921875,15.82776875 236.1528267578125,14.763922216796875 Q 237.321404296875,13.700075683593749 240.9594287109375,13.881976904296874 Q 244.597453125,14.063878125 245.15969326171876,16.9081517578125 Q 243.5170701171875,16.87507880859375 242.260298046875,17.0845408203125" />
<path id="text_lowercase_19" style="fill:#0000ff;fill-opacity:1.0;" d="M 247.33148359375,15.474990625 L 248.27957480468748,13.65597841796875 Q 249.9993681640625,14.14104833984375 252.56803388671875,14.113487548828125 Q 255.136699609375,14.0859267578125 259.6676936523437,13.9977322265625 L 259.2156966796875,14.9458234375 Q 255.83123154296874,14.4387048828125 254.22719350585936,14.951335595703124 Q 252.62315546874999,15.46396630859375 251.81838037109375,16.58844658203125 Q 251.0136052734375,17.71292685546875 250.8813134765625,19.432720214843748 Q 250.7490216796875,21.15251357421875 251.92862353515625,22.7289908203125 Q 253.108225390625,24.30546806640625 255.16977255859373,24.327516699218748 Q 257.2313197265625,24.34956533203125 
258.79677265625,21.7588509765625 L 259.414134375,22.155726367187498 Q 258.58731064453127,23.9196169921875 257.20927109375,24.570051660156253 Q 255.83123154296874,25.220486328125 254.12797465820313,25.14331611328125 Q 252.4247177734375,25.066145898437497 251.02462958984376,24.333028857421873 Q 249.62454140625,23.599911816406248 248.86937573242187,22.304554638671874 Q 248.11421005859376,21.0091974609375 248.25752617187499,19.333501367187502 Q 248.40084228515624,17.6578052734375 249.53083471679687,16.428593994140627 Q 250.6608271484375,15.19938271484375 252.64520410156248,14.7473857421875 Q 249.00717968749998,14.85762890625 247.33148359375,15.474990625" />
<path id="text_lowercase_20" style="fill:#0000ff;fill-opacity:1.0;" d="M 261.663094921875,15.6513796875 Q 263.29469374999996,14.460753515625 263.73566640624995,13.667002734375 Q 265.367265234375,13.79929453125 265.49955703125,15.1222125 Q 265.631848828125,16.44513046875 264.26483359375,18.56179921875 Q 262.897818359375,20.67846796875 264.308930859375,22.5526017578125 Q 265.720043359375,24.426735546875 267.2854962890625,24.046396630859377 Q 268.85094921875,23.66605771484375 269.20372734374996,22.44235859375 Q 269.6447,17.723951171875 269.2698732421875,16.665616796875 Q 268.895046484375,15.607282421874999 267.924906640625,15.21040703125 Q 270.6038155273437,14.50485078125 271.0558125,13.700075683593749 Q 272.0590252929687,14.29538876953125 272.04248881835935,15.44191767578125 Q 272.02595234374996,16.58844658203125 271.86058759765626,20.143788623046873 Q 271.6952228515625,23.6991306640625 271.93775781249997,25.0 L 268.806851953125,25.0 Q 269.20372734374996,24.29444375 269.15963007812496,23.677082031250002 Q 268.32178203125,24.779513671875 265.52160566406246,25.110243164062503 Q 262.721429296875,25.44097265625 261.83948398437497,23.655033398437503 Q 260.957538671875,21.869094140625002 262.456845703125,19.9508630859375 Q 263.956152734375,18.03263203125 264.0222986328125,16.79790859375 Q 264.08844453125,15.56318515625 261.663094921875,15.6513796875" />
<path id="text_lowercase_21" style="fill:#0000ff;fill-opacity:1.0;" d="M 274.14262109375,15.03401796875 Q 276.08290078125,14.604069628906249 277.67040234374997,13.7111 Q 279.12561210937497,19.5319390625 280.272141015625,22.44235859375 Q 282.30061523437496,19.223258203125 282.96207421875,17.23888125 Q 283.62353320312496,15.254504296875 283.2266578125,13.5347109375 Q 
284.240894921875,14.107975390625 285.1118159179687,14.16309697265625 Q 282.697490625,20.237495312500002 281.9257884765625,21.8911427734375 Q 281.154086328125,23.544790234375 280.75721093749996,25.0 L 278.7507853515625,25.0 Q 278.07830205078125,22.56362607421875 277.13572299804684,20.369787109375 Q 276.1931439453125,18.17594814453125 275.59231870117185,16.7317626953125 Q 274.99149345703125,15.28757724609375 274.14262109375,15.03401796875" />
<path id="text_lowercase_22" style="fill:#0000ff;fill-opacity:1.0;" d="M 287.327703515625,15.6513796875 Q 288.95930234375,14.460753515625 289.400275,13.667002734375 Q 291.031873828125,13.79929453125 291.164165625,15.1222125 Q 291.296457421875,16.44513046875 289.9294421875,18.56179921875 Q 288.562426953125,20.67846796875 289.973539453125,22.5526017578125 Q 291.384651953125,24.426735546875 292.883958984375,23.897568359375 Q 294.383266015625,23.368401171875 294.78014140625,20.987148828125 Q 295.177016796875,18.605896484375002 294.8683359375,17.106589453125 Q 294.559655078125,15.607282421874999 293.589515234375,15.21040703125 Q 295.9266703125,14.5930453125 296.36764296875,13.667002734375 Q 297.205491015625,14.240267187499999 297.293685546875,15.38679609375 Q 297.381880078125,16.533324999999998 297.0952478515625,19.135063671875002 Q 296.808615625,21.73680234375 297.5362205078125,23.0376716796875 Q 298.263825390625,24.338541015624997 299.5205974609375,23.963714257812498 Q 300.77736953125,23.5888875 301.350633984375,22.44235859375 Q 301.791606640625,17.723951171875 301.4167798828125,16.665616796875 Q 301.041953125,15.607282421874999 300.07181328125,15.21040703125 Q 302.7507221679688,14.50485078125 303.202719140625,13.700075683593749 Q 304.2059319335938,14.29538876953125 304.1893954589844,15.44191767578125 Q 304.172858984375,16.58844658203125 304.00749423828125,20.143788623046873 Q 303.8421294921875,23.6991306640625 304.084664453125,25.0 L 300.95375859375,25.0 Q 301.350633984375,24.29444375 301.30653671875,23.677082031250002 Q 300.292299609375,25.0 297.9330958984375,25.220486328125 Q 295.5738921875,25.44097265625 294.824238671875,23.677082031250002 Q 293.986390625,25.0 291.1862142578125,25.220486328125 Q 288.386037890625,25.44097265625 287.504092578125,23.655033398437503 Q 286.622147265625,21.869094140625002 288.121454296875,19.9508630859375 Q 289.620761328125,18.03263203125 289.6869072265625,16.79790859375 Q 289.753053125,15.56318515625 287.327703515625,15.6513796875" />
<path id="text_lowercase_23" style="fill:#0000ff;fill-opacity:1.0;" d="M 305.848555078125,15.03401796875 Q 307.612445703125,14.82455595703125 308.7369259765625,13.79929453125 Q 309.993698046875,15.82776875 312.41904765625,18.64999375 Q 315.3294671875,16.09235234375 316.3878015625,13.62290546875 Q 317.04926054687496,14.063878125 318.107594921875,14.416656249999999 Q 
315.6271237304687,16.842005859375 312.94821484375,19.443744531249997 Q 315.197175390625,22.530553124999997 317.88710859375,25.0 L 314.315230078125,25.0 Q 313.1576768554687,23.0376716796875 311.31661601562496,20.987148828125 Q 308.19673447265626,23.621960449218747 308.3951721679687,24.96692705078125 Q 308.59360986328124,26.31189365234375 310.1149655273437,27.293057812500003 Q 308.81409619140624,28.186027441406253 308.1195642578125,29.32153203125 Q 306.00289550781247,27.094620117187503 306.65884233398435,25.308680859375002 Q 307.31478916015624,23.5227416015625 310.7433515625,20.281592578125 Q 308.83614482421876,17.64678095703125 307.84946850585936,16.604983056640624 Q 306.86279218749996,15.56318515625 305.848555078125,15.03401796875" />
<path id="text_lowercase_24" style="fill:#0000ff;fill-opacity:1.0;" d="M 320.09197187499996,15.6513796875 Q 321.72357070312495,14.460753515625 322.164543359375,13.667002734375 Q 323.7961421875,13.79929453125 323.928433984375,15.1222125 Q 324.06072578124997,16.44513046875 322.8039537109375,18.8043341796875 Q 321.54718164062496,21.163537890625 322.8480509765625,22.79513671875 Q 324.14892031249997,24.426735546875 325.56003281249997,24.140103320312498 Q 326.97114531249997,23.853471093750002 327.897187890625,22.310066796875 Q 328.073576953125,17.723951171875 327.69875019531247,16.665616796875 Q 327.32392343749996,15.607282421874999 326.35378359375,15.21040703125 Q 329.0326924804687,14.50485078125 329.484689453125,13.700075683593749 Q 330.4879022460937,14.29538876953125 330.47136577148433,15.44191767578125 Q 330.45482929687495,16.58844658203125 330.27844023437495,20.441445166015626 Q 330.10205117187496,24.29444375 330.32253749999995,28.79236484375 Q 328.73503593749996,29.233337499999998 327.54440976562495,30.335769140624997 Q 327.985382421875,26.719793359374997 327.897187890625,23.677082031250002 Q 326.88295078125,24.91180546875 324.016628515625,25.1763890625 Q 321.15030624999997,25.44097265625 320.26836093749995,23.655033398437503 Q 319.386415625,21.869094140625002 320.88572265625,19.9508630859375 Q 322.3850296875,18.03263203125 322.45117558593745,16.79790859375 Q 322.517321484375,15.56318515625 320.09197187499996,15.6513796875" />
<path id="text_lowercase_25" style="fill:#0000ff;fill-opacity:1.0;" d="M 332.79198437499997,15.21040703125 Q 333.541637890625,13.490613671875 333.6739296875,12.1235984375 Q 335.0850421875,13.843391796875 337.97341308593747,13.9095376953125 Q 340.861783984375,13.97568359375 342.32801806640623,13.7772458984375 Q 341.87602109374996,14.44972919921875 341.87602109374996,15.364747460937501 Q 339.6711578125,16.709714062499998 335.4378203125,21.957288671875 Q 340.06803320312497,19.443744531249997 341.65553476562496,21.339926953125 Q 343.24303632812496,23.236109374999998 341.6775833984375,26.1244802734375 Q 340.11213046874997,29.012851171875 333.541637890625,30.1152828125 L 333.18885976562495,29.49792109375 Q 338.392337109375,28.307294921875 339.51681738281246,25.8157994140625 Q 340.64129765625,23.32430390625 339.0317474609375,22.574650390625003 Q 337.42219726562496,21.824996875 333.36524882812495,24.691319140624998 Q 333.18885976562495,23.544790234375 332.92427617187496,22.398261328125 Q 336.43000878906247,19.09096640625 340.50900585937495,14.769434375 Q 336.0000604492187,14.339486035156249 332.79198437499997,15.21040703125" />
<path id="text_uppercase_0" style="fill:#0000ff;fill-opacity:1.0;" d="M 10.044097265625,60.01102431640625 Q 12.072571484375,57.045483203125 17.276048828125,45.580194140625004 L 19.039939453125,45.580194140625004 Q 23.40556875,57.133677734375 25.742723828125,60.0 L 22.082650781250003,60.0 Q 21.906261718750002,58.941665625 21.421191796875,57.97152578125 Q 20.0541765625,59.735416406249996 17.672924218749998,59.8456595703125 Q 15.291671874999999,59.955902734375 13.571878515625,57.79513671875 Q 12.91041953125,58.721179296875 13.042711328125,60.0 L 10.044097265625,60.01102431640625 M 14.453823828125,55.7666625 Q 15.73264453125,59.1180546875 17.557168896484377,59.123566845703124 Q 19.381693261718752,59.129079003906256 20.583343749999997,56.20763515625 Q 19.128133984374998,50.474990625000004 17.9375078125,48.44651640625 Q 16.658687109375002,50.38679609375 14.453823828125,55.7666625" />
<path id="text_uppercase_1" style="fill:#0000ff;fill-opacity:1.0;" d="M 27.19793359375,45.403805078125 Q 29.402796875,44.345470703125 30.2847421875,43.110747265625 Q 31.60766015625,44.830540625 31.343076562500002,47.8291546875 Q 33.062869921875,45.62429140625 35.532316796875,45.6463400390625 Q 38.001763671875,45.668388671875 39.72155703125,47.873251953125 Q 41.441350390625,50.078115234375 40.9783291015625,53.9366259765625 Q 40.5153078125,57.79513671875 38.13405546875,59.1842005859375 Q 35.752803125,60.573264453125006 32.974675390625,59.8236109375 Q 30.196547656249997,59.073957421875 29.2043591796875,56.4942673828125 Q 28.212170703124997,53.91457734375 28.807483789062502,50.6513796875 Q 29.402796875,47.38818203125 28.939775585937497,46.4400908203125 Q 28.476754296875,45.491999609375 27.19793359375,45.403805078125 M 31.43127109375,48.931586328125 Q 30.505228515625,54.090966406250004 31.5415142578125,56.626559179687504 Q 32.5778,59.162151953125004 34.60627421875,59.514930078125005 Q 36.6347484375,59.867708203125005 37.6930828125,56.979337304687505 Q 38.751417187499996,54.090966406250004 38.178152734375,50.91596328125 Q 37.60488828125,47.74096015625 35.664608593749996,46.947209375 Q 33.72432890625,46.15345859375 31.43127109375,48.931586328125" />
<path id="text_uppercase_2" style="fill:#0000ff;fill-opacity:1.0;" d="M 55.376086328125,55.7666625 L 56.3903234375,57.354164062500004 Q 54.6264328125,60.0 51.4734783203125,60.0661458984375 Q 48.320523828125005,60.132291796875 46.115660546875,58.236109375 Q 43.910797265625,56.339926953125 43.8887486328125,53.38541015625 Q 43.8667,50.430893359375 45.630590625,48.049641015625 Q 47.39448125,45.668388671875 50.9222625,45.62429140625 Q 54.45004375,45.580194140625004 56.654907031250005,49.41665625 L 54.18546015625,50.298601562500004 Q 53.12712578125,46.109361328125004 50.65767890625,46.1755072265625 Q 48.18823203125,46.241653125 47.063751757812504,49.4387048828125 Q 45.939271484375,52.635756640625004 47.173994921875,56.0973919921875 
Q 48.408718359375,59.55902734375 51.275040625,59.55902734375 Q 54.141362890625004,59.55902734375 55.376086328125,55.7666625" />
<path id="text_uppercase_3" style="fill:#0000ff;fill-opacity:1.0;" d="M 58.506992187499996,46.197555859375 Q 59.785812890624996,44.521859765625 59.785812890624996,42.934358203125 Q 62.343454296874995,44.74234609375 64.6144634765625,44.8966865234375 Q 66.88547265625,45.051026953125 70.104573046875,46.307799023437504 Q 73.3236734375,47.564571093750004 73.6764515625,51.2466927734375 Q 74.0292296875,54.928814453125 72.309436328125,57.47543154296875 Q 70.58964296875,60.0220486328125 66.841375390625,60.05512158203125 Q 63.0931078125,60.08819453125 61.108730859375,57.85025830078125 Q 59.12435390625,55.6123220703125 59.5873751953125,52.31605146484375 Q 60.050396484375,49.019780859375004 62.0127248046875,47.74096015625 Q 63.975053125,46.462139453125 67.06186171875,46.15345859375 Q 62.696232421874996,45.315610546875 58.506992187499996,46.197555859375 M 68.252487890625,46.550333984375 Q 63.137205078125,46.991306640625 62.4536974609375,51.12542529296875 Q 61.770189843749996,55.2595439453125 63.297057666015625,57.491968017578124 Q 64.82392548828125,59.72439208984375 67.11147114257813,59.35507749023438 Q 69.399016796875,58.985762890625 70.4793998046875,56.43914580078125 Q 71.5597828125,53.8925287109375 71.11881015625,50.77264716796875 Q 70.6778375,47.652765625 68.252487890625,46.550333984375" />
<path id="text_uppercase_4" style="fill:#0000ff;fill-opacity:1.0;" d="M 79.02324501953125,52.7680484375 Q 79.50831494140624,56.76987529296875 81.34937578124999,58.47313217773437 Q 83.19043662109374,60.1763890625 85.05354609375,59.48185712890625 Q 86.91665556640625,58.787325195312505 87.83167382812499,56.59348623046875 L 88.58132734374999,57.27699384765625 Q 87.83167382812499,58.6991306640625 86.60797470703125,59.43775986328125 Q 85.3842755859375,60.1763890625 83.25658251953125,60.10473100585938 Q 81.128889453125,60.03307294921875 78.9681234375,58.47313217773438 Q 76.807357421875,56.91319140625 76.454579296875,53.52321411132813 Q 76.101801171875,50.13323681640625 77.80505805664062,48.000031591796876 Q 79.50831494140624,45.8668263671875 82.60063569335937,45.61326708984375 Q 85.69295644531249,45.3597078125 87.24738505859375,46.71018657226563 Q 88.801813671875,48.06066533203125 88.62542460937499,49.5930453125 Q 88.449035546875,51.12542529296875 86.82846103515624,51.5994708984375 Q 89.154591796875,51.555373632812504 90.15780458984375,51.03723076171875 L 89.84912373046875,52.371173046875 L 79.02324501953125,52.7680484375 M 79.02324501953125,52.15068671875 Q 82.52897763671875,51.98532197265625 84.3700384765625,51.401033203125 Q 86.21109931640625,50.816744433593755 86.24968442382811,48.948122802734375 Q 86.28826953125,47.079501171875 84.7669138671875,46.32984765625 Q 83.245558203125,45.580194140625004 81.02415844726562,47.162183544921874 Q 78.80275869140624,48.74417294921875 79.02324501953125,52.15068671875" />
<path id="text_uppercase_5" style="fill:#0000ff;fill-opacity:1.0;" d="M 92.55008125,63.219100390625 Q 92.82568916015624,54.576036328125 92.84222563476563,51.6876654296875 Q 92.858762109375,48.79929453125 92.4839353515625,48.292175976562504 Q 92.10910859375,47.785057421875 91.359455078125,47.696862890625 Q 94.093485546875,46.68262578125 95.019528125,45.7124859375 Q 95.019528125,46.59443125 95.10772265625,48.70007568359375 Q 98.81189296875,44.38956796875 101.63411796875,45.62429140625 Q 104.45634296875,46.85901484375 104.235856640625,49.9458234375 
L 102.207382421875,50.73957421875 Q 102.6042578125,47.344084765625 100.267102734375,46.4180421875 Q 97.92994765625,45.491999609375 95.1959171875,50.474990625000004 Q 94.7328958984375,52.73497548828125 95.16284423828125,57.47543154296875 Q 99.60564375,57.23289658203125 103.353911328125,56.251732421875005 L 102.207382421875,57.839233984375 L 95.16284423828125,58.32430390625 Q 95.10772265625,59.70234345703125 95.725084375,62.12769306640625 L 92.55008125,63.219100390625" />
<path id="text_uppercase_6" style="fill:#0000ff;fill-opacity:1.0;" d="M 106.264330859375,47.02437958984375 Q 106.92578984375,46.0652640625 107.234470703125,43.6178658203125 Q 108.33690234375,45.756583203125004 111.75444042968749,45.7786318359375 Q 115.171978515625,45.80068046875 119.71399687499999,45.580194140625004 Q 119.1848296875,46.285750390625 119.14073242187499,46.71569873046875 Q 117.376841796875,46.40701787109375 114.66485996093749,46.42906650390625 Q 111.952878125,46.45111513671875 110.98273828125,47.696862890625 Q 110.01259843749999,48.94261064453125 111.2252732421875,50.65689184570313 Q 112.437948046875,52.371173046875 114.99558945312499,54.1791609375 Q 117.55323085937499,55.987148828125 118.69975976562499,57.839233984375 Q 119.84628867187499,59.691319140625 118.41312753906249,62.248960546875 Q 116.97996640624999,64.806601953125 114.68690859374999,65.2255259765625 Q 112.39385078125,65.64445 111.11503007812499,64.02938764648437 Q 109.836209375,62.414325292968755 109.96850117187499,58.85347109375 Q 111.908780859375,59.018835839843746 112.790726171875,58.15893916015625 Q 112.04107265625,62.954516796875 113.849060546875,63.7262189453125 Q 115.6570484375,64.49792109375 116.84767460937499,63.042711328125 Q 118.03830078125,61.5875015625 117.376841796875,59.9779513671875 Q 116.7153828125,58.368401171875 115.01763808593749,57.23840874023438 Q 113.31989335937499,56.10841630859375 111.203224609375,54.526426904296876 Q 109.086555859375,52.9444375 108.95426406249999,50.45845415039062 Q 108.82197226562499,47.97247080078125 111.02683554687499,46.45111513671875 Q 107.98412421875,46.373944921875 106.264330859375,47.02437958984375" /> 
<path id="text_uppercase_7" style="fill:#0000ff;fill-opacity:1.0;" d="M 125.1820578125,49.196169921875 Q 124.961571484375,53.64999375 125.09386328125001,55.4359330078125 Q 125.226155078125,57.221872265625 125.84351679687501,60.0 L 122.315735546875,60.0 Q 122.58031914062501,55.193398046875004 122.5582705078125,51.4671791015625 Q 122.536221875,47.74096015625 122.2936869140625,46.6605771484375 Q 122.051151953125,45.580194140625004 120.728233984375,45.580194140625004 Q 123.109486328125,44.257276171875 123.32997265625,43.110747265625 Q 125.1820578125,43.419428125 125.13796054687501,48.00554375 Q 126.637267578125,45.62429140625 129.19490898437502,45.62429140625 Q 131.752550390625,45.62429140625 133.4061978515625,48.0275923828125 Q 135.05984531250002,50.430893359375 134.045608203125,54.0248205078125 Q 133.03137109375,57.61874765625 130.8265078125,59.4708328125 Q 132.76678750000002,59.29444375 134.7070671875,58.280206640624996 L 134.045608203125,60.0 L 128.79803359375,60.0 Q 133.163662890625,56.339926953125 132.3478634765625,52.3491244140625 Q 131.5320640625,48.358321875 129.0405685546875,47.6748142578125 Q 126.54907304687501,46.991306640625 125.1820578125,49.196169921875" />
<path id="text_uppercase_8" style="fill:#0000ff;fill-opacity:1.0;" d="M 139.337280078125,45.536096875 Q 139.954641796875,46.726723046875 140.1530794921875,47.785057421875 Q 140.3515171875,48.843391796875004 140.2412740234375,53.4736046875 Q 140.131030859375,58.103817578125 140.43971171875,60.0 L 137.308805859375,60.0 Q 137.78285146484376,55.634370703125 137.74426635742188,53.03263203125 Q 137.70568125,50.430893359375 137.5954380859375,49.15207265625 Q 137.485194921875,47.873251953125 136.162276953125,47.564571093750004 Q 138.543529296875,46.59443125 139.337280078125,45.536096875" />
<path id="text_uppercase_9" style="fill:#0000ff;fill-opacity:1.0;" d="M 145.069924609375,45.491999609375 Q 145.951869921875,46.32984765625 146.17235625,47.4543279296875 Q 146.392842578125,48.578808203125 146.3487453125,52.5696107421875 Q 146.304648046875,56.56041328125 146.1944048828125,58.941665625 Q 146.08416171874998,61.322917968750005 144.8273896484375,62.403300976562505 Q 143.570617578125,63.483683984375006 142.071310546875,65.37986640625 L 141.67443515624998,64.64123720703125 Q 143.658812109375,60.79375078125 143.81866469726563,58.50069296875 Q 143.97851728515624,56.20763515625 143.86276196289063,53.38541015625 Q 143.747006640625,50.56318515625 143.58164189453123,49.124511865234375 Q 143.4162771484375,47.68583857421875 141.894921484375,47.7630087890625 Q 144.32027109375,46.7708203125 145.069924609375,45.491999609375" />
<path id="text_uppercase_10" style="fill:#0000ff;fill-opacity:1.0;" d="M 152.213681640625,53.64999375 Q 152.08138984375,58.14791484375 152.61055703124998,60.0 L 149.5237484375,60.0 Q 149.87652656249998,56.73680234375 149.920623828125,53.1208265625 Q 149.96472109375,49.50485078125 149.72218613281248,48.62290546875 Q 149.479651171875,47.74096015625 148.37721953124998,46.947209375 Q 150.44979101562498,46.50623671875 151.24354179687498,45.44790234375 Q 152.03729257812498,45.888875 152.2357302734375,46.638528515625 Q 152.43416796875,47.38818203125 152.25777890625,52.67985390625 Q 156.22653281249998,50.430893359375 157.68174257812498,48.8213431640625 Q 159.13695234374998,47.211792968750004 159.31334140624998,45.315610546875 Q 160.239383984375,46.4180421875 161.1654265625,47.1235984375 Q 158.51959062499998,50.254504296875 154.286253125,52.591659375 Q 157.10847812499998,52.591659375 158.828271484375,55.369787109375 Q 160.54806484374998,58.14791484375 161.47410742187498,60.0 L 157.9904234375,60.0 Q 156.35882460937498,53.253118359375 152.213681640625,53.64999375" />
<path id="text_uppercase_11" style="fill:#0000ff;fill-opacity:1.0;" d="M 166.060223046875,43.15484453125 Q 166.72168203125,43.904498046875 166.96421699218752,44.9407837890625 Q 167.206751953125,45.97706953125 167.030362890625,48.490613671875 Q 166.853973828125,51.0041578125 166.765779296875,53.4515560546875 Q 166.677584765625,55.898954296875004 167.559530078125,57.6407962890625 Q 168.44147539062502,59.382638281249996 169.9628310546875,59.382638281249996 Q 171.48418671875,59.382638281249996 172.586618359375,56.869094140625 Q 172.98349375,58.721179296875 173.380369140625,59.162151953125004 Q 171.83696484375,60.573264453125006 168.75015625,60.264583593750004 Q 165.66334765625,59.955902734375 164.78140234375002,57.26596953125 Q 163.89945703125,54.576036328125 164.3183810546875,51.533325000000005 Q 164.73730507812502,48.490613671875 164.4947701171875,47.1456470703125 Q 164.25223515625,45.80068046875 163.149803515625,45.536096875 Q 165.001888671875,44.56595703125 166.060223046875,43.15484453125" />
<path id="text_uppercase_12" style="fill:#0000ff;fill-opacity:1.0;" d="M 186.697743359375,49.32846171875 Q 186.65364609375,52.0624921875 186.4552083984375,54.5539876953125 Q 186.256770703125,57.045483203125 186.12447890625,60.0 L 183.65503203125002,60.0 Q 184.0960046875,57.79513671875 184.228296484375,53.20902109375 Q 184.36058828125002,48.62290546875 182.94947578125002,47.5866197265625 Q 181.53836328125,46.550333984375 179.024819140625,49.637142578125 Q 178.62794375000001,53.297215625 178.672041015625,55.7446138671875 Q 178.71613828125,58.192012109375 179.24530546875002,60.0 L 175.71752421875001,60.0 Q 176.026205078125,56.6486078125 176.158496875,53.076729296875 Q 176.29078867187502,49.50485078125 176.1364482421875,48.8654404296875 Q 175.9821078125,48.226030078125 174.747384375,48.137835546875 Q 176.9301990234375,47.38818203125 178.0987765625,45.932972265625004 Q 179.024819140625,46.550333984375 179.024819140625,48.358321875 Q 181.2737796875,45.888875 183.58888613281252,45.580194140625004 Q 185.903992578125,45.27151328125 186.609548828125,48.1819328125 Q 189.0348984375,45.62429140625 191.0854212890625,45.580194140625004 Q 193.135944140625,45.536096875 194.39271621093752,47.4984251953125 Q 195.64948828125,49.460753515625 194.29349736328126,53.1869724609375 Q 192.93750644531252,56.91319140625 191.372053515625,59.29444375 Q 192.98160371093752,59.20624921875 194.811640234375,58.368401171875 L 194.31554599609376,60.0 L 189.91684375,60.0 Q 192.077609765625,56.38402421875 192.5406310546875,52.988534765625005 Q 193.00365234375,49.5930453125 191.3941021484375,48.0716896484375 Q 189.784551953125,46.550333984375 186.697743359375,49.32846171875" />
<path id="text_uppercase_13" style="fill:#0000ff;fill-opacity:1.0;" d="M 201.0293546875,49.725337109375005 Q 200.720673828125,53.56179921875 200.808868359375,55.898954296875004 Q 200.897062890625,58.236109375 201.24984101562498,60.0 L 197.67796249999998,60.0 Q 198.2071296875,56.692705078125 198.27327558593748,53.253118359375 Q 198.33942148437498,49.813531640625 198.22917832031249,48.9977322265625 Q 198.11893515625,48.1819328125 197.23698984375,47.74096015625 Q 199.309561328125,46.991306640625 200.3237984375,45.536096875 Q 201.16164648437498,46.726723046875 201.0293546875,48.667002734375004 Q 203.101926171875,45.44790234375 206.0343943359375,45.6463400390625 Q 208.9668625,45.844777734375 209.91495371093748,48.44651640625 Q 210.863044921875,51.048255078125 209.6503701171875,54.465793164062504 Q 208.43769531249998,57.88333125 206.85019375,59.29444375 Q 208.34950078125,59.250346484375 210.28978046875,58.456595703125004 L 209.67241875,60.0 L 205.086303125,60.0 Q 208.217208984375,56.339926953125 207.99672265625,52.50346484375 Q 207.77623632812498,48.667002734375004 205.8139080078125,47.7189115234375 Q 203.8515796875,46.7708203125 201.0293546875,49.725337109375005" />
<path id="text_uppercase_14" style="fill:#0000ff;fill-opacity:1.0;" d="M 220.16756796875,46.241653125 Q 218.13909375,46.197555859375 216.7059326171875,48.1819328125 Q 215.272771484375,50.166309765625 215.73579277343748,53.2310697265625 Q 216.1988140625,56.2958296875 217.3673916015625,57.706942187500005 Q 218.53596914062499,59.1180546875 220.34395703125,59.3164923828125 Q 222.15194492187499,59.514930078125005 223.60715468749999,57.79513671875 Q 225.06236445312499,56.075343359375 224.8639267578125,52.9444375 Q 224.6654890625,49.813531640625 223.1882306640625,47.961446484375 Q 221.710972265625,46.109361328125004 220.16756796875,46.241653125 M 219.902984375,45.580194140625004 Q 223.563057421875,45.3597078125 225.591531640625,47.432279296875 Q 227.620005859375,49.50485078125 227.37747089843748,52.988534765625005 Q 227.1349359375,56.47221875 224.974169921875,58.32430390625 Q 222.81340390625,60.1763890625 219.9691302734375,60.08819453125 Q 217.12485664062498,60.0 215.07433378906248,58.2140607421875 Q 213.0238109375,56.428121484375 213.0458595703125,52.85624296875 Q 213.067908203125,49.284364453125 215.3830146484375,47.3661333984375 Q 217.69812109375,45.44790234375 219.902984375,45.580194140625004" />
<path id="text_uppercase_15" style="fill:#0000ff;fill-opacity:1.0;" d="M 233.176261328125,49.019780859375004 Q 233.088066796875,53.38541015625 232.99987226562502,56.516316015625 Q 232.91167773437502,59.647221875 233.1321640625,62.954516796875 Q 231.28007890625,64.189240234375 229.913063671875,65.335769140625 Q 230.57452265625,59.20624921875 230.77296035156252,54.3335013671875 Q 230.971398046875,49.460753515625 230.6847658203125,48.8654404296875 Q 230.39813359375,48.27012734375 229.560285546875,48.09373828125 Q 231.676954296875,46.947209375 232.735288671875,45.7124859375 Q 233.1321640625,46.85901484375 232.99987226562502,47.652765625 Q 234.5432765625,45.668388671875 236.7701884765625,45.4699509765625 Q 238.997100390625,45.27151328125 241.15786640625,47.8291546875 Q 243.318632421875,50.38679609375 242.4587357421875,54.7303767578125 Q 241.59883906250002,59.073957421875 238.33564140625,59.9338541015625 Q 235.07244375000002,60.79375078125 233.308553125,59.02986015625 Q 234.234595703125,58.236109375 234.675568359375,57.44235859375 Q 236.439458984375,59.955902734375 238.247446875,58.9196169921875 Q 240.055434765625,57.88333125 239.7688025390625,53.076729296875 Q 239.48217031250002,48.27012734375 237.32140429687502,47.0133552734375 Q 235.16063828125002,45.756583203125004 233.176261328125,49.019780859375004" />
<path id="text_uppercase_16" style="fill:#0000ff;fill-opacity:1.0;" d="M 255.313088671875,50.166309765625 Q 253.284614453125,46.241653125 251.16794570312499,46.7046744140625 Q 249.051276953125,47.167695703125 248.1031857421875,49.8355802734375 Q 247.15509453125,52.50346484375 248.3016234375,55.898954296875004 Q 249.44815234375,59.29444375 251.4986751953125,59.3164923828125 Q 253.549198046875,59.338541015625 254.38704609375,57.3762126953125 Q 255.224894140625,55.413884375 255.313088671875,50.166309765625 M 255.0044078125,59.20624921875 Q 252.97593359375,60.485069921875 250.44034082031249,60.1543404296875 Q 247.904748046875,59.8236109375 246.229051953125,56.9352400390625 Q 244.553355859375,54.046869140625 245.9424197265625,50.607282421875 Q 247.33148359375,47.167695703125 249.9993681640625,45.9550208984375 Q 252.667252734375,44.74234609375 255.44538046875,46.726723046875 L 255.3571859375,45.97706953125 Q 256.85649296875,45.44790234375 258.26760546875,45.403805078125 Q 257.65024375,49.50485078125 257.4959033203125,54.9067658203125 Q 257.341562890625,60.308680859375 257.517951953125,63.307294921875 Q 256.371423046875,63.836462109375006 254.519337890625,65.37986640625 Q 255.048505078125,61.278820703125 255.0044078125,59.20624921875" />
<path id="text_uppercase_17" style="fill:#0000ff;fill-opacity:1.0;" d="M 263.779763671875,48.490613671875 Q 263.4710828125,53.253118359375 263.38288828125,55.7446138671875 Q 263.29469375,58.236109375 263.603374609375,60.0 L 260.56066328125,60.0 Q 261.045733203125,58.280206640624996 261.2000736328125,53.91457734375 Q 261.3544140625,49.548948046875 261.178025,48.8874890625 Q 261.0016359375,48.226030078125 260.16378789062503,48.049641015625 Q 262.32455390625,47.167695703125 263.11830468750003,45.756583203125004 Q 263.603374609375,46.50623671875 263.647471875,47.564571093750004 Q 265.80823789062504,45.3597078125 268.5643169921875,45.491999609375 Q 271.32039609375,45.62429140625 272.4889736328125,47.2779388671875 Q 273.657551171875,48.931586328125 272.775605859375,51.224644140625 Q 271.89366054687497,53.517701953125 267.26344765625,54.223258203125 Q 269.8210890625,55.06110625 271.5188337890625,56.979337304687505 Q 273.216578515625,58.897568359375 273.17248125,60.0 L 269.600602734375,60.0 Q 269.247824609375,56.957288671875 264.44122265625003,54.26735546875 L 264.44122265625003,53.64999375 Q 268.49817109375,53.56179921875 269.7990404296875,51.7097140625 Q 271.099909765625,49.85762890625 270.5927912109375,48.1819328125 Q 270.08567265625,46.50623671875 268.189490234375,46.3959935546875 Q 266.2933078125,46.285750390625 263.779763671875,48.490613671875" />
<path id="text_uppercase_18" style="fill:#0000ff;fill-opacity:1.0;" d="M 284.064505859375,49.769434375 Q 285.1669375,47.079501171875 283.13846328125,46.5282853515625 Q 281.1099890625,45.97706953125 279.76502246093753,46.947209375 Q 278.420055859375,47.917349218750005 278.7948826171875,49.3946076171875 Q 279.169709375,50.871866015625 281.2643294921875,51.533325000000005 Q 283.35894960937503,52.194783984375 285.519715625,53.03263203125 Q 287.68048164062503,53.870480078125 287.7025302734375,56.20763515625 Q 287.72457890625003,58.544790234375 285.45356972656253,59.4708328125 Q 283.182560546875,60.396875390625 280.13984921875,59.8236109375 Q 277.097137890625,59.250346484375 275.55373359375,55.50207890625 Q 277.802694140625,55.193398046875004 278.772833984375,54.090966406250004 Q 278.6405421875,57.354164062500004 280.44853007812503,58.5227416015625 Q 282.25651796875,59.691319140625 283.888116796875,59.162151953125004 Q 285.519715625,58.632984765625 285.563812890625,57.08958046875 Q 285.60791015625,55.546176171875004 283.5132900390625,54.5319390625 Q 281.418669921875,53.517701953125 278.9271744140625,52.812145703125 Q 276.43567890625,52.106589453125 275.9726576171875,50.474990625000004 Q 275.509636328125,48.843391796875004 276.9427974609375,47.1456470703125 Q 278.37595859375,45.44790234375 282.67544199218753,45.6463400390625 Q 286.974925390625,45.844777734375 287.415898046875,49.548948046875 Q 285.519715625,49.50485078125 284.064505859375,49.769434375" /><path id="text_uppercase_19" style="fill:#0000ff;fill-opacity:1.0;" d="M 290.01763671875,47.42125498046875 L 291.164165625,45.18331875 Q 293.280834375,45.668388671875 296.4558375,45.7345345703125 Q 299.630840625,45.80068046875 305.054804296875,45.536096875 L 304.48153984375,46.726723046875 Q 300.380494140625,46.0652640625 298.30792265625,46.69916225585938 Q 296.235351171875,47.33306044921875 295.2431626953125,48.83787963867188 Q 294.25097421875,50.342698828125 294.0525365234375,52.6578052734375 Q 293.854098828125,54.97291171875 295.30930859375,57.0234345703125 Q 296.764518359375,59.073957421875 299.5646947265625,59.12907900390625 Q 302.36487109374997,59.1842005859375 304.569734375,55.8328083984375 L 305.23119335937497,56.262756738281254 Q 303.731886328125,58.544790234375 302.056190234375,59.38263828125 Q 300.380494140625,60.220486328125006 298.30792265625,60.132291796875 Q 296.235351171875,60.044097265625 294.5376064453125,59.079469580078126 Q 292.83986171875,58.11484189453125 291.913819140625,56.41158500976563 Q 290.9877765625,54.708328125 291.164165625,52.50346484375 Q 291.3405546875,50.298601562500004 292.707569921875,48.793782373046874 Q 294.07458515625,47.28896318359375 296.49993476562497,46.462139453125 Q 292.090208203125,46.60545556640625 290.01763671875,47.42125498046875" />
<path id="text_uppercase_20" style="fill:#0000ff;fill-opacity:1.0;" d="M 307.171473046875,47.432279296875 Q 309.33223906250004,46.15345859375 309.37633632812503,45.315610546875 Q 312.06626953125,46.373944921875 310.8094974609375,49.68123984375 Q 309.552725390625,52.988534765625005 309.86140625,54.9067658203125 Q 310.170087109375,56.824996875 311.4268591796875,58.2581580078125 Q 312.68363125,59.691319140625 314.38137597656254,59.29444375 Q 316.079120703125,58.897568359375 316.961066015625,56.780899609375 Q 317.754816796875,50.73957421875 317.37999003906253,49.284364453125 Q 317.00516328125,47.8291546875 316.0350234375,47.38818203125 Q 318.32808125,46.550333984375 318.8572484375,45.536096875 Q 320.047874609375,46.285750390625 320.0258259765625,47.74096015625 Q 320.00377734375,49.196169921875 319.8053396484375,53.716139648437505 Q 319.60690195312503,58.236109375 320.047874609375,60.0 L 316.74057968750003,60.0 
Q 317.049260546875,59.382638281249996 317.049260546875,58.7652765625 Q 315.94682890625,60.0 312.992312109375,60.1984376953125 Q 310.0377953125,60.396875390625 308.45029375,58.1699634765625 Q 306.8627921875,55.9430515625 308.097515625,53.5838478515625 Q 309.33223906250004,51.224644140625 309.1338013671875,49.6150939453125 Q 308.935363671875,48.00554375 307.171473046875,47.432279296875" />
<path id="text_uppercase_21" style="fill:#0000ff;fill-opacity:1.0;" d="M 321.723570703125,47.3661333984375 Q 324.46862548828125,46.69365009765625 325.91281093749996,45.536096875 Q 327.94128515625,53.1208265625 330.10205117187496,58.059720312500005 Q 332.17462265625,52.9444375 333.05656796874996,49.9237748046875 Q 333.93851328125,46.903112109375 333.14476249999996,45.09512421875 Q 334.59997226562496,45.844777734375 335.65830664062497,46.120385644531254 Q 332.747887109375,53.782285546875 331.9100390625,55.9651001953125 Q 331.072191015625,58.14791484375 330.631218359375,60.0 L 328.338160546875,60.0 Q 327.19163164062496,56.824996875 325.89627446289063,54.041356982421874 Q 324.60091728515624,51.25771708984375 323.85677592773436,49.41114409179688 Q 323.1126345703125,47.564571093750004 321.723570703125,47.3661333984375" />
<path id="text_uppercase_22" style="fill:#0000ff;fill-opacity:1.0;" d="M 359.16214921875,60.0 L 355.85485429687503,60.0 Q 356.16353515625,59.382638281249996 356.16353515625,58.7652765625 Q 354.708325390625,60.220486328125006 352.547559375,60.1984376953125 Q 350.386793359375,60.1763890625 349.1961671875,58.015623046875 Q 347.52047109375,60.132291796875 344.1029330078125,60.1984376953125 Q 340.685394921875,60.264583593750004 339.009698828125,58.103817578125 Q 337.334002734375,55.9430515625 338.568726171875,53.5838478515625 Q 339.80344960937504,51.224644140625 339.6050119140625,49.6150939453125 Q 339.40657421875,48.00554375 337.64268359375,47.432279296875 Q 339.80344960937504,46.15345859375 339.84754687500003,45.315610546875 Q 342.537480078125,46.373944921875 341.2807080078125,49.68123984375 Q 340.0239359375,52.988534765625005 340.332616796875,54.9067658203125 Q 340.64129765625,56.824996875 341.8980697265625,58.2581580078125 Q 343.154841796875,59.691319140625 344.69824609375,59.4046869140625 Q 346.241650390625,59.1180546875 347.16769296875003,56.869094140625 Q 348.22602734375,50.73957421875 347.85120058593753,49.284364453125 Q 347.476373828125,47.8291546875 346.506233984375,47.38818203125 Q 348.799291796875,46.550333984375 349.328458984375,45.536096875 Q 350.51908515625,46.285750390625 350.4970365234375,47.74096015625 Q 350.474987890625,49.196169921875 349.98991796875004,53.010583398437504 Q 349.504848046875,56.824996875 350.80571738281253,58.280206640624996 Q 352.10658671875,59.735416406249996 353.67203964843753,59.2282978515625 Q 355.237492578125,58.721179296875 356.16353515625,56.780899609375 Q 356.86909140625,50.73957421875 356.49426464843754,49.284364453125 Q 356.119437890625,47.8291546875 355.149298046875,47.38818203125 Q 357.442355859375,46.550333984375 357.971523046875,45.536096875 Q 359.16214921875,46.285750390625 359.1401005859375,47.74096015625 Q 359.118051953125,49.196169921875 358.9196142578125,53.716139648437505 Q 358.72117656250003,58.236109375 359.16214921875,60.0" />
<path id="text_uppercase_23" style="fill:#0000ff;fill-opacity:1.0;" d="M 360.970137109375,47.4763765625 Q 363.39548671874996,46.814917578125 364.76250195312497,45.491999609375 Q 365.997225390625,48.27012734375 369.03993671874997,52.106589453125 Q 373.75834414062496,48.00554375 373.75834414062496,44.91873515625 Q 374.640289453125,45.97706953125 375.74272109375,46.550333984375 Q 373.229176953125,49.063878125 369.6572984375,52.988534765625005 Q 372.21493984374996,56.869094140625 375.610429296875,60.0 L 371.7739671875,60.0 Q 370.142368359375,57.44235859375 367.84931054687496,54.62013359375 Q 364.10104296875,58.192012109375 364.34357792968746,59.9338541015625 Q 364.586112890625,61.675696093750005 366.43819804687496,62.954516796875 
Q 364.85069648437496,64.101045703125 364.0128484375,65.55625546875 Q 361.411109765625,62.689933203125 362.2269091796875,60.3748267578125 Q 363.04270859375,58.059720312500005 367.231948828125,53.782285546875 Q 364.89479374999996,50.474990625000004 363.6600703125,49.15207265625 Q 362.425346875,47.8291546875 360.970137109375,47.4763765625" />
<path id="text_uppercase_24" style="fill:#0000ff;fill-opacity:1.0;" d="M 377.68300078125,47.432279296875 Q 379.843766796875,46.15345859375 379.8878640625,45.315610546875 Q 382.57779726562495,46.373944921875 381.3210251953125,49.68123984375 Q 380.064253125,52.988534765625005 380.48317714843745,54.796522656250005 Q 380.90210117187496,56.604510546875005 382.1147759765625,57.9935744140625 Q 383.32745078125,59.382638281249996 384.959049609375,59.1401033203125 Q 386.59064843749996,58.897568359375 387.91356640624997,56.03124609375 Q 388.39863632812495,51.048255078125 387.95766367187497,49.4387048828125 Q 387.516691015625,47.8291546875 386.54655117187497,47.38818203125 Q 388.839608984375,46.550333984375 389.36877617187497,45.536096875 Q 390.55940234375,46.285750390625 390.71374277343745,47.8291546875 Q 390.86808320312497,49.372558984375004 390.515305078125,53.782285546875 Q 390.162526953125,58.192012109375 390.427110546875,63.748267578125 Q 388.79551171875,64.67431015625 387.56078828125,65.864936328125 Q 388.08995546874996,62.778127734375005 388.00176093749997,58.456595703125004 Q 385.40002226562495,60.396875390625 383.23925625,60.242534960937505 Q 381.07849023437495,60.08819453125 379.22640507812497,58.015623046875 Q 377.374319921875,55.9430515625 378.609043359375,53.5838478515625 Q 379.843766796875,51.224644140625 379.6453291015625,49.6150939453125 Q 379.44689140624996,48.00554375 377.68300078125,47.432279296875" />
<path id="text_uppercase_25" style="fill:#0000ff;fill-opacity:1.0;" d="M 393.072946484375,47.079501171875 Q 394.043086328125,45.536096875 393.8226,43.5958171875 Q 395.4101015625,45.756583203125004 398.629201953125,45.7124859375 Q 401.84830234375,45.668388671875 406.169834375,45.315610546875 Q 405.684764453125,46.241653125 405.81705625,46.59443125 Q 401.70498623046876,49.3505103515625 394.395864453125,58.280206640624996 Q 402.289275,50.871866015625 404.56028417968747,53.4736046875 Q 406.831293359375,56.075343359375 404.56028417968747,60.220486328125 Q 402.289275,64.365629296875 393.249335546875,66.26181171875 L 393.2934328125,65.60035273437501 Q 400.304898046875,63.924656640625 402.245177734375,60.7717021484375 Q 404.185457421875,57.61874765625 402.597955859375,55.744613867187496 Q 401.010454296875,53.870480078125 393.337530078125,60.12126748046875 Q 393.32650576171875,59.140103320312505 393.38162734375,57.574650390625 Q 397.8795484375,52.36014873046875 403.479901171875,46.4180421875 Q 400.3489953125,46.373944921875 398.2323265625,46.3518962890625 Q 396.1156578125,46.32984765625 393.072946484375,47.079501171875" />

</g>
</svg>