<?xml version="1.0" encoding="UTF-8" standalone="no"?>
<svg
   xmlns:svg="http://www.w3.org/2000/svg"
   xmlns="http://www.w3.org/2000/svg"
   width="400mm"
   height="400mm"
   viewBox="-200 -200 400 400"
   version="1.1"
   id="gear_hobbymat">
   <g>
     
            <path id="gear" style="fill:#cccccc;stroke:#000000;stroke-width:0.025000"
                d="  M  38.75 0.0      
          A 38.75 38.75 0 0 1 38.73319445445332 1.1411167133585725
          A 5.063 5.063 0 0 1 40.95904327994601 1.8321499915426342
          L 40.91791009879876 2.593189762941212 
          A 5.063 5.063 0 0 1 38.630546682158716 3.0402899594539914
        
          A 38.75 38.75 0 0 1 38.52426195705034 4.1765704429069235
          A 5.063 5.063 0 0 1 40.68903138732935 5.040111582190083
          L 40.58831451377522 5.7955780497604 
          A 5.063 5.063 0 0 1 38.272923198061584 6.061835520308946
        
          A 38.75 38.75 0 0 1 38.07781457406508 7.186274226824147
          A 5.063 5.063 0 0 1 40.168158085733864 8.216999208926156
          L 40.00847847279005 8.962234670677546 
          A 5.063 5.063 0 0 1 37.67933441540996 9.046007849416332
        
          A 38.75 38.75 0 0 1 37.396604802072446 10.151672240454324
          A 5.063 5.063 0 0 1 39.399634732271814 11.343226303109684
          L 39.181976857851 12.073636134604513 
          A 5.063 5.063 0 0 1 36.85344000643719 11.974408532029207
        
          A 38.75 38.75 0 0 1 36.484832525842045 13.054481818948519
          A 5.063 5.063 0 0 1 38.38819952897727 14.399518635129029
          L 38.113905326253835 15.110599616870216 
          A 5.063 5.063 0 0 1 35.800331884812344 14.82898300414722
        
          A 38.75 38.75 0 0 1 35.34811912465185 15.876806175973183
          A 5.063 5.063 0 0 1 37.14008831021485 17.367033146436963
          L 36.81084889416067 18.05440122771365 
          A 5.063 5.063 0 0 1 34.526502812299235 17.592131864907433
        
          A 38.75 38.75 0 0 1 33.99347281461579 18.601244743349174
          A 5.063 5.063 0 0 1 35.66299609668735 20.227474123272557
          L 35.28084133778561 20.886891451290595 
          A 5.063 5.063 0 0 1 33.03980636872105 20.246819382743013
        
          A 38.75 38.75 0 0 1 32.42924544070084 21.21100045134086
          A 5.063 5.063 0 0 1 33.96602965307415 22.96320599582047
          L 33.53331566249284 23.59060704347411 
          A 5.063 5.063 0 0 1 31.349408532029187 22.776678526333324
        
          A 38.75 38.75 0 0 1 30.665080984825558 23.689983288176627
          A 5.063 5.063 0 0 1 32.05965134179874 25.557362067363286
          L 31.57904594518179 26.148878698561727 
          A 5.063 5.063 0 0 1 29.465731167001174 25.166111872794602
        
          A 38.75 38.75 0 0 1 28.711856107504637 26.022909500321948
          A 5.063 5.063 0 0 1 29.95561461908525 27.993948503075504
          L 29.430080908520313 28.54593382108817 
          A 5.063 5.063 0 0 1 27.400387770978693 27.400387770978696
        
          A 38.75 38.75 0 0 1 26.581613089619946 28.195395821902252
          A 5.063 5.063 0 0 1 27.666891570992416 30.25794293733376
          L 27.099669636562826 30.766993769121356 
          A 5.063 5.063 0 0 1 25.166111872794595 29.465731167001177
        
          A 38.75 38.75 0 0 1 24.28748558775442 30.194048152319997
          A 5.063 5.063 0 0 1 25.207592936189368 32.3353870915963
          L 24.602179889741308 32.79836496950428 
          A 5.063 5.063 0 0 1 22.776678526333306 31.34940853202918
        
          A 38.75 38.75 0 0 1 21.84361766083187 32.0065441353388
          A 5.063 5.063 0 0 1 22.592881108559457 34.21347283183181
          L 21.953009522844553 34.627523343287095 
          A 5.063 5.063 0 0 1 20.246819382742995 33.03980636872103
        
          A 38.75 38.75 0 0 1 19.265076567290333 33.62170913050729
          A 5.063 5.063 0 0 1 19.838876655999933 35.880621134924866
          L 19.168491552123008 36.24319152083858 
          A 5.063 5.063 0 0 1 17.592131864907415 34.52650281229922
        
          A 38.75 38.75 0 0 1 16.56775987042341 35.02958510853339
          A 5.063 5.063 0 0 1 16.962558931760242 37.326553477203824
          L 16.265793456812368 37.63540837057991 
          A 5.063 5.063 0 0 1 14.82898300414721 35.80033188481232
        
          A 38.75 38.75 0 0 1 13.768297424616106 36.22149204584629
          A 5.063 5.063 0 0 1 13.981661391083016 38.542355204957246
          L 13.262811335915275 38.79559041267337 
          A 5.063 5.063 0 0 1 11.974408532029196 36.85344000643717
        
          A 38.75 38.75 0 0 1 10.883948846762552 37.19008143982819
          A 5.063 5.063 0 0 1 10.914562258555554 39.52053049623843
          L 10.178059572799958 39.71658473902977 
          A 5.063 5.063 0 0 1 9.04600784941632 37.67933441540994
        
          A 38.75 38.75 0 0 1 7.932497104988446 37.929381614776524
          A 5.063 5.063 0 0 1 7.780171220243843 40.255048575100325
          L 7.030556687870071 40.392713113365424 
          A 5.063 5.063 0 0 1 6.061835520308933 38.27292319806156
        
          A 38.75 38.75 0 0 1 4.932138880739124 38.43483453927048
          A 5.063 5.063 0 0 1 4.597812839189864 40.741380893334714
          L 3.8397080830621255 40.81980697941706 
          A 5.063 5.063 0 0 1 3.0402899594539794 38.63054668215869
        
          A 38.75 38.75 0 0 1 1.9013723801874363 38.70332392795041
          A 5.063 5.063 0 0 1 1.38710741305436 40.97652905047776
          L 0.6251864010895976 40.99523316147733 
          A 5.063 5.063 0 0 1 -1.0492961513225564e-14 38.74999999999998
        
          A 38.75 38.75 0 0 1 -1.1411167133585822 38.7331944544533
          A 5.063 5.063 0 0 1 -1.8321499915426442 40.95904327994598
          L -2.593189762941222 40.91791009879873 
          A 5.063 5.063 0 0 1 -3.0402899594540003 38.63054668215869
        
          A 38.75 38.75 0 0 1 -4.176570442906932 38.524261957050314
          A 5.063 5.063 0 0 1 -5.040111582190091 40.68903138732932
          L -5.795578049760407 40.58831451377518 
          A 5.063 5.063 0 0 1 -6.061835520308953 38.272923198061555
        
          A 38.75 38.75 0 0 1 -7.186274226824153 38.07781457406505
          A 5.063 5.063 0 0 1 -8.216999208926161 40.168158085733836
          L -8.962234670677551 40.008478472790024 
          A 5.063 5.063 0 0 1 -9.046007849416336 37.67933441540994
        
          A 38.75 38.75 0 0 1 -10.151672240454326 37.396604802072424
          A 5.063 5.063 0 0 1 -11.343226303109686 39.39963473227179
          L -12.073636134604515 39.18197685785098 
          A 5.063 5.063 0 0 1 -11.974408532029209 36.85344000643717
        
          A 38.75 38.75 0 0 1 -13.05448181894852 36.48483252584202
          A 5.063 5.063 0 0 1 -14.39951863512903 38.388199528977246
          L -15.110599616870216 38.113905326253814 
          A 5.063 5.063 0 0 1 -14.82898300414722 35.80033188481233
        
          A 38.75 38.75 0 0 1 -15.876806175973183 35.34811912465184
          A 5.063 5.063 0 0 1 -17.367033146436963 37.140088310214836
          L -18.05440122771365 36.81084889416066 
          A 5.063 5.063 0 0 1 -17.592131864907433 34.52650281229922
        
          A 38.75 38.75 0 0 1 -18.601244743349174 33.99347281461578
          A 5.063 5.063 0 0 1 -20.227474123272557 35.66299609668734
          L -20.886891451290595 35.280841337785596 
          A 5.063 5.063 0 0 1 -20.246819382743013 33.03980636872104
        
          A 38.75 38.75 0 0 1 -21.21100045134086 32.429245440700825
          A 5.063 5.063 0 0 1 -22.96320599582047 33.96602965307414
          L -23.59060704347411 33.533315662492825 
          A 5.063 5.063 0 0 1 -22.776678526333324 31.349408532029173
        
          A 38.75 38.75 0 0 1 -23.689983288176627 30.665080984825543
          A 5.063 5.063 0 0 1 -25.557362067363286 32.05965134179873
          L -26.148878698561727 31.579045945181775 
          A 5.063 5.063 0 0 1 -25.166111872794602 29.46573116700116
        
          A 38.75 38.75 0 0 1 -26.022909500321944 28.711856107504623
          A 5.063 5.063 0 0 1 -27.9939485030755 29.955614619085235
          L -28.545933821088166 29.4300809085203 
          A 5.063 5.063 0 0 1 -27.400387770978696 27.40038777097868
        
          A 38.75 38.75 0 0 1 -28.195395821902252 26.581613089619932
          A 5.063 5.063 0 0 1 -30.25794293733376 27.6668915709924
          L -30.766993769121353 27.099669636562812 
          A 5.063 5.063 0 0 1 -29.465731167001174 25.16611187279458
        
          A 38.75 38.75 0 0 1 -30.194048152319994 24.287485587754407
          A 5.063 5.063 0 0 1 -32.3353870915963 25.207592936189357
          L -32.79836496950428 24.602179889741297 
          A 5.063 5.063 0 0 1 -31.34940853202918 22.7766785263333
        
          A 38.75 38.75 0 0 1 -32.0065441353388 21.843617660831864
          A 5.063 5.063 0 0 1 -34.21347283183181 22.59288110855945
          L -34.627523343287095 21.953009522844546 
          A 5.063 5.063 0 0 1 -33.03980636872103 20.246819382742988
        
          A 38.75 38.75 0 0 1 -33.62170913050729 19.265076567290325
          A 5.063 5.063 0 0 1 -35.880621134924866 19.838876655999925
          L -36.24319152083858 19.168491552123 
          A 5.063 5.063 0 0 1 -34.52650281229922 17.592131864907408
        
          A 38.75 38.75 0 0 1 -35.02958510853339 16.5677598704234
          A 5.063 5.063 0 0 1 -37.326553477203824 16.962558931760235
          L -37.63540837057991 16.26579345681236 
          A 5.063 5.063 0 0 1 -35.80033188481232 14.828983004147203
        
          A 38.75 38.75 0 0 1 -36.22149204584629 13.7682974246161
          A 5.063 5.063 0 0 1 -38.542355204957246 13.981661391083009
          L -38.79559041267337 13.262811335915268 
          A 5.063 5.063 0 0 1 -36.85344000643717 11.974408532029189
        
          A 38.75 38.75 0 0 1 -37.19008143982819 10.883948846762545
          A 5.063 5.063 0 0 1 -39.52053049623843 10.914562258555547
          L -39.71658473902977 10.17805957279995 
          A 5.063 5.063 0 0 1 -37.67933441540994 9.046007849416313
        
          A 38.75 38.75 0 0 1 -37.92938161477652 7.932497104988439
          A 5.063 5.063 0 0 1 -40.25504857510032 7.780171220243837
          L -40.39271311336542 7.030556687870065 
          A 5.063 5.063 0 0 1 -38.272923198061555 6.061835520308928
        
          A 38.75 38.75 0 0 1 -38.434834539270476 4.932138880739119
          A 5.063 5.063 0 0 1 -40.74138089333471 4.597812839189859
          L -40.81980697941705 3.839708083062121 
          A 5.063 5.063 0 0 1 -38.63054668215868 3.040289959453976
        
          A 38.75 38.75 0 0 1 -38.7033239279504 1.901372380187433
          A 5.063 5.063 0 0 1 -40.97652905047775 1.3871074130543566
          L -40.99523316147732 0.6251864010895943 
          A 5.063 5.063 0 0 1 -38.74999999999997 -1.3430990736928722e-14
        
          A 38.75 38.75 0 0 1 -38.73319445445329 -1.1411167133585849
          A 5.063 5.063 0 0 1 -40.95904327994597 -1.832149991542647
          L -40.91791009879872 -2.593189762941224 
          A 5.063 5.063 0 0 1 -38.63054668215868 -3.0402899594540025
        
          A 38.75 38.75 0 0 1 -38.52426195705031 -4.176570442906934
          A 5.063 5.063 0 0 1 -40.689031387329315 -5.040111582190093
          L -40.588314513775174 -5.795578049760409 
          A 5.063 5.063 0 0 1 -38.27292319806155 -6.061835520308954
        
          A 38.75 38.75 0 0 1 -38.077814574065044 -7.186274226824154
          A 5.063 5.063 0 0 1 -40.16815808573383 -8.216999208926163
          L -40.00847847279002 -8.962234670677553 
          A 5.063 5.063 0 0 1 -37.67933441540993 -9.046007849416338
        
          A 38.75 38.75 0 0 1 -37.39660480207242 -10.151672240454328
          A 5.063 5.063 0 0 1 -39.399634732271785 -11.343226303109688
          L -39.18197685785097 -12.073636134604516 
          A 5.063 5.063 0 0 1 -36.85344000643716 -11.97440853202921
        
          A 38.75 38.75 0 0 1 -36.484832525842016 -13.054481818948522
          A 5.063 5.063 0 0 1 -38.38819952897724 -14.399518635129033
          L -38.11390532625381 -15.110599616870218 
          A 5.063 5.063 0 0 1 -35.80033188481232 -14.828983004147222
        
          A 38.75 38.75 0 0 1 -35.34811912465183 -15.876806175973183
          A 5.063 5.063 0 0 1 -37.14008831021483 -17.367033146436963
          L -36.81084889416065 -18.05440122771365 
          A 5.063 5.063 0 0 1 -34.52650281229921 -17.592131864907433
        
          A 38.75 38.75 0 0 1 -33.99347281461577 -18.601244743349174
          A 5.063 5.063 0 0 1 -35.66299609668732 -20.227474123272557
          L -35.28084133778558 -20.886891451290595 
          A 5.063 5.063 0 0 1 -33.039806368721024 -20.246819382743013
        
          A 38.75 38.75 0 0 1 -32.42924544070081 -21.21100045134086
          A 5.063 5.063 0 0 1 -33.96602965307412 -22.96320599582047
          L -33.53331566249281 -23.59060704347411 
          A 5.063 5.063 0 0 1 -31.349408532029162 -22.776678526333324
        
          A 38.75 38.75 0 0 1 -30.665080984825533 -23.689983288176627
          A 5.063 5.063 0 0 1 -32.05965134179871 -25.557362067363286
          L -31.57904594518176 -26.148878698561727 
          A 5.063 5.063 0 0 1 -29.465731167001145 -25.166111872794602
        
          A 38.75 38.75 0 0 1 -28.71185610750461 -26.022909500321944
          A 5.063 5.063 0 0 1 -29.95561461908522 -27.9939485030755
          L -29.430080908520285 -28.545933821088166 
          A 5.063 5.063 0 0 1 -27.400387770978664 -27.400387770978696
        
          A 38.75 38.75 0 0 1 -26.581613089619918 -28.195395821902252
          A 5.063 5.063 0 0 1 -27.666891570992387 -30.25794293733376
          L -27.099669636562798 -30.766993769121353 
          A 5.063 5.063 0 0 1 -25.16611187279457 -29.46573116700117
        
          A 38.75 38.75 0 0 1 -24.287485587754396 -30.19404815231999
          A 5.063 5.063 0 0 1 -25.207592936189346 -32.335387091596296
          L -24.602179889741286 -32.79836496950427 
          A 5.063 5.063 0 0 1 -22.77667852633329 -31.349408532029173
        
          A 38.75 38.75 0 0 1 -21.843617660831853 -32.00654413533879
          A 5.063 5.063 0 0 1 -22.59288110855944 -34.2134728318318
          L -21.953009522844535 -34.62752334328709 
          A 5.063 5.063 0 0 1 -20.246819382742977 -33.039806368721024
        
          A 38.75 38.75 0 0 1 -19.265076567290315 -33.621709130507284
          A 5.063 5.063 0 0 1 -19.838876655999915 -35.88062113492486
          L -19.16849155212299 -36.24319152083857 
          A 5.063 5.063 0 0 1 -17.592131864907397 -34.52650281229921
        
          A 38.75 38.75 0 0 1 -16.56775987042339 -35.02958510853338
          A 5.063 5.063 0 0 1 -16.962558931760224 -37.32655347720382
          L -16.26579345681235 -37.6354083705799 
          A 5.063 5.063 0 0 1 -14.828983004147194 -35.800331884812316
        
          A 38.75 38.75 0 0 1 -13.76829742461609 -36.22149204584628
          A 5.063 5.063 0 0 1 -13.981661391083 -38.54235520495723
          L -13.26281133591526 -38.795590412673356 
          A 5.063 5.063 0 0 1 -11.97440853202918 -36.85344000643715
        
          A 38.75 38.75 0 0 1 -10.883948846762536 -37.19008143982817
          A 5.063 5.063 0 0 1 -10.914562258555538 -39.52053049623841
          L -10.178059572799942 -39.71658473902975 
          A 5.063 5.063 0 0 1 -9.046007849416306 -37.67933441540992
        
          A 38.75 38.75 0 0 1 -7.932497104988432 -37.929381614776496
          A 5.063 5.063 0 0 1 -7.780171220243829 -40.2550485751003
          L -7.030556687870057 -40.392713113365396 
          A 5.063 5.063 0 0 1 -6.06183552030892 -38.272923198061534
        
          A 38.75 38.75 0 0 1 -4.932138880739112 -38.434834539270454
          A 5.063 5.063 0 0 1 -4.597812839189851 -40.741380893334686
          L -3.8397080830621135 -40.81980697941703 
          A 5.063 5.063 0 0 1 -3.0402899594539687 -38.63054668215866
        
          A 38.75 38.75 0 0 1 -1.9013723801874265 -38.70332392795038
          A 5.063 5.063 0 0 1 -1.38710741305435 -40.97652905047773
          L -0.625186401089588 -40.9952331614773 
          A 5.063 5.063 0 0 1 1.9097189954070527e-14 -38.74999999999995
        
          A 38.75 38.75 0 0 1 1.14111671335859 -38.73319445445327
          A 5.063 5.063 0 0 1 1.8321499915426522 -40.95904327994595
          L 2.593189762941229 -40.9179100987987 
          A 5.063 5.063 0 0 1 3.040289959454007 -38.63054668215866
        
          A 38.75 38.75 0 0 1 4.176570442906938 -38.524261957050285
          A 5.063 5.063 0 0 1 5.0401115821900975 -40.689031387329294
          L 5.7955780497604135 -40.58831451377515 
          A 5.063 5.063 0 0 1 6.061835520308958 -38.27292319806153
        
          A 38.75 38.75 0 0 1 7.186274226824158 -38.07781457406502
          A 5.063 5.063 0 0 1 8.216999208926165 -40.16815808573381
          L 8.962234670677555 -40.008478472789996 
          A 5.063 5.063 0 0 1 9.04600784941634 -37.67933441540991
        
          A 38.75 38.75 0 0 1 10.15167224045433 -37.396604802072396
          A 5.063 5.063 0 0 1 11.34322630310969 -39.399634732271764
          L 12.073636134604518 -39.18197685785095 
          A 5.063 5.063 0 0 1 11.974408532029212 -36.85344000643714
        
          A 38.75 38.75 0 0 1 13.054481818948524 -36.484832525841995
          A 5.063 5.063 0 0 1 14.399518635129034 -38.38819952897722
          L 15.11059961687022 -38.113905326253786 
          A 5.063 5.063 0 0 1 14.828983004147224 -35.8003318848123
        
          A 38.75 38.75 0 0 1 15.876806175973185 -35.34811912465181
          A 5.063 5.063 0 0 1 17.367033146436963 -37.14008831021481
          L 18.05440122771365 -36.81084889416063 
          A 5.063 5.063 0 0 1 17.592131864907433 -34.52650281229919
        
          A 38.75 38.75 0 0 1 18.601244743349174 -33.99347281461575
          A 5.063 5.063 0 0 1 20.22747412327255 -35.66299609668731
          L 20.886891451290587 -35.28084133778557 
          A 5.063 5.063 0 0 1 20.246819382743006 -33.03980636872101
        
          A 38.75 38.75 0 0 1 21.21100045134085 -32.4292454407008
          A 5.063 5.063 0 0 1 22.963205995820463 -33.9660296530741
          L 23.590607043474105 -33.53331566249279 
          A 5.063 5.063 0 0 1 22.776678526333313 -31.34940853202914
        
          A 38.75 38.75 0 0 1 23.689983288176617 -30.66508098482551
          A 5.063 5.063 0 0 1 25.557362067363275 -32.05965134179869
          L 26.148878698561717 -31.57904594518174 
          A 5.063 5.063 0 0 1 25.16611187279459 -29.465731167001124
        
          A 38.75 38.75 0 0 1 26.022909500321934 -28.711856107504587
          A 5.063 5.063 0 0 1 27.99394850307549 -29.955614619085196
          L 28.545933821088155 -29.43008090852026 
          A 5.063 5.063 0 0 1 27.400387770978686 -27.40038777097864
        
          A 38.75 38.75 0 0 1 28.195395821902242 -26.581613089619893
          A 5.063 5.063 0 0 1 30.25794293733375 -27.66689157099236
          L 30.766993769121342 -27.09966963656277 
          A 5.063 5.063 0 0 1 29.46573116700116 -25.16611187279454
        
          A 38.75 38.75 0 0 1 30.194048152319976 -24.28748558775437
          A 5.063 5.063 0 0 1 32.33538709159628 -25.207592936189318
          L 32.798364969504256 -24.602179889741258 
          A 5.063 5.063 0 0 1 31.349408532029162 -22.77667852633326
        
          A 38.75 38.75 0 0 1 32.00654413533878 -21.843617660831825
          A 5.063 5.063 0 0 1 34.21347283183179 -22.592881108559407
          L 34.627523343287066 -21.953009522844503 
          A 5.063 5.063 0 0 1 33.039806368721 -20.24681938274295
        
          A 38.75 38.75 0 0 1 33.621709130507256 -19.265076567290286
          A 5.063 5.063 0 0 1 35.88062113492483 -19.838876655999886
          L 36.24319152083854 -19.168491552122962 
          A 5.063 5.063 0 0 1 34.526502812299185 -17.592131864907373
        
          A 38.75 38.75 0 0 1 35.029585108533354 -16.567759870423366
          A 5.063 5.063 0 0 1 37.32655347720379 -16.9625589317602
          L 37.635408370579874 -16.265793456812325 
          A 5.063 5.063 0 0 1 35.80033188481229 -14.82898300414717
        
          A 38.75 38.75 0 0 1 36.221492045846254 -13.768297424616067
          A 5.063 5.063 0 0 1 38.542355204957204 -13.981661391082975
          L 38.79559041267333 -13.262811335915234 
          A 5.063 5.063 0 0 1 36.85344000643712 -11.974408532029157
        
          A 38.75 38.75 0 0 1 37.19008143982814 -10.883948846762515
          A 5.063 5.063 0 0 1 39.52053049623838 -10.914562258555515
          L 39.71658473902972 -10.17805957279992 
          A 5.063 5.063 0 0 1 37.67933441540989 -9.046007849416284
        
          A 38.75 38.75 0 0 1 37.92938161477647 -7.932497104988411
          A 5.063 5.063 0 0 1 40.25504857510027 -7.780171220243807
          L 40.39271311336537 -7.030556687870036 
          A 5.063 5.063 0 0 1 38.272923198061505 -6.061835520308901
        
          A 38.75 38.75 0 0 1 38.434834539270426 -4.932138880739094
          A 5.063 5.063 0 0 1 40.74138089333465 -4.5978128391898325
          L 40.819806979416995 -3.8397080830620958 
          A 5.063 5.063 0 0 1 38.630546682158624 -3.0402899594539523
        
          A 38.75 38.75 0 0 1 38.703323927950336 -1.9013723801874112
          A 5.063 5.063 0 0 1 40.97652905047769 -1.3871074130543346
          L 40.99523316147726 -0.6251864010895736 
          A 5.063 5.063 0 0 1 38.74999999999991 3.2108462230470226e-14
        
         z"
            />
        
     
        <circle id="reinforcement" style="fill:#cccccc;stroke:#000000;stroke-width:0.025000"
            cx="0" cy="0" r="15"
        />
        
     
        <path id="bearing" style="fill:#ffcccc;stroke:#000000;stroke-width:0.025000"
            d="M 1.961161351381842 9.8058067569092 A 10 10 0 1 0 -1.9611613513818411 9.8058067569092
              L -1.9611613513818411 11.8058067569092  1.961161351381842 11.8058067569092  1.961161351381842 9.8058067569092"
        />
        
   </g>
</svg>
