<?xml version="1.0" encoding="UTF-8" standalone="no"?>
<svg
   xmlns:svg="http://www.w3.org/2000/svg"
   xmlns="http://www.w3.org/2000/svg"
   width="400mm"
   height="400mm"
   viewBox="-200 -200 400 400"
   version="1.1"
   id="gear_hobbymat">
   <g>
     
            <path id="gear" style="fill:#cccccc;stroke:#000000;stroke-width:0.025000"
                d="  M  48.75 0.0      
          A 48.75 48.75 0 0 1 48.73646847312753 1.1485385356384947
          A 5.063 5.063 0 0 1 50.96753830207829 1.8193513751289423
          L 50.93443379139927 2.5852377742801345 
          A 5.063 5.063 0 0 1 48.65380301087825 3.061037827054027
        
          A 48.75 48.75 0 0 1 48.5681808540309 4.206460332648764
          A 5.063 5.063 0 0 1 50.752727489615104 5.01603950989909
          L 50.67159789822277 5.778335957767365 
          A 5.063 5.063 0 0 1 48.36559168908081 6.109995136259834
        
          A 48.75 48.75 0 0 1 48.208216813794614 7.247781152474998
          A 5.063 5.063 0 0 1 50.33761884846604 8.192931628334138
          L 50.20878435779303 8.94862968909988 
          A 5.063 5.063 0 0 1 47.88650347302359 9.13483908605408
        
          A 48.75 48.75 0 0 1 47.657996966033565 10.260498291288656
          A 5.063 5.063 0 0 1 49.72385062279263 11.337489988626574
          L 49.54781968371474 12.083607267289542 
          A 5.063 5.063 0 0 1 47.218429105020796 12.123631999286678
        
          A 48.75 48.75 0 0 1 46.91969277711533 13.232721930922377
          A 5.063 5.063 0 0 1 48.91384507537755 14.437304455540385
          L 48.691312401590444 15.17089636807026 
          A 5.063 5.063 0 0 1 46.36400516938877 15.0645784757787
        
          A 48.75 48.75 0 0 1 45.99621799637447 16.15272206255035
          A 5.063 5.063 0 0 1 47.91079892806013 17.48014147754519
          L 47.64264275436174 18.198312871809478 
          A 5.063 5.063 0 0 1 45.326603687052284 17.94607194337807
        
          A 48.75 48.75 0 0 1 44.89121715687506 19.008974779674197
          A 5.063 5.063 0 0 1 46.71867074573564 20.453992367055122
          L 46.40594936203465 21.153908948661964 
          A 5.063 5.063 0 0 1 44.1103188077185 20.75674046379731
        
          A 48.75 48.75 0 0 1 43.60905119210377 21.790207757717177
          A 5.063 5.063 0 0 1 45.34216531370815 23.34712069323254
          L 44.986112888437205 24.02602021119581 
          A 5.063 5.063 0 0 1 42.7199506521384 23.48549161245865
        
          A 48.75 48.75 0 0 1 42.154780225357605 24.485444740739442
          A 5.063 5.063 0 0 1 43.78671507005235 26.14810860031863
          L 43.38873677946913 26.803311748400603 
          A 5.063 5.063 0 0 1 41.16098636822329 26.12155625522612
        
          A 48.75 48.75 0 0 1 40.534143599749136 27.084048859705646
          A 5.063 5.063 0 0 1 42.05845866626233 28.845901868693755
          L 41.620125148860765 29.474822859402803 
          A 5.063 5.063 0 0 1 39.43957847577874 28.654531049258104
        
          A 48.75 48.75 0 0 1 38.75353722764116 29.575764611347523
          A 5.063 5.063 0 0 1 40.16421674079861 31.42985354083216
          L 39.68725789871636 32.03001031034462 
          A 5.063 5.063 0 0 1 37.56252058531978 31.07441950024867
        
          A 48.75 48.75 0 0 1 36.819988348902754 31.95075833195
          A 5.063 5.063 0 0 1 38.11146500114418 33.889765939979135
          L 37.59776317302918 34.4587899437113 
          A 5.063 5.063 0 0 1 35.53722058679387 33.37167141402362
        
          A 48.75 48.75 0 0 1 34.74112779760382 34.199657006329275
          A 5.063 5.063 0 0 1 35.90830472060239 36.215930915722346
          L 35.35988725288215 36.751576475893806 
          A 5.063 5.063 0 0 1 33.37167141402364 35.53722058679387
        
          A 48.75 48.75 0 0 1 32.5251598865993 36.31358525884164
          A 5.063 5.063 0 0 1 33.56343076627234 38.39916815762619
          L 32.982462012143856 38.89932132592414 
          A 5.063 5.063 0 0 1 31.07441950024868 37.562520585319795
        
          A 48.75 48.75 0 0 1 30.180830028854462 38.28420038043639
          A 5.063 5.063 0 0 1 31.086097284380763 40.430861425723116
          L 30.474870062097207 40.89354832609053 
          A 5.063 5.063 0 0 1 28.654531049258125 39.439578475778774
        
          A 48.75 48.75 0 0 1 27.717390223295425 40.103725253517005
          A 5.063 5.063 0 0 1 28.486081178394688 42.302992554876305
          L 27.847007722559255 42.72638717349898 
          A 5.063 5.063 0 0 1 26.12155625522615 41.16098636822334
        
          A 48.75 48.75 0 0 1 25.144562541396127 41.76497904467128
          A 5.063 5.063 0 0 1 25.773643524050065 44.008173098814346
          L 25.109245965628045 44.39060449056316 
          A 5.063 5.063 0 0 1 23.485491612458684 42.71995065213847
        
          A 48.75 48.75 0 0 1 22.472500758603854 43.26140554414018
          A 5.063 5.063 0 0 1 22.959489073573696 45.539673488953184
          L 22.27238948619381 45.879632371841204 
          A 5.063 5.063 0 0 1 20.756740463797357 44.11031880771859
        
          A 48.75 48.75 0 0 1 19.711750282026383 44.58709904018255
          A 5.063 5.063 0 0 1 20.054724008916743 46.891449592928936
          L 19.347634060744433 47.187594304557834 
          A 5.063 5.063 0 0 1 17.946071943378115 45.326603687052405
        
          A 48.75 48.75 0 0 1 16.873206532527846 45.73682762622125
          A 5.063 5.063 0 0 1 17.07081211072848 48.05816656802695
          L 16.346522362750516 48.30932836051557 
          A 5.063 5.063 0 0 1 15.064578475778749 46.36400516938888
        
          A 48.75 48.75 0 0 1 13.968071945480228 46.7060538487882
          A 5.063 5.063 0 0 1 14.019529516051374 49.0352199153688
          L 13.280898409006516 49.24040756786711 
          A 5.063 5.063 0 0 1 12.123631999286728 47.21842910502091
        
          A 48.75 48.75 0 0 1 11.007811759868858 47.4909526147803
          A 5.063 5.063 0 0 1 10.912918243288203 49.81875365176575
          L 10.162860816707502 49.97715738235066 
          A 5.063 5.063 0 0 1 9.134839086054125 47.886503473023716
        
          A 48.75 48.75 0 0 1 8.004108770232113 48.0884262873543
          A 5.063 5.063 0 0 1 7.763238667856877 50.405675527522774
          L 7.004715055734404 50.51667018903744 
          A 5.063 5.063 0 0 1 6.109995136259873 48.365591689080944
        
          A 48.75 48.75 0 0 1 4.968817220008727 48.49611691088431
          A 5.063 5.063 0 0 1 4.582921136089903 50.793669230135336
          L 3.8189248845862287 50.8568167773594 
          A 5.063 5.063 0 0 1 3.0610378270540597 48.65380301087839
        
          A 48.75 48.75 0 0 1 1.913916018254624 48.7124155167354
          A 5.063 5.063 0 0 1 1.384516908336287 50.98120352571669
          L 0.6180631616194114 50.996254744130624 
          A 5.063 5.063 0 0 1 2.32412128757928e-14 48.750000000000156
        
          A 48.75 48.75 0 0 1 -1.1485385356384752 48.73646847312769
          A 5.063 5.063 0 0 1 -1.8193513751289239 50.96753830207845
          L -2.5852377742801185 50.934433791399435 
          A 5.063 5.063 0 0 1 -3.0610378270540135 48.653803010878406
        
          A 48.75 48.75 0 0 1 -4.206460332648755 48.568180854031056
          A 5.063 5.063 0 0 1 -5.016039509899081 50.75272748961527
          L -5.778335957767359 50.671597898222934 
          A 5.063 5.063 0 0 1 -6.10999513625983 48.365591689080965
        
          A 48.75 48.75 0 0 1 -7.247781152474998 48.20821681379477
          A 5.063 5.063 0 0 1 -8.19293162833414 50.33761884846621
          L -8.948629689099883 50.20878435779319 
          A 5.063 5.063 0 0 1 -9.134839086054086 47.886503473023744
        
          A 48.75 48.75 0 0 1 -10.260498291288664 47.65799696603372
          A 5.063 5.063 0 0 1 -11.337489988626585 49.723850622792796
          L -12.083607267289556 49.547819683714906 
          A 5.063 5.063 0 0 1 -12.123631999286694 47.218429105020945
        
          A 48.75 48.75 0 0 1 -13.232721930922397 46.91969277711548
          A 5.063 5.063 0 0 1 -14.437304455540408 48.91384507537771
          L -15.170896368070284 48.6913124015906 
          A 5.063 5.063 0 0 1 -15.064578475778724 46.36400516938892
        
          A 48.75 48.75 0 0 1 -16.152722062550378 45.99621799637462
          A 5.063 5.063 0 0 1 -17.480141477545217 47.91079892806029
          L -18.19831287180951 47.642642754361894 
          A 5.063 5.063 0 0 1 -17.9460719433781 45.32660368705243
        
          A 48.75 48.75 0 0 1 -19.008974779674233 44.89121715687521
          A 5.063 5.063 0 0 1 -20.453992367055164 46.7186707457358
          L -21.15390894866201 46.405949362034804 
          A 5.063 5.063 0 0 1 -20.756740463797357 44.11031880771865
        
          A 48.75 48.75 0 0 1 -21.790207757717226 43.60905119210392
          A 5.063 5.063 0 0 1 -23.347120693232597 45.34216531370831
          L -24.026020211195867 44.98611288843736 
          A 5.063 5.063 0 0 1 -23.485491612458702 42.71995065213855
        
          A 48.75 48.75 0 0 1 -24.4854447407395 42.154780225357754
          A 5.063 5.063 0 0 1 -26.148108600318693 43.7867150700525
          L -26.80331174840067 43.388736779469276 
          A 5.063 5.063 0 0 1 -26.12155625522619 41.16098636822343
        
          A 48.75 48.75 0 0 1 -27.084048859705717 40.53414359974928
          A 5.063 5.063 0 0 1 -28.845901868693833 42.05845866626248
          L -29.474822859402884 41.620125148860915 
          A 5.063 5.063 0 0 1 -28.654531049258186 39.43957847577888
        
          A 48.75 48.75 0 0 1 -29.57576461134761 38.7535372276413
          A 5.063 5.063 0 0 1 -31.429853540832248 40.16421674079876
          L -32.030010310344714 39.68725789871651 
          A 5.063 5.063 0 0 1 -31.07441950024876 37.56252058531992
        
          A 48.75 48.75 0 0 1 -31.95075833195009 36.819988348902896
          A 5.063 5.063 0 0 1 -33.889765939979235 38.11146500114433
          L -34.4587899437114 37.59776317302932 
          A 5.063 5.063 0 0 1 -33.37167141402373 35.53722058679401
        
          A 48.75 48.75 0 0 1 -34.19965700632938 34.74112779760396
          A 5.063 5.063 0 0 1 -36.21593091572245 35.90830472060253
          L -36.75157647589392 35.35988725288229 
          A 5.063 5.063 0 0 1 -35.53722058679398 33.37167141402376
        
          A 48.75 48.75 0 0 1 -36.31358525884175 32.52515988659942
          A 5.063 5.063 0 0 1 -38.39916815762631 33.56343076627247
          L -38.89932132592427 32.98246201214398 
          A 5.063 5.063 0 0 1 -37.56252058531992 31.074419500248805
        
          A 48.75 48.75 0 0 1 -38.284200380436516 30.180830028854583
          A 5.063 5.063 0 0 1 -40.43086142572325 31.086097284380884
          L -40.893548326090674 30.474870062097324 
          A 5.063 5.063 0 0 1 -39.43957847577891 28.654531049258235
        
          A 48.75 48.75 0 0 1 -40.10372525351714 27.71739022329553
          A 5.063 5.063 0 0 1 -42.30299255487645 28.486081178394798
          L -42.72638717349912 27.84700772255936 
          A 5.063 5.063 0 0 1 -41.160986368223476 26.12155625522625
        
          A 48.75 48.75 0 0 1 -41.76497904467141 25.144562541396223
          A 5.063 5.063 0 0 1 -44.00817309881448 25.77364352405016
          L -44.3906044905633 25.109245965628137 
          A 5.063 5.063 0 0 1 -42.71995065213861 23.485491612458773
        
          A 48.75 48.75 0 0 1 -43.26140554414032 22.47250075860394
          A 5.063 5.063 0 0 1 -45.539673488953326 22.959489073573785
          L -45.879632371841346 22.272389486193894 
          A 5.063 5.063 0 0 1 -44.11031880771873 20.756740463797435
        
          A 48.75 48.75 0 0 1 -44.587099040182686 19.711750282026458
          A 5.063 5.063 0 0 1 -46.89144959292908 20.05472400891682
          L -47.187594304557976 19.347634060744507 
          A 5.063 5.063 0 0 1 -45.32660368705254 17.946071943378183
        
          A 48.75 48.75 0 0 1 -45.73682762622139 16.87320653252791
          A 5.063 5.063 0 0 1 -48.0581665680271 17.070812110728543
          L -48.30932836051572 16.346522362750576 
          A 5.063 5.063 0 0 1 -46.364005169389024 15.064578475778806
        
          A 48.75 48.75 0 0 1 -46.70605384878835 13.968071945480279
          A 5.063 5.063 0 0 1 -49.035219915368955 14.019529516051426
          L -49.240407567867265 13.280898409006564 
          A 5.063 5.063 0 0 1 -47.218429105021066 12.12363199928677
        
          A 48.75 48.75 0 0 1 -47.490952614780454 11.007811759868897
          A 5.063 5.063 0 0 1 -49.81875365176592 10.912918243288242
          L -49.977157382350825 10.16286081670754 
          A 5.063 5.063 0 0 1 -47.88650347302387 9.134839086054159
        
          A 48.75 48.75 0 0 1 -48.08842628735446 8.004108770232143
          A 5.063 5.063 0 0 1 -50.40567552752294 7.763238667856907
          L -50.516670189037605 7.004715055734431 
          A 5.063 5.063 0 0 1 -48.3655916890811 6.109995136259897
        
          A 48.75 48.75 0 0 1 -48.496116910884474 4.968817220008748
          A 5.063 5.063 0 0 1 -50.79366923013551 4.582921136089922
          L -50.85681677735957 3.8189248845862456 
          A 5.063 5.063 0 0 1 -48.653803010878555 3.061037827054074
        
          A 48.75 48.75 0 0 1 -48.71241551673556 1.9139160182546344
          A 5.063 5.063 0 0 1 -50.98120352571686 1.3845169083362958
          L -50.996254744130795 0.6180631616194178 
          A 5.063 5.063 0 0 1 -48.75000000000032 2.738005900435864e-14
        
          A 48.75 48.75 0 0 1 -48.73646847312785 -1.148538535638475
          A 5.063 5.063 0 0 1 -50.96753830207862 -1.8193513751289259
          L -50.934433791399606 -2.5852377742801234 
          A 5.063 5.063 0 0 1 -48.65380301087857 -3.06103782705402
        
          A 48.75 48.75 0 0 1 -48.56818085403122 -4.206460332648765
          A 5.063 5.063 0 0 1 -50.75272748961544 -5.016039509899095
          L -50.671597898223105 -5.778335957767374 
          A 5.063 5.063 0 0 1 -48.36559168908113 -6.109995136259847
        
          A 48.75 48.75 0 0 1 -48.208216813794934 -7.247781152475018
          A 5.063 5.063 0 0 1 -50.33761884846638 -8.192931628334163
          L -50.20878435779336 -8.94862968909991 
          A 5.063 5.063 0 0 1 -47.88650347302391 -9.134839086054113
        
          A 48.75 48.75 0 0 1 -47.65799696603388 -10.260498291288695
          A 5.063 5.063 0 0 1 -49.72385062279296 -11.337489988626618
          L -49.54781968371507 -12.083607267289592 
          A 5.063 5.063 0 0 1 -47.2184291050211 -12.12363199928673
        
          A 48.75 48.75 0 0 1 -46.919692777115635 -13.232721930922436
          A 5.063 5.063 0 0 1 -48.91384507537787 -14.43730445554045
          L -48.691312401590764 -15.17089636807033 
          A 5.063 5.063 0 0 1 -46.364005169389074 -15.06457847577877
        
          A 48.75 48.75 0 0 1 -45.99621799637477 -16.152722062550428
          A 5.063 5.063 0 0 1 -47.910798928060444 -17.480141477545274
          L -47.64264275436204 -18.198312871809566 
          A 5.063 5.063 0 0 1 -45.326603687052575 -17.946071943378158
        
          A 48.75 48.75 0 0 1 -44.89121715687535 -19.008974779674293
          A 5.063 5.063 0 0 1 -46.71867074573595 -20.453992367055225
          L -46.405949362034946 -21.153908948662075 
          A 5.063 5.063 0 0 1 -44.110318807718784 -20.756740463797417
        
          A 48.75 48.75 0 0 1 -43.609051192104054 -21.79020775771729
          A 5.063 5.063 0 0 1 -45.34216531370845 -23.347120693232664
          L -44.9861128884375 -24.026020211195938 
          A 5.063 5.063 0 0 1 -42.719950652138685 -23.485491612458773
        
          A 48.75 48.75 0 0 1 -42.15478022535789 -24.485444740739574
          A 5.063 5.063 0 0 1 -43.786715070052644 -26.14810860031877
          L -43.38873677946942 -26.803311748400752 
          A 5.063 5.063 0 0 1 -41.16098636822357 -26.121556255226267
        
          A 48.75 48.75 0 0 1 -40.53414359974941 -27.0840488597058
          A 5.063 5.063 0 0 1 -42.058458666262624 -28.845901868693918
          L -41.62012514886106 -29.47482285940297 
          A 5.063 5.063 0 0 1 -39.439578475779015 -28.654531049258267
        
          A 48.75 48.75 0 0 1 -38.75353722764144 -29.575764611347694
          A 5.063 5.063 0 0 1 -40.1642167407989 -31.42985354083234
          L -39.68725789871665 -32.03001031034481 
          A 5.063 5.063 0 0 1 -37.56252058532006 -31.074419500248844
        
          A 48.75 48.75 0 0 1 -36.81998834890303 -31.95075833195018
          A 5.063 5.063 0 0 1 -38.111465001144474 -33.889765939979334
          L -37.59776317302946 -34.4587899437115 
          A 5.063 5.063 0 0 1 -35.53722058679414 -33.37167141402382
        
          A 48.75 48.75 0 0 1 -34.74112779760409 -34.199657006329474
          A 5.063 5.063 0 0 1 -35.90830472060267 -36.21593091572256
          L -35.35988725288243 -36.751576475894026 
          A 5.063 5.063 0 0 1 -33.37167141402389 -35.537220586794085
        
          A 48.75 48.75 0 0 1 -32.52515988659955 -36.31358525884186
          A 5.063 5.063 0 0 1 -33.56343076627261 -38.39916815762643
          L -32.982462012144126 -38.89932132592438 
          A 5.063 5.063 0 0 1 -31.07441950024894 -37.56252058532003
        
          A 48.75 48.75 0 0 1 -30.180830028854714 -38.28420038043663
          A 5.063 5.063 0 0 1 -31.086097284381022 -40.430861425723364
          L -30.47487006209746 -40.89354832609079 
          A 5.063 5.063 0 0 1 -28.654531049258363 -39.439578475779015
        
          A 48.75 48.75 0 0 1 -27.717390223295656 -40.10372525351725
          A 5.063 5.063 0 0 1 -28.486081178394926 -42.30299255487656
          L -27.84700772255949 -42.72638717349923 
          A 5.063 5.063 0 0 1 -26.12155625522637 -41.16098636822359
        
          A 48.75 48.75 0 0 1 -25.14456254139634 -41.764979044671534
          A 5.063 5.063 0 0 1 -25.773643524050282 -44.00817309881461
          L -25.109245965628258 -44.390604490563426 
          A 5.063 5.063 0 0 1 -23.485491612458883 -42.719950652138735
        
          A 48.75 48.75 0 0 1 -22.472500758604046 -43.261405544140445
          A 5.063 5.063 0 0 1 -22.959489073573895 -45.53967348895346
          L -22.272389486194005 -45.87963237184148 
          A 5.063 5.063 0 0 1 -20.75674046379754 -44.11031880771886
        
          A 48.75 48.75 0 0 1 -19.71175028202656 -44.58709904018283
          A 5.063 5.063 0 0 1 -20.054724008916924 -46.89144959292923
          L -19.34763406074461 -47.187594304558125 
          A 5.063 5.063 0 0 1 -17.946071943378275 -45.32660368705268
        
          A 48.75 48.75 0 0 1 -16.873206532528 -45.73682762622153
          A 5.063 5.063 0 0 1 -17.070812110728635 -48.058166568027254
          L -16.34652236275067 -48.30932836051588 
          A 5.063 5.063 0 0 1 -15.064578475778893 -46.36400516938918
        
          A 48.75 48.75 0 0 1 -13.968071945480363 -46.70605384878851
          A 5.063 5.063 0 0 1 -14.01952951605151 -49.035219915369126
          L -13.280898409006646 -49.240407567867436 
          A 5.063 5.063 0 0 1 -12.123631999286847 -47.21842910502123
        
          A 48.75 48.75 0 0 1 -11.00781175986897 -47.49095261478062
          A 5.063 5.063 0 0 1 -10.912918243288317 -49.81875365176609
          L -10.16286081670761 -49.977157382350995 
          A 5.063 5.063 0 0 1 -9.134839086054223 -47.886503473024035
        
          A 48.75 48.75 0 0 1 -8.004108770232204 -48.08842628735462
          A 5.063 5.063 0 0 1 -7.763238667856968 -50.40567552752311
          L -7.00471505573449 -50.516670189037775 
          A 5.063 5.063 0 0 1 -6.1099951362599505 -48.36559168908126
        
          A 48.75 48.75 0 0 1 -4.9688172200087966 -48.49611691088464
          A 5.063 5.063 0 0 1 -4.58292113608997 -50.79366923013568
          L -3.8189248845862913 -50.85681677735975 
          A 5.063 5.063 0 0 1 -3.0610378270541156 -48.653803010878725
        
          A 48.75 48.75 0 0 1 -1.9139160182546722 -48.71241551673573
          A 5.063 5.063 0 0 1 -1.3845169083363331 -50.98120352571704
          L -0.6180631616194523 -50.99625474413098 
          A 5.063 5.063 0 0 1 -5.826221857904222e-14 -48.7500000000005
        
          A 48.75 48.75 0 0 1 1.1485385356384483 -48.73646847312803
          A 5.063 5.063 0 0 1 1.8193513751289 -50.96753830207881
          L 2.5852377742801003 -50.93443379139979 
          A 5.063 5.063 0 0 1 3.0610378270540006 -48.65380301087875
        
          A 48.75 48.75 0 0 1 4.20646033264875 -48.5681808540314
          A 5.063 5.063 0 0 1 5.01603950989908 -50.75272748961562
          L 5.7783359577673625 -50.67159789822329 
          A 5.063 5.063 0 0 1 6.109995136259837 -48.365591689081306
        
          A 48.75 48.75 0 0 1 7.247781152475012 -48.20821681379511
          A 5.063 5.063 0 0 1 8.19293162833416 -50.33761884846656
          L 8.948629689099908 -50.20878435779355 
          A 5.063 5.063 0 0 1 9.134839086054114 -47.886503473024085
        
          A 48.75 48.75 0 0 1 10.260498291288702 -47.657996966034055
          A 5.063 5.063 0 0 1 11.337489988626627 -49.723850622793144
          L 12.083607267289604 -49.547819683715254 
          A 5.063 5.063 0 0 1 12.123631999286744 -47.21842910502128
        
          A 48.75 48.75 0 0 1 13.232721930922455 -46.91969277711581
          A 5.063 5.063 0 0 1 14.437304455540472 -48.913845075378056
          L 15.170896368070354 -48.69131240159095 
          A 5.063 5.063 0 0 1 15.064578475778793 -46.36400516938925
        
          A 48.75 48.75 0 0 1 16.152722062550456 -45.996217996374945
          A 5.063 5.063 0 0 1 17.480141477545303 -47.91079892806063
          L 18.1983128718096 -47.64264275436223 
          A 5.063 5.063 0 0 1 17.946071943378193 -45.32660368705275
        
          A 48.75 48.75 0 0 1 19.008974779674332 -44.89121715687552
          A 5.063 5.063 0 0 1 20.45399236705527 -46.71867074573612
          L 21.15390894866212 -46.405949362035116 
          A 5.063 5.063 0 0 1 20.756740463797467 -44.11031880771894
        
          A 48.75 48.75 0 0 1 21.790207757717344 -43.609051192104204
          A 5.063 5.063 0 0 1 23.347120693232725 -45.342165313708605
          L 24.026020211196002 -44.98611288843766 
          A 5.063 5.063 0 0 1 23.485491612458837 -42.719950652138834
        
          A 48.75 48.75 0 0 1 24.48544474073964 -42.15478022535804
          A 5.063 5.063 0 0 1 26.148108600318846 -43.7867150700528
          L 26.803311748400827 -43.388736779469575 
          A 5.063 5.063 0 0 1 26.12155625522634 -41.16098636822372
        
          A 48.75 48.75 0 0 1 27.084048859705877 -40.534143599749555
          A 5.063 5.063 0 0 1 28.845901868694003 -42.05845866626277
          L 29.47482285940306 -41.620125148861206 
          A 5.063 5.063 0 0 1 28.654531049258356 -39.43957847577915
        
          A 48.75 48.75 0 0 1 29.575764611347786 -38.75353722764157
          A 5.063 5.063 0 0 1 31.429853540832436 -40.164216740799034
          L 32.030010310344906 -39.68725789871678 
          A 5.063 5.063 0 0 1 31.074419500248947 -37.56252058532018
        
          A 48.75 48.75 0 0 1 31.950758331950286 -36.819988348903145
          A 5.063 5.063 0 0 1 33.88976593997944 -38.11146500114459
          L 34.45878994371161 -37.59776317302958 
          A 5.063 5.063 0 0 1 33.37167141402392 -35.537220586794255
        
          A 48.75 48.75 0 0 1 34.19965700632958 -34.7411277976042
          A 5.063 5.063 0 0 1 36.21593091572267 -35.90830472060278
          L 36.75157647589414 -35.35988725288254 
          A 5.063 5.063 0 0 1 35.5372205867942 -33.371671414024
        
          A 48.75 48.75 0 0 1 36.313585258841975 -32.52515988659965
          A 5.063 5.063 0 0 1 38.39916815762655 -33.56343076627272
          L 38.899321325924504 -32.98246201214423 
          A 5.063 5.063 0 0 1 37.562520585320144 -31.074419500249036
        
          A 48.75 48.75 0 0 1 38.284200380436744 -30.180830028854807
          A 5.063 5.063 0 0 1 40.430861425723485 -31.086097284381115
          L 40.89354832609091 -30.47487006209755 
          A 5.063 5.063 0 0 1 39.43957847577913 -28.654531049258445
        
          A 48.75 48.75 0 0 1 40.10372525351737 -27.717390223295734
          A 5.063 5.063 0 0 1 42.30299255487669 -28.486081178395004
          L 42.726387173499354 -27.847007722559564 
          A 5.063 5.063 0 0 1 41.16098636822371 -26.121556255226437
        
          A 48.75 48.75 0 0 1 41.764979044671655 -25.144562541396404
          A 5.063 5.063 0 0 1 44.00817309881474 -25.77364352405035
          L 44.39060449056356 -25.109245965628322 
          A 5.063 5.063 0 0 1 42.71995065213886 -23.485491612458944
        
          A 48.75 48.75 0 0 1 43.26140554414058 -22.472500758604102
          A 5.063 5.063 0 0 1 45.5396734889536 -22.959489073573952
          L 45.87963237184162 -22.272389486194058 
          A 5.063 5.063 0 0 1 44.110318807719 -20.756740463797588
        
          A 48.75 48.75 0 0 1 44.58709904018296 -19.711750282026603
          A 5.063 5.063 0 0 1 46.89144959292937 -20.05472400891697
          L 47.18759430455827 -19.347634060744653 
          A 5.063 5.063 0 0 1 45.326603687052824 -17.946071943378318
        
          A 48.75 48.75 0 0 1 45.736827626221675 -16.873206532528037
          A 5.063 5.063 0 0 1 48.0581665680274 -17.070812110728674
          L 48.309328360516034 -16.346522362750704 
          A 5.063 5.063 0 0 1 46.36400516938933 -15.064578475778925
        
          A 48.75 48.75 0 0 1 46.706053848788656 -13.968071945480391
          A 5.063 5.063 0 0 1 49.03521991536928 -14.019529516051538
          L 49.2404075678676 -13.28089840900667 
          A 5.063 5.063 0 0 1 47.218429105021386 -12.12363199928687
        
          A 48.75 48.75 0 0 1 47.490952614780774 -11.00781175986899
          A 5.063 5.063 0 0 1 49.81875365176625 -10.912918243288336
          L 49.97715738235116 -10.162860816707628 
          A 5.063 5.063 0 0 1 47.88650347302419 -9.134839086054239
        
          A 48.75 48.75 0 0 1 48.08842628735478 -8.004108770232216
          A 5.063 5.063 0 0 1 50.40567552752328 -7.763238667856978
          L 50.516670189037946 -7.004715055734497 
          A 5.063 5.063 0 0 1 48.36559168908143 -6.109995136259956
        
          A 48.75 48.75 0 0 1 48.4961169108848 -4.968817220008798
          A 5.063 5.063 0 0 1 50.79366923013585 -4.58292113608997
          L 50.85681677735992 -3.8189248845862886 
          A 5.063 5.063 0 0 1 48.65380301087889 -3.0610378270541108
        
          A 48.75 48.75 0 0 1 48.712415516735895 -1.9139160182546633
          A 5.063 5.063 0 0 1 50.98120352571721 -1.3845169083363218
          L 50.99625474413115 -0.6180631616194384 
          A 5.063 5.063 0 0 1 48.75000000000066 -4.2980325181260655e-14
        
         z"
            />
        
     
        <circle id="reinforcement" style="fill:#cccccc;stroke:#000000;stroke-width:0.025000"
            cx="0" cy="0" r="15"
        />
        
     
        <path id="bearing" style="fill:#ffcccc;stroke:#000000;stroke-width:0.025000"
            d="M 1.961161351381842 9.8058067569092 A 10 10 0 1 0 -1.9611613513818411 9.8058067569092
              L -1.9611613513818411 11.8058067569092  1.961161351381842 11.8058067569092  1.961161351381842 9.8058067569092"
        />
        
   </g>
</svg>
