<?xml version="1.0" encoding="UTF-8" standalone="no"?>
<!-- Created with Inkscape (http://www.inkscape.org/) -->

<svg
   xmlns:dc="http://purl.org/dc/elements/1.1/"
   xmlns:cc="http://creativecommons.org/ns#"
   xmlns:rdf="http://www.w3.org/1999/02/22-rdf-syntax-ns#"
   xmlns:svg="http://www.w3.org/2000/svg"
   xmlns="http://www.w3.org/2000/svg"
   xmlns:sodipodi="http://sodipodi.sourceforge.net/DTD/sodipodi-0.dtd"
   xmlns:inkscape="http://www.inkscape.org/namespaces/inkscape"
   width="1052.3622"
   height="744.09448"
   id="svg2"
   version="1.1"
   inkscape:version="0.47pre4 "
   sodipodi:docname="New document 1">
  <sodipodi:namedview
     id="base"
     pagecolor="#ffffff"
     bordercolor="#666666"
     borderopacity="1.0"
     inkscape:pageopacity="0.0"
     inkscape:pageshadow="2"
     inkscape:zoom="0.35"
     inkscape:cx="33.571429"
     inkscape:cy="520"
     inkscape:document-units="px"
     inkscape:current-layer="layer1"
     showgrid="false"
     inkscape:window-width="1280"
     inkscape:window-height="744"
     inkscape:window-x="-4"
     inkscape:window-y="-4"
     inkscape:window-maximized="1" />
  <defs
     id="defs4">
    <inkscape:perspective
       id="perspective10"
       inkscape:persp3d-origin="372.04724 : 350.78739 : 1"
       inkscape:vp_z="744.09448 : 526.18109 : 1"
       inkscape:vp_y="0 : 1000 : 0"
       inkscape:vp_x="0 : 526.18109 : 1"
       sodipodi:type="inkscape:persp3d" />
  </defs>
  <metadata
     id="metadata7">
    <rdf:RDF>
      <cc:Work
         rdf:about="">
        <dc:format>image/svg+xml</dc:format>
        <dc:type
           rdf:resource="http://purl.org/dc/dcmitype/StillImage" />
        <dc:title></dc:title>
      </cc:Work>
    </rdf:RDF>
  </metadata>
  <g
     transform="translate(0,-308.2677)"
     id="layer1"
     inkscape:groupmode="layer"
     inkscape:label="Layer 1">
    <g
       id="g2822"
       transform="translate(51.03882,385.33821)"
       inkscape:label="Gear6"
       style="fill:#cccccc">
      <path
         id="path2824"
         d="m 12.248,-3.478 5.016,-1.425 1.184,-0.04 6.973,3.447 0,2.992 -6.973,3.447 -1.184,-0.04 -5.016,-1.425 -3.112,5.39 3.742,3.632 0.627,1.005 0.501,7.762 -2.591,1.496 -6.472,-4.315 -0.557,-1.045 -1.274,-5.057 -6.224,0 -1.274,5.057 -0.557,1.045 -6.472,4.315 -2.591,-1.496 0.501,-7.762 0.627,-1.005 3.742,-3.632 -3.112,-5.39 -5.016,1.425 -1.184,0.04 -6.973,-3.447 0,-2.992 6.973,-3.447 1.184,0.04 5.016,1.425 3.112,-5.39 -3.742,-3.632 -0.627,-1.005 -0.501,-7.762 2.591,-1.496 6.472,4.315 0.557,1.045 1.274,5.057 6.224,0 1.274,-5.057 0.557,-1.045 6.472,-4.315 2.591,1.496 -0.501,7.762 -0.627,1.005 -3.742,3.632 z"
         style="fill:#cccccc;stroke:#000000" />
    </g>
    <g
       inkscape:label="Gear8"
       transform="translate(136.61004,385.33821)"
       id="g2840"
       style="fill:#cccccc">
      <path
         style="fill:#cccccc;stroke:#000000"
         d="m 18.674,-4.005 4.723,-1.013 1.578,0.05 6.809,3.246 0,3.444 -6.809,3.246 -1.578,0.05 -4.723,-1.013 -2.638,6.368 4.056,2.623 1.081,1.151 2.52,7.11 -2.436,2.436 -7.11,-2.52 -1.151,-1.081 -2.623,-4.056 -6.368,2.638 1.013,4.723 -0.05,1.578 -3.246,6.809 -3.444,0 -3.246,-6.809 -0.05,-1.578 1.013,-4.723 -6.368,-2.638 -2.623,4.056 -1.151,1.081 -7.11,2.52 -2.436,-2.436 2.52,-7.11 1.081,-1.151 4.056,-2.623 -2.638,-6.368 -4.723,1.013 -1.578,-0.05 -6.809,-3.246 0,-3.444 6.809,-3.246 1.578,-0.05 4.723,1.013 2.638,-6.368 -4.056,-2.623 -1.081,-1.151 -2.52,-7.11 2.436,-2.436 7.11,2.52 1.151,1.081 2.623,4.056 6.368,-2.638 -1.013,-4.723 0.05,-1.578 3.246,-6.809 3.444,0 3.246,6.809 0.05,1.578 -1.013,4.723 6.368,2.638 2.623,-4.056 1.151,-1.081 7.11,-2.52 2.436,2.436 -2.52,7.11 -1.081,1.151 -4.056,2.623 z"
         id="path2842" />
    </g>
    <g
       id="g2862"
       transform="translate(234.91126,385.33821)"
       inkscape:label="Gear10"
       style="fill:#cccccc">
      <path
         id="path2864"
         d="m 25.089,-4.358 4.381,-0.761 1.969,0.14 6.712,3.109 0,3.74 -6.712,3.109 -1.969,0.14 -4.381,-0.761 -2.23,6.863 3.992,1.96 1.511,1.27 3.602,6.461 -2.198,3.026 -7.258,-1.43 -1.675,-1.045 -3.097,-3.19 -5.838,4.241 2.077,3.932 0.476,1.916 -0.883,7.344 -3.557,1.156 -5.032,-5.423 -0.741,-1.829 -0.63,-4.402 -7.216,0 -0.63,4.402 -0.741,1.829 -5.032,5.423 -3.557,-1.156 -0.883,-7.344 0.476,-1.916 2.077,-3.932 -5.838,-4.241 -3.097,3.19 -1.675,1.045 -7.258,1.43 -2.198,-3.026 3.602,-6.461 1.511,-1.27 3.992,-1.96 -2.23,-6.863 -4.381,0.761 -1.969,-0.14 -6.712,-3.109 0,-3.74 6.712,-3.109 1.969,-0.14 4.381,0.761 2.23,-6.863 -3.992,-1.96 -1.511,-1.27 -3.602,-6.461 2.198,-3.026 7.258,1.43 1.675,1.045 3.097,3.19 5.838,-4.241 -2.077,-3.932 -0.476,-1.916 0.883,-7.344 3.557,-1.156 5.032,5.423 0.741,1.829 0.63,4.402 7.216,0 0.63,-4.402 0.741,-1.829 5.032,-5.423 3.557,1.156 0.883,7.344 -0.476,1.916 -2.077,3.932 5.838,4.241 3.097,-3.19 1.675,-1.045 7.258,-1.43 2.198,3.026 -3.602,6.461 -1.511,1.27 -3.992,1.96 z"
         style="fill:#cccccc;stroke:#000000" />
    </g>
    <g
       inkscape:label="Gear12"
       transform="translate(345.94848,385.33821)"
       id="g2888"
       style="fill:#cccccc">
      <path
         style="fill:#cccccc;stroke:#000000"
         d="m 31.493,-4.625 4.02,-0.59 2.357,0.229 6.65,3.01 0,3.952 -6.65,3.01 -2.357,0.229 -4.02,-0.59 -1.907,7.117 3.776,1.498 1.928,1.377 4.253,5.932 -1.976,3.422 -7.263,-0.718 -2.157,-0.98 -3.185,-2.521 -5.21,5.21 2.521,3.185 0.98,2.157 0.718,7.263 -3.422,1.976 -5.932,-4.253 -1.377,-1.928 -1.498,-3.776 -7.117,1.907 0.59,4.02 -0.229,2.357 -3.01,6.65 -3.952,0 -3.01,-6.65 -0.229,-2.357 0.59,-4.02 -7.117,-1.907 -1.498,3.776 -1.377,1.928 -5.932,4.253 -3.422,-1.976 0.718,-7.263 0.98,-2.157 2.521,-3.185 -5.21,-5.21 -3.185,2.521 -2.157,0.98 -7.263,0.718 -1.976,-3.422 4.253,-5.932 1.928,-1.377 3.776,-1.498 -1.907,-7.117 -4.02,0.59 -2.357,-0.229 -6.65,-3.01 0,-3.952 6.65,-3.01 2.357,-0.229 4.02,0.59 1.907,-7.117 -3.776,-1.498 -1.928,-1.377 -4.253,-5.932 1.976,-3.422 7.263,0.718 2.157,0.98 3.185,2.521 5.21,-5.21 -2.521,-3.185 -0.98,-2.157 -0.718,-7.263 3.422,-1.976 5.932,4.253 1.377,1.928 1.498,3.776 7.117,-1.907 -0.59,-4.02 0.229,-2.357 3.01,-6.65 3.952,0 3.01,6.65 0.229,2.357 -0.59,4.02 7.117,1.907 1.498,-3.776 1.377,-1.928 5.932,-4.253 3.422,1.976 -0.718,7.263 -0.98,2.157 -2.521,3.185 5.21,5.21 3.185,-2.521 2.157,-0.98 7.263,-0.718 1.976,3.422 -4.253,5.932 -1.928,1.377 -3.776,1.498 z"
         id="path2890" />
    </g>
    <g
       id="g2918"
       transform="translate(469.7227,385.33821)"
       inkscape:label="Gear14"
       style="fill:#cccccc">
      <path
         id="path2920"
         d="m 37.889,-4.842 3.649,-0.466 2.745,0.318 6.605,2.934 0,4.112 -6.605,2.934 -2.745,0.318 -3.649,-0.466 -1.651,7.235 3.49,1.163 2.335,1.478 4.677,5.509 -1.783,3.705 -7.224,-0.223 -2.612,-0.904 -3.085,-2.003 -4.627,5.802 2.64,2.562 1.462,2.345 1.824,6.993 -3.214,2.564 -6.412,-3.335 -1.961,-1.948 -1.91,-3.143 -6.686,3.22 1.266,3.453 0.3,2.748 -1.39,7.092 L 9.32,50.07 4.99,44.283 4.068,41.678 3.711,38.017 l -7.422,0 -0.357,3.661 -0.922,2.605 -4.33,5.787 -4.008,-0.915 -1.39,-7.092 0.3,-2.748 1.266,-3.453 -6.686,-3.22 -1.91,3.143 -1.961,1.948 -6.412,3.335 -3.214,-2.564 1.824,-6.993 1.462,-2.345 2.64,-2.562 -4.627,-5.802 -3.085,2.003 -2.612,0.904 -7.224,0.223 -1.783,-3.705 4.677,-5.509 2.335,-1.478 3.49,-1.163 -1.651,-7.235 -3.649,0.466 -2.745,-0.318 -6.605,-2.934 0,-4.112 6.605,-2.934 2.745,-0.318 3.649,0.466 1.651,-7.235 -3.49,-1.163 -2.335,-1.478 -4.677,-5.509 1.783,-3.705 7.224,0.223 2.612,0.904 3.085,2.003 4.627,-5.802 -2.64,-2.562 -1.462,-2.345 -1.824,-6.993 3.214,-2.564 6.412,3.335 1.961,1.948 1.91,3.143 6.686,-3.22 -1.266,-3.453 -0.3,-2.748 1.39,-7.092 4.008,-0.915 4.33,5.787 0.922,2.605 0.357,3.661 7.422,0 0.357,-3.661 0.922,-2.605 4.33,-5.787 4.008,0.915 1.39,7.092 -0.3,2.748 -1.266,3.453 6.686,3.22 1.91,-3.143 1.961,-1.948 6.412,-3.335 3.214,2.564 -1.824,6.993 -1.462,2.345 -2.64,2.562 4.627,5.802 3.085,-2.003 2.612,-0.904 7.224,-0.223 1.783,3.705 -4.677,5.509 -2.335,1.478 -3.49,1.163 z"
         style="fill:#cccccc;stroke:#000000" />
    </g>
    <g
       inkscape:label="Gear16"
       transform="translate(606.23394,385.33821)"
       id="g2952"
       style="fill:#cccccc">
      <path
         style="fill:#cccccc;stroke:#000000"
         d="m 44.279,-5.028 3.273,-0.372 3.132,0.408 6.573,2.873 0,4.238 -6.573,2.873 -3.132,0.408 -3.273,-0.372 -1.446,7.271 3.166,0.909 2.738,1.576 4.972,5.17 -1.622,3.914 -7.171,0.14 -3.05,-0.821 -2.882,-1.597 -4.119,6.164 2.578,2.052 1.926,2.503 2.616,6.68 -2.996,2.996 -6.68,-2.616 -2.503,-1.926 -2.052,-2.578 -6.164,4.119 1.597,2.882 0.821,3.05 -0.14,7.171 -3.914,1.622 -5.17,-4.972 -1.576,-2.738 -0.909,-3.166 -7.271,1.446 0.372,3.273 -0.408,3.132 -2.873,6.573 -4.238,0 -2.873,-6.573 -0.408,-3.132 0.372,-3.273 -7.271,-1.446 -0.909,3.166 -1.576,2.738 -5.17,4.972 -3.914,-1.622 -0.14,-7.171 0.821,-3.05 1.597,-2.882 -6.164,-4.119 -2.052,2.578 -2.503,1.926 -6.68,2.616 -2.996,-2.996 2.616,-6.68 1.926,-2.503 2.578,-2.052 -4.119,-6.164 -2.882,1.597 -3.05,0.821 -7.171,-0.14 -1.622,-3.914 4.972,-5.17 2.738,-1.576 3.166,-0.909 -1.446,-7.271 -3.273,0.372 -3.132,-0.408 -6.573,-2.873 0,-4.238 6.573,-2.873 3.132,-0.408 3.273,0.372 1.446,-7.271 -3.166,-0.909 -2.738,-1.576 -4.972,-5.17 1.622,-3.914 7.171,-0.14 3.05,0.821 2.882,1.597 4.119,-6.164 -2.578,-2.052 -1.926,-2.503 -2.616,-6.68 2.996,-2.996 6.68,2.616 2.503,1.926 2.052,2.578 6.164,-4.119 -1.597,-2.882 -0.821,-3.05 0.14,-7.171 3.914,-1.622 5.17,4.972 1.576,2.738 0.909,3.166 7.271,-1.446 -0.372,-3.273 0.408,-3.132 2.873,-6.573 4.238,0 2.873,6.573 0.408,3.132 -0.372,3.273 7.271,1.446 0.909,-3.166 1.576,-2.738 5.17,-4.972 3.914,1.622 0.14,7.171 -0.821,3.05 -1.597,2.882 6.164,4.119 2.052,-2.578 2.503,-1.926 6.68,-2.616 2.996,2.996 -2.616,6.68 -1.926,2.503 -2.578,2.052 4.119,6.164 2.882,-1.597 3.05,-0.821 7.171,0.14 1.622,3.914 -4.972,5.17 -2.738,1.576 -3.166,0.909 z"
         id="path2954" />
    </g>
    <g
       id="g2990"
       transform="translate(755.48219,385.33821)"
       inkscape:label="Gear18"
       style="fill:#cccccc">
      <path
         id="path2992"
         d="m 50.664,-5.194 2.896,-0.297 3.518,0.497 6.547,2.825 0,4.338 -6.547,2.825 -3.518,0.497 -2.896,-0.297 -1.279,7.253 2.823,0.711 3.135,1.671 5.187,4.893 -1.484,4.078 -7.118,0.414 -3.477,-0.735 -2.619,-1.27 -3.682,6.378 2.409,1.634 2.375,2.643 3.2,6.372 -2.789,3.323 -6.831,-2.045 -3.015,-1.88 -2.027,-2.089 -5.641,4.734 1.704,2.359 1.329,3.296 0.827,7.082 -3.757,2.17 -5.72,-4.258 -2.19,-2.798 -1.191,-2.656 -6.92,2.518 0.795,2.8 0.121,3.551 -1.644,6.939 L 8.912,63.035 4.994,57.078 3.893,53.7 3.682,50.796 l -7.364,0 -0.211,2.904 -1.101,3.378 -3.918,5.957 -4.273,-0.753 -1.644,-6.939 0.121,-3.551 0.795,-2.8 -6.92,-2.518 -1.191,2.656 -2.19,2.798 -5.72,4.258 -3.757,-2.17 0.827,-7.082 1.329,-3.296 1.704,-2.359 -5.641,-4.734 -2.027,2.089 -3.015,1.88 -6.831,2.045 -2.789,-3.323 3.2,-6.372 2.375,-2.643 2.409,-1.634 -3.682,-6.378 -2.619,1.27 -3.477,0.735 -7.118,-0.414 -1.484,-4.078 5.187,-4.893 3.135,-1.671 2.823,-0.711 -1.279,-7.253 -2.896,0.297 -3.518,-0.497 -6.547,-2.825 0,-4.338 6.547,-2.825 3.518,-0.497 2.896,0.297 1.279,-7.253 -2.823,-0.711 -3.135,-1.671 -5.187,-4.893 1.484,-4.078 7.118,-0.414 3.477,0.735 2.619,1.27 3.682,-6.378 -2.409,-1.634 -2.375,-2.643 -3.2,-6.372 2.789,-3.323 6.831,2.045 3.015,1.88 2.027,2.089 5.641,-4.734 -1.704,-2.359 -1.329,-3.296 -0.827,-7.082 3.757,-2.17 5.72,4.258 2.19,2.798 1.191,2.656 6.92,-2.518 -0.795,-2.8 -0.121,-3.551 1.644,-6.939 4.273,-0.753 3.918,5.957 1.101,3.378 0.211,2.904 7.364,0 0.211,-2.904 1.101,-3.378 3.918,-5.957 4.273,0.753 1.644,6.939 -0.121,3.551 -0.795,2.8 6.92,2.518 1.191,-2.656 2.19,-2.798 5.72,-4.258 3.757,2.17 -0.827,7.082 -1.329,3.296 -1.704,2.359 5.641,4.734 2.027,-2.089 3.015,-1.88 6.831,-2.045 2.789,3.323 -3.2,6.372 -2.375,2.643 -2.409,1.634 3.682,6.378 2.619,-1.27 3.477,-0.735 7.118,0.414 1.484,4.078 -5.187,4.893 -3.135,1.671 -2.823,0.711 z"
         style="fill:#cccccc;stroke:#000000" />
    </g>
    <g
       inkscape:label="Gear20"
       transform="translate(978.05729,385.33821)"
       id="g3032"
       style="fill:#cccccc">
      <path
         style="fill:#cccccc;stroke:#000000"
         d="m 57.046,-5.346 2.516,-0.236 3.904,0.587 6.527,2.783 0,4.424 -6.527,2.783 -3.904,0.587 -2.516,-0.236 -1.14,7.198 2.465,0.553 3.532,1.765 5.348,4.664 -1.367,4.206 -7.068,0.63 -3.894,-0.648 -2.32,-1.001 -3.309,6.493 2.174,1.288 2.814,2.769 3.645,6.089 -2.6,3.578 -6.917,-1.585 -3.504,-1.82 -1.896,-1.669 -5.153,5.153 1.669,1.896 1.82,3.504 1.585,6.917 -3.578,2.6 -6.089,-3.645 -2.769,-2.814 -1.288,-2.174 -6.493,3.309 1.001,2.32 0.648,3.894 -0.63,7.068 -4.206,1.367 -4.664,-5.348 -1.765,-3.532 -0.553,-2.465 -7.198,1.14 0.236,2.516 -0.587,3.904 -2.783,6.527 -4.424,0 -2.783,-6.527 -0.587,-3.904 0.236,-2.516 -7.198,-1.14 -0.553,2.465 -1.765,3.532 -4.664,5.348 -4.206,-1.367 -0.63,-7.068 0.648,-3.894 1.001,-2.32 -6.493,-3.309 -1.288,2.174 -2.769,2.814 -6.089,3.645 -3.578,-2.6 1.585,-6.917 1.82,-3.504 1.669,-1.896 -5.153,-5.153 -1.896,1.669 -3.504,1.82 -6.917,1.585 -2.6,-3.578 3.645,-6.089 2.814,-2.769 2.174,-1.288 -3.309,-6.493 -2.32,1.001 -3.894,0.648 -7.068,-0.63 -1.367,-4.206 5.348,-4.664 3.532,-1.765 2.465,-0.553 -1.14,-7.198 -2.516,0.236 -3.904,-0.587 -6.527,-2.783 0,-4.424 6.527,-2.783 3.904,-0.587 2.516,0.236 1.14,-7.198 -2.465,-0.553 -3.532,-1.765 -5.348,-4.664 1.367,-4.206 7.068,-0.63 3.894,0.648 2.32,1.001 3.309,-6.493 -2.174,-1.288 -2.814,-2.769 -3.645,-6.089 2.6,-3.578 6.917,1.585 3.504,1.82 1.896,1.669 5.153,-5.153 -1.669,-1.896 -1.82,-3.504 -1.585,-6.917 3.578,-2.6 6.089,3.645 2.769,2.814 1.288,2.174 6.493,-3.309 -1.001,-2.32 -0.648,-3.894 0.63,-7.068 4.206,-1.367 4.664,5.348 1.765,3.532 0.553,2.465 7.198,-1.14 -0.236,-2.516 0.587,-3.904 2.783,-6.527 4.424,0 2.783,6.527 0.587,3.904 -0.236,2.516 7.198,1.14 0.553,-2.465 1.765,-3.532 4.664,-5.348 4.206,1.367 0.63,7.068 -0.648,3.894 -1.001,2.32 6.493,3.309 1.288,-2.174 2.769,-2.814 6.089,-3.645 3.578,2.6 -1.585,6.917 -1.82,3.504 -1.669,1.896 5.153,5.153 1.896,-1.669 3.504,-1.82 6.917,-1.585 2.6,3.578 -3.645,6.089 -2.814,2.769 -2.174,1.288 3.309,6.493 2.32,-1.001 3.894,-0.648 7.068,0.63 1.367,4.206 -5.348,4.664 -3.532,1.765 -2.465,0.553 z"
         id="path3034" />
    </g>
    <g
       id="g3097"
       transform="matrix(-1,0,0,1,965.32132,552.47341)"
       inkscape:label="Gear24"
       style="fill:#cccccc">
      <path
         id="path3099"
         d="m 69.802,-5.621 1.754,-0.141 4.675,0.766 6.498,2.719 0,4.554 -6.498,2.719 -4.675,0.766 -1.754,-0.141 -0.923,7.016 1.73,0.317 4.317,1.95 5.574,4.308 -1.179,4.4 -6.981,0.944 -4.714,-0.47 -1.657,-0.59 -2.708,6.537 1.589,0.755 3.666,3 4.268,5.604 -2.277,3.945 -6.987,-0.895 -4.432,-1.674 -1.448,-0.999 -4.308,5.614 1.34,1.14 2.764,3.847 2.673,6.518 -3.221,3.221 -6.518,-2.673 -3.847,-2.764 -1.14,-1.34 -5.614,4.308 0.999,1.448 1.674,4.432 0.895,6.987 -3.945,2.277 -5.604,-4.268 -3,-3.666 -0.755,-1.589 -6.537,2.708 0.59,1.657 0.47,4.714 -0.944,6.981 -4.4,1.179 -4.308,-5.574 -1.95,-4.317 -0.317,-1.73 -7.016,0.923 0.141,1.754 -0.766,4.675 -2.719,6.498 -4.554,0 -2.719,-6.498 -0.766,-4.675 0.141,-1.754 -7.016,-0.923 -0.317,1.73 -1.95,4.317 -4.308,5.574 -4.4,-1.179 -0.944,-6.981 0.47,-4.714 0.59,-1.657 -6.537,-2.708 -0.755,1.589 -3,3.666 -5.604,4.268 -3.945,-2.277 0.895,-6.987 1.674,-4.432 0.999,-1.448 -5.614,-4.308 -1.14,1.34 -3.847,2.764 -6.518,2.673 -3.221,-3.221 2.673,-6.518 2.764,-3.847 1.34,-1.14 -4.308,-5.614 -1.448,0.999 -4.432,1.674 -6.987,0.895 -2.277,-3.945 4.268,-5.604 3.666,-3 1.589,-0.755 -2.708,-6.537 -1.657,0.59 -4.714,0.47 -6.981,-0.944 -1.179,-4.4 5.574,-4.308 4.317,-1.95 1.73,-0.317 -0.923,-7.016 -1.754,0.141 -4.675,-0.766 -6.498,-2.719 0,-4.554 6.498,-2.719 4.675,-0.766 1.754,0.141 0.923,-7.016 -1.73,-0.317 -4.317,-1.95 -5.574,-4.308 1.179,-4.4 6.981,-0.944 4.714,0.47 1.657,0.59 2.708,-6.537 -1.589,-0.755 -3.666,-3 -4.268,-5.604 2.277,-3.945 6.987,0.895 4.432,1.674 1.448,0.999 4.308,-5.614 -1.34,-1.14 -2.764,-3.847 -2.673,-6.518 3.221,-3.221 6.518,2.673 3.847,2.764 1.14,1.34 5.614,-4.308 -0.999,-1.448 -1.674,-4.432 -0.895,-6.987 3.945,-2.277 5.604,4.268 3,3.666 0.755,1.589 6.537,-2.708 -0.59,-1.657 -0.47,-4.714 0.944,-6.981 4.4,-1.179 4.308,5.574 1.95,4.317 0.317,1.73 7.016,-0.923 -0.141,-1.754 0.766,-4.675 2.719,-6.498 4.554,0 2.719,6.498 0.766,4.675 -0.141,1.754 7.016,0.923 0.317,-1.73 1.95,-4.317 4.308,-5.574 4.4,1.179 0.944,6.981 -0.47,4.714 -0.59,1.657 6.537,2.708 0.755,-1.589 3,-3.666 5.604,-4.268 3.945,2.277 -0.895,6.987 -1.674,4.432 -0.999,1.448 5.614,4.308 1.14,-1.34 3.847,-2.764 6.518,-2.673 3.221,3.221 -2.673,6.518 -2.764,3.847 -1.34,1.14 4.308,5.614 1.448,-0.999 4.432,-1.674 6.987,-0.895 2.277,3.945 -4.268,5.604 -3.666,3 -1.589,0.755 2.708,6.537 1.657,-0.59 4.714,-0.47 6.981,0.944 1.179,4.4 -5.574,4.308 -4.317,1.95 -1.73,0.317 z"
         style="fill:#cccccc;stroke:#000000" />
    </g>
    <g
       inkscape:label="Gear28"
       transform="matrix(-1,0,0,1,717.86848,552.47341)"
       id="g3149"
       style="fill:#cccccc">
      <path
         style="fill:#cccccc;stroke:#000000"
         d="m 82.552,-5.871 0.989,-0.071 5.446,0.945 6.478,2.67 0,4.654 -6.478,2.67 -5.446,0.945 -0.989,-0.071 -0.763,6.774 0.979,0.152 5.099,2.132 5.722,4.046 -1.036,4.536 -6.91,1.162 -5.519,-0.291 -0.948,-0.288 -2.252,6.434 0.922,0.366 4.496,3.213 4.678,5.217 -2.019,4.193 -6.995,-0.405 -5.316,-1.512 -0.861,-0.492 -3.626,5.772 0.816,0.561 3.669,4.134 3.4,6.127 -2.901,3.638 -6.73,-1.951 -4.847,-2.657 -0.729,-0.671 -4.82,4.82 0.671,0.729 2.657,4.847 1.951,6.73 -3.638,2.901 -6.127,-3.4 -4.134,-3.669 -0.561,-0.816 -5.772,3.626 0.492,0.861 1.512,5.316 0.405,6.995 -4.193,2.019 -5.217,-4.678 -3.213,-4.496 -0.366,-0.922 -6.434,2.252 0.288,0.948 0.291,5.519 -1.162,6.91 -4.536,1.036 -4.046,-5.722 -2.132,-5.099 -0.152,-0.979 -6.774,0.763 0.071,0.989 -0.945,5.446 -2.67,6.478 -4.654,0 -2.67,-6.478 -0.945,-5.446 0.071,-0.989 -6.774,-0.763 -0.152,0.979 -2.132,5.099 -4.046,5.722 -4.536,-1.036 -1.162,-6.91 0.291,-5.519 0.288,-0.948 -6.434,-2.252 -0.366,0.922 -3.213,4.496 -5.217,4.678 -4.193,-2.019 0.405,-6.995 1.512,-5.316 0.492,-0.861 -5.772,-3.626 -0.561,0.816 -4.134,3.669 -6.127,3.4 -3.638,-2.901 1.951,-6.73 2.657,-4.847 0.671,-0.729 -4.82,-4.82 -0.729,0.671 -4.847,2.657 -6.73,1.951 -2.901,-3.638 3.4,-6.127 3.669,-4.134 0.816,-0.561 -3.626,-5.772 -0.861,0.492 -5.316,1.512 -6.995,0.405 -2.019,-4.193 4.678,-5.217 4.496,-3.213 0.922,-0.366 -2.252,-6.434 -0.948,0.288 -5.519,0.291 -6.91,-1.162 -1.036,-4.536 5.722,-4.046 5.099,-2.132 0.979,-0.152 -0.763,-6.774 -0.989,0.071 -5.446,-0.945 -6.478,-2.67 0,-4.654 6.478,-2.67 5.446,-0.945 0.989,0.071 0.763,-6.774 -0.979,-0.152 -5.099,-2.132 -5.722,-4.046 1.036,-4.536 6.91,-1.162 5.519,0.291 0.948,0.288 2.252,-6.434 -0.922,-0.366 -4.496,-3.213 -4.678,-5.217 2.019,-4.193 6.995,0.405 5.316,1.512 0.861,0.492 3.626,-5.772 -0.816,-0.561 -3.669,-4.134 -3.4,-6.127 2.901,-3.638 6.73,1.951 4.847,2.657 0.729,0.671 4.82,-4.82 -0.671,-0.729 -2.657,-4.847 -1.951,-6.73 3.638,-2.901 6.127,3.4 4.134,3.669 0.561,0.816 5.772,-3.626 -0.492,-0.861 -1.512,-5.316 -0.405,-6.995 4.193,-2.019 5.217,4.678 3.213,4.496 0.366,0.922 6.434,-2.252 -0.288,-0.948 -0.291,-5.519 1.162,-6.91 4.536,-1.036 4.046,5.722 2.132,5.099 0.152,0.979 6.774,-0.763 -0.071,-0.989 0.945,-5.446 2.67,-6.478 4.654,0 2.67,6.478 0.945,5.446 -0.071,0.989 6.774,0.763 0.152,-0.979 2.132,-5.099 4.046,-5.722 4.536,1.036 1.162,6.91 -0.291,5.519 -0.288,0.948 6.434,2.252 0.366,-0.922 3.213,-4.496 5.217,-4.678 4.193,2.019 -0.405,6.995 -1.512,5.316 -0.492,0.861 5.772,3.626 0.561,-0.816 4.134,-3.669 6.127,-3.4 3.638,2.901 -1.951,6.73 -2.657,4.847 -0.671,0.729 4.82,4.82 0.729,-0.671 4.847,-2.657 6.73,-1.951 2.901,3.638 -3.4,6.127 -3.669,4.134 -0.816,0.561 3.626,5.772 0.861,-0.492 5.316,-1.512 6.995,-0.405 2.019,4.193 -4.678,5.217 -4.496,3.213 -0.922,0.366 2.252,6.434 0.948,-0.288 5.519,-0.291 6.91,1.162 1.036,4.536 -5.722,4.046 -5.099,2.132 -0.979,0.152 z"
         id="path3151" />
    </g>
    <g
       id="g3205"
       transform="matrix(-1,0,0,1,444.94464,552.47341)"
       inkscape:label="Gear32"
       style="fill:#cccccc">
      <path
         id="path3207"
         d="m 95.298,-6.107 0.222,-0.014 6.216,1.123 6.464,2.633 0,4.73 -6.464,2.633 -6.216,1.123 -0.222,-0.014 -0.64,6.495 0.221,0.03 5.878,2.314 5.825,3.843 -0.923,4.639 -6.852,1.322 -6.316,-0.112 -0.216,-0.057 -1.895,6.246 0.212,0.072 5.313,3.416 4.963,4.906 -1.81,4.37 -6.978,-0.041 -6.173,-1.341 -0.2,-0.098 -3.077,5.756 0.193,0.112 4.545,4.387 3.911,5.78 -2.628,3.933 -6.837,-1.402 -5.792,-2.519 -0.178,-0.136 -4.14,5.046 0.167,0.147 3.602,5.189 2.708,6.432 -3.345,3.345 -6.432,-2.708 -5.189,-3.602 -0.147,-0.167 -5.046,4.14 0.136,0.178 2.519,5.792 1.402,6.837 -3.933,2.628 -5.78,-3.911 -4.387,-4.545 -0.112,-0.193 -5.756,3.077 0.098,0.2 1.341,6.173 0.041,6.978 -4.37,1.81 -4.906,-4.963 -3.416,-5.313 -0.072,-0.212 -6.246,1.895 0.057,0.216 0.112,6.316 -1.322,6.852 -4.639,0.923 -3.843,-5.825 -2.314,-5.878 -0.03,-0.221 -6.495,0.64 0.014,0.222 -1.123,6.216 -2.633,6.464 -4.73,0 -2.633,-6.464 -1.123,-6.216 0.014,-0.222 -6.495,-0.64 -0.03,0.221 -2.314,5.878 -3.843,5.825 -4.639,-0.923 -1.322,-6.852 0.112,-6.316 0.057,-0.216 -6.246,-1.895 -0.072,0.212 -3.416,5.313 -4.906,4.963 -4.37,-1.81 0.041,-6.978 1.341,-6.173 0.098,-0.2 -5.756,-3.077 -0.112,0.193 -4.387,4.545 -5.78,3.911 -3.933,-2.628 1.402,-6.837 2.519,-5.792 0.136,-0.178 -5.046,-4.14 -0.147,0.167 -5.189,3.602 -6.432,2.708 -3.345,-3.345 2.708,-6.432 3.602,-5.189 0.167,-0.147 -4.14,-5.046 -0.178,0.136 -5.792,2.519 -6.837,1.402 -2.628,-3.933 3.911,-5.78 4.545,-4.387 0.193,-0.112 -3.077,-5.756 -0.2,0.098 -6.173,1.341 -6.978,0.041 -1.81,-4.37 4.963,-4.906 5.313,-3.416 0.212,-0.072 -1.895,-6.246 -0.216,0.057 -6.316,0.112 -6.852,-1.322 -0.923,-4.639 5.825,-3.843 5.878,-2.314 0.221,-0.03 -0.64,-6.495 -0.222,0.014 -6.216,-1.123 -6.464,-2.633 0,-4.73 6.464,-2.633 6.216,-1.123 0.222,0.014 0.64,-6.495 -0.221,-0.03 -5.878,-2.314 -5.825,-3.843 0.923,-4.639 6.852,-1.322 6.316,0.112 0.216,0.057 1.895,-6.246 -0.212,-0.072 -5.313,-3.416 -4.963,-4.906 1.81,-4.37 6.978,0.041 6.173,1.341 0.2,0.098 3.077,-5.756 -0.193,-0.112 -4.545,-4.387 -3.911,-5.78 2.628,-3.933 6.837,1.402 5.792,2.519 0.178,0.136 4.14,-5.046 -0.167,-0.147 -3.602,-5.189 -2.708,-6.432 3.345,-3.345 6.432,2.708 5.189,3.602 0.147,0.167 5.046,-4.14 -0.136,-0.178 -2.519,-5.792 -1.402,-6.837 3.933,-2.628 5.78,3.911 4.387,4.545 0.112,0.193 5.756,-3.077 -0.098,-0.2 -1.341,-6.173 -0.041,-6.978 4.37,-1.81 4.906,4.963 3.416,5.313 0.072,0.212 6.246,-1.895 -0.057,-0.216 -0.112,-6.316 1.322,-6.852 4.639,-0.923 3.843,5.825 2.314,5.878 0.03,0.221 6.495,-0.64 -0.014,-0.222 1.123,-6.216 2.633,-6.464 4.73,0 2.633,6.464 1.123,6.216 -0.014,0.222 6.495,0.64 0.03,-0.221 2.314,-5.878 3.843,-5.825 4.639,0.923 1.322,6.852 -0.112,6.316 -0.057,0.216 6.246,1.895 0.072,-0.212 3.416,-5.313 4.906,-4.963 4.37,1.81 -0.041,6.978 -1.341,6.173 -0.098,0.2 5.756,3.077 0.112,-0.193 4.387,-4.545 5.78,-3.911 3.933,2.628 -1.402,6.837 -2.519,5.792 -0.136,0.178 5.046,4.14 0.147,-0.167 5.189,-3.602 6.432,-2.708 3.345,3.345 -2.708,6.432 -3.602,5.189 -0.167,0.147 4.14,5.046 0.178,-0.136 5.792,-2.519 6.837,-1.402 2.628,3.933 -3.911,5.78 -4.545,4.387 -0.193,0.112 3.077,5.756 0.2,-0.098 6.173,-1.341 6.978,-0.041 1.81,4.37 -4.963,4.906 -5.313,3.416 -0.212,0.072 1.895,6.246 0.216,-0.057 6.316,-0.112 6.852,1.322 0.923,4.639 -5.825,3.843 -5.878,2.314 -0.221,0.03 z"
         style="fill:#cccccc;stroke:#000000" />
    </g>
    <g
       inkscape:label="Gear36"
       transform="matrix(-1,0,0,1,146.55182,552.47341)"
       id="g3265"
       style="fill:#cccccc">
      <path
         style="fill:#cccccc;stroke:#000000"
         d="m 108.042,-6.295 6.44,1.297 6.452,2.602 0,4.792 -6.452,2.602 -6.44,1.297 -0.548,6.267 6.117,2.395 5.902,3.683 -0.832,4.719 -6.806,1.443 -6.567,0.159 -1.629,6.076 5.609,3.421 5.172,4.652 -1.639,4.503 -6.952,0.239 -6.496,-0.984 -2.658,5.701 4.929,4.343 4.286,5.48 -2.396,4.15 -6.888,-0.972 -6.226,-2.097 -3.609,5.153 4.101,5.133 3.269,6.141 -3.08,3.67 -6.615,-2.153 -5.767,-3.147 -4.449,4.449 3.147,5.767 2.153,6.615 -3.67,3.08 -6.141,-3.269 -5.133,-4.101 -5.153,3.609 2.097,6.226 0.972,6.888 -4.15,2.396 -5.48,-4.286 -4.343,-4.929 -5.701,2.658 0.984,6.496 -0.239,6.952 -4.503,1.639 -4.652,-5.172 -3.421,-5.609 -6.076,1.629 -0.159,6.567 -1.443,6.806 -4.719,0.832 -3.683,-5.902 -2.395,-6.117 -6.267,0.548 -1.297,6.44 -2.602,6.452 -4.792,0 -2.602,-6.452 -1.297,-6.44 -6.267,-0.548 -2.395,6.117 -3.683,5.902 -4.719,-0.832 -1.443,-6.806 -0.159,-6.567 -6.076,-1.629 -3.421,5.609 -4.652,5.172 -4.503,-1.639 -0.239,-6.952 0.984,-6.496 -5.701,-2.658 -4.343,4.929 -5.48,4.286 -4.15,-2.396 0.972,-6.888 2.097,-6.226 -5.153,-3.609 -5.133,4.101 -6.141,3.269 -3.67,-3.08 2.153,-6.615 3.147,-5.767 -4.449,-4.449 -5.767,3.147 -6.615,2.153 -3.08,-3.67 3.269,-6.141 4.101,-5.133 -3.609,-5.153 -6.226,2.097 -6.888,0.972 -2.396,-4.15 4.286,-5.48 4.929,-4.343 -2.658,-5.701 -6.496,0.984 -6.952,-0.239 -1.639,-4.503 5.172,-4.652 5.609,-3.421 -1.629,-6.076 -6.567,-0.159 -6.806,-1.443 -0.832,-4.719 5.902,-3.683 6.117,-2.395 -0.548,-6.267 -6.44,-1.297 -6.452,-2.602 0,-4.792 6.452,-2.602 6.44,-1.297 0.548,-6.267 -6.117,-2.395 -5.902,-3.683 0.832,-4.719 6.806,-1.443 6.567,-0.159 1.629,-6.076 -5.609,-3.421 -5.172,-4.652 1.639,-4.503 6.952,-0.239 6.496,0.984 2.658,-5.701 -4.929,-4.343 -4.286,-5.48 2.396,-4.15 6.888,0.972 6.226,2.097 3.609,-5.153 -4.101,-5.133 -3.269,-6.141 3.08,-3.67 6.615,2.153 5.767,3.147 4.449,-4.449 -3.147,-5.767 -2.153,-6.615 3.67,-3.08 6.141,3.269 5.133,4.101 5.153,-3.609 -2.097,-6.226 -0.972,-6.888 4.15,-2.396 5.48,4.286 4.343,4.929 5.701,-2.658 -0.984,-6.496 0.239,-6.952 4.503,-1.639 4.652,5.172 3.421,5.609 6.076,-1.629 0.159,-6.567 1.443,-6.806 4.719,-0.832 3.683,5.902 2.395,6.117 6.267,-0.548 1.297,-6.44 2.602,-6.452 4.792,0 2.602,6.452 1.297,6.44 6.267,0.548 2.395,-6.117 3.683,-5.902 4.719,0.832 1.443,6.806 0.159,6.567 6.076,1.629 3.421,-5.609 4.652,-5.172 4.503,1.639 0.239,6.952 -0.984,6.496 5.701,2.658 4.343,-4.929 5.48,-4.286 4.15,2.396 -0.972,6.888 -2.097,6.226 5.153,3.609 5.133,-4.101 6.141,-3.269 3.67,3.08 -2.153,6.615 -3.147,5.767 4.449,4.449 5.767,-3.147 6.615,-2.153 3.08,3.67 -3.269,6.141 -4.101,5.133 3.609,5.153 6.226,-2.097 6.888,-0.972 2.396,4.15 -4.286,5.48 -4.929,4.343 2.658,5.701 6.496,-0.984 6.952,0.239 1.639,4.503 -5.172,4.652 -5.609,3.421 1.629,6.076 6.567,0.159 6.806,1.443 0.832,4.719 -5.902,3.683 -6.117,2.395 z"
         id="path3267" />
    </g>
    <g
       id="g3329"
       transform="translate(159.28582,846.95162)"
       inkscape:label="Gear40"
       style="fill:#cccccc">
      <path
         id="path3331"
         d="m 120.787,-6.419 6.439,1.42 6.442,2.578 0,4.842 -6.442,2.578 -6.439,1.42 -0.483,6.136 6.137,2.41 5.96,3.554 -0.757,4.783 -6.767,1.538 -6.581,0.396 -1.437,5.984 5.685,3.341 5.33,4.442 -1.496,4.605 -6.924,0.461 -6.562,-0.638 -2.355,5.686 5.091,4.188 4.57,5.222 -2.198,4.314 -6.91,-0.628 -6.382,-1.657 -3.216,5.248 4.374,4.933 3.697,5.872 -2.846,3.918 -6.727,-1.702 -6.044,-2.635 -3.997,4.68 3.548,5.558 2.733,6.378 -3.424,3.424 -6.378,-2.733 -5.558,-3.548 -4.68,3.997 2.635,6.044 1.702,6.727 -3.918,2.846 -5.872,-3.697 -4.933,-4.374 -5.248,3.216 1.657,6.382 0.628,6.91 -4.314,2.198 -5.222,-4.57 -4.188,-5.091 -5.686,2.355 0.638,6.562 -0.461,6.924 -4.605,1.496 -4.442,-5.33 -3.341,-5.685 -5.984,1.437 -0.396,6.581 -1.538,6.767 -4.783,0.757 -3.554,-5.96 -2.41,-6.137 -6.136,0.483 -1.42,6.439 -2.578,6.442 -4.842,0 -2.578,-6.442 -1.42,-6.439 -6.136,-0.483 -2.41,6.137 -3.554,5.96 -4.783,-0.757 -1.538,-6.767 -0.396,-6.581 -5.984,-1.437 -3.341,5.685 -4.442,5.33 -4.605,-1.496 -0.461,-6.924 0.638,-6.562 -5.686,-2.355 -4.188,5.091 -5.222,4.57 -4.314,-2.198 0.628,-6.91 1.657,-6.382 -5.248,-3.216 -4.933,4.374 -5.872,3.697 -3.918,-2.846 1.702,-6.727 2.635,-6.044 -4.68,-3.997 -5.558,3.548 -6.378,2.733 -3.424,-3.424 2.733,-6.378 3.548,-5.558 -3.997,-4.68 -6.044,2.635 -6.727,1.702 -2.846,-3.918 3.697,-5.872 4.374,-4.933 -3.216,-5.248 -6.382,1.657 -6.91,0.628 -2.198,-4.314 4.57,-5.222 5.091,-4.188 -2.355,-5.686 -6.562,0.638 -6.924,-0.461 -1.496,-4.605 5.33,-4.442 5.685,-3.341 -1.437,-5.984 -6.581,-0.396 -6.767,-1.538 -0.757,-4.783 5.96,-3.554 6.137,-2.41 -0.483,-6.136 -6.439,-1.42 -6.442,-2.578 0,-4.842 6.442,-2.578 6.439,-1.42 0.483,-6.136 -6.137,-2.41 -5.96,-3.554 0.757,-4.783 6.767,-1.538 6.581,-0.396 1.437,-5.984 -5.685,-3.341 -5.33,-4.442 1.496,-4.605 6.924,-0.461 6.562,0.638 2.355,-5.686 -5.091,-4.188 -4.57,-5.222 2.198,-4.314 6.91,0.628 6.382,1.657 3.216,-5.248 -4.374,-4.933 -3.697,-5.872 2.846,-3.918 6.727,1.702 6.044,2.635 3.997,-4.68 -3.548,-5.558 -2.733,-6.378 3.424,-3.424 6.378,2.733 5.558,3.548 4.68,-3.997 -2.635,-6.044 -1.702,-6.727 3.918,-2.846 5.872,3.697 4.933,4.374 5.248,-3.216 -1.657,-6.382 -0.628,-6.91 4.314,-2.198 5.222,4.57 4.188,5.091 5.686,-2.355 -0.638,-6.562 0.461,-6.924 4.605,-1.496 4.442,5.33 3.341,5.685 5.984,-1.437 0.396,-6.581 1.538,-6.767 4.783,-0.757 3.554,5.96 2.41,6.137 6.136,-0.483 1.42,-6.439 2.578,-6.442 4.842,0 2.578,6.442 1.42,6.439 6.136,0.483 2.41,-6.137 3.554,-5.96 4.783,0.757 1.538,6.767 0.396,6.581 5.984,1.437 3.341,-5.685 4.442,-5.33 4.605,1.496 0.461,6.924 -0.638,6.562 5.686,2.355 4.188,-5.091 5.222,-4.57 4.314,2.198 -0.628,6.91 -1.657,6.382 5.248,3.216 4.933,-4.374 5.872,-3.697 3.918,2.846 -1.702,6.727 -2.635,6.044 4.68,3.997 5.558,-3.548 6.378,-2.733 3.424,3.424 -2.733,6.378 -3.548,5.558 3.997,4.68 6.044,-2.635 6.727,-1.702 2.846,3.918 -3.697,5.872 -4.374,4.933 3.216,5.248 6.382,-1.657 6.91,-0.628 2.198,4.314 -4.57,5.222 -5.091,4.188 2.355,5.686 6.562,-0.638 6.924,0.461 1.496,4.605 -5.33,4.442 -5.685,3.341 1.437,5.984 6.581,0.396 6.767,1.538 0.757,4.783 -5.96,3.554 -6.137,2.41 z"
         style="fill:#cccccc;stroke:#000000" />
    </g>
    <g
       inkscape:label="Gear50"
       transform="translate(473.16615,846.95162)"
       id="g3430"
       style="fill:#cccccc">
      <path
         style="fill:#cccccc;stroke:#000000"
         d="m 152.645,-6.622 6.431,1.623 6.427,2.531 0,4.936 -6.427,2.531 -6.431,1.623 -0.374,5.94 6.178,2.416 6.058,3.316 -0.619,4.898 -6.693,1.705 -6.583,0.804 -1.116,5.846 5.826,3.172 5.595,4.049 -1.228,4.781 -6.854,0.854 -6.632,-0.028 -1.839,5.661 5.382,3.876 5.043,4.719 -1.817,4.589 -6.907,-0.012 -6.577,-0.859 -2.534,5.386 4.854,4.52 4.412,5.314 -2.378,4.325 -6.851,-0.878 -6.417,-1.676 -3.189,5.025 4.249,5.093 3.711,5.825 -2.901,3.994 -6.687,-1.73 -6.157,-2.467 -3.793,4.586 3.577,5.585 2.952,6.244 -3.379,3.599 -6.417,-2.554 -5.799,-3.22 -4.339,4.074 2.849,5.99 2.146,6.565 -3.803,3.146 -6.047,-3.338 -5.35,-3.921 -4.815,3.498 2.076,6.3 1.307,6.782 -4.168,2.645 -5.581,-4.07 -4.816,-4.56 -5.215,2.867 1.27,6.51 0.446,6.892 -4.467,2.102 -5.026,-4.737 -4.207,-5.128 -5.533,2.191 0.444,6.618 -0.421,6.894 -4.695,1.525 -4.393,-5.33 -3.531,-5.615 -5.765,1.481 -0.388,6.621 -1.282,6.787 -4.849,0.925 -3.691,-5.839 -2.799,-6.013 -5.904,0.746 -1.216,6.521 -2.123,6.572 -4.926,0.31 -2.93,-6.255 -2.023,-6.316 -5.952,0 -2.023,6.316 -2.93,6.255 -4.926,-0.31 -2.123,-6.572 -1.216,-6.521 -5.904,-0.746 -2.799,6.013 -3.691,5.839 -4.849,-0.925 -1.282,-6.787 -0.388,-6.621 -5.765,-1.481 -3.531,5.615 -4.393,5.33 -4.695,-1.525 -0.421,-6.894 0.444,-6.618 -5.533,-2.191 -4.207,5.128 -5.026,4.737 -4.467,-2.102 0.446,-6.892 1.27,-6.51 -5.215,-2.867 -4.816,4.56 -5.581,4.07 -4.168,-2.645 1.307,-6.782 2.076,-6.3 -4.815,-3.498 -5.35,3.921 -6.047,3.338 -3.803,-3.146 2.146,-6.565 2.849,-5.99 -4.339,-4.074 -5.799,3.22 -6.417,2.554 -3.379,-3.599 2.952,-6.244 3.577,-5.585 -3.793,-4.586 -6.157,2.467 -6.687,1.73 -2.901,-3.994 3.711,-5.825 4.249,-5.093 -3.189,-5.025 -6.417,1.676 -6.851,0.878 -2.378,-4.325 4.412,-5.314 4.854,-4.52 -2.534,-5.386 -6.577,0.859 -6.907,0.012 -1.817,-4.589 5.043,-4.719 5.382,-3.876 -1.839,-5.661 -6.632,0.028 -6.854,-0.854 -1.228,-4.781 5.595,-4.049 5.826,-3.172 -1.116,-5.846 -6.583,-0.804 -6.693,-1.705 -0.619,-4.898 6.058,-3.316 6.178,-2.416 -0.374,-5.94 -6.431,-1.623 -6.427,-2.531 0,-4.936 6.427,-2.531 6.431,-1.623 0.374,-5.94 -6.178,-2.416 -6.058,-3.316 0.619,-4.898 6.693,-1.705 6.583,-0.804 1.116,-5.846 -5.826,-3.172 -5.595,-4.049 1.228,-4.781 6.854,-0.854 6.632,0.028 1.839,-5.661 -5.382,-3.876 -5.043,-4.719 1.817,-4.589 6.907,0.012 6.577,0.859 2.534,-5.386 -4.854,-4.52 -4.412,-5.314 2.378,-4.325 6.851,0.878 6.417,1.676 3.189,-5.025 -4.249,-5.093 -3.711,-5.825 2.901,-3.994 6.687,1.73 6.157,2.467 3.793,-4.586 -3.577,-5.585 -2.952,-6.244 3.379,-3.599 6.417,2.554 5.799,3.22 4.339,-4.074 -2.849,-5.99 -2.146,-6.565 3.803,-3.146 6.047,3.338 5.35,3.921 4.815,-3.498 -2.076,-6.3 -1.307,-6.782 4.168,-2.645 5.581,4.07 4.816,4.56 5.215,-2.867 -1.27,-6.51 -0.446,-6.892 4.467,-2.102 5.026,4.737 4.207,5.128 5.533,-2.191 -0.444,-6.618 0.421,-6.894 4.695,-1.525 4.393,5.33 3.531,5.615 5.765,-1.481 0.388,-6.621 1.282,-6.787 4.849,-0.925 3.691,5.839 2.799,6.013 5.904,-0.746 1.216,-6.521 2.123,-6.572 4.926,-0.31 2.93,6.255 2.023,6.316 5.952,0 2.023,-6.316 2.93,-6.255 4.926,0.31 2.123,6.572 1.216,6.521 5.904,0.746 2.799,-6.013 3.691,-5.839 4.849,0.925 1.282,6.787 0.388,6.621 5.765,1.481 3.531,-5.615 4.393,-5.33 4.695,1.525 0.421,6.894 -0.444,6.618 5.533,2.191 4.207,-5.128 5.026,-4.737 4.467,2.102 -0.446,6.892 -1.27,6.51 5.215,2.867 4.816,-4.56 5.581,-4.07 4.168,2.645 -1.307,6.782 -2.076,6.3 4.815,3.498 5.35,-3.921 6.047,-3.338 3.803,3.146 -2.146,6.565 -2.849,5.99 4.339,4.074 5.799,-3.22 6.417,-2.554 3.379,3.599 -2.952,6.244 -3.577,5.585 3.793,4.586 6.157,-2.467 6.687,-1.73 2.901,3.994 -3.711,5.825 -4.249,5.093 3.189,5.025 6.417,-1.676 6.851,-0.878 2.378,4.325 -4.412,5.314 -4.854,4.52 2.534,5.386 6.577,-0.859 6.907,-0.012 1.817,4.589 -5.043,4.719 -5.382,3.876 1.839,5.661 6.632,-0.028 6.854,0.854 1.228,4.781 -5.595,4.049 -5.826,3.172 1.116,5.846 6.583,0.804 6.693,1.705 0.619,4.898 -6.058,3.316 -6.178,2.416 z"
         id="path3432" />
    </g>
    <g
       id="g3500"
       transform="translate(850.71445,846.95162)"
       inkscape:label="Gear60"
       style="fill:#cccccc">
      <path
         id="path3502"
         d="m 184.496,-6.748 6.424,1.749 6.416,2.498 0,5.002 -6.416,2.498 -6.424,1.749 -0.305,5.826 6.206,2.411 6.12,3.155 -0.523,4.974 -6.642,1.815 -6.572,1.067 -0.912,5.763 5.92,3.045 5.756,3.778 -1.04,4.893 -6.795,1.11 -6.647,0.374 -1.51,5.636 5.569,3.648 5.33,4.359 -1.546,4.757 -6.874,0.393 -6.65,-0.322 -2.091,5.447 5.158,4.21 4.845,4.892 -2.034,4.569 -6.878,-0.326 -6.58,-1.016 -2.649,5.199 4.69,4.726 4.307,5.371 -2.501,4.332 -6.806,-1.044 -6.437,-1.698 -3.178,4.893 4.17,5.191 3.721,5.792 -2.94,4.047 -6.659,-1.75 -6.224,-2.362 -3.672,4.535 3.604,5.597 3.096,6.15 -3.347,3.717 -6.44,-2.436 -5.944,-2.999 -4.125,4.125 2.999,5.944 2.436,6.44 -3.717,3.347 -6.15,-3.096 -5.597,-3.604 -4.535,3.672 2.362,6.224 1.75,6.659 -4.047,2.94 -5.792,-3.721 -5.191,-4.17 -4.893,3.178 1.698,6.437 1.044,6.806 -4.332,2.501 -5.371,-4.307 -4.726,-4.69 -5.199,2.649 1.016,6.58 0.326,6.878 -4.569,2.034 -4.892,-4.845 -4.21,-5.158 -5.447,2.091 0.322,6.65 -0.393,6.874 -4.757,1.546 -4.359,-5.33 -3.648,-5.569 -5.636,1.51 -0.374,6.647 -1.11,6.795 -4.893,1.04 -3.778,-5.756 -3.045,-5.92 -5.763,0.912 -1.067,6.572 -1.815,6.642 -4.974,0.523 -3.155,-6.12 -2.411,-6.206 -5.826,0.305 -1.749,6.424 -2.498,6.416 -5.002,0 -2.498,-6.416 -1.749,-6.424 -5.826,-0.305 -2.411,6.206 -3.155,6.12 -4.974,-0.523 -1.815,-6.642 -1.067,-6.572 -5.763,-0.912 -3.045,5.92 -3.778,5.756 -4.893,-1.04 -1.11,-6.795 -0.374,-6.647 -5.636,-1.51 -3.648,5.569 -4.359,5.33 -4.757,-1.546 -0.393,-6.874 0.322,-6.65 -5.447,-2.091 -4.21,5.158 -4.892,4.845 -4.569,-2.034 0.326,-6.878 1.016,-6.58 -5.199,-2.649 -4.726,4.69 -5.371,4.307 -4.332,-2.501 1.044,-6.806 1.698,-6.437 -4.893,-3.178 -5.191,4.17 -5.792,3.721 -4.047,-2.94 1.75,-6.659 2.362,-6.224 -4.535,-3.672 -5.597,3.604 -6.15,3.096 -3.717,-3.347 2.436,-6.44 2.999,-5.944 -4.125,-4.125 -5.944,2.999 -6.44,2.436 -3.347,-3.717 3.096,-6.15 3.604,-5.597 -3.672,-4.535 -6.224,2.362 -6.659,1.75 -2.94,-4.047 3.721,-5.792 4.17,-5.191 -3.178,-4.893 -6.437,1.698 -6.806,1.044 -2.501,-4.332 4.307,-5.371 4.69,-4.726 -2.649,-5.199 -6.58,1.016 -6.878,0.326 -2.034,-4.569 4.845,-4.892 5.158,-4.21 -2.091,-5.447 -6.65,0.322 -6.874,-0.393 -1.546,-4.757 5.33,-4.359 5.569,-3.648 -1.51,-5.636 -6.647,-0.374 -6.795,-1.11 -1.04,-4.893 5.756,-3.778 5.92,-3.045 -0.912,-5.763 -6.572,-1.067 -6.642,-1.815 -0.523,-4.974 6.12,-3.155 6.206,-2.411 -0.305,-5.826 -6.424,-1.749 -6.416,-2.498 0,-5.002 6.416,-2.498 6.424,-1.749 0.305,-5.826 -6.206,-2.411 -6.12,-3.155 0.523,-4.974 6.642,-1.815 6.572,-1.067 0.912,-5.763 -5.92,-3.045 -5.756,-3.778 1.04,-4.893 6.795,-1.11 6.647,-0.374 1.51,-5.636 -5.569,-3.648 -5.33,-4.359 1.546,-4.757 6.874,-0.393 6.65,0.322 2.091,-5.447 -5.158,-4.21 -4.845,-4.892 2.034,-4.569 6.878,0.326 6.58,1.016 2.649,-5.199 -4.69,-4.726 -4.307,-5.371 2.501,-4.332 6.806,1.044 6.437,1.698 3.178,-4.893 -4.17,-5.191 -3.721,-5.792 2.94,-4.047 6.659,1.75 6.224,2.362 3.672,-4.535 -3.604,-5.597 -3.096,-6.15 3.347,-3.717 6.44,2.436 5.944,2.999 4.125,-4.125 -2.999,-5.944 -2.436,-6.44 3.717,-3.347 6.15,3.096 5.597,3.604 4.535,-3.672 -2.362,-6.224 -1.75,-6.659 4.047,-2.94 5.792,3.721 5.191,4.17 4.893,-3.178 -1.698,-6.437 -1.044,-6.806 4.332,-2.501 5.371,4.307 4.726,4.69 5.199,-2.649 -1.016,-6.58 -0.326,-6.878 4.569,-2.034 4.892,4.845 4.21,5.158 5.447,-2.091 -0.322,-6.65 0.393,-6.874 4.757,-1.546 4.359,5.33 3.648,5.569 5.636,-1.51 0.374,-6.647 1.11,-6.795 4.893,-1.04 3.778,5.756 3.045,5.92 5.763,-0.912 1.067,-6.572 1.815,-6.642 4.974,-0.523 3.155,6.12 2.411,6.206 5.826,-0.305 1.749,-6.424 2.498,-6.416 5.002,0 2.498,6.416 1.749,6.424 5.826,0.305 2.411,-6.206 3.155,-6.12 4.974,0.523 1.815,6.642 1.067,6.572 5.763,0.912 3.045,-5.92 3.778,-5.756 4.893,1.04 1.11,6.795 0.374,6.647 5.636,1.51 3.648,-5.569 4.359,-5.33 4.757,1.546 0.393,6.874 -0.322,6.65 5.447,2.091 4.21,-5.158 4.892,-4.845 4.569,2.034 -0.326,6.878 -1.016,6.58 5.199,2.649 4.726,-4.69 5.371,-4.307 4.332,2.501 -1.044,6.806 -1.698,6.437 4.893,3.178 5.191,-4.17 5.792,-3.721 4.047,2.94 -1.75,6.659 -2.362,6.224 4.535,3.672 5.597,-3.604 6.15,-3.096 3.717,3.347 -2.436,6.44 -2.999,5.944 4.125,4.125 5.944,-2.999 6.44,-2.436 3.347,3.717 -3.096,6.15 -3.604,5.597 3.672,4.535 6.224,-2.362 6.659,-1.75 2.94,4.047 -3.721,5.792 -4.17,5.191 3.178,4.893 6.437,-1.698 6.806,-1.044 2.501,4.332 -4.307,5.371 -4.69,4.726 2.649,5.199 6.58,-1.016 6.878,-0.326 2.034,4.569 -4.845,4.892 -5.158,4.21 2.091,5.447 6.65,-0.322 6.874,0.393 1.546,4.757 -5.33,4.359 -5.569,3.648 1.51,5.636 6.647,0.374 6.795,1.11 1.04,4.893 -5.756,3.778 -5.92,3.045 0.912,5.763 6.572,1.067 6.642,1.815 0.523,4.974 -6.12,3.155 -6.206,2.411 z"
         style="fill:#cccccc;stroke:#000000" />
    </g>
  </g>
</svg>