<?xml version="1.0" encoding="UTF-8" standalone="no"?>
<svg
   xmlns:svg="http://www.w3.org/2000/svg"
   xmlns="http://www.w3.org/2000/svg"
   xmlns:inkscape="http://www.inkscape.org/namespaces/inkscape"
   width="400mm"
   height="400mm"
   viewBox="0 0 400 400"
   version="1.1"
   id="gear_hobbymat">
   <g>
   
    <g style="fill:#cccccc" transform="translate(200,200)">
        <path style="fill:#cccccc;stroke:#000000;stroke-width:0.050000"
            d="  M  31.25 0.0      
          A 31.25 31.25 0 0 1 31.22465619286155 1.258310628419223
          A 4 4 0 0 1 33.446756530492436 1.8879824125138507
          L 33.39136982249603 2.695630052010316 
          A 4 4 0 0 1 31.104113584926512 3.016060028578596
        
          A 31.25 31.25 0 0 1 30.957443599460284 4.266050373147859
          A 4 4 0 0 1 33.10839826824886 5.107246235596567
          L 32.975320885232016 5.905777892537154 
          A 4 4 0 0 1 30.667816441856665 6.003959917303383
        
          A 31.25 31.25 0 0 1 30.401189696198884 7.233959154966964
          A 4 4 0 0 1 32.46091581194579 8.278825076649927
          L 32.25139026157799 9.060785076106395 
          A 4 4 0 0 1 29.945182159661442 8.935802449959033
        
          A 31.25 31.25 0 0 1 29.56108807589766 10.134326409240076
          A 4 4 0 0 1 31.510354530823076 11.373106758570302
          L 31.22633709671452 12.131194150715352 
          A 4 4 0 0 1 28.942957779930513 11.784213802760007
        
          A 31.25 31.25 0 0 1 28.444982541032328 12.940072188375368
          A 4 4 0 0 1 30.265589559447804 14.361200807002309
          L 29.909732035856447 15.088337534110984 
          A 4 4 0 0 1 27.67050080166281 14.52259912636776
        
          A 31.25 31.25 0 0 1 27.06329386826371 15.624999999999993
          A 4 4 0 0 1 28.738242932974096 17.215208192913742
          L 28.31386786571713 17.90460517528133 
          A 4 4 0 0 1 26.139691812819592 17.12539085483343
        
          A 31.25 31.25 0 0 1 25.42892251245374 18.164041396551138
          A 4 4 0 0 1 26.942575075332233 19.908481818312676
          L 26.45364474007101 20.553702342062692 
          A 4 4 0 0 1 24.364823564475703 19.5682874230723
        
          A 31.25 31.25 0 0 1 23.557128158594278 20.53349003261658
          A 4 4 0 0 1 24.89535165349271 22.415875313021743
          L 24.346431061032483 23.010895127969114 
          A 4 4 0 0 1 22.362467523253788 21.828480164029276
        
          A 31.25 31.25 0 0 1 21.465387246239857 22.71122300469447
          A 4 4 0 0 1 22.615687040951006 24.713977819561155
          L 22.011901314964984 25.25324138601306 
          A 4 4 0 0 1 20.151319148005335 23.884866267057756
        
          A 31.25 31.25 0 0 1 19.17322979670028 24.67690740678265
          A 4 4 0 0 1 20.124865851972295 26.781332574017284
          L 19.471852377102827 27.2598049333504 
          A 4 4 0 0 1 17.752023335348618 25.71824580917676
        
          A 31.25 31.25 0 0 1 16.702057066493783 26.412190173243584
          A 4 4 0 0 1 17.446144212882935 28.59863724206612
          L 16.75 29.011851026778693 
          A 4 4 0 0 1 15.186981663831439 27.31150101957869
        
          A 31.25 31.25 0 0 1 14.074941729581147 27.900869436433254
          A 4 4 0 0 1 14.60453262588494 30.148924139668107
          L 13.8717573859384 30.493021283986657 
          A 4 4 0 0 1 12.480143236427985 28.6497561036432
        
          A 31.25 31.25 0 0 1 11.31641245402552 29.12904579917399
          A 4 4 0 0 1 11.626562452735648 31.41771865576235
          L 10.86399791070537 31.689486417362293 
          A 4 4 0 0 1 9.656781074217108 29.720516134223544
        
          A 31.25 31.25 0 0 1 8.452224884427615 30.085252109680955
          A 4 4 0 0 1 8.540038198571477 32.3931743978101
          L 7.754804214124593 32.5900753543252 
          A 4 4 0 0 1 6.743256148993944 30.513783713414742
        
          A 31.25 31.25 0 0 1 5.50912116841153 30.760560527268666
          A 4 4 0 0 1 5.373777908734972 33.06618379837007
          L 4.573206000014512 33.18637953862142 
          A 4 4 0 0 1 3.76677125797885 31.022152315564174
        
          A 31.25 31.25 0 0 1 2.514580272397689 31.148665879194045
          A 4 4 0 0 1 2.157344102450058 33.430463150001714
          L 1.3489089936654142 33.47283143874756 
          A 4 4 0 0 1 0.7551170386291408 31.240875440006008
        
          A 31.25 31.25 0 0 1 -0.5034385821028466 31.245944530355434
          A 4 4 0 0 1 -1.079232244454782 33.482611274548574
          L -1.8879824125138416 33.44675653049241 
          A 4 4 0 0 1 -2.2635875050550642 31.167910927859072
        
          A 31.25 31.25 0 0 1 -3.5167569662064113 31.051488216197257
          A 4 4 0 0 1 -4.305732090676408 33.2221412790223
          L -5.107246235596557 33.10839826824885 
          A 4 4 0 0 1 -5.261157542094943 30.803940029114077
        
          A 31.25 31.25 0 0 1 -6.497240338054967 30.567112522931414
          A 4 4 0 0 1 -7.492030476483595 32.65148510159132
          L -8.278825076649918 32.460915811945775 
          A 4 4 0 0 1 -8.209605568705827 30.152361041985966
        
          A 31.25 31.25 0 0 1 -9.417060727452984 29.79733993589799
          A 4 4 0 0 1 -10.608377792349314 31.775970805229356
          L -11.373106758570293 31.510354530823058 
          A 4 4 0 0 1 -11.081402720079224 29.219257583919195
        
          A 31.25 31.25 0 0 1 -12.24895655812733 28.749357614338237
          A 4 4 0 0 1 -13.62567754303929 30.60377283102711
          L -14.361200807002298 30.26558955944779 
          A 4 4 0 0 1 -13.849735799976276 28.013341790490728
        
          A 31.25 31.25 0 0 1 -14.966487181719693 27.43295028682513
          A 4 4 0 0 1 -16.51575801374839 29.145835675638203
          L -17.21520819291373 28.73824293297408 
          A 4 4 0 0 1 -16.488757628316634 26.54587297254752
        
          A 31.25 31.25 0 0 1 -17.544279746996263 25.860408893889044
          A 4 4 0 0 1 -19.251635301811287 27.415771705462753
          L -19.908481818312662 26.94257507533221 
          A 4 4 0 0 1 -18.973828369334704 24.830552491054807
        
          A 31.25 31.25 0 0 1 -19.95826609932335 24.046415830817672
          A 4 4 0 0 1 -21.80776525813125 25.42973406164999
          L -22.415875313021726 24.895351653492693 
          A 4 4 0 0 1 -21.28174558708739 22.88339583118041
        
          A 31.25 31.25 0 0 1 -22.185907498542424 22.00790786208716
          A 4 4 0 0 1 -24.160281986017768 23.20626584257157
          L -24.71397781956114 22.61568704095099 
          A 4 4 0 0 1 -23.390960880346892 20.72258307002484
        
          A 31.25 31.25 0 0 1 -24.206405057114186 19.763917987355526
          A 4 4 0 0 1 -26.28722067063359 20.766126971908186
          L -26.78133257401727 20.124865851972285 
          A 4 4 0 0 1 -25.28178107421709 18.36828913413978
        
          A 31.25 31.25 0 0 1 -26.000893933727614 17.335397735473084
          A 4 4 0 0 1 -28.16872265855282 18.132100368835697
          L -28.5986372420661 17.44614421288293 
          A 4 4 0 0 1 -26.93655209000152 15.842495431674699
        
          A 31.25 31.25 0 0 1 -27.552619469240415 14.745021545702567
          A 4 4 0 0 1 -29.787220872657308 15.328779230047237
          L -30.148924139668086 14.60453262588494 
          A 4 4 0 0 1 -28.33982377657952 13.168784617891534
        
          A 31.25 31.25 0 0 1 -28.847093620417127 12.016975062589086
          A 4 4 0 0 1 -31.127603831202496 12.382337409702014
          L -31.41771865576232 11.626562452735648 
          A 4 4 0 0 1 -29.478494164304443 10.372120410266513
        
          A 31.25 31.25 0 0 1 -29.87223023088525 9.176729321113461
          A 4 4 0 0 1 -32.17735673965094 9.320285041201165
          L -32.39317439781007 8.540038198571477 
          A 4 4 0 0 1 -30.3419317945641 7.478614508986184
        
          A 31.25 31.25 0 0 1 -30.618457876320836 6.2508029305013935
          A 4 4 0 0 1 -32.92667833793695 6.171211682484394
          L -33.06618379837005 5.373777908734976 
          A 4 4 0 0 1 -30.922074982845313 4.515282799038174
        
          A 31.25 31.25 0 0 1 -31.078809230258507 3.2665144771141805
          A 4 4 0 0 1 -33.368572412191 2.964519383030519
          L -33.43046315000171 2.1573441024500637 
          A 4 4 0 0 1 -31.21350708851018 1.5097931101721076
        
          A 31.25 31.25 0 0 1 -31.248986116141474 0.25172745816845055
          A 4 4 0 0 1 -33.498913116503665 -0.269851835156551
          L -33.48261127454858 -1.079232244454776 
          A 4 4 0 0 1 -31.213507088510188 -1.5097931101720814
        
          A 31.25 31.25 0 0 1 -31.127399638237886 -2.7654098722299363
          A 4 4 0 0 1 -33.316483494837144 -3.501703519466375
          L -33.22214127902231 -4.305732090676402 
          A 4 4 0 0 1 -30.922074982845327 -4.515282799038149
        
          A 31.25 31.25 0 0 1 -30.715185016732235 -5.756727315750343
          A 4 4 0 0 1 -32.82298684341595 -6.700860741497468
          L -32.65148510159131 -7.492030476483588 
          A 4 4 0 0 1 -30.341931794564108 -7.47861450898616
        
          A 31.25 31.25 0 0 1 -30.016190988480364 -8.694295747389123
          A 4 4 0 0 1 -32.023030807508995 -9.837453832233605
          L -31.775970805229353 -10.608377792349303 
          A 4 4 0 0 1 -29.47849416430445 -10.37212041026649
        
          A 31.25 31.25 0 0 1 -29.036943872390392 -11.55068788218469
          A 4 4 0 0 1 -30.924084361087164 -12.882197267095473
          L -30.603772831027108 -13.625677543039277 
          A 4 4 0 0 1 -28.339823776579525 -13.168784617891507
        
          A 31.25 31.25 0 0 1 -27.786586634941518 -14.299234356387322
          A 4 4 0 0 1 -29.536408071025726 -15.806663096993125
          L -29.145835675638192 -16.515758013748375 
          A 4 4 0 0 1 -26.93655209000152 -15.842495431674672
        
          A 31.25 31.25 0 0 1 -26.276793524769424 -16.914272732122825
          A 4 4 0 0 1 -27.872958296956007 -18.583546372427115
          L -27.415771705462745 -19.25163530181127 
          A 4 4 0 0 1 -25.281781074217093 -18.36828913413975
        
          A 31.25 31.25 0 0 1 -24.521661073352234 -19.371387100660595
          A 4 4 0 0 1 -25.949266221226416 -21.1869200824451
          L -25.429734061649995 -21.807765258131237 
          A 4 4 0 0 1 -23.3909608803469 -20.722583070024815
        
          A 31.25 31.25 0 0 1 -22.537576479494195 -21.647636047174945
          A 4 4 0 0 1 -23.783292838437493 -23.592477228157406
          L -23.206265842571575 -24.160281986017747 
          A 4 4 0 0 1 -21.28174558708741 -22.883395831180383
        
          A 31.25 31.25 0 0 1 -20.343064606465745 -23.721766848554072
          A 4 4 0 0 1 -21.39526125847466 -25.77775777063652
          L -20.766126971908204 -26.287220670633566 
          A 4 4 0 0 1 -18.973828369334733 -24.830552491054778
        
          A 31.25 31.25 0 0 1 -17.958615020346375 -25.57441390434955
          A 4 4 0 0 1 -18.807467888780018 -27.722358334249027
          L -18.132100368835708 -28.1687226585528 
          A 4 4 0 0 1 -16.488757628316655 -26.545872972547492
        
          A 31.25 31.25 0 0 1 -15.406490684466807 -27.188279548169938
          A 4 4 0 0 1 -16.04407425880354 -29.40812270747651
          L -15.328779230047251 -29.78722087265729 
          A 4 4 0 0 1 -13.849735799976303 -28.013341790490706
        
          A 31.25 31.25 0 0 1 -12.710520096118769 -28.548295551331243
          A 4 4 0 0 1 -13.13088143031253 -30.819311362570573
          L -12.38233740970203 -31.127603831202485 
          A 4 4 0 0 1 -11.081402720079254 -29.219257583919177
        
          A 31.25 31.25 0 0 1 -9.895874806296032 -29.64176381084826
          A 4 4 0 0 1 -10.095089099829634 -31.942748411282626
          L -9.320285041201183 -32.17735673965093 
          A 4 4 0 0 1 -8.209605568705861 -30.152361041985948
        
          A 31.25 31.25 0 0 1 -6.988834399704879 -30.458474908200834
          A 4 4 0 0 1 -6.96504164239496 -32.76794462458245
          L -6.17121168248441 -32.926678337936934 
          A 4 4 0 0 1 -5.261157542094978 -30.80394002911405
        
          A 31.25 31.25 0 0 1 -4.0165411293623565 -30.990803431923773
          A 4 4 0 0 1 -3.769963467773312 -33.287195367763445
          L -2.9645193830305367 -33.36857241219099 
          A 4 4 0 0 1 -2.263587505055101 -31.167910927859058
        
          A 31.25 31.25 0 0 1 -1.0067464966929307 -31.23377917401918
          A 4 4 0 0 1 -0.5396861600142916 -33.49565253654101
          L 0.26985183515653244 -33.498913116503644 
          A 4 4 0 0 1 0.7551170386291026 -31.24087544000599
        
          A 31.25 31.25 0 0 1 2.0124478567630746 -31.18513353544934
          A 4 4 0 0 1 2.6956300520102805 -33.39136982249599
          L 3.5017035194663535 -33.31648349483711 
          A 4 4 0 0 1 3.766771257978809 -31.022152315564142
        
          A 31.25 31.25 0 0 1 5.012852526804969 -30.84532070743473
          A 4 4 0 0 1 5.905777892537116 -32.97532088523198
          L 6.700860741497444 -32.82298684341592 
          A 4 4 0 0 1 6.7432561489939 -30.513783713414703
        
          A 31.25 31.25 0 0 1 7.966453543443494 -30.21751343079296
          A 4 4 0 0 1 9.060785076106352 -32.25139026157794
          L 9.837453832233578 -32.023030807508974 
          A 4 4 0 0 1 9.65678107421706 -29.720516134223505
        
          A 31.25 31.25 0 0 1 10.845673929790667 -29.307573372912596
          A 4 4 0 0 1 12.131194150715306 -31.226337096714474
          L 12.882197267095446 -30.924084361087143 
          A 4 4 0 0 1 12.480143236427933 -28.64975610364316
        
          A 31.25 31.25 0 0 1 13.623631180862763 -28.12399639894409
          A 4 4 0 0 1 15.08833753411093 -29.909732035856408
          L 15.806663096993091 -29.536408071025708 
          A 4 4 0 0 1 15.186981663831379 -27.311501019578653
        
          A 31.25 31.25 0 0 1 16.27438825828626 -26.677833248195977
          A 4 4 0 0 1 17.90460517528127 -28.313867865717096
          L 18.583546372427083 -27.872958296955996 
          A 4 4 0 0 1 17.752023335348557 -25.71824580917674
        
          A 31.25 31.25 0 0 1 18.773195757436778 -24.98258635635939
          A 4 4 0 0 1 20.55370234206263 -26.453644740070985
          L 21.186920082445067 -25.94926622122641 
          A 4 4 0 0 1 20.151319148005268 -23.884866267057742
        
          A 31.25 31.25 0 0 1 21.096722985961687 -23.05408378690405
          A 4 4 0 0 1 23.01089512796905 -24.34643106103246
          L 23.59247722815737 -23.783292838437482 
          A 4 4 0 0 1 22.362467523253716 -21.828480164029266
        
          A 31.25 31.25 0 0 1 23.2232757961685 -20.910331448714306
          A 4 4 0 0 1 25.25324138601299 -22.011901314964966
          L 25.777757770636484 -21.395261258474644 
          A 4 4 0 0 1 24.364823564475632 -19.56828742307229
        
          A 31.25 31.25 0 0 1 25.13299913743671 -18.571344979769286
          A 4 4 0 0 1 27.259804933350328 -19.47185237710282
          L 27.722358334248995 -18.807467888780007 
          A 4 4 0 0 1 26.139691812819517 -17.125390854833434
        
          A 31.25 31.25 0 0 1 26.808062437475762 -16.058962866524016
          A 4 4 0 0 1 29.011851026778622 -16.75
          L 29.40812270747648 -16.04407425880353 
          A 4 4 0 0 1 27.67050080166274 -14.52259912636777
        
          A 31.25 31.25 0 0 1 28.232826081574377 -13.396642543845447
          A 4 4 0 0 1 30.493021283986586 -13.871757385938407
          L 30.819311362570538 -13.130881430312522 
          A 4 4 0 0 1 28.94295777993045 -11.784213802760021
        
          A 31.25 31.25 0 0 1 29.393987435469217 -10.60924137926336
          A 4 4 0 0 1 31.689486417362218 -10.863997910705384
          L 31.94274841128259 -10.09508909982963 
          A 4 4 0 0 1 29.94518215966137 -8.935802449959054
        
          A 31.25 31.25 0 0 1 30.28070504845682 -7.722784586427192
          A 4 4 0 0 1 32.59007535432513 -7.75480421412461
          L 32.767944624582405 -6.965041642394958 
          A 4 4 0 0 1 30.667816441856594 -6.003959917303407
        
          A 31.25 31.25 0 0 1 30.88469987709775 -4.764222234698316
          A 4 4 0 0 1 33.18637953862135 -4.573206000014534
          L 33.28719536776341 -3.769963467773313 
          A 4 4 0 0 1 31.10411358492645 -3.0160600285786248
        
          A 31.25 31.25 0 0 1 31.200332584414515 -1.7611776236136976
          A 4 4 0 0 1 33.47283143874751 -1.348908993665441
          L 33.49565253654098 -0.5396861600142956 
          A 4 4 0 0 1 31.24999999999993 -3.448733835822548e-14
        
         z"
            id="gear" />
    </g>
        
   
    <g style="fill:#ffcccc"  transform="translate(200,200)">
        <path style="fill:#ffcccc;stroke:#000000;stroke-width:0.050000"
            d="M 1.961161351381842 9.8058067569092 A 10 10 0 1 0 -1.9611613513818411 9.8058067569092
              L -1.9611613513818411 11.8058067569092  1.961161351381842 11.8058067569092  1.961161351381842 9.8058067569092"
            id="bearing" />
    </g>
        
   </g>
   
</svg>
