<?xml version="1.0" encoding="UTF-8" standalone="no"?>
<svg
   xmlns:svg="http://www.w3.org/2000/svg"
   xmlns="http://www.w3.org/2000/svg"
   xmlns:inkscape="http://www.inkscape.org/namespaces/inkscape"
   width="400mm"
   height="200mm"
   viewBox="0 0 400 200"
   version="1.1"
   id="gear_hobbymat">
   <defs>
     
            <path id="gear" style="fill:#cccccc;stroke:#000000;stroke-width:0.025000"
                d="  M  43.75 0.0      
          A 43.75 43.75 0 0 1 43.73500796768063 1.1452414884694502
          A 5.063 5.063 0 0 1 45.96378122695361 1.825052141925564
          L 45.92709659182182 2.588783236477729 
          A 5.063 5.063 0 0 1 43.64342719886731 3.0518457263054812
        
          A 43.75 43.75 0 0 1 43.548583678564064 4.193251672759798
          A 5.063 5.063 0 0 1 45.72450656419642 5.02687770497334
          L 45.63463610294735 5.786189398176783 
          A 5.063 5.063 0 0 1 43.32422800744369 6.088823167002861
        
          A 43.75 43.75 0 0 1 43.14999506725387 7.220832756404644
          A 5.063 5.063 0 0 1 45.262466701669794 8.204212825142466
          L 45.119848254156906 8.955405826753644 
          A 5.063 5.063 0 0 1 42.793957532103995 9.096136473276967
        
          A 43.75 43.75 0 0 1 42.54118401739835 10.213234668695858
          A 5.063 5.063 0 0 1 44.579912651139885 11.34157784511209
          L 44.385241040103494 12.080992418336809 
          A 5.063 5.063 0 0 1 42.05519919730144 12.05913431699371
        
          A 43.75 43.75 0 0 1 41.72511659523492 13.155878728311944
          A 5.063 5.063 0 0 1 43.68016974733077 14.423687837871743
          L 43.43439339329153 15.14772162923495 
          A 5.063 5.063 0 0 1 41.111552159383486 14.963381270498003
        
          A 43.75 43.75 0 0 1 40.70576859921357 16.034428669188
          A 5.063 5.063 0 0 1 42.56762144722797 17.435527073349316
          L 42.27193774787741 18.140652662999106 
          A 5.063 5.063 0 0 1 39.96761377186379 17.79472813456625
        
          A 43.75 43.75 0 0 1 39.488106190306404 18.834860485362903
          A 5.063 5.063 0 0 1 41.24768797431663 20.362422173538587
          L 40.90353747091596 21.045204260481164 
          A 5.063 5.063 0 0 1 38.62895718757807 20.539380871882713
        
          A 43.75 43.75 0 0 1 38.07806169737063 21.543530754526678
          A 5.063 5.063 0 0 1 39.72679991179751 23.190113599721894
          L 39.335859271005404 23.84722573826269 
          A 5.063 5.063 0 0 1 37.10210420684365 23.183967810202702
        
          A 43.75 43.75 0 0 1 36.482504715438616 24.14724310740253
          A 5.063 5.063 0 0 1 38.01236687343206 25.904825123509422
          L 37.57654071875325 26.53306592936215 
          A 5.063 5.063 0 0 1 35.39449350390395 25.715604787795684
        
          A 43.75 43.75 0 0 1 34.70920863774154 26.633312519131515
          A 5.063 5.063 0 0 1 36.11274140464901 28.493330943239133
          L 35.634153037299996 29.08963969034822 
          A 5.063 5.063 0 0 1 33.51444438645529 28.121957923786084
        
          A 43.75 43.75 0 0 1 32.76681278451884 28.9896271094385
          A 5.063 5.063 0 0 1 34.03717828978258 30.94302011875299
          L 33.518159344181555 31.50449165084327 
          A 5.063 5.063 0 0 1 31.471116264815983 30.391303707581116
        
          A 43.75 43.75 0 0 1 30.66478031311847 31.20470715049543
          A 5.063 5.063 0 0 1 31.795789463693527 33.241958010629794
          L 31.238868547971858 33.765856894835835 
          A 5.063 5.063 0 0 1 29.274464028200036 32.51258611463597
        
          A 43.75 43.75 0 0 1 28.413352114445523 33.267760995001325
          A 5.063 5.063 0 0 1 29.39949474743894 35.37894442454872
          L 28.807385124316525 35.862718278168806 
          A 5.063 5.063 0 0 1 26.935189545497533 34.47547047029405
        
          A 43.75 43.75 0 0 1 26.023496920371166 35.168737652003216
          A 5.063 5.063 0 0 1 26.85996864800171 37.343568177510306
          L 26.235555016043755 37.78486010295839 
          A 5.063 5.063 0 0 1 24.464689526845156 36.27039379928303
        
          A 43.75 43.75 0 0 1 23.506857865173526 36.8983757543137
          A 5.063 5.063 0 0 1 24.189583481266027 39.12625782007343
          L 23.535907920921588 39.52291788744722 
          A 5.063 5.063 0 0 1 21.874999999999982 37.888611415569144
        
          A 43.75 43.75 0 0 1 20.87569576135785 38.44824867896094
          A 5.063 5.063 0 0 1 21.40134909533804 40.718328267494826
          L 20.72159624822988 41.06842398881822 
          A 5.063 5.063 0 0 1 19.178737672022116 39.3222395255885
        
          A 43.75 43.75 0 0 1 18.14282936621044 39.81080560084871
          A 5.063 5.063 0 0 1 18.50884948787366 42.112023112589036
          L 17.80633104154437 42.41384885669924 
          A 5.063 5.063 0 0 1 16.389038461946136 40.56429363729689
        
          A 43.75 43.75 0 0 1 15.321572930101688 40.97940827961734
          A 5.063 5.063 0 0 1 15.52617662620741 43.30055241416447
          L 14.8043151799106 43.5526377163756 
          A 5.063 5.063 0 0 1 13.519493503903938 41.60872258791291
        
          A 43.75 43.75 0 0 1 12.425671330796604 41.94836340048339
          A 5.063 5.063 0 0 1 12.46786179270409 44.27812577693442
          L 11.73017418284486 44.47924250299362 
          A 5.063 5.063 0 0 1 10.584082932485453 42.45043802457479
        
          A 43.75 43.75 0 0 1 9.469233109791993 42.712950311497025
          A 5.063 5.063 0 0 1 9.348804789811803 45.03998056174076
          L 8.598884956273286 45.18914889117487 
          A 5.063 5.063 0 0 1 7.597107772928199 43.08533919428404
        
          A 43.75 43.75 0 0 1 6.466661736920463 43.269444022083796
          A 5.063 5.063 0 0 1 6.184201349722124 45.582405088653324
          L 5.425702826551643 45.67889828835567 
          A 5.063 5.063 0 0 1 4.57312026795984 43.51033292236189
        
          A 43.75 43.75 0 0 1 3.43258543809322 43.61513335082428
          A 5.063 5.063 0 0 1 2.9894691022903457 45.902756719901305
          L 2.226087218048782 45.946104684702405 
          A 5.063 5.063 0 0 1 1.526852980734424 43.72334868208536
        
          A 43.75 43.75 0 0 1 0.38178592805386846 43.748334134057416
          A 5.063 5.063 0 0 1 -0.21982753810740802 45.99947473453889
          L -0.9843736636149079 45.98946627751157 
          A 5.063 5.063 0 0 1 -1.5268529807344051 43.723348682085366
        
          A 43.75 43.75 0 0 1 -2.6708736046499735 43.66839743095661
          A 5.063 5.063 0 0 1 -3.428053200836489 45.872087932120856
          L -4.190038775738361 45.80877181346168 
          A 5.063 5.063 0 0 1 -4.573120267959822 43.51033292236189
        
          A 43.75 43.75 0 0 1 -5.710520909627237 43.37571268510413
          A 5.063 5.063 0 0 1 -6.619577732957797 45.52121692834366
          L -7.375290440127641 45.40490161781825 
          A 5.063 5.063 0 0 1 -7.5971077729281795 43.085339194284025
        
          A 43.75 43.75 0 0 1 -8.72234713075235 42.871705827161215
          A 5.063 5.063 0 0 1 -9.778852347761761 44.948571131468306
          L -10.52461043085422 44.779823305577544 
          A 5.063 5.063 0 0 1 -10.584082932485433 42.45043802457476
        
          A 43.75 43.75 0 0 1 -11.691678953423706 42.158832327877164
          A 5.063 5.063 0 0 1 -12.89048537689423 44.156940414255004
          L -13.622655577491818 43.936582195444174 
          A 5.063 5.063 0 0 1 -13.519493503903911 41.60872258791289
        
          A 43.75 43.75 0 0 1 -14.604050091477436 41.24056523528272
          A 5.063 5.063 0 0 1 -15.939317257017526 43.15018152198359
          L -16.654332515500425 42.8792864733444 
          A 5.063 5.063 0 0 1 -16.3890384619461 40.56429363729687
        
          A 43.75 43.75 0 0 1 -17.44527176547947 40.121378254349096
          A 5.063 5.063 0 0 1 -18.9104943856792 41.93319928277816
          L -19.604871219581163 41.6130871777573 
          A 5.063 5.063 0 0 1 -19.178737672022084 39.32223952558848
        
          A 43.75 43.75 0 0 1 -20.20150182903268 38.80672395154712
          A 5.063 5.063 0 0 1 -21.789541486570098 40.511922711777466
          L -22.45989696175487 40.14415310437305 
          A 5.063 5.063 0 0 1 -21.87499999999994 37.888611415569116
        
          A 43.75 43.75 0 0 1 -22.8593122063227 37.303007190491456
          A 5.063 5.063 0 0 1 -24.562432131615477 38.89327612556924
          L -25.20550034359185 38.479640752340465 
          A 5.063 5.063 0 0 1 -24.464689526845103 36.270393799283
        
          A 43.75 43.75 0 0 1 -25.40575431235354 35.61755392808889
          A 5.063 5.063 0 0 1 -27.215657076322664 37.08514540761567
          L -27.828305061402887 36.62765945852244 
          A 5.063 5.063 0 0 1 -26.93518954549747 34.475470470294006
        
          A 43.75 43.75 0 0 1 -27.82842213715209 33.75857552321267
          A 5.063 5.063 0 0 1 -29.73629007546229 35.09633958902199
          L -30.315533074246208 34.59723188962194 
          A 5.063 5.063 0 0 1 -29.274464028199958 32.51258611463593
        
          A 43.75 43.75 0 0 1 -30.115512686601644 31.735128731787515
          A 5.063 5.063 0 0 1 -32.11205085843569 32.93654793182231
          L -32.65506685725853 32.398250084656794 
          A 5.063 5.063 0 0 1 -31.47111626481589 30.391303707581066
        
          A 43.75 43.75 0 0 1 -32.25588348544283 29.557071583185074
          A 5.063 5.063 0 0 1 -34.331364957518865 30.616292723869016
          L -34.83550843701814 30.041427261939916 
          A 5.063 5.063 0 0 1 -33.51444438645519 28.121957923786038
        
          A 43.75 43.75 0 0 1 -34.239106862293006 27.2350153528958
          A 5.063 5.063 0 0 1 -36.383420097505734 28.146878015304015
          L -36.84623492132565 27.538245625356573 
          A 5.063 5.063 0 0 1 -35.39449350390384 25.715604787795645
        
          A 43.75 43.75 0 0 1 -36.05552075221307 24.780272865461384
          A 5.063 5.063 0 0 1 -38.258218872026156 25.540334546362732
          L -38.67745025286705 24.900900424221263 
          A 5.063 5.063 0 0 1 -37.102104206843514 23.183967810202674
        
          A 43.75 43.75 0 0 1 -37.69627576931663 22.20480337953077
          A 5.063 5.063 0 0 1 -39.946627449904774 22.809361134817035
          L -40.32023293462017 22.142240539248913 
          A 5.063 5.063 0 0 1 -38.628957187577925 20.539380871882692
        
          A 43.75 43.75 0 0 1 -39.153378320088464 19.52115432355411
          A 5.063 5.063 0 0 1 -41.44042007426842 19.96726280861147
          L -41.76657949449148 19.275705884099576 
          A 5.063 5.063 0 0 1 -39.967613771863654 17.794728134566242
        
          A 43.75 43.75 0 0 1 -40.41972954736866 16.742400165972665
          A 5.063 5.063 0 0 1 -42.73231913760668 17.027885985104586
          L -43.00944347742752 16.315261927470083 
          A 5.063 5.063 0 0 1 -41.11155215938336 14.963381270498
        
          A 43.75 43.75 0 0 1 -41.48915991527109 13.882078717722775
          A 5.063 5.063 0 0 1 -43.81603063754423 14.005551012715381
          L -44.04276977503567 13.275331654734346 
          A 5.063 5.063 0 0 1 -42.05519919730132 12.059134316993713
        
          A 43.75 43.75 0 0 1 -42.35645926654209 10.954125177381815
          A 5.063 5.063 0 0 1 -44.68627484058767 10.914982403625295
          L -44.861524125463596 10.170725300608417 
          A 5.063 5.063 0 0 1 -42.793957532103875 9.096136473276978
        
          A 43.75 43.75 0 0 1 -43.01740220592289 7.972804240281462
          A 5.063 5.063 0 0 1 -45.33881200445639 7.7712370974349385
          L -45.46171763981688 7.0165681951756556 
          A 5.063 5.063 0 0 1 -43.32422800744358 6.088823167002879
        
          A 43.75 43.75 0 0 1 -43.468768685850584 4.952640602345937
          A 5.063 5.063 0 0 1 -45.77046303368086 4.589631105267901
          L -45.84042623562487 3.8282270747989657 
          A 5.063 5.063 0 0 1 -43.643427198867194 3.0518457263055048
        
          A 43.75 43.75 0 0 1 -43.70835969420616 1.9083481972334764
          A 5.063 5.063 0 0 1 -45.97912496783608 1.3856648917041046
          L -45.99580488267642 0.6212352169258974 
          A 5.063 5.063 0 0 1 -43.74999999999988 3.1677559126533e-14
        
          A 43.75 43.75 0 0 1 -43.73500796768051 -1.1452414884694153
          A 5.063 5.063 0 0 1 -45.96378122695348 -1.8250521419255257
          L -45.927096591821694 -2.5887832364776884 
          A 5.063 5.063 0 0 1 -43.64342719886719 -3.0518457263054413
        
          A 43.75 43.75 0 0 1 -43.54858367856394 -4.1932516727597555
          A 5.063 5.063 0 0 1 -45.72450656419629 -5.026877704973294
          L -45.63463610294722 -5.7861893981767345 
          A 5.063 5.063 0 0 1 -43.32422800744357 -6.088823167002813
        
          A 43.75 43.75 0 0 1 -43.14999506725375 -7.220832756404593
          A 5.063 5.063 0 0 1 -45.262466701669666 -8.204212825142411
          L -45.11984825415678 -8.955405826753587 
          A 5.063 5.063 0 0 1 -42.79395753210387 -9.09613647327691
        
          A 43.75 43.75 0 0 1 -42.54118401739822 -10.213234668695797
          A 5.063 5.063 0 0 1 -44.57991265113975 -11.341577845112024
          L -44.38524104010336 -12.080992418336741 
          A 5.063 5.063 0 0 1 -42.05519919730131 -12.059134316993644
        
          A 43.75 43.75 0 0 1 -41.725116595234795 -13.155878728311874
          A 5.063 5.063 0 0 1 -43.68016974733064 -14.423687837871668
          L -43.4343933932914 -15.147721629234873 
          A 5.063 5.063 0 0 1 -41.111552159383365 -14.963381270497928
        
          A 43.75 43.75 0 0 1 -40.70576859921345 -16.03442866918792
          A 5.063 5.063 0 0 1 -42.56762144722784 -17.435527073349235
          L -42.27193774787728 -18.140652662999024 
          A 5.063 5.063 0 0 1 -39.96761377186367 -17.79472813456617
        
          A 43.75 43.75 0 0 1 -39.48810619030628 -18.83486048536282
          A 5.063 5.063 0 0 1 -41.2476879743165 -20.362422173538494
          L -40.90353747091583 -21.04520426048107 
          A 5.063 5.063 0 0 1 -38.628957187577946 -20.539380871882624
        
          A 43.75 43.75 0 0 1 -38.07806169737051 -21.543530754526586
          A 5.063 5.063 0 0 1 -39.72679991179738 -23.190113599721798
          L -39.335859271005276 -23.847225738262594 
          A 5.063 5.063 0 0 1 -37.10210420684353 -23.183967810202613
        
          A 43.75 43.75 0 0 1 -36.4825047154385 -24.14724310740244
          A 5.063 5.063 0 0 1 -38.012366873431944 -25.904825123509323
          L -37.57654071875314 -26.533065929362046 
          A 5.063 5.063 0 0 1 -35.39449350390385 -25.715604787795584
        
          A 43.75 43.75 0 0 1 -34.70920863774144 -26.63331251913141
          A 5.063 5.063 0 0 1 -36.1127414046489 -28.49333094323902
          L -35.634153037299896 -29.089639690348104 
          A 5.063 5.063 0 0 1 -33.514444386455196 -28.12195792378597
        
          A 43.75 43.75 0 0 1 -32.76681278451875 -28.989627109438384
          A 5.063 5.063 0 0 1 -34.03717828978248 -30.943020118752866
          L -33.51815934418146 -31.504491650843143 
          A 5.063 5.063 0 0 1 -31.471116264815894 -30.391303707580995
        
          A 43.75 43.75 0 0 1 -30.664780313118385 -31.204707150495306
          A 5.063 5.063 0 0 1 -31.795789463693442 -33.24195801062966
          L -31.238868547971776 -33.7658568948357 
          A 5.063 5.063 0 0 1 -29.27446402819996 -32.512586114635845
        
          A 43.75 43.75 0 0 1 -28.413352114445452 -33.2677609950012
          A 5.063 5.063 0 0 1 -29.39949474743887 -35.378944424548585
          L -28.807385124316458 -35.86271827816867 
          A 5.063 5.063 0 0 1 -26.935189545497472 -34.47547047029392
        
          A 43.75 43.75 0 0 1 -26.02349692037111 -35.16873765200309
          A 5.063 5.063 0 0 1 -26.859968648001654 -37.34356817751017
          L -26.2355550160437 -37.78486010295825 
          A 5.063 5.063 0 0 1 -24.46468952684511 -36.27039379928289
        
          A 43.75 43.75 0 0 1 -23.506857865173483 -36.89837575431356
          A 5.063 5.063 0 0 1 -24.189583481265984 -39.126257820073285
          L -23.53590792092155 -39.52291788744708 
          A 5.063 5.063 0 0 1 -21.874999999999947 -37.88861141556901
        
          A 43.75 43.75 0 0 1 -20.875695761357818 -38.4482486789608
          A 5.063 5.063 0 0 1 -21.401349095338013 -40.718328267494684
          L -20.72159624822985 -41.068423988818076 
          A 5.063 5.063 0 0 1 -19.178737672022095 -39.322239525588365
        
          A 43.75 43.75 0 0 1 -18.14282936621042 -39.810805600848575
          A 5.063 5.063 0 0 1 -18.508849487873643 -42.11202311258889
          L -17.806331041544357 -42.4138488566991 
          A 5.063 5.063 0 0 1 -16.38903846194612 -40.56429363729676
        
          A 43.75 43.75 0 0 1 -15.321572930101677 -40.9794082796172
          A 5.063 5.063 0 0 1 -15.5261766262074 -43.30055241416433
          L -14.804315179910592 -43.55263771637546 
          A 5.063 5.063 0 0 1 -13.519493503903933 -41.608722587912766
        
          A 43.75 43.75 0 0 1 -12.425671330796602 -41.948363400483245
          A 5.063 5.063 0 0 1 -12.46786179270409 -44.27812577693427
          L -11.730174182844861 -44.47924250299347 
          A 5.063 5.063 0 0 1 -10.584082932485456 -42.450438024574645
        
          A 43.75 43.75 0 0 1 -9.469233109792 -42.71295031149688
          A 5.063 5.063 0 0 1 -9.348804789811812 -45.03998056174061
          L -8.598884956273297 -45.18914889117472 
          A 5.063 5.063 0 0 1 -7.5971077729282115 -43.0853391942839
        
          A 43.75 43.75 0 0 1 -6.4666617369204795 -43.269444022083654
          A 5.063 5.063 0 0 1 -6.1842013497221435 -45.582405088653175
          L -5.425702826551666 -45.67889828835552 
          A 5.063 5.063 0 0 1 -4.5731202679598635 -43.51033292236175
        
          A 43.75 43.75 0 0 1 -3.4325854380932466 -43.61513335082414
          A 5.063 5.063 0 0 1 -2.9894691022903754 -45.902756719901156
          L -2.2260872180488143 -45.946104684702256 
          A 5.063 5.063 0 0 1 -1.5268529807344566 -43.723348682085216
        
          A 43.75 43.75 0 0 1 -0.3817859280539049 -43.748334134057274
          A 5.063 5.063 0 0 1 0.21982753810736774 -45.999474734538744
          L 0.9843736636148651 -45.98946627751142 
          A 5.063 5.063 0 0 1 1.5268529807343627 -43.72334868208522
        
          A 43.75 43.75 0 0 1 2.6708736046499277 -43.66839743095647
          A 5.063 5.063 0 0 1 3.4280532008364384 -45.87208793212071
          L 4.190038775738308 -45.80877181346154 
          A 5.063 5.063 0 0 1 4.573120267959769 -43.510332922361755
        
          A 43.75 43.75 0 0 1 5.710520909627181 -43.375712685104
          A 5.063 5.063 0 0 1 6.619577732957737 -45.52121692834352
          L 7.375290440127578 -45.404901617818105 
          A 5.063 5.063 0 0 1 7.5971077729281165 -43.08533919428389
        
          A 43.75 43.75 0 0 1 8.722347130752285 -42.87170582716108
          A 5.063 5.063 0 0 1 9.77885234776169 -44.948571131468164
          L 10.524610430854148 -44.7798233055774 
          A 5.063 5.063 0 0 1 10.584082932485362 -42.45043802457462
        
          A 43.75 43.75 0 0 1 11.691678953423631 -42.158832327877036
          A 5.063 5.063 0 0 1 12.89048537689415 -44.15694041425487
          L 13.622655577491736 -43.93658219544404 
          A 5.063 5.063 0 0 1 13.519493503903831 -41.60872258791276
        
          A 43.75 43.75 0 0 1 14.604050091477355 -41.2405652352826
          A 5.063 5.063 0 0 1 15.93931725701744 -43.15018152198346
          L 16.654332515500336 -42.87928647334427 
          A 5.063 5.063 0 0 1 16.389038461946015 -40.56429363729674
        
          A 43.75 43.75 0 0 1 17.44527176547938 -40.121378254348976
          A 5.063 5.063 0 0 1 18.910494385679105 -41.933199282778034
          L 19.604871219581067 -41.61308717775718 
          A 5.063 5.063 0 0 1 19.178737672021988 -39.322239525588365
        
          A 43.75 43.75 0 0 1 20.20150182903258 -38.80672395154701
          A 5.063 5.063 0 0 1 21.789541486569995 -40.511922711777366
          L 22.45989696175476 -40.144153104372954 
          A 5.063 5.063 0 0 1 21.874999999999833 -37.88861141556902
        
          A 43.75 43.75 0 0 1 22.859312206322592 -37.303007190491364
          A 5.063 5.063 0 0 1 24.562432131615363 -38.89327612556914
          L 25.205500343591737 -38.479640752340366 
          A 5.063 5.063 0 0 1 24.464689526844992 -36.2703937992829
        
          A 43.75 43.75 0 0 1 25.40575431235343 -35.61755392808879
          A 5.063 5.063 0 0 1 27.215657076322547 -37.08514540761557
          L 27.828305061402766 -36.62765945852234 
          A 5.063 5.063 0 0 1 26.935189545497355 -34.47547047029392
        
          A 43.75 43.75 0 0 1 27.82842213715197 -33.758575523212585
          A 5.063 5.063 0 0 1 29.736290075462165 -35.096339589021895
          L 30.315533074246083 -34.597231889621845 
          A 5.063 5.063 0 0 1 29.274464028199837 -32.51258611463584
        
          A 43.75 43.75 0 0 1 30.115512686601523 -31.735128731787427
          A 5.063 5.063 0 0 1 32.112050858435566 -32.93654793182222
          L 32.65506685725841 -32.39825008465671 
          A 5.063 5.063 0 0 1 31.471116264815773 -30.391303707580988
        
          A 43.75 43.75 0 0 1 32.25588348544271 -29.557071583185
          A 5.063 5.063 0 0 1 34.33136495751873 -30.616292723868938
          L 34.83550843701801 -30.04142726193984 
          A 5.063 5.063 0 0 1 33.51444438645506 -28.121957923785967
        
          A 43.75 43.75 0 0 1 34.23910686229287 -27.235015352895733
          A 5.063 5.063 0 0 1 36.38342009750559 -28.146878015303948
          L 36.84623492132551 -27.53824562535651 
          A 5.063 5.063 0 0 1 35.3944935039037 -25.715604787795588
        
          A 43.75 43.75 0 0 1 36.055520752212935 -24.78027286546133
          A 5.063 5.063 0 0 1 38.25821887202601 -25.540334546362683
          L 38.677450252866905 -24.900900424221213 
          A 5.063 5.063 0 0 1 37.10210420684338 -23.183967810202624
        
          A 43.75 43.75 0 0 1 37.696275769316486 -22.204803379530723
          A 5.063 5.063 0 0 1 39.946627449904625 -22.80936113481699
          L 40.32023293462002 -22.142240539248867 
          A 5.063 5.063 0 0 1 38.62895718757778 -20.53938087188265
        
          A 43.75 43.75 0 0 1 39.15337832008832 -19.52115432355407
          A 5.063 5.063 0 0 1 41.44042007426826 -19.967262808611427
          L 41.766579494491324 -19.275705884099537 
          A 5.063 5.063 0 0 1 39.967613771863505 -17.794728134566206
        
          A 43.75 43.75 0 0 1 40.41972954736851 -16.742400165972633
          A 5.063 5.063 0 0 1 42.73231913760652 -17.027885985104554
          L 43.009443477427354 -16.315261927470054 
          A 5.063 5.063 0 0 1 41.1115521593832 -14.963381270497974
        
          A 43.75 43.75 0 0 1 41.48915991527093 -13.882078717722756
          A 5.063 5.063 0 0 1 43.81603063754406 -14.005551012715364
          L 44.0427697750355 -13.275331654734332 
          A 5.063 5.063 0 0 1 42.05519919730116 -12.0591343169937
        
          A 43.75 43.75 0 0 1 42.35645926654192 -10.954125177381806
          A 5.063 5.063 0 0 1 44.68627484058749 -10.914982403625286
          L 44.86152412546341 -10.170725300608412 
          A 5.063 5.063 0 0 1 42.793957532103704 -9.096136473276974
        
          A 43.75 43.75 0 0 1 43.017402205922714 -7.972804240281462
          A 5.063 5.063 0 0 1 45.33881200445621 -7.771237097434942
          L 45.4617176398167 -7.016568195175663 
          A 5.063 5.063 0 0 1 43.3242280074434 -6.0888231670028885
        
          A 43.75 43.75 0 0 1 43.46876868585041 -4.952640602345952
          A 5.063 5.063 0 0 1 45.77046303368067 -4.5896311052679195
          L 45.840426235624676 -3.8282270747989875 
          A 5.063 5.063 0 0 1 43.643427198867016 -3.051845726305528
        
          A 43.75 43.75 0 0 1 43.70835969420598 -1.9083481972335041
          A 5.063 5.063 0 0 1 45.97912496783589 -1.3856648917041363
          L 45.995804882676225 -0.6212352169259322 
          A 5.063 5.063 0 0 1 43.749999999999694 -6.715642534824996e-14
        
         z"
            />
        
     
        <circle id="reinforcement" style="fill:#cccccc;stroke:#000000;stroke-width:0.025000"
            cx="0" cy="0" r="15"
        />
        
     
        <path id="bearing" style="fill:#ffcccc;stroke:#000000;stroke-width:0.025000"
            d="M 1.961161351381842 9.8058067569092 A 10 10 0 1 0 -1.9611613513818411 9.8058067569092
              L -1.9611613513818411 11.8058067569092  1.961161351381842 11.8058067569092  1.961161351381842 9.8058067569092"
        />
        
   </defs>

   <!--
   module                   : 1.000000
   nb-teeth                 : 90
   ratio-teeth-gap-foot     : 0.600000
   teeth-curvature          : 5.000000
   ratio-teeth-head-foot    : 0.400000
   -->

   <g>
     <!-- first gear -->
     <use href="#gear"    id="gear_1"    transform="translate(100,100) rotate(0)" >
      <animateTransform attributeType="xml" attributeName="transform" type="rotate" from="0 0 0" to="360 0 0" dur="30.000000s" additive="sum" repeatCount="indefinite" />
     </use>
     <use href="#bearing" id="bearing_1" transform="translate(100,100)">
      <animateTransform attributeType="xml" attributeName="transform" type="rotate" from="0 0 0" to="360 0 0" dur="30.000000s" additive="sum" repeatCount="indefinite" />
     </use>

     <!-- second gear -->
     <use href="#gear"    id="gear_2"    transform="translate(190.000000,100) rotate(0)">
      <animateTransform attributeType="xml" attributeName="transform" type="rotate" from="0.500000 0 0" to="-359.500000 0 0" dur="30.000000s" additive="sum" repeatCount="indefinite" />
    </use>
     
     <use href="#bearing" id="bearing_2" transform="translate(190.000000,100) rotate(0)">
       <animateTransform attributeType="xml" attributeName="transform" type="rotate" from="0.500000 0 0" to="-359.500000 0 0" dur="30.000000s" additive="sum" repeatCount="indefinite" />
     </use>

     <!-- reference lines -->
     
     <!-- gear1 horizontal axis -->
     <path style="stroke:#ff0000;stroke-width:0.050000" d="M 0 100 L 300 100" ></path>
     <!-- gear1 vertical axis -->
     <path style="stroke:#ff0000;stroke-width:0.050000" d="M 100 0 L 100 200" ></path>
    
     <!-- middle vertical -->
     <path style="fill:#ffcccc;stroke:#000000;stroke-width:0.050000" d="M 145.000000 0 L 145.000000 300" ></path>

     <!-- gear2 vertical axis -->     
     <path style="stroke:#0000ff;stroke-width:0.050000" d="M 190.000000 0 L 190.000000 300" ></path>

   </g>
   
</svg>
