<?xml version="1.0" encoding="UTF-8" standalone="no"?>
<svg
   xmlns:svg="http://www.w3.org/2000/svg"
   xmlns="http://www.w3.org/2000/svg"
   xmlns:inkscape="http://www.inkscape.org/namespaces/inkscape"
   width="400mm"
   height="400mm"
   viewBox="0 0 400 400"
   version="1.1"
   id="gear_hobbymat">
   <g>
   
    <g style="fill:#cccccc" transform="translate(200,200)">
        <path style="fill:#cccccc;stroke:#000000;stroke-width:0.050000"
            d="  M  28.75 0.0      
          A 28.75 28.75 0 0 1 28.722636370478412 1.25405738675341
          A 4 4 0 0 1 30.94217875107788 1.892504725580563
          L 30.882035640844116 2.701828025177403 
          A 4 4 0 0 1 28.592504491837865 3.005193318945037
        
          A 28.75 28.75 0 0 1 28.434206071655115 4.249520569976305
          A 4 4 0 0 1 30.57485364765418 5.1164757816810065
          L 30.430442686877587 5.9150788566728885 
          A 4 4 0 0 1 28.121743521096917 5.97746111101058
        
          A 28.75 28.75 0 0 1 27.834244660870603 7.198425116565191
          A 4 4 0 0 1 29.87254404946732 8.284389658425964
          L 29.645447434854105 9.06352284640484 
          A 4 4 0 0 1 27.34287484348567 8.88423858827974
        
          A 28.75 28.75 0 0 1 26.929325440891436 10.068462211209692
          A 4 4 0 0 1 28.84294460744277 11.361538028453218
          L 28.53565045702566 12.11266498316749 
          A 4 4 0 0 1 26.264431907224786 11.69367848842926
        
          A 28.75 28.75 0 0 1 25.72936289605823 12.82818712690701
          A 4 4 0 0 1 27.497335828524886 14.314207010286058
          L 27.11321092132128 15.029098227636455 
          A 4 4 0 0 1 24.898230358802618 14.375000000000007
        
          A 28.75 28.75 0 0 1 24.24750406712047 15.447363739971193
          A 4 4 0 0 1 25.850460484082223 17.11004654467381
          L 25.393713372958754 17.780869526882437 
          A 4 4 0 0 1 23.259238588279747 16.89882600340861
        
          A 28.75 28.75 0 0 1 22.49998450950691 17.897295803331573
          A 4 4 0 0 1 23.92036208501933 19.718424828610694
          L 23.395996986905942 20.337829898705735 
          A 4 4 0 0 1 21.365413732475094 19.23750493281718
        
          A 28.75 28.75 0 0 1 20.50595041318273 20.151141348620722
          A 4 4 0 0 1 21.72818719329539 22.11076392377964
          L 21.141949161937468 22.671964750194295 
          A 4 4 0 0 1 19.23750493281719 21.365413732475094
        
          A 28.75 28.75 0 0 1 18.28724883298573 22.184206772396962
          A 4 4 0 0 1 19.29795373576622 24.260852862424844
          L 18.65626571771351 24.75770081146609 
          A 4 4 0 0 1 16.898826003408615 23.25923858827975
        
          A 28.75 28.75 0 0 1 15.868188327721686 23.974217384431096
          A 4 4 0 0 1 16.656287858751554 26.145134820199466
          L 15.966180322211697 26.572186321765493 
          A 4 4 0 0 1 14.375000000000016 24.89823035880262
        
          A 28.75 28.75 0 0 1 13.275272630507242 25.501561453873883
          A 4 4 0 0 1 13.832132206404092 27.74296520966279
          L 13.101166113961701 28.09554139813616 
          A 4 4 0 0 1 11.693678488429272 26.264431907224786
        
          A 28.75 28.75 0 0 1 10.536910268323563 26.749505079483217
          A 4 4 0 0 1 10.85642881904351 29.03683786670034
          L 10.092612788171873 29.311075843578834 
          A 4 4 0 0 1 8.884238588279754 27.342874843485674
        
          A 28.75 28.75 0 0 1 7.6831033122499 27.70437552974792
          A 4 4 0 0 1 7.7617801256877 30.012576851721352
          L 6.973482684659831 30.2054720083423 
          A 4 4 0 0 1 5.977461111010595 28.12174352109692
        
          A 28.75 28.75 0 0 1 4.745118668494497 28.355711044195413
          A 4 4 0 0 1 4.582091745017945 30.659491764219432
          L 3.777949645559588 30.768930700880993 
          A 4 4 0 0 1 3.0051933189450515 28.592504491837865
        
          A 28.75 28.75 0 0 1 1.7551455116271493 28.696375454628683
          A 4 4 0 0 1 1.352201008325431 30.970494869037598
          L 0.5410245995558037 30.995278549848134 
          A 4 4 0 0 1 1.3694242872291749e-14 28.750000000000004
        
          A 28.75 28.75 0 0 1 -1.2540573867533964 28.722636370478416
          A 4 4 0 0 1 -1.8925047255805487 30.942178751077883
          L -2.701828025177389 30.88203564084412 
          A 4 4 0 0 1 -3.0051933189450235 28.592504491837865
        
          A 28.75 28.75 0 0 1 -4.249520569976292 28.434206071655115
          A 4 4 0 0 1 -5.116475781680993 30.57485364765418
          L -5.915078856672875 30.430442686877587 
          A 4 4 0 0 1 -5.977461111010568 28.121743521096917
        
          A 28.75 28.75 0 0 1 -7.198425116565178 27.834244660870603
          A 4 4 0 0 1 -8.28438965842595 29.87254404946732
          L -9.063522846404826 29.645447434854105 
          A 4 4 0 0 1 -8.884238588279727 27.34287484348567
        
          A 28.75 28.75 0 0 1 -10.06846221120968 26.929325440891436
          A 4 4 0 0 1 -11.361538028453204 28.84294460744277
          L -12.112664983167475 28.53565045702566 
          A 4 4 0 0 1 -11.693678488429246 26.264431907224786
        
          A 28.75 28.75 0 0 1 -12.828187126906995 25.72936289605823
          A 4 4 0 0 1 -14.314207010286044 27.497335828524886
          L -15.02909822763644 27.113210921321283 
          A 4 4 0 0 1 -14.374999999999995 24.89823035880262
        
          A 28.75 28.75 0 0 1 -15.44736373997118 24.247504067120474
          A 4 4 0 0 1 -17.1100465446738 25.850460484082227
          L -17.780869526882427 25.393713372958757 
          A 4 4 0 0 1 -16.8988260034086 23.259238588279754
        
          A 28.75 28.75 0 0 1 -17.897295803331563 22.499984509506916
          A 4 4 0 0 1 -19.718424828610683 23.92036208501934
          L -20.337829898705724 23.395996986905953 
          A 4 4 0 0 1 -19.237504932817174 21.365413732475105
        
          A 28.75 28.75 0 0 1 -20.151141348620715 20.50595041318274
          A 4 4 0 0 1 -22.110763923779633 21.7281871932954
          L -22.671964750194288 21.14194916193748 
          A 4 4 0 0 1 -21.365413732475087 19.2375049328172
        
          A 28.75 28.75 0 0 1 -22.184206772396955 18.28724883298574
          A 4 4 0 0 1 -24.260852862424837 19.297953735766235
          L -24.757700811466083 18.656265717713524 
          A 4 4 0 0 1 -23.259238588279743 16.89882600340863
        
          A 28.75 28.75 0 0 1 -23.974217384431093 15.8681883277217
          A 4 4 0 0 1 -26.145134820199463 16.65628785875157
          L -26.57218632176549 15.966180322211711 
          A 4 4 0 0 1 -24.898230358802618 14.375000000000028
        
          A 28.75 28.75 0 0 1 -25.50156145387388 13.275272630507255
          A 4 4 0 0 1 -27.742965209662785 13.832132206404104
          L -28.09554139813616 13.101166113961714 
          A 4 4 0 0 1 -26.264431907224786 11.693678488429285
        
          A 28.75 28.75 0 0 1 -26.749505079483217 10.536910268323576
          A 4 4 0 0 1 -29.036837866700342 10.856428819043522
          L -29.311075843578838 10.092612788171886 
          A 4 4 0 0 1 -27.342874843485678 8.884238588279766
        
          A 28.75 28.75 0 0 1 -27.704375529747924 7.683103312249912
          A 4 4 0 0 1 -30.012576851721356 7.7617801256877135
          L -30.20547200834231 6.973482684659844 
          A 4 4 0 0 1 -28.121743521096928 5.977461111010608
        
          A 28.75 28.75 0 0 1 -28.35571104419542 4.745118668494509
          A 4 4 0 0 1 -30.65949176421944 4.582091745017959
          L -30.768930700881 3.777949645559601 
          A 4 4 0 0 1 -28.59250449183787 3.0051933189450635
        
          A 28.75 28.75 0 0 1 -28.69637545462869 1.7551455116271608
          A 4 4 0 0 1 -30.97049486903761 1.3522010083254434
          L -30.99527854984815 0.5410245995558158 
          A 4 4 0 0 1 -28.750000000000018 2.4711415709398644e-14
        
          A 28.75 28.75 0 0 1 -28.72263637047843 -1.2540573867533862
          A 4 4 0 0 1 -30.9421787510779 -1.8925047255805378
          L -30.882035640844137 -2.7018280251773787 
          A 4 4 0 0 1 -28.592504491837882 -3.0051933189450146
        
          A 28.75 28.75 0 0 1 -28.434206071655133 -4.2495205699762835
          A 4 4 0 0 1 -30.574853647654198 -5.116475781680984
          L -30.430442686877605 -5.915078856672867 
          A 4 4 0 0 1 -28.121743521096935 -5.977461111010561
        
          A 28.75 28.75 0 0 1 -27.834244660870624 -7.198425116565172
          A 4 4 0 0 1 -29.872544049467344 -8.284389658425944
          L -29.64544743485413 -9.06352284640482 
          A 4 4 0 0 1 -27.342874843485692 -8.884238588279723
        
          A 28.75 28.75 0 0 1 -26.929325440891457 -10.068462211209678
          A 4 4 0 0 1 -28.842944607442792 -11.361538028453202
          L -28.53565045702568 -12.112664983167473 
          A 4 4 0 0 1 -26.264431907224804 -11.693678488429244
        
          A 28.75 28.75 0 0 1 -25.729362896058248 -12.828187126906993
          A 4 4 0 0 1 -27.497335828524907 -14.314207010286044
          L -27.113210921321304 -15.02909822763644 
          A 4 4 0 0 1 -24.898230358802643 -14.374999999999995
        
          A 28.75 28.75 0 0 1 -24.247504067120495 -15.447363739971182
          A 4 4 0 0 1 -25.850460484082248 -17.1100465446738
          L -25.39371337295878 -17.780869526882427 
          A 4 4 0 0 1 -23.25923858827977 -16.8988260034086
        
          A 28.75 28.75 0 0 1 -22.499984509506934 -17.897295803331563
          A 4 4 0 0 1 -23.92036208501936 -19.718424828610686
          L -23.39599698690597 -20.337829898705728 
          A 4 4 0 0 1 -21.36541373247512 -19.237504932817174
        
          A 28.75 28.75 0 0 1 -20.505950413182756 -20.151141348620715
          A 4 4 0 0 1 -21.72818719329542 -22.110763923779633
          L -21.141949161937497 -22.671964750194288 
          A 4 4 0 0 1 -19.237504932817217 -21.365413732475087
        
          A 28.75 28.75 0 0 1 -18.287248832985757 -22.184206772396955
          A 4 4 0 0 1 -19.297953735766253 -24.260852862424837
          L -18.65626571771354 -24.757700811466083 
          A 4 4 0 0 1 -16.898826003408644 -23.259238588279743
        
          A 28.75 28.75 0 0 1 -15.868188327721715 -23.974217384431093
          A 4 4 0 0 1 -16.656287858751586 -26.145134820199463
          L -15.966180322211729 -26.57218632176549 
          A 4 4 0 0 1 -14.375000000000046 -24.898230358802618
        
          A 28.75 28.75 0 0 1 -13.275272630507272 -25.501561453873883
          A 4 4 0 0 1 -13.832132206404124 -27.74296520966279
          L -13.101166113961733 -28.095541398136163 
          A 4 4 0 0 1 -11.693678488429303 -26.26443190722479
        
          A 28.75 28.75 0 0 1 -10.536910268323593 -26.74950507948322
          A 4 4 0 0 1 -10.856428819043542 -29.036837866700346
          L -10.092612788171905 -29.31107584357884 
          A 4 4 0 0 1 -8.884238588279782 -27.342874843485685
        
          A 28.75 28.75 0 0 1 -7.683103312249927 -27.70437552974793
          A 4 4 0 0 1 -7.7617801256877295 -30.012576851721363
          L -6.97348268465986 -30.205472008342316 
          A 4 4 0 0 1 -5.977461111010623 -28.121743521096935
        
          A 28.75 28.75 0 0 1 -4.7451186684945235 -28.355711044195427
          A 4 4 0 0 1 -4.582091745017974 -30.659491764219446
          L -3.777949645559616 -30.76893070088101 
          A 4 4 0 0 1 -3.0051933189450777 -28.592504491837882
        
          A 28.75 28.75 0 0 1 -1.7551455116271746 -28.6963754546287
          A 4 4 0 0 1 -1.352201008325458 -30.97049486903762
          L -0.5410245995558303 -30.99527854984816 
          A 4 4 0 0 1 -3.789083742107792e-14 -28.75000000000003
        
          A 28.75 28.75 0 0 1 1.2540573867533735 -28.72263637047844
          A 4 4 0 0 1 1.8925047255805243 -30.94217875107791
          L 2.7018280251773654 -30.882035640844148 
          A 4 4 0 0 1 3.005193318945002 -28.592504491837893
        
          A 28.75 28.75 0 0 1 4.249520569976272 -28.434206071655147
          A 4 4 0 0 1 5.116475781680972 -30.57485364765422
          L 5.915078856672855 -30.430442686877626 
          A 4 4 0 0 1 5.977461111010549 -28.121743521096956
        
          A 28.75 28.75 0 0 1 7.198425116565161 -27.834244660870645
          A 4 4 0 0 1 8.284389658425933 -29.872544049467365
          L 9.06352284640481 -29.645447434854155 
          A 4 4 0 0 1 8.884238588279713 -27.342874843485717
        
          A 28.75 28.75 0 0 1 10.068462211209667 -26.929325440891485
          A 4 4 0 0 1 11.361538028453193 -28.842944607442824
          L 12.112664983167466 -28.535650457025714 
          A 4 4 0 0 1 11.693678488429239 -26.264431907224836
        
          A 28.75 28.75 0 0 1 12.82818712690699 -25.729362896058284
          A 4 4 0 0 1 14.314207010286038 -27.497335828524943
          L 15.029098227636435 -27.11321092132134 
          A 4 4 0 0 1 14.37499999999999 -24.898230358802675
        
          A 28.75 28.75 0 0 1 15.447363739971177 -24.247504067120527
          A 4 4 0 0 1 17.110046544673796 -25.850460484082284
          L 17.780869526882423 -25.393713372958814 
          A 4 4 0 0 1 16.898826003408598 -23.259238588279803
        
          A 28.75 28.75 0 0 1 17.897295803331563 -22.499984509506966
          A 4 4 0 0 1 19.718424828610686 -23.920362085019395
          L 20.33782989870573 -23.395996986906006 
          A 4 4 0 0 1 19.237504932817178 -21.365413732475155
        
          A 28.75 28.75 0 0 1 20.151141348620722 -20.50595041318279
          A 4 4 0 0 1 22.11076392377964 -21.728187193295458
          L 22.6719647501943 -21.141949161937532 
          A 4 4 0 0 1 21.365413732475098 -19.23750493281725
        
          A 28.75 28.75 0 0 1 22.18420677239697 -18.28724883298579
          A 4 4 0 0 1 24.260852862424855 -19.29795373576629
          L 24.757700811466105 -18.656265717713577 
          A 4 4 0 0 1 23.25923858827976 -16.898826003408676
        
          A 28.75 28.75 0 0 1 23.97421738443111 -15.868188327721747
          A 4 4 0 0 1 26.145134820199484 -16.656287858751618
          L 26.57218632176551 -15.96618032221176 
          A 4 4 0 0 1 24.89823035880264 -14.375000000000075
        
          A 28.75 28.75 0 0 1 25.501561453873904 -13.275272630507299
          A 4 4 0 0 1 27.742965209662813 -13.832132206404152
          L 28.095541398136188 -13.10116611396176 
          A 4 4 0 0 1 26.26443190722481 -11.693678488429327
        
          A 28.75 28.75 0 0 1 26.749505079483246 -10.536910268323618
          A 4 4 0 0 1 29.036837866700374 -10.856428819043568
          L 29.31107584357887 -10.092612788171932 
          A 4 4 0 0 1 27.342874843485713 -8.884238588279807
        
          A 28.75 28.75 0 0 1 27.704375529747963 -7.683103312249951
          A 4 4 0 0 1 30.0125768517214 -7.761780125687754
          L 30.20547200834235 -6.973482684659884 
          A 4 4 0 0 1 28.121743521096967 -5.977461111010644
        
          A 28.75 28.75 0 0 1 28.35571104419546 -4.745118668494544
          A 4 4 0 0 1 30.65949176421948 -4.582091745017995
          L 30.768930700881047 -3.7779496455596364 
          A 4 4 0 0 1 28.592504491837918 -3.0051933189450963
        
          A 28.75 28.75 0 0 1 28.69637545462874 -1.7551455116271917
          A 4 4 0 0 1 30.970494869037662 -1.3522010083254759
          L 30.9952785498482 -0.5410245995558469 
          A 4 4 0 0 1 28.75000000000007 -5.271768684671711e-14
        
         z"
            id="gear" />
    </g>
        
   
    <g style="fill:#ffcccc"  transform="translate(200,200)">
        <path style="fill:#ffcccc;stroke:#000000;stroke-width:0.050000"
            d="M 1.961161351381842 9.8058067569092 A 10 10 0 1 0 -1.9611613513818411 9.8058067569092
              L -1.9611613513818411 11.8058067569092  1.961161351381842 11.8058067569092  1.961161351381842 9.8058067569092"
            id="bearing" />
    </g>
        
   </g>
   
</svg>
