<?xml version="1.0" encoding="UTF-8" standalone="no"?>
<svg
   xmlns:svg="http://www.w3.org/2000/svg"
   xmlns="http://www.w3.org/2000/svg"
   xmlns:inkscape="http://www.inkscape.org/namespaces/inkscape"
   width="400mm"
   height="200mm"
   viewBox="0 0 400 200"
   version="1.1"
   id="gear_hobbymat">
   <defs>
     
            <path id="gear" style="fill:#cccccc;stroke:#000000;stroke-width:0.025000"
                d="  M  18.75 0.0      
          A 18.75 18.75 0 0 1 18.717480190963425 1.1038275684597942
          A 5.0 5.0 0 0 1 20.91435905093596 1.8946201435996206
          L 20.834466789003447 2.6315382607731017 
          A 5.0 5.0 0 0 1 18.519156386158844 2.93314621950433
        
          A 18.75 18.75 0 0 1 18.314360274766372 4.018296619969703
          A 5.0 5.0 0 0 1 20.360484697011398 5.14302079548251
          L 20.166296649958394 5.8583683245318126 
          A 5.0 5.0 0 0 1 17.83230968053415 5.794068644530269
        
          A 18.75 18.75 0 0 1 17.460280026727585 6.833821872734063
          A 5.0 5.0 0 0 1 19.3052676372718 8.264783206673195
          L 19.00156535928993 8.940945917330788 
          A 5.0 5.0 0 0 1 16.706372328531923 8.512321870116514
        
          A 18.75 18.75 0 0 1 16.176269737083622 9.481075750837224
          A 5.0 5.0 0 0 1 17.774690817792603 11.183039226072706
          L 17.368952466895855 11.803367748346822 
          A 5.0 5.0 0 0 1 15.169068644530297 11.020973480483889
        
          A 18.75 18.75 0 0 1 14.49394600055135 11.894874078068373
          A 5.0 5.0 0 0 1 15.806442119562615 13.82593170534698
          L 15.308658320518447 14.375151492266898 
          A 5.0 5.0 0 0 1 13.258252147247799 13.258252147247793
        
          A 18.75 18.75 0 0 1 12.454733210836563 14.01578112867372
          A 5.0 5.0 0 0 1 13.448986357775171 16.128383860399016
          L 12.871414199765766 16.592971298054795 
          A 5.0 5.0 0 0 1 11.020973480483901 15.1690686445303
        
          A 18.75 18.75 0 0 1 10.108843554581282 15.79157313218041
          A 5.0 5.0 0 0 1 10.760371917232593 18.033701677770832
          L 10.117233143640238 18.402217081570086 
          A 5.0 5.0 0 0 1 8.512321870116528 16.70637232853194
        
          A 18.75 18.75 0 0 1 7.514040620683916 17.17852419594634
          A 5.0 5.0 0 0 1 7.806801408460788 19.494969909411427
          L 7.113932230346542 19.758339207080105 
          A 5.0 5.0 0 0 1 5.7940686445302845 17.832309680534173
        
          A 18.75 18.75 0 0 1 4.73421706903423 18.142482981754917
          A 5.0 5.0 0 0 1 4.661001539724247 20.4762072817866
          L 3.9354626957542496 20.627945447143517 
          A 5.0 5.0 0 0 1 2.9331462195043434 18.51915638615888
        
          A 18.75 18.75 0 0 1 1.8378213811792734 18.65971362510374
          A 5.0 5.0 0 0 1 1.4004323441024575 20.953252474248337
          L 0.6600890085406204 20.98962321007231 
          A 5.0 5.0 0 0 1 7.236275071217538e-15 18.750000000000053
        
          A 18.75 18.75 0 0 1 -1.10382756845979 18.717480190963478
          A 5.0 5.0 0 0 1 -1.8946201435996175 20.914359050936017
          L -2.6315382607731004 20.834466789003503 
          A 5.0 5.0 0 0 1 -2.9331462195043305 18.519156386158894
        
          A 18.75 18.75 0 0 1 -4.018296619969707 18.314360274766422
          A 5.0 5.0 0 0 1 -5.143020795482515 20.360484697011454
          L -5.85836832453182 20.16629664995845 
          A 5.0 5.0 0 0 1 -5.7940686445302765 17.8323096805342
        
          A 18.75 18.75 0 0 1 -6.833821872734073 17.460280026727634
          A 5.0 5.0 0 0 1 -8.264783206673206 19.305267637271854
          L -8.9409459173308 19.00156535928998 
          A 5.0 5.0 0 0 1 -8.512321870116526 16.706372328531966
        
          A 18.75 18.75 0 0 1 -9.48107575083724 16.176269737083665
          A 5.0 5.0 0 0 1 -11.183039226072728 17.77469081779265
          L -11.803367748346846 17.368952466895898 
          A 5.0 5.0 0 0 1 -11.02097348048391 15.169068644530334
        
          A 18.75 18.75 0 0 1 -11.894874078068396 14.493946000551386
          A 5.0 5.0 0 0 1 -13.825931705347006 15.806442119562652
          L -14.375151492266927 15.308658320518484 
          A 5.0 5.0 0 0 1 -13.25825214724782 13.25825214724783
        
          A 18.75 18.75 0 0 1 -14.015781128673748 12.454733210836594
          A 5.0 5.0 0 0 1 -16.128383860399047 13.448986357775203
          L -16.592971298054827 12.871414199765796 
          A 5.0 5.0 0 0 1 -15.169068644530329 11.020973480483926
        
          A 18.75 18.75 0 0 1 -15.79157313218044 10.108843554581306
          A 5.0 5.0 0 0 1 -18.033701677770868 10.760371917232618
          L -18.40221708157012 10.117233143640261 
          A 5.0 5.0 0 0 1 -16.706372328531973 8.512321870116548
        
          A 18.75 18.75 0 0 1 -17.178524195946377 7.514040620683934
          A 5.0 5.0 0 0 1 -19.49496990941147 7.806801408460807
          L -19.758339207080148 7.113932230346559 
          A 5.0 5.0 0 0 1 -17.832309680534213 5.794068644530299
        
          A 18.75 18.75 0 0 1 -18.142482981754956 4.7342170690342416
          A 5.0 5.0 0 0 1 -20.476207281786643 4.661001539724258
          L -20.62794544714356 3.935462695754259 
          A 5.0 5.0 0 0 1 -18.51915638615892 2.9331462195043505
        
          A 18.75 18.75 0 0 1 -18.65971362510378 1.8378213811792783
          A 5.0 5.0 0 0 1 -20.95325247424838 1.4004323441024615
          L -20.989623210072352 0.6600890085406228 
          A 5.0 5.0 0 0 1 -18.75000000000009 8.227545628918571e-15
        
          A 18.75 18.75 0 0 1 -18.717480190963514 -1.1038275684597914
          A 5.0 5.0 0 0 1 -20.91435905093606 -1.8946201435996206
          L -20.834466789003546 -2.6315382607731053 
          A 5.0 5.0 0 0 1 -18.519156386158933 -2.933146219504336
        
          A 18.75 18.75 0 0 1 -18.31436027476646 -4.018296619969714
          A 5.0 5.0 0 0 1 -20.360484697011497 -5.143020795482525
          L -20.166296649958493 -5.858368324531831 
          A 5.0 5.0 0 0 1 -17.832309680534237 -5.794068644530288
        
          A 18.75 18.75 0 0 1 -17.460280026727673 -6.833821872734086
          A 5.0 5.0 0 0 1 -19.305267637271896 -8.264783206673222
          L -19.001565359290023 -8.940945917330819 
          A 5.0 5.0 0 0 1 -16.706372328532005 -8.512321870116542
        
          A 18.75 18.75 0 0 1 -16.1762697370837 -9.481075750837258
          A 5.0 5.0 0 0 1 -17.77469081779269 -11.183039226072749
          L -17.368952466895937 -11.803367748346867 
          A 5.0 5.0 0 0 1 -15.16906864453037 -11.02097348048393
        
          A 18.75 18.75 0 0 1 -14.493946000551421 -11.894874078068417
          A 5.0 5.0 0 0 1 -15.806442119562691 -13.825931705347031
          L -15.308658320518521 -14.375151492266951 
          A 5.0 5.0 0 0 1 -13.258252147247864 -13.258252147247843
        
          A 18.75 18.75 0 0 1 -12.454733210836627 -14.015781128673773
          A 5.0 5.0 0 0 1 -13.44898635777524 -16.12838386039908
          L -12.871414199765834 -16.592971298054863 
          A 5.0 5.0 0 0 1 -11.02097348048396 -15.169068644530359
        
          A 18.75 18.75 0 0 1 -10.108843554581338 -15.791573132180472
          A 5.0 5.0 0 0 1 -10.760371917232654 -18.033701677770903
          L -10.117233143640297 -18.402217081570157 
          A 5.0 5.0 0 0 1 -8.51232187011658 -16.70637232853201
        
          A 18.75 18.75 0 0 1 -7.514040620683964 -17.178524195946412
          A 5.0 5.0 0 0 1 -7.806801408460839 -19.494969909411513
          L -7.11393223034659 -19.758339207080194 
          A 5.0 5.0 0 0 1 -5.794068644530324 -17.832309680534255
        
          A 18.75 18.75 0 0 1 -4.7342170690342655 -18.142482981755002
          A 5.0 5.0 0 0 1 -4.661001539724283 -20.476207281786696
          L -3.9354626957542815 -20.627945447143617 
          A 5.0 5.0 0 0 1 -2.933146219504369 -18.51915638615897
        
          A 18.75 18.75 0 0 1 -1.837821381179294 -18.659713625103834
          A 5.0 5.0 0 0 1 -1.4004323441024775 -20.953252474248444
          L -0.6600890085406366 -20.989623210072416 
          A 5.0 5.0 0 0 1 -1.8735013540549517e-14 -18.750000000000146
        
          A 18.75 18.75 0 0 1 1.1038275684597842 -18.71748019096357
          A 5.0 5.0 0 0 1 1.8946201435996146 -20.91435905093612
          L 2.6315382607731013 -20.834466789003606 
          A 5.0 5.0 0 0 1 2.933146219504334 -18.519156386158986
        
          A 18.75 18.75 0 0 1 4.018296619969716 -18.314360274766514
          A 5.0 5.0 0 0 1 5.1430207954825296 -20.360484697011557
          L 5.858368324531837 -20.16629664995855 
          A 5.0 5.0 0 0 1 5.794068644530296 -17.832309680534287
        
          A 18.75 18.75 0 0 1 6.833821872734097 -17.460280026727723
          A 5.0 5.0 0 0 1 8.264783206673236 -19.305267637271953
          L 8.940945917330835 -19.00156535929008 
          A 5.0 5.0 0 0 1 8.512321870116558 -16.706372328532055
        
          A 18.75 18.75 0 0 1 9.481075750837277 -16.17626973708375
          A 5.0 5.0 0 0 1 11.183039226072772 -17.774690817792745
          L 11.803367748346894 -17.368952466895994 
          A 5.0 5.0 0 0 1 11.020973480483955 -15.169068644530418
        
          A 18.75 18.75 0 0 1 11.894874078068446 -14.493946000551468
          A 5.0 5.0 0 0 1 13.825931705347065 -15.80644211956274
          L 14.375151492266987 -15.308658320518571 
          A 5.0 5.0 0 0 1 13.258252147247875 -13.258252147247907
        
          A 18.75 18.75 0 0 1 14.015781128673808 -12.454733210836668
          A 5.0 5.0 0 0 1 16.128383860399122 -13.448986357775285
          L 16.592971298054906 -12.871414199765876 
          A 5.0 5.0 0 0 1 15.169068644530402 -11.020973480483997
        
          A 18.75 18.75 0 0 1 15.791573132180519 -10.108843554581373
          A 5.0 5.0 0 0 1 18.033701677770956 -10.76037191723269
          L 18.402217081570214 -10.117233143640332 
          A 5.0 5.0 0 0 1 16.70637232853206 -8.51232187011661
        
          A 18.75 18.75 0 0 1 17.178524195946466 -7.514040620683992
          A 5.0 5.0 0 0 1 19.494969909411573 -7.806801408460867
          L 19.758339207080255 -7.113932230346616 
          A 5.0 5.0 0 0 1 17.83230968053431 -5.794068644530346
        
          A 18.75 18.75 0 0 1 18.142482981755055 -4.734217069034283
          A 5.0 5.0 0 0 1 20.47620728178676 -4.661001539724301
          L 20.62794544714368 -3.935462695754298 
          A 5.0 5.0 0 0 1 18.519156386159025 -2.933146219504382
        
          A 18.75 18.75 0 0 1 18.65971362510389 -1.8378213811793036
          A 5.0 5.0 0 0 1 20.953252474248508 -1.4004323441024862
          L 20.98962321007248 -0.660089008540643 
          A 5.0 5.0 0 0 1 18.750000000000203 -2.2600968715583545e-14
        
         z"
            />
        
     
        <circle id="reinforcement" style="fill:#cccccc;stroke:#000000;stroke-width:0.025000"
            cx="0" cy="0" r="15"
        />
        
     
        <path id="bearing" style="fill:#ffcccc;stroke:#000000;stroke-width:0.025000"
            d="M 1.961161351381842 9.8058067569092 A 10 10 0 1 0 -1.9611613513818411 9.8058067569092
              L -1.9611613513818411 11.8058067569092  1.961161351381842 11.8058067569092  1.961161351381842 9.8058067569092"
        />
        
   </defs>

   <!--
   module                   : 1.000000
   nb-teeth                 : 40
   ratio-teeth-gap-foot     : 0.600000
   teeth-curvature          : 5.000000
   ratio-teeth-head-foot    : 0.400000
   -->

   <g>
     <!-- first gear -->
     <use href="#gear"    id="gear_1"    transform="translate(100,100) rotate(0)" >
      <animateTransform attributeType="xml" attributeName="transform" type="rotate" from="0 0 0" to="360 0 0" dur="30.000000s" additive="sum" repeatCount="indefinite" />
     </use>
     <use href="#bearing" id="bearing_1" transform="translate(100,100)">
      <animateTransform attributeType="xml" attributeName="transform" type="rotate" from="0 0 0" to="360 0 0" dur="30.000000s" additive="sum" repeatCount="indefinite" />
     </use>

     <!-- second gear -->
     <use href="#gear"    id="gear_2"    transform="translate(140.000000,100) rotate(0)">
      <animateTransform attributeType="xml" attributeName="transform" type="rotate" from="1.125000 0 0" to="-358.875000 0 0" dur="30.000000s" additive="sum" repeatCount="indefinite" />
    </use>
     
     <use href="#bearing" id="bearing_2" transform="translate(140.000000,100) rotate(0)">
       <animateTransform attributeType="xml" attributeName="transform" type="rotate" from="1.125000 0 0" to="-358.875000 0 0" dur="30.000000s" additive="sum" repeatCount="indefinite" />
     </use>

     <!-- reference lines -->
     
     <!-- gear1 horizontal axis -->
     <path style="stroke:#ff0000;stroke-width:0.050000" d="M 0 100 L 300 100" ></path>
     <!-- gear1 vertical axis -->
     <path style="stroke:#ff0000;stroke-width:0.050000" d="M 100 0 L 100 200" ></path>
    
     <!-- middle vertical -->
     <path style="fill:#ffcccc;stroke:#000000;stroke-width:0.050000" d="M 120.000000 0 L 120.000000 300" ></path>

     <!-- gear2 vertical axis -->     
     <path style="stroke:#0000ff;stroke-width:0.050000" d="M 140.000000 0 L 140.000000 300" ></path>

   </g>
   
</svg>
