<?xml version='1.0' encoding='UTF-8'?>
<svg xmlns="http://www.w3.org/2000/svg" xmlns:xlink="http://www.w3.org/1999/xlink" xmlns:svg="http://www.w3.org/2000/svg" width="400mm" height="400mm" viewBox="0 0 400 400" version="1.1" id="gear_hobbymat">
  <g id="layer1">
    <path id="gear" d="M 218.750118125,200.000108 A 18.75,18.75 0 0,1 218.709972914,201.226417335 A 4,4 0 0,1 220.912022771,201.92164303 L 220.820461332,202.741159517 A 4,4 0 0,1 218.519274387,202.933255803 A 18.75,18.75 0 0,1 218.287786385,204.138187141 A 4,4 0 0,1 220.353968095,205.169329945 L 220.135333305,205.96443346 A 4,4 0 0,1 217.83242731,205.794179773 A 18.75,18.75 0 0,1 217.415296521,206.948063705 A 4,4 0 0,1 219.294733832,208.28973346 L 218.954409207,209.040845915 A 4,4 0 0,1 216.70648935,208.512434467 A 18.75,18.75 0 0,1 216.113986917,209.586858541 A 4,4 0 0,1 217.760401846,211.206018885 L 217.306767307,211.894645398 A 4,4 0 0,1 215.169184836,211.021087432 A 18.75,18.75 0 0,1 214.415900136,211.989595761 A 4,4 0 0,1 215.788752483,213.846377594 L 215.232978017,214.455561896 A 4,4 0 0,1 213.258367307,213.258367307 A 18.75,18.75 0 0,1 212.362848709,214.097112003 A 4,4 0 0,1 213.428334293,216.145795192 L 212.784104913,216.660537143 A 4,4 0 0,1 211.021087432,215.169184836 A 18.75,18.75 0 0,1 210.005385576,215.85751322 A 4,4 0 0,1 210.737268606,218.047652387 L 210.020447376,218.455277332 A 4,4 0 0,1 208.512434467,216.70648935 A 18.75,18.75 0 0,1 207.401559304,217.227452493 A 4,4 0 0,1 207.78181839,219.505119143 L 207.010055829,219.795590002 A 4,4 0 0,1 205.794179773,217.83242731 A 18.75,18.75 0 0,1 204.615484737,218.17319737 A 4,4 0 0,1 204.634756638,220.482307791 L 203.827056102,220.648472209 A 4,4 0 0,1 202.933255803,218.519274387 A 18.75,18.75 0 0,1 201.715764276,218.671460475 A 4,4 0 0,1 201.373574456,220.955156704 L 200.549824211,220.992923161 A 4,4 0 0,1 200.000108,218.750118125 A 18.75,18.75 0 0,1 198.773798665,218.709972914 A 4,4 0 0,1 198.07857297,220.912022771 L 197.259056483,220.820461332 A 4,4 0 0,1 197.066960197,218.519274387 A 18.75,18.75 0 0,1 195.862028859,218.287786385 A 4,4 0 0,1 194.830886055,220.353968095 L 194.03578254,220.135333305 A 4,4 0 0,1 194.206036227,217.83242731 A 18.75,18.75 0 0,1 193.052152295,217.415296521 A 4,4 0 0,1 191.71048254,219.294733832 L 190.959370085,218.954409207 A 4,4 0 0,1 191.487781533,216.70648935 A 18.75,18.75 0 0,1 190.413357459,216.113986917 A 4,4 0 0,1 188.794197115,217.760401846 L 188.105570602,217.306767307 A 4,4 0 0,1 188.979128568,215.169184836 A 18.75,18.75 0 0,1 188.010620239,214.415900136 A 4,4 0 0,1 186.153838406,215.788752483 L 185.544654104,215.232978017 A 4,4 0 0,1 186.741848693,213.258367307 A 18.75,18.75 0 0,1 185.903103997,212.362848709 A 4,4 0 0,1 183.854420808,213.428334293 L 183.339678857,212.784104913 A 4,4 0 0,1 184.831031164,211.021087432 A 18.75,18.75 0 0,1 184.14270278,210.005385576 A 4,4 0 0,1 181.952563613,210.737268606 L 181.544938668,210.020447376 A 4,4 0 0,1 183.29372665,208.512434467 A 18.75,18.75 0 0,1 182.772763507,207.401559304 A 4,4 0 0,1 180.495096857,207.78181839 L 180.204625998,207.010055829 A 4,4 0 0,1 182.16778869,205.794179773 A 18.75,18.75 0 0,1 181.82701863,204.615484737 A 4,4 0 0,1 179.517908209,204.634756638 L 179.351743791,203.827056102 A 4,4 0 0,1 181.480941613,202.933255803 A 18.75,18.75 0 0,1 181.328755525,201.715764276 A 4,4 0 0,1 179.045059296,201.373574456 L 179.007292839,200.549824211 A 4,4 0 0,1 181.250097875,200.000108 A 18.75,18.75 0 0,1 181.290243086,198.773798665 A 4,4 0 0,1 179.088193229,198.07857297 L 179.179754668,197.259056483 A 4,4 0 0,1 181.480941613,197.066960197 A 18.75,18.75 0 0,1 181.712429615,195.862028859 A 4,4 0 0,1 179.646247905,194.830886055 L 179.864882695,194.03578254 A 4,4 0 0,1 182.16778869,194.206036227 A 18.75,18.75 0 0,1 182.584919479,193.052152295 A 4,4 0 0,1 180.705482168,191.71048254 L 181.045806793,190.959370085 A 4,4 0 0,1 183.29372665,191.487781533 A 18.75,18.75 0 0,1 183.886229083,190.413357459 A 4,4 0 0,1 182.239814154,188.794197115 L 182.693448693,188.105570602 A 4,4 0 0,1 184.831031164,188.979128568 A 18.75,18.75 0 0,1 185.584315864,188.010620239 A 4,4 0 0,1 184.211463517,186.153838406 L 184.767237983,185.544654104 A 4,4 0 0,1 186.741848693,186.741848693 A 18.75,18.75 0 0,1 187.637367291,185.903103997 A 4,4 0 0,1 186.571881707,183.854420808 L 187.216111087,183.339678857 A 4,4 0 0,1 188.979128568,184.831031164 A 18.75,18.75 0 0,1 189.994830424,184.14270278 A 4,4 0 0,1 189.262947394,181.952563613 L 189.979768624,181.544938668 A 4,4 0 0,1 191.487781533,183.29372665 A 18.75,18.75 0 0,1 192.598656696,182.772763507 A 4,4 0 0,1 192.21839761,180.495096857 L 192.990160171,180.204625998 A 4,4 0 0,1 194.206036227,182.16778869 A 18.75,18.75 0 0,1 195.384731263,181.82701863 A 4,4 0 0,1 195.365459362,179.517908209 L 196.173159898,179.351743791 A 4,4 0 0,1 197.066960197,181.480941613 A 18.75,18.75 0 0,1 198.284451724,181.328755525 A 4,4 0 0,1 198.626641544,179.045059296 L 199.450391789,179.007292839 A 4,4 0 0,1 200.000108,181.250097875 A 18.75,18.75 0 0,1 201.226417335,181.290243086 A 4,4 0 0,1 201.92164303,179.088193229 L 202.741159517,179.179754668 A 4,4 0 0,1 202.933255803,181.480941613 A 18.75,18.75 0 0,1 204.138187141,181.712429615 A 4,4 0 0,1 205.169329945,179.646247905 L 205.96443346,179.864882695 A 4,4 0 0,1 205.794179773,182.16778869 A 18.75,18.75 0 0,1 206.948063705,182.584919479 A 4,4 0 0,1 208.28973346,180.705482168 L 209.040845915,181.045806793 A 4,4 0 0,1 208.512434467,183.29372665 A 18.75,18.75 0 0,1 209.586858541,183.886229083 A 4,4 0 0,1 211.206018885,182.239814154 L 211.894645398,182.693448693 A 4,4 0 0,1 211.021087432,184.831031164 A 18.75,18.75 0 0,1 211.989595761,185.584315864 A 4,4 0 0,1 213.846377594,184.211463517 L 214.455561896,184.767237983 A 4,4 0 0,1 213.258367307,186.741848693 A 18.75,18.75 0 0,1 214.097112003,187.637367291 A 4,4 0 0,1 216.145795192,186.571881707 L 216.660537143,187.216111087 A 4,4 0 0,1 215.169184836,188.979128568 A 18.75,18.75 0 0,1 215.85751322,189.994830424 A 4,4 0 0,1 218.047652387,189.262947394 L 218.455277332,189.979768624 A 4,4 0 0,1 216.70648935,191.487781533 A 18.75,18.75 0 0,1 217.227452493,192.598656696 A 4,4 0 0,1 219.505119143,192.21839761 L 219.795590002,192.990160171 A 4,4 0 0,1 217.83242731,194.206036227 A 18.75,18.75 0 0,1 218.17319737,195.384731263 A 4,4 0 0,1 220.482307791,195.365459362 L 220.648472209,196.173159898 A 4,4 0 0,1 218.519274387,197.066960197 A 18.75,18.75 0 0,1 218.671460475,198.284451724 A 4,4 0 0,1 220.955156704,198.626641544 L 220.992923161,199.450391789 A 4,4 0 0,1 218.750118125,200.000108 z" style="fill:#cccccc;stroke:#000000;stroke-width:0.050000"/>
    <path id="bearing" d="M 201.96127041,209.805920052 A 10,10 0 1,0 198.03894559,209.805920052 L 198.03894559,211.805921132 L 201.96127041,211.805921132 L 201.96127041,209.805920052" style="fill:#ffcccc;stroke:#000000;stroke-width:0.050000"/>
  </g>
</svg>
