<?xml version="1.0" encoding="UTF-8" standalone="no"?>
<svg
   xmlns:svg="http://www.w3.org/2000/svg"
   xmlns="http://www.w3.org/2000/svg"
   xmlns:inkscape="http://www.inkscape.org/namespaces/inkscape"
   width="400mm"
   height="200mm"
   viewBox="0 0 400 200"
   version="1.1"
   id="gear_hobbymat">
   <defs>
     
            <path id="gear" style="fill:#cccccc;stroke:#000000;stroke-width:0.025000"
                d="  M  33.75 0.0      
          A 33.75 33.75 0 0 1 33.730882593756746 1.1358078385880446
          A 5.0 5.0 0 0 1 35.95288406456086 1.8412298716469915
          L 35.906074250456285 2.5988135602077556 
          A 5.0 5.0 0 0 1 33.61413242233931 3.0253266754908807
        
          A 33.75 33.75 0 0 1 33.49327894745503 4.154848414559195
          A 5.0 5.0 0 0 1 35.64310175006689 5.05660930212906
          L 35.52857110023293 5.806947182099443 
          A 5.0 5.0 0 0 1 33.207623615203744 6.026295199453986
        
          A 33.75 33.75 0 0 1 32.986007112797516 7.14043659410762
          A 5.0 5.0 0 0 1 35.04634213808582 8.231275887748506
          L 34.86501278597202 8.968326679710515 
          A 5.0 5.0 0 0 1 32.533746548485055 8.978743537875284
        
          A 33.75 33.75 0 0 1 32.21315134432586 10.068534176709019
          A 5.0 5.0 0 0 1 34.16740998612436 11.339669079831648
          L 33.920741889054 12.057498484187255 
          A 5.0 5.0 0 0 1 31.597926884091137 11.858900312745318
        
          A 33.75 33.75 0 0 1 31.180934222255935 12.915565842321783
          A 5.0 5.0 0 0 1 33.01338193906635 14.356761924101429
          L 32.70336112351855 15.049590400563615 
          A 5.0 5.0 0 0 1 30.407699291706656 14.643576195217591
        
          A 33.75 33.75 0 0 1 29.897666551920832 15.658608966001903
          A 5.0 5.0 0 0 1 31.593549552189206 17.25826256299765
          L 31.222672123481466 17.92051186405049 
          A 5.0 5.0 0 0 1 28.972646784062995 17.31035061244934
        
          A 33.75 33.75 0 0 1 28.373680450052905 18.27557817740075
          A 5.0 5.0 0 0 1 29.919344481024137 20.020809819430674
          L 29.490596526140017 20.64714790309837 
          A 5.0 5.0 0 0 1 27.30432356015449 19.837752264870975
        
          A 33.75 33.75 0 0 1 26.621246156655086 20.74540317918111
          A 5.0 5.0 0 0 1 28.00424644038753 22.622161287243173
          L 27.521079985760043 23.20754524755687 
          A 5.0 5.0 0 0 1 25.416161977621886 22.20543200046531
        
          A 33.75 33.75 0 0 1 24.65447324224314 23.048198392662247
          A 5.0 5.0 0 0 1 25.863674673643175 25.041372413986227
          L 25.32997989146771 25.581089083497663 
          A 5.0 5.0 0 0 1 23.323364403306705 24.394326654174478
        
          A 33.75 33.75 0 0 1 22.489197005880154 25.165423064806852
          A 5.0 5.0 0 0 1 23.514863806021076 27.258965134140396
          L 22.93493769287625 27.748669031574934 
          A 5.0 5.0 0 0 1 21.042780812732275 26.386812533296016
        
          A 33.75 33.75 0 0 1 20.142850978659517 27.08003054746277
          A 5.0 5.0 0 0 1 20.976725081548906 29.25708469504641
          L 20.355236861506736 29.69283301256313 
          A 5.0 5.0 0 0 1 18.592773124008477 28.16684731309398
        
          A 33.75 33.75 0 0 1 17.63432655916329 28.77660554695063
          A 5.0 5.0 0 0 1 18.269694100834712 31.019643412875126
          L 17.611647631613824 31.397927761237256 
          A 5.0 5.0 0 0 1 15.993067358463724 29.72009920016493
        
          A 33.75 33.75 0 0 1 14.98382091102879 30.2414882389445
          A 5.0 5.0 0 0 1 15.41556628562677 32.53245020119834
          L 14.726259770472268 32.85022485726045 
          A 5.0 5.0 0 0 1 13.26459481831994 31.034062323611483
        
          A 33.75 33.75 0 0 1 12.212674347262704 31.462884249345507
          A 5.0 5.0 0 0 1 12.43732139489315 33.78332482927244
          L 11.722304724559393 34.038031258352405 
          A 5.0 5.0 0 0 1 10.429323560154495 32.09815742496147
        
          A 33.75 33.75 0 0 1 9.343198510588687 32.43095961564715
          A 5.0 5.0 0 0 1 9.358938505314402 34.76219599009457
          L 8.623968573607922 34.95178344579038 
          A 5.0 5.0 0 0 1 7.510081521025629 32.9038170361366
        
          A 33.75 33.75 0 0 1 6.398496733219165 33.13791996421905
          A 5.0 5.0 0 0 1 6.205202945857586 35.4611823886447
          L 5.456197298513162 35.584124424238716 
          A 5.0 5.0 0 0 1 4.530372721345887 33.444554459667856
        
          A 33.75 33.75 0 0 1 3.4022780224089146 33.57807326602045
          A 5.0 5.0 0 0 1 3.00150674088097 35.87465619743903
          L 2.2444959309628314 35.92996295594939 
          A 5.0 5.0 0 0 1 1.5141880243298889 33.716015995769425
        
          A 33.75 33.75 0 0 1 0.37866616946930853 33.7478756654712
          A 5.0 5.0 0 0 1 -0.22635583151583624 35.999288368487825
          L -0.9852767980813766 35.98651455241486 
          A 5.0 5.0 0 0 1 -1.514188024329873 33.716015995769425
        
          A 33.75 33.75 0 0 1 -2.647994480814763 33.645960013493124
          A 5.0 5.0 0 0 1 -3.452395919852351 35.83407543683234
          L -4.2071166576808094 35.75332389343219 
          A 5.0 5.0 0 0 1 -4.530372721345871 33.444554459667856
        
          A 33.75 33.75 0 0 1 -5.653335036534854 33.273146874990516
          A 5.0 5.0 0 0 1 -6.650639346218141 35.38034759985464
          L -7.39508328769713 35.23226849307361 
          A 5.0 5.0 0 0 1 -7.510081521025614 32.903817036136616
        
          A 33.75 33.75 0 0 1 -8.61315826264794 32.632437922144035
          A 5.0 5.0 0 0 1 -9.795335735080794 34.64175800731041
          L -10.523509055319474 34.4275435830472 
          A 5.0 5.0 0 0 1 -10.429323560154486 32.0981574249615
        
          A 33.75 33.75 0 0 1 -11.50363340288523 31.72899176671121
          A 5.0 5.0 0 0 1 -12.86116584016872 33.62425334831515
          L -13.567205715751507 33.34562833515789 
          A 5.0 5.0 0 0 1 -13.26459481831994 31.03406232361153
        
          A 33.75 33.75 0 0 1 -14.301488050989391 30.57008242591787
          A 5.0 5.0 0 0 1 -15.82344540015466 32.33602597210007
          L -16.501667213148085 31.995233694825846 
          A 5.0 5.0 0 0 1 -15.993067358463733 29.720099200164977
        
          A 33.75 33.75 0 0 1 -16.984195526445784 29.165040756348414
          A 5.0 5.0 0 0 1 -18.65832388181378 30.787447928033
          L -19.30326698896759 30.387232245675815 
          A 5.0 5.0 0 0 1 -18.592773124008495 28.166847313094035
        
          A 33.75 33.75 0 0 1 -19.530156246068483 27.5251793273751
          A 5.0 5.0 0 0 1 -21.342976510493312 28.99098745597564
          L -21.94944820912911 28.534570669886822 
          A 5.0 5.0 0 0 1 -21.042780812732296 26.386812533296077
        
          A 33.75 33.75 0 0 1 -21.91887163114374 25.663701339001115
          A 5.0 5.0 0 0 1 -23.85578804177731 26.961108599347337
          L -24.418905378377264 26.45216550911974 
          A 5.0 5.0 0 0 1 -23.323364403306734 24.39432665417453
        
          A 33.75 33.75 0 0 1 -24.131109149932843 23.595594317457504
          A 5.0 5.0 0 0 1 -26.176526794725138 24.714154749152218
          L -26.691755879602578 24.156783065294672 
          A 5.0 5.0 0 0 1 -25.416161977621925 22.205432000465358
        
          A 33.75 33.75 0 0 1 -26.149057166709092 21.337509444454508
          A 5.0 5.0 0 0 1 -28.28650754547034 22.268217056604595
          L -28.749700056983627 21.666904408186273 
          A 5.0 5.0 0 0 1 -27.304323560154536 19.83775226487102
        
          A 33.75 33.75 0 0 1 -27.95646835057562 18.907627491657145
          A 5.0 5.0 0 0 1 -30.16874196965651 19.642988773816782
          L -30.576168554055727 19.002576576716642 
          A 5.0 5.0 0 0 1 -28.97264678406305 17.310350612449383
        
          A 33.75 33.75 0 0 1 -29.538790489420506 16.32551243980189
          A 5.0 5.0 0 0 1 -31.80807542243602 16.85960669531256
          L -32.156455720426536 16.185251171985374 
          A 5.0 5.0 0 0 1 -30.407699291706717 14.64357619521763
        
          A 33.75 33.75 0 0 1 -30.883283655772118 13.611953961027211
          A 5.0 5.0 0 0 1 -33.19130895475955 13.940480976985876
          L -33.47783801302624 13.237611641590853 
          A 5.0 5.0 0 0 1 -31.59792688409121 11.858900312745355
        
          A 33.75 33.75 0 0 1 -31.979122781204175 10.788800032657662
          A 5.0 5.0 0 0 1 -34.307305583552974 10.909114702702581
          L -34.52967643859504 10.183390645847842 
          A 5.0 5.0 0 0 1 -32.533746548485134 8.978743537875319
        
          A 33.75 33.75 0 0 1 -32.81748481342167 7.87878103013684
          A 5.0 5.0 0 0 1 -35.147079960156645 7.7899146512886945
          L -35.303502212601224 7.047178976361198 
          A 5.0 5.0 0 0 1 -33.207623615203836 6.026295199454015
        
          A 33.75 33.75 0 0 1 -33.391619754290076 4.90532671540958
          A 5.0 5.0 0 0 1 -35.70387071506948 4.607994787498269
          L -35.79308494491469 3.854227565431027 
          A 5.0 5.0 0 0 1 -33.61413242233941 3.025326675490902
        
          A 33.75 33.75 0 0 1 -33.6969050068514 1.8923775942552414
          A 5.0 5.0 0 0 1 -35.97319489652059 1.3889740591359645
          L -35.994482803244836 0.6302441803931136 
          A 5.0 5.0 0 0 1 -33.7500000000001 1.3426759704060487e-14
        
          A 33.75 33.75 0 0 1 -33.730882593756846 -1.1358078385880346
          A 5.0 5.0 0 0 1 -35.95288406456097 -1.8412298716469824
          L -35.90607425045639 -2.598813560207749 
          A 5.0 5.0 0 0 1 -33.61413242233941 -3.025326675490876
        
          A 33.75 33.75 0 0 1 -33.49327894745513 -4.1548484145591935
          A 5.0 5.0 0 0 1 -35.643101750067 -5.05660930212906
          L -35.52857110023304 -5.806947182099446 
          A 5.0 5.0 0 0 1 -33.20762361520384 -6.02629519945399
        
          A 33.75 33.75 0 0 1 -32.986007112797616 -7.140436594107628
          A 5.0 5.0 0 0 1 -35.046342138085926 -8.231275887748517
          L -34.86501278597213 -8.968326679710529 
          A 5.0 5.0 0 0 1 -32.533746548485155 -8.978743537875298
        
          A 33.75 33.75 0 0 1 -32.21315134432596 -10.068534176709036
          A 5.0 5.0 0 0 1 -34.16740998612446 -11.339669079831669
          L -33.9207418890541 -12.057498484187278 
          A 5.0 5.0 0 0 1 -31.59792688409123 -11.858900312745341
        
          A 33.75 33.75 0 0 1 -31.180934222256028 -12.915565842321808
          A 5.0 5.0 0 0 1 -33.01338193906644 -14.356761924101457
          L -32.70336112351864 -15.049590400563645 
          A 5.0 5.0 0 0 1 -30.40769929170674 -14.64357619521762
        
          A 33.75 33.75 0 0 1 -29.897666551920917 -15.658608966001935
          A 5.0 5.0 0 0 1 -31.593549552189298 -17.258262562997686
          L -31.222672123481555 -17.92051186405053 
          A 5.0 5.0 0 0 1 -28.972646784063077 -17.310350612449376
        
          A 33.75 33.75 0 0 1 -28.373680450052987 -18.27557817740079
          A 5.0 5.0 0 0 1 -29.919344481024222 -20.020809819430717
          L -29.490596526140102 -20.647147903098418 
          A 5.0 5.0 0 0 1 -27.304323560154568 -19.83775226487102
        
          A 33.75 33.75 0 0 1 -26.621246156655165 -20.74540317918116
          A 5.0 5.0 0 0 1 -28.00424644038761 -22.622161287243227
          L -27.521079985760124 -23.207545247556922 
          A 5.0 5.0 0 0 1 -25.416161977621964 -22.20543200046536
        
          A 33.75 33.75 0 0 1 -24.654473242243213 -23.0481983926623
          A 5.0 5.0 0 0 1 -25.863674673643253 -25.041372413986284
          L -25.329979891467787 -25.581089083497723 
          A 5.0 5.0 0 0 1 -23.323364403306776 -24.394326654174534
        
          A 33.75 33.75 0 0 1 -22.489197005880225 -25.165423064806912
          A 5.0 5.0 0 0 1 -23.51486380602115 -27.25896513414046
          L -22.934937692876325 -27.748669031575 
          A 5.0 5.0 0 0 1 -21.042780812732342 -26.386812533296084
        
          A 33.75 33.75 0 0 1 -20.14285097865958 -27.08003054746284
          A 5.0 5.0 0 0 1 -20.976725081548974 -29.257084695046487
          L -20.355236861506803 -29.692833012563213 
          A 5.0 5.0 0 0 1 -18.592773124008538 -28.166847313094056
        
          A 33.75 33.75 0 0 1 -17.634326559163352 -28.776605546950705
          A 5.0 5.0 0 0 1 -18.269694100834776 -31.019643412875208
          L -17.611647631613884 -31.397927761237337 
          A 5.0 5.0 0 0 1 -15.993067358463778 -29.720099200165006
        
          A 33.75 33.75 0 0 1 -14.983820911028841 -30.241488238944573
          A 5.0 5.0 0 0 1 -15.415566285626824 -32.532450201198415
          L -14.72625977047232 -32.850224857260535 
          A 5.0 5.0 0 0 1 -13.264594818319987 -31.034062323611565
        
          A 33.75 33.75 0 0 1 -12.212674347262746 -31.462884249345592
          A 5.0 5.0 0 0 1 -12.437321394893193 -33.78332482927253
          L -11.722304724559434 -34.0380312583525 
          A 5.0 5.0 0 0 1 -10.42932356015453 -32.098157424961556
        
          A 33.75 33.75 0 0 1 -9.343198510588719 -32.43095961564723
          A 5.0 5.0 0 0 1 -9.358938505314434 -34.76219599009465
          L -8.623968573607952 -34.95178344579047 
          A 5.0 5.0 0 0 1 -7.510081521025656 -32.90381703613668
        
          A 33.75 33.75 0 0 1 -6.39849673321919 -33.13791996421913
          A 5.0 5.0 0 0 1 -6.205202945857611 -35.46118238864479
          L -5.456197298513185 -35.5841244242388 
          A 5.0 5.0 0 0 1 -4.530372721345907 -33.44455445966794
        
          A 33.75 33.75 0 0 1 -3.402278022408932 -33.57807326602054
          A 5.0 5.0 0 0 1 -3.001506740880987 -35.87465619743912
          L -2.244495930962846 -35.929962955949485 
          A 5.0 5.0 0 0 1 -1.5141880243299009 -33.71601599576951
        
          A 33.75 33.75 0 0 1 -0.37866616946931764 -33.747875665471284
          A 5.0 5.0 0 0 1 0.22635583151582808 -35.99928836848792
          L 0.9852767980813704 -35.98651455241495 
          A 5.0 5.0 0 0 1 1.5141880243298684 -33.71601599576951
        
          A 33.75 33.75 0 0 1 2.647994480814761 -33.64596001349321
          A 5.0 5.0 0 0 1 3.4523959198523504 -35.834075436832435
          L 4.20711665768081 -35.75332389343228 
          A 5.0 5.0 0 0 1 4.5303727213458735 -33.44455445966795
        
          A 33.75 33.75 0 0 1 5.65333503653486 -33.27314687499061
          A 5.0 5.0 0 0 1 6.650639346218149 -35.38034759985474
          L 7.39508328769714 -35.232268493073704 
          A 5.0 5.0 0 0 1 7.510081521025626 -32.9038170361367
        
          A 33.75 33.75 0 0 1 8.613158262647953 -32.63243792214412
          A 5.0 5.0 0 0 1 9.795335735080812 -34.6417580073105
          L 10.523509055319495 -34.42754358304729 
          A 5.0 5.0 0 0 1 10.429323560154508 -32.098157424961585
        
          A 33.75 33.75 0 0 1 11.503633402885253 -31.728991766711296
          A 5.0 5.0 0 0 1 12.861165840168747 -33.62425334831524
          L 13.567205715751536 -33.34562833515798 
          A 5.0 5.0 0 0 1 13.264594818319969 -31.034062323611618
        
          A 33.75 33.75 0 0 1 14.301488050989423 -30.57008242591796
          A 5.0 5.0 0 0 1 15.823445400154695 -32.33602597210016
          L 16.501667213148124 -31.995233694825934 
          A 5.0 5.0 0 0 1 15.99306735846377 -29.72009920016506
        
          A 33.75 33.75 0 0 1 16.984195526445824 -29.165040756348496
          A 5.0 5.0 0 0 1 18.65832388181382 -30.787447928033085
          L 19.303266988967636 -30.387232245675897 
          A 5.0 5.0 0 0 1 18.59277312400854 -28.16684731309411
        
          A 33.75 33.75 0 0 1 19.530156246068533 -27.525179327375174
          A 5.0 5.0 0 0 1 21.342976510493365 -28.990987455975716
          L 21.949448209129166 -28.534570669886893 
          A 5.0 5.0 0 0 1 21.042780812732353 -26.38681253329614
        
          A 33.75 33.75 0 0 1 21.918871631143798 -25.66370133900118
          A 5.0 5.0 0 0 1 23.85578804177737 -26.96110859934741
          L 24.418905378377325 -26.452165509119812 
          A 5.0 5.0 0 0 1 23.32336440330679 -24.3943266541746
        
          A 33.75 33.75 0 0 1 24.131109149932904 -23.59559431745757
          A 5.0 5.0 0 0 1 26.176526794725202 -24.71415474915229
          L 26.691755879602646 -24.15678306529474 
          A 5.0 5.0 0 0 1 25.41616197762199 -22.20543200046542
        
          A 33.75 33.75 0 0 1 26.14905716670916 -21.33750944445457
          A 5.0 5.0 0 0 1 28.286507545470414 -22.26821705660466
          L 28.749700056983706 -21.666904408186337 
          A 5.0 5.0 0 0 1 27.304323560154614 -19.83775226487108
        
          A 33.75 33.75 0 0 1 27.9564683505757 -18.907627491657202
          A 5.0 5.0 0 0 1 30.168741969656597 -19.64298877381684
          L 30.576168554055815 -19.002576576716695 
          A 5.0 5.0 0 0 1 28.97264678406313 -17.310350612449433
        
          A 33.75 33.75 0 0 1 29.538790489420588 -16.325512439801937
          A 5.0 5.0 0 0 1 31.80807542243611 -16.859606695312607
          L 32.15645572042663 -16.18525117198542 
          A 5.0 5.0 0 0 1 30.40769929170681 -14.64357619521767
        
          A 33.75 33.75 0 0 1 30.883283655772214 -13.61195396102725
          A 5.0 5.0 0 0 1 33.191308954759656 -13.940480976985917
          L 33.47783801302635 -13.23761164159089 
          A 5.0 5.0 0 0 1 31.597926884091308 -11.858900312745389
        
          A 33.75 33.75 0 0 1 31.97912278120428 -10.788800032657692
          A 5.0 5.0 0 0 1 34.30730558355309 -10.909114702702613
          L 34.52967643859515 -10.183390645847872 
          A 5.0 5.0 0 0 1 32.53374654848525 -8.978743537875346
        
          A 33.75 33.75 0 0 1 32.817484813421785 -7.878781030136863
          A 5.0 5.0 0 0 1 35.14707996015677 -7.789914651288716
          L 35.30350221260136 -7.0471789763612165 
          A 5.0 5.0 0 0 1 33.207623615203964 -6.02629519945403
        
          A 33.75 33.75 0 0 1 33.391619754290204 -4.905326715409591
          A 5.0 5.0 0 0 1 35.70387071506961 -4.607994787498278
          L 35.793084944914824 -3.8542275654310334 
          A 5.0 5.0 0 0 1 33.61413242233954 -3.0253266754909056
        
          A 33.75 33.75 0 0 1 33.69690500685153 -1.8923775942552408
          A 5.0 5.0 0 0 1 35.973194896520724 -1.3889740591359614
          L 35.99448280324497 -0.6302441803931076 
          A 5.0 5.0 0 0 1 33.75000000000023 -5.620504062164855e-15
        
         z"
            />
        
     
        <circle id="reinforcement" style="fill:#cccccc;stroke:#000000;stroke-width:0.025000"
            cx="0" cy="0" r="15"
        />
        
     
        <path id="bearing" style="fill:#ffcccc;stroke:#000000;stroke-width:0.025000"
            d="M 1.961161351381842 9.8058067569092 A 10 10 0 1 0 -1.9611613513818411 9.8058067569092
              L -1.9611613513818411 11.8058067569092  1.961161351381842 11.8058067569092  1.961161351381842 9.8058067569092"
        />
        
   </defs>

   <!--
   module                   : 1.000000
   nb-teeth                 : 70
   ratio-teeth-gap-foot     : 0.600000
   teeth-curvature          : 5.000000
   ratio-teeth-head-foot    : 0.400000
   -->

   <g>
     <!-- first gear -->
     <use href="#gear"    id="gear_1"    transform="translate(100,100) rotate(0)" >
      <animateTransform attributeType="xml" attributeName="transform" type="rotate" from="0 0 0" to="360 0 0" dur="30.000000s" additive="sum" repeatCount="indefinite" />
     </use>
     <use href="#bearing" id="bearing_1" transform="translate(100,100)">
      <animateTransform attributeType="xml" attributeName="transform" type="rotate" from="0 0 0" to="360 0 0" dur="30.000000s" additive="sum" repeatCount="indefinite" />
     </use>

     <!-- second gear -->
     <use href="#gear"    id="gear_2"    transform="translate(170.000000,100) rotate(0)">
      <animateTransform attributeType="xml" attributeName="transform" type="rotate" from="0.642857 0 0" to="-359.357143 0 0" dur="30.000000s" additive="sum" repeatCount="indefinite" />
    </use>
     
     <use href="#bearing" id="bearing_2" transform="translate(170.000000,100) rotate(0)">
       <animateTransform attributeType="xml" attributeName="transform" type="rotate" from="0.642857 0 0" to="-359.357143 0 0" dur="30.000000s" additive="sum" repeatCount="indefinite" />
     </use>

     <!-- reference lines -->
     
     <!-- gear1 horizontal axis -->
     <path style="stroke:#ff0000;stroke-width:0.050000" d="M 0 100 L 300 100" ></path>
     <!-- gear1 vertical axis -->
     <path style="stroke:#ff0000;stroke-width:0.050000" d="M 100 0 L 100 200" ></path>
    
     <!-- middle vertical -->
     <path style="fill:#ffcccc;stroke:#000000;stroke-width:0.050000" d="M 135.000000 0 L 135.000000 300" ></path>

     <!-- gear2 vertical axis -->     
     <path style="stroke:#0000ff;stroke-width:0.050000" d="M 170.000000 0 L 170.000000 300" ></path>

   </g>
   
</svg>
