<?xml version="1.0" encoding="UTF-8" standalone="no"?>
<svg
   xmlns:svg="http://www.w3.org/2000/svg"
   xmlns="http://www.w3.org/2000/svg"
   xmlns:inkscape="http://www.inkscape.org/namespaces/inkscape"
   width="400mm"
   height="400mm"
   viewBox="0 0 400 400"
   version="1.1"
   id="gear_hobbymat">
   <g>
   
    <g style="fill:#cccccc" transform="translate(200,200)">
        <path style="fill:#cccccc;stroke:#000000;stroke-width:0.050000"
            d="  M  13.75 0.0      
          A 13.75 13.75 0 0 1 13.6976770987615 1.1983914627802998
          A 4 4 0 0 1 15.880738426261152 1.9499094944823596
          L 15.756924048195327 2.7783708426708853 
          A 4 4 0 0 1 13.449529510089825 2.858785748744191
        
          A 13.75 13.75 0 0 1 13.149190394491736 4.020110939937629
          A 4 4 0 0 1 15.128297209589066 5.2090904713145045
          L 14.834941673068595 5.9937054946545905 
          A 4 4 0 0 1 12.56125004258576 5.592628842292251
        
          A 13.75 13.75 0 0 1 12.02602097316669 6.666132278387132
          A 4 4 0 0 1 13.714676811233796 8.240609198560865
          L 13.264601160880666 8.947086455531947 
          A 4 4 0 0 1 11.123983672655527 8.082047219021504
        
          A 13.75 13.75 0 0 1 10.377256728063115 9.020811648619475
          A 4 4 0 0 1 11.701659225906727 10.911973760999976
          L 11.114533927343956 11.509436805418417 
          A 4 4 0 0 1 9.200545837434301 10.218241350314171
        
          A 13.75 13.75 0 0 1 8.274956568340665 10.981238263150278
          A 4 4 0 0 1 9.177222981616739 13.106432708623869
          L 8.47870822773128 13.568769538502815 
          A 4 4 0 0 1 6.875000000000002 11.907849302036032
        
          A 13.75 13.75 0 0 1 5.811001098934619 12.461732071753937
          A 4 4 0 0 1 6.251698055828382 14.728077655239046
          L 5.472322293210702 15.035081932574535 
          A 4 4 0 0 1 4.248983672655529 13.077027099058363
        
          A 13.75 13.75 0 0 1 3.0930769972281453 13.397588390796987
          A 4 4 0 0 1 3.0529439260247186 15.706034935162625
          L 2.2267696153610483 15.844289099865126 
          A 4 4 0 0 1 1.4372663699302364 13.674676061313761
        
          A 13.75 13.75 0 0 1 0.2399705885126493 13.747905808400382
          A 4 4 0 0 1 -0.2792385029965351 15.997563122502264
          L -1.116103579906004 15.96102480415719 
          A 4 4 0 0 1 -1.4372663699302344 13.674676061313761
        
          A 13.75 13.75 0 0 1 -2.62362368642749 13.497373772405382
          A 4 4 0 0 1 -3.599216869501839 15.589921036563766
          L -4.410197693071986 15.380187135013102 
          A 4 4 0 0 1 -4.248983672655526 13.077027099058363
        
          A 13.75 13.75 0 0 1 -5.372553016727513 12.656941734971056
          A 4 4 0 0 1 -6.761892187851189 14.5009245925864
          L -7.51154500457425 14.127161485742832 
          A 4 4 0 0 1 -6.874999999999998 11.907849302036032
        
          A 13.75 13.75 0 0 1 -7.886675999826882 11.263340608973637
          A 4 4 0 0 1 -9.62904037043277 12.778168160756683
          L -10.284601754984626 12.256711089903645 
          A 4 4 0 0 1 -9.200545837434298 10.218241350314168
        
          A 13.75 13.75 0 0 1 -10.05611339726359 9.377477450859352
          A 4 4 0 0 1 -12.075353283564349 10.496944463848113
          L -12.608172057707547 9.850583605210527 
          A 4 4 0 0 1 -11.123983672655523 8.082047219021502
        
          A 13.75 13.75 0 0 1 -11.78605038465404 7.081773530013243
          A 4 4 0 0 1 -13.993915314230328 7.756953923941389
          L -14.380704740786667 7.013938348625236 
          A 4 4 0 0 1 -12.561250042585758 5.5926288422922505
        
          A 13.75 13.75 0 0 1 -13.000880414490602 4.476562123785902
          A 4 4 0 0 1 -15.300876095408563 4.677947275563785
          L -15.52473162041594 3.8707503295946806 
          A 4 4 0 0 1 -13.449529510089825 2.8587857487441886
        
          A 13.75 13.75 0 0 1 -13.647509585068175 1.6757034718207762
          A 4 4 0 0 1 -15.939115169467923 1.3944918839625289
          L -15.990253232305527 0.5583919472400138 
          A 4 4 0 0 1 -13.749999999999996 -1.240327285323417e-15
        
          A 13.75 13.75 0 0 1 -13.697677098761497 -1.1983914627803007
          A 4 4 0 0 1 -15.880738426261148 -1.9499094944823605
          L -15.756924048195323 -2.778370842670886 
          A 4 4 0 0 1 -13.449529510089823 -2.8587857487441912
        
          A 13.75 13.75 0 0 1 -13.149190394491734 -4.02011093993763
          A 4 4 0 0 1 -15.128297209589064 -5.209090471314505
          L -14.834941673068593 -5.993705494654591 
          A 4 4 0 0 1 -12.561250042585758 -5.592628842292252
        
          A 13.75 13.75 0 0 1 -12.026020973166688 -6.666132278387133
          A 4 4 0 0 1 -13.714676811233794 -8.240609198560865
          L -13.264601160880664 -8.947086455531947 
          A 4 4 0 0 1 -11.123983672655525 -8.082047219021504
        
          A 13.75 13.75 0 0 1 -10.377256728063113 -9.020811648619475
          A 4 4 0 0 1 -11.701659225906726 -10.911973760999976
          L -11.114533927343954 -11.509436805418417 
          A 4 4 0 0 1 -9.2005458374343 -10.218241350314171
        
          A 13.75 13.75 0 0 1 -8.274956568340663 -10.981238263150278
          A 4 4 0 0 1 -9.177222981616737 -13.106432708623869
          L -8.478708227731278 -13.568769538502815 
          A 4 4 0 0 1 -6.875 -11.907849302036032
        
          A 13.75 13.75 0 0 1 -5.811001098934617 -12.461732071753937
          A 4 4 0 0 1 -6.25169805582838 -14.728077655239046
          L -5.4723222932107 -15.035081932574535 
          A 4 4 0 0 1 -4.248983672655528 -13.077027099058363
        
          A 13.75 13.75 0 0 1 -3.0930769972281444 -13.397588390796987
          A 4 4 0 0 1 -3.0529439260247178 -15.706034935162625
          L -2.2267696153610474 -15.844289099865126 
          A 4 4 0 0 1 -1.4372663699302357 -13.674676061313761
        
          A 13.75 13.75 0 0 1 -0.23997058851264863 -13.747905808400382
          A 4 4 0 0 1 0.27923850299653585 -15.997563122502264
          L 1.1161035799060046 -15.96102480415719 
          A 4 4 0 0 1 1.4372663699302353 -13.674676061313761
        
          A 13.75 13.75 0 0 1 2.623623686427491 -13.497373772405382
          A 4 4 0 0 1 3.59921686950184 -15.589921036563766
          L 4.410197693071987 -15.380187135013102 
          A 4 4 0 0 1 4.248983672655528 -13.077027099058363
        
          A 13.75 13.75 0 0 1 5.372553016727514 -12.656941734971056
          A 4 4 0 0 1 6.761892187851191 -14.5009245925864
          L 7.511545004574252 -14.127161485742832 
          A 4 4 0 0 1 6.875 -11.907849302036032
        
          A 13.75 13.75 0 0 1 7.886675999826884 -11.263340608973637
          A 4 4 0 0 1 9.629040370432772 -12.778168160756683
          L 10.284601754984628 -12.256711089903645 
          A 4 4 0 0 1 9.2005458374343 -10.218241350314168
        
          A 13.75 13.75 0 0 1 10.056113397263594 -9.377477450859352
          A 4 4 0 0 1 12.075353283564354 -10.496944463848113
          L 12.608172057707552 -9.850583605210527 
          A 4 4 0 0 1 11.123983672655527 -8.082047219021502
        
          A 13.75 13.75 0 0 1 11.786050384654043 -7.081773530013243
          A 4 4 0 0 1 13.993915314230334 -7.756953923941389
          L 14.380704740786673 -7.013938348625236 
          A 4 4 0 0 1 12.561250042585764 -5.5926288422922505
        
          A 13.75 13.75 0 0 1 13.000880414490608 -4.476562123785902
          A 4 4 0 0 1 15.300876095408569 -4.677947275563785
          L 15.524731620415945 -3.87075032959468 
          A 4 4 0 0 1 13.44952951008983 -2.858785748744188
        
          A 13.75 13.75 0 0 1 13.64750958506818 -1.6757034718207753
          A 4 4 0 0 1 15.939115169467929 -1.3944918839625275
          L 15.99025323230553 -0.5583919472400123 
          A 4 4 0 0 1 13.75 2.671474153004283e-15
        
         z"
            id="gear" />
    </g>
        
   
    <g style="fill:#ffcccc"  transform="translate(200,200)">
        <path style="fill:#ffcccc;stroke:#000000;stroke-width:0.050000"
            d="M 1.961161351381842 9.8058067569092 A 10 10 0 1 0 -1.9611613513818411 9.8058067569092
              L -1.9611613513818411 11.8058067569092  1.961161351381842 11.8058067569092  1.961161351381842 9.8058067569092"
            id="bearing" />
    </g>
        
   </g>
   
</svg>
