<?xml version="1.0" encoding="UTF-8" standalone="no"?>
<svg
   xmlns:svg="http://www.w3.org/2000/svg"
   xmlns="http://www.w3.org/2000/svg"
   xmlns:inkscape="http://www.inkscape.org/namespaces/inkscape"
   width="400mm"
   height="200mm"
   viewBox="0 0 400 200"
   version="1.1"
   id="gear_hobbymat">
   <defs>
     
            <path id="gear" style="fill:#cccccc;stroke:#000000;stroke-width:0.025000"
                d="  M  28.75 0.0      
          A 28.75 28.75 0 0 1 28.727834791920785 1.1287197030732223
          A 5.0 5.0 0 0 1 30.944554327562262 1.853255910161249
          L 30.890249654558307 2.6062379551875727 
          A 5.0 5.0 0 0 1 28.592504491837854 3.0051933189450364
        
          A 28.75 28.75 0 0 1 28.452477371065513 4.125412882246404
          A 5.0 5.0 0 0 1 30.581318828842868 5.077690290738518
          L 30.448603586484882 5.82087103731902 
          A 5.0 5.0 0 0 1 28.121743521096903 5.977461111010579
        
          A 28.75 28.75 0 0 1 27.86538865406918 7.076907174583548
          A 5.0 5.0 0 0 1 29.883028001482288 8.246492433915451
          L 29.673356245738 8.971729438270026 
          A 5.0 5.0 0 0 1 27.342874843485653 8.884238588279734
        
          A 28.75 28.75 0 0 1 26.973000907771407 9.950865390977919
          A 5.0 5.0 0 0 1 28.85733246591184 11.32494428029692
          L 28.573001404413812 12.02429169404026 
          A 5.0 5.0 0 0 1 26.264431907224765 11.693678488429251
        
          A 28.75 28.75 0 0 1 25.785091319064776 12.715799843796281
          A 5.0 5.0 0 0 1 27.515469957059807 14.279317667246508
          L 27.15959478041792 14.945113293765782 
          A 5.0 5.0 0 0 1 24.898230358802596 14.37499999999999
        
          A 28.75 28.75 0 0 1 24.314674873989215 15.34141733257382
          A 5.0 5.0 0 0 1 25.872142201375965 17.07724386169441
          L 25.44862195249717 17.702193104778786 
          A 5.0 5.0 0 0 1 23.25923858827972 16.898826003408587
        
          A 28.75 28.75 0 0 1 22.5778617628214 17.798951042657713
          A 5.0 5.0 0 0 1 23.945353841640028 19.688068198750567
          L 23.458828696998353 20.265323983713778 
          A 5.0 5.0 0 0 1 21.365413732475062 19.237504932817156
        
          A 28.75 28.75 0 0 1 20.593680873458787 20.061475720448286
          A 5.0 5.0 0 0 1 21.756215174327643 22.083185940628077
          L 21.21201560521971 22.606423732291518 
          A 5.0 5.0 0 0 1 19.237504932817146 21.36541373247506
        
          A 28.75 28.75 0 0 1 18.383871306941785 22.104202672111935
          A 5.0 5.0 0 0 1 19.328710860784607 24.23635567613631
          L 18.732799231570652 24.699842771759972 
          A 5.0 5.0 0 0 1 16.898826003408576 23.259238588279707
        
          A 28.75 28.75 0 0 1 15.97264419931354 23.904751353698142
          A 5.0 5.0 0 0 1 16.68943714625804 26.123986827073303
          L 16.048342389450255 26.52264516504663 
          A 5.0 5.0 0 0 1 14.37499999999998 24.89823035880257
        
          A 28.75 28.75 0 0 1 13.386417459346935 25.443394577062413
          A 5.0 5.0 0 0 1 13.86731046586782 27.72539811153719
          L 13.188056549779489 28.05485990768472 
          A 5.0 5.0 0 0 1 11.69367848842924 26.264431907224733
        
          A 28.75 28.75 0 0 1 10.653526328407779 26.703274645067776
          A 5.0 5.0 0 0 1 10.893250630092275 29.023044132378516
          L 10.183279602771083 29.279699734317344 
          A 5.0 5.0 0 0 1 8.884238588279729 27.342874843485617
        
          A 28.75 28.75 0 0 1 7.803912933620877 27.670588048042312
          A 5.0 5.0 0 0 1 7.799842060854194 30.002707608243067
          L 7.066932513446462 30.183745043489715 
          A 5.0 5.0 0 0 1 5.977461111010576 28.12174352109686
        
          A 28.75 28.75 0 0 1 4.868798235659455 28.33473669791968
          A 5.0 5.0 0 0 1 4.620976789775509 30.653655141081504
          L 3.8731586326538188 30.75709092561089 
          A 5.0 5.0 0 0 1 3.0051933189450373 28.592504491837804
        
          A 28.75 28.75 0 0 1 1.8803399653666155 28.688444043109797
          A 5.0 5.0 0 0 1 1.391483129986483 30.96875481350452
          L 0.6369496153712703 30.99345568321601 
          A 5.0 5.0 0 0 1 5.9719254631046726e-15 28.749999999999947
        
          A 28.75 28.75 0 0 1 -1.1287197030732143 28.72783479192073
          A 5.0 5.0 0 0 1 -1.8532559101612391 30.944554327562205
          L -2.6062379551875616 30.89024965455825 
          A 5.0 5.0 0 0 1 -3.0051933189450253 28.5925044918378
        
          A 28.75 28.75 0 0 1 -4.1254128822463905 28.45247737106546
          A 5.0 5.0 0 0 1 -5.077690290738503 30.58131882884281
          L -5.820871037319004 30.448603586484825 
          A 5.0 5.0 0 0 1 -5.977461111010563 28.12174352109685
        
          A 28.75 28.75 0 0 1 -7.07690717458353 27.865388654069125
          A 5.0 5.0 0 0 1 -8.24649243391543 29.88302800148223
          L -8.971729438270003 29.673356245737942 
          A 5.0 5.0 0 0 1 -8.884238588279713 27.3428748434856
        
          A 28.75 28.75 0 0 1 -9.950865390977896 26.973000907771354
          A 5.0 5.0 0 0 1 -11.324944280296894 28.85733246591178
          L -12.024291694040231 28.57300140441376 
          A 5.0 5.0 0 0 1 -11.693678488429223 26.264431907224715
        
          A 28.75 28.75 0 0 1 -12.715799843796251 25.785091319064726
          A 5.0 5.0 0 0 1 -14.279317667246474 27.515469957059754
          L -14.945113293765749 27.159594780417866 
          A 5.0 5.0 0 0 1 -14.374999999999957 24.898230358802547
        
          A 28.75 28.75 0 0 1 -15.341417332573787 24.31467487398917
          A 5.0 5.0 0 0 1 -17.077243861694374 25.872142201375915
          L -17.70219310477875 25.448621952497124 
          A 5.0 5.0 0 0 1 -16.89882600340855 23.25923858827968
        
          A 28.75 28.75 0 0 1 -17.798951042657674 22.57786176282136
          A 5.0 5.0 0 0 1 -19.688068198750525 23.94535384163999
          L -20.26532398371373 23.458828696998314 
          A 5.0 5.0 0 0 1 -19.23750493281711 21.365413732475027
        
          A 28.75 28.75 0 0 1 -20.061475720448236 20.593680873458755
          A 5.0 5.0 0 0 1 -22.083185940628024 21.756215174327608
          L -22.606423732291464 21.21201560521968 
          A 5.0 5.0 0 0 1 -21.36541373247501 19.23750493281712
        
          A 28.75 28.75 0 0 1 -22.10420267211188 18.38387130694176
          A 5.0 5.0 0 0 1 -24.23635567613625 19.328710860784582
          L -24.69984277175991 18.73279923157063 
          A 5.0 5.0 0 0 1 -23.25923858827965 16.89882600340856
        
          A 28.75 28.75 0 0 1 -23.904751353698085 15.972644199313525
          A 5.0 5.0 0 0 1 -26.123986827073242 16.689437146258022
          L -26.52264516504657 16.048342389450237 
          A 5.0 5.0 0 0 1 -24.89823035880252 14.374999999999966
        
          A 28.75 28.75 0 0 1 -25.44339457706236 13.386417459346923
          A 5.0 5.0 0 0 1 -27.72539811153713 13.86731046586781
          L -28.054859907684662 13.188056549779478 
          A 5.0 5.0 0 0 1 -26.26443190722468 11.693678488429232
        
          A 28.75 28.75 0 0 1 -26.703274645067722 10.653526328407771
          A 5.0 5.0 0 0 1 -29.02304413237846 10.893250630092268
          L -29.279699734317287 10.183279602771078 
          A 5.0 5.0 0 0 1 -27.342874843485564 8.884238588279723
        
          A 28.75 28.75 0 0 1 -27.67058804804226 7.8039129336208735
          A 5.0 5.0 0 0 1 -30.002707608243007 7.799842060854191
          L -30.183745043489655 7.066932513446461 
          A 5.0 5.0 0 0 1 -28.121743521096803 5.977461111010576
        
          A 28.75 28.75 0 0 1 -28.334736697919624 4.868798235659456
          A 5.0 5.0 0 0 1 -30.65365514108144 4.620976789775512
          L -30.757090925610825 3.8731586326538237 
          A 5.0 5.0 0 0 1 -28.592504491837744 3.005193318945043
        
          A 28.75 28.75 0 0 1 -28.688444043109737 1.8803399653666235
          A 5.0 5.0 0 0 1 -30.968754813504454 1.391483129986493
          L -30.99345568321594 0.6369496153712819 
          A 5.0 5.0 0 0 1 -28.749999999999883 1.801874062143651e-14
        
          A 28.75 28.75 0 0 1 -28.727834791920667 -1.1287197030731997
          A 5.0 5.0 0 0 1 -30.944554327562138 -1.8532559101612218
          L -30.890249654558183 -2.6062379551875425 
          A 5.0 5.0 0 0 1 -28.59250449183774 -3.005193318945006
        
          A 28.75 28.75 0 0 1 -28.452477371065402 -4.125412882246369
          A 5.0 5.0 0 0 1 -30.58131882884275 -5.077690290738478
          L -30.44860358648477 -5.820871037318978 
          A 5.0 5.0 0 0 1 -28.121743521096796 -5.977461111010538
        
          A 28.75 28.75 0 0 1 -27.865388654069072 -7.076907174583502
          A 5.0 5.0 0 0 1 -29.883028001482174 -8.246492433915398
          L -29.673356245737885 -8.97172943826997 
          A 5.0 5.0 0 0 1 -27.34287484348555 -8.88423858827968
        
          A 28.75 28.75 0 0 1 -26.973000907771308 -9.95086539097786
          A 5.0 5.0 0 0 1 -28.857332465911732 -11.324944280296855
          L -28.57300140441371 -12.024291694040192 
          A 5.0 5.0 0 0 1 -26.26443190722467 -11.693678488429185
        
          A 28.75 28.75 0 0 1 -25.785091319064684 -12.715799843796212
          A 5.0 5.0 0 0 1 -27.515469957059707 -14.279317667246431
          L -27.15959478041782 -14.945113293765704 
          A 5.0 5.0 0 0 1 -24.898230358802504 -14.374999999999915
        
          A 28.75 28.75 0 0 1 -24.314674873989127 -15.341417332573743
          A 5.0 5.0 0 0 1 -25.87214220137587 -17.077243861694324
          L -25.448621952497078 -17.702193104778697 
          A 5.0 5.0 0 0 1 -23.259238588279636 -16.898826003408498
        
          A 28.75 28.75 0 0 1 -22.577861762821318 -17.79895104265762
          A 5.0 5.0 0 0 1 -23.945353841639946 -19.688068198750468
          L -23.458828696998275 -20.265323983713674 
          A 5.0 5.0 0 0 1 -21.365413732474995 -19.237504932817057
        
          A 28.75 28.75 0 0 1 -20.593680873458723 -20.061475720448183
          A 5.0 5.0 0 0 1 -21.756215174327576 -22.083185940627967
          L -21.212015605219648 -22.606423732291404 
          A 5.0 5.0 0 0 1 -19.23750493281709 -21.365413732474952
        
          A 28.75 28.75 0 0 1 -18.38387130694173 -22.104202672111825
          A 5.0 5.0 0 0 1 -19.32871086078455 -24.23635567613619
          L -18.7327992315706 -24.69984277175985 
          A 5.0 5.0 0 0 1 -16.89882600340853 -23.259238588279594
        
          A 28.75 28.75 0 0 1 -15.972644199313498 -23.90475135369803
          A 5.0 5.0 0 0 1 -16.689437146257998 -26.123986827073182
          L -16.048342389450216 -26.522645165046505 
          A 5.0 5.0 0 0 1 -14.374999999999948 -24.898230358802458
        
          A 28.75 28.75 0 0 1 -13.386417459346907 -25.443394577062296
          A 5.0 5.0 0 0 1 -13.867310465867792 -27.72539811153706
          L -13.188056549779464 -28.05485990768459 
          A 5.0 5.0 0 0 1 -11.69367848842922 -26.264431907224616
        
          A 28.75 28.75 0 0 1 -10.653526328407763 -26.70327464506766
          A 5.0 5.0 0 0 1 -10.893250630092261 -29.02304413237839
          L -10.183279602771073 -29.279699734317216 
          A 5.0 5.0 0 0 1 -8.88423858827972 -27.342874843485497
        
          A 28.75 28.75 0 0 1 -7.8039129336208735 -27.67058804804219
          A 5.0 5.0 0 0 1 -7.799842060854193 -30.002707608242936
          L -7.0669325134464644 -30.183745043489584 
          A 5.0 5.0 0 0 1 -5.97746111101058 -28.121743521096736
        
          A 28.75 28.75 0 0 1 -4.8687982356594635 -28.334736697919556
          A 5.0 5.0 0 0 1 -4.620976789775521 -30.65365514108137
          L -3.8731586326538343 -30.757090925610754 
          A 5.0 5.0 0 0 1 -3.005193318945054 -28.59250449183768
        
          A 28.75 28.75 0 0 1 -1.8803399653666373 -28.688444043109673
          A 5.0 5.0 0 0 1 -1.3914831299865094 -30.968754813504386
          L -0.6369496153713 -30.993455683215874 
          A 5.0 5.0 0 0 1 -3.6140445474995517e-14 -28.749999999999822
        
          A 28.75 28.75 0 0 1 1.1287197030731793 -28.727834791920607
          A 5.0 5.0 0 0 1 1.8532559101611985 -30.94455432756207
          L 2.6062379551875177 -30.890249654558115 
          A 5.0 5.0 0 0 1 3.0051933189449818 -28.59250449183768
        
          A 28.75 28.75 0 0 1 4.1254128822463425 -28.452477371065342
          A 5.0 5.0 0 0 1 5.077690290738448 -30.581318828842686
          L 5.820871037318946 -30.448603586484705 
          A 5.0 5.0 0 0 1 5.9774611110105065 -28.12174352109674
        
          A 28.75 28.75 0 0 1 7.076907174583468 -27.86538865406902
          A 5.0 5.0 0 0 1 8.24649243391536 -29.883028001482117
          L 8.971729438269932 -29.67335624573783 
          A 5.0 5.0 0 0 1 8.884238588279644 -27.342874843485497
        
          A 28.75 28.75 0 0 1 9.950865390977821 -26.973000907771254
          A 5.0 5.0 0 0 1 11.324944280296812 -28.85733246591167
          L 12.024291694040148 -28.57300140441365 
          A 5.0 5.0 0 0 1 11.693678488429144 -26.264431907224616
        
          A 28.75 28.75 0 0 1 12.71579984379617 -25.78509131906463
          A 5.0 5.0 0 0 1 14.279317667246383 -27.515469957059654
          L 14.945113293765655 -27.15959478041777 
          A 5.0 5.0 0 0 1 14.374999999999869 -24.89823035880246
        
          A 28.75 28.75 0 0 1 15.341417332573695 -24.314674873989087
          A 5.0 5.0 0 0 1 17.077243861694274 -25.87214220137583
          L 17.702193104778647 -25.44862195249704 
          A 5.0 5.0 0 0 1 16.898826003408452 -23.2592385882796
        
          A 28.75 28.75 0 0 1 17.79895104265757 -22.577861762821286
          A 5.0 5.0 0 0 1 19.688068198750415 -23.94535384163991
          L 20.26532398371362 -23.45882869699824 
          A 5.0 5.0 0 0 1 19.237504932817007 -21.365413732474963
        
          A 28.75 28.75 0 0 1 20.06147572044813 -20.593680873458695
          A 5.0 5.0 0 0 1 22.083185940627907 -21.756215174327547
          L 22.606423732291343 -21.212015605219623 
          A 5.0 5.0 0 0 1 21.365413732474895 -19.237504932817068
        
          A 28.75 28.75 0 0 1 22.104202672111768 -18.38387130694171
          A 5.0 5.0 0 0 1 24.236355676136125 -19.32871086078453
          L 24.699842771759787 -18.732799231570578 
          A 5.0 5.0 0 0 1 23.259238588279533 -16.89882600340851
        
          A 28.75 28.75 0 0 1 23.904751353697968 -15.97264419931348
          A 5.0 5.0 0 0 1 26.123986827073114 -16.689437146257976
          L 26.522645165046438 -16.048342389450195 
          A 5.0 5.0 0 0 1 24.89823035880239 -14.374999999999929
        
          A 28.75 28.75 0 0 1 25.44339457706223 -13.386417459346891
          A 5.0 5.0 0 0 1 27.72539811153699 -13.867310465867778
          L 28.05485990768452 -13.18805654977945 
          A 5.0 5.0 0 0 1 26.264431907224548 -11.693678488429208
        
          A 28.75 28.75 0 0 1 26.70327464506759 -10.653526328407754
          A 5.0 5.0 0 0 1 29.023044132378317 -10.893250630092252
          L 29.27969973431714 -10.183279602771066 
          A 5.0 5.0 0 0 1 27.34287484348543 -8.884238588279715
        
          A 28.75 28.75 0 0 1 27.670588048042124 -7.80391293362087
          A 5.0 5.0 0 0 1 30.00270760824286 -7.799842060854189
          L 30.18374504348951 -7.066932513446463 
          A 5.0 5.0 0 0 1 28.12174352109667 -5.977461111010579
        
          A 28.75 28.75 0 0 1 28.33473669791949 -4.868798235659465
          A 5.0 5.0 0 0 1 30.653655141081295 -4.620976789775525
          L 30.75709092561068 -3.8731586326538396 
          A 5.0 5.0 0 0 1 28.59250449183761 -3.005193318945061
        
          A 28.75 28.75 0 0 1 28.6884440431096 -1.8803399653666466
          A 5.0 5.0 0 0 1 30.968754813504308 -1.3914831299865207
          L 30.993455683215796 -0.6369496153713132 
          A 5.0 5.0 0 0 1 28.749999999999748 -4.983468834728727e-14
        
         z"
            />
        
     
        <circle id="reinforcement" style="fill:#cccccc;stroke:#000000;stroke-width:0.025000"
            cx="0" cy="0" r="15"
        />
        
     
        <path id="bearing" style="fill:#ffcccc;stroke:#000000;stroke-width:0.025000"
            d="M 1.961161351381842 9.8058067569092 A 10 10 0 1 0 -1.9611613513818411 9.8058067569092
              L -1.9611613513818411 11.8058067569092  1.961161351381842 11.8058067569092  1.961161351381842 9.8058067569092"
        />
        
   </defs>

   <!--
   module                   : 1.000000
   nb-teeth                 : 60
   ratio-teeth-gap          : 0.600000
   teeth-curvature          : 5.000000
   ratio-teeth-head-base    : 0.400000
   -->

   <g>
     <!-- first gear -->
     <use href="#gear"    id="gear_1"    transform="translate(100,100) rotate(0)"></use>
     <use href="#bearing" id="bearing_1" transform="translate(100,100) rotate(0)"></use>

     <!-- second gear -->
     <use href="#gear"    id="gear_2"    transform="translate(160.000000,100) rotate(0.750000)"></use>
     <use href="#bearing" id="bearing_2" transform="translate(160.000000,100) rotate(0.750000)"> </use>

     <!-- reference lines -->
    <!-- gear1 horizontal axis -->
    <path style="fill:#ffcccc;stroke:#000000;stroke-width:0.050000" d="M 0 100 L 200 100" ></path>
    <!-- gear2 vertical axis -->
    <path style="fill:#ffcccc;stroke:#000000;stroke-width:0.050000" d="M 100 0 L 100 200" ></path>
    
    <!-- middle verical -->
    <path style="fill:#ffcccc;stroke:#000000;stroke-width:0.050000" d="M 130.000000 0 L 130.000000 200" ></path>

    <!-- gear2 horizontal axis -->
    <path style="fill:#ffcccc;stroke:#000000;stroke-width:0.050000" d="M -300 0 L 300 0" 
      transform="translate(160.000000,100) rotate(0.750000)"></path>
    <!-- gear2 vertical axis -->
    <path style="fill:#ffcccc;stroke:#000000;stroke-width:0.050000" d="M 0.000000 -300 L 0.000000 300" 
      transform="translate(160.000000,100) rotate(0.750000)"></path>
    

   </g>
   
</svg>
