<?xml version="1.0" encoding="UTF-8" standalone="no"?>
<svg
   xmlns:svg="http://www.w3.org/2000/svg"
   xmlns="http://www.w3.org/2000/svg"
   width="400mm"
   height="400mm"
   viewBox="-200 -200 400 400"
   version="1.1"
   id="gear_hobbymat">
   <g>
     
            <path id="gear" style="fill:#cccccc;stroke:#000000;stroke-width:0.025000"
                d="  M  13.75 0.0      
          A 13.75 13.75 0 0 1 13.707613338830509 1.0788125662578678
          A 5.0 5.0 0 0 1 15.882580865421469 1.9348449688147404
          L 15.778057635172617 2.6557291392705973 
          A 5.0 5.0 0 0 1 13.449529510089823 2.8587857487441903
        
          A 13.75 13.75 0 0 1 13.183771354437651 3.9052109896789347
          A 5.0 5.0 0 0 1 15.133231478036151 5.194738206317582
          L 14.881112084384055 5.8781377265251855 
          A 5.0 5.0 0 0 1 12.561250042585758 5.5926288422922505
        
          A 13.75 13.75 0 0 1 12.08373529910202 6.560932953569613
          A 5.0 5.0 0 0 1 13.722487257759262 8.22759645708481
          L 13.333790528009594 8.843643488696355 
          A 5.0 5.0 0 0 1 11.123983672655523 8.0820472190215
        
          A 13.75 13.75 0 0 1 10.455582027000423 8.92991066454002
          A 5.0 5.0 0 0 1 11.712004496518732 10.90086926228935
          L 11.2037183429354 11.42263959390178 
          A 5.0 5.0 0 0 1 9.200545837434296 10.218241350314164
        
          A 13.75 13.75 0 0 1 8.370469648869905 10.908608429004476
          A 5.0 5.0 0 0 1 9.189650938347421 13.097721772557625
          L 8.583989904869588 13.50241153694764 
          A 5.0 5.0 0 0 1 6.874999999999998 11.907849302036025
        
          A 13.75 13.75 0 0 1 5.919527581114057 12.410547659810577
          A 5.0 5.0 0 0 1 6.2656655373326595 14.722140991522991
          L 5.58909991740739 14.992063304069804 
          A 5.0 5.0 0 0 1 4.248983672655526 13.077027099058352
        
          A 13.75 13.75 0 0 1 3.2098737530186994 13.370086405468042
          A 5.0 5.0 0 0 1 3.0678404863374427 15.703132004488417
          L 2.349939444077514 15.826489964902775 
          A 5.0 5.0 0 0 1 1.437266369930237 13.674676061313747
        
          A 13.75 13.75 0 0 1 0.3599330392332589 13.7452882184139
          A 5.0 5.0 0 0 1 -0.26406391504265525 15.997820796870176
          L -0.9919246592190825 15.969223070344803 
          A 5.0 5.0 0 0 1 -1.4372663699302302 13.674676061313747
        
          A 13.75 13.75 0 0 1 -2.5057384755170213 13.519754979004365
          A 5.0 5.0 0 0 1 -3.5844274562161402 15.593328054367465
          L -4.2904368951252 15.414024498778636 
          A 5.0 5.0 0 0 1 -4.248983672655519 13.07702709905835
        
          A 13.75 13.75 0 0 1 -5.261897195019975 12.703343572030182
          A 5.0 5.0 0 0 1 -6.7481343175617345 14.507332050799178
          L -7.401436450913942 14.185159091920044 
          A 5.0 5.0 0 0 1 -6.874999999999988 11.90784930203602
        
          A 13.75 13.75 0 0 1 -7.788085757716438 11.331735093552705
          A 5.0 5.0 0 0 1 -9.616915328088794 12.787296022708247
          L -10.188957717765213 12.336334164799204 
          A 5.0 5.0 0 0 1 -9.200545837434285 10.218241350314162
        
          A 13.75 13.75 0 0 1 -9.973897601418939 9.464875415789109
          A 5.0 5.0 0 0 1 -12.065390991698694 10.508393798170838
          L -12.531172640306526 9.948352238377593 
          A 5.0 5.0 0 0 1 -11.123983672655507 8.082047219021499
        
          A 13.75 13.75 0 0 1 -11.723802259868748 7.184355264844292
          A 5.0 5.0 0 0 1 -13.986551172801901 7.770224339785371
          L -14.325715187228662 7.125579581648452 
          A 5.0 5.0 0 0 1 -12.561250042585742 5.5926288422922505
        
          A 13.75 13.75 0 0 1 -12.961320502517433 4.589844314464349
          A 5.0 5.0 0 0 1 -15.29643195273486 4.692458792078121
          L -15.49415523806059 3.991384904876863 
          A 5.0 5.0 0 0 1 -13.449529510089807 2.858785748744193
        
          A 13.75 13.75 0 0 1 -13.632366843889873 1.7947351430257135
          A 5.0 5.0 0 0 1 -15.937785255909148 1.4096102782415616
          L -15.985426355783522 0.6827475549724138 
          A 5.0 5.0 0 0 1 -13.74999999999998 6.774095173689432e-15
        
          A 13.75 13.75 0 0 1 -13.70761333883049 -1.0788125662578596
          A 5.0 5.0 0 0 1 -15.882580865421447 -1.93484496881473
          L -15.778057635172596 -2.655729139270586 
          A 5.0 5.0 0 0 1 -13.449529510089805 -2.8587857487441797
        
          A 13.75 13.75 0 0 1 -13.183771354437633 -3.905210989678923
          A 5.0 5.0 0 0 1 -15.133231478036132 -5.194738206317567
          L -14.881112084384037 -5.8781377265251695 
          A 5.0 5.0 0 0 1 -12.561250042585744 -5.592628842292237
        
          A 13.75 13.75 0 0 1 -12.083735299102008 -6.560932953569599
          A 5.0 5.0 0 0 1 -13.72248725775925 -8.227596457084793
          L -13.333790528009583 -8.843643488696339 
          A 5.0 5.0 0 0 1 -11.123983672655516 -8.082047219021486
        
          A 13.75 13.75 0 0 1 -10.455582027000416 -8.929910664540005
          A 5.0 5.0 0 0 1 -11.712004496518725 -10.90086926228933
          L -11.203718342935394 -11.42263959390176 
          A 5.0 5.0 0 0 1 -9.200545837434293 -10.218241350314148
        
          A 13.75 13.75 0 0 1 -8.370469648869902 -10.90860842900446
          A 5.0 5.0 0 0 1 -9.189650938347418 -13.097721772557607
          L -8.583989904869584 -13.502411536947621 
          A 5.0 5.0 0 0 1 -6.8749999999999964 -11.907849302036007
        
          A 13.75 13.75 0 0 1 -5.919527581114056 -12.41054765981056
          A 5.0 5.0 0 0 1 -6.2656655373326595 -14.722140991522972
          L -5.589099917407392 -14.992063304069784 
          A 5.0 5.0 0 0 1 -4.248983672655529 -13.077027099058336
        
          A 13.75 13.75 0 0 1 -3.2098737530187034 -13.370086405468028
          A 5.0 5.0 0 0 1 -3.0678404863374484 -15.703132004488399
          L -2.3499394440775205 -15.826489964902757 
          A 5.0 5.0 0 0 1 -1.4372663699302433 -13.674676061313733
        
          A 13.75 13.75 0 0 1 -0.35993303923326603 -13.745288218413888
          A 5.0 5.0 0 0 1 0.26406391504264637 -15.99782079687016
          L 0.9919246592190729 -15.969223070344787 
          A 5.0 5.0 0 0 1 1.4372663699302215 -13.674676061313733
        
          A 13.75 13.75 0 0 1 2.5057384755170116 -13.51975497900435
          A 5.0 5.0 0 0 1 3.5844274562161282 -15.593328054367447
          L 4.290436895125188 -15.414024498778618 
          A 5.0 5.0 0 0 1 4.248983672655507 -13.077027099058336
        
          A 13.75 13.75 0 0 1 5.261897195019962 -12.703343572030168
          A 5.0 5.0 0 0 1 6.7481343175617186 -14.50733205079916
          L 7.401436450913926 -14.185159091920026 
          A 5.0 5.0 0 0 1 6.874999999999973 -11.907849302036006
        
          A 13.75 13.75 0 0 1 7.788085757716422 -11.331735093552693
          A 5.0 5.0 0 0 1 9.616915328088774 -12.787296022708233
          L 10.188957717765192 -12.336334164799192 
          A 5.0 5.0 0 0 1 9.200545837434266 -10.218241350314152
        
          A 13.75 13.75 0 0 1 9.97389760141892 -9.4648754157891
          A 5.0 5.0 0 0 1 12.06539099169867 -10.508393798170829
          L 12.531172640306503 -9.948352238377584 
          A 5.0 5.0 0 0 1 11.123983672655488 -8.082047219021494
        
          A 13.75 13.75 0 0 1 11.723802259868728 -7.184355264844289
          A 5.0 5.0 0 0 1 13.986551172801878 -7.7702243397853685
          L 14.325715187228637 -7.125579581648451 
          A 5.0 5.0 0 0 1 12.561250042585721 -5.5926288422922505
        
          A 13.75 13.75 0 0 1 12.961320502517411 -4.589844314464351
          A 5.0 5.0 0 0 1 15.296431952734835 -4.692458792078123
          L 15.494155238060564 -3.9913849048768664 
          A 5.0 5.0 0 0 1 13.449529510089786 -2.8587857487441966
        
          A 13.75 13.75 0 0 1 13.632366843889852 -1.7947351430257186
          A 5.0 5.0 0 0 1 15.937785255909123 -1.4096102782415687
          L 15.985426355783497 -0.682747554972422 
          A 5.0 5.0 0 0 1 13.74999999999996 -1.478851763270228e-14
        
         z"
            />
        
     
     
        <path id="bearing" style="fill:#ffcccc;stroke:#000000;stroke-width:0.025000"
            d="M 1.961161351381842 9.8058067569092 A 10 10 0 1 0 -1.9611613513818411 9.8058067569092
              L -1.9611613513818411 11.8058067569092  1.961161351381842 11.8058067569092  1.961161351381842 9.8058067569092"
        />
        
   </g>
</svg>
