<?xml version="1.0" encoding="UTF-8" standalone="no"?>
<svg
   xmlns:svg="http://www.w3.org/2000/svg"
   xmlns="http://www.w3.org/2000/svg"
   xmlns:inkscape="http://www.inkscape.org/namespaces/inkscape"
   width="400mm"
   height="400mm"
   viewBox="0 0 400 400"
   version="1.1"
   id="gear_hobbymat">
   <g>
   
    <g style="fill:#cccccc" transform="translate(200,200)">
        <path style="fill:#cccccc;stroke:#000000;stroke-width:0.050000"
            d="  M  8.75 0.0      
          A 8.75 8.75 0 0 1 8.675142537020841 1.1421041819254516
          A 4 4 0 0 1 10.8158039832035 2.004590780413622
          L 10.62518408917975 2.847009496127728 
          A 4 4 0 0 1 8.321744517582593 2.7038987007807895
        
          A 8.75 8.75 0 0 1 7.897621238061279 3.766972097072582
          A 4 4 0 0 1 9.666988239281617 5.248746362855692
          L 9.22537624739966 5.991029385165297 
          A 4 4 0 0 1 7.078898700780786 5.143120957559138
        
          A 8.75 8.75 0 0 1 6.347025746357513 6.023102537320345
          A 4 4 0 0 1 7.571900332631289 7.979118081135161
          L 6.922524301548207 8.548605576026677 
          A 4 4 0 0 1 5.143120957559136 7.078898700780788
        
          A 8.75 8.75 0 0 1 4.175139152271569 7.6896497357921945
          A 4 4 0 0 1 4.735622064891241 9.928438127848462
          L 3.9420474449982974 10.269384691469215 
          A 4 4 0 0 1 2.703898700780785 8.321744517582589
        
          A 8.75 8.75 0 0 1 1.5945608480562858 8.603480441184598
          A 4 4 0 0 1 1.4357881144205622 10.905893475111908
          L 0.5756955186723773 10.984924882300305 
          A 4 4 0 0 1 -3.4442146104848603e-15 8.749999999999995
        
          A 8.75 8.75 0 0 1 -1.142104181925454 8.675142537020836
          A 4 4 0 0 1 -2.0045907804136247 10.815803983203491
          L -2.8470094961277304 10.625184089179742 
          A 4 4 0 0 1 -2.703898700780791 8.321744517582585
        
          A 8.75 8.75 0 0 1 -3.766972097072582 7.897621238061272
          A 4 4 0 0 1 -5.24874636285569 9.666988239281608
          L -5.9910293851652945 9.225376247399652 
          A 4 4 0 0 1 -5.143120957559136 7.078898700780779
        
          A 8.75 8.75 0 0 1 -6.023102537320342 6.347025746357506
          A 4 4 0 0 1 -7.979118081135156 7.571900332631281
          L -8.54860557602667 6.9225243015482 
          A 4 4 0 0 1 -7.078898700780782 5.14312095755913
        
          A 8.75 8.75 0 0 1 -7.689649735792188 4.175139152271565
          A 4 4 0 0 1 -9.928438127848453 4.735622064891236
          L -10.269384691469206 3.942047444998293 
          A 4 4 0 0 1 -8.321744517582582 2.7038987007807824
        
          A 8.75 8.75 0 0 1 -8.60348044118459 1.594560848056284
          A 4 4 0 0 1 -10.905893475111899 1.4357881144205604
          L -10.984924882300296 0.5756955186723762 
          A 4 4 0 0 1 -8.749999999999988 -3.9740937813286855e-15
        
          A 8.75 8.75 0 0 1 -8.675142537020829 -1.1421041819254538
          A 4 4 0 0 1 -10.815803983203482 -2.004590780413624
          L -10.625184089179733 -2.847009496127729 
          A 4 4 0 0 1 -8.321744517582578 -2.7038987007807895
        
          A 8.75 8.75 0 0 1 -7.897621238061265 -3.76697209707258
          A 4 4 0 0 1 -9.666988239281599 -5.248746362855688
          L -9.225376247399643 -5.991029385165292 
          A 4 4 0 0 1 -7.078898700780772 -5.143120957559133
        
          A 8.75 8.75 0 0 1 -6.3470257463575 -6.023102537320338
          A 4 4 0 0 1 -7.571900332631273 -7.979118081135152
          L -6.922524301548192 -8.548605576026667 
          A 4 4 0 0 1 -5.143120957559124 -7.078898700780778
        
          A 8.75 8.75 0 0 1 -4.175139152271559 -7.689649735792183
          A 4 4 0 0 1 -4.735622064891229 -9.928438127848446
          L -3.9420474449982863 -10.269384691469197 
          A 4 4 0 0 1 -2.7038987007807775 -8.321744517582575
        
          A 8.75 8.75 0 0 1 -1.59456084805628 -8.603480441184582
          A 4 4 0 0 1 -1.435788114420556 -10.905893475111888
          L -0.5756955186723728 -10.984924882300286 
          A 4 4 0 0 1 6.270236854985259e-15 -8.749999999999979
        
          A 8.75 8.75 0 0 1 1.142104181925455 -8.67514253702082
          A 4 4 0 0 1 2.0045907804136247 -10.815803983203471
          L 2.847009496127729 -10.625184089179722 
          A 4 4 0 0 1 2.703898700780789 -8.32174451758257
        
          A 8.75 8.75 0 0 1 3.7669720970725784 -7.897621238061256
          A 4 4 0 0 1 5.248746362855685 -9.666988239281588
          L 5.991029385165287 -9.225376247399634 
          A 4 4 0 0 1 5.1431209575591295 -7.0788987007807656
        
          A 8.75 8.75 0 0 1 6.023102537320334 -6.3470257463574935
          A 4 4 0 0 1 7.979118081135145 -7.571900332631265
          L 8.54860557602666 -6.922524301548185 
          A 4 4 0 0 1 7.078898700780772 -5.143120957559118
        
          A 8.75 8.75 0 0 1 7.689649735792176 -4.175139152271553
          A 4 4 0 0 1 9.928438127848437 -4.735622064891222
          L 10.269384691469188 -3.9420474449982805 
          A 4 4 0 0 1 8.321744517582568 -2.703898700780773
        
          A 8.75 8.75 0 0 1 8.603480441184574 -1.594560848056277
          A 4 4 0 0 1 10.90589347511188 -1.4357881144205524
          L 10.984924882300277 -0.57569551867237 
          A 4 4 0 0 1 8.74999999999997 8.124813952938645e-15
        
         z"
            id="gear" />
    </g>
        
   
   </g>
   
</svg>
