<?xml version="1.0" encoding="UTF-8" standalone="no"?>
<svg
   xmlns:svg="http://www.w3.org/2000/svg"
   xmlns="http://www.w3.org/2000/svg"
   xmlns:inkscape="http://www.inkscape.org/namespaces/inkscape"
   width="400mm"
   height="400mm"
   viewBox="0 0 400 400"
   version="1.1"
   id="gear_hobbymat">
   <g>
   
    <g style="fill:#cccccc" transform="translate(200,200)">
        <path style="fill:#cccccc;stroke:#000000;stroke-width:0.050000"
            d="  M  21.25 0.0      
          A 21.25 21.25 0 0 1 21.21404836326445 1.2355776143476114
          A 4 4 0 0 1 23.422094869045893 1.9119288546946696
          L 23.34110140693566 2.7281834819429105 
          A 4 4 0 0 1 21.04319646075837 2.957428395401391
        
          A 21.25 21.25 0 0 1 20.83563553481456 4.175977952572641
          A 4 4 0 0 1 22.92806358432904 5.153047668415728
          L 22.734257657377306 5.950086450462842 
          A 4 4 0 0 1 20.42681103868928 5.857293811111234
        
          A 21.25 21.25 0 0 1 20.051680760863654 7.035097630055361
          A 4 4 0 0 1 21.987763622228996 8.293868270775922
          L 21.684917442352905 9.056177754347539 
          A 4 4 0 0 1 19.41284097490528 8.643153665360758
        
          A 21.25 21.25 0 0 1 18.877442829351345 9.757287134474002
          A 4 4 0 0 1 20.619496851932688 11.273258161380792
          L 20.2135049755411 11.986000859493375 
          A 4 4 0 0 1 18.021022043324066 11.260784364955612
        
          A 21.25 21.25 0 0 1 17.33577694593867 12.289562143569722
          A 4 4 0 0 1 18.849895029743543 14.033226905015486
          L 18.348659626901508 14.682530091783077 
          A 4 4 0 0 1 16.2784444162783 13.659236705838973
        
          A 21.25 21.25 0 0 1 15.4566898834273 14.582634804710601
          A 4 4 0 0 1 16.713401442238244 16.520054849503065
          L 16.126678489915257 17.093280576966663 
          A 4 4 0 0 1 14.219025385125754 15.791827541394646
        
          A 21.25 21.25 0 0 1 13.27675593405917 16.591873066879028
          A 4 4 0 0 1 14.251600506872133 18.685338717628944
          L 13.5908098999477 19.171329799038066 
          A 4 4 0 0 1 11.882849198753387 17.617048416794656
        
          A 21.25 21.25 0 0 1 10.838405032520615 18.278169392776533
          A 4 4 0 0 1 11.512408378595062 20.48693372187394
          L 10.790411654594791 20.87623089363562 
          A 4 4 0 0 1 9.315386869267911 19.09937348385732
        
          A 21.25 21.25 0 0 1 8.189096905527041 19.60870194255317
          A 4 4 0 0 1 8.549140316399077 21.889773864764372
          L 7.779990320296532 22.17479990024924 
          A 4 4 0 0 1 6.566611130467648 20.20995097127204
        
          A 21.25 21.25 0 0 1 5.380397322227051 20.557573413585885
          A 4 4 0 0 1 5.419472962447359 22.86655445862589
          L 4.618140324021522 23.041761650265546 
          A 4 4 0 0 1 3.690023775422282 20.92716475150945
        
          A 21.25 21.25 0 0 1 2.4669744251611525 21.10631510201632
          A 4 4 0 0 1 2.1843217318407278 23.39826358027044
          L 1.3664034793961914 23.460241719374842 
          A 4 4 0 0 1 0.7416143049281536 21.237055074155823
        
          A 21.25 21.25 0 0 1 -0.49446532294869117 21.244246375063597
          A 4 4 0 0 1 -1.093344836647041 23.474552116455367
          L -1.9119288546946658 23.422094869045935 
          A 4 4 0 0 1 -2.2212298444376337 21.13359027657585
        
          A 21.25 21.25 0 0 1 -3.446280865993308 20.968682557392345
          A 4 4 0 0 1 -4.3497306915507945 23.093935197600757
          L -5.153047668415731 22.92806358432908 
          A 4 4 0 0 1 -5.1408402814929435 20.618784183364966
        
          A 21.25 21.25 0 0 1 -6.33101847206775 20.28498718526434
          A 4 4 0 0 1 -7.52145398628884 22.26382109908678
          L -8.29386827077593 21.98776362222903 
          A 4 4 0 0 1 -7.960390110088141 19.70265690954427
        
          A 21.25 21.25 0 0 1 -9.092530005010167 19.206467611406097
          A 4 4 0 0 1 -10.546780734710877 21.00036704760023
          L -11.273258161380804 20.619496851932716 
          A 4 4 0 0 1 -10.625000000000016 18.40303983041936
        
          A 21.25 21.25 0 0 1 -11.677065784004647 17.754115992524937
          A 4 4 0 0 1 -13.366826392917039 19.32816473909561
          L -14.033226905015498 18.849895029743575 
          A 4 4 0 0 1 -13.08280635067026 16.745228514142884
        
          A 21.25 21.25 0 0 1 -14.034320759978938 15.956200700856899
          A 4 4 0 0 1 -15.926701979924736 17.27976168940602
          L -16.52005484950308 16.71340144223827 
          A 4 4 0 0 1 -15.285970757196365 14.761490372253732
        
          A 21.25 21.25 0 0 1 -16.118413646163493 13.84771611245596
          A 4 4 0 0 1 -18.17658242924819 14.895027733869732
          L -18.68533871762896 14.251600506872155 
          A 4 4 0 0 1 -17.191611130467667 12.49043661121509
        
          A 21.25 21.25 0 0 1 -17.888779945149256 11.46970148146968
          A 4 4 0 0 1 -20.072676377142393 12.2203790063366
          L -20.48693372187396 11.51240837859508 
          A 4 4 0 0 1 -18.76263634825224 9.976270709200211
        
          A 21.25 21.25 0 0 1 -19.310961490688282 8.86844215773866
          A 4 4 0 0 1 -21.57807851168649 9.307874501920217
          L -21.889773864764397 8.549140316399091 
          A 4 4 0 0 1 -19.968468191700605 7.267928045670488
        
          A 21.25 21.25 0 0 1 -20.35727713670419 6.094568695110692
          A 4 4 0 0 1 -22.663487892701124 6.214202807874278
          L -22.86655445862592 5.419472962447369 
          A 4 4 0 0 1 -20.785636515593424 4.418123429877407
        
          A 21.25 21.25 0 0 1 -21.007361539313678 3.2020713853015343
          A 4 4 0 0 1 -23.307778261219717 2.9995787247239925
          L -23.398263580270473 2.1843217318407344 
          A 4 4 0 0 1 -21.19823606802133 1.4823250670626775
        
          A 21.25 21.25 0 0 1 -21.248561545080012 0.24724939827969772
          A 4 4 0 0 1 -23.498409238088485 -0.27342874633281905
          L -23.4745521164554 -1.093344836647038 
          A 4 4 0 0 1 -21.198236068021334 -1.4823250670626567
        
          A 21.25 21.25 0 0 1 -21.07618247025188 -2.712385017037633
          A 4 4 0 0 1 -23.231670408182197 -3.541114237862853
          L -23.093935197600786 -4.349730691550795 
          A 4 4 0 0 1 -20.785636515593435 -4.418123429877389
        
          A 21.25 21.25 0 0 1 -20.493579477442516 -5.619225943290554
          A 4 4 0 0 1 -22.51275353941406 -6.73987596871063
          L -22.26382109908681 -7.521453986288844 
          A 4 4 0 0 1 -19.968468191700616 -7.267928045670473
        
          A 21.25 21.25 0 0 1 -19.512092271205884 -8.416695028332098
          A 4 4 0 0 1 -21.355651530878827 -9.807453680322741
          L -21.000367047600253 -10.546780734710884 
          A 4 4 0 0 1 -18.762636348252258 -9.9762707092002
        
          A 21.25 21.25 0 0 1 -18.150824383586226 -11.050342718495852
          A 4 4 0 0 1 -19.782886056988612 -12.684140461860581
          L -19.328164739095627 -13.366826392917048 
          A 4 4 0 0 1 -17.19161113046769 -12.490436611215085
        
          A 21.25 21.25 0 0 1 -16.436271345596793 -13.468908057222626
          A 4 4 0 0 1 -17.825069208698487 -15.313944877304236
          L -17.27976168940604 -15.92670197992475 
          A 4 4 0 0 1 -15.285970757196397 -14.761490372253732
        
          A 21.25 21.25 0 0 1 -14.401804981846867 -15.625316421271402
          A 4 4 0 0 1 -15.520307663976746 -17.64568077506528
          L -14.895027733869755 -18.176582429248207 
          A 4 4 0 0 1 -13.082806350670294 -16.745228514142894
        
          A 21.25 21.25 0 0 1 -12.087023865935652 -17.47759577471413
          A 4 4 0 0 1 -12.913460984664 -19.63396356820407
          L -12.22037900633662 -20.072676377142418 
          A 4 4 0 0 1 -10.62500000000005 -18.40303983041938
        
          A 21.25 21.25 0 0 1 -9.536982579259867 -18.989693606872574
          A 4 4 0 0 1 -10.055268476128926 -21.24009359379031
          L -9.307874501920235 -21.57807851168652 
          A 4 4 0 0 1 -7.960390110088174 -19.70265690954431
        
          A 21.25 21.25 0 0 1 -6.801314774835685 -20.132178653429577
          A 4 4 0 0 1 -7.001361604404369 -22.432809357821792
          L -6.214202807874291 -22.663487892701156 
          A 4 4 0 0 1 -5.140840281492973 -20.61878418336501
        
          A 21.25 21.25 0 0 1 -3.933267114700214 -20.882813742511367
          A 4 4 0 0 1 -3.811181192980865 -23.188896004645706
          L -2.9995787247239996 -23.307778261219745 
          A 4 4 0 0 1 -2.2212298444376586 -21.133590276575898
        
          A 21.25 21.25 0 0 1 -0.9886628842021332 -21.226988615943736
          A 4 4 0 0 1 -0.5468204747903401 -23.49363716771745
          L 0.27342874633281666 -23.498409238088513 
          A 4 4 0 0 1 0.7416143049281357 -21.237055074155876
        
          A 21.25 21.25 0 0 1 1.9751845447495797 -21.158004301308434
          A 4 4 0 0 1 2.7281834819429074 -23.34110140693576
          L 3.541114237862854 -23.231670408182225 
          A 4 4 0 0 1 3.6900237754222722 -20.927164751509515
        
          A 21.25 21.25 0 0 1 4.9005872532768615 -20.677203499821353
          A 4 4 0 0 1 5.950086450462853 -22.734257657377412
          L 6.739875968710637 -22.5127535394141 
          A 4 4 0 0 1 6.56661113046765 -20.20995097127211
        
          A 21.25 21.25 0 0 1 7.730605605254492 -19.793944452180618
          A 4 4 0 0 1 9.056177754347564 -21.684917442352997
          L 9.807453680322753 -21.355651530878863 
          A 4 4 0 0 1 9.315386869267927 -19.09937348385739
        
          A 21.25 21.25 0 0 1 10.410156512559386 -18.52541879105629
          A 4 4 0 0 1 11.98600085949341 -20.213504975541188
          L 12.684140461860599 -19.78288605698865 
          A 4 4 0 0 1 11.882849198753414 -17.617048416794727
        
          A 21.25 21.25 0 0 1 12.887085564724835 -16.896316925515602
          A 4 4 0 0 1 14.682530091783123 -18.34865962690159
          L 15.31394487730426 -17.825069208698515 
          A 4 4 0 0 1 14.219025385125796 -15.791827541394714
        
          A 21.25 21.25 0 0 1 15.11318215521548 -14.938347470295392
          A 4 4 0 0 1 17.093280576966716 -16.126678489915328
          L 17.64568077506531 -15.520307663976766 
          A 4 4 0 0 1 16.278444416278358 -13.659236705839037
        
          A 21.25 21.25 0 0 1 17.045117846044757 -12.689620073684278
          A 4 4 0 0 1 19.17132979903813 -13.590809899947761
          L 19.633963568204095 -12.913460984664017 
          A 4 4 0 0 1 18.021022043324137 -11.260784364955672
        
          A 21.25 21.25 0 0 1 18.645289706534957 -10.193903656567795
          A 4 4 0 0 1 20.8762308936357 -10.790411654594841
          L 21.24009359379034 -10.05526847612894 
          A 4 4 0 0 1 19.41284097490537 -8.64315366536081
        
          A 21.25 21.25 0 0 1 19.88255221159015 -7.499774500169764
          A 4 4 0 0 1 22.174799900249337 -7.779990320296568
          L 22.432809357821828 -7.001361604404376 
          A 4 4 0 0 1 20.426811038689394 -5.8572938111112745
        
          A 21.25 21.25 0 0 1 20.732823453914673 -4.659670763992979
          A 4 4 0 0 1 23.041761650265645 -4.618140324021543
          L 23.18889600464574 -3.8111811929808654 
          A 4 4 0 0 1 21.043196460758487 -2.9574283954014158
        
          A 21.25 21.25 0 0 1 21.179553870945874 -1.7288718366920068
          A 4 4 0 0 1 23.460241719374938 -1.3664034793961994
          L 23.493637167717488 -0.5468204747903365 
          A 4 4 0 0 1 21.250000000000124 -8.934933171584372e-15
        
         z"
            id="gear" />
    </g>
        
   
    <g style="fill:#ffcccc"  transform="translate(200,200)">
        <path style="fill:#ffcccc;stroke:#000000;stroke-width:0.050000"
            d="M 1.961161351381842 9.8058067569092 A 10 10 0 1 0 -1.9611613513818411 9.8058067569092
              L -1.9611613513818411 11.8058067569092  1.961161351381842 11.8058067569092  1.961161351381842 9.8058067569092"
            id="bearing" />
    </g>
        
   </g>
   
</svg>
