<?xml version="1.0" encoding="UTF-8" standalone="no"?>
<svg
   xmlns:svg="http://www.w3.org/2000/svg"
   xmlns="http://www.w3.org/2000/svg"
   xmlns:inkscape="http://www.inkscape.org/namespaces/inkscape"
   width="400mm"
   height="200mm"
   viewBox="0 0 400 200"
   version="1.1"
   id="gear_hobbymat">
   <defs>
     
            <path id="gear" style="fill:#cccccc;stroke:#000000;stroke-width:0.025000"
                d="  M  23.75 0.0      
          A 23.75 23.75 0 0 1 23.72363453034679 1.118778204354013
          A 5.063 5.063 0 0 1 25.932669232994666 1.869937552992617
          L 25.868010994574718 2.6164875662922342 
          A 5.063 5.063 0 0 1 23.562724156218852 2.976664297152226
        
          A 23.75 23.75 0 0 1 23.396346496175884 4.083316131635977
          A 5.063 5.063 0 0 1 25.49381707029977 5.105417826788763
          L 25.336101154217925 5.837977244152088 
          A 5.063 5.063 0 0 1 23.003850076804998 5.906384820165302
        
          A 23.75 23.75 0 0 1 22.700084101460348 6.98345772426722
          A 5.063 5.063 0 0 1 24.652912183138117 8.260382611627671
          L 24.404625863605908 8.967398533433101 
          A 5.063 5.063 0 0 1 22.08219153984598 8.742958126261104
        
          A 23.75 23.75 0 0 1 21.645827820091835 9.773466016871337
          A 5.063 5.063 0 0 1 23.423216143912477 11.285076228167828
          L 23.088275044507988 11.95539859097765 
          A 5.063 5.063 0 0 1 20.81228365104177 11.441649759915745
        
          A 23.75 23.75 0 0 1 20.2502039034097 12.409340912003794
          A 5.063 5.063 0 0 1 21.824121993746246 14.131797451212007
          L 21.407808335691197 14.754854870933542 
          A 5.063 5.063 0 0 1 19.214153616405014 13.959899741946248
        
          A 23.75 23.75 0 0 1 18.535222174285344 14.84951308797301
          A 5.063 5.063 0 0 1 19.880848402640094 16.75565178652397
          L 19.38972770101574 17.321618275451744 
          A 5.063 5.063 0 0 1 17.313004901258537 16.25799376580637
        
          A 23.75 23.75 0 0 1 16.527928919067477 17.05549957187575
          A 5.063 5.063 0 0 1 17.624041955981134 19.115259483821244
          L 17.065859477633378 19.61520941233288 
          A 5.063 5.063 0 0 1 15.138819756531396 18.299689515925017
        
          A 23.75 23.75 0 0 1 14.259980351489762 18.992510639068424
          A 5.063 5.063 0 0 1 15.089293839584004 21.17340812015614
          L 14.472852455638439 21.599456979223394 
          A 5.063 5.063 0 0 1 12.725886380751184 20.052788230672885
        
          A 23.75 23.75 0 0 1 11.767143375269693 20.629998467907072
          A 5.063 5.063 0 0 1 12.316578545429412 22.897639462055253
          L 11.651599904755091 23.24306820666138 
          A 5.063 5.063 0 0 1 10.112258174670488 21.489642496067997
        
          A 23.75 23.75 0 0 1 9.088731518670894 21.942138897143096
          A 5.063 5.063 0 0 1 9.349623450046007 24.260761351250956
          L 8.646594663045352 24.52012236374439 
          A 5.063 5.063 0 0 1 7.339153616405013 22.587592262009935
        
          A 23.75 23.75 0 0 1 6.266984936677616 22.908238688372744
          A 5.063 5.063 0 0 1 6.235219207661052 25.241276541261087
          L 5.505227458274104 25.410479543540053 
          A 5.063 5.063 0 0 1 4.450306221410968 23.329322204806402
        
          A 23.75 23.75 0 0 1 3.346404258517594 23.51306187076829
          A 5.063 5.063 0 0 1 3.0224818336318715 25.823721721807804
          L 2.277039527822395 25.90009828144938 
          A 5.063 5.063 0 0 1 1.4912748388211954 23.7031348001715
        
          A 23.75 23.75 0 0 1 0.37304878615574144 23.74707002143949
          A 5.063 5.063 0 0 1 -0.23792188445681456 25.998911384457998
          L -0.987058676220555 25.9812569974915 
          A 5.063 5.063 0 0 1 -1.4912748388211965 23.703134800171505
        
          A 23.75 23.75 0 0 1 -2.606189888412332 23.60657269206057
          A 5.063 5.063 0 0 1 -3.4945734322999735 25.76408268357844
          L -4.235590375299236 25.65267577023254 
          A 5.063 5.063 0 0 1 -4.450306221410971 23.32932220480641
        
          A 23.75 23.75 0 0 1 -5.544327391577767 23.093785609444872
          A 5.063 5.063 0 0 1 -6.696113469558781 25.12293900806187
          L -7.417324283940402 24.919536521911304 
          A 5.063 5.063 0 0 1 -7.33915361640502 22.587592262009952
        
          A 23.75 23.75 0 0 1 -8.395027539757379 22.216795732209405
          A 5.063 5.063 0 0 1 -9.792051797338354 24.085591576671856
          L -10.482082557729079 23.79340129642997 
          A 5.063 5.063 0 0 1 -10.112258174670504 21.48964249606802
        
          A 23.75 23.75 0 0 1 -11.11333308868865 20.989433714606523
          A 5.063 5.063 0 0 1 -12.733563618785695 22.668399978082732
          L -13.381532127889765 22.292029919014954 
          A 5.063 5.063 0 0 1 -12.725886380751211 20.052788230672913
        
          A 23.75 23.75 0 0 1 -13.65637473602791 19.43105578884436
          A 5.063 5.063 0 0 1 -15.474259535302586 20.893714170393476
          L -16.069946942653807 20.439099913163883 
          A 5.063 5.063 0 0 1 -15.138819756531431 18.29968951592505
        
          A 23.75 23.75 0 0 1 -15.984047195857169 17.566238505742035
          A 5.063 5.063 0 0 1 -17.970917135073176 18.78952200893726
          L -18.504929094411207 18.263833091955753 
          A 5.063 5.063 0 0 1 -17.313004901258584 16.257993765806408
        
          A 23.75 23.75 0 0 1 -18.059641683000795 15.424391147841911
          A 5.063 5.063 0 0 1 -20.18416263631813 16.389007861083716
          L -20.648077460040934 15.80053471260243 
          A 5.063 5.063 0 0 1 -19.214153616405074 13.959899741946282
        
          A 23.75 23.75 0 0 1 -19.850424832496493 13.039291927455672
          A 5.063 5.063 0 0 1 -22.079091835354035 13.730029268942138
          L -22.465593309562212 13.088052462049445 
          A 5.063 5.063 0 0 1 -20.812283651041838 11.441649759915776
        
          A 23.75 23.75 0 0 1 -21.328154924314703 10.44855528407802
          A 5.063 5.063 0 0 1 -23.625820566736255 10.85451991330742
          L -23.92881333229676 10.169163805746372 
          A 5.063 5.063 0 0 1 -22.082191539846054 8.742958126261131
        
          A 23.75 23.75 0 0 1 -22.469527272154288 7.693038682206075
          A 5.063 5.063 0 0 1 -24.799955994399937 7.807828294463947
          L -25.014661674400774 7.089901361462674 
          A 5.063 5.063 0 0 1 -23.003850076805083 5.9063848201653215
        
          A 23.75 23.75 0 0 1 -23.256541752267033 4.816198264717188
          A 5.063 5.063 0 0 1 -25.582981301256332 4.6380025592462335
          L -25.706013858864928 3.898826937406929 
          A 5.063 5.063 0 0 1 -23.56272415621895 2.9766642971522344
        
          A 23.75 23.75 0 0 1 -23.67678667616189 1.8634035235363215
          A 5.063 5.063 0 0 1 -25.96254771045965 1.395032753060773
          L -25.991966848746433 0.6462656835019562 
          A 5.063 5.063 0 0 1 -23.7500000000001 -3.549511112383313e-15
        
          A 23.75 23.75 0 0 1 -23.72363453034689 -1.1187782043540213
          A 5.063 5.063 0 0 1 -25.932669232994776 -1.8699375529926285
          L -25.868010994574824 -2.616487566292249 
          A 5.063 5.063 0 0 1 -23.562724156218952 -2.976664297152242
        
          A 23.75 23.75 0 0 1 -23.396346496175983 -4.083316131635998
          A 5.063 5.063 0 0 1 -25.493817070299876 -5.105417826788789
          L -25.33610115421803 -5.837977244152117 
          A 5.063 5.063 0 0 1 -23.003850076805094 -5.90638482016533
        
          A 23.75 23.75 0 0 1 -22.700084101460444 -6.983457724267254
          A 5.063 5.063 0 0 1 -24.65291218313822 -8.260382611627712
          L -24.40462586360601 -8.967398533433144 
          A 5.063 5.063 0 0 1 -22.082191539846075 -8.742958126261145
        
          A 23.75 23.75 0 0 1 -21.645827820091927 -9.773466016871383
          A 5.063 5.063 0 0 1 -23.42321614391258 -11.285076228167881
          L -23.088275044508087 -11.955398590977707 
          A 5.063 5.063 0 0 1 -20.812283651041863 -11.4416497599158
        
          A 23.75 23.75 0 0 1 -20.250203903409794 -12.409340912003852
          A 5.063 5.063 0 0 1 -21.82412199374635 -14.131797451212073
          L -21.4078083356913 -14.754854870933611 
          A 5.063 5.063 0 0 1 -19.214153616405103 -13.959899741946314
        
          A 23.75 23.75 0 0 1 -18.53522217428543 -14.849513087973081
          A 5.063 5.063 0 0 1 -19.88084840264019 -16.755651786524048
          L -19.389727701015836 -17.321618275451826 
          A 5.063 5.063 0 0 1 -17.313004901258623 -16.257993765806447
        
          A 23.75 23.75 0 0 1 -16.52792891906756 -17.05549957187583
          A 5.063 5.063 0 0 1 -17.62404195598122 -19.115259483821337
          L -17.065859477633463 -19.615209412332973 
          A 5.063 5.063 0 0 1 -15.13881975653147 -18.299689515925103
        
          A 23.75 23.75 0 0 1 -14.25998035148983 -18.992510639068513
          A 5.063 5.063 0 0 1 -15.089293839584077 -21.17340812015624
          L -14.47285245563851 -21.599456979223497 
          A 5.063 5.063 0 0 1 -12.725886380751247 -20.05278823067298
        
          A 23.75 23.75 0 0 1 -11.76714337526975 -20.62999846790717
          A 5.063 5.063 0 0 1 -12.316578545429469 -22.897639462055366
          L -11.651599904755146 -23.243068206661498 
          A 5.063 5.063 0 0 1 -10.112258174670536 -21.489642496068104
        
          A 23.75 23.75 0 0 1 -9.088731518670938 -21.942138897143206
          A 5.063 5.063 0 0 1 -9.349623450046051 -24.26076135125108
          L -8.646594663045393 -24.52012236374452 
          A 5.063 5.063 0 0 1 -7.3391536164050475 -22.58759226201005
        
          A 23.75 23.75 0 0 1 -6.266984936677646 -22.90823868837286
          A 5.063 5.063 0 0 1 -6.235219207661081 -25.241276541261215
          L -5.505227458274129 -25.41047954354018 
          A 5.063 5.063 0 0 1 -4.450306221410988 -23.32932220480652
        
          A 23.75 23.75 0 0 1 -3.346404258517608 -23.513061870768407
          A 5.063 5.063 0 0 1 -3.0224818336318835 -25.82372172180793
          L -2.2770395278224034 -25.90009828144951 
          A 5.063 5.063 0 0 1 -1.4912748388212003 -23.703134800171615
        
          A 23.75 23.75 0 0 1 -0.373048786155741 -23.747070021439605
          A 5.063 5.063 0 0 1 0.2379218844568182 -25.998911384458122
          L 0.9870586762205622 -25.981256997491624 
          A 5.063 5.063 0 0 1 1.4912748388212058 -23.70313480017162
        
          A 23.75 23.75 0 0 1 2.606189888412346 -23.606572692060684
          A 5.063 5.063 0 0 1 3.4945734322999926 -25.764082683578565
          L 4.2355903752992585 -25.652675770232666 
          A 5.063 5.063 0 0 1 4.450306221410995 -23.329322204806523
        
          A 23.75 23.75 0 0 1 5.544327391577796 -23.093785609444986
          A 5.063 5.063 0 0 1 6.696113469558816 -25.122939008061994
          L 7.417324283940441 -24.919536521911425 
          A 5.063 5.063 0 0 1 7.339153616405057 -22.587592262010062
        
          A 23.75 23.75 0 0 1 8.39502753975742 -22.216795732209512
          A 5.063 5.063 0 0 1 9.7920517973384 -24.085591576671973
          L 10.482082557729129 -23.793401296430087 
          A 5.063 5.063 0 0 1 10.112258174670552 -21.48964249606813
        
          A 23.75 23.75 0 0 1 11.113333088688703 -20.98943371460663
          A 5.063 5.063 0 0 1 12.733563618785753 -22.668399978082846
          L 13.381532127889827 -22.292029919015064 
          A 5.063 5.063 0 0 1 12.72588638075127 -20.05278823067301
        
          A 23.75 23.75 0 0 1 13.656374736027974 -19.431055788844454
          A 5.063 5.063 0 0 1 15.474259535302659 -20.893714170393576
          L 16.069946942653882 -20.43909991316398 
          A 5.063 5.063 0 0 1 15.138819756531502 -18.299689515925138
        
          A 23.75 23.75 0 0 1 15.984047195857245 -17.56623850574212
          A 5.063 5.063 0 0 1 17.97091713507326 -18.789522008937354
          L 18.504929094411295 -18.263833091955842 
          A 5.063 5.063 0 0 1 17.313004901258665 -16.257993765806486
        
          A 23.75 23.75 0 0 1 18.059641683000883 -15.424391147841986
          A 5.063 5.063 0 0 1 20.184162636318227 -16.389007861083797
          L 20.64807746004103 -15.80053471260251 
          A 5.063 5.063 0 0 1 19.214153616405167 -13.959899741946352
        
          A 23.75 23.75 0 0 1 19.85042483249659 -13.039291927455738
          A 5.063 5.063 0 0 1 22.07909183535414 -13.730029268942207
          L 22.46559330956232 -13.088052462049511 
          A 5.063 5.063 0 0 1 20.812283651041938 -11.441649759915833
        
          A 23.75 23.75 0 0 1 21.328154924314806 -10.448555284078072
          A 5.063 5.063 0 0 1 23.62582056673637 -10.854519913307476
          L 23.928813332296873 -10.169163805746424 
          A 5.063 5.063 0 0 1 22.082191539846164 -8.742958126261176
        
          A 23.75 23.75 0 0 1 22.469527272154398 -7.693038682206113
          A 5.063 5.063 0 0 1 24.79995599440006 -7.807828294463986
          L 25.014661674400898 -7.08990136146271 
          A 5.063 5.063 0 0 1 23.003850076805197 -5.906384820165352
        
          A 23.75 23.75 0 0 1 23.256541752267147 -4.816198264717213
          A 5.063 5.063 0 0 1 25.582981301256456 -4.6380025592462575
          L 25.706013858865052 -3.8988269374069495 
          A 5.063 5.063 0 0 1 23.562724156219062 -2.9766642971522503
        
          A 23.75 23.75 0 0 1 23.676786676162003 -1.8634035235363322
          A 5.063 5.063 0 0 1 25.962547710459773 -1.3950327530607816
          L 25.991966848746557 -0.6462656835019612 
          A 5.063 5.063 0 0 1 23.750000000000213 1.8254628577971325e-15
        
         z"
            />
        
     
        <circle id="reinforcement" style="fill:#cccccc;stroke:#000000;stroke-width:0.025000"
            cx="0" cy="0" r="15"
        />
        
     
        <path id="bearing" style="fill:#ffcccc;stroke:#000000;stroke-width:0.025000"
            d="M 1.961161351381842 9.8058067569092 A 10 10 0 1 0 -1.9611613513818411 9.8058067569092
              L -1.9611613513818411 11.8058067569092  1.961161351381842 11.8058067569092  1.961161351381842 9.8058067569092"
        />
        
   </defs>

   <!--
   module                   : 1.000000
   nb-teeth                 : 50
   ratio-teeth-gap-foot     : 0.600000
   teeth-curvature          : 5.000000
   ratio-teeth-head-foot    : 0.400000
   -->

   <g>
     <!-- first gear -->
     <use href="#gear"    id="gear_1"    transform="translate(100,100) rotate(0)" >
      <animateTransform attributeType="xml" attributeName="transform" type="rotate" from="0 0 0" to="360 0 0" dur="30.000000s" additive="sum" repeatCount="indefinite" />
     </use>
     <use href="#bearing" id="bearing_1" transform="translate(100,100)">
      <animateTransform attributeType="xml" attributeName="transform" type="rotate" from="0 0 0" to="360 0 0" dur="30.000000s" additive="sum" repeatCount="indefinite" />
     </use>

     <!-- second gear -->
     <use href="#gear"    id="gear_2"    transform="translate(150.000000,100) rotate(0)">
      <animateTransform attributeType="xml" attributeName="transform" type="rotate" from="0.900000 0 0" to="-359.100000 0 0" dur="30.000000s" additive="sum" repeatCount="indefinite" />
    </use>
     
     <use href="#bearing" id="bearing_2" transform="translate(150.000000,100) rotate(0)">
       <animateTransform attributeType="xml" attributeName="transform" type="rotate" from="0.900000 0 0" to="-359.100000 0 0" dur="30.000000s" additive="sum" repeatCount="indefinite" />
     </use>

     <!-- reference lines -->
     
     <!-- gear1 horizontal axis -->
     <path style="stroke:#ff0000;stroke-width:0.050000" d="M 0 100 L 300 100" ></path>
     <!-- gear1 vertical axis -->
     <path style="stroke:#ff0000;stroke-width:0.050000" d="M 100 0 L 100 200" ></path>
    
     <!-- middle vertical -->
     <path style="fill:#ffcccc;stroke:#000000;stroke-width:0.050000" d="M 125.000000 0 L 125.000000 300" ></path>

     <!-- gear2 vertical axis -->     
     <path style="stroke:#0000ff;stroke-width:0.050000" d="M 150.000000 0 L 150.000000 300" ></path>

   </g>
   
</svg>
