<?xml version="1.0" encoding="UTF-8" standalone="no"?>
<svg
  width="220mm"
  height="200mm"
  viewBox="0 0 220 200"
  version="1.1"
  id="screw-driver-box"
  xmlns="http://www.w3.org/2000/svg"
  xmlns:svg="http://www.w3.org/2000/svg">  
  <g id="layer">
    <rect id="box" x="10" y ="10" width="205" height="80" rx="5" ry="5" style="fill:#888888"/>
	<rect id="box-inner" x="15" y ="15" width="195" height="70" rx="5" ry="5" style="fill:#777777"/>
     
	<rect id="screw-driver" x="20" y ="20" width="185" height="20" rx="3" ry="3" style="fill:#444444"/>
	<rect id="tools" x="20" y ="50" width="63" height="30" rx="3" ry="3" style="fill:#444444"/>
	<rect id="cable" x="90" y ="55" width="115" height="25" rx="3" ry="3" style="fill:#444444"/>
	
	<rect id="schlitz-1" x="35" y ="40" width="30" height="10" rx="0" ry="0" style="fill:#666666"/>
	<rect id="schlitz-2" x="120" y ="40" width="50" height="10" rx="0" ry="0" style="fill:#666666"/>
	
	<text id="screw-driver-legend" xml:space="preserve" style="font-size:6px;font-family:sans-serif;"
      x="100" y="33">h = 15mm</text>
	<text id="tools-legend" xml:space="preserve" style="font-size:6px;font-family:sans-serif;"
      x="40" y="70">h = 10mm</text>
	<text id="cable-legend" xml:space="preserve" style="font-size:6px;font-family:sans-serif;"
      x="130" y="70">h = 20mm</text>
  </g>
  
    <g id="layer-cover">
      <rect id="cover" x="10" y ="100" width="205" height="80" rx="5" ry="5" style="fill:#888888"/>
	  <rect id="cover-inner" x="15" y ="105" width="195" height="70" rx="5" ry="5" style="fill:#777777"/>
	  <text id="cover-legend" xml:space="preserve" style="font-style:normal;font-weight:normal;font-size:10px;line-height:1.25;font-family:sans-serif;fill:#000000;fill-opacity:1;stroke:none;stroke-width:0.264583"
      x="95" y="145">COVER</text>
  </g>
</svg>
