<?xml version="1.0" encoding="UTF-8" standalone="no"?>
<svg
   xmlns:dc="http://purl.org/dc/elements/1.1/"
   xmlns:cc="http://creativecommons.org/ns#"
   xmlns:rdf="http://www.w3.org/1999/02/22-rdf-syntax-ns#"
   xmlns:svg="http://www.w3.org/2000/svg"
   xmlns="http://www.w3.org/2000/svg"
   xmlns:sodipodi="http://sodipodi.sourceforge.net/DTD/sodipodi-0.dtd"
   xmlns:inkscape="http://www.inkscape.org/namespaces/inkscape"
   width="100mm"
   height="50mm"
   viewBox="0 0 100 50"
   version="1.1"
   id="svg8"
   inkscape:version="1.0.2 (e86c8708, 2021-01-15)"
   sodipodi:docname="xm_path.svg">
  <defs
     id="defs2" />
  <sodipodi:namedview
     id="base"
     pagecolor="#ffffff"
     bordercolor="#666666"
     borderopacity="1.0"
     inkscape:pageopacity="0.0"
     inkscape:pageshadow="2"
     inkscape:zoom="1.4"
     inkscape:cx="180.06166"
     inkscape:cy="102.85714"
     inkscape:document-units="mm"
     inkscape:current-layer="layer1"
     inkscape:document-rotation="0"
     showgrid="false"
     inkscape:window-width="1301"
     inkscape:window-height="999"
     inkscape:window-x="0"
     inkscape:window-y="23"
     inkscape:window-maximized="0" />
  <metadata
     id="metadata5">
    <rdf:RDF>
      <cc:Work
         rdf:about="">
        <dc:format>image/svg+xml</dc:format>
        <dc:type
           rdf:resource="http://purl.org/dc/dcmitype/StillImage" />
        <dc:title></dc:title>
      </cc:Work>
    </rdf:RDF>
  </metadata>
  <g
     inkscape:label="Layer 1"
     inkscape:groupmode="layer"
     id="layer1">
    <g
       aria-label="XM"
       id="text12"
       style="font-style:normal;font-variant:normal;font-weight:normal;font-stretch:normal;font-size:50.8px;line-height:1.25;font-family:'Times New Roman';-inkscape-font-specification:'Times New Roman, Normal';font-variant-ligatures:normal;font-variant-caps:normal;font-variant-numeric:normal;font-variant-east-asian:normal;fill:#000000;fill-opacity:1;stroke:none;stroke-width:0.264583"
       transform="translate(-0.010463,1.6797991)">
      <path
         d="m 30.375111,23.327037 7.218164,10.765234 q 3.001367,4.464843 4.440039,5.655468 1.463476,1.165821 3.695898,1.289844 v 0.917774 H 31.292884 v -0.917774 q 1.438672,-0.02481 2.133203,-0.297656 0.520899,-0.223242 0.84336,-0.669727 0.347265,-0.471289 0.347265,-0.942578 0,-0.570508 -0.223242,-1.141015 -0.173633,-0.42168 -1.364258,-2.182813 l -5.705078,-8.632031 -7.044531,9.028906 q -1.116211,1.438672 -1.339453,1.934766 -0.223242,0.471289 -0.223242,0.992187 0,0.79375 0.669726,1.314649 0.669727,0.520898 2.554883,0.595312 v 0.917774 H 10.010463 v -0.917774 q 1.265039,-0.124023 2.182812,-0.520898 1.537891,-0.644922 2.926953,-1.736328 1.389063,-1.091407 3.175,-3.348633 l 7.9375,-10.021094 -6.622851,-9.698632 Q 16.906166,11.768052 15.02101,10.552623 13.135853,9.3123883 10.680189,9.2379743 V 8.3202009 h 15.552539 v 0.9177734 q -1.984375,0.074414 -2.728515,0.6449218 -0.719336,0.5705079 -0.719336,1.2650389 0,0.917774 1.190625,2.678906 l 5.159375,7.714258 5.977929,-7.565429 q 1.041797,-1.339454 1.265039,-1.835547 0.248047,-0.496094 0.248047,-1.016993 0,-0.520898 -0.297656,-0.917773 Q 35.956165,9.6844586 35.385658,9.4860211 34.81515,9.262779 33.029212,9.2379743 V 8.3202009 h 11.931055 v 0.9177734 q -1.413867,0.074414 -2.306836,0.4464843 -1.339453,0.5705074 -2.455664,1.5378904 -1.116211,0.967383 -3.150195,3.571875 z"
         style="font-style:normal;font-variant:normal;font-weight:normal;font-stretch:normal;font-size:50.8px;font-family:'Times New Roman';-inkscape-font-specification:'Times New Roman, Normal';font-variant-ligatures:normal;font-variant-caps:normal;font-variant-numeric:normal;font-variant-east-asian:normal;stroke-width:0.264583"
         id="path50" />
      <path
         d="M 67.135658,41.955357 54.138002,13.653209 v 22.473046 q 0,3.100586 0.669726,3.869531 0.917774,1.041797 2.902149,1.041797 h 1.190625 v 0.917774 H 47.192689 v -0.917774 h 1.190625 q 2.133203,0 3.026172,-1.289844 0.545703,-0.79375 0.545703,-3.621484 V 14.149302 q 0,-2.232422 -0.496094,-3.224609 Q 51.11183,10.205357 50.169252,9.734068 49.251478,9.2379743 47.192689,9.2379743 V 8.3202009 h 9.525 L 68.921595,34.637974 80.927064,8.3202009 h 9.525 v 0.9177734 h -1.165821 q -2.158007,0 -3.050976,1.2898437 -0.545703,0.79375 -0.545703,3.621484 v 21.976953 q 0,3.100586 0.694531,3.869531 0.917773,1.041797 2.902148,1.041797 h 1.165821 v 0.917774 h -14.2875 v -0.917774 h 1.190625 q 2.158008,0 3.026172,-1.289844 0.545703,-0.79375 0.545703,-3.621484 V 13.653209 L 67.954212,41.955357 Z"
         style="font-style:normal;font-variant:normal;font-weight:normal;font-stretch:normal;font-size:50.8px;font-family:'Times New Roman';-inkscape-font-specification:'Times New Roman, Normal';font-variant-ligatures:normal;font-variant-caps:normal;font-variant-numeric:normal;font-variant-east-asian:normal;stroke-width:0.264583"
         id="path52" />
    </g>
  </g>
</svg>
