<svg xmlns="http://www.w3.org/2000/svg" xmlns:svg="http://www.w3.org/2000/svg" version="1.1" width="140mm" height="113mm" viewBox="0 0 140 113" id="spindle-D55-holder-with-clamp">
  <g id="layer1">
    <path id="contour" d="M 20.0000108,0 l 90.0000486,0 l 0,68.00003672 a 45,45 0 0,1 -90.0000486,0 z" style="fill:none;stroke:#0000ff;stroke-width:0.25"/>
    <path id="contour_with_clamps" d="M 21.00001134,0 l 88.00004752,0 a 1,1 0 0,1 1.00000054,1.00000054 l 0,48.00002592 a 1,1 0 0,0 1.00000054,1.00000054 l 12.00000648,0 a 1,1 0 0,1 1.00000054,1.00000054 l 0,38.00002052 a 1,1 0 0,1 -1.00000054,1.00000054 l -18.700010098,0 A 45,45 0 0,1 25.700013878,90.0000486 l -18.700010098,0 a 1,1 0 0,1 -1.00000054,-1.00000054 l 0,-38.00002052 a 1,1 0 0,1 1.00000054,-1.00000054 l 12.00000648,0 a 1,1 0 0,0 1.00000054,-1.00000054 l 0,-48.00002592 a 1,1 0 0,1 1.00000054,-1.00000054" style="fill:none;stroke:#0000ff;stroke-width:0.5"/>
    <circle id="screw_central_hole" cx="65.000" cy="16.000" r="11.000" style="fill:#ff0000;fill-opacity:1"/>
    <!-- backlash -->
    <g id="backlash">
      <!-- cut through -->
      <circle id="backlash_item_hole" cx="65.000" cy="16.000" r="5.000" style="fill:#ff00ff;fill-opacity:1"/>
      <!-- cut through -->
      <circle id="backlash_item_screw_3.0mm_E" cx="73.000" cy="16.000" r="1.500" style="fill:#ff00ff;fill-opacity:1"/>
      <circle id="backlash_item_screw_3.0mm_S" cx="65.000" cy="24.000" r="1.500" style="fill:#ff00ff;fill-opacity:1"/>
      <circle id="backlash_item_screw_3.0mm_W" cx="57.000" cy="16.000" r="1.500" style="fill:#ff00ff;fill-opacity:1"/>
      <circle id="backlash_item_screw_3.0mm_N" cx="65.000" cy="8.000" r="1.500" style="fill:#ff00ff;fill-opacity:1"/>
    </g>
    <!-- bearing 1 -->
    <g id="bearing_1">
      <rect id="bearing_1_base" width="32.000" height="32.000" x="20.000" y="0.000" rx="4.000" ry="4.000" style="fill:#000080;fill-opacity:0.2"/>
      <g id="bearing_1_items">
        <!-- reference is the center of the bearing item -->
        <circle id="bearing_1_cylinder" cx="36.000" cy="16.000" r="10.500" style="fill:#ff0000;fill-opacity:1"/>
        <circle id="bearing_1_screw_4.0mm_SE" cx="47.314" cy="27.314" r="2.000" style="fill:#000080;fill-opacity:1"/>
        <circle id="bearing_1_screw_4.0mm_SW" cx="24.686" cy="27.314" r="2.000" style="fill:#000080;fill-opacity:1"/>
        <circle id="bearing_1_screw_4.0mm_NW" cx="24.686" cy="4.686" r="2.000" style="fill:#000080;fill-opacity:1"/>
        <circle id="bearing_1_screw_4.0mm_NE" cx="47.314" cy="4.686" r="2.000" style="fill:#000080;fill-opacity:1"/>
      </g>
    </g>
    <!-- bearing 2 -->
    <g id="bearing_2">
      <rect id="bearing_2_base" width="32.000" height="32.000" x="78.000" y="0.000" rx="4.000" ry="4.000" style="fill:#000080;fill-opacity:0.2"/>
      <g id="bearing_2_items">
        <!-- reference is the center of the bearing item -->
        <circle id="bearing_2_cylinder" cx="94.000" cy="16.000" r="10.500" style="fill:#ff0000;fill-opacity:1"/>
        <circle id="bearing_2_screw_4.0mm_SE" cx="105.314" cy="27.314" r="2.000" style="fill:#000080;fill-opacity:1"/>
        <circle id="bearing_2_screw_4.0mm_SW" cx="82.686" cy="27.314" r="2.000" style="fill:#000080;fill-opacity:1"/>
        <circle id="bearing_2_screw_4.0mm_NW" cx="82.686" cy="4.686" r="2.000" style="fill:#000080;fill-opacity:1"/>
        <circle id="bearing_2_screw_4.0mm_NE" cx="105.314" cy="4.686" r="2.000" style="fill:#000080;fill-opacity:1"/>
      </g>
    </g>
    <circle id="spindle-hole" cx="65.000" cy="68.000" r="27.500" style="fill:#ff0000;fill-opacity:1"/>
    <circle id="large_circle_indicator" cx="65.000" cy="68.000" r="45.000" style="fill:#ff00ff;fill-opacity:0.1"/>
    <circle id="spacer_NW" cx="35.000" cy="44.000" r="6.000" style="fill:#ff0000;fill-opacity:1"/>
    <circle id="spacer_NE" cx="95.000" cy="44.000" r="6.000" style="fill:#ff0000;fill-opacity:1"/>
    <circle id="spacer_SW" cx="35.000" cy="88.000" r="6.000" style="fill:#ff0000;fill-opacity:1"/>
    <circle id="spacer_SE" cx="95.000" cy="88.000" r="6.000" style="fill:#ff0000;fill-opacity:1"/>
    <circle id="spacer_screw_5.0mm_NW" cx="35.000" cy="44.000" r="2.500" style="fill:#0000ff;fill-opacity:1"/>
    <circle id="spacer_screw_5.0mm_NE" cx="95.000" cy="44.000" r="2.500" style="fill:#0000ff;fill-opacity:1"/>
    <circle id="spacer_screw_5.0mm_SW" cx="35.000" cy="88.000" r="2.500" style="fill:#0000ff;fill-opacity:1"/>
    <circle id="spacer_screw_5.0mm_SE" cx="95.000" cy="88.000" r="2.500" style="fill:#0000ff;fill-opacity:1"/>
    <text id="legend" x="20.000" y="65.000" style="font-style:normal;font-weight:normal;font-size:4.93889px;line-height:1.25;font-family:sans-serif;fill:#000000;fill-opacity:1;stroke:none;stroke-width:0.264583">Spindle Diameter: 55 mm
    </text>
    <path id="horizontal_line" d="M 20.0000108,68.00003672 L 110.0000594,68.00003672" style="fill:none;stroke:#000000;stroke-width:0.1"/>
    <path id="vertical_line" d="M 65.0000351,0 L 65.0000351,113.00006102" style="fill:none;stroke:#000000;stroke-width:0.1"/>
  </g>
</svg>
