<svg xmlns="http://www.w3.org/2000/svg" xmlns:svg="http://www.w3.org/2000/svg" version="1.1" width="90mm" height="111mm" viewBox="0 0 90 111" id="spindle-D55">
  <g id="layer1">
    <!--
		<path id="contour" style="fill:none;stroke:#0000ff;stroke-width:0.25"
		d="M 0.0,0.0 h 90 v 66 a 45,45 0 0 1 -90,0 z" />
		-->
    <path id="contour" d="M 1.00000054,0 l 88.00004752,0 a 1,1 0 0,1 1.00000054,1.00000054 l 0,65.0000351 a 45,45 0 0,1 -90.0000486,0 l 0,-65.0000351 a 1,1 0 0,1 1.00000054,-1.00000054 z" style="fill:none;stroke:#0000ff;stroke-width:0.25"/>
    <circle id="screw_central_hole" cx="45.000" cy="16.000" r="11.000" style="fill:#ff0000;fill-opacity:1"/>
    <!-- backlash -->
    <g id="backlash">
      <!-- cut through -->
      <circle id="backlash_item_hole" cx="45.000" cy="16.000" r="5.000" style="fill:#ff00ff;fill-opacity:1"/>
      <!-- cut through -->
      <circle id="backlash_item_screw_3.0mm_E" cx="53.000" cy="16.000" r="1.500" style="fill:#ff00ff;fill-opacity:1"/>
      <circle id="backlash_item_screw_3.0mm_S" cx="45.000" cy="24.000" r="1.500" style="fill:#ff00ff;fill-opacity:1"/>
      <circle id="backlash_item_screw_3.0mm_W" cx="37.000" cy="16.000" r="1.500" style="fill:#ff00ff;fill-opacity:1"/>
      <circle id="backlash_item_screw_3.0mm_N" cx="45.000" cy="8.000" r="1.500" style="fill:#ff00ff;fill-opacity:1"/>
    </g>
    <!-- bearing 1 -->
    <g id="bearing_1">
      <rect id="bearing_1_base" width="32.000" height="32.000" x="0.000" y="0.000" rx="4.000" ry="4.000" style="fill:#000080;fill-opacity:0.2"/>
      <g id="bearing_1_items">
        <!-- reference is the center of the bearing item -->
        <circle id="bearing_1_cylinder" cx="16.000" cy="16.000" r="10.500" style="fill:#ff0000;fill-opacity:1"/>
        <circle id="bearing_1_screw_4.5mm_SE" cx="27.314" cy="27.314" r="2.000" style="fill:#000080;fill-opacity:1"/>
        <circle id="bearing_1_screw_4.5mm_SW" cx="4.686" cy="27.314" r="2.000" style="fill:#000080;fill-opacity:1"/>
        <circle id="bearing_1_screw_4.5mm_NW" cx="4.686" cy="4.686" r="2.000" style="fill:#000080;fill-opacity:1"/>
        <circle id="bearing_1_screw_4.5mm_NE" cx="27.314" cy="4.686" r="2.000" style="fill:#000080;fill-opacity:1"/>
        <circle id="bearing_1_screw_gew_3.2mm_SE" cx="27.314" cy="27.314" r="1.600" style="fill:#008080;fill-opacity:1"/>
        <circle id="bearing_1_screw_gew_3.2mm_SW" cx="4.686" cy="27.314" r="1.600" style="fill:#008080;fill-opacity:1"/>
        <circle id="bearing_1_screw_gew_3.2mm_NW" cx="4.686" cy="4.686" r="1.600" style="fill:#008080;fill-opacity:1"/>
        <circle id="bearing_1_screw_gew_3.2mm_NE" cx="27.314" cy="4.686" r="1.600" style="fill:#008080;fill-opacity:1"/>
      </g>
    </g>
    <!-- bearing 2 -->
    <g id="bearing_2">
      <rect id="bearing_2_base" width="32.000" height="32.000" x="58.000" y="0.000" rx="4.000" ry="4.000" style="fill:#000080;fill-opacity:0.2"/>
      <g id="bearing_2_items">
        <!-- reference is the center of the bearing item -->
        <circle id="bearing_2_cylinder" cx="74.000" cy="16.000" r="10.500" style="fill:#ff0000;fill-opacity:1"/>
        <circle id="bearing_2_screw_4.5mm_SE" cx="85.314" cy="27.314" r="2.000" style="fill:#000080;fill-opacity:1"/>
        <circle id="bearing_2_screw_4.5mm_SW" cx="62.686" cy="27.314" r="2.000" style="fill:#000080;fill-opacity:1"/>
        <circle id="bearing_2_screw_4.5mm_NW" cx="62.686" cy="4.686" r="2.000" style="fill:#000080;fill-opacity:1"/>
        <circle id="bearing_2_screw_4.5mm_NE" cx="85.314" cy="4.686" r="2.000" style="fill:#000080;fill-opacity:1"/>
        <circle id="bearing_2_screw_gew_3.2mm_SE" cx="85.314" cy="27.314" r="1.600" style="fill:#008080;fill-opacity:1"/>
        <circle id="bearing_2_screw_gew_3.2mm_SW" cx="62.686" cy="27.314" r="1.600" style="fill:#008080;fill-opacity:1"/>
        <circle id="bearing_2_screw_gew_3.2mm_NW" cx="62.686" cy="4.686" r="1.600" style="fill:#008080;fill-opacity:1"/>
        <circle id="bearing_2_screw_gew_3.2mm_NE" cx="85.314" cy="4.686" r="1.600" style="fill:#008080;fill-opacity:1"/>
      </g>
    </g>
    <circle id="large_circle_indicator" cx="45.000" cy="66.000" r="45.000" style="fill:#ff00ff;fill-opacity:0.1"/>
    <circle id="spindle-hole" cx="45.000" cy="66.000" r="27.500" style="fill:#ff0000;fill-opacity:1"/>
    <circle id="spindle-small-base" cx="45.000" cy="66.000" r="19.000" style="fill:#ffff00;fill-opacity:1"/>
    <!-- diam = 38mm , height = 6mm -->
    <g id="spindle_center">
      <circle id="spindle_screw_3.0mm_SE" cx="60.550" cy="81.550" r="1.500" style="fill:#000080;fill-opacity:1"/>
      <circle id="spindle_screw_3.0mm_SW" cx="29.450" cy="81.550" r="1.500" style="fill:#000080;fill-opacity:1"/>
      <circle id="spindle_screw_3.0mm_NN" cx="45.000" cy="44.000" r="1.500" style="fill:#000080;fill-opacity:1"/>
      <circle id="spindle_screw_gew_2.5mm_SE" cx="60.550" cy="81.550" r="1.250" style="fill:#008080;fill-opacity:1"/>
      <circle id="spindle_screw_gew_2.5mm_SW" cx="29.450" cy="81.550" r="1.250" style="fill:#008080;fill-opacity:1"/>
      <circle id="spindle_screw_gew_2.5mm_NN" cx="45.000" cy="44.000" r="1.250" style="fill:#008080;fill-opacity:1"/>
    </g>
    <circle id="spacer_pocket_NW" cx="15.000" cy="42.000" r="6.000" style="fill:#ff0000;fill-opacity:1"/>
    <circle id="spacer_pocket_NE" cx="75.000" cy="42.000" r="6.000" style="fill:#ff0000;fill-opacity:1"/>
    <circle id="spacer_pocket_SW" cx="15.000" cy="86.000" r="6.000" style="fill:#ff0000;fill-opacity:1"/>
    <circle id="spacer_pocket_SE" cx="75.000" cy="86.000" r="6.000" style="fill:#ff0000;fill-opacity:1"/>
    <circle id="spacer_screw_5.0mm_NW" cx="15.000" cy="42.000" r="2.500" style="fill:#0000ff;fill-opacity:1"/>
    <circle id="spacer_screw_5.0mm_NE" cx="75.000" cy="42.000" r="2.500" style="fill:#0000ff;fill-opacity:1"/>
    <circle id="spacer_screw_5.0mm_SW" cx="15.000" cy="86.000" r="2.500" style="fill:#0000ff;fill-opacity:1"/>
    <circle id="spacer_screw_5.0mm_SE" cx="75.000" cy="86.000" r="2.500" style="fill:#0000ff;fill-opacity:1"/>
    <text id="legend" x="20.000" y="65.000" style="font-style:normal;font-weight:normal;font-size:4.93889px;line-height:1.25;font-family:sans-serif;fill:#000000;fill-opacity:1;stroke:none;stroke-width:0.264583">
			Spindle Diameter: 55 mm
		</text>
    <path id="horizontal_line" d="M 0,66.00003564 L 90.0000486,66.00003564" style="fill:none;stroke:#000000;stroke-width:0.1"/>
    <path id="vertical_line" d="M 45.0000243,0 L 45.0000243,111.00005994" style="fill:none;stroke:#000000;stroke-width:0.1"/>
  </g>
</svg>
