<?xml version="1.0" encoding="UTF-8" standalone="no"?>
<svg version="1.1" width="90mm" height="111mm" viewBox="0 0 90 111" id="spindle-D55" xmlns="http://www.w3.org/2000/svg" xmlns:svg="http://www.w3.org/2000/svg">
	<defs id="defs">
		<circle id="screw_central_hole_ref"    style="fill:#ff0000;fill-opacity:1" cx="0" cy="0" r="11" />
		<circle id="backlash_item_hole_10.0mm" style="fill:#ff00ff;fill-opacity:1" cx="0" cy="0" r="5.0" />
		<circle id="backlash_item_screw_3.0mm" style="fill:#ff00ff;fill-opacity:1" cx="0" cy="0" r="1.5" />
		<rect  id="bearing_base_ref"           style="fill:#000080;fill-opacity:0.2" width="32" height="32" x="0" y="0" rx="4" ry="4" />
		<circle id="bearing_cylinder"          style="fill:#ff0000;fill-opacity:1" cx="0" cy="0" r="10.5" />
		<circle id="bearing_screw_4.0mm"       style="fill:#000080;fill-opacity:1" cx="0" cy="0" r="2.0" />
		<circle id="bearing_screw_gew_3.2mm"   style="fill:#008080;fill-opacity:1" cx="0" cy="0" r="1.60" />
		<circle id="spacer_pocket_6.0mm"       style="fill:#ff0000;fill-opacity:1" cx="0" cy="0" r="6" />
		<circle id="spacer_screw_5.0mm"        style="fill:#0000ff;fill-opacity:1" cx="0" cy="0" r="2.5" />
		<circle id="spindle_screw_3.0mm"       style="fill:#000080;fill-opacity:1" cx="0" cy="0" r="1.50" />
		<circle id="spindle_screw_gew_2.5mm"   style="fill:#008080;fill-opacity:1" cx="0" cy="0" r="1.25" />
	</defs>
	<g id="layer1">
		<!--
		<path id="contour" style="fill:none;stroke:#0000ff;stroke-width:0.25"
		d="M 0.0,0.0 h 90 v 66 a 45,45 0 0 1 -90,0 z" />
		-->
		<path id="contour" style="fill:none;stroke:#0000ff;stroke-width:0.25" d="M 1.0,0.0 h 88
      a 1 1 0 0 1 1 1 
	  v 65 a 45,45 0 0 1 -90,0 
	  v -65 a 1 1 0 0 1 1 -1 
	  z" />
		<use href="#screw_central_hole_ref" x="45" y="16" id="screw_central_hole" />
		<!-- backlash -->
		<g id="backlash" transform="translate(45,16)">
			<!-- cut through -->
			<use href="#backlash_item_hole_10.0mm" id="backlash_item_hole" />
			<!-- cut through -->
			<use href="#backlash_item_screw_3.0mm" transform="rotate(0)   translate(8,0)" id="backlash_item_screw_3.0mm_E" />
			<use href="#backlash_item_screw_3.0mm" transform="rotate(90)  translate(8,0)" id="backlash_item_screw_3.0mm_S" />
			<use href="#backlash_item_screw_3.0mm" transform="rotate(180) translate(8,0)" id="backlash_item_screw_3.0mm_W" />
			<use href="#backlash_item_screw_3.0mm" transform="rotate(270) translate(8,0)" id="backlash_item_screw_3.0mm_N" />
		</g>
		<!-- bearing 1 -->
		<g id="bearing_1" transform="translate(0,0)">
			<use href="#bearing_base_ref" id="bearing_1_base" />
			<g id="bearing_1_items" transform="translate(16,16)">
				<!-- reference is the center of the bearing item -->
				<use href="#bearing_cylinder" id="bearing_1_cylinder" />
				<use href="#bearing_screw_4.0mm" transform="rotate( 45) translate(16 0)" id="bearing_1_screw_4.5mm_SE" />
				<use href="#bearing_screw_4.0mm" transform="rotate(135) translate(16 0)" id="bearing_1_screw_4.5mm_SW" />
				<use href="#bearing_screw_4.0mm" transform="rotate(225) translate(16 0)" id="bearing_1_screw_4.5mm_NW" />
				<use href="#bearing_screw_4.0mm" transform="rotate(315) translate(16 0)" id="bearing_1_screw_4.5mm_NE" />
				<use href="#bearing_screw_gew_3.2mm" transform="rotate( 45) translate(16 0)" id="bearing_1_screw_gew_3.2mm_SE" />
				<use href="#bearing_screw_gew_3.2mm" transform="rotate(135) translate(16 0)" id="bearing_1_screw_gew_3.2mm_SW" />
				<use href="#bearing_screw_gew_3.2mm" transform="rotate(225) translate(16 0)" id="bearing_1_screw_gew_3.2mm_NW" />
				<use href="#bearing_screw_gew_3.2mm" transform="rotate(315) translate(16 0)" id="bearing_1_screw_gew_3.2mm_NE" />
			</g>
		</g>
		<!-- bearing 2 -->
		<g id="bearing_2" transform="translate(58,0)">
			<use href="#bearing_base_ref" id="bearing_2_base" />
			<g id="bearing_2_items" transform="translate(16,16)">
				<!-- reference is the center of the bearing item -->
				<use href="#bearing_cylinder" id="bearing_2_cylinder" />
				<use href="#bearing_screw_4.0mm" transform="rotate( 45) translate(16 0)" id="bearing_2_screw_4.5mm_SE" />
				<use href="#bearing_screw_4.0mm" transform="rotate(135) translate(16 0)" id="bearing_2_screw_4.5mm_SW" />
				<use href="#bearing_screw_4.0mm" transform="rotate(225) translate(16 0)" id="bearing_2_screw_4.5mm_NW" />
				<use href="#bearing_screw_4.0mm" transform="rotate(315) translate(16 0)" id="bearing_2_screw_4.5mm_NE" />
				<use href="#bearing_screw_gew_3.2mm" transform="rotate( 45) translate(16 0)" id="bearing_2_screw_gew_3.2mm_SE" />
				<use href="#bearing_screw_gew_3.2mm" transform="rotate(135) translate(16 0)" id="bearing_2_screw_gew_3.2mm_SW" />
				<use href="#bearing_screw_gew_3.2mm" transform="rotate(225) translate(16 0)" id="bearing_2_screw_gew_3.2mm_NW" />
				<use href="#bearing_screw_gew_3.2mm" transform="rotate(315) translate(16 0)" id="bearing_2_screw_gew_3.2mm_NE" />
			</g>
		</g>
		<circle id="large_circle_indicator" style="fill:#ff00ff;fill-opacity:0.1" cx="45" cy="66" r="45.0" />
		<circle id="spindle-hole" style="fill:#ff0000;fill-opacity:1" cx="45" cy="66" r="27.5" />
		<circle id="spindle-small-base" style="fill:#ffff00;fill-opacity:1" cx="45" cy="66" r="19.0" />
		<!-- diam = 38mm , height = 6mm -->
		<g id="spindle_center" transform="translate(45,66)">
			<use href="#spindle_screw_3.0mm" transform="translate(15.55 15.55)" id="spindle_screw_3.0mm_SE" />
			<use href="#spindle_screw_3.0mm" transform="translate(-15.55 15.55)" id="spindle_screw_3.0mm_SW" />
			<use href="#spindle_screw_3.0mm" transform="translate(0.0 -22.0)" id="spindle_screw_3.0mm_NN" />
			<use href="#spindle_screw_gew_2.5mm" transform="translate(15.55 15.55)" id="spindle_screw_gew_2.5mm_SE" />
			<use href="#spindle_screw_gew_2.5mm" transform="translate(-15.55 15.55)" id="spindle_screw_gew_2.5mm_SW" />
			<use href="#spindle_screw_gew_2.5mm" transform="translate(0.0 -22.0)" id="spindle_screw_gew_2.5mm_NN" />
		</g>
		<use href="#spacer_pocket_6.0mm" transform="translate(15 42)" id="spacer_pocket_NW" />
		<use href="#spacer_pocket_6.0mm" transform="translate(75 42)" id="spacer_pocket_NE" />
		<use href="#spacer_pocket_6.0mm" transform="translate(15 86)" id="spacer_pocket_SW" />
		<use href="#spacer_pocket_6.0mm" transform="translate(75 86)" id="spacer_pocket_SE" />
		<use href="#spacer_screw_5.0mm" transform="translate(15 42)" id="spacer_screw_5.0mm_NW" />
		<use href="#spacer_screw_5.0mm" transform="translate(75 42)" id="spacer_screw_5.0mm_NE" />
		<use href="#spacer_screw_5.0mm" transform="translate(15 86)" id="spacer_screw_5.0mm_SW" />
		<use href="#spacer_screw_5.0mm" transform="translate(75 86)" id="spacer_screw_5.0mm_SE" />
		<text id="legend" xml:space="preserve" style="font-style:normal;font-weight:normal;font-size:4.93889px;line-height:1.25;font-family:sans-serif;fill:#000000;fill-opacity:1;stroke:none;stroke-width:0.264583" x="20" y="65">
			Spindle Diameter: 55 mm
		</text>
		<path id="horizontal_line" style="fill:none;stroke:#000000;stroke-width:0.1" d="M 0,66 90,66" />
		<path id="vertical_line" style="fill:none;stroke:#000000;stroke-width:0.1" d="M 45,0 45,111" />
	</g>
</svg>
