<svg xmlns="http://www.w3.org/2000/svg" xmlns:svg="http://www.w3.org/2000/svg" version="1.1" width="90mm" height="110mm" viewBox="0 0 90 110" id="spindle-D55">
  <defs id="defs">
    <circle id="screw_central_hole_ref" style="fill:#ff0000;fill-opacity:1" cx="0" cy="0" r="11"/>
    <circle id="backlash_item_hole_10.0mm" style="fill:#ff00ff;fill-opacity:1" cx="0" cy="0" r="5.0"/>
    <circle id="backlash_item_screw_3.0mm" style="fill:#ff00ff;fill-opacity:1" cx="0" cy="0" r="1.5"/>
    <rect id="bearing_base_ref" style="fill:#000080;fill-opacity:0.2" width="32" height="32" x="0" y="0" rx="4" ry="4"/>
    <circle id="bearing_cylinder" style="fill:#ff0000;fill-opacity:1" cx="0" cy="0" r="10.5"/>
    <circle id="bearing_screw_4.0mm" style="fill:#000080;fill-opacity:1" cx="0" cy="0" r="2.0"/>
    <circle id="bearing_screw_gew_3.2mm" style="fill:#008080;fill-opacity:1" cx="0" cy="0" r="1.60"/>
    <circle id="spacer_pocket_6.0mm" style="fill:#ff0000;fill-opacity:1" cx="0" cy="0" r="6"/>
    <circle id="spacer_screw_5.0mm" style="fill:#0000ff;fill-opacity:1" cx="0" cy="0" r="2.5"/>
    <circle id="spindle_screw_3.0mm" style="fill:#000080;fill-opacity:1" cx="0" cy="0" r="1.50"/>
    <circle id="spindle_screw_gew_2.5mm" style="fill:#008080;fill-opacity:1" cx="0" cy="0" r="1.25"/>
  </defs>
  <g id="layer1">
    <!--
		<path id="contour" style="fill:none;stroke:#0000ff;stroke-width:0.25"
		d="M 0.0,0.0 h 90 v 65 a 45,45 0 0 1 -90,0 z" />
		-->
    <path id="contour" d="M 2.00000108,0 l 86.00004644,0 a 2,2 0 0,1 2.00000108,2.00000108 l 0,63.00003402 a 45,45 0 0,1 -90.0000486,0 l 0,-63.00003402 a 2,2 0 0,1 2.00000108,-2.00000108 z" style="fill:none;stroke:#0000ff;stroke-width:0.25"/>
    <circle id="screw_central_hole" cx="45.000" cy="16.000" r="11.000" style="fill:#ff0000;fill-opacity:1"/>
    <!-- backlash -->
    <g id="backlash">
      <!-- cut through -->
      <circle id="backlash_item_hole" cx="45.000" cy="16.000" r="5.000" style="fill:#ff00ff;fill-opacity:1"/>
      <!-- cut through -->
      <circle id="backlash_item_screw_3.0mm_E" cx="53.000" cy="16.000" r="1.500" style="fill:#ff00ff;fill-opacity:1"/>
      <circle id="backlash_item_screw_3.0mm_S" cx="45.000" cy="24.000" r="1.500" style="fill:#ff00ff;fill-opacity:1"/>
      <circle id="backlash_item_screw_3.0mm_W" cx="37.000" cy="16.000" r="1.500" style="fill:#ff00ff;fill-opacity:1"/>
      <circle id="backlash_item_screw_3.0mm_N" cx="45.000" cy="8.000" r="1.500" style="fill:#ff00ff;fill-opacity:1"/>
    </g>
    <!-- bearing 1 -->
    <g id="bearing_1">
      <rect id="bearing_1_base" width="32.000" height="32.000" x="0.000" y="0.000" rx="4.000" ry="4.000" style="fill:#000080;fill-opacity:0.2"/>
      <g id="bearing_1_items">
        <!-- reference is the center of the bearing item -->
        <circle id="bearing_1_cylinder" cx="16.000" cy="16.000" r="10.500" style="fill:#ff0000;fill-opacity:1"/>
        <circle id="bearing_1_screw_4.5mm_SE" cx="27.314" cy="27.314" r="2.000" style="fill:#000080;fill-opacity:1"/>
        <circle id="bearing_1_screw_4.5mm_SW" cx="4.686" cy="27.314" r="2.000" style="fill:#000080;fill-opacity:1"/>
        <circle id="bearing_1_screw_4.5mm_NW" cx="4.686" cy="4.686" r="2.000" style="fill:#000080;fill-opacity:1"/>
        <circle id="bearing_1_screw_4.5mm_NE" cx="27.314" cy="4.686" r="2.000" style="fill:#000080;fill-opacity:1"/>
        <circle id="bearing_1_screw_gew_3.2mm_SE" cx="27.314" cy="27.314" r="1.600" style="fill:#008080;fill-opacity:1"/>
        <circle id="bearing_1_screw_gew_3.2mm_SW" cx="4.686" cy="27.314" r="1.600" style="fill:#008080;fill-opacity:1"/>
        <circle id="bearing_1_screw_gew_3.2mm_NW" cx="4.686" cy="4.686" r="1.600" style="fill:#008080;fill-opacity:1"/>
        <circle id="bearing_1_screw_gew_3.2mm_NE" cx="27.314" cy="4.686" r="1.600" style="fill:#008080;fill-opacity:1"/>
      </g>
    </g>
    <!-- bearing 2 -->
    <g id="bearing_2">
      <rect id="bearing_2_base" width="32.000" height="32.000" x="58.000" y="0.000" rx="4.000" ry="4.000" style="fill:#000080;fill-opacity:0.2"/>
      <g id="bearing_2_items">
        <!-- reference is the center of the bearing item -->
        <circle id="bearing_2_cylinder" cx="74.000" cy="16.000" r="10.500" style="fill:#ff0000;fill-opacity:1"/>
        <circle id="bearing_2_screw_4.5mm_SE" cx="85.314" cy="27.314" r="2.000" style="fill:#000080;fill-opacity:1"/>
        <circle id="bearing_2_screw_4.5mm_SW" cx="62.686" cy="27.314" r="2.000" style="fill:#000080;fill-opacity:1"/>
        <circle id="bearing_2_screw_4.5mm_NW" cx="62.686" cy="4.686" r="2.000" style="fill:#000080;fill-opacity:1"/>
        <circle id="bearing_2_screw_4.5mm_NE" cx="85.314" cy="4.686" r="2.000" style="fill:#000080;fill-opacity:1"/>
        <circle id="bearing_2_screw_gew_3.2mm_SE" cx="85.314" cy="27.314" r="1.600" style="fill:#008080;fill-opacity:1"/>
        <circle id="bearing_2_screw_gew_3.2mm_SW" cx="62.686" cy="27.314" r="1.600" style="fill:#008080;fill-opacity:1"/>
        <circle id="bearing_2_screw_gew_3.2mm_NW" cx="62.686" cy="4.686" r="1.600" style="fill:#008080;fill-opacity:1"/>
        <circle id="bearing_2_screw_gew_3.2mm_NE" cx="85.314" cy="4.686" r="1.600" style="fill:#008080;fill-opacity:1"/>
      </g>
    </g>
    <circle id="large_circle_indicator" cx="45.000" cy="65.000" r="45.000" style="fill:#ff00ff;fill-opacity:0.1"/>
    <circle id="spindle-hole" cx="45.000" cy="65.000" r="27.500" style="fill:#ff0000;fill-opacity:1"/>
    <circle id="spindle-small-base" cx="45.000" cy="65.000" r="19.000" style="fill:#ffff00;fill-opacity:1"/>
    <!-- diam = 38mm , height = 6mm -->
    <g id="spindle_center">
      <circle id="spindle_screw_3.0mm_SE" cx="60.550" cy="80.550" r="1.500" style="fill:#000080;fill-opacity:1"/>
      <circle id="spindle_screw_3.0mm_SW" cx="29.450" cy="80.550" r="1.500" style="fill:#000080;fill-opacity:1"/>
      <circle id="spindle_screw_3.0mm_NN" cx="45.000" cy="43.000" r="1.500" style="fill:#000080;fill-opacity:1"/>
      <circle id="spindle_screw_gew_2.5mm_SE" cx="60.550" cy="80.550" r="1.250" style="fill:#008080;fill-opacity:1"/>
      <circle id="spindle_screw_gew_2.5mm_SW" cx="29.450" cy="80.550" r="1.250" style="fill:#008080;fill-opacity:1"/>
      <circle id="spindle_screw_gew_2.5mm_NN" cx="45.000" cy="43.000" r="1.250" style="fill:#008080;fill-opacity:1"/>
    </g>
    <circle id="spacer_pocket_NW" cx="15.000" cy="41.000" r="6.000" style="fill:#ff0000;fill-opacity:1"/>
    <circle id="spacer_pocket_NE" cx="75.000" cy="41.000" r="6.000" style="fill:#ff0000;fill-opacity:1"/>
    <circle id="spacer_pocket_SW" cx="15.000" cy="85.000" r="6.000" style="fill:#ff0000;fill-opacity:1"/>
    <circle id="spacer_pocket_SE" cx="75.000" cy="85.000" r="6.000" style="fill:#ff0000;fill-opacity:1"/>
    <circle id="spacer_screw_5.0mm_NW" cx="15.000" cy="41.000" r="2.500" style="fill:#0000ff;fill-opacity:1"/>
    <circle id="spacer_screw_5.0mm_NE" cx="75.000" cy="41.000" r="2.500" style="fill:#0000ff;fill-opacity:1"/>
    <circle id="spacer_screw_5.0mm_SW" cx="15.000" cy="85.000" r="2.500" style="fill:#0000ff;fill-opacity:1"/>
    <circle id="spacer_screw_5.0mm_SE" cx="75.000" cy="85.000" r="2.500" style="fill:#0000ff;fill-opacity:1"/>
    <text id="legend" x="20.000" y="64.000" style="font-style:normal;font-weight:normal;font-size:4.93889px;line-height:1.25;font-family:sans-serif;fill:#000000;fill-opacity:1;stroke:none;stroke-width:0.264583">
			Spindle Diameter: 55 mm
		</text>
    <path id="horizontal_line" d="M 0,65.0000351 L 90.0000486,65.0000351" style="fill:none;stroke:#000000;stroke-width:0.1"/>
    <path id="vertical_line" d="M 45.0000243,0 L 45.0000243,110.0000594" style="fill:none;stroke:#000000;stroke-width:0.1"/>
  </g>
</svg>
