<svg xmlns="http://www.w3.org/2000/svg" xmlns:svg="http://www.w3.org/2000/svg" version="1.1" width="110mm" height="110mm" viewBox="0 0 110 110" id="cnc1310-spindle-holder-vertical-sides">
  <defs id="defs">
    <circle id="lead_screw_central_hole_22.0mm" style="fill:#ff0000;fill-opacity:0.2" cx="0" cy="0" r="11"/>
    <circle id="screw_backlash_item_hole_10.0mm" style="fill:#ff00ff;fill-opacity:1.0" cx="0" cy="0" r="5.0"/>
    <circle id="backlash_item_screw_3.0mm" style="fill:#ff00ff;fill-opacity:1" cx="0" cy="0" r="1.50"/>
    <rect id="bearing_base" style="fill:#000080;fill-opacity:0.2" width="32" height="32" rx="2" ry="2" x="0" y="0"/>
    <circle id="bearing_cylinder" style="fill:#ff0000;fill-opacity:1.0" cx="0" cy="0" r="10.5"/>
    <circle id="bearing_screw_4.0mm" style="fill:#000080;fill-opacity:1.0" cx="0" cy="0" r="2.00"/>
    <circle id="spacer_screw_5.0mm" style="fill:#0000ff;fill-opacity:1.0" cx="0" cy="0" r="2.50"/>
    <marker id="arrow_m" viewBox="0 0 10 10" refX="10" refY="5" markerWidth="10" markerHeight="10" orient="auto-start-reverse">
      <path d="M 0 0 l 10 5 l -10 5" fill="none" stroke="black" stroke-width="black"/>
    </marker>
  </defs>
  <g id="layer">
    <rect id="PLATE" width="100.000" height="47.500" x="0.000" y="0.000" rx="1.000" ry="1.000" style="fill:rgb(0,125,125);stroke-width:0;stroke:rgb(0,0,0)"/>
    <circle id="lead_screw_central_hole" cx="50.000" cy="16.000" r="11.000" style="fill:#ff0000;fill-opacity:0.2"/>
    <rect id="LEFT_bearing_base" width="32.000" height="32.000" x="0.000" y="0.000" rx="2.000" ry="2.000" style="fill:#000080;fill-opacity:0.2"/>
    <circle id="LEFT_bearing_cylinder" cx="16.000" cy="16.000" r="10.500" style="fill:#ff0000;fill-opacity:1.0"/>
    <rect id="IIGHT_bearing_base" width="32.000" height="32.000" x="68.000" y="0.000" rx="2.000" ry="2.000" style="fill:#000080;fill-opacity:0.2"/>
    <circle id="RIGHT_bearing_cylinder" cx="84.000" cy="16.000" r="10.500" style="fill:#ff0000;fill-opacity:1.0"/>
    <circle id="LEFT_bearing_screw_4.0mm_SE" cx="4.680" cy="4.680" r="2.000" style="fill:#000080;fill-opacity:1.0"/>
    <circle id="LEFT_bearing_screw_4.0mm_SW" cx="27.320" cy="4.680" r="2.000" style="fill:#000080;fill-opacity:1.0"/>
    <circle id="LEFT_bearing_screw_4.0mm_NW" cx="4.680" cy="27.320" r="2.000" style="fill:#000080;fill-opacity:1.0"/>
    <circle id="LEFT_bearing_screw_4.0mm_NE" cx="27.320" cy="27.320" r="2.000" style="fill:#000080;fill-opacity:1.0"/>
    <circle id="RIGHT_bearing_screw_4.0mm_SE" cx="72.680" cy="4.680" r="2.000" style="fill:#000080;fill-opacity:1.0"/>
    <circle id="RIGHT_bearing_screw_4.0mm_SW" cx="95.320" cy="4.680" r="2.000" style="fill:#000080;fill-opacity:1.0"/>
    <circle id="RIGHT_bearing_screw_4.0mm_NW" cx="72.680" cy="27.320" r="2.000" style="fill:#000080;fill-opacity:1.0"/>
    <circle id="RIGHT_bearing_screw_4.0mm_NE" cx="95.320" cy="27.320" r="2.000" style="fill:#000080;fill-opacity:1.0"/>
    <circle cx="12.500" cy="37.500" r="2.500" style="fill:#0000ff;fill-opacity:1.0"/>
    <circle cx="37.500" cy="37.500" r="2.500" style="fill:#0000ff;fill-opacity:1.0"/>
    <circle cx="62.500" cy="37.500" r="2.500" style="fill:#0000ff;fill-opacity:1.0"/>
    <circle cx="87.500" cy="37.500" r="2.500" style="fill:#0000ff;fill-opacity:1.0"/>
    <circle id="screw_backlash_item_hole" cx="50.000" cy="16.000" r="5.000" style="fill:#ff00ff;fill-opacity:1.0"/>
    <circle id="backlash_item_screw_3.0mm_1" cx="50.000" cy="8.000" r="1.500" style="fill:#ff00ff;fill-opacity:1"/>
    <circle id="backlash_item_screw_3.0mm_2" cx="50.000" cy="24.000" r="1.500" style="fill:#ff00ff;fill-opacity:1"/>
    <circle id="backlash_item_screw_3.0mm_3" cx="42.000" cy="16.000" r="1.500" style="fill:#ff00ff;fill-opacity:1"/>
    <circle id="backlash_item_screw_3.0mm_4" cx="58.000" cy="16.000" r="1.500" style="fill:#ff00ff;fill-opacity:1"/>
    <!-- guides -->
    <line id="line_v_1" x1="12.500" y1="0.000" x2="12.500" y2="55.000" style="stroke:#000000;stroke-width:0.144059px;stroke-opacity:1"/>
    <line id="line_v_2" x1="37.500" y1="0.000" x2="37.500" y2="55.000" style="stroke:#000000;stroke-width:0.144059px;stroke-opacity:1"/>
    <line id="line_v_3" x1="50.000" y1="0.000" x2="50.000" y2="55.000" style="stroke:#000000;stroke-width:0.144059px;stroke-opacity:1"/>
    <line id="line_v_4" x1="62.500" y1="0.000" x2="62.500" y2="55.000" style="stroke:#000000;stroke-width:0.144059px;stroke-opacity:1"/>
    <line id="line_v_5" x1="87.500" y1="0.000" x2="87.500" y2="55.000" style="stroke:#000000;stroke-width:0.144059px;stroke-opacity:1"/>
    <line id="line_h_1" x1="0.000" y1="55.000" x2="12.500" y2="55.000" marker-start="url(#arrow_m)" marker-end="url(#arrow_m)" style="stroke:#000000;stroke-width:0.144059px;stroke-opacity:1"/>
    <line id="line_h_2" x1="12.500" y1="55.000" x2="37.500" y2="55.000" marker-start="url(#arrow_m)" marker-end="url(#arrow_m)" style="stroke:#000000;stroke-width:0.144059px;stroke-opacity:1"/>
    <line id="line_h_3" x1="37.500" y1="55.000" x2="50.000" y2="55.000" marker-start="url(#arrow_m)" marker-end="url(#arrow_m)" style="stroke:#000000;stroke-width:0.144059px;stroke-opacity:1"/>
    <line id="line_h_4" x1="50.000" y1="55.000" x2="62.500" y2="55.000" marker-start="url(#arrow_m)" marker-end="url(#arrow_m)" style="stroke:#000000;stroke-width:0.144059px;stroke-opacity:1"/>
    <line id="line_h_5" x1="62.500" y1="55.000" x2="87.500" y2="55.000" marker-start="url(#arrow_m)" marker-end="url(#arrow_m)" style="stroke:#000000;stroke-width:0.144059px;stroke-opacity:1"/>
    <line id="line_h_6" x1="87.500" y1="55.000" x2="100.000" y2="55.000" marker-start="url(#arrow_m)" marker-end="url(#arrow_m)" style="stroke:#000000;stroke-width:0.144059px;stroke-opacity:1"/>
    <line id="line_v_8" x1="110.000" y1="0.000" x2="110.000" y2="47.500" marker-start="url(#arrow_m)" marker-end="url(#arrow_m)" style="stroke:#000000;stroke-width:0.144059px;stroke-opacity:1"/>
    <line id="line_v_9" x1="105.000" y1="37.500" x2="105.000" y2="47.500" marker-start="url(#arrow_m)" marker-end="url(#arrow_m)" style="stroke:#000000;stroke-width:0.144059px;stroke-opacity:1"/>
  </g>
</svg>
