<?xml version='1.0' encoding='UTF-8'?>
<!-- Generated by pycut - svgtext2svgpath -->
<!-- Created with Inkscape (http://www.inkscape.org/) -->
<svg xmlns:inkscape="http://www.inkscape.org/namespaces/inkscape" xmlns:sodipodi="http://sodipodi.sourceforge.net/DTD/sodipodi-0.dtd" xmlns="http://www.w3.org/2000/svg" xmlns:svg="http://www.w3.org/2000/svg" width="150mm" height="60mm" viewBox="0 0 150 60" version="1.1" id="svg5" inkscape:version="1.1.1 (3bf5ae0d25, 2021-09-20)" sodipodi:docname="AABBCC.svg">
  <sodipodi:namedview id="namedview7" pagecolor="#ffffff" bordercolor="#cccccc" borderopacity="1" inkscape:pageshadow="0" inkscape:pageopacity="1" inkscape:pagecheckerboard="0" inkscape:document-units="mm" showgrid="false" inkscape:zoom="0.63250561" inkscape:cx="397.62493" inkscape:cy="181.81657" inkscape:window-width="1284" inkscape:window-height="960" inkscape:window-x="129" inkscape:window-y="8" inkscape:window-maximized="0" inkscape:current-layer="layer1"/>
  <defs id="defs2"/>
  <g inkscape:label="Layer 1" inkscape:groupmode="layer" id="layer1">
    <text xml:space="preserve" style="font-style:normal;font-variant:normal;font-weight:normal;font-stretch:normal;font-size:22.5778px;line-height:1.25;font-family:Arial;-inkscape-font-specification:'Arial, Normal';font-variant-ligatures:normal;font-variant-caps:normal;font-variant-numeric:normal;font-variant-east-asian:normal;fill:#ff0000;fill-opacity:0.5;stroke:none;stroke-width:0.264583" x="9.7133684" y="41.712864" id="text1314">
      <tspan sodipodi:role="line" id="tspan1312" style="font-style:normal;font-variant:normal;font-weight:normal;font-stretch:normal;font-size:22.5778px;font-family:Arial;-inkscape-font-specification:'Arial, Normal';font-variant-ligatures:normal;font-variant-caps:normal;font-variant-numeric:normal;font-variant-east-asian:normal;stroke-width:0.264583" x="9.7133684" y="41.712864">BB   C AA  B</tspan>
    </text>
    <path id="text1314_0" fill="#000000" fill-opacity="0.5" d="M 11.3670158609,41.712864 L 11.3670158609,25.5512161484 L 17.4303898844,25.5512161484 Q 19.2824750406,25.5512161484 20.4014431559,26.0417982285 T 22.1543094645,27.5521295762 T 22.7882076578,29.6853348008 Q 22.7882076578,30.721620543 22.2259675211,31.6366388047 T 20.5282227945,33.1138972031 Q 21.9944568766,33.543845543 22.7826954996,34.5801312852 T 23.5709341227,37.0275295273 Q 23.5709341227,38.1630341172 23.091376359,39.1386861191 T 21.9062623453,40.6435053086 T 20.1368595621,41.442768248 T 17.529608732,41.712864 L 11.3670158609,41.712864 Z M 13.5057332437,32.3421950547 L 17.0004415445,32.3421950547 Q 18.4225783609,32.3421950547 19.0399400797,32.1547816758 Q 19.8557394938,31.9122467148 20.269151359,31.3500065781 T 20.6825632242,29.9388940781 Q 20.6825632242,29.1341189805 20.29671215,28.5222694199 T 19.1942805094,27.684421373 T 16.7358579508,27.4584228867 L 13.5057332437,27.4584228867 L 13.5057332437,32.3421950547 Z M 13.5057332437,39.8056572617 L 17.529608732,39.8056572617 Q 18.5658944742,39.8056572617 18.9848184977,39.7284870469 Q 19.7234476969,39.59619525 20.2195419352,39.2875143906 T 21.0353413492,38.3890326035 T 21.355046525,37.0275295273 Q 21.355046525,36.123535582 20.8920252359,35.4565644395 T 19.6076923746,34.5194975449 T 17.2429765055,34.249401793 L 13.5057332437,34.249401793 L 13.5057332437,39.8056572617 Z"/>
    <path id="text1314_1" fill="#000000" fill-opacity="0.5" d="M 26.4262320719,41.712864 L 26.4262320719,25.5512161484 L 32.4896060953,25.5512161484 Q 34.3416912516,25.5512161484 35.4606593668,26.0417982285 T 37.2135256754,27.5521295762 T 37.8474238687,29.6853348008 Q 37.8474238687,30.721620543 37.285183732,31.6366388047 T 35.5874390055,33.1138972031 Q 37.0536730875,33.543845543 37.8419117105,34.5801312852 T 38.6301503336,37.0275295273 Q 38.6301503336,38.1630341172 38.1505925699,39.1386861191 T 36.9654785562,40.6435053086 T 35.196075773,41.442768248 T 32.588824943,41.712864 L 26.4262320719,41.712864 Z M 28.5649494547,32.3421950547 L 32.0596577555,32.3421950547 Q 33.4817945719,32.3421950547 34.0991562906,32.1547816758 Q 34.9149557047,31.9122467148 35.3283675699,31.3500065781 T 35.7417794352,29.9388940781 Q 35.7417794352,29.1341189805 35.3559283609,28.5222694199 T 34.2534967203,27.684421373 T 31.7950741617,27.4584228867 L 28.5649494547,27.4584228867 L 28.5649494547,32.3421950547 Z M 28.5649494547,39.8056572617 L 32.588824943,39.8056572617 Q 33.6251106852,39.8056572617 34.0440347086,39.7284870469 Q 34.7826639078,39.59619525 35.2787581461,39.2875143906 T 36.0945575602,38.3890326035 T 36.4142627359,37.0275295273 Q 36.4142627359,36.123535582 35.9512414469,35.4565644395 T 34.6669085855,34.5194975449 T 32.3021927164,34.249401793 L 28.5649494547,34.249401793 L 28.5649494547,39.8056572617 Z"/>
    <path id="text1314_2" fill="#000000" fill-opacity="0.5" d=""/>
    <path id="text1314_3" fill="#000000" fill-opacity="0.5" d=""/>
    <path id="text1314_4" fill="#000000" fill-opacity="0.5" d=""/>
    <path id="text1314_5" fill="#000000" fill-opacity="0.5" d="M 71.9235858805,36.0463653672 L 74.0623032633,36.5865568711 Q 73.3898199625,39.2213684922 71.6424658121,40.6049202012 T 67.3705432047,41.9884719102 Q 64.7577802164,41.9884719102 63.1206692301,40.924625377 T 60.6291737223,37.8433289414 T 59.7747892008,33.5107725938 Q 59.7747892008,30.9862041367 60.7394168863,29.1065581895 T 63.4844716715,26.2512602402 T 67.4036161539,25.2756082383 Q 69.8289657633,25.2756082383 71.4826132242,26.5103316758 T 73.7866953531,29.9829913438 L 71.6810509195,30.479085582 Q 71.1188107828,28.715194957 70.0494520914,27.9104198594 T 67.3595188883,27.1056447617 Q 65.4964094156,27.1056447617 64.2451495035,27.9986143906 T 62.4867710367,30.396403209 T 61.979652482,33.4997482773 Q 61.979652482,35.5612954453 62.5804777262,37.099187584 T 64.449099357,39.3977575547 T 67.1941541422,40.1584353867 Q 68.9911177164,40.1584353867 70.2368654703,39.1221496445 T 71.9235858805,36.0463653672 Z"/>
    <path id="text1314_6" fill="#ff0000" fill-opacity="0.5" d=""/>
    <path id="text1314_7" fill="#ff0000" fill-opacity="0.5" d="M 79.9492882242,41.712864 L 86.1559783609,25.5512161484 L 88.4600604898,25.5512161484 L 95.0746503336,41.712864 L 92.6382764078,41.712864 L 90.7531183023,36.8180675156 L 83.9952123453,36.8180675156 L 82.2202974039,41.712864 L 79.9492882242,41.712864 Z M 84.6125740641,35.0762255234 L 90.091659318,35.0762255234 L 88.4049389078,30.6003530625 Q 87.6332367594,28.5608545273 87.2584100016,27.248960875 Q 86.9497291422,28.8033894883 86.3874890055,30.3357694688 L 84.6125740641,35.0762255234 Z"/>
    <path id="text1314_8" fill="#ff0000" fill-opacity="0.5" d="M 95.0085044352,41.712864 L 101.215194572,25.5512161484 L 103.519276701,25.5512161484 L 110.133866545,41.712864 L 107.697492619,41.712864 L 105.812334513,36.8180675156 L 99.0544285563,36.8180675156 L 97.2795136148,41.712864 L 95.0085044352,41.712864 Z M 99.671790275,35.0762255234 L 105.150875529,35.0762255234 L 103.464155119,30.6003530625 Q 102.69245297,28.5608545273 102.317626212,27.248960875 Q 102.008945353,28.8033894883 101.446705216,30.3357694688 L 99.671790275,35.0762255234 Z"/>
    <path id="text1314_9" fill="#ff0000" fill-opacity="0.5" d=""/>
    <path id="text1314_10" fill="#ff0000" fill-opacity="0.5" d=""/>
    <path id="text1314_11" fill="#ff0000" fill-opacity="0.5" d="M 123.054365373,41.712864 L 123.054365373,25.5512161484 L 129.117739396,25.5512161484 Q 130.969824552,25.5512161484 132.088792668,26.0417982285 T 133.841658976,27.5521295762 T 134.47555717,29.6853348008 Q 134.47555717,30.721620543 133.913317033,31.6366388047 T 132.215572306,33.1138972031 Q 133.681806388,33.543845543 134.470045011,34.5801312852 T 135.258283634,37.0275295273 Q 135.258283634,38.1630341172 134.778725871,39.1386861191 T 133.593611857,40.6435053086 T 131.824209074,41.442768248 T 129.216958244,41.712864 L 123.054365373,41.712864 Z M 125.193082755,32.3421950547 L 128.687791056,32.3421950547 Q 130.109927873,32.3421950547 130.727289591,32.1547816758 Q 131.543089005,31.9122467148 131.956500871,31.3500065781 T 132.369912736,29.9388940781 Q 132.369912736,29.1341189805 131.984061662,28.5222694199 T 130.881630021,27.684421373 T 128.423207462,27.4584228867 L 125.193082755,27.4584228867 L 125.193082755,32.3421950547 Z M 125.193082755,39.8056572617 L 129.216958244,39.8056572617 Q 130.253243986,39.8056572617 130.672168009,39.7284870469 Q 131.410797209,39.59619525 131.906891447,39.2875143906 T 132.722690861,38.3890326035 T 133.042396037,37.0275295273 Q 133.042396037,36.123535582 132.579374748,35.4565644395 T 131.295041886,34.5194975449 T 128.930326017,34.249401793 L 125.193082755,34.249401793 L 125.193082755,39.8056572617 Z"/>
  </g>
</svg>
