<?xml version="1.0" encoding="UTF-8" standalone="no"?>
<!-- Created with Inkscape (http://www.inkscape.org/) -->

<svg
   width="150mm"
   height="60mm"
   viewBox="0 0 150 60"
   version="1.1"
   id="svg5"
   inkscape:version="1.1.1 (3bf5ae0d25, 2021-09-20)"
   sodipodi:docname="AABBCC.svg"
   xmlns:inkscape="http://www.inkscape.org/namespaces/inkscape"
   xmlns:sodipodi="http://sodipodi.sourceforge.net/DTD/sodipodi-0.dtd"
   xmlns="http://www.w3.org/2000/svg"
   xmlns:svg="http://www.w3.org/2000/svg">
  <sodipodi:namedview
     id="namedview7"
     pagecolor="#ffffff"
     bordercolor="#cccccc"
     borderopacity="1"
     inkscape:pageshadow="0"
     inkscape:pageopacity="1"
     inkscape:pagecheckerboard="0"
     inkscape:document-units="mm"
     showgrid="false"
     inkscape:zoom="0.63250561"
     inkscape:cx="397.62493"
     inkscape:cy="181.81657"
     inkscape:window-width="1284"
     inkscape:window-height="960"
     inkscape:window-x="129"
     inkscape:window-y="8"
     inkscape:window-maximized="0"
     inkscape:current-layer="layer1" />
  <defs
     id="defs2" />
  <g
     inkscape:label="Layer 1"
     inkscape:groupmode="layer"
     id="layer1">
    <text
       xml:space="preserve"
       style="font-style:normal;font-variant:normal;font-weight:normal;font-stretch:normal;font-size:22.5778px;line-height:1.25;font-family:Arial;-inkscape-font-specification:'Arial, Normal';font-variant-ligatures:normal;font-variant-caps:normal;font-variant-numeric:normal;font-variant-east-asian:normal;fill:#000000;fill-opacity:1;stroke:none;stroke-width:0.264583"
       x="9.7133684"
       y="41.712864"
       id="text1314"><tspan
         sodipodi:role="line"
         id="tspan1312"
         style="font-style:normal;font-variant:normal;font-weight:normal;font-stretch:normal;font-size:22.57780066px;font-family:Arial;-inkscape-font-specification:'Arial, Normal';font-variant-ligatures:normal;font-variant-caps:normal;font-variant-numeric:normal;font-variant-east-asian:normal;stroke-width:0.264583"
         x="9.7133684"
         y="41.712864">BB  CC  AA  BB</tspan></text>
  </g>
  <g>
  <path id="0_0" style="fill:#ff0000;fill-opacity:0.5;" d="M 11.3670158609375,41.712864 L 11.3670158609375,25.551216148437504 L 17.430389884375,25.551216148437504 Q 19.282475040625,25.551216148437504 20.401443155859376,26.041798228515628 Q 21.52041127109375,26.532380308593755 22.154309464453124,27.55212957617188 Q 22.7882076578125,28.571878843750003 22.7882076578125,29.685334800781256 Q 22.7882076578125,30.721620542968754 22.22596752109375,31.636638804687504 Q 21.663727384375,32.55165706640626 20.52822279453125,33.113897203125006 Q 21.9944568765625,33.543845542968754 22.782695499609375,34.580131285156256 Q 23.570934122656247,35.61641702734376 23.570934122656247,37.02752952734375 Q 23.570934122656247,38.16303411718751 23.091376358984373,39.13868611914063 Q 22.6118185953125,40.11433812109375 21.9062623453125,40.64350530859375 Q 21.200706095312498,41.17267249609375 20.136859562109375,41.442768248046875 Q 19.07301302890625,41.712864 17.52960873203125,41.712864 L 11.3670158609375,41.712864 M 13.505733243749999,32.34219505468751 L 17.00044154453125,32.34219505468751 Q 18.4225783609375,32.34219505468751 19.039940079687497,32.15478167578125 Q 19.85573949375,31.912246714843754 20.269151358984374,31.350006578125004 Q 20.682563224218747,30.787766441406255 20.682563224218747,29.938894078125003 Q 20.682563224218747,29.134118980468756 20.296712149999998,28.52226941992188 Q 19.91086107578125,27.910419859375004 19.194280509374998,27.68442137304688 Q 18.477699942968748,27.458422886718754 16.73585795078125,27.458422886718754 L 13.505733243749999,27.458422886718754 L 13.505733243749999,32.34219505468751 M 13.505733243749999,39.80565726171875 L 17.52960873203125,39.80565726171875 Q 18.56589447421875,39.80565726171875 18.98481849765625,39.728487046875 Q 19.723447696875,39.59619525000001 20.21954193515625,39.287514390625006 Q 20.7156361734375,38.978833531250004 21.035341349218747,38.38903260351563 Q 21.355046525,37.79923167578126 21.355046525,37.02752952734375 Q 21.355046525,36.12353558203125 20.8920252359375,35.45656443945313 Q 20.429003946875,34.789593296875005 19.607692374609375,34.519497544921876 Q 18.78638080234375,34.249401792968754 17.24297650546875,34.249401792968754 L 13.505733243749999,34.249401792968754 L 13.505733243749999,39.80565726171875" />
<path id="0_1" style="fill:#ff0000;fill-opacity:0.5;" d="M 26.426232071875,41.712864 L 26.426232071875,25.551216148437504 L 32.489606095312496,25.551216148437504 Q 34.341691251562494,25.551216148437504 35.460659366796875,26.041798228515628 Q 36.57962748203125,26.532380308593755 37.21352567539063,27.55212957617188 Q 37.84742386875,28.571878843750003 37.84742386875,29.685334800781256 Q 37.84742386875,30.721620542968754 37.28518373203125,31.636638804687504 Q 36.7229435953125,32.55165706640626 35.58743900546875,33.113897203125006 Q 37.0536730875,33.543845542968754 37.841911710546874,34.580131285156256 Q 38.63015033359375,35.61641702734376 38.63015033359375,37.02752952734375 Q 38.63015033359375,38.16303411718751 38.15059256992187,39.13868611914063 Q 37.67103480625,40.11433812109375 36.96547855625,40.64350530859375 Q 36.25992230625,41.17267249609375 35.19607577304687,41.442768248046875 Q 34.13222923984375,41.712864 32.58882494296875,41.712864 L 26.426232071875,41.712864 M 28.5649494546875,32.34219505468751 L 32.05965775546875,32.34219505468751 Q 33.481794571875,32.34219505468751 34.099156290625,32.15478167578125 Q 34.9149557046875,31.912246714843754 35.32836756992187,31.350006578125004 Q 35.741779435156246,30.787766441406255 35.741779435156246,29.938894078125003 Q 35.741779435156246,29.134118980468756 35.3559283609375,28.52226941992188 Q 34.97007728671875,27.910419859375004 34.2534967203125,27.68442137304688 Q 33.53691615390625,27.458422886718754 31.79507416171875,27.458422886718754 L 28.5649494546875,27.458422886718754 L 28.5649494546875,32.34219505468751 M 28.5649494546875,39.80565726171875 L 32.58882494296875,39.80565726171875 Q 33.62511068515625,39.80565726171875 34.04403470859375,39.728487046875 Q 34.7826639078125,39.59619525000001 35.27875814609375,39.287514390625006 Q 35.774852384374995,38.978833531250004 36.09455756015625,38.38903260351563 Q 36.4142627359375,37.79923167578126 36.4142627359375,37.02752952734375 Q 36.4142627359375,36.12353558203125 35.951241446875,35.45656443945313 Q 35.4882201578125,34.789593296875005 34.66690858554688,34.519497544921876 Q 33.84559701328125,34.249401792968754 32.30219271640625,34.249401792968754 L 28.5649494546875,34.249401792968754 L 28.5649494546875,39.80565726171875" />
<path id="0_2" style="fill:#ff0000;fill-opacity:0.5;" d="" />
<path id="0_3" style="fill:#ff0000;fill-opacity:0.5;" d="" />
<path id="0_4" style="fill:#ff0000;fill-opacity:0.5;" d="M 65.6507498453125,36.046365367187505 L 67.789467228125,36.586556871093755 Q 67.11698392734374,39.22136849218751 65.36962977695312,40.60492020117188 Q 63.6222756265625,41.98847191015625 61.09770716953125,41.98847191015625 Q 58.48494418125,41.98847191015625 56.847833194921876,40.92462537695313 Q 55.21072220859375,39.860778843750005 54.356337687109374,37.843328941406256 Q 53.501953165625,35.82587903906251 53.501953165625,33.510772593750005 Q 53.501953165625,30.986204136718754 54.46658085117187,29.10655818945313 Q 55.43120853671875,27.226912242187502 57.211635636328126,26.25126024023438 Q 58.992062735937495,25.275608238281254 61.130780118749996,25.275608238281254 Q 63.556129728125,25.275608238281254 65.20977718906249,26.510331675781256 Q 66.86342465,27.745055113281254 67.51385931796875,29.982991343750005 L 65.408214884375,30.479085582031253 Q 64.84597474765624,28.715194957031255 63.77661605625,27.910419859375004 Q 62.70725736484375,27.105644761718754 61.086682853125,27.105644761718754 Q 59.22357338046875,27.105644761718754 57.972313468359374,27.998614390625004 Q 56.72105355625,28.891584019531255 56.2139350015625,30.39640320898438 Q 55.706816446874996,31.901222398437504 55.706816446874996,33.499748277343755 Q 55.706816446874996,35.5612954453125 56.307641691015625,37.09918758398438 Q 56.90846693515625,38.63707972265625 58.176263321875,39.3977575546875 Q 59.44405970859375,40.15843538671875 60.92131810703125,40.15843538671875 Q 62.71828168125,40.15843538671875 63.96402943515625,39.122149644531255 Q 65.20977718906249,38.08586390234375 65.6507498453125,36.046365367187505" />
<path id="0_5" style="fill:#ff0000;fill-opacity:0.5;" d="M 81.95571381015625,36.046365367187505 L 84.09443119296874,36.586556871093755 Q 83.4219478921875,39.22136849218751 81.67459374179687,40.60492020117188 Q 79.92723959140625,41.98847191015625 77.402671134375,41.98847191015625 Q 74.78990814609375,41.98847191015625 73.15279715976563,40.92462537695313 Q 71.5156861734375,39.860778843750005 70.66130165195312,37.843328941406256 Q 69.80691713046875,35.82587903906251 69.80691713046875,33.510772593750005 Q 69.80691713046875,30.986204136718754 70.77154481601562,29.10655818945313 Q 71.73617250156249,27.226912242187502 73.51659960117188,26.25126024023438 Q 75.29702670078125,25.275608238281254 77.43574408359375,25.275608238281254 Q 79.86109369296875,25.275608238281254 81.51474115390624,26.510331675781256 Q 83.16838861484375,27.745055113281254 83.8188232828125,29.982991343750005 L 81.71317884921875,30.479085582031253 Q 81.1509387125,28.715194957031255 80.08158002109374,27.910419859375004 Q 79.01222132968749,27.105644761718754 77.39164681796875,27.105644761718754 Q 75.5285373453125,27.105644761718754 74.27727743320312,27.998614390625004 Q 73.02601752109375,28.891584019531255 72.51889896640625,30.39640320898438 Q 72.01178041171875,31.901222398437504 72.01178041171875,33.499748277343755 Q 72.01178041171875,35.5612954453125 72.61260565585937,37.09918758398438 Q 73.21343089999999,38.63707972265625 74.48122728671875,39.3977575546875 Q 75.74902367343749,40.15843538671875 77.226282071875,40.15843538671875 Q 79.02324564609376,40.15843538671875 80.2689934,39.122149644531255 Q 81.51474115390624,38.08586390234375 81.95571381015625,36.046365367187505" />
<path id="0_6" style="fill:#ff0000;fill-opacity:0.5;" d="" />
<path id="0_7" style="fill:#ff0000;fill-opacity:0.5;" d="" />
<path id="0_8" style="fill:#ff0000;fill-opacity:0.5;" d="M 96.2542521890625,41.712864 L 102.46094232578125,25.551216148437504 L 104.7650244546875,25.551216148437504 L 111.3796142984375,41.712864 L 108.94324037265625,41.712864 L 107.0580822671875,36.818067515625 L 100.30017631015625,36.818067515625 L 98.52526136875001,41.712864 L 96.2542521890625,41.712864 M 100.91753802890625,35.0762255234375 L 106.3966232828125,35.0762255234375 L 104.70990287265626,30.600353062500005 Q 103.93820072421876,28.560854527343754 103.56337396640626,27.248960875000005 Q 103.25469310703126,28.803389488281255 102.6924529703125,30.335769468750005 L 100.91753802890625,35.0762255234375" />
<path id="0_9" style="fill:#ff0000;fill-opacity:0.5;" d="M 111.31346839999999,41.712864 L 117.52015853671874,25.551216148437504 L 119.824240665625,25.551216148437504 L 126.438830509375,41.712864 L 124.00245658359374,41.712864 L 122.117298478125,36.818067515625 L 115.35939252109375,36.818067515625 L 113.5844775796875,41.712864 L 111.31346839999999,41.712864 M 115.97675423984374,35.0762255234375 L 121.45583949374999,35.0762255234375 L 119.76911908359375,30.600353062500005 Q 118.99741693515625,28.560854527343754 118.62259017734374,27.248960875000005 Q 118.31390931796875,28.803389488281255 117.75166918125,30.335769468750005 L 115.97675423984374,35.0762255234375" />
<path id="0_10" style="fill:#ff0000;fill-opacity:0.5;" d="" />
<path id="0_11" style="fill:#ff0000;fill-opacity:0.5;" d="" />
<path id="0_12" style="fill:#ff0000;fill-opacity:0.5;" d="M 139.35932933750001,41.712864 L 139.35932933750001,25.551216148437504 L 145.4227033609375,25.551216148437504 Q 147.2747885171875,25.551216148437504 148.39375663242188,26.041798228515628 Q 149.51272474765625,26.532380308593755 150.14662294101564,27.55212957617188 Q 150.780521134375,28.571878843750003 150.780521134375,29.685334800781256 Q 150.780521134375,30.721620542968754 150.21828099765625,31.636638804687504 Q 149.6560408609375,32.55165706640626 148.52053627109376,33.113897203125006 Q 149.986770353125,33.543845542968754 150.77500897617188,34.580131285156256 Q 151.56324759921876,35.61641702734376 151.56324759921876,37.02752952734375 Q 151.56324759921876,38.16303411718751 151.08368983554686,39.13868611914063 Q 150.604132071875,40.11433812109375 149.898575821875,40.64350530859375 Q 149.193019571875,41.17267249609375 148.12917303867187,41.442768248046875 Q 147.06532650546876,41.712864 145.52192220859376,41.712864 L 139.35932933750001,41.712864 M 141.4980467203125,32.34219505468751 L 144.99275502109376,32.34219505468751 Q 146.4148918375,32.34219505468751 147.03225355625,32.15478167578125 Q 147.8480529703125,31.912246714843754 148.26146483554686,31.350006578125004 Q 148.67487670078125,30.787766441406255 148.67487670078125,29.938894078125003 Q 148.67487670078125,29.134118980468756 148.2890256265625,28.52226941992188 Q 147.90317455234376,27.910419859375004 147.1865939859375,27.68442137304688 Q 146.47001341953126,27.458422886718754 144.72817142734374,27.458422886718754 L 141.4980467203125,27.458422886718754 L 141.4980467203125,32.34219505468751 M 141.4980467203125,39.80565726171875 L 145.52192220859376,39.80565726171875 Q 146.55820795078125,39.80565726171875 146.97713197421876,39.728487046875 Q 147.7157611734375,39.59619525000001 148.21185541171874,39.287514390625006 Q 148.70794965,38.978833531250004 149.02765482578124,38.38903260351563 Q 149.3473600015625,37.79923167578126 149.3473600015625,37.02752952734375 Q 149.3473600015625,36.12353558203125 148.8843387125,35.45656443945313 Q 148.4213174234375,34.789593296875005 147.6000058511719,34.519497544921876 Q 146.77869427890624,34.249401792968754 145.23528998203125,34.249401792968754 L 141.4980467203125,34.249401792968754 L 141.4980467203125,39.80565726171875" />
<path id="0_13" style="fill:#ff0000;fill-opacity:0.5;" d="M 154.4185455484375,41.712864 L 154.4185455484375,25.551216148437504 L 160.48191957187498,25.551216148437504 Q 162.334004728125,25.551216148437504 163.45297284335936,26.041798228515628 Q 164.57194095859376,26.532380308593755 165.2058391519531,27.55212957617188 Q 165.8397373453125,28.571878843750003 165.8397373453125,29.685334800781256 Q 165.8397373453125,30.721620542968754 165.27749720859373,31.636638804687504 Q 164.715257071875,32.55165706640626 163.57975248203124,33.113897203125006 Q 165.0459865640625,33.543845542968754 165.83422518710938,34.580131285156256 Q 166.62246381015623,35.61641702734376 166.62246381015623,37.02752952734375 Q 166.62246381015623,38.16303411718751 166.14290604648437,39.13868611914063 Q 165.66334828281248,40.11433812109375 164.9577920328125,40.64350530859375 Q 164.2522357828125,41.17267249609375 163.18838924960937,41.442768248046875 Q 162.12454271640624,41.712864 160.58113841953124,41.712864 L 154.4185455484375,41.712864 M 156.55726293125,32.34219505468751 L 160.05197123203124,32.34219505468751 Q 161.4741080484375,32.34219505468751 162.0914697671875,32.15478167578125 Q 162.90726918125,31.912246714843754 163.32068104648437,31.350006578125004 Q 163.73409291171873,30.787766441406255 163.73409291171873,29.938894078125003 Q 163.73409291171873,29.134118980468756 163.34824183749998,28.52226941992188 Q 162.96239076328123,27.910419859375004 162.245810196875,27.68442137304688 Q 161.52922963046873,27.458422886718754 159.78738763828125,27.458422886718754 L 156.55726293125,27.458422886718754 L 156.55726293125,32.34219505468751 M 156.55726293125,39.80565726171875 L 160.58113841953124,39.80565726171875 Q 161.61742416171873,39.80565726171875 162.03634818515624,39.728487046875 Q 162.774977384375,39.59619525000001 163.27107162265625,39.287514390625006 Q 163.7671658609375,38.978833531250004 164.08687103671875,38.38903260351563 Q 164.4065762125,37.79923167578126 164.4065762125,37.02752952734375 Q 164.4065762125,36.12353558203125 163.9435549234375,35.45656443945313 Q 163.48053363437498,34.789593296875005 162.65922206210936,34.519497544921876 Q 161.83791048984375,34.249401792968754 160.29450619296875,34.249401792968754 L 156.55726293125,34.249401792968754 L 156.55726293125,39.80565726171875" /></g>
</svg>
