<?xml version="1.0" encoding="UTF-8" standalone="no"?>
<!-- Created with Inkscape (http://www.inkscape.org/) -->

<svg
   width="210mm"
   height="60mm"
   viewBox="0 0 210 60"
   version="1.1"
   id="svg5"
   inkscape:version="1.1.1 (3bf5ae0d25, 2021-09-20)"
   sodipodi:docname="sans_serif.svg"
   xmlns:inkscape="http://www.inkscape.org/namespaces/inkscape"
   xmlns:sodipodi="http://sodipodi.sourceforge.net/DTD/sodipodi-0.dtd"
   xmlns="http://www.w3.org/2000/svg"
   xmlns:svg="http://www.w3.org/2000/svg">
  <sodipodi:namedview
     id="namedview7"
     pagecolor="#ffffff"
     bordercolor="#cccccc"
     borderopacity="1"
     inkscape:pageshadow="0"
     inkscape:pageopacity="1"
     inkscape:pagecheckerboard="0"
     inkscape:document-units="mm"
     showgrid="false"
     inkscape:zoom="0.63250561"
     inkscape:cx="397.62493"
     inkscape:cy="181.81657"
     inkscape:window-width="1500"
     inkscape:window-height="938"
     inkscape:window-x="-6"
     inkscape:window-y="-6"
     inkscape:window-maximized="1"
     inkscape:current-layer="layer1" />
  <defs
     id="defs2" />
  <g
     inkscape:label="Layer 1"
     inkscape:groupmode="layer"
     id="layer1">
    <text
       xml:space="preserve"
       style="font-style:normal;font-weight:normal;font-size:10.5833px;line-height:1.25;font-family:sans-serif;fill:#000000;fill-opacity:1;stroke:none;stroke-width:0.264583"
       x="17.569014"
       y="33.883099"
       id="text1574"><tspan
         sodipodi:role="line"
         id="tspan1572"
         style="stroke-width:0.264583"
         x="17.569014"
         y="33.883099">Sans Serif</tspan></text>
  </g>
  <g><path id="0_0" style="fill:#ff0000;fill-opacity:0.5;" d="M 21.274202525390624,34.01228967382813 Q 19.672238169921876,34.01228967382813 18.879007432617186,33.293989527343754 Q 18.0857766953125,32.57568938085938 18.0444356796875,31.449146705078128 L 19.010781919921875,31.449146705078128 Q 19.08829632421875,32.29663752539063 19.716162999023435,32.70229624121094 Q 20.344029673828125,33.107954957031254 21.232861509765623,33.107954957031254 Q 22.075184703125,33.107954957031254 22.589363584960935,32.761723951171874 Q 23.103542466796874,32.4154929453125 23.103542466796874,31.82121584570313 Q 23.103542466796874,31.195932984375002 22.571276890625,30.911713501953127 Q 22.039011314453123,30.62749401953125 20.739353135742185,30.351025977539067 Q 19.43969495703125,30.074557935546878 18.873839805664062,29.583633375 Q 18.307984654296874,29.09270881445313 18.307984654296874,28.276223755859377 Q 18.307984654296874,27.35638615820313 19.044371495117186,26.76727668554688 Q 19.7807583359375,26.178167212890628 21.000318296874998,26.178167212890628 Q 22.281889781249998,26.178167212890628 23.067369078124997,26.772444312500003 Q 23.852848375,27.366721412109378 23.899357017578126,28.45192307226563 L 22.922675523437498,28.45192307226563 Q 22.772814341796874,27.07733430273438 21.0416593125,27.07733430273438 Q 20.20450374609375,27.07733430273438 19.744584947265622,27.392559546875002 Q 19.2846661484375,27.707784791015627 19.2846661484375,28.22971511328125 Q 19.2846661484375,28.70513679296875 19.654151475585937,28.9428476328125 Q 20.023636802734373,29.18055847265625 21.033907872070312,29.40276643164063 Q 22.044178941406248,29.624974390625002 22.638456041015623,29.842014722656252 Q 23.232733140625,30.0590550546875 23.656478550781248,30.516390040039063 Q 24.0802239609375,30.973725025390628 24.0802239609375,31.74370144140625 Q 24.0802239609375,32.72038293554688 23.302496104492185,33.3663363046875 Q 22.524768248046875,34.01228967382813 21.274202525390624,34.01228967382813" />
<path id="0_1" style="fill:#ff0000;fill-opacity:0.5;" d="M 28.81893787695312,32.44133108007813 L 28.81893787695312,31.22693874609375 L 28.152313999999997,31.22693874609375 Q 26.03358694921875,31.22693874609375 26.03358694921875,32.379319556640624 Q 26.03358694921875,32.79789733984375 26.343644566406248,33.02268911230469 Q 26.65370218359375,33.24748088476563 27.1808001328125,33.24748088476563 Q 27.661389439453124,33.24748088476563 28.110972984375,33.030440552734376 Q 28.560556529296875,32.81340022070313 28.81893787695312,32.44133108007813 M 28.81893787695312,33.319827662109375 Q 28.074799595703126,34.01228967382813 26.90174827734375,34.01228967382813 Q 26.08526321875,34.01228967382813 25.55816526953125,33.57045756933594 Q 25.0310673203125,33.12862546484375 25.0310673203125,32.43099582617188 Q 25.0310673203125,30.508638599609377 28.34351619726562,30.508638599609377 L 28.81893787695312,30.508638599609377 Q 28.81893787695312,29.91952912695313 28.756926353515624,29.65339633886719 Q 28.694914830078126,29.387263550781253 28.41069534765625,29.211564234375004 Q 28.126475865234376,29.035864917968752 27.506360630859376,29.035864917968752 Q 26.204118638671872,29.035864917968752 26.162777623046875,29.966037769531255 L 25.191263755859374,29.966037769531255 Q 25.299783921874997,28.276223755859377 27.558036900390626,28.276223755859377 Q 28.612232798828124,28.276223755859377 29.201342271484375,28.694801539062503 Q 29.790451744140626,29.11337932226563 29.790451744140626,30.338106910156252 L 29.790451744140626,33.883099 L 28.81893787695312,33.883099 L 28.81893787695312,33.319827662109375" />
<path id="0_2" style="fill:#ff0000;fill-opacity:0.5;" d="M 32.208901158203126,29.097876441406253 Q 32.93753655859375,28.276223755859377 33.84703890234375,28.276223755859377 Q 35.70221697851562,28.276223755859377 35.70221697851562,30.29676589453125 L 35.70221697851562,33.883099 L 34.725535484375,33.883099 L 34.725535484375,30.338106910156252 Q 34.725535484375,29.666315406250003 34.48524083105468,29.371760669921876 Q 34.24494617773438,29.077205933593753 33.697177720703124,29.077205933593753 Q 32.95303943945312,29.077205933593753 32.208901158203126,29.955702515625003 L 32.208901158203126,33.883099 L 31.232219664062498,33.883099 L 31.232219664062498,28.40024680273438 L 32.208901158203126,28.40024680273438 L 32.208901158203126,29.097876441406253" />
<path id="0_3" style="fill:#ff0000;fill-opacity:0.5;" d="M 39.076677378906254,34.01228967382813 Q 36.828759654296874,34.01228967382813 36.725407115234376,32.24496125585938 L 37.702088609375,32.24496125585938 Q 37.712423863281245,33.24748088476563 39.066342125,33.24748088476563 Q 39.670954478515625,33.24748088476563 39.98876353613281,32.99685097753907 Q 40.306572593750005,32.7462210703125 40.306572593750005,32.368984302734376 Q 40.306572593750005,31.996915162109378 39.996514976562494,31.84447016699219 Q 39.686457359375,31.692025171875002 38.71752730566406,31.449146705078128 Q 37.74859725195313,31.206268238281254 37.30159752050781,30.906545875000003 Q 36.854597789062495,30.60682351171875 36.854597789062495,29.852349976562504 Q 36.854597789062495,29.170223218750003 37.410117686523435,28.72322348730469 Q 37.965637583984375,28.276223755859377 38.89581043554688,28.276223755859377 Q 41.050710875,28.276223755859377 41.097219517578125,29.811008960937503 L 40.12570565039063,29.811008960937503 Q 40.07402938085937,29.035864917968752 38.9629895859375,29.035864917968752 Q 38.47206502539062,29.035864917968752 38.14908834082031,29.221899488281252 Q 37.82611165625,29.407934058593753 37.82611165625,29.764500318359378 Q 37.82611165625,30.084893189453126 38.07415775,30.227002930664064 Q 38.32220384375,30.369112671875 39.31697203222656,30.609407325195313 Q 40.31174022070313,30.84970197851563 40.794913340820315,31.170094849609377 Q 41.2780864609375,31.49048772070313 41.2780864609375,32.275967017578125 Q 41.2780864609375,33.02527292578125 40.68122554785156,33.51878129980469 Q 40.08436463476562,34.01228967382813 39.076677378906254,34.01228967382813" />
<path id="0_4" style="fill:#ff0000;fill-opacity:0.5;" d="M 41.6914966171875,33.883099 L 41.6914966171875,33.883099" />
<path id="0_5" style="fill:#ff0000;fill-opacity:0.5;" d="M 48.20787420507813,34.01228967382813 Q 46.605909849609375,34.01228967382813 45.812679112304686,33.293989527343754 Q 45.019448374999996,32.57568938085938 44.978107359375,31.449146705078128 L 45.944453599609375,31.449146705078128 Q 46.02196800390625,32.29663752539063 46.64983467871093,32.70229624121094 Q 47.277701353515624,33.107954957031254 48.16653318945312,33.107954957031254 Q 49.008856382812496,33.107954957031254 49.52303526464844,32.761723951171874 Q 50.037214146484374,32.4154929453125 50.037214146484374,31.82121584570313 Q 50.037214146484374,31.195932984375002 49.50494857031249,30.911713501953127 Q 48.97268299414063,30.62749401953125 47.673024815429685,30.351025977539067 Q 46.37336663671875,30.074557935546878 45.80751148535156,29.583633375 Q 45.24165633398437,29.09270881445313 45.24165633398437,28.276223755859377 Q 45.24165633398437,27.35638615820313 45.97804317480468,26.76727668554688 Q 46.714430015625,26.178167212890628 47.9339899765625,26.178167212890628 Q 49.215561460937494,26.178167212890628 50.001040757812504,26.772444312500003 Q 50.7865200546875,27.366721412109378 50.83302869726562,28.45192307226563 L 49.856347203125,28.45192307226563 Q 49.70648602148437,27.07733430273438 47.975330992187494,27.07733430273438 Q 47.13817542578125,27.07733430273438 46.67825662695313,27.392559546875002 Q 46.218337828125,27.707784791015627 46.218337828125,28.22971511328125 Q 46.218337828125,28.70513679296875 46.58782315527344,28.9428476328125 Q 46.95730848242187,29.18055847265625 47.96757955175781,29.40276643164063 Q 48.97785062109375,29.624974390625002 49.57212772070312,29.842014722656252 Q 50.16640482031249,30.0590550546875 50.59015023046875,30.516390040039063 Q 51.013895640624995,30.973725025390628 51.013895640624995,31.74370144140625 Q 51.013895640624995,32.72038293554688 50.236167784179685,33.3663363046875 Q 49.458439927734375,34.01228967382813 48.20787420507813,34.01228967382813" />
<path id="0_6" style="fill:#ff0000;fill-opacity:0.5;" d="M 54.610564,34.01228967382813 Q 53.40133929296874,34.01228967382813 52.66753626562499,33.255232325195315 Q 51.93373323828125,32.4981749765625 51.93373323828125,31.144256714843753 Q 51.93373323828125,29.80067370703125 52.64428194433593,29.038448731445314 Q 53.354830650390625,28.276223755859377 54.502043833984374,28.276223755859377 Q 55.675095152343744,28.276223755859377 56.375308604492176,29.025529664062503 Q 57.07552205664062,29.774835572265626 57.07552205664062,31.144256714843753 L 57.07552205664062,31.37679992773438 L 52.94658812109374,31.37679992773438 Q 53.008599644531245,32.327643287109375 53.471102256835934,32.7875620859375 Q 53.93360486914062,33.24748088476563 54.610564,33.24748088476563 Q 55.122159068359366,33.24748088476563 55.53298541113281,32.98651572363281 Q 55.943811753906246,32.725550562500004 55.96448226171874,32.24496125585938 L 56.97216951757812,32.24496125585938 Q 56.85848172460936,33.09245207617188 56.20477691503906,33.552370875 Q 55.55107210546875,34.01228967382813 54.610564,34.01228967382813 M 56.047164292968745,30.61199113867188 Q 55.92830887304687,29.82134421484375 55.514898716796864,29.428604566406253 Q 55.10148856054687,29.035864917968752 54.502043833984374,29.035864917968752 Q 53.91810198828125,29.035864917968752 53.49952420507812,29.42602075292969 Q 53.080946421875,29.816176587890627 52.96725862890625,30.61199113867188 L 56.047164292968745,30.61199113867188" />
<path id="0_7" style="fill:#ff0000;fill-opacity:0.5;" d="M 61.013253794921866,29.289078638671878 Q 60.80654871679687,29.227067115234377 60.418976695312494,29.227067115234377 Q 59.67483841406249,29.227067115234377 59.142572837890626,30.007378785156252 L 59.142572837890626,33.883099 L 58.16589134374999,33.883099 L 58.16589134374999,28.40024680273438 L 59.142572837890626,28.40024680273438 L 59.142572837890626,29.16505559179688 Q 59.757520445312494,28.276223755859377 60.568837876953125,28.276223755859377 Q 60.77554295507812,28.276223755859377 61.013253794921866,28.317564771484378 L 61.013253794921866,29.289078638671878" />
<path id="0_8" style="fill:#ff0000;fill-opacity:0.5;" d="M 62.666894419921874,33.883099 L 61.69021292578125,33.883099 L 61.69021292578125,28.40024680273438 L 62.666894419921874,28.40024680273438 L 62.666894419921874,33.883099 M 62.666894419921874,27.361553785156254 L 61.69021292578125,27.361553785156254 L 61.69021292578125,26.30735788671875 L 62.666894419921874,26.30735788671875 L 62.666894419921874,27.361553785156254" />
<path id="0_9" style="fill:#ff0000;fill-opacity:0.5;" d="M 65.24554026953125,29.16505559179688 L 65.24554026953125,33.883099 L 64.27402640234375,33.883099 L 64.27402640234375,29.16505559179688 L 63.46787659765624,29.16505559179688 L 63.46787659765624,28.40024680273438 L 64.27402640234375,28.40024680273438 L 64.27402640234375,27.914489869140628 Q 64.27402640234375,26.178167212890628 65.80881160742187,26.178167212890628 Q 66.27906566015625,26.178167212890628 66.53744700781249,26.24017873632813 L 66.53744700781249,27.087669556640627 Q 66.24805989843749,27.035993287109378 65.94833753515624,27.035993287109378 Q 65.59177127539061,27.035993287109378 65.41865577246094,27.23494692480469 Q 65.24554026953125,27.433900562500003 65.24554026953125,27.92482512304688 L 65.24554026953125,28.40024680273438 L 66.28423328710937,28.40024680273438 L 66.28423328710937,29.16505559179688 L 65.24554026953125,29.16505559179688" />
  </g>
</svg>
