<?xml version='1.0' encoding='UTF-8'?>
<!-- Generated by pycut - svgtext2svgpath -->
<!-- Created with Inkscape (http://www.inkscape.org/) -->
<svg xmlns:inkscape="http://www.inkscape.org/namespaces/inkscape" xmlns:sodipodi="http://sodipodi.sourceforge.net/DTD/sodipodi-0.dtd" xmlns="http://www.w3.org/2000/svg" xmlns:svg="http://www.w3.org/2000/svg" width="210mm" height="60mm" viewBox="0 0 210 60" version="1.1" id="svg5" inkscape:version="1.1.1 (3bf5ae0d25, 2021-09-20)" sodipodi:docname="sans_serif.svg">
  <sodipodi:namedview id="namedview7" pagecolor="#ffffff" bordercolor="#cccccc" borderopacity="1" inkscape:pageshadow="0" inkscape:pageopacity="1" inkscape:pagecheckerboard="0" inkscape:document-units="mm" showgrid="false" inkscape:zoom="0.63250561" inkscape:cx="397.62493" inkscape:cy="181.81657" inkscape:window-width="1500" inkscape:window-height="938" inkscape:window-x="-6" inkscape:window-y="-6" inkscape:window-maximized="1" inkscape:current-layer="layer1"/>
  <defs id="defs2"/>
  <g inkscape:label="Layer 1" inkscape:groupmode="layer" id="layer1">
    <text xml:space="preserve" style="font-style:normal;font-weight:normal;font-size:10.5833px;line-height:1.25;font-family:sans-serif;fill:#ff0000;fill-opacity:0.5;stroke:none;stroke-width:0.264583" x="17.569014" y="33.883099" id="text1574">
      <tspan sodipodi:role="line" id="tspan1572" style="stroke-width:0.264583" x="17.569014" y="33.883099">Sans Serif</tspan>
    </text>
    <path id="text1574_0" fill="#ff0000" fill-opacity="0.5" d="M 21.2742025254,34.0122896738 Q 19.6722381699,34.0122896738 18.8790074326,33.2939895273 T 18.0444356797,31.4491467051 L 19.0107819199,31.4491467051 Q 19.0882963242,32.2966375254 19.716162999,32.7022962412 T 21.2328615098,33.107954957 Q 22.0751847031,33.107954957 22.589363585,32.7617239512 T 23.1035424668,31.8212158457 Q 23.1035424668,31.1959329844 22.5712768906,30.911713502 T 20.7393531357,30.3510259775 T 18.8738398057,29.583633375 T 18.3079846543,28.2762237559 Q 18.3079846543,27.3563861582 19.0443714951,26.7672766855 T 21.0003182969,26.1781672129 Q 22.2818897812,26.1781672129 23.0673690781,26.7724443125 T 23.8993570176,28.4519230723 L 22.9226755234,28.4519230723 Q 22.7728143418,27.0773343027 21.0416593125,27.0773343027 Q 20.2045037461,27.0773343027 19.7445849473,27.3925595469 T 19.2846661484,28.2297151133 Q 19.2846661484,28.705136793 19.6541514756,28.9428476328 T 21.0339078721,29.4027664316 T 22.638456041,29.8420147227 T 23.6564785508,30.51639004 T 24.0802239609,31.7437014414 Q 24.0802239609,32.7203829355 23.3024961045,33.3663363047 T 21.2742025254,34.0122896738 Z"/>
    <path id="text1574_1" fill="#ff0000" fill-opacity="0.5" d="M 28.818937877,32.4413310801 L 28.818937877,31.2269387461 L 28.152314,31.2269387461 Q 26.0335869492,31.2269387461 26.0335869492,32.3793195566 Q 26.0335869492,32.7978973398 26.3436445664,33.0226891123 T 27.1808001328,33.2474808848 Q 27.6613894395,33.2474808848 28.1109729844,33.0304405527 T 28.818937877,32.4413310801 Z M 28.818937877,33.3198276621 Q 28.0747995957,34.0122896738 26.9017482773,34.0122896738 Q 26.0852632187,34.0122896738 25.5581652695,33.5704575693 T 25.0310673203,32.4309958262 Q 25.0310673203,30.5086385996 28.3435161973,30.5086385996 L 28.818937877,30.5086385996 Q 28.818937877,29.919529127 28.7569263535,29.6533963389 T 28.4106953477,29.2115642344 T 27.5063606309,29.035864918 Q 26.2041186387,29.035864918 26.162777623,29.9660377695 L 25.1912637559,29.9660377695 Q 25.2997839219,28.2762237559 27.5580369004,28.2762237559 Q 28.6122327988,28.2762237559 29.2013422715,28.6948015391 T 29.7904517441,30.3381069102 L 29.7904517441,33.883099 L 28.818937877,33.883099 L 28.818937877,33.3198276621 Z"/>
    <path id="text1574_2" fill="#ff0000" fill-opacity="0.5" d="M 32.2089011582,29.0978764414 Q 32.9375365586,28.2762237559 33.8470389023,28.2762237559 Q 35.7022169785,28.2762237559 35.7022169785,30.2967658945 L 35.7022169785,33.883099 L 34.7255354844,33.883099 L 34.7255354844,30.3381069102 Q 34.7255354844,29.6663154063 34.4852408311,29.3717606699 T 33.6971777207,29.0772059336 Q 32.9530394395,29.0772059336 32.2089011582,29.9557025156 L 32.2089011582,33.883099 L 31.2322196641,33.883099 L 31.2322196641,28.4002468027 L 32.2089011582,28.4002468027 L 32.2089011582,29.0978764414 Z"/>
    <path id="text1574_3" fill="#ff0000" fill-opacity="0.5" d="M 39.0766773789,34.0122896738 Q 36.8287596543,34.0122896738 36.7254071152,32.2449612559 L 37.7020886094,32.2449612559 Q 37.7124238633,33.2474808848 39.066342125,33.2474808848 Q 39.6709544785,33.2474808848 39.9887635361,32.9968509775 T 40.3065725937,32.3689843027 Q 40.3065725937,31.9969151621 39.9965149766,31.844470167 T 38.7175273057,31.4491467051 T 37.3015975205,30.906545875 T 36.8545977891,29.8523499766 Q 36.8545977891,29.1702232188 37.4101176865,28.7232234873 T 38.8958104355,28.2762237559 Q 41.050710875,28.2762237559 41.0972195176,29.8110089609 L 40.1257056504,29.8110089609 Q 40.0740293809,29.035864918 38.9629895859,29.035864918 Q 38.4720650254,29.035864918 38.1490883408,29.2218994883 T 37.8261116562,29.7645003184 Q 37.8261116562,30.0848931895 38.07415775,30.2270029307 T 39.3169720322,30.6094073252 T 40.7949133408,31.1700948496 T 41.2780864609,32.2759670176 Q 41.2780864609,33.0252729258 40.6812255479,33.5187812998 T 39.0766773789,34.0122896738 Z"/>
    <path id="text1574_4" fill="#ff0000" fill-opacity="0.5" d="M 41.6914966172,33.883099 L 41.6914966172,33.883099 Z"/>
    <path id="text1574_5" fill="#ff0000" fill-opacity="0.5" d="M 48.2078742051,34.0122896738 Q 46.6059098496,34.0122896738 45.8126791123,33.2939895273 T 44.9781073594,31.4491467051 L 45.9444535996,31.4491467051 Q 46.0219680039,32.2966375254 46.6498346787,32.7022962412 T 48.1665331895,33.107954957 Q 49.0088563828,33.107954957 49.5230352646,32.7617239512 T 50.0372141465,31.8212158457 Q 50.0372141465,31.1959329844 49.5049485703,30.911713502 T 47.6730248154,30.3510259775 T 45.8075114854,29.583633375 T 45.241656334,28.2762237559 Q 45.241656334,27.3563861582 45.9780431748,26.7672766855 T 47.9339899766,26.1781672129 Q 49.2155614609,26.1781672129 50.0010407578,26.7724443125 T 50.8330286973,28.4519230723 L 49.8563472031,28.4519230723 Q 49.7064860215,27.0773343027 47.9753309922,27.0773343027 Q 47.1381754258,27.0773343027 46.678256627,27.3925595469 T 46.2183378281,28.2297151133 Q 46.2183378281,28.705136793 46.5878231553,28.9428476328 T 47.9675795518,29.4027664316 T 49.5721277207,29.8420147227 T 50.5901502305,30.51639004 T 51.0138956406,31.7437014414 Q 51.0138956406,32.7203829355 50.2361677842,33.3663363047 T 48.2078742051,34.0122896738 Z"/>
    <path id="text1574_6" fill="#ff0000" fill-opacity="0.5" d="M 54.610564,34.0122896738 Q 53.401339293,34.0122896738 52.6675362656,33.2552323252 T 51.9337332383,31.1442567148 Q 51.9337332383,29.800673707 52.6442819443,29.0384487314 T 54.502043834,28.2762237559 Q 55.6750951523,28.2762237559 56.3753086045,29.0255296641 T 57.0755220566,31.1442567148 L 57.0755220566,31.3767999277 L 52.9465881211,31.3767999277 Q 53.0085996445,32.3276432871 53.4711022568,32.7875620859 T 54.610564,33.2474808848 Q 55.1221590684,33.2474808848 55.5329854111,32.9865157236 T 55.9644822617,32.2449612559 L 56.9721695176,32.2449612559 Q 56.8584817246,33.0924520762 56.204776915,33.552370875 T 54.610564,34.0122896738 Z M 56.047164293,30.6119911387 Q 55.928308873,29.8213442148 55.5148987168,29.4286045664 T 54.502043834,29.035864918 Q 53.9181019883,29.035864918 53.4995242051,29.4260207529 T 52.9672586289,30.6119911387 L 56.047164293,30.6119911387 Z"/>
    <path id="text1574_7" fill="#ff0000" fill-opacity="0.5" d="M 61.0132537949,29.2890786387 Q 60.8065487168,29.2270671152 60.4189766953,29.2270671152 Q 59.6748384141,29.2270671152 59.1425728379,30.0073787852 L 59.1425728379,33.883099 L 58.1658913437,33.883099 L 58.1658913437,28.4002468027 L 59.1425728379,28.4002468027 L 59.1425728379,29.1650555918 Q 59.7575204453,28.2762237559 60.568837877,28.2762237559 Q 60.7755429551,28.2762237559 61.0132537949,28.3175647715 L 61.0132537949,29.2890786387 Z"/>
    <path id="text1574_8" fill="#ff0000" fill-opacity="0.5" d="M 62.6668944199,33.883099 L 61.6902129258,33.883099 L 61.6902129258,28.4002468027 L 62.6668944199,28.4002468027 L 62.6668944199,33.883099 Z M 62.6668944199,27.3615537852 L 61.6902129258,27.3615537852 L 61.6902129258,26.3073578867 L 62.6668944199,26.3073578867 L 62.6668944199,27.3615537852 Z"/>
    <path id="text1574_9" fill="#ff0000" fill-opacity="0.5" d="M 65.2455402695,29.1650555918 L 65.2455402695,33.883099 L 64.2740264023,33.883099 L 64.2740264023,29.1650555918 L 63.4678765977,29.1650555918 L 63.4678765977,28.4002468027 L 64.2740264023,28.4002468027 L 64.2740264023,27.9144898691 Q 64.2740264023,26.1781672129 65.8088116074,26.1781672129 Q 66.2790656602,26.1781672129 66.5374470078,26.2401787363 L 66.5374470078,27.0876695566 Q 66.2480598984,27.0359932871 65.9483375352,27.0359932871 Q 65.5917712754,27.0359932871 65.4186557725,27.2349469248 T 65.2455402695,27.924825123 L 65.2455402695,28.4002468027 L 66.2842332871,28.4002468027 L 66.2842332871,29.1650555918 L 65.2455402695,29.1650555918 Z"/>
  </g>
</svg>
