<?xml version='1.0' encoding='UTF-8'?>
<!-- Generated by pycut - svgtext2svgpath -->
<svg xmlns="http://www.w3.org/2000/svg" xmlns:svg="http://www.w3.org/2000/svg" width="210mm" height="60mm" viewBox="0 0 210 60" version="1.1" id="slaine_test">
  <g id="layer1">
    <text style="fill-opacity:0.5;font-style:normal;font-variant:normal;font-weight:normal;font-stretch:normal;font-size:22.5778px;line-height:1.25;font-family:Sl치ine;-inkscape-font-specification:'Sl치ine, Normal';font-variant-ligatures:normal;font-variant-caps:normal;font-variant-numeric:normal;font-variant-east-asian:normal;fill:#000000;fill-opacity:1;stroke:none;stroke-width:0.264583" x="40.99437" y="30.954929" id="mytext">
      <tspan id="mytspan" style="fill-opacity:0.5;font-style:normal;font-variant:normal;font-weight:normal;font-stretch:normal;font-size:22.5778px;font-family:Sl치ine;-inkscape-font-specification:'Sl치ine, Normal';font-variant-ligatures:normal;font-variant-caps:normal;font-variant-numeric:normal;font-variant-east-asian:normal;stroke-width:0.264583" x="40.99437" y="30.954929">CHAbpk</tspan>
    </text>
    <path id="mytext_0" fill="#000000" fill-opacity="1" d="M 52.9006317187,26.7215915 L 53.9148688281,28.3090930625 Q 52.1509782031,30.954929 48.9980237109,31.0210748984 T 43.6402059375,29.191038375 T 41.4132940234,24.3403391563 T 43.1551360156,19.0045700156 T 48.4468078906,16.5792204063 T 54.1794524219,20.37158525 L 51.7100055469,21.2535305625 Q 50.6516711719,17.0642903281 48.1822242969,17.1304362266 T 44.5882971484,20.3936338828 T 44.6985403125,27.0523209922 T 48.7995860156,30.5139563437 T 52.9006317187,26.7215915 Z"/>
    <path id="mytext_1" fill="#000000" fill-opacity="1" d="M 59.8679996875,20.1510989219 Q 59.6475133594,24.60492275 59.7798051562,26.3908620078 T 60.5294586719,30.954929 L 57.0016774219,30.954929 Q 57.2662610156,26.1483270469 57.2442123828,22.4221081016 T 56.9796287891,17.6155061484 T 55.4141758594,16.5351231406 Q 57.7954282031,15.2122051719 58.0159145312,14.0656762656 Q 59.8679996875,14.374357125 59.8239024219,18.96047275 Q 61.3232094531,16.5792204063 63.8808508594,16.5792204063 T 68.0921397266,18.9825213828 T 68.7315500781,24.9797495078 T 65.5124496875,30.4257618125 Q 67.452729375,30.24937275 69.3930090625,29.2351356406 L 68.7315500781,30.954929 L 63.4839754687,30.954929 Q 67.8496047656,27.2948559531 67.0338053516,23.3040534141 T 63.7265104297,18.6297432578 T 59.8679996875,20.1510989219 Z"/>
    <path id="mytext_2" fill="#000000" fill-opacity="1" d="M 71.5978723437,30.9659533164 Q 73.6263465625,28.0004122031 78.8298239062,16.5351231406 L 80.5937145313,16.5351231406 Q 84.9593438281,28.0886067344 87.2964989062,30.954929 L 83.6364258594,30.954929 Q 83.4600367969,29.896594625 82.974966875,28.9264547813 Q 81.6079516406,30.6903454062 79.2266992969,30.8005885703 T 75.1256535938,28.7500657188 Q 74.4641946094,29.6761082969 74.5964864062,30.954929 L 71.5978723437,30.9659533164 Z M 76.0075989062,26.7215915 Q 77.2864196094,30.0729836875 79.1109439746,30.0784958457 T 82.1371188281,27.1625641562 Q 80.6819090625,21.429919625 79.4912828906,19.4014454063 Q 78.2124621875,21.3417250938 76.0075989062,26.7215915 Z"/>
    <path id="mytext_3" fill="#000000" fill-opacity="1" d="M 88.8840004688,18.8281809531 Q 90.5155992969,18.2108192344 91.3093500781,16.4469286094 Q 92.6763653125,17.9903329062 92.6322680469,20.9889469687 Q 93.855967168,19.8093451133 96.0057088672,19.8258815879 T 99.6492454395,21.4078709922 T 100.746164922,26.1593513633 T 98.2546694141,30.3485915977 T 93.7512361621,30.8446858359 T 90.5045749805,28.3201173789 T 90.1573090137,23.7505382285 T 90.3171616016,20.1676353965 T 88.8840004688,18.8281809531 Z M 92.6763653125,22.1795731406 Q 92.1912953906,26.1924243125 92.9189002734,28.2208985313 T 95.3001526172,30.3375672812 T 97.7034535937,28.4413848594 T 98.0562317187,23.9655123984 T 96.0442939746,20.8511430137 T 92.6763653125,22.1795731406 Z"/>
    <path id="mytext_4" fill="#000000" fill-opacity="1" d="M 106.214225859,22.0031840781 Q 106.037836797,26.0601325156 106.05988543,28.3531903281 T 105.993739531,34.1740293906 Q 104.229848906,35.0559747031 103.182538848,36.246600875 Q 103.722730352,31.0982451133 103.821949199,27.1680763145 T 103.750291143,22.5984971641 T 102.906930938,21.8157706992 Q 104.64877293,20.8456308555 105.530718242,19.8093451133 Q 105.993739531,20.37158525 106.126031328,21.1212387656 Q 107.537143828,19.7101262656 110.094785234,19.666029 T 113.534371953,23.3922479453 T 112.674475273,29.1689897422 T 109.168742656,31.0872207969 T 106.478809453,30.24937275 Q 106.919782109,29.5879137656 107.096171172,28.4413848594 Q 108.198602812,30.5139563437 109.631763945,30.1391295859 T 111.527946367,28.2208985313 T 111.197216875,23.9655123984 T 108.88211043,20.8346065391 T 106.214225859,22.0031840781 Z"/>
    <path id="mytext_5" fill="#000000" fill-opacity="1" d="M 119.222919219,26.4129106406 Q 119.002432891,29.5438165 119.443405547,30.954929 L 116.64322918,30.954929 Q 116.951910039,28.4524091758 116.996007305,25.6963300742 T 116.8251304,22.2622555137 T 115.651040703,20.9779226523 Q 117.448004277,20.6471931602 118.385071172,19.4896399375 Q 119.134724687,19.8865153281 119.244967852,20.5920715781 T 119.267016484,25.1340899375 Q 122.442019609,22.7087403281 123.191673125,21.6063086875 T 124.294104766,19.4455426719 Q 124.735077422,20.0629043906 125.572925469,20.5479743125 Q 123.015284063,23.4583938438 120.986809844,25.0899926719 Q 122.28767918,27.6807070273 123.197185283,29.0146493125 T 125.605998418,30.954929 L 121.868755156,30.954929 Q 120.667104668,28.5626523398 119.222919219,26.4129106406 Z"/>
  </g>
</svg>
