<?xml version='1.0' encoding='UTF-8'?>
<svg xmlns="http://www.w3.org/2000/svg" xmlns:svg="http://www.w3.org/2000/svg" width="210mm" height="60mm" viewBox="0 0 210 60" version="1.1" id="slaine_test">
  <g id="layer1">
    <text xml:space="preserve" style="font-style:normal;font-variant:normal;font-weight:normal;font-stretch:normal;font-size:22.5778px;line-height:1.25;font-family:Sl치ine;-inkscape-font-specification:'Sl치ine, Normal';font-variant-ligatures:normal;font-variant-caps:normal;font-variant-numeric:normal;font-variant-east-asian:normal;fill:#000000;fill-opacity:1;stroke:none;stroke-width:0.264583" x="40.99437" y="30.954929" id="mytext">
      <tspan id="mytspan" style="font-style:normal;font-variant:normal;font-weight:normal;font-stretch:normal;font-size:22.5778px;font-family:Sl치ine;-inkscape-font-specification:'Sl치ine, Normal';font-variant-ligatures:normal;font-variant-caps:normal;font-variant-numeric:normal;font-variant-east-asian:normal;stroke-width:0.264583" x="40.99437" y="30.954929">CHAbpk</tspan>
    </text>
    <path id="mytext_0" fill="#000000" fill-opacity="1" d="M 52.90063171875,26.721591500000002 L 53.914868828125,28.3090930625 Q 52.150978203125,30.954929 48.9980237109375,31.0210748984375 Q 45.84506921875,31.087220796875002 43.6402059375,29.191038375 Q 41.43534265625,27.294855953125 41.4132940234375,24.340339156250003 Q 41.391245390625,21.385822359375002 43.155136015625004,19.004570015625 Q 44.919026640625,16.623317671875 48.446807890625,16.579220406250002 Q 51.974589140625,16.535123140625 54.179452421875,20.371585250000003 L 51.710005546875,21.2535305625 Q 50.651671171875,17.064290328125 48.182224296875,17.1304362265625 Q 45.712777421875,17.196582125 44.588297148437505,20.3936338828125 Q 43.463816875,23.590685640625 44.6985403125,27.0523209921875 Q 45.93326375,30.51395634375 48.799586015625,30.51395634375 Q 51.66590828125,30.51395634375 52.90063171875,26.721591500000002 Z"/>
    <path id="mytext_1" fill="#000000" fill-opacity="1" d="M 59.8679996875,20.151098921875 Q 59.647513359375,24.60492275 59.779805156250006,26.3908620078125 Q 59.912096953125,28.176801265625002 60.529458671875005,30.954929 L 57.001677421875,30.954929 Q 57.266261015625005,26.148327046875004 57.244212382812506,22.4221081015625 Q 57.22216375,18.69588915625 56.9796287890625,17.6155061484375 Q 56.737093828125,16.535123140625 55.414175859375,16.535123140625 Q 57.795428203125,15.212205171875 58.015914531250004,14.065676265625001 Q 59.8679996875,14.374357125000001 59.823902421875005,18.96047275 Q 61.323209453125,16.579220406250002 63.880850859375,16.579220406250002 Q 66.438492265625,16.579220406250002 68.0921397265625,18.9825213828125 Q 69.7457871875,21.385822359375002 68.731550078125,24.9797495078125 Q 67.71731296875001,28.57367665625 65.51244968750001,30.4257618125 Q 67.452729375,30.24937275 69.3930090625,29.235135640625003 L 68.731550078125,30.954929 L 63.48397546875,30.954929 Q 67.849604765625,27.294855953125 67.0338053515625,23.3040534140625 Q 66.21800593750001,19.313250875 63.7265104296875,18.6297432578125 Q 61.235014921875006,17.946235640625 59.8679996875,20.151098921875 Z"/>
    <path id="mytext_2" fill="#000000" fill-opacity="1" d="M 71.59787234375,30.96595331640625 Q 73.6263465625,28.000412203125002 78.82982390625,16.535123140625 L 80.59371453125,16.535123140625 Q 84.959343828125,28.088606734375 87.29649890625001,30.954929 L 83.63642585937501,30.954929 Q 83.460036796875,29.896594625 82.974966875,28.92645478125 Q 81.607951640625,30.69034540625 79.226699296875,30.8005885703125 Q 76.84544695312499,30.910831734375 75.12565359375,28.75006571875 Q 74.464194609375,29.676108296875 74.59648640625,30.954929 L 71.59787234375,30.96595331640625 M 76.00759890625,26.721591500000002 Q 77.286419609375,30.072983687500003 79.11094397460937,30.078495845703127 Q 80.93546833984375,30.084008003906252 82.137118828125,27.16256415625 Q 80.6819090625,21.429919625 79.491282890625,19.40144540625 Q 78.2124621875,21.34172509375 76.00759890625,26.721591500000002 Z"/>
    <path id="mytext_3" fill="#000000" fill-opacity="1" d="M 88.88400046875,18.828180953125 Q 90.515599296875,18.210819234375002 91.309350078125,16.446928609375 Q 92.6763653125,17.99033290625 92.632268046875,20.98894696875 Q 93.85596716796874,19.80934511328125 96.00570886718751,19.825881587890628 Q 98.15545056640624,19.842418062500002 99.64924543945313,21.4078709921875 Q 101.1430403125,22.973323921875 100.74616492187499,26.15935136328125 Q 100.34928953125,29.3453788046875 98.2546694140625,30.348591597656252 Q 96.160049296875,31.351804390625002 93.75123616210936,30.8446858359375 Q 91.34242302734376,30.33756728125 90.50457498046875,28.32011737890625 Q 89.66672693359375,26.3026674765625 90.15730901367186,23.750538228515627 Q 90.64789109374999,21.198408980468752 90.3171616015625,20.16763539648438 Q 89.98643210937499,19.1368618125 88.88400046875,18.828180953125 M 92.6763653125,22.179573140625003 Q 92.191295390625,26.192424312500002 92.9189002734375,28.22089853125 Q 93.64650515625,30.24937275 95.3001526171875,30.33756728125 Q 96.953800078125,30.4257618125 97.70345359375,28.441384859375 Q 98.453107109375,26.45700790625 98.05623171875,23.9655123984375 Q 97.659356328125,21.474016890625002 96.04429397460937,20.851143013671877 Q 94.42923162109375,20.22826913671875 92.6763653125,22.179573140625003 Z"/>
    <path id="mytext_4" fill="#000000" fill-opacity="1" d="M 106.214225859375,22.003184078125003 Q 106.037836796875,26.060132515625 106.0598854296875,28.353190328125002 Q 106.0819340625,30.646248140625 105.99373953125,34.174029390625 Q 104.22984890625,35.055974703125 103.18253884765625,36.246600875 Q 103.7227303515625,31.09824511328125 103.82194919921875,27.168076314453124 Q 103.92116804687501,23.237907515625 103.75029114257813,22.5984971640625 Q 103.57941423828126,21.9590868125 102.9069309375,21.815770699218753 Q 104.64877292968751,20.84563085546875 105.5307182421875,19.80934511328125 Q 105.99373953125,20.371585250000003 106.12603132812501,21.121238765625 Q 107.537143828125,19.710126265625 110.09478523437501,19.666029 Q 112.65242664062501,19.621931734375 113.534371953125,23.3922479453125 Q 114.41631726562501,27.16256415625 112.67447527343751,29.168989742187502 Q 110.93263328125,31.175415328125002 109.16874265625,31.087220796875002 Q 107.40485203125,30.999026265625 106.47880945312501,30.24937275 Q 106.919782109375,29.587913765625 107.096171171875,28.441384859375 Q 108.1986028125,30.51395634375 109.6317639453125,30.1391295859375 Q 111.064925078125,29.764302828125 111.52794636718751,28.22089853125 Q 111.99096765625,26.677494234375 111.19721687500001,23.9655123984375 Q 110.40346609375,21.2535305625 108.8821104296875,20.8346065390625 Q 107.360754765625,20.415682515625 106.214225859375,22.003184078125003 Z"/>
    <path id="mytext_5" fill="#000000" fill-opacity="1" d="M 119.22291921875001,26.412910640625 Q 119.002432890625,29.5438165 119.443405546875,30.954929 L 116.6432291796875,30.954929 Q 116.9519100390625,28.45240917578125 116.9960073046875,25.69633007421875 Q 117.04010457031251,22.94025097265625 116.82513040039062,22.262255513671874 Q 116.61015623046875,21.5842600546875 115.651040703125,20.97792265234375 Q 117.44800427734376,20.64719316015625 118.385071171875,19.4896399375 Q 119.1347246875,19.886515328125 119.2449678515625,20.592071578125 Q 119.355211015625,21.297627828125 119.267016484375,25.1340899375 Q 122.44201960937501,22.708740328125003 123.19167312500001,21.6063086875 Q 123.94132664062501,20.503877046875 124.29410476562501,19.445542671875 Q 124.735077421875,20.062904390625 125.57292546875,20.547974312500003 Q 123.0152840625,23.458393843750002 120.98680984375,25.089992671875002 Q 122.2876791796875,27.68070702734375 123.19718528320313,29.0146493125 Q 124.10669138671875,30.348591597656252 125.60599841796875,30.954929 L 121.86875515625,30.954929 Q 120.66710466796876,28.56265233984375 119.22291921875001,26.412910640625 Z"/>
  </g>
</svg>
