<?xml version="1.0" ?>
<svg xmlns="http://www.w3.org/2000/svg" xmlns:ev="http://www.w3.org/2001/xml-events" xmlns:xlink="http://www.w3.org/1999/xlink" baseProfile="full" 
 width="100mm"
    height="100mm"
    viewBox="0 0 100 100"
    version="1.1"
    id="svg5"
  >
  <g
   transform="scale(10) translate(1 1)">
	
  <!-- inkscae result -->
  <path
    style="fill-opacity:0.5;font-size:10.5833px;line-height:1.25;font-family:Arial;-inkscape-font-specification:'Arial, Normal';stroke-width:0.01"
	  fill="#eeeeee" stroke="#000000"
    d="M -2.4214387e-8,7.5757408 V -3.9115548e-8 H 2.8421947 q 0.8681613,0 1.3900916,0.232543209115548 Q 4.7593842,0.45991874 5.053939,0.94050803 5.3536613,1.4159297 5.3536613,1.93786 q 0,0.4857569 -0.263549,0.9146699 -0.2635489,0.4289131 -0.7958145,0.692462 0.6872944,0.2015375 1.0541959,0.6872944 0.3720691,0.4857569 0.3720691,1.1472131 0,0.5322656 -0.2273756,0.9921844 Q 5.2709793,6.8264349 4.9402512,7.074481 4.6095231,7.3225271 4.1082633,7.4517178 3.6121711,7.5757408 2.8887033,7.5757408 Z M 1.0025196,3.1832581 h 1.6381377 q 0.6666238,0 0.9560109,-0.08785 0.3824044,-0.1136878 0.5736066,-0.3772368 0.1963698,-0.2635489 0.1963698,-0.6614562 0,-0.3772367 -0.1808669,-0.6614562 Q 4.0049107,1.1058721 3.669015,1.0025196 3.3331192,0.89399939 2.5166342,0.89399939 H 1.0025196 Z m 0,3.4984833 h 1.8861837 q 0.485757,0 0.6821268,-0.036173 0.346231,-0.062011 0.5787742,-0.2067051 0.2325432,-0.1446935 0.3824044,-0.4185777 0.1498611,-0.2790519 0.1498611,-0.6407858 0,-0.4237454 -0.2170403,-0.733803 Q 4.2477892,4.3304712 3.8602172,4.2064482 3.4778128,4.0772575 2.754345,4.0772575 H 1.0025196 Z"
    id="path10279" >
  </path>
  
   <!-- xm -->
  <path 
    style="fill-opacity:0.5;stroke-width:0.01"
    fill="#ff2222" stroke="#000000"
    d="M 0.0,7.57574111328125 L 0.0,0.0 L 2.84219482421875,0.0 Q 3.7103561523437496,0.0 4.234870288085937,0.2299593994140625 Q 4.759384423828124,0.459918798828125 5.056522973632812,0.9379242919921875 Q 5.353661523437499,1.41592978515625 5.353661523437499,1.9378601074218749 Q 5.353661523437499,2.423617041015625 5.090112548828125,2.8525300781249996 Q 4.82656357421875,3.281443115234375 4.294297998046875,3.54499208984375 Q 4.9815923828125,3.746529541015625 5.351077709960937,4.232286474609374 Q 5.7205630371093745,4.718043408203124 5.7205630371093745,5.379499658203125 Q 5.7205630371093745,5.911765234374999 5.495771264648438,6.369100219726562 Q 5.2709794921875,6.826435205078124 4.9402513671875,7.0744812988281245 Q 4.6095232421875,7.322527392578125 4.110847241210937,7.449134252929687 Q 3.6121712402343746,7.57574111328125 2.888703466796875,7.57574111328125 L 0.0,7.57574111328125 M 1.00251962890625,3.183258203125 L 2.6406573730468748,3.183258203125 Q 3.30728125,3.183258203125 3.5966683593749997,3.0954085449218747 Q 3.97907275390625,2.981720751953125 4.172858764648437,2.71817177734375 Q 4.366644775390625,2.454622802734375 4.366644775390625,2.05671552734375 Q 4.366644775390625,1.6794787597656249 4.185777832031249,1.3926754638671874 Q 4.0049108886718745,1.10587216796875 3.6690151367187496,0.9999358154296875 Q 3.3331193847656246,0.8939994628906249 2.5166343261718747,0.8939994628906249 L 1.00251962890625,0.8939994628906249 L 1.00251962890625,3.183258203125 M 1.00251962890625,6.681741650390625 L 2.888703466796875,6.681741650390625 Q 3.3744604003906247,6.681741650390625 3.570830224609375,6.64556826171875 Q 3.9170612304687498,6.58355673828125 4.149604443359375,6.4388631835937495 Q 4.38214765625,6.29416962890625 4.532008837890625,6.017701586914063 Q 4.6818700195312495,5.741233544921875 4.6818700195312495,5.379499658203125 Q 4.6818700195312495,4.955754248046874 4.4648296875,4.6431128173828125 Q 4.24778935546875,4.33047138671875 3.862801147460937,4.203864526367187 Q 3.4778129394531248,4.077257666015625 2.754345166015625,4.077257666015625 L 1.00251962890625,4.077257666015625 L 1.00251962890625,6.681741650390625">
</path>
  </g>
</svg>
