<?xml version="1.0" encoding="UTF-8" standalone="no"?>
            <svg xmlns="http://www.w3.org/2000/svg"
                width="100mm"
                height="100mm"
                viewBox="0 0 100 100"
                version="1.1">
                <path
                    transform="translate(-0.82 0) matrix(1,0, 0,-1, 0,7.5857) scale(0.0051677)"
                    style="fill:none;stroke:#000000;stroke-width:2;stroke-linecap:butt;stroke-linejoin:miter;stroke-miterlimit:4;stroke-opacity:1;stroke-dasharray:none;stroke-dashoffset:0"
                    d="M 150,0 L 150,1466 L 700,1466 Q 868,1466 969,1421 Q 1071,1377 1128,1284 Q 1186,1192 1186,1091 Q 1186,997 1135,914 Q 1084,831 981,780 Q 1114,741 1185,647 Q 1257,553 1257,425 Q 1257,322 1213,233 Q 1170,145 1106,97 Q 1042,49 945,24 Q 849,0 709,0 L 150,0 M 344,850 L 661,850 Q 790,850 846,867 Q 920,889 957,940 Q 995,991 995,1068 Q 995,1141 960,1196 Q 925,1252 860,1272 Q 795,1293 637,1293 L 344,1293 L 344,850 M 344,173 L 709,173 Q 803,173 841,180 Q 908,192 953,220 Q 998,248 1027,301 Q 1056,355 1056,425 Q 1056,507 1014,567 Q 972,628 897,652 Q 823,677 683,677 L 344,677 L 344,173"
                />
            </svg>