<?xml version="1.0" encoding="UTF-8" standalone="no"?>
<svg
   xmlns:svg="http://www.w3.org/2000/svg"
   xmlns="http://www.w3.org/2000/svg"
   width="400mm"
   height="400mm"
   viewBox="-200 -200 400 400"
   version="1.1"
   id="gear_hobbymat">
   <g>
     
            <path id="gear" style="fill:#cccccc;stroke:#000000;stroke-width:0.050000"
                d="  M  21.25 0.0      
          A 21.25 21.25 0 0 1 21.21404836326445 1.2355776143476114
          A 5.063 5.063 0 0 1 23.422206060920104 1.910566209215914
          L 23.34094264815397 2.7295414075604976 
          A 5.063 5.063 0 0 1 21.043196460758374 2.957428395401391
        
          A 21.25 21.25 0 0 1 20.835635534814564 4.175977952572641
          A 5.063 5.063 0 0 1 22.92836333768836 5.151713759027038
          L 22.73391145690609 5.951409065889712 
          A 5.063 5.063 0 0 1 20.42681103868928 5.8572938111112345
        
          A 21.25 21.25 0 0 1 20.051680760863654 7.035097630055361
          A 5.063 5.063 0 0 1 21.988246102715248 8.292589060506245
          L 21.684390538590534 9.057439316378858 
          A 5.063 5.063 0 0 1 19.412840974905276 8.643153665360757
        
          A 21.25 21.25 0 0 1 18.87744282935134 9.757287134474
          A 5.063 5.063 0 0 1 20.620152668612022 11.27205854860295
          L 20.212807624069967 11.987176813259211 
          A 5.063 5.063 0 0 1 18.021022043324052 11.26078436495561
        
          A 21.25 21.25 0 0 1 17.335776945938655 12.289562143569718
          A 5.063 5.063 0 0 1 18.850711417890274 14.032130238827653
          L 18.347805400874776 14.683597548681 
          A 5.063 5.063 0 0 1 16.278444416278283 13.659236705838966
        
          A 21.25 21.25 0 0 1 15.456689883427284 14.582634804710594
          A 5.063 5.063 0 0 1 16.714362511785723 16.519082475265154
          L 16.125684015870867 17.09421876016237 
          A 5.063 5.063 0 0 1 14.219025385125738 15.791827541394634
        
          A 21.25 21.25 0 0 1 13.276755934059153 16.591873066879014
          A 5.063 5.063 0 0 1 14.252687551694825 18.68450956149943
          L 13.589694534191732 19.17212044786282 
          A 5.063 5.063 0 0 1 11.882849198753373 17.61704841679464
        
          A 21.25 21.25 0 0 1 10.838405032520601 18.278169392776515
          A 5.063 5.063 0 0 1 11.513600240601988 20.486263922433736
          L 10.789197106452974 20.876858619009397 
          A 5.063 5.063 0 0 1 9.315386869267897 19.099373483857303
        
          A 21.25 21.25 0 0 1 8.189096905527027 19.608701942553154
          A 5.063 5.063 0 0 1 8.550413797351993 21.889276458897697
          L 7.778700229566917 22.17525248421167 
          A 5.063 5.063 0 0 1 6.566611130467633 20.209950971272015
        
          A 21.25 21.25 0 0 1 5.3803973222270365 20.557573413585857
          A 5.063 5.063 0 0 1 5.420803275488082 22.866239127772143
          L 4.616799800852708 23.042030283784595 
          A 5.063 5.063 0 0 1 3.690023775422271 20.927164751509423
        
          A 21.25 21.25 0 0 1 2.466974425161143 21.10631510201629
          A 5.063 5.063 0 0 1 2.1856829839391314 23.398136461986006
          L 1.3650386155468397 23.460321173804633 
          A 5.063 5.063 0 0 1 0.7416143049281466 21.237055074155787
        
          A 21.25 21.25 0 0 1 -0.49446532294869605 21.24424637506356
          A 5.063 5.063 0 0 1 -1.0919791407146504 23.47461568495306
          L -1.9132914937022376 23.42198359789638 
          A 5.063 5.063 0 0 1 -2.221229844437636 21.133590276575816
        
          A 21.25 21.25 0 0 1 -3.446280865993308 20.968682557392313
          A 5.063 5.063 0 0 1 -4.348387133502285 23.09418821559208
          L -5.154381560363219 22.927763753366527 
          A 5.063 5.063 0 0 1 -5.14084028149294 20.61878418336493
        
          A 21.25 21.25 0 0 1 -6.331018472067743 20.284987185264306
          A 5.063 5.063 0 0 1 -7.52015871695335 22.264258641864338
          L -8.295147452973856 21.98728106732212 
          A 5.063 5.063 0 0 1 -7.960390110088133 19.70265690954424
        
          A 21.25 21.25 0 0 1 -9.092530005010156 19.206467611406065
          A 5.063 5.063 0 0 1 -10.545558965032676 21.000980598891545
          L -11.274457736002732 20.618840965463804 
          A 5.063 5.063 0 0 1 -10.625000000000002 18.40303983041932
        
          A 21.25 21.25 0 0 1 -11.67706578400463 17.7541159925249
          A 5.063 5.063 0 0 1 -13.365701903253171 19.328942356822697
          L -14.034323523705913 18.849078577796714 
          A 5.063 5.063 0 0 1 -13.082806350670245 16.74522851414284
        
          A 21.25 21.25 0 0 1 -14.034320759978918 15.956200700856856
          A 5.063 5.063 0 0 1 -15.92569665718742 17.28068823812436
          L -16.521027167826553 16.712440316121913 
          A 5.063 5.063 0 0 1 -15.285970757196342 14.761490372253693
        
          A 21.25 21.25 0 0 1 -16.11841364616347 13.847716112455922
          A 5.063 5.063 0 0 1 -18.175715840900967 14.896085179362457
          L -18.686167810515318 14.250513413812897 
          A 5.063 5.063 0 0 1 -17.191611130467635 12.490436611215053
        
          A 21.25 21.25 0 0 1 -17.888779945149224 11.469701481469645
          A 5.063 5.063 0 0 1 -20.071965390341713 12.221546766630016
          L -20.487603451973253 11.511216477622765 
          A 5.063 5.063 0 0 1 -18.7626363482522 9.976270709200177
        
          A 21.25 21.25 0 0 1 -19.310961490688243 8.868442157738627
          A 5.063 5.063 0 0 1 -21.577536964981682 9.309129847888524
          L -21.890271196542038 8.54786680651038 
          A 5.063 5.063 0 0 1 -19.968468191700552 7.267928045670457
        
          A 21.25 21.25 0 0 1 -20.357277136704138 6.094568695110665
          A 5.063 5.063 0 0 1 -22.663126326682804 6.215521305636136
          L -22.86686971208457 5.418142631063648 
          A 5.063 5.063 0 0 1 -20.785636515593367 4.418123429877382
        
          A 21.25 21.25 0 0 1 -21.007361539313617 3.2020713853015126
          A 5.063 5.063 0 0 1 -23.30760371335915 3.000934711220237
          L -23.398390619360146 2.1829604723491616 
          A 5.063 5.063 0 0 1 -21.198236068021263 1.4823250670626595
        
          A 21.25 21.25 0 0 1 -21.248561545079944 0.2472493982796835
          A 5.063 5.063 0 0 1 -23.49842510576124 -0.2720616638369234
          L -23.47448846850473 -1.0947105288788679 
          A 5.063 5.063 0 0 1 -21.19823606802126 -1.4823250670626653
        
          A 21.25 21.25 0 0 1 -21.076182470251805 -2.7123850170376373
          A 5.063 5.063 0 0 1 -23.23187638254207 -3.5397626680730534
          L -23.09368210144473 -4.351074234877039 
          A 5.063 5.063 0 0 1 -20.78563651559336 -4.4181234298773875
        
          A 21.25 21.25 0 0 1 -20.49357947744244 -5.619225943290548
          A 5.063 5.063 0 0 1 -22.513145611404433 -6.738566218395497
          L -22.263383480954165 -7.522749230166915 
          A 5.063 5.063 0 0 1 -19.968468191700545 -7.267928045670461
        
          A 21.25 21.25 0 0 1 -19.512092271205812 -8.416695028332082
          A 5.063 5.063 0 0 1 -21.35622206926438 -9.80621124228234
          L -20.999753425230182 -10.548002468692012 
          A 5.063 5.063 0 0 1 -18.762636348252187 -9.976270709200175
        
          A 21.25 21.25 0 0 1 -18.150824383586155 -11.050342718495823
          A 5.063 5.063 0 0 1 -19.78362395688865 -12.682989518738115
          L -19.327387055949572 -13.367950837338993 
          A 5.063 5.063 0 0 1 -17.19161113046762 -12.49043661121505
        
          A 21.25 21.25 0 0 1 -16.436271345596722 -13.468908057222587
          A 5.063 5.063 0 0 1 -17.825960107730793 -15.312907830898403
          L -17.278835082201834 -15.927707248755874 
          A 5.063 5.063 0 0 1 -15.285970757196322 -14.761490372253686
        
          A 21.25 21.25 0 0 1 -14.401804981846798 -15.62531642127135
          A 5.063 5.063 0 0 1 -15.521334221805047 -17.64477781030475
          L -14.893970237962636 -18.17744895607419 
          A 5.063 5.063 0 0 1 -13.082806350670229 -16.745228514142838
        
          A 21.25 21.25 0 0 1 -12.08702386593559 -17.477595774714068
          A 5.063 5.063 0 0 1 -12.914603220507864 -19.633212260270795
          L -12.219211204681537 -20.07338729600425 
          A 5.063 5.063 0 0 1 -10.624999999999991 -18.403039830419317
        
          A 21.25 21.25 0 0 1 -9.536982579259814 -18.989693606872507
          A 5.063 5.063 0 0 1 -10.056504157666927 -21.239508566038612
          L -9.30661912444805 -21.57861998535721 
          A 5.063 5.063 0 0 1 -7.960390110088123 -19.70265690954423
        
          A 21.25 21.25 0 0 1 -6.801314774835638 -20.132178653429495
          A 5.063 5.063 0 0 1 -7.002666680500933 -22.43240199715139
          L -6.212884289079531 -22.66384938201162 
          A 5.063 5.063 0 0 1 -5.140840281492933 -20.618784183364923
        
          A 21.25 21.25 0 0 1 -3.933267114700179 -20.882813742511278
          A 5.063 5.063 0 0 1 -3.812530261814278 -23.188674239868696
          L -2.9982227280752105 -23.307952730191747 
          A 5.063 5.063 0 0 1 -2.2212298444376306 -21.133590276575802
        
          A 21.25 21.25 0 0 1 -0.988662884202111 -21.22698861594364
          A 5.063 5.063 0 0 1 -0.5481872782703041 -23.49360531523296
          L 0.2747958279032876 -23.49839329088197 
          A 5.063 5.063 0 0 1 0.7416143049281504 -21.23705507415578
        
          A 21.25 21.25 0 0 1 1.975184544749589 -21.15800430130834
          A 5.063 5.063 0 0 1 2.7268255470914147 -23.34126008671617
          L 3.54246579566727 -23.23146435519137 
          A 5.063 5.063 0 0 1 3.690023775422273 -20.92716475150942
        
          A 21.25 21.25 0 0 1 4.900587253276857 -20.677203499821253
          A 5.063 5.063 0 0 1 5.948763814897085 -22.73460378090128
          L 6.741185696213707 -22.51236139122601 
          A 5.063 5.063 0 0 1 6.566611130467635 -20.209950971272004
        
          A 21.25 21.25 0 0 1 7.73060560525447 -19.793944452180515
          A 5.063 5.063 0 0 1 9.054916161664332 -21.685444272719657
          L 9.808696085168421 -21.35508092021197 
          A 5.063 5.063 0 0 1 9.315386869267895 -19.099373483857292
        
          A 21.25 21.25 0 0 1 10.410156512559347 -18.525418791056193
          A 5.063 5.063 0 0 1 11.984824865159256 -20.214202258596803
          L 12.685291362051762 -19.782148090130523 
          A 5.063 5.063 0 0 1 11.882849198753371 -17.61704841679463
        
          A 21.25 21.25 0 0 1 12.887085564724785 -16.89631692551551
          A 5.063 5.063 0 0 1 14.681462585190085 -18.349513790824638
          L 15.314981871877825 -17.824178249334626 
          A 5.063 5.063 0 0 1 14.219025385125738 -15.791827541394627
        
          A 21.25 21.25 0 0 1 15.113182155215416 -14.938347470295309
          A 5.063 5.063 0 0 1 17.09234233591636 -16.127672909376642
          L 17.646583680101465 -15.519281053617679 
          A 5.063 5.063 0 0 1 16.278444416278283 -13.659236705838959
        
          A 21.25 21.25 0 0 1 17.04511784604468 -12.689620073684203
          A 5.063 5.063 0 0 1 19.17053908532526 -13.591925219703661
          L 19.634714809683352 -12.912318705112616 
          A 5.063 5.063 0 0 1 18.02102204332405 -11.260784364955603
        
          A 21.25 21.25 0 0 1 18.64528970653486 -10.19390365656773
          A 5.063 5.063 0 0 1 20.87560309760331 -10.791626166214938
          L 21.240678549651822 -10.054032760557373 
          A 5.063 5.063 0 0 1 19.41284097490527 -8.643153665360755
        
          A 21.25 21.25 0 0 1 19.882552211590042 -7.499774500169714
          A 5.063 5.063 0 0 1 22.174347241233093 -7.7812803846936625
          L 22.433216642565068 -7.000056504610639 
          A 5.063 5.063 0 0 1 20.426811038689277 -5.857293811111233
        
          A 21.25 21.25 0 0 1 20.732823453914552 -4.6596707639929456
          A 5.063 5.063 0 0 1 23.041492938758406 -4.619480831559575
          L 23.1891176909365 -3.809832111247917 
          A 5.063 5.063 0 0 1 21.043196460758367 -2.9574283954013914
        
          A 21.25 21.25 0 0 1 21.179553870945753 -1.7288718366919893
          A 5.063 5.063 0 0 1 23.46016218554055 -1.367768338620745
          L 23.493668940684284 -0.545453669459549 
          A 5.063 5.063 0 0 1 21.250000000000004 -8.031400603671345e-16
        
         z"
            />
        
     
        <circle id="reinforcement" style="fill:#ff0000;stroke:#000000;stroke-width:0.050000"
            cx="0" cy="0" r="15"
        />
        
     
        <path id="bearing" style="fill:#ffcccc;stroke:#000000;stroke-width:0.050000"
            d="M 1.961161351381842 9.8058067569092 A 10 10 0 1 0 -1.9611613513818411 9.8058067569092
              L -1.9611613513818411 11.8058067569092  1.961161351381842 11.8058067569092  1.961161351381842 9.8058067569092"
        />
        
   </g>
</svg>
