<?xml version="1.0" encoding="UTF-8" standalone="no"?>
<svg
  width="110mm"
  height="110mm"
  viewBox="0 0 110 110"
  version="1.1"
  id="horozontal-sides"
  xmlns="http://www.w3.org/2000/svg"
  xmlns:svg="http://www.w3.org/2000/svg"
>
  <defs id="defs">
    <circle id="h_screw_central_hole"
      style="font-variation-settings:normal;vector-effect:none;fill:#ff0000;fill-opacity:1;fill-rule:evenodd;stroke-width:0.352776;stroke-linecap:butt;stroke-linejoin:miter;stroke-miterlimit:4;stroke-dasharray:none;stroke-dashoffset:0;stroke-opacity:1;stop-color:#000000"
      cx="0"
      cy="0"
      r="8" />

	  <circle id="spacer_hole"
      style="font-variation-settings:normal;vector-effect:none;fill:#ff0000;fill-opacity:1;fill-rule:evenodd;stroke-width:0.211666;stroke-linecap:butt;stroke-linejoin:miter;stroke-miterlimit:4;stroke-dasharray:none;stroke-dashoffset:0;stroke-opacity:1;stop-color:#000000"
      cx="0"
      cy="0"
      r="6" />
  
    <circle id="spacer_screw_5.0mm"
      style="font-variation-settings:normal;vector-effect:none;fill:#0000ff;fill-opacity:1;fill-rule:evenodd;stroke-width:0.314309;stroke-linecap:butt;stroke-linejoin:miter;stroke-miterlimit:4;stroke-dasharray:none;stroke-dashoffset:0;stroke-opacity:1;stop-color:#000000"
      cx="0"
      cy="0"
      r="2.5" />

    <circle id="spacer_screw_hole_10.0mm"
      style="font-variation-settings:normal;vector-effect:none;fill:#ff00ff;fill-opacity:1;fill-rule:evenodd;stroke-width:0.314309;stroke-linecap:butt;stroke-linejoin:miter;stroke-miterlimit:4;stroke-dasharray:none;stroke-dashoffset:0;stroke-opacity:1;stop-color:#000000"
      cx="0"
      cy="0"
      r="5.0" />

    <circle id="motor_screw_2.0mm"
      style="font-variation-settings:normal;vector-effect:none;fill:#00ffff;fill-opacity:1;fill-rule:evenodd;stroke-width:0.314309;stroke-linecap:butt;stroke-linejoin:miter;stroke-miterlimit:4;stroke-dasharray:none;stroke-dashoffset:0;stroke-opacity:1;stop-color:#000000"
      cx="0"
      cy="0"
      r="1.0" />

    <circle id="motor_screw_hole_4.0mm"
      style="opacity:0.5;font-variation-settings:normal;vector-effect:none;fill:#00ffff;fill-opacity:1;fill-rule:evenodd;stroke-width:0.314309;stroke-linecap:butt;stroke-linejoin:miter;stroke-miterlimit:4;stroke-dasharray:none;stroke-dashoffset:0;stroke-opacity:1;stop-color:#000000"
      cx="0"
      cy="0"
      r="2.0" />

    <rect id="plate_1" x="0" y="0" rx="4" ry="4" width="74" height="84" style="fill:rgb(123,125,125);opacity:0.5;stroke-width:0;stroke:rgb(0,0,0)" />
    <rect id="plate_2" x="7" y="0" rx="4" ry="4" width="60" height="34" style="fill:rgb(100,100,100);opacity:0.5;stroke-width:0;stroke:rgb(0,0,0)" />
     
    <path id="arrow_up" style="fill:none; stroke:#000000;stroke-width:0.144059px;stroke-opacity:1" d="M 0 0 l 1 2  m -1 -2 l -1 2"  />
    <path id="arrow_dw" style="fill:none; stroke:#000000;stroke-width:0.144059px;stroke-opacity:1" d="M 0 0 l 1 -2 m -1 2  l -1 -2" />

  </defs>
  
  <g id="layer">
     
    <path id="contour" style="fill:rgb(0,125,125);stroke:#0000ff;stroke-width:0.261315px;stroke-linecap:butt;stroke-linejoin:miter;stroke-opacity:1"
      d="M 11,0          h 52  
      a 4,4 0 0 1 4,4    v 26  
      C 67 34 74 34  74 38  v 42
      a 4,4 0 0 1 -4,4   h -66
      a 4,4 0 0 1 -4,-4  v -42
      C 0 34 7 34  7 30  v -26
      a 4,4 0 0 1 4,-4   z" />

    <!--
    <use href="#plate_1" />
    <use href="#plate_2" />
    -->

    <rect id="motor_base" x="16" y="42" rx="4" ry="4" width="42" height="42" style="fill:rgb(0,0,0);opacity:0.4;stroke-width:0;stroke:rgb(0,0,0)" />
      
    <use href="#motor_screw_2.0mm" transform="translate(20 80)" id="motor_screw_2.0mm_NW" />
    <use href="#motor_screw_2.0mm" transform="translate(54 80)" id="motor_screw_2.0mm_NE" />
    <use href="#motor_screw_2.0mm" transform="translate(20 46)" id="motor_screw_2.0mm_NW" />
    <use href="#motor_screw_2.0mm" transform="translate(54 46)" id="motor_screw_2.0mm_NE" />

    <use href="#motor_screw_hole_4.0mm" transform="translate(20 80)" id="motor_screw_hole_4.0mm_NW" />
    <use href="#motor_screw_hole_4.0mm" transform="translate(54 80)" id="motor_screw_hole_4.0mm_NE" />
    <use href="#motor_screw_hole_4.0mm" transform="translate(20 46)" id="motor_screw_hole_4.0mm_NW" />
    <use href="#motor_screw_hole_4.0mm" transform="translate(54 46)" id="motor_screw_hole_4.0mm_NE" />
     
    <use href="#h_screw_central_hole" x="37"  y="63"  id="screw_central_hole" />

    <use href="#spacer_hole" transform="translate(8  63)" id="spacer_hole_L" />
    <use href="#spacer_hole" transform="translate(66 63)" id="spacer_hole_R" />

    <use href="#spacer_screw_hole_10.0mm" transform="translate(8  63)" id="#spacer_screw_hole_10.0mm_L1" />
    <use href="#spacer_screw_hole_10.0mm" transform="translate(66 63)" id="#spacer_screw_hole_10.0mm_R1" />
      
    <use href="#spacer_screw_5.0mm" transform="translate(8  63)" id="spacer_screw_5.0mm_L1" />
    <use href="#spacer_screw_5.0mm" transform="translate(66 63)" id="spacer_screw_5.0mm_R1" />

    <!--   screws on vertical alu profile -->
    <use href="#spacer_screw_hole_10.0mm" transform="translate(27  36)" id="#spacer_screw_hole_10.0mm_L2" />
    <use href="#spacer_screw_hole_10.0mm" transform="translate(47  36)" id="#spacer_screw_hole_10.0mm_R2" />

    <use href="#spacer_screw_5.0mm" transform="translate(27 36)" id="spacer_screw_5.0mm_L2" />
    <use href="#spacer_screw_5.0mm" transform="translate(47 36)" id="spacer_screw_5.0mm_R2" />
      
    <!-- some arrows to display distances -->

    <path id="line_h_36" style="stroke:#000000;stroke-width:0.144059px;stroke-opacity:1" d="M 0,36  84,36" />
    <path id="line_h_63" style="stroke:#000000;stroke-width:0.144059px;stroke-opacity:1" d="M 0,63  84,63" />
    <path id="line_h_84" style="stroke:#000000;stroke-width:0.144059px;stroke-opacity:1" d="M 0,84  84,84" />
      
    <!-- vertical lines -->
    <path id="line_v_37"      style="stroke:#000000;stroke-width:0.144059px;stroke-opacity:1"        d="M 37,0  37,84" />

    <path id="arrow_v_dist36" style="fill:none; stroke:#000000;stroke-width:0.144059px;stroke-opacity:1" d="M 84,0  L 84,36" />
    
    <use href="#arrow_up" transform="translate(84 0)" />
    <use href="#arrow_dw" transform="translate(84 36)" />
    <text x="85" y="20" xml:space="preserve" style="font-size:5px">36</text>

    <path id="arrowe_v_dist36" style="fill:none; stroke:#000000;stroke-width:0.144059px;stroke-opacity:1" d="M 84,36  L 84,63" />
    <use href="#arrow_up" transform="translate(84 36)" />
    <use href="#arrow_dw" transform="translate(84 63)" />
    <text x="85" y="52" xml:space="preserve" style="font-size:5px">27</text>

    <path id="arrowe_v_dist36" style="fill:none; stroke:#000000;stroke-width:0.144059px;stroke-opacity:1" d="M 84,63  L 84,84" />
    <use href="#arrow_up" transform="translate(84 63)" />
    <use href="#arrow_dw" transform="translate(84 84)" />
    <text x="85" y="75" xml:space="preserve" style="font-size:5px">21</text>

    <path id="arrowe_v_dist84" style="fill:none; stroke:#000000;stroke-width:0.144059px;stroke-opacity:1" d="M 94,0  L 94,84" />
    <use href="#arrow_up" transform="translate(94 0)" />
    <use href="#arrow_dw" transform="translate(94 84)" />
    <text x="95" y="46" xml:space="preserve" style="font-size:5px">84</text>
  </g>
</svg>
