<?xml version="1.0" standalone="no"?>
<svg id="cnc1310-vise" width="160mm" height="140mm" viewBox="0 0 160 140" version="1.1" xmlns="http://www.w3.org/2000/svg" xmlns:svg="http://www.w3.org/2000/svg">
	<defs>
	  <circle id="plate_screw_pocket" x="0" y="0" r="5.0" fill="red" />
	  <circle id="plate_screw"        x="0" y="0" r="2.5" fill="black" />
	  
	  <circle id="lead_screw_jaw_screw" x="0" y="0" r="2.5" fill="cyan" />
	  
	</defs>
	
	
	<!-- work piece: h_max = 100 - (12*2) - 16 = 60 mm - try to do 70 mm ...
	                 w_max = 160 - (20*2) = 120 mm
	-->  
	<g id="plate_layer">
		<rect id="plate" x="0" y="0" rx="1.0" ry="1.0" width="150" height="100" fill="#dddddd" />
	
        <rect id="bar_front" x="0" y="0"  rx="1.0" ry="1.0" width="150" height="12" fill="black" />
	    <rect id="bar_back"  x="0" y="88" rx="1.0" ry="1.0" width="150" height="12" fill="black" />
	  
		<use href="#plate_screw_pocket" id="plate_screw_pocket_1" x="20" y="30" />
		<use href="#plate_screw" id="plate_screw_1" x="20" y="30" />
			
		<use href="#plate_screw_pocket" id="plate_screw_pocket_2" x="20" y="70" />
		<use href="#plate_screw" id="plate_screw_2" x="20" y="70" />
			
			
		<use href="#plate_screw_pocket" id="plate_screw_pocket_3" x="130" y="70" />
		<use href="#plate_screw"        id="plate_screw_3" x="130" y="70" />
			
		<use href="#plate_screw_pocket" id="plate_screw_pocket_4" x="130" y="30" />
		<use href="#plate_screw"        id="plate_screw_4" x="130" y="30" />
	</g>
	<g id="screws_bars"> 
	  <use href="#plate_screw_pocket"   id="bar_screw_pocket_11" x="20" y="6" />
	  <use href="#plate_screw" id="bar_screw_11" x="20" y="6" />
		  
	  <use href="#plate_screw_pocket" id="bar_screw_pocket_12" x="130" y="6" />
	  <use href="#plate_screw" id="bar_screw_12" x="130" y="6" />
		  
		  
	  <use href="#plate_screw_pocket" id="bar_screw_pocket_21" x="20" y="94" />
	  <use href="#plate_screw" id="bar_screw_21" x="20" y="94" />
		  
	  <use href="#plate_screw_pocket" id="bar_screw_pocket_22" x="130" y="94" />
	  <use href="#plate_screw" id="bar_screw_22" x="130" y="94" /> 
	</g> 
		
	<g id="shafts">
	  <line id="shaft_left"  x1="10"  y1="0" x2="10"  y2="100" style="stroke:rgb(160, 160, 160);stroke-width:6" />
	  <line id="shaft_right" x1="140" y1="0" x2="140" y2="100" style="stroke:rgb(160, 160, 160);stroke-width:6" />
	</g>
		
	<g>
	   <rect id="jaw"       x="0" y="50" rx="1.0" ry="1.0" width="150" height="16" fill="red" />
       <rect id="jwa_hole"  x="68" y="52" rx="0" ry="0" width="14" height="14" fill="black" />			   
	   <line id="lead_screw"  x1="75"  y1="60" x2="75"  y2="160" style="stroke:rgb(100, 100, 100);stroke-width:8" />
	   <rect id="lead_screw_blocker"  x="64" y="100" rx="0" ry="0" width="22" height="3" fill="blue" />	
	
	   <rect id="lead_screw_blocker1_in_jaw"  x="68" y="52" rx="0" ry="0" width="14" height="4" fill="blue" />	
	   <path id="lead_screw_blocker2_in_jaw"  d="M 68,56 h 14 v 1 l-4,4 l 4,4 v 1 h -14 v -1  l4,-4 l -4,-4 v-1 z" fill="green" />
 	
	     </g>

    <g id="layer1">
        <use href="#lead_screw_jaw_screw"      x="68" y="61"  />
		<use href="#lead_screw_jaw_screw"      x="82" y="61"  />
    
    </g>	
	
</svg>
