<?xml version="1.0" encoding="UTF-8" standalone="no"?>
<svg version="1.1" width="100mm" height="100mm" viewBox="0 0 100 100" id="unitmat-dc-motor" xmlns="http://www.w3.org/2000/svg" xmlns:svg="http://www.w3.org/2000/svg">

  <defs id="defs">
    <circle id="holder_screw_4.1mm"   style="fill:#00ffff;fill-opacity:1.0"  cx="0" cy="0" r="2.05" />
    <circle id="motor_screw_5.0mm"    style="fill:#ff00ff;fill-opacity:1.0"  cx="0" cy="0" r="2.5" />

    <path id="arc" style="fill:none;stroke-width:0.1;stroke:black"
    d="M 44.25 0 C 44.25 -6 37 -2 34.435255707205286 -9.226898957904863 A 35.65 35.65 0 0 0 9.226898957904863 -34.435255707205286 C 2 -37 6 -44.25 0 -44.25" />

  </defs>
    
  <g id="root" transform="translate(50 50)">	
	<!-- dc motor -->
      <!-- <circle id="outer_circle" cx="0" cy="0" r="44.3" style="fill:#0000ff;fill-opacity:0.1"/> -->
	  <!-- <circle id="inner_circle" cx="0" cy="0" r="35.75"/>  -->
	  <circle id="inner_plate" cx="0" cy="0" r="25" style="fill:#ff0000;fill-opacity:1.0"/>
      <circle id="hole" cx="0" cy="0" r="14" style="fill:#0000ff;fill-opacity:1.0"/>
      <use href="#motor_screw_5.0mm" transform="translate(0  32.5)" id="motor_screw_5.0mm_E" />
      <use href="#motor_screw_5.0mm" transform="translate(0 -32.5)" id="motor_screw_5.0mm_W" />
      <use href="#motor_screw_5.0mm" transform="translate(32.5  0)" id="motor_screw_5.0mm_N" />
      <use href="#motor_screw_5.0mm" transform="translate(-32.5 0)" id="motor_screw_5.0mm_S" /> 
      <use href="#holder_screw_4.1mm" transform="rotate(-45) translate(0  -20.5)" id="holder_screw_4.1mm_NW" />
      <use href="#holder_screw_4.1mm" transform="rotate(135) translate(0  -20.5)" id="holder_screw_4.1mm_SE" />
      <!-- <path id="c0" style="fill:none;stroke:#ff0000;stroke-width:0.2" d=" M 35.75 0 A 1 1 0 0 0 -35.75 0 A 1 1 0 0 0 35.753 0.0 z" /> -->
      <path id="contour" style="fill:none;stroke:#00ff00;stroke-width:0.2" d="M -34.592 -9.008 C -37 -2 -44.283 -5.94 -44.315 -0.007 C -44.327 5.979 -37 2 -34.603 8.997 A 35.76 35.75 0 0 0 -9.008 34.61 C -1.996 37.011 -5.968 44.289 0.038 44.303 C 5.994 44.33 1.989 37.011 9 34.616 A 35.75 35.75 0 0 0 34.601 9.004 C 37 2 44.338 5.92 44.319 0.028 C 44.381 -5.993 37 -2 34.6 -9.001 A 35.75 35.75 0 0 0 8.996 -34.594 C 2 -37 5.99 -44.291 0 -44.277 C -5.989 -44.357 -2 -37 -9.001 -34.597 A 35.75 35.75 0 0 0 -34.592 -9.008 Z"/>
	    <path id="contour2" style="fill:none;stroke:red;stroke-width:0.1"  d="M 44.25 0 C 44.25 -6 37 -2 34.4353 -9.2269 A 35.65 35.65 0 0 0 9.2269 -34.4353 C 2 -37 6 -44.25 0 -44.25 C -6 -44.25 -2 -37 -9.2269 -34.4353 A 35.65 35.65 0 0 0 -34.4353 -9.2269 C -37 -2 -44.25 -6 -44.25 0 C -44.25 6 -37 2 -34.4353 9.2269 A 35.65 35.65 0 0 0 -9.2269 34.4353 C -2 37 -5.963 44.25 0 44.25 C 6 44.25 2 37 9.2269 34.4353 A 35.65 35.65 0 0 0 34.4353 9.2269 C 37 2 44.25 6 44.25 0"/>
 
  </g>
</svg>
