<svg xmlns="http://www.w3.org/2000/svg" xmlns:svg="http://www.w3.org/2000/svg" version="1.1" width="100mm" height="100mm" viewBox="0 0 100 100" id="unitmat-dc-motor">
  <g id="root">
    <!-- dc motor -->
    <!-- <circle id="outer_circle" cx="0" cy="0" r="44.3" style="fill:#0000ff;fill-opacity:0.1"/> -->
    <!-- <circle id="inner_circle" cx="0" cy="0" r="35.75"/>  -->
    <circle id="inner_plate" cx="50.000" cy="50.000" r="25.000" style="fill:#ff0000;fill-opacity:1.0"/>
    <circle id="hole" cx="50.000" cy="50.000" r="14.000" style="fill:#0000ff;fill-opacity:1.0"/>
    <circle id="motor_screw_5.0mm_E" cx="50.000" cy="82.500" r="2.500" style="fill:#ff00ff;fill-opacity:1.0"/>
    <circle id="motor_screw_5.0mm_W" cx="50.000" cy="17.500" r="2.500" style="fill:#ff00ff;fill-opacity:1.0"/>
    <circle id="motor_screw_5.0mm_N" cx="82.500" cy="50.000" r="2.500" style="fill:#ff00ff;fill-opacity:1.0"/>
    <circle id="motor_screw_5.0mm_S" cx="17.500" cy="50.000" r="2.500" style="fill:#ff00ff;fill-opacity:1.0"/>
    <circle id="holder_screw_4.1mm_NW" cx="35.504" cy="35.504" r="2.00" style="fill:#00ffff;fill-opacity:1.0"/>
    <circle id="holder_screw_4.1mm_SE" cx="64.496" cy="64.496" r="2.00" style="fill:#00ffff;fill-opacity:1.0"/>
    <!-- <path id="c0" style="fill:none;stroke:#ff0000;stroke-width:0.2" d=" M 35.75 0 A 1 1 0 0 0 -35.75 0 A 1 1 0 0 0 35.753 0.0 z" /> -->
    <path id="contour" d="M 15.4080083203,40.9920221357 C 13.00000702,48.00002592 5.71700308718,44.0600237924 5.6850030699,49.9930269962 C 5.67300306342,55.9790302287 13.00000702,52.00002808 15.3970083144,58.9970318584 A 35.76,35.75 0 0,0 40.9920221357,84.6100456894 C 48.0040259222,87.0110469859 44.0320237773,94.2890509161 50.0380270205,94.3030509236 C 55.9940302368,94.3300509382 51.9890280741,87.0110469859 59.00003186,84.6160456926 A 35.75,35.75 0 0,0 84.6010456845,59.0040318622 C 87.00004698,52.00002808 94.3380509425,55.9200301968 94.3190509323,50.0280270151 C 94.3810509657,44.0070237638 87.00004698,48.00002592 84.600045684,40.9990221395 A 35.75,35.75 0 0,0 58.9960318578,15.4060083192 C 52.00002808,13.00000702 55.9900302346,5.70900308286 50.000027,5.72300309042 C 44.0110237659,5.64300304722 48.00002592,13.00000702 40.9990221395,15.4030083176 A 35.75,35.75 0 0,0 15.4080083203,40.9920221357 Z" style="fill:none;stroke:#00ff00;stroke-width:0.2"/>
  </g>
</svg>
