<svg xmlns="http://www.w3.org/2000/svg" xmlns:svg="http://www.w3.org/2000/svg" version="1.1" width="100mm" height="100mm" viewBox="0 0 100 100" id="unitmat-dc-motor">
  <defs id="defs">
    <circle id="holder_screw_4.1mm" style="fill:#00ffff;fill-opacity:1.0" cx="0" cy="0" r="2.05"/>
    <circle id="motor_screw_5.0mm" style="fill:#ff00ff;fill-opacity:1.0" cx="0" cy="0" r="2.5"/>
  </defs>
  <g id="root">
    <!-- dc motor -->
    <!-- <circle id="outer_circle" cx="0" cy="0" r="44.3" style="fill:#0000ff;fill-opacity:0.1"/> -->
    <!-- <circle id="inner_circle" cx="0" cy="0" r="35.75"/>  -->
    <circle id="inner_plate" cx="50.000" cy="50.000" r="25.000" style="fill:#ff0000;fill-opacity:1.0"/>
    <circle id="hole" cx="50.000" cy="50.000" r="14.000" style="fill:#0000ff;fill-opacity:1.0"/>
    <circle id="motor_screw_5.0mm_E" cx="50.000" cy="82.500" r="2.500" style="fill:#ff00ff;fill-opacity:1.0"/>
    <circle id="motor_screw_5.0mm_W" cx="50.000" cy="17.500" r="2.500" style="fill:#ff00ff;fill-opacity:1.0"/>
    <circle id="motor_screw_5.0mm_N" cx="82.500" cy="50.000" r="2.500" style="fill:#ff00ff;fill-opacity:1.0"/>
    <circle id="motor_screw_5.0mm_S" cx="17.500" cy="50.000" r="2.500" style="fill:#ff00ff;fill-opacity:1.0"/>
    <circle id="holder_screw_4.1mm_NW" cx="35.504" cy="35.504" r="2.050" style="fill:#00ffff;fill-opacity:1.0"/>
    <circle id="holder_screw_4.1mm_SE" cx="64.496" cy="64.496" r="2.050" style="fill:#00ffff;fill-opacity:1.0"/>
    <!-- <path id="c0" style="fill:none;stroke:#ff0000;stroke-width:0.2" d=" M 35.75 0 A 1 1 0 0 0 -35.75 0 A 1 1 0 0 0 35.753 0.0 z" /> -->
    <path id="contour2" d="M 94.250050895,50.000027 C 94.250050895,44.00002376 87.00004698,48.00002592 84.4353455951,40.7731220175 A 35.65,35.65 0 0,0 59.2269319825,15.5647084049 C 52.00002808,13.00000702 56.00003024,5.750003105 50.000027,5.750003105 C 44.00002376,5.750003105 48.00002592,13.00000702 40.7731220175,15.5647084049 A 35.65,35.65 0 0,0 15.5647084049,40.7731220175 C 13.00000702,48.00002592 5.750003105,44.00002376 5.750003105,50.000027 C 5.750003105,56.00003024 13.00000702,52.00002808 15.5647084049,59.2269319825 A 35.65,35.65 0 0,0 40.7731220175,84.4353455951 C 48.00002592,87.00004698 44.03702378,94.250050895 50.000027,94.250050895 C 56.00003024,94.250050895 52.00002808,87.00004698 59.2269319825,84.4353455951 A 35.65,35.65 0 0,0 84.4353455951,59.2269319825 C 87.00004698,52.00002808 94.250050895,56.00003024 94.250050895,50.000027 z" style="fill:none;stroke:red;stroke-width:0.1"/>
  </g>
</svg>
