<?xml version="1.0" encoding="UTF-8" standalone="no"?>
<svg version="1.1" title="spindle-D52" width="100mm" height="100mm" viewBox="0 0 100 100" id="holder"
  xmlns="http://www.w3.org/2000/svg"
  xmlns:svg="http://www.w3.org/2000/svg">
   <!-- the arc of radius 35.65  starts at an the angle 15 deg until 75 deg
   
   > a = 15/180*Math.PI
   0.2617993877991494
   > Math.sin(a)
   0.25881904510252074
   > Math.cos(a)
   0.9659258262890683
   > Math.cos(a)*35.65
   34.435255707205286
   > Math.sin(a)*35.65
   9.226898957904863
   
   !-->
  <defs>
    <path id="arc" style="fill:none;stroke-width:0.1;stroke:black"
    d="M 44.25 0 C 44.25 -6 37 -2 34.435255707205286 -9.226898957904863 A 35.65 35.65 0 0 0 9.226898957904863 -34.435255707205286 C 2 -37 6 -44.25 0 -44.25" />
  </defs>
  <g transform="translate(50 50)">
   <use id="arc_part1" href="#arc"/>
   <use id="arc_part2" href="#arc" transform="rotate(-90)"/>
   <use id="arc_part2" href="#arc" transform="rotate(-180)"/>
   <use id="arc_part2" href="#arc" transform="rotate(-270)"/>
  </g>
  
  <g transform="translate(50 50)">
  <path id="full" style="fill:none;stroke-width:0.1;stroke:red"
  d="M 44.25 0 C 44.25 -6 37 -2 34.4353 -9.2269 A 35.65 35.65 0 0 0 9.2269 -34.4353 C 2 -37 6 -44.25 0 -44.25 C -6 -44.25 -2 -37 -9.2269 -34.4353 A 35.65 35.65 0 0 0 -34.4353 -9.2269 C -37 -2 -44.25 -6 -44.25 0 C -44.25 6 -37 2 -34.4353 9.2269 A 35.65 35.65 0 0 0 -9.2269 34.4353 C -2 37 -5.963 44.25 0 44.25 C 6 44.25 2 37 9.2269 34.4353 A 35.65 35.65 0 0 0 34.4353 9.2269 C 37 2 44.25 6 44.25 0"/>
 </g>
  
</svg>