<svg xmlns="http://www.w3.org/2000/svg" xmlns:svg="http://www.w3.org/2000/svg" version="1.1" title="spindle-D52" width="100mm" height="100mm" viewBox="0 0 100 100" id="holder">
  <!-- the arc of radius 35.65  starts at an the angle 15 deg until 75 deg
   
   > a = 15/180*Math.PI
   0.2617993877991494
   > Math.sin(a)
   0.25881904510252074
   > Math.cos(a)
   0.9659258262890683
   > Math.cos(a)*35.65
   34.435255707205286
   > Math.sin(a)*35.65
   9.226898957904863
   
   !-->
  <defs>
    <path id="arc" style="fill:none;stroke-width:0.1;stroke:black" d="M 44.25 0 C 44.25 -6 37 -2 34.435255707205286 -9.226898957904863 A 35.65 35.65 0 0 0 9.226898957904863 -34.435255707205286 C 2 -37 6 -44.25 0 -44.25"/>
  </defs>
  <g>
    <path id="arc_part1" d="M 94.250050895,50.000027 C 94.250050895,44.00002376 87.00004698,48.00002592 84.4353013022,40.7731230596 A 35.65,35.65 0 0,0 59.2269309404,15.5647526978 C 52.00002808,13.00000702 56.00003024,5.750003105 50.000027,5.750003105" style="fill:none;stroke-width:0.1;stroke:black"/>
    <path id="arc_part2" d="M 50.000027,5.750003105 C 44.00002376,5.750003105 48.00002592,13.00000702 40.7731230596,15.5647526978 A 35.65,35.65 -90 0,0 15.5647526978,40.7731230596 C 13.00000702,48.00002592 5.750003105,44.00002376 5.750003105,50.000027" style="fill:none;stroke-width:0.1;stroke:black"/>
    <path id="arc_part2" d="M 5.750003105,50.000027 C 5.750003105,56.00003024 13.00000702,52.00002808 15.5647526978,59.2269309404 A 35.65,35.65 -180 0,0 40.7731230596,84.4353013022 C 48.00002592,87.00004698 44.00002376,94.250050895 50.000027,94.250050895" style="fill:none;stroke-width:0.1;stroke:black"/>
    <path id="arc_part2" d="M 50.000027,94.250050895 C 56.00003024,94.250050895 52.00002808,87.00004698 59.2269309404,84.4353013022 A 35.65,35.65 90 0,0 84.4353013022,59.2269309404 C 87.00004698,52.00002808 94.250050895,56.00003024 94.250050895,50.000027" style="fill:none;stroke-width:0.1;stroke:black"/>
  </g>
  <g>
    <path id="full" d="M 94.250050895,50.000027 C 94.250050895,44.00002376 87.00004698,48.00002592 84.4353455951,40.7731220175 A 35.65,35.65 0 0,0 59.2269319825,15.5647084049 C 52.00002808,13.00000702 56.00003024,5.750003105 50.000027,5.750003105 C 44.00002376,5.750003105 48.00002592,13.00000702 40.7731220175,15.5647084049 A 35.65,35.65 0 0,0 15.5647084049,40.7731220175 C 13.00000702,48.00002592 5.750003105,44.00002376 5.750003105,50.000027 C 5.750003105,56.00003024 13.00000702,52.00002808 15.5647084049,59.2269319825 A 35.65,35.65 0 0,0 40.7731220175,84.4353455951 C 48.00002592,87.00004698 44.03702378,94.250050895 50.000027,94.250050895 C 56.00003024,94.250050895 52.00002808,87.00004698 59.2269319825,84.4353455951 A 35.65,35.65 0 0,0 84.4353455951,59.2269319825 C 87.00004698,52.00002808 94.250050895,56.00003024 94.250050895,50.000027" style="fill:none;stroke-width:0.1;stroke:red"/>
  </g>
</svg>
