<?xml version="1.0" encoding="UTF-8" standalone="no"?>
<svg version="1.1" width="160mm" height="200mm" viewBox="0 0 160 200" id="unitmat-cnc-kit" xmlns="http://www.w3.org/2000/svg" xmlns:svg="http://www.w3.org/2000/svg">
	
  <defs id="defs">
    <circle id="motor_base_hole_22mm_ref"         style="fill:#ff00ff;fill-opacity:1;;stroke-opacity:1"  cx="0" cy="0" r="11" />
	<circle id="motor_screw_3.0mm_pocket_5.0mm"   style="fill:#00ffff;fill-opacity:0.5"  cx="0" cy="0" r="2.5" />
    <circle id="motor_screw_3.0mm"                style="fill:#00ffff;fill-opacity:1.0"  cx="0" cy="0" r="1.50" />
  </defs>
	
  <g id="root">	  
    <g id="motor-1" transform="translate(10,40)">	
      <rect  id="base" style="fill:black;fill-opacity:0.4" width="120" height="10" x="0" y="10" rx="1" ry="1" />
	  
      <rect  id="block-1" style="fill:black;fill-opacity:0.8" width="10" height="10" x="0" y="0" rx="1" ry="1"/>
      <rect  id="block-2" style="fill:black;fill-opacity:0.8" width="10" height="10" x="58" y="0" rx="1" ry="1"/>
	  
	  <!--
	  <rect  id="motor-2" style="fill:black;fill-opacity:0.4" width="42" height="42" x="78" y="8" />
	  -->
	  
	  <!-- plate -->
	  <g id="mounting-plate_m1" transform="translate(69,-75.25)">	
	  <g id="g_motor_plate" transform="translate(0 35.5)">
	    <rect  id="plate" style="fill:black;fill-opacity:0.4" width="42" height="52" x="9" y="8"  rx="2" ry="2"/>
		<line  id="plate_border"   style="fill:none;stroke-width:0.1;stroke:black" x1="9" y1="50" x2="51"  y2="50"/>
		<rect  id="mounting_hole1" style="fill:black;fill-opacity:0.4" width="10" height="5" x="12" y="52.5" rx="2" ry="2"/>
		<rect  id="mounting_hole2" style="fill:black;fill-opacity:0.4" width="10" height="5" x="38" y="52.5" rx="2" ry="2"/>
	  </g>
	  
	  <g id="g_motor_base" transform="translate(9 43.5)">
        <!-- +++++++++++++++++++++++++++++++++++++++  jsut visualisation +++++++++++++++++++++++++++++++++++++++++++++++++-->
        <rect id="motor_base" rx="4" ry="4" width="42" height="42" style="fill:rgb(0,0,0);opacity:0.4;stroke-width:0;stroke:rgb(0,0,0)" />
      
        <g id="motor_center" transform="translate(21 21)">
          <use href="#motor_screw_3.0mm" transform="translate(15.5 15.5)"   id="motor_screw_3.0mm_NW" />
          <use href="#motor_screw_3.0mm" transform="translate(15.5 -15.5)"  id="motor_screw_3.0mm_NE" />
          <use href="#motor_screw_3.0mm" transform="translate(-15.5 -15.5)" id="motor_screw_3.0mm_SW" />
          <use href="#motor_screw_3.0mm" transform="translate(-15.5 15.5)"  id="motor_screw_3.0mm_SE" />
     
          <use href="#motor_screw_3.0mm_pocket_5.0mm" transform="translate(15.5 15.5)"   id="motor_screw_3.0mm_pocket_5.0mm_NW" />
          <use href="#motor_screw_3.0mm_pocket_5.0mm" transform="translate(15.5 -15.5)"  id="motor_screw_3.0mm_pocket_5.0mm_NE" />
          <use href="#motor_screw_3.0mm_pocket_5.0mm" transform="translate(-15.5 -15.5)" id="motor_screw_3.0mm_pocket_5.0mm_SW" />
          <use href="#motor_screw_3.0mm_pocket_5.0mm" transform="translate(-15.5 15.5)"  id="motor_screw_3.0mm_pocket_5.0mm_SE" />
        </g>
      </g>
      <use href="#motor_base_hole_22mm_ref" x="30"  y="64.5"  id="motor_base_hole_22mm" />
    </g>
  
  
	</g>
	
	<!-- holes dimensions to check -->
	<g id="motor-2" transform="translate(10,96)">	
      <path id="clamp_top" style="fill:rgb(0,125,125);stroke:#0000ff;stroke-width:0.261315px;stroke-linecap:butt;stroke-linejoin:miter;stroke-opacity:1"
      d="m 3 10 
	  h 80 q 1 0 1 -1 
	  v -8 q 0 -1 -1 -1 
	  h -14 
	  a 5 5 0 0 1 -12 0 
	  h -9 
	  a 5 5 0 0 1 -12 0 
	  h -9 
	  a 5 5 0 0 1 -12 0 
	  h -14  q -1 0 -1 1 
	  v  8  q 0 1 1 1 z" />
	 <path id="clamp_bottom" style="fill:rgb(0,125,125);stroke:#0000ff;stroke-width:0.261315px;stroke-linecap:butt;stroke-linejoin:miter;stroke-opacity:1"
      d="m 1 24
	  h 126 q 1 0 1 -1 
	  v -8  q 0 -1 -1 -1 
	  h -42
	  h -2
	  h -14 a 5 5 0 0 1 -12 0 
	  h -9  a 5 5 0 0 1 -12 0 
	  h -9  a 5 5 0 0 1 -12 0 
	  h -14 q -1 0 -1 1 
	  v  8  q 0 1 1 1 z" />
	  
	  <!--
	  <circle cx="42" cy="14" r="6" style="fill:#22ffaa;fill-opacity:0.6"/>
	  -->
	  <!-- plate -->
	  <g id="mounting-plate_m2" transform="translate(77,-71.25)">	
	  <g id="g_motor_plate" transform="translate(0 35.5)">
	    <rect  id="plate" style="fill:black;fill-opacity:0.4" width="42" height="52" x="9" y="8"  rx="2" ry="2"/>
		<line  id="plate_border"   style="fill:none;stroke-width:0.1;stroke:black" x1="9" y1="50" x2="51"  y2="50"/>
		<rect  id="mounting_hole1" style="fill:black;fill-opacity:0.4" width="10" height="5" x="12" y="52.5" rx="2" ry="2"/>
		<rect  id="mounting_hole2" style="fill:black;fill-opacity:0.4" width="10" height="5" x="38" y="52.5" rx="2" ry="2"/>
	  </g>
	  
	  <g id="g_motor_base" transform="translate(9 43.5)">
        <!-- +++++++++++++++++++++++++++++++++++++++  jsut visualisation +++++++++++++++++++++++++++++++++++++++++++++++++-->
        <rect id="motor_base" rx="4" ry="4" width="42" height="42" style="fill:rgb(0,0,0);opacity:0.4;stroke-width:0;stroke:rgb(0,0,0)" />
      
        <g id="motor_center" transform="translate(21 21)">
          <use href="#motor_screw_3.0mm" transform="translate(15.5 15.5)"   id="motor_screw_3.0mm_NW" />
          <use href="#motor_screw_3.0mm" transform="translate(15.5 -15.5)"  id="motor_screw_3.0mm_NE" />
          <use href="#motor_screw_3.0mm" transform="translate(-15.5 -15.5)" id="motor_screw_3.0mm_SW" />
          <use href="#motor_screw_3.0mm" transform="translate(-15.5 15.5)"  id="motor_screw_3.0mm_SE" />
     
          <use href="#motor_screw_3.0mm_pocket_5.0mm" transform="translate(15.5 15.5)"   id="motor_screw_3.0mm_pocket_5.0mm_NW" />
          <use href="#motor_screw_3.0mm_pocket_5.0mm" transform="translate(15.5 -15.5)"  id="motor_screw_3.0mm_pocket_5.0mm_NE" />
          <use href="#motor_screw_3.0mm_pocket_5.0mm" transform="translate(-15.5 -15.5)" id="motor_screw_3.0mm_pocket_5.0mm_SW" />
          <use href="#motor_screw_3.0mm_pocket_5.0mm" transform="translate(-15.5 15.5)"  id="motor_screw_3.0mm_pocket_5.0mm_SE" />
        </g>
      </g>
      <use href="#motor_base_hole_22mm_ref" x="30"  y="64.5"  id="motor_base_hole_22mm" />
    </g>
  
  
	</g>
	
	<!-- may I buy the mounting plate (steppers online) ? -->
	<g id="mounting-plate" transform="translate(0,90)">	
	  <g id="g_motor_plate" transform="translate(0 35.5)">
	    <rect  id="plate" style="fill:black;fill-opacity:0.4" width="42" height="52" x="9" y="8"  rx="2" ry="2"/>
		<line  id="plate_border"   style="fill:none;stroke-width:0.1;stroke:black" x1="9" y1="50" x2="51"  y2="50"/>
		<rect  id="mounting_hole1" style="fill:black;fill-opacity:0.4" width="10" height="5" x="12" y="52.5" rx="2" ry="2"/>
		<rect  id="mounting_hole2" style="fill:black;fill-opacity:0.4" width="10" height="5" x="38" y="52.5" rx="2" ry="2"/>
	  </g>
	  
	  <g id="g_motor_base" transform="translate(9 43.5)">
        <!-- +++++++++++++++++++++++++++++++++++++++  jsut visualisation +++++++++++++++++++++++++++++++++++++++++++++++++-->
        <rect id="motor_base" rx="4" ry="4" width="42" height="42" style="fill:rgb(0,0,0);opacity:0.4;stroke-width:0;stroke:rgb(0,0,0)" />
      
        <g id="motor_center" transform="translate(21 21)">
          <use href="#motor_screw_3.0mm" transform="translate(15.5 15.5)"   id="motor_screw_3.0mm_NW" />
          <use href="#motor_screw_3.0mm" transform="translate(15.5 -15.5)"  id="motor_screw_3.0mm_NE" />
          <use href="#motor_screw_3.0mm" transform="translate(-15.5 -15.5)" id="motor_screw_3.0mm_SW" />
          <use href="#motor_screw_3.0mm" transform="translate(-15.5 15.5)"  id="motor_screw_3.0mm_SE" />
     
          <use href="#motor_screw_3.0mm_pocket_5.0mm" transform="translate(15.5 15.5)"   id="motor_screw_3.0mm_pocket_5.0mm_NW" />
          <use href="#motor_screw_3.0mm_pocket_5.0mm" transform="translate(15.5 -15.5)"  id="motor_screw_3.0mm_pocket_5.0mm_NE" />
          <use href="#motor_screw_3.0mm_pocket_5.0mm" transform="translate(-15.5 -15.5)" id="motor_screw_3.0mm_pocket_5.0mm_SW" />
          <use href="#motor_screw_3.0mm_pocket_5.0mm" transform="translate(-15.5 15.5)"  id="motor_screw_3.0mm_pocket_5.0mm_SE" />
        </g>
      </g>
      <use href="#motor_base_hole_22mm_ref" x="30"  y="64.5"  id="motor_base_hole_22mm" />
    </g>
	
	
	</g>
</svg>
