<?xml version="1.0" encoding="UTF-8" standalone="no"?>
<svg version="1.1" width="160mm" height="200mm" viewBox="0 0 160 200" id="unitmat-cnc-kit" xmlns="http://www.w3.org/2000/svg" xmlns:svg="http://www.w3.org/2000/svg">
    
  <defs id="defs">
    <circle id="motor_base_hole_22mm_ref"         style="fill:#ff00ff;fill-opacity:1;;stroke-opacity:1"  cx="0" cy="0" r="11" />
    <circle id="motor_screw_3.0mm_pocket_5.0mm"   style="fill:#00ffff;fill-opacity:0.5"  cx="0" cy="0" r="2.5" />
    <circle id="motor_screw_3.0mm"                style="fill:#00ffff;fill-opacity:1.0"  cx="0" cy="0" r="1.50" />
  </defs>
    
  <g id="root">      
    <g id="motor-1" transform="translate(10,50)">
      <rect  id="base"    style="fill:black;fill-opacity:0.4" width="130" height="10" x="0"  y="0" rx="1" ry="1"/>
      
      <g transform="translate(0,-10)"> <!-- go up -->
        <rect  id="block-1" style="fill:black;fill-opacity:0.8" width="10"  height="10" x="0"  y="0" rx="1" ry="1"/>
        <rect  id="block-2" style="fill:black;fill-opacity:0.8" width="10"  height="10" x="68" y="0" rx="1" ry="1"/>
      </g>
      
      <g id="mounting-plate-m1" transform="translate(88,-42)"> <!-- go up -->
        <rect  id="plate"            style="fill:black;fill-opacity:0.4" width="42" height="52" x="0" y="0"  rx="2" ry="2"/>
       
        <g  transform="translate(0,42)">
          <rect  id="mounting_hole1" style="fill:black;fill-opacity:0.4" width="10" height="5" x="2"  y="2.5" rx="2" ry="2"/>
          <rect  id="mounting_hole2" style="fill:black;fill-opacity:0.4" width="10" height="5" x="28" y="2.5" rx="2" ry="2"/>
        </g>
      </g>
      
      <g id="m1" transform="translate(88,-42)">   <!-- go up -->
        <!-- +++++++++++++++++++++++++++++++++++++++  jsut visualisation +++++++++++++++++++++++++++++++++++++++++++++++++-->
        <rect id="motor_base" rx="4" ry="4" width="42" height="42" style="fill:rgb(0,0,0);opacity:0.4;stroke-width:0;stroke:rgb(0,0,0)" />
      
        <g id="motor_center" transform="translate(21 21)">
          <use href="#motor_screw_3.0mm" transform="translate(15.5 15.5)"   id="motor_screw_3.0mm_NW" />
          <use href="#motor_screw_3.0mm" transform="translate(15.5 -15.5)"  id="motor_screw_3.0mm_NE" />
          <use href="#motor_screw_3.0mm" transform="translate(-15.5 -15.5)" id="motor_screw_3.0mm_SW" />
          <use href="#motor_screw_3.0mm" transform="translate(-15.5 15.5)"  id="motor_screw_3.0mm_SE" />
     
          <use href="#motor_screw_3.0mm_pocket_5.0mm" transform="translate(15.5 15.5)"   id="motor_screw_3.0mm_pocket_5.0mm_NW" />
          <use href="#motor_screw_3.0mm_pocket_5.0mm" transform="translate(15.5 -15.5)"  id="motor_screw_3.0mm_pocket_5.0mm_NE" />
          <use href="#motor_screw_3.0mm_pocket_5.0mm" transform="translate(-15.5 -15.5)" id="motor_screw_3.0mm_pocket_5.0mm_SW" />
          <use href="#motor_screw_3.0mm_pocket_5.0mm" transform="translate(-15.5 15.5)"  id="motor_screw_3.0mm_pocket_5.0mm_SE" />

          <use href="#motor_base_hole_22mm_ref" x="0"  y="0"  id="motor_base_hole_22mm" />
          
          <!-- center pulley motor indicator -->
          <circle cx="0" cy="0" r="1" style="fill:blue;stroke:blue;stroke-width:0.25"/>
        </g> 
      </g>  
      
      <!-- center pulley saddle -->
      <circle cx="39"  cy="-20" r="1" style="fill:blue;stroke:blue;stroke-width:0.25"/>
      <!-- belt pulleys center-to-center 70 mm -->
      <circle cx="39"  cy="-20" r="70" style="fill:none;stroke:blue;stroke-width:0.25"/>          
      
      <!-- line between centers -->
      <line x1="39" x2="109" y1="-20" y2="-21" style="fill:none;stroke:blue;stroke-width:0.25"/>
      
    </g>
    
    <!-- holes dimensions to check -->
    <g id="motor-2" transform="translate(10,125)">    
      
      <line x1="0"  x2="0"  y1="0" y2="-85" style="fill:none;stroke:blue;stroke-width:0.25"/>
      <line x1="78" x2="78" y1="0" y2="-85" style="fill:none;stroke:blue;stroke-width:0.25"/>
      
      <path id="clamp_top" style="fill:rgb(0,125,125);stroke:#0000ff;stroke-width:0.261315px;stroke-linecap:butt;stroke-linejoin:miter;stroke-opacity:1"
      d="m 3 -25 
      h 74 q 1 0 1 -1 
      v -8 q 0 -1 -1 -1 
      h -10 
      a 5 5 0 0 1 -12 0 
      h -10 
      a 5 5 0 0 1 -10 0 
      h -10 
      a 5 5 0 0 1 -12 0 
      h -12  q -1 0 -1 1 
      v  8  q 0 1 1 1 z" />
     <path id="clamp_bottom" style="fill:rgb(0,125,125);stroke:#0000ff;stroke-width:0.261315px;stroke-linecap:butt;stroke-linejoin:miter;stroke-opacity:1"
      d="m 1 0
      h 130 q 1 0 1 -1 
      v -8  q 0 -1 -1 -1 
      h -42
      h -10
      h -12 a 5 5 0 0 1 -12 0 
      h -10 a 5 5 0 0 1 -10 0 
      h -10 a 5 5 0 0 1 -12 0 
      h -12 q -1 0 -1 1 
      v  8  q 0 1 1 1 z" />
      
      <!--
      <circle cx="42" cy="14" r="6" style="fill:#22ffaa;fill-opacity:0.6"/>
      -->
      <!-- plate -->
      <g id="mounting-plate-m2" transform="translate(86,-52)">
        <rect  id="plate"          style="fill:black;fill-opacity:0.4" width="42" height="52" x="0" y="0"  rx="2" ry="2"/>
        
         <g  transform="translate(0,42)">
          <rect  id="mounting_hole21" style="fill:black;fill-opacity:0.4" width="10" height="5" x="2"  y="2.5" rx="2" ry="2"/>
          <rect  id="mounting_hole22" style="fill:black;fill-opacity:0.4" width="10" height="5" x="28" y="2.5" rx="2" ry="2"/>
        </g>
      </g>
      
      <g id="m2" transform="translate(86, -52)">
        <!-- +++++++++++++++++++++++++++++++++++++++  jsut visualisation +++++++++++++++++++++++++++++++++++++++++++++++++-->
        <rect id="motor_base" rx="4" ry="4" width="42" height="42" style="fill:rgb(0,0,0);opacity:0.4;stroke-width:0;stroke:rgb(0,0,0)" />
      
        <g id="motor_center" transform="translate(21 21)">
          <use href="#motor_screw_3.0mm" transform="translate(15.5 15.5)"   id="motor_screw_3.0mm_NW" />
          <use href="#motor_screw_3.0mm" transform="translate(15.5 -15.5)"  id="motor_screw_3.0mm_NE" />
          <use href="#motor_screw_3.0mm" transform="translate(-15.5 -15.5)" id="motor_screw_3.0mm_SW" />
          <use href="#motor_screw_3.0mm" transform="translate(-15.5 15.5)"  id="motor_screw_3.0mm_SE" />
     
          <use href="#motor_screw_3.0mm_pocket_5.0mm" transform="translate(15.5 15.5)"   id="motor_screw_3.0mm_pocket_5.0mm_NW" />
          <use href="#motor_screw_3.0mm_pocket_5.0mm" transform="translate(15.5 -15.5)"  id="motor_screw_3.0mm_pocket_5.0mm_NE" />
          <use href="#motor_screw_3.0mm_pocket_5.0mm" transform="translate(-15.5 -15.5)" id="motor_screw_3.0mm_pocket_5.0mm_SW" />
          <use href="#motor_screw_3.0mm_pocket_5.0mm" transform="translate(-15.5 15.5)"  id="motor_screw_3.0mm_pocket_5.0mm_SE" />

          <use href="#motor_base_hole_22mm_ref" x="0"  y="0"  id="motor_base_hole_22mm" />
          
          <!-- center pulley motor indicator -->
          <circle cx="0" cy="0" r="1" style="fill:green;stroke:green;stroke-width:0.25"/>
        </g>
      </g>

      <!-- belt -->
      <g transform="translate(-10,0)">
       <line x1="50" x2="117" y1="-10" y2="-31" style="fill:none;stroke:green;stroke-width:0.25"/>
       <!-- center pulley leadscrew -->
       <circle cx="50" cy="-10" r="1" style="fill:green;stroke:green;stroke-width:0.25"/>
       <!-- belt pulleys center-to-center 70 mm -->
       <circle cx="50" cy="-10" r="70" style="fill:none;stroke:green;stroke-width:0.25"/>    
       </g>
    
    </g>  
  </g>
</svg>
