<?xml version="1.0" encoding="UTF-8" standalone="no"?>
<svg version="1.1" width="154mm" height="80mm" viewBox="0 0 154 80" id="unitmat-cnc-kit" xmlns="http://www.w3.org/2000/svg" xmlns:svg="http://www.w3.org/2000/svg">
	
  <defs id="defs">
    <circle id="motor_screw_4.0mm"  style="fill:#00ffff;fill-opacity:1.0"  cx="0" cy="0" r="2.0" />
  </defs>
	
  <g id="root" transform="translate(0 10)">	
    <path id="workpiece" d="M 0 0 h 120 a 1 1 0 1 1 0 67 h -120  z" 
	     style="fill:none;stroke:blue; stroke-width:0.2"/>
    
	<!-- servo motor -->
	<g id="motor" transform="translate(5 5)">
	  <rect id="motor_base" x="0" y="0" width="57" height="57" rx="2" ry="2" style="fill:none;stroke:blue;stroke-width:0.2"	/> 
	  <g transform="translate(28.5 28.5)">
	    <circle id="motor_hole" cx="0" cy="0" r="18"/>
	    <use href="#motor_screw_4.0mm" transform="translate(23.57 23.57)"   id="motor_screw_3.0mm_NW" />
        <use href="#motor_screw_4.0mm" transform="translate(23.57 -23.57)"  id="motor_screw_3.0mm_NE" />
        <use href="#motor_screw_4.0mm" transform="translate(-23.57 -23.57)" id="motor_screw_3.0mm_SW" />
        <use href="#motor_screw_4.0mm" transform="translate(-23.57 23.57)"  id="motor_screw_3.0mm_SE" /> 
	  </g>
	</g>
	
	<!-- unimat spindle -->
	<g id="spindle" transform="translate(120 33.5)">
	  <!-- yeah, spindle diameter in 36 mm -->
	  <circle id="spindle_hole" cx="0" cy="0" r="18"/>
	  <circle id="spindle_reinforcement" cx="0" cy="0" r="33.5" 
	        style="fill:none;stroke:red; stroke-width:0.2"/>
	</g>
	
	<!-- belt-tightener -->
	<g transform="translate(74 46)">
	  <rect id="belt-tightener"  x="0" y="0" width="4" height="14" rx="2" ry="2" style="fill:none;stroke:blue;stroke-width:0.2"	/> 
	  <circle id="tightener" cx="2" cy="2" r="6" style="fill:red;fill-opacity:0.4;stroke:red; stroke-width:0.2"/>
	  <circle id="tightener-center" cx="2" cy="2" r="1" style="fill:red;stroke:red; stroke-width:0.2"/>
	  <circle id="tightener" cx="2" cy="12" r="6" style="fill:red;fill-opacity:0.4;stroke:red; stroke-width:0.2"/>
	  <circle id="tightener-center" cx="2" cy="12" r="1" style="fill:red;stroke:red; stroke-width:0.2"/>
	</g>
  </g>
</svg>
