<?xml version="1.0" encoding="UTF-8" standalone="no"?>
<svg width="140mm" height="200mm" viewBox="0 0 140 200" version="1.1" xmlns="http://www.w3.org/2000/svg" xmlns:svg="http://www.w3.org/2000/svg">
  <defs>
    <circle id="cutter" cx="0" cy="0" r="10" fill="red" stroke-width="0.2" fill-opacity="0.2" stroke-opacity="0.1"/>
    
    <g id="cutter_path_angle_60"> <!--  Everything outside the circle will be clipped and therefore invisible. -->
      <polyline points="0,34   60,4   120,34" fill="none" stroke="black" stroke-width="0.5"/>
      <polyline points="0,45   60,15  120,45" fill="none" stroke="blue" stroke-width="20" stroke-opacity="0.2" />
      <polyline points="0,45   60,15  120,45" fill="none" stroke="red"  stroke-width="0.2"/>
      <use href="#cutter" x="60" y="15" />
    </g>
    <g id="cutter_path_angle_45">
      <polyline points="0,66.5   60,6.5  120,66.5" fill="none" stroke="black" stroke-width="0.5"/>
      <polyline points="0,80     60,20   120,80" fill="none" stroke="blue" stroke-width="20" stroke-opacity="0.2" />
      <polyline points="0,80     60,20   120,80" fill="none" stroke="red"  stroke-width="0.2"/>
      <use href="#cutter" x="60" y="20" />
    </g>
    <g id="cutter_path_angle_30">
      <polyline points="10 73   60,3    110,73" fill="none" stroke="black" stroke-width="0.5"/>
      <polyline points="10,90   60,20   110,90" fill="none" stroke="blue"  stroke-width="20" stroke-opacity="0.2" />
      <polyline points="10,90   60,20   110,90" fill="none" stroke="red"   stroke-width="0.2"/>
      <use href="#cutter" x="60" y="20" />
    </g>
   </defs>

  <clipPath  id="window1">
    <rect x="0" y="0" width="140" height="40" /> 
  </clipPath>

  <clipPath  id="window2">
    <rect x="0" y="0" width="140" height="60" /> 
  </clipPath>

  <clipPath  id="window3">
    <rect x="0" y="0" width="140" height="70" /> 
  </clipPath>


  
  <g id="angle_60" transform="translate(20 10)">
    <use  clip-path="url(#window1)" href="#cutter_path_angle_60" />
  </g>

  <g id="angle_45" transform="translate(20 45)">
    <use  clip-path="url(#window2)" href="#cutter_path_angle_45" />
  </g>

  <g id="angle_30" transform="translate(20 100)">
    <use  clip-path="url(#window3)" href="#cutter_path_angle_30" />
  </g>
</svg>