<?xml version="1.0" encoding="UTF-8" standalone="no"?>
<svg width="200mm" height="100mm" viewBox="0 0 200 100" version="1.1"  xmlns="http://www.w3.org/2000/svg" xmlns:svg="http://www.w3.org/2000/svg">
  <style>.small {font: italic 3px sans-serif;}</style>
  <defs>
    <circle id="cutter" cx="0" cy="0" r="10" fill="red" stroke-width="0.2" fill-opacity="0.2" stroke-opacity="0.1"/>
  </defs>
  <g id="layer">
    <line x1="10" x2="10" y1="95" y2="90" stroke-width="0.5" fill="none" stroke="black"/>
    <line x1="20" x2="20" y1="95" y2="90" stroke-width="0.5" fill="none" stroke="black"/>
    <line x1="30" x2="30" y1="95" y2="90" stroke-width="0.5" fill="none" stroke="black"/>
    <line x1="40" x2="40" y1="95" y2="90" stroke-width="0.5" fill="none" stroke="black"/>
    <line x1="50" x2="50" y1="95" y2="90" stroke-width="0.5" fill="none" stroke="black"/>
    <line x1="60" x2="60" y1="95" y2="90" stroke-width="0.5" fill="none" stroke="black"/>
    <line x1="70" x2="70" y1="95" y2="90" stroke-width="0.5" fill="none" stroke="black"/>
    <line x1="80" x2="80" y1="95" y2="90" stroke-width="0.5" fill="none" stroke="black"/>
    <line x1="90" x2="90" y1="95" y2="90" stroke-width="0.5" fill="none" stroke="black"/>
    <line x1="100" x2="100" y1="95" y2="90" stroke-width="0.5" fill="none" stroke="black"/>
    <text x="8" y="100" class="small">7</text>
    <text x="18" y="100" class="small">10</text>
    <text x="28" y="100" class="small">13</text>
    <text x="38" y="100" class="small">16</text>
    <text x="48" y="100" class="small">19</text>
    <text x="58" y="100" class="small">22</text>
    <text x="68" y="100" class="small">25</text>
    <text x="78" y="100" class="small">28</text>
    <text x="88" y="100" class="small">31</text>
    <text x="98" y="100" class="small">34</text>
    <line x1="105" x2="110" y1="10" y2="10" stroke-width="0.5" fill="none" stroke="black"/>
    <line x1="105" x2="110" y1="20" y2="20" stroke-width="0.5" fill="none" stroke="black"/>
    <line x1="105" x2="110" y1="30" y2="30" stroke-width="0.5" fill="none" stroke="black"/>
    <line x1="105" x2="110" y1="40" y2="40" stroke-width="0.5" fill="none" stroke="black"/>
    <line x1="105" x2="110" y1="50" y2="50" stroke-width="0.5" fill="none" stroke="black"/>
    <line x1="105" x2="110" y1="60" y2="60" stroke-width="0.5" fill="none" stroke="black"/>
    <line x1="105" x2="110" y1="70" y2="70" stroke-width="0.5" fill="none" stroke="black"/>
    <line x1="105" x2="110" y1="80" y2="80" stroke-width="0.5" fill="none" stroke="black"/>
    <text x="112" y="11" class="small">23</text>
    <text x="112" y="21" class="small">20</text>
    <text x="112" y="31" class="small">17</text>
    <text x="112" y="41" class="small">14</text>
    <text x="112" y="51" class="small">11</text>
    <text x="112" y="61" class="small">8</text>
    <text x="112" y="71" class="small">5</text>
    <text x="112" y="81" class="small">2</text>
    <rect x="10" y="10" width="90" height="70" stroke-width="0.4" fill="none" stroke="black"/>
    <rect x="20" y="20" width="70" height="50" stroke-width="0.2" fill="none" stroke="red"/>
    <rect x="20" y="20" width="70" height="50" stroke-width="20px" fill="none" stroke="blue" stroke-linejoin="round" stroke-opacity="0.2"/>

    <use href="#cutter" x="20" y="20" />
	<use href="#cutter" x="90" y="20" />
	
    
    <text x="11" y="13" class="small">C</text>
    <text x="97" y="13" class="small">D</text>
    <text x="21" y="23" class="small">A</text>
    <!--
                        	D = sqrt(10*10 + 10*10) = 14.14
                            d = 14.14 -10 = 4.14dx = dy = d / sqrt(2) = 2.93
                        	-->
    <polyline id="dog-bone-path1" points="20,20 17.07,17.07" fill="none" stroke="blue" stroke-width="0.3" stroke-opacity="0.5"/>
    <use href="#cutter" x="17.07" y="17.07" />

    <!--  other bone type -->
    <polyline id="dog-bone-path2" points="90,20 90,10" fill="none" stroke="blue" stroke-width="0.3"        stroke-opacity="0.5"/>
    <use href="#cutter" x="90" y="10" />
  </g>
</svg>