<?xml version="1.0" encoding="UTF-8" standalone="no"?>
<svg width="400mm" height="200mm" viewBox="0 0 400 200" version="1.1" xmlns="http://www.w3.org/2000/svg" xmlns:svg="http://www.w3.org/2000/svg">
  <defs>
    <circle id="cutter" cx="0" cy="0" r="10" fill="red" stroke-width="0.2" fill-opacity="0.2" stroke-opacity="0.1"/>
  </defs>
  
  <g id="layer11">
    <polyline points="10,10 70,10 113,53" stroke-width="0.5" fill="none" stroke="black"/>
    <polyline points="10,20 66.2,20 106.2,60" fill="none" stroke="blue"  stroke-linejoin="round" stroke-width="20px" stroke-opacity="0.2"/>
    <polyline points="10,20 66.2,20 106.2,60" fill="none" stroke="black" stroke-linejoin="round" stroke-width="0.2"  stroke-opacity="0.8"/>
    <polyline points="10,30 80,30" fill="none" stroke="black" stroke-linejoin="round" stroke-width="0.2" 
              stroke-opacity="0.8" stroke-dasharray="0 1 0"/>
    <!--
    <polyline points="70,10 66.2,20" fill="none" stroke="black" stroke-linejoin="round" stroke-width="0.2" stroke-opacity="0.8" stroke-dasharray="0 1 0"/>
     -->
    <use href="#cutter" x="66.2" y="20" />
  </g>

  <g id="layer12" transform="translate(120 0)">
    <polyline points="10,10 70,10 100,53" stroke-width="0.5" fill="none" stroke="black"/>
    <polyline points="10,20 65.0,20 93.2,60" fill="none" stroke="blue"  stroke-linejoin="round" stroke-width="20px" stroke-opacity="0.2"/>
    <polyline points="10,20 65.0,20 93.2,60" fill="none" stroke="black" stroke-linejoin="round" stroke-width="0.2"  stroke-opacity="0.8"/>
    <polyline points="10,30 80,30" fill="none" stroke="black" stroke-linejoin="round" stroke-width="0.2"
              stroke-opacity="0.8" stroke-dasharray="0 1 0"/>
    <!--
    <polyline points="70,10 66.2,20" fill="none" stroke="black" stroke-linejoin="round" stroke-width="0.2" stroke-opacity="0.8" stroke-dasharray="0 1 0"/>
    -->
	<use href="#cutter" x="65.2" y="20" />
  </g>
  
  <g id="layer21" transform="translate(0 100)">
    <polyline points="10,70 10,10 100,10 100,70" stroke-width="0.5" fill="none" stroke="black"/>
    <polyline points="20,70 20,20 90,20 90,70" fill="none" stroke="blue"  stroke-linejoin="round" stroke-width="20px"  stroke-opacity="0.2"/>
    <polyline points="20,70 20,20 90,20 90,70" fill="none" stroke="black" stroke-linejoin="round" stroke-width="0.2"   stroke-opacity="0.8"/>
    
	<use href="#cutter" x="20" y="20" />
	<use href="#cutter" x="90" y="20" />
  </g>
  <g id="layer22"  transform="translate(120 100)">
    <polyline points="10,10 110,10 60,60" stroke-width="0.5" fill="none" stroke="black"/>
    <polyline points="10,20  86,20 46,60" fill="none" stroke="blue"  stroke-linejoin="round" stroke-width="20px"  stroke-opacity="0.2"/>
    <polyline points="10,20  86,20 46,60" fill="none" stroke="black" stroke-linejoin="round" stroke-width="0.2"  stroke-opacity="0.8"/>
   
	<use href="#cutter" x="86" y="20" />
  </g>
</svg>