<?xml version="1.0" encoding="UTF-8" standalone="no"?>
<!-- Created with Inkscape (http://www.inkscape.org/) -->

<svg
   width="500mm"
   height="100mm"
   viewBox="0 0 500 100"
   version="1.1"
   id="svg5"
   inkscape:version="1.1.1 (3bf5ae0d25, 2021-09-20)"
   sodipodi:docname="letters_path.svg"
   xmlns:inkscape="http://www.inkscape.org/namespaces/inkscape"
   xmlns:sodipodi="http://sodipodi.sourceforge.net/DTD/sodipodi-0.dtd"
   xmlns="http://www.w3.org/2000/svg"
   xmlns:svg="http://www.w3.org/2000/svg">
  <sodipodi:namedview
     id="namedview7"
     pagecolor="#ffffff"
     bordercolor="#cccccc"
     borderopacity="1"
     inkscape:pageshadow="0"
     inkscape:pageopacity="1"
     inkscape:pagecheckerboard="0"
     inkscape:document-units="mm"
     showgrid="false"
     inkscape:zoom="0.31625281"
     inkscape:cx="732.00932"
     inkscape:cy="31.620273"
     inkscape:window-width="1500"
     inkscape:window-height="938"
     inkscape:window-x="-6"
     inkscape:window-y="-6"
     inkscape:window-maximized="1"
     inkscape:current-layer="layer1" />
  <defs
     id="defs2" />
  <g
     inkscape:label="Layer 1"
     inkscape:groupmode="layer"
     id="layer1">
    <g
       id="abcdefghijklmnopqrstuvwxyz"
       style="font-size:25.4px;line-height:1.25;font-family:Georgia;-inkscape-font-specification:'Georgia, Normal';stroke-width:0.264583">
      <path
         d="m 21.186914,29.198827 q -0.58291,0.21084 -1.029394,0.334864 -0.434082,0.136425 -0.992188,0.136425 -0.967383,0 -1.550293,-0.446484 -0.570508,-0.458887 -0.731738,-1.327051 h -0.07441 q -0.806153,0.892969 -1.736328,1.364258 -0.917774,0.471289 -2.22002,0.471289 -1.37666,0 -2.269629,-0.843359 -0.8805661,-0.84336 -0.8805661,-2.207617 0,-0.706934 0.1984375,-1.265039 0.1984376,-0.558106 0.5953126,-1.00459 0.310059,-0.372071 0.818555,-0.657324 0.508496,-0.297657 0.95498,-0.47129 0.558106,-0.210839 2.257227,-0.781347 1.711523,-0.570508 2.306835,-0.892969 v -1.227832 q 0,-0.16123 -0.07441,-0.620117 -0.06201,-0.458887 -0.285253,-0.868164 -0.248047,-0.458887 -0.706934,-0.79375 -0.446484,-0.347266 -1.277441,-0.347266 -0.570508,0 -1.066602,0.198438 -0.483691,0.186035 -0.682129,0.396875 0,0.248047 0.111621,0.731738 0.124024,0.483691 0.124024,0.892969 0,0.434082 -0.396875,0.79375 -0.384473,0.359668 -1.079004,0.359668 -0.620117,0 -0.917774,-0.434082 -0.285254,-0.446485 -0.285254,-0.992188 0,-0.570508 0.396875,-1.091406 0.409278,-0.520898 1.0542,-0.930176 0.558105,-0.347265 1.351855,-0.58291 0.79375,-0.248047 1.550293,-0.248047 1.041797,0 1.810742,0.148828 0.781348,0.136426 1.413867,0.607715 0.63252,0.458887 0.954981,1.252637 0.334863,0.781347 0.334863,2.021582 0,1.773535 -0.03721,3.150195 -0.03721,1.364258 -0.03721,2.988965 0,0.483691 0.16123,0.768945 0.173633,0.285254 0.520899,0.483692 0.186035,0.111621 0.58291,0.124023 0.409277,0.0124 0.830957,0.0124 z M 16.858496,22.65039 q -1.054199,0.310059 -1.847949,0.607715 -0.79375,0.297656 -1.475879,0.74414 -0.620117,0.42168 -0.979785,1.00459 -0.359668,0.570508 -0.359668,1.364258 0,1.029395 0.533301,1.513086 0.545703,0.483691 1.37666,0.483691 0.880566,0 1.550293,-0.421679 0.669726,-0.434082 1.128613,-1.016993 z"
         id="path_a" />
      <path
         d="m 34.817089,23.295312 q 0,2.75332 -1.736328,4.626074 -1.736328,1.872754 -4.030761,1.872754 -1.00459,0 -1.984375,-0.310059 -0.967383,-0.310058 -1.823145,-0.830957 l -0.917773,1.42627 -0.768946,-0.173633 q 0.06201,-0.917773 0.08682,-2.207617 0.0248,-1.289844 0.0248,-2.492871 V 13.100585 q 0,-0.421679 -0.198437,-0.843359 -0.186035,-0.42168 -0.483691,-0.607715 -0.235645,-0.16123 -0.79375,-0.235644 -0.545704,-0.08682 -0.880567,-0.111621 v -0.79375 l 4.489648,-0.285254 0.173633,0.186035 V 18.4708 l 0.08682,0.02481 q 0.768945,-0.818555 1.674316,-1.227832 0.917774,-0.409277 1.79834,-0.409277 2.257226,0 3.770312,1.785937 1.513086,1.785937 1.513086,4.650879 z m -2.59209,0.08682 q 0,-0.917773 -0.198437,-1.872754 -0.198438,-0.95498 -0.620117,-1.661914 -0.42168,-0.719336 -1.103809,-1.16582 -0.682129,-0.446484 -1.637109,-0.446484 -0.868164,0 -1.525488,0.347265 -0.644922,0.334864 -1.165821,0.917774 v 7.118945 q 0.07441,0.297656 0.285254,0.694531 0.223242,0.396875 0.595313,0.756543 0.37207,0.347266 0.843359,0.570508 0.471289,0.21084 1.153418,0.21084 1.513086,0 2.443262,-1.463477 0.930175,-1.463476 0.930175,-4.005957 z"
         id="path_b" />
      <path
         d="m 42.2833,29.74453 q -2.654102,0 -4.154785,-1.761132 -1.500684,-1.761133 -1.500684,-4.725293 0,-1.289844 0.396875,-2.406055 0.409277,-1.128613 1.178223,-2.046387 0.731738,-0.880566 1.835547,-1.413867 1.103808,-0.545703 2.406054,-0.545703 1.79834,0 2.926953,0.868164 1.128614,0.855762 1.128614,2.344043 0,0.620117 -0.297657,1.103809 -0.297656,0.471289 -0.979785,0.471289 -0.731738,0 -1.141015,-0.372071 -0.396875,-0.37207 -0.396875,-0.830957 0,-0.558105 0.148828,-1.141015 0.148828,-0.595313 0.173632,-0.868164 -0.223242,-0.384473 -0.669726,-0.508496 -0.434082,-0.136426 -0.942578,-0.136426 -0.595313,0 -1.141016,0.260449 -0.533301,0.248047 -1.041797,0.930176 -0.458886,0.620117 -0.74414,1.674316 -0.285254,1.0542 -0.285254,2.517676 0,2.306836 1.016992,3.770312 1.029395,1.451075 2.691309,1.451075 1.203027,0 2.009179,-0.58291 0.818555,-0.582911 1.513086,-1.748731 l 0.79375,0.520899 q -0.818555,1.463476 -2.158008,2.319238 -1.339453,0.855761 -2.765722,0.855761 z"
         id="path_c" />
      <path
         d="m 61.55654,29.198827 -4.266406,0.272852 -0.186035,-0.173633 v -1.141015 l -0.09922,-0.02481 q -0.644922,0.719336 -1.599903,1.178222 -0.942578,0.458887 -1.947167,0.458887 -1.041797,0 -2.021582,-0.458887 -0.967383,-0.471289 -1.686719,-1.314648 -0.731738,-0.855762 -1.16582,-2.058789 -0.42168,-1.203027 -0.42168,-2.654102 0,-1.32705 0.458887,-2.517675 0.458886,-1.190625 1.265039,-2.083594 0.756543,-0.830957 1.847949,-1.327051 1.103808,-0.496093 2.244824,-0.496093 0.855762,0 1.674316,0.223242 0.830957,0.21084 1.42627,0.545703 v -4.254004 q 0,-0.520898 -0.173633,-0.942578 -0.173633,-0.434082 -0.483691,-0.657324 -0.347266,-0.235645 -0.942578,-0.334864 -0.582911,-0.111621 -1.265039,-0.16123 v -0.768945 l 4.998144,-0.285254 0.186035,0.186035 v 16.495117 q 0,0.434082 0.161231,0.74414 0.173632,0.297657 0.496093,0.508497 0.235645,0.148828 0.682129,0.186035 0.446485,0.03721 0.818555,0.04961 z M 57.079294,27.053222 V 19.89707 q -0.09922,-0.322461 -0.322461,-0.694532 -0.223242,-0.37207 -0.558106,-0.682128 -0.359667,-0.310059 -0.843359,-0.508497 -0.483691,-0.210839 -1.128613,-0.210839 -0.744141,0 -1.37666,0.384472 -0.620117,0.384473 -1.103809,1.103809 -0.458887,0.694531 -0.731738,1.773535 -0.260449,1.066602 -0.260449,2.368848 0,1.041796 0.198437,1.897558 0.198438,0.84336 0.669727,1.575098 0.434082,0.694531 1.103808,1.116211 0.682129,0.421679 1.612305,0.421679 0.992187,0 1.637109,-0.434082 0.657324,-0.434082 1.103809,-0.95498 z"
         id="path_d" />
      <path
         d="m 73.611621,26.544726 q -0.768945,1.463476 -2.058789,2.33164 -1.289844,0.868164 -2.96416,0.868164 -1.475879,0 -2.59209,-0.520898 -1.103808,-0.520898 -1.823144,-1.413867 -0.719336,-0.892969 -1.079004,-2.083594 -0.347266,-1.190625 -0.347266,-2.517676 0,-1.190625 0.37207,-2.33164 0.384473,-1.153418 1.116211,-2.071192 0.706934,-0.880566 1.748731,-1.413867 1.054199,-0.545703 2.356445,-0.545703 1.339453,0 2.294434,0.42168 0.95498,0.42168 1.550293,1.153418 0.570507,0.694531 0.843359,1.637109 0.285254,0.942578 0.285254,2.046387 v 0.818555 h -8.09873 q 0,1.203027 0.223242,2.182812 0.235644,0.979785 0.731738,1.723926 0.483691,0.719336 1.265039,1.141015 0.781348,0.409278 1.860352,0.409278 1.103808,0 1.897558,-0.508496 0.806152,-0.520899 1.550293,-1.860352 z m -2.740918,-4.663281 q 0,-0.694532 -0.124023,-1.488282 -0.111621,-0.79375 -0.372071,-1.32705 -0.285253,-0.570508 -0.781347,-0.930176 -0.496094,-0.359668 -1.277442,-0.359668 -1.302246,0 -2.17041,1.091406 -0.855761,1.079004 -0.930175,3.01377 z"
         id="path_e" />
      <path
         d="m 84.128809,11.699121 q 0,0.558105 -0.297657,0.942578 -0.297656,0.384472 -0.905371,0.384472 -0.384472,0 -0.682129,-0.16123 -0.285253,-0.161231 -0.5333,-0.434082 -0.248047,-0.272852 -0.458887,-0.620117 -0.21084,-0.347266 -0.359668,-0.558106 -0.830957,0.03721 -1.289844,1.165821 -0.446484,1.11621 -0.446484,3.571874 v 1.252637 h 3.150195 v 1.190625 h -3.150195 v 8.780859 q 0,0.434082 0.16123,0.706934 0.173633,0.272852 0.533301,0.409277 0.297656,0.111621 0.79375,0.186035 0.496094,0.06201 0.855762,0.08682 v 0.818555 h -6.449219 v -0.818555 q 0.285254,-0.02481 0.58291,-0.04961 0.310059,-0.02481 0.533301,-0.09922 0.347266,-0.111621 0.508496,-0.384473 0.173633,-0.285254 0.173633,-0.731738 v -8.904883 h -2.418457 v -1.190625 h 2.418457 v -0.781347 q 0,-2.790528 1.438672,-4.514454 1.451074,-1.736328 3.621484,-1.736328 1.103809,0 1.661914,0.434082 0.558106,0.434082 0.558106,1.0542 z"
         id="path_f" />
      <path
         d="m 93.765433,28.157031 q 0.496094,0.471289 0.781347,1.066601 0.285254,0.595313 0.285254,1.475879 0,0.880566 -0.384472,1.649512 -0.384473,0.781347 -1.165821,1.351855 -0.830957,0.58291 -1.984375,0.905371 -1.153418,0.322461 -2.852539,0.322461 -2.778125,0 -4.154785,-0.818555 -1.37666,-0.806152 -1.37666,-2.368847 0,-1.265039 0.992188,-1.996778 0.992187,-0.731738 2.530078,-0.79375 v -0.173632 q -0.372071,-0.111621 -0.768946,-0.272852 -0.396875,-0.173633 -0.682128,-0.396875 -0.322461,-0.260449 -0.520899,-0.607715 -0.198437,-0.359668 -0.198437,-0.880566 0,-0.657324 0.458886,-1.203027 0.471289,-0.558106 1.413867,-0.954981 v -0.186035 q -1.190625,-0.558105 -1.847949,-1.42627 -0.657324,-0.880566 -0.657324,-2.033984 0,-1.736328 1.289844,-2.852539 1.302246,-1.116211 3.323828,-1.116211 0.558105,0 1.103808,0.111621 0.558106,0.111621 1.128614,0.285254 h 4.266406 v 1.190625 h -2.877344 v 0.07441 q 0.458887,0.533301 0.682129,1.178223 0.223242,0.644922 0.223242,1.265039 0,1.612305 -1.314648,2.728515 -1.302246,1.116211 -3.038574,1.116211 h -1.500684 q -0.285254,0.09922 -0.595312,0.359668 -0.310059,0.26045 -0.310059,0.706934 0,0.458887 0.260449,0.706934 0.260449,0.235644 0.63252,0.32246 0.359668,0.09922 0.830957,0.124024 0.483691,0.02481 0.992187,0.03721 0.545703,0.0124 1.488281,0.07441 0.954981,0.06201 1.351856,0.07441 0.570508,0.02481 1.141016,0.272852 0.58291,0.248046 1.054199,0.682129 z M 90.4168,20.90166 q 0,-1.451075 -0.595312,-2.306836 -0.582911,-0.868164 -1.649512,-0.868164 -0.58291,0 -1.00459,0.248046 -0.409277,0.235645 -0.669727,0.682129 -0.248046,0.409278 -0.359668,0.992188 -0.09922,0.570508 -0.09922,1.178222 0,1.376661 0.595312,2.244825 0.607715,0.868164 1.562695,0.868164 1.066602,0 1.63711,-0.855762 0.58291,-0.868164 0.58291,-2.182812 z m 2.38125,10.256738 q 0,-0.694532 -0.322461,-1.141016 -0.322461,-0.446484 -0.979785,-0.607715 -0.347266,-0.04961 -1.42627,-0.111621 -1.079004,-0.06201 -2.505273,-0.06201 -1.339453,0.26045 -1.909961,0.868164 -0.558105,0.620118 -0.558105,1.5875 0,0.434082 0.186035,0.830957 0.186035,0.396875 0.644922,0.731739 0.434082,0.322461 1.16582,0.520898 0.731738,0.21084 1.785937,0.21084 1.823145,0 2.864942,-0.706934 1.054199,-0.694531 1.054199,-2.1208 z"
         id="path_g" />
      <path
         d="m 109.504,29.42207 h -6.00273 v -0.818555 q 0.28525,-0.02481 0.63252,-0.04961 0.34726,-0.02481 0.5705,-0.09922 0.34727,-0.111621 0.5085,-0.384473 0.17363,-0.285254 0.17363,-0.731738 v -6.287988 q 0,-1.302246 -0.62011,-2.00918 -0.60772,-0.706934 -1.48829,-0.706934 -0.64492,0 -1.20302,0.21084 -0.54571,0.198438 -0.97979,0.496094 -0.42168,0.310059 -0.64492,0.620117 -0.22324,0.310059 -0.34727,0.520899 v 7.032128 q 0,0.42168 0.16123,0.694532 0.17364,0.272851 0.5209,0.421679 0.27285,0.124024 0.55811,0.186035 0.29766,0.06201 0.64492,0.08682 v 0.818555 h -6.002734 v -0.818555 q 0.285254,-0.02481 0.595313,-0.04961 0.310058,-0.03721 0.520898,-0.09922 0.347266,-0.111621 0.520899,-0.384473 0.173633,-0.285254 0.173633,-0.731738 V 13.100585 q 0,-0.421679 -0.198438,-0.843359 -0.186035,-0.42168 -0.496094,-0.632519 -0.223242,-0.161231 -0.79375,-0.223243 -0.558105,-0.07441 -0.905371,-0.09922 v -0.79375 l 4.526856,-0.285254 0.173628,0.186035 v 8.532812 h 0.0496 q 0.40928,-0.409277 0.74414,-0.719336 0.33487,-0.322461 0.88057,-0.669726 0.47129,-0.297656 1.10381,-0.496094 0.64492,-0.198437 1.43867,-0.198437 1.63711,0 2.51768,1.041796 0.88056,1.029395 0.88056,2.976563 v 6.362402 q 0,0.434082 0.14883,0.706934 0.16123,0.260449 0.5209,0.409277 0.28525,0.111621 0.5085,0.173633 0.23564,0.04961 0.60771,0.07441 z"
         id="path_h" />
      <path
         d="m 116.94541,29.42207 h -5.91592 v -0.818555 q 0.28525,-0.02481 0.58291,-0.04961 0.31006,-0.02481 0.5333,-0.09922 0.34726,-0.111621 0.50849,-0.384473 0.17364,-0.285254 0.17364,-0.731738 v -7.553027 q 0,-0.396875 -0.18604,-0.719336 -0.17363,-0.334864 -0.49609,-0.558106 -0.23565,-0.148828 -0.68213,-0.248047 -0.44648,-0.111621 -0.81855,-0.136425 v -0.806153 l 4.31601,-0.272851 0.17363,0.173632 v 9.971485 q 0,0.434082 0.16123,0.719336 0.17364,0.285254 0.5333,0.421679 0.27286,0.111621 0.53331,0.186035 0.26044,0.06201 0.58291,0.08682 z m -1.5627,-17.202051 q 0,0.706934 -0.47129,1.240234 -0.45889,0.520899 -1.14101,0.520899 -0.63252,0 -1.10381,-0.496094 -0.45889,-0.508496 -0.45889,-1.153418 0,-0.682129 0.45889,-1.190625 0.47129,-0.508496 1.10381,-0.508496 0.70693,0 1.15341,0.483691 0.45889,0.47129 0.45889,1.103809 z"
         id="path_i" />
      <path
         d="m 122.89853,28.677929 q 0,1.364258 -0.39687,2.554883 -0.39688,1.203027 -1.0542,1.984375 -0.70694,0.830957 -1.59991,1.265039 -0.88056,0.446484 -1.94716,0.446484 -1.10381,0 -1.66192,-0.446484 -0.5581,-0.434082 -0.5581,-1.029395 0,-0.533301 0.29765,-0.942578 0.29766,-0.396875 0.86817,-0.396875 0.38447,0 0.68213,0.161231 0.29765,0.16123 0.52089,0.421679 0.19844,0.223242 0.39688,0.545703 0.21084,0.334864 0.39687,0.644922 0.94258,0 1.33946,-1.141015 0.40927,-1.141016 0.40927,-3.658692 v -9.202539 q 0,-0.396875 -0.19843,-0.756543 -0.18604,-0.37207 -0.4961,-0.595312 -0.19843,-0.136426 -0.95498,-0.272852 -0.74414,-0.136425 -1.12861,-0.173632 v -0.768946 l 4.91133,-0.272851 0.17363,0.173632 z m 0.18604,-16.470312 q 0,0.706933 -0.47129,1.240234 -0.45889,0.520898 -1.14102,0.520898 -0.63252,0 -1.10381,-0.496093 -0.45888,-0.508496 -0.45888,-1.153418 0,-0.682129 0.45888,-1.190625 0.47129,-0.508496 1.10381,-0.508496 0.70693,0 1.15342,0.483691 0.45889,0.471289 0.45889,1.103809 z"
         id="path_j" />
      <path
         d="m 138.82314,29.42207 h -3.6959 q -0.96738,-1.401465 -2.07119,-3.001368 -1.10381,-1.599902 -2.29443,-3.112988 l -1.01699,0.954981 v 2.902148 q 0,0.446484 0.16123,0.744141 0.16123,0.285254 0.52089,0.421679 0.29766,0.124024 0.57051,0.186035 0.27285,0.06201 0.63252,0.08682 v 0.818555 h -6.00273 v -0.818555 q 0.28525,-0.02481 0.59531,-0.04961 0.31006,-0.03721 0.5209,-0.09922 0.34726,-0.111621 0.5209,-0.384473 0.17363,-0.285254 0.17363,-0.731738 V 13.12539 q 0,-0.458887 -0.19844,-0.855762 -0.18603,-0.409277 -0.49609,-0.620117 -0.26045,-0.198437 -0.81856,-0.260449 -0.5457,-0.06201 -0.88056,-0.08682 v -0.79375 l 4.52685,-0.285254 0.17364,0.186035 v 12.935644 q 0.96738,-0.967383 2.08359,-2.071191 1.12861,-1.116211 1.89756,-1.984375 0.0992,-0.111621 0.21084,-0.285254 0.12402,-0.186035 0.12402,-0.297656 0,-0.334864 -0.5457,-0.496094 -0.5333,-0.16123 -1.0294,-0.223242 v -0.79375 h 5.38262 v 0.768945 q -1.0418,0.310059 -1.84795,0.781348 -0.79375,0.458886 -1.21543,0.830957 -0.29765,0.248047 -0.84336,0.806152 -0.5457,0.558106 -1.52549,1.463477 1.017,1.252636 2.28204,3.001367 1.27744,1.74873 1.86035,2.530078 0.5457,0.731738 0.97978,0.95498 0.43408,0.223243 1.26504,0.272852 z"
         id="path_k" />
      <path
         d="m 145.19795,29.42207 h -5.96552 v -0.818555 q 0.28525,-0.02481 0.60771,-0.04961 0.32246,-0.03721 0.5333,-0.09922 0.34727,-0.111621 0.5209,-0.384473 0.17363,-0.285254 0.17363,-0.731738 V 13.174999 q 0,-0.446484 -0.19844,-0.830957 -0.18603,-0.396875 -0.49609,-0.620117 -0.22324,-0.148828 -0.81855,-0.272851 -0.59532,-0.124024 -0.95498,-0.148828 v -0.79375 l 4.60127,-0.285254 0.17363,0.186035 v 16.780371 q 0,0.434082 0.16123,0.719336 0.16123,0.272851 0.5209,0.421679 0.27285,0.124024 0.5333,0.186035 0.27285,0.06201 0.60771,0.08682 z"
         id="path_l" />
      <path
         d="m 167.68339,29.42207 h -5.96553 v -0.818555 q 0.28526,-0.02481 0.57051,-0.04961 0.29766,-0.02481 0.5209,-0.09922 0.34726,-0.111621 0.50849,-0.384473 0.17364,-0.285254 0.17364,-0.731738 v -6.312793 q 0,-1.289844 -0.59532,-1.984375 -0.58291,-0.706934 -1.46347,-0.706934 -0.60772,0 -1.14102,0.186036 -0.5333,0.186035 -0.97978,0.520898 -0.35967,0.272852 -0.60772,0.595312 -0.23564,0.310059 -0.35967,0.520899 v 7.056933 q 0,0.434082 0.14883,0.719336 0.14883,0.272852 0.5085,0.42168 0.28525,0.111621 0.50849,0.173633 0.23565,0.04961 0.60772,0.07441 v 0.818555 h -5.8415 v -0.818555 q 0.28525,-0.02481 0.5457,-0.04961 0.27285,-0.02481 0.49609,-0.09922 0.34727,-0.111621 0.5085,-0.384473 0.17363,-0.285254 0.17363,-0.731738 v -6.312793 q 0,-1.289844 -0.59531,-1.984375 -0.58291,-0.706934 -1.46348,-0.706934 -0.60771,0 -1.14101,0.198438 -0.5333,0.186035 -0.97979,0.520898 -0.35967,0.272852 -0.60771,0.620118 -0.24805,0.334863 -0.37207,0.508496 v 7.007324 q 0,0.421679 0.17363,0.706933 0.17363,0.285254 0.5209,0.434082 0.26045,0.124024 0.5333,0.186035 0.27285,0.06201 0.60771,0.08682 v 0.818555 h -5.94072 v -0.818555 q 0.28525,-0.02481 0.58291,-0.04961 0.31006,-0.02481 0.5333,-0.09922 0.34727,-0.111621 0.5085,-0.384473 0.17363,-0.285254 0.17363,-0.731738 v -7.602637 q 0,-0.396875 -0.18603,-0.706933 -0.17364,-0.322461 -0.4961,-0.545703 -0.23564,-0.148829 -0.58291,-0.235645 -0.34726,-0.09922 -0.71933,-0.124023 v -0.806153 l 4.09277,-0.272851 0.17363,0.173632 v 1.748731 h 0.0868 q 0.31006,-0.310059 0.75654,-0.731738 0.44649,-0.42168 0.83096,-0.682129 0.43408,-0.297656 1.079,-0.496094 0.65733,-0.198437 1.41387,-0.198437 1.19062,0 2.04639,0.644921 0.85576,0.63252 1.22783,1.537891 0.44648,-0.434082 0.78135,-0.756543 0.34726,-0.334863 0.90537,-0.706934 0.47129,-0.32246 1.10381,-0.520898 0.64492,-0.198437 1.42626,-0.198437 1.5503,0 2.45567,1.016992 0.90537,1.016992 0.90537,3.12539 v 6.213574 q 0,0.434082 0.14883,0.719336 0.14883,0.272852 0.50849,0.42168 0.28526,0.111621 0.55811,0.173633 0.28525,0.04961 0.63252,0.07441 z"
         id="path_m" />
      <path
         d="m 182.61582,29.42207 h -5.99033 v -0.818555 q 0.28526,-0.02481 0.62012,-0.04961 0.34726,-0.02481 0.57051,-0.09922 0.34726,-0.111621 0.50849,-0.384473 0.17364,-0.285254 0.17364,-0.731738 v -6.287988 q 0,-1.302246 -0.62012,-2.00918 -0.60772,-0.706934 -1.48828,-0.706934 -0.65733,0 -1.20303,0.21084 -0.5457,0.198438 -0.96738,0.496094 -0.40928,0.285254 -0.65733,0.620117 -0.23564,0.322461 -0.34726,0.520899 v 7.032128 q 0,0.42168 0.17363,0.694532 0.17363,0.272851 0.5209,0.421679 0.26045,0.124024 0.5581,0.186035 0.31006,0.06201 0.63252,0.08682 v 0.818555 h -5.99033 v -0.818555 q 0.28526,-0.02481 0.58291,-0.04961 0.31006,-0.02481 0.5333,-0.09922 0.34727,-0.111621 0.5085,-0.384473 0.17363,-0.285254 0.17363,-0.731738 v -7.553027 q 0,-0.42168 -0.18603,-0.768946 -0.17364,-0.359668 -0.4961,-0.58291 -0.23564,-0.148828 -0.5581,-0.21084 -0.32246,-0.07441 -0.69453,-0.09922 v -0.806153 l 4.06796,-0.272851 0.17364,0.173632 v 1.723926 h 0.062 q 0.29765,-0.297656 0.74414,-0.706933 0.44648,-0.42168 0.84336,-0.682129 0.45889,-0.297656 1.0914,-0.496094 0.63252,-0.198437 1.42627,-0.198437 1.76114,0 2.6045,1.103808 0.85576,1.091406 0.85576,2.914551 v 6.362402 q 0,0.434082 0.14883,0.706934 0.14882,0.260449 0.50849,0.409277 0.29766,0.124023 0.5085,0.173633 0.22324,0.04961 0.60771,0.07441 z"
         id="path_n" />
      <path
         d="m 196.03516,23.183691 q 0,1.289843 -0.40928,2.54248 -0.40928,1.240235 -1.16582,2.108399 -0.85576,0.992187 -1.98437,1.475878 -1.12862,0.483692 -2.53008,0.483692 -1.16582,0 -2.22002,-0.434082 -1.0542,-0.446485 -1.87275,-1.289844 -0.80616,-0.830957 -1.28985,-2.021582 -0.47129,-1.203027 -0.47129,-2.691308 0,-2.864942 1.66192,-4.688086 1.67431,-1.823145 4.37802,-1.823145 2.56729,0 4.2292,1.736328 1.67432,1.723926 1.67432,4.60127 z m -2.56729,0.0248 q 0,-0.930175 -0.18603,-1.95957 -0.18604,-1.041797 -0.55811,-1.761133 -0.39687,-0.768945 -1.04179,-1.227832 -0.64493,-0.471289 -1.5751,-0.471289 -0.95498,0 -1.63711,0.471289 -0.66973,0.471289 -1.09141,1.289844 -0.39687,0.756543 -0.5581,1.723926 -0.16123,0.967383 -0.16123,1.872754 0,1.190625 0.18603,2.207617 0.19844,1.00459 0.62012,1.79834 0.42168,0.79375 1.0542,1.252636 0.64492,0.446485 1.5875,0.446485 1.55029,0 2.45566,-1.500684 0.90537,-1.500683 0.90537,-4.142383 z"
         id="path_o" />
      <path
         d="m 208.9832,18.644433 q 0.73174,0.868164 1.12862,2.021582 0.40927,1.141016 0.40927,2.616894 0,1.451075 -0.48369,2.654102 -0.48369,1.190625 -1.27744,2.033984 -0.83096,0.855762 -1.84795,1.314649 -1.01699,0.458886 -2.15801,0.458886 -1.1038,0 -1.81074,-0.248046 -0.70693,-0.248047 -1.15342,-0.582911 h -0.0992 v 3.671094 q 0,0.446485 0.17363,0.744141 0.17363,0.297656 0.5333,0.434082 0.29765,0.111621 0.84336,0.21084 0.5581,0.111621 0.91777,0.124023 V 34.92871 H 197.325 v -0.830957 q 0.38447,-0.02481 0.74414,-0.06201 0.35967,-0.03721 0.64492,-0.124023 0.37207,-0.124024 0.5209,-0.434082 0.14883,-0.310059 0.14883,-0.731738 V 19.735839 q 0,-0.37207 -0.18604,-0.719336 -0.18603,-0.347265 -0.48369,-0.558105 -0.22324,-0.148828 -0.62011,-0.223242 -0.39688,-0.08682 -0.76895,-0.111621 v -0.806153 l 4.16719,-0.272851 0.17363,0.148828 v 1.37666 l 0.0992,0.02481 q 0.64492,-0.744141 1.5999,-1.240235 0.95498,-0.496093 1.89756,-0.496093 1.14102,0 2.08359,0.483691 0.95498,0.483691 1.63711,1.302246 z m -2.02158,8.793262 q 0.49609,-0.768946 0.73174,-1.785938 0.23564,-1.016992 0.23564,-2.269629 0,-0.917773 -0.19843,-1.872754 -0.19844,-0.95498 -0.62012,-1.661914 -0.42168,-0.719336 -1.10381,-1.16582 -0.68213,-0.446484 -1.63711,-0.446484 -0.91777,0 -1.56269,0.409277 -0.64493,0.396875 -1.11621,0.95498 v 7.230567 q 0.11162,0.334863 0.35966,0.694531 0.26045,0.359668 0.57051,0.620117 0.38447,0.310059 0.83096,0.508496 0.44648,0.186035 1.0914,0.186035 0.69454,0 1.33946,-0.359668 0.64492,-0.37207 1.079,-1.041796 z"
         id="path_p" />
      <path
         d="m 225.73877,34.92871 h -6.61045 v -0.830957 q 0.38447,-0.02481 0.75654,-0.06201 0.37207,-0.03721 0.66973,-0.124023 0.38447,-0.124024 0.5333,-0.434082 0.14883,-0.310059 0.14883,-0.731738 v -4.514453 l -0.0744,-0.02481 q -0.19843,0.223242 -0.5705,0.520898 -0.35967,0.285254 -0.75655,0.471289 -0.49609,0.26045 -0.95498,0.396875 -0.45888,0.148828 -1.15341,0.148828 -1.11622,0 -2.1084,-0.458886 -0.97979,-0.471289 -1.71153,-1.327051 -0.73173,-0.843359 -1.16582,-2.071191 -0.42168,-1.240235 -0.42168,-2.716114 0,-1.401464 0.4961,-2.54248 0.49609,-1.153418 1.31465,-2.00918 0.78134,-0.806152 1.87275,-1.277441 1.10381,-0.483691 2.18281,-0.483691 0.80615,0 1.42627,0.16123 0.63252,0.148828 1.07901,0.359668 0.38447,0.16123 0.76894,0.42168 0.38447,0.248047 0.5457,0.334863 l 1.0542,-1.612305 0.70694,0.09922 q -0.0496,0.917773 -0.13643,2.257227 -0.0744,1.339453 -0.0744,2.344042 v 11.310938 q 0,0.434082 0.16123,0.74414 0.16123,0.322461 0.5209,0.483692 0.29765,0.124023 0.75654,0.21084 0.45889,0.09922 0.74414,0.124023 z m -4.50205,-7.776269 V 19.84746 q -0.0992,-0.310058 -0.33486,-0.682129 -0.23565,-0.384472 -0.55811,-0.669726 -0.34727,-0.297656 -0.85576,-0.496094 -0.4961,-0.198437 -1.15342,-0.198437 -1.45107,0 -2.44326,1.500683 -0.97979,1.500684 -0.97979,4.129981 0,1.041796 0.18604,1.885156 0.19844,0.843359 0.66973,1.575097 0.44648,0.694532 1.12861,1.116211 0.68213,0.409278 1.72392,0.409278 0.89297,0 1.52549,-0.372071 0.63252,-0.384472 1.09141,-0.892968 z"
         id="path_q" />
      <path
         d="m 235.89629,18.768456 q 0,0.63252 -0.31006,1.128614 -0.31006,0.483691 -0.95498,0.483691 -0.69453,0 -1.0666,-0.359668 -0.35967,-0.359668 -0.35967,-0.79375 0,-0.272851 0.0372,-0.496094 0.0496,-0.223242 0.0868,-0.446484 -0.58291,0 -1.36426,0.471289 -0.78135,0.471289 -1.32705,1.339453 v 7.118945 q 0,0.434082 0.16123,0.706934 0.17363,0.272852 0.5333,0.409277 0.31006,0.124024 0.79375,0.186035 0.49609,0.06201 0.85576,0.08682 v 0.818555 h -6.44922 v -0.818555 q 0.28526,-0.02481 0.58291,-0.04961 0.31006,-0.02481 0.5333,-0.09922 0.34727,-0.111621 0.5085,-0.384473 0.17363,-0.285254 0.17363,-0.731738 v -7.553027 q 0,-0.384473 -0.18603,-0.756543 -0.17364,-0.372071 -0.4961,-0.595313 -0.23564,-0.148828 -0.5581,-0.21084 -0.32246,-0.07441 -0.69453,-0.09922 v -0.806153 l 4.06797,-0.272851 0.17363,0.173632 v 1.723926 h 0.062 q 0.76895,-1.00459 1.71152,-1.525488 0.94258,-0.520898 1.72393,-0.520898 0.78135,0 1.26504,0.508496 0.49609,0.508496 0.49609,1.364257 z"
         id="path_r" />
      <path
         d="m 245.01201,23.431738 q 0.5085,0.446484 0.78135,1.029394 0.27285,0.58291 0.27285,1.42627 0,1.699121 -1.27744,2.778125 -1.26504,1.079003 -3.28662,1.079003 -1.0666,0 -1.97197,-0.384472 -0.89297,-0.384473 -1.27745,-0.706934 l -0.24804,0.806153 h -0.93018 l -0.12402,-4.254004 h 0.85576 q 0.0992,0.483691 0.42168,1.128613 0.32246,0.644922 0.78135,1.16582 0.48369,0.545703 1.15342,0.917774 0.68212,0.37207 1.52548,0.37207 1.19063,0 1.83555,-0.533301 0.64492,-0.545703 0.64492,-1.550293 0,-0.520898 -0.21084,-0.892968 -0.19843,-0.384473 -0.59531,-0.669727 -0.40928,-0.285254 -1.00459,-0.508496 -0.59531,-0.235645 -1.32705,-0.458887 -0.58291,-0.173633 -1.30225,-0.471289 -0.70693,-0.310058 -1.21543,-0.719336 -0.5457,-0.434082 -0.89296,-1.066601 -0.34727,-0.63252 -0.34727,-1.488282 0,-1.500683 1.11621,-2.54248 1.11621,-1.041797 2.98897,-1.041797 0.71933,0 1.46347,0.186035 0.75654,0.186035 1.22783,0.446485 l 0.28526,-0.644922 h 0.89297 l 0.18603,3.931543 h -0.85576 q -0.26045,-1.314649 -1.12861,-2.133203 -0.85577,-0.830957 -2.096,-0.830957 -1.01699,0 -1.5999,0.508496 -0.58291,0.508496 -0.58291,1.227832 0,0.558105 0.18603,0.930175 0.19844,0.372071 0.58291,0.63252 0.37207,0.248047 0.93018,0.471289 0.57051,0.21084 1.40146,0.483691 0.81856,0.26045 1.53789,0.607715 0.73174,0.347266 1.20303,0.768946 z"
         id="path_s" />
      <path
         d="m 255.46719,28.888769 q -0.80615,0.334863 -1.52549,0.558105 -0.71934,0.235645 -1.76113,0.235645 -1.53789,0 -2.17041,-0.768946 -0.62012,-0.781347 -0.62012,-2.195214 v -8.284766 h -2.20762 v -1.190625 h 2.25723 v -3.807519 h 2.25723 v 3.807519 h 3.50986 v 1.190625 h -3.48506 v 6.833691 q 0,0.768946 0.0496,1.289844 0.062,0.508496 0.27285,0.892969 0.19844,0.359668 0.59531,0.545703 0.39688,0.186035 1.0666,0.186035 0.31006,0 0.90538,-0.04961 0.60771,-0.06201 0.85576,-0.148828 z"
         id="path_t" />
      <path
         d="m 269.79189,29.198827 -3.98116,0.272852 -0.18603,-0.173633 v -1.550293 h -0.0744 q -0.29765,0.310059 -0.66972,0.669727 -0.37207,0.347265 -0.85576,0.632519 -0.55811,0.334864 -1.07901,0.508496 -0.5209,0.173633 -1.47588,0.173633 -1.6247,0 -2.48047,-1.054199 -0.84336,-1.066602 -0.84336,-3.088184 v -5.853906 q 0,-0.446484 -0.17363,-0.74414 -0.16123,-0.310059 -0.48369,-0.533301 -0.22324,-0.148828 -0.5581,-0.21084 -0.33487,-0.07441 -0.70694,-0.09922 v -0.806152 l 4.08037,-0.297656 0.18604,0.173632 v 8.495606 q 0,1.327051 0.59531,1.996777 0.59531,0.669727 1.42627,0.669727 0.68213,0 1.21543,-0.21084 0.5333,-0.21084 0.89297,-0.496094 0.33486,-0.260449 0.58291,-0.545703 0.26045,-0.297656 0.39687,-0.545703 v -6.93291 q 0,-0.409278 -0.17363,-0.719336 -0.17363,-0.322461 -0.48369,-0.545703 -0.22324,-0.148828 -0.66973,-0.173633 -0.43408,-0.03721 -0.97978,-0.06201 v -0.806152 l 4.44004,-0.297656 0.18603,0.173632 v 9.711035 q 0,0.42168 0.17363,0.719336 0.17364,0.297657 0.4837,0.508497 0.22324,0.136425 0.5333,0.186035 0.31006,0.03721 0.68213,0.04961 z"
         id="path_u" />
      <path
         d="m 283.37246,17.949902 q -0.5581,0.09922 -1.0666,0.409277 -0.49609,0.297656 -0.85576,1.066602 -0.73174,1.661914 -1.51309,3.472656 -0.78135,1.79834 -1.62471,3.782715 -0.24804,0.570507 -0.5333,1.351855 -0.27285,0.781348 -0.50849,1.500684 h -0.96738 q -1.17823,-2.914551 -2.17042,-5.308203 -0.99218,-2.406055 -2.05878,-4.923731 -0.24805,-0.570508 -0.80616,-0.880566 -0.5457,-0.322461 -1.1038,-0.409278 v -0.818554 h 5.65546 v 0.868164 q -0.37207,0.0124 -0.93017,0.16123 -0.55811,0.136426 -0.55811,0.384473 0,0.03721 0.062,0.198437 0.062,0.148829 0.12403,0.347266 0.50849,1.265039 1.43867,3.534668 0.93018,2.269629 1.51309,3.658691 0.44648,-1.066601 1.11621,-2.654101 0.68213,-1.5875 1.46347,-3.54707 0.12403,-0.334864 0.23565,-0.620118 0.11162,-0.297656 0.11162,-0.595312 0,-0.21084 -0.21084,-0.37207 -0.19844,-0.173633 -0.48369,-0.297657 -0.28526,-0.124023 -0.55811,-0.186035 -0.27285,-0.06201 -0.44648,-0.08682 v -0.79375 h 4.67568 z"
         id="path_v" />
      <path
         d="m 302.12481,17.987109 q -0.5209,0.04961 -1.12861,0.434082 -0.59532,0.384472 -0.86817,1.153418 -0.62011,1.823144 -1.17822,3.460254 -0.5457,1.624707 -1.22783,3.658691 -0.22324,0.644922 -0.45889,1.389062 -0.22324,0.744141 -0.40928,1.42627 h -1.0666 l -3.28662,-9.004101 -3.31142,9.004101 h -1.017 q -0.93017,-2.75332 -1.82314,-5.457031 -0.88057,-2.716113 -1.5627,-4.725293 -0.19843,-0.58291 -0.75654,-0.917774 -0.5581,-0.334863 -1.079,-0.396875 v -0.818554 h 5.45703 v 0.868164 q -0.40928,0.0124 -0.89297,0.136426 -0.47129,0.124023 -0.47129,0.409277 0,0.04961 0.0372,0.21084 0.0496,0.16123 0.11162,0.347265 0.39687,1.302246 0.89297,2.914551 0.50849,1.599902 1.30224,4.167188 l 3.12539,-8.805664 h 1.19063 l 3.1874,8.68164 q 0.5333,-1.661914 1.0542,-3.212207 0.5333,-1.562695 0.93018,-2.926953 0.0868,-0.322461 0.16123,-0.58291 0.0868,-0.272852 0.0868,-0.533301 0,-0.223242 -0.19843,-0.396875 -0.19844,-0.173633 -0.4837,-0.285254 -0.24804,-0.09922 -0.5457,-0.148828 -0.28525,-0.04961 -0.42168,-0.04961 v -0.79375 h 4.65088 z"
         id="path_w" />
      <path
         d="m 314.41553,29.42207 h -5.60586 v -0.818555 q 0.55811,-0.06201 0.94258,-0.124024 0.39688,-0.06201 0.39688,-0.32246 0,-0.111622 -0.12403,-0.347266 -0.12402,-0.235645 -0.24804,-0.434082 -0.31006,-0.483692 -0.85576,-1.289844 -0.53331,-0.818555 -1.31465,-1.947168 -0.64493,0.806153 -1.19063,1.575098 -0.5457,0.756543 -1.14101,1.612304 -0.0868,0.124024 -0.18604,0.310059 -0.0868,0.186035 -0.0868,0.297656 0,0.272852 0.34727,0.458887 0.35967,0.173633 1.0666,0.235645 v 0.79375 h -4.52685 v -0.768946 q 0.84336,-0.248047 1.35185,-0.595312 0.5209,-0.359668 0.95498,-0.880567 0.38448,-0.496093 1.0666,-1.364257 0.69454,-0.868164 1.78594,-2.356446 -0.63252,-0.905371 -1.55029,-2.207617 -0.90537,-1.314648 -1.50069,-2.182812 -0.32246,-0.471289 -0.74414,-0.756543 -0.40927,-0.297657 -1.16582,-0.297657 v -0.818554 h 5.32061 v 0.818554 q -0.39688,0 -0.78135,0.04961 -0.38447,0.04961 -0.38447,0.223242 0,0.111621 0.0744,0.248047 0.0744,0.136426 0.18604,0.297656 0.27285,0.42168 0.84336,1.302246 0.58291,0.880567 1.25263,1.860352 0.43409,-0.595313 1.00459,-1.389063 0.58291,-0.79375 1.06661,-1.513086 0.0496,-0.08682 0.0992,-0.210839 0.0496,-0.136426 0.0496,-0.26045 0,-0.260449 -0.43408,-0.409277 -0.42168,-0.16123 -0.80615,-0.223242 v -0.79375 h 4.51445 v 0.768945 q -0.95498,0.248047 -1.48828,0.595313 -0.5333,0.334863 -0.90537,0.781347 -0.40928,0.508496 -0.97978,1.252637 -0.55811,0.744141 -1.5751,2.083594 1.12861,1.5875 1.83554,2.604492 0.70694,1.016992 1.42627,2.095996 0.35967,0.545703 0.79375,0.868164 0.44649,0.310059 1.21543,0.359668 z"
         id="path_x" />
      <path
         d="m 314.52714,33.415624 q 0,-0.620117 0.33486,-1.016992 0.34727,-0.384473 0.85576,-0.384473 0.39688,0 0.68213,0.148828 0.28525,0.148829 0.5085,0.384473 0.18603,0.186035 0.39687,0.508496 0.21084,0.322461 0.33486,0.533301 0.62012,-0.334863 1.47588,-1.74873 0.86817,-1.413868 1.25264,-2.480469 -1.17822,-2.939356 -2.1332,-5.258594 -0.95498,-2.319238 -1.99678,-4.799707 -0.23564,-0.570508 -0.79375,-0.880566 -0.55811,-0.322461 -1.11621,-0.409278 v -0.818554 h 5.58105 v 0.868164 q -0.37207,0.0124 -0.89297,0.16123 -0.52089,0.136426 -0.52089,0.322461 0,0.07441 0.0496,0.248047 0.062,0.173633 0.13642,0.359668 0.47129,1.227832 1.43867,3.54707 0.96739,2.306836 1.50069,3.695899 0.5581,-1.327051 1.15341,-2.740918 0.60772,-1.42627 1.35186,-3.361035 0.0868,-0.235645 0.24805,-0.644922 0.16123,-0.42168 0.16123,-0.719336 0,-0.322461 -0.57051,-0.595313 -0.55811,-0.285253 -1.0666,-0.347265 v -0.79375 h 4.53926 v 0.768945 q -0.37207,0.06201 -0.97979,0.434082 -0.60771,0.359668 -0.90537,1.029395 -1.47588,3.423046 -2.6293,6.238378 -1.14101,2.815332 -1.73633,4.142383 -0.78134,1.736328 -1.40146,2.703711 -0.60771,0.979785 -1.19062,1.537891 -0.57051,0.520898 -1.0418,0.694531 -0.45889,0.186035 -0.95498,0.186035 -0.96739,0 -1.52549,-0.458887 -0.5457,-0.458886 -0.5457,-1.054199 z"
         id="path_y" />
      <path
         d="m 337.6451,29.42207 h -9.89707 v -0.657325 l 6.92051,-10.566796 h -1.71153 q -1.079,0 -1.68672,0.03721 -0.60771,0.03721 -1.11621,0.248047 -0.34726,0.136425 -0.65732,0.781347 -0.29766,0.644922 -0.5209,1.686719 h -0.75654 v -3.75791 h 9.35136 v 0.508496 l -7.03212,10.715625 q 0.44648,0.0124 0.97978,0.0248 0.5333,0 1.15342,0 0.49609,0 1.02939,-0.0124 0.54571,-0.0124 1.38907,-0.06201 0.49609,-0.0248 0.74414,-0.334863 0.26045,-0.310059 0.39687,-0.706934 0.13643,-0.359667 0.32246,-0.992187 0.19844,-0.63252 0.34727,-1.227832 h 0.74414 z"
         id="path_z" />
    </g>
    <g
       id="text_ABCDEFGHIJKLMNOPQRSTUVWXYZ"
       style="font-size:25.4px;line-height:1.25;font-family:Georgia;-inkscape-font-specification:'Georgia, Normal';stroke-width:0.264583">
      <path
         d="m 27.301269,68.851562 h -7.329785 v -0.880566 q 0.967383,-0.06201 1.599902,-0.248047 0.644922,-0.186035 0.644922,-0.458886 0,-0.111622 -0.0248,-0.272852 -0.0248,-0.161231 -0.07441,-0.285254 l -1.463476,-3.943945 h -6.163965 q -0.347265,0.868164 -0.570508,1.513086 -0.210839,0.644922 -0.384472,1.190625 -0.161231,0.5333 -0.223242,0.868164 -0.06201,0.334863 -0.06201,0.545703 0,0.496094 0.781347,0.768945 0.781348,0.272852 1.761133,0.322461 v 0.880566 H 9.1690428 v -0.880566 q 0.3224609,-0.02481 0.8061523,-0.136426 0.4836919,-0.124023 0.7937499,-0.322461 0.496094,-0.334863 0.768945,-0.694531 0.272852,-0.37207 0.533301,-1.016992 1.327051,-3.311426 2.926953,-7.441406 1.599903,-4.129981 2.852539,-7.35459 h 0.992188 l 5.866308,15.180469 q 0.186035,0.483691 0.42168,0.781347 0.235644,0.297657 0.657324,0.58291 0.285254,0.173633 0.744141,0.297657 0.458886,0.111621 0.768945,0.124023 z m -7.09414,-7.193359 -2.666504,-6.821289 -2.616895,6.821289 z"
         id="path_A" />
      <path
         d="m 40.410545,60.653613 q 0.768946,0.520899 1.277442,1.364258 0.508496,0.84336 0.508496,2.046387 0,1.227832 -0.533301,2.133203 -0.533301,0.905371 -1.389062,1.488281 -0.830957,0.570508 -1.885157,0.868164 -1.041797,0.297656 -2.158007,0.297656 h -8.334375 v -0.880566 q 0.297656,-0.02481 0.868164,-0.09922 0.570508,-0.08682 0.818554,-0.198437 0.384473,-0.173633 0.545704,-0.458887 0.16123,-0.297656 0.16123,-0.756543 V 53.80752 q 0,-0.42168 -0.148828,-0.744141 -0.136426,-0.322461 -0.558106,-0.520898 -0.37207,-0.186035 -0.830957,-0.285254 -0.458886,-0.09922 -0.768945,-0.124024 v -0.880566 h 8.123535 q 0.942578,0 1.79834,0.186035 0.868164,0.186035 1.649512,0.657324 0.731738,0.434082 1.203027,1.178223 0.471289,0.744141 0.471289,1.810742 0,0.930176 -0.334863,1.661914 -0.334864,0.719336 -0.942578,1.240235 -0.570508,0.496093 -1.314649,0.843359 -0.731738,0.334863 -1.5875,0.520898 v 0.111621 q 0.756543,0.08682 1.686719,0.384473 0.942578,0.285254 1.674316,0.806152 z m -2.988964,-2.654101 q 0.458886,-0.533301 0.632519,-1.16582 0.186035,-0.63252 0.186035,-1.500684 0,-1.451074 -0.79375,-2.269629 -0.79375,-0.830957 -2.505273,-0.830957 -0.396875,0 -1.00459,0.02481 -0.595312,0.0124 -1.00459,0.0248 v 6.759278 h 1.575098 q 1.016992,0 1.736328,-0.260449 0.731738,-0.26045 1.178223,-0.781348 z m 1.711523,5.618262 q 0,-1.562696 -1.054199,-2.567286 -1.041797,-1.004589 -2.988965,-1.004589 -0.79375,0 -1.339453,0.0248 -0.545703,0.0124 -0.818555,0.02481 v 6.201172 q 0,0.781347 0.63252,1.178222 0.632519,0.396875 1.761132,0.396875 1.84795,0 2.827735,-1.079004 0.979785,-1.079003 0.979785,-3.174999 z"
         id="path_B" />
      <path
         d="m 52.29199,69.26084 q -1.575098,0 -3.026172,-0.620117 -1.438672,-0.620118 -2.554883,-1.785938 -1.103809,-1.16582 -1.761133,-2.840136 -0.657324,-1.686719 -0.657324,-3.795118 0,-2.108398 0.644922,-3.819921 0.644922,-1.723926 1.785937,-2.964161 1.128614,-1.227832 2.666504,-1.897558 1.537891,-0.669727 3.286621,-0.669727 1.302246,0 2.356446,0.322461 1.054199,0.322461 2.009179,0.905371 l 0.508496,-0.843359 h 0.992188 l 0.111621,6.275586 H 57.6374 q -0.198438,-0.917774 -0.595313,-1.984375 -0.396875,-1.079004 -0.930176,-1.823145 -0.595312,-0.843359 -1.413867,-1.314648 -0.818554,-0.483691 -1.872754,-0.483691 -1.203027,0 -2.244824,0.5333 -1.029394,0.533301 -1.785937,1.575098 -0.719336,1.00459 -1.128614,2.554883 -0.409277,1.550293 -0.409277,3.460254 0,1.686718 0.42168,3.100585 0.434082,1.401465 1.227832,2.468067 0.79375,1.054199 1.872754,1.649512 1.091406,0.595312 2.430859,0.595312 1.00459,0 1.847949,-0.310059 0.84336,-0.322461 1.463477,-0.843359 0.620117,-0.545703 1.091406,-1.240234 0.471289,-0.694532 0.768945,-1.513086 l 0.930176,0.446484 q -1.066602,2.616895 -2.827734,3.745508 -1.761133,1.116211 -4.191992,1.116211 z"
         id="path_C" />
      <path
         d="m 77.704392,60.15752 q 0,2.244824 -0.84336,3.894336 -0.843359,1.649511 -2.195214,2.70371 -1.364258,1.0542 -3.063379,1.575098 -1.699121,0.520898 -3.509863,0.520898 h -7.292578 v -0.880566 q 0.359667,0 0.930175,-0.06201 0.58291,-0.07441 0.768946,-0.16123 0.37207,-0.161231 0.5333,-0.471289 0.173633,-0.322461 0.173633,-0.768945 v -12.7 q 0,-0.42168 -0.148828,-0.756543 -0.136426,-0.334863 -0.558105,-0.533301 -0.384473,-0.186035 -0.830957,-0.272852 -0.446485,-0.08682 -0.768946,-0.111621 v -0.880566 h 7.689453 q 1.5875,0 3.125391,0.496094 1.53789,0.483691 2.678906,1.314648 1.550293,1.103809 2.430859,2.889746 0.880567,1.785938 0.880567,4.204395 z m -3.038574,-0.0124 q 0,-1.773535 -0.471289,-3.199804 -0.47129,-1.438672 -1.376661,-2.505274 -0.855761,-1.016992 -2.108398,-1.599902 -1.240234,-0.58291 -2.765723,-0.58291 -0.508496,0 -1.153418,0.0248 -0.632519,0.0124 -0.942578,0.0248 v 13.530957 q 0,1.128613 0.657325,1.562695 0.657324,0.434082 2.021582,0.434082 1.575097,0 2.75332,-0.558105 1.178222,-0.558106 1.909961,-1.550293 0.768945,-1.041797 1.116211,-2.406055 0.359668,-1.37666 0.359668,-3.175 z"
         id="path_D" />
      <path
         d="m 94.670799,63.667383 -0.334863,5.184179 H 79.725975 v -0.880566 q 0.37207,-0.02481 0.992187,-0.09922 0.620117,-0.08682 0.806153,-0.173632 0.396875,-0.186036 0.545703,-0.483692 0.16123,-0.297656 0.16123,-0.756543 V 53.80752 q 0,-0.409278 -0.136426,-0.719336 -0.136425,-0.322461 -0.570507,-0.520899 -0.334864,-0.16123 -0.905371,-0.285254 -0.558106,-0.124023 -0.892969,-0.148828 v -0.880566 h 13.617773 v 4.241601 H 92.413572 Q 92.165525,54.55166 91.334568,53.497461 90.516014,52.43086 89.771873,52.331641 89.3874,52.282031 88.8541,52.257227 q -0.533301,-0.02481 -1.21543,-0.02481 h -2.765723 v 6.994922 h 1.984375 q 0.954981,0 1.389063,-0.173633 0.446484,-0.186035 0.781348,-0.607715 0.272851,-0.359668 0.458886,-0.95498 0.198438,-0.607715 0.260449,-1.141016 h 0.930176 v 6.883301 h -0.930176 q -0.04961,-0.595313 -0.272851,-1.252637 -0.21084,-0.669726 -0.446484,-0.967383 -0.384473,-0.483691 -0.880567,-0.632519 -0.483691,-0.148828 -1.289844,-0.148828 h -1.984375 v 5.283398 q 0,0.79375 0.111622,1.252637 0.111621,0.458886 0.434082,0.694531 0.32246,0.235645 0.880566,0.310059 0.558105,0.06201 1.5875,0.06201 0.409277,0 1.079004,0 0.669726,0 1.128613,-0.04961 0.471289,-0.04961 0.967383,-0.173633 0.508496,-0.136426 0.719336,-0.359668 0.570508,-0.595312 1.190625,-1.79834 0.632519,-1.215429 0.806152,-1.785937 z"
         id="path_E" />
      <path
         d="m 110.12412,55.655469 h -0.93018 q -0.26044,-0.979785 -1.0914,-2.095996 -0.81856,-1.116211 -1.5751,-1.227832 -0.38447,-0.04961 -0.91777,-0.07441 -0.5209,-0.02481 -1.19063,-0.02481 h -2.95176 v 7.069336 h 2.02159 q 0.91777,0 1.42627,-0.186035 0.50849,-0.198438 0.86816,-0.595313 0.24805,-0.272851 0.44648,-0.843359 0.21084,-0.58291 0.27286,-1.240234 h 0.94257 v 6.908105 h -0.94257 q -0.0372,-0.545703 -0.26045,-1.240234 -0.21084,-0.694532 -0.45889,-1.00459 -0.37207,-0.458887 -0.94258,-0.620117 -0.5581,-0.173633 -1.35185,-0.173633 h -2.02159 v 6.064746 q 0,0.409277 0.16124,0.731738 0.16123,0.322461 0.5705,0.520898 0.18604,0.08682 0.80616,0.21084 0.62011,0.124024 0.94257,0.136426 v 0.880566 h -7.627438 v -0.880566 q 0.372071,-0.02481 0.992188,-0.07441 0.620117,-0.06201 0.806152,-0.148828 0.37207,-0.161231 0.533301,-0.471289 0.173633,-0.322461 0.173633,-0.768945 v -12.7 q 0,-0.409278 -0.136426,-0.719336 -0.136426,-0.322461 -0.570508,-0.520899 -0.334863,-0.16123 -0.905371,-0.285254 -0.558105,-0.124023 -0.892969,-0.148828 v -0.880566 h 13.803808 z"
         id="path_F" />
      <path
         d="m 128.71523,61.819434 q -0.29765,0.03721 -0.80615,0.124023 -0.49609,0.07441 -0.80615,0.223242 -0.37207,0.186035 -0.5333,0.533301 -0.14883,0.334863 -0.14883,0.79375 v 1.364258 q 0,1.488281 0.0124,2.00918 0.0248,0.520898 0.0496,0.855761 -1.64951,0.744141 -3.28662,1.141016 -1.63711,0.396875 -3.21221,0.396875 -1.68672,0 -3.24941,-0.63252 -1.5627,-0.632519 -2.72852,-1.79834 -1.17822,-1.178222 -1.87275,-2.864941 -0.69453,-1.686719 -0.69453,-3.770312 0,-2.00918 0.65732,-3.720703 0.66973,-1.723926 1.88516,-2.988965 1.17822,-1.240235 2.80293,-1.922363 1.63711,-0.694532 3.49746,-0.694532 1.48828,0 2.59209,0.359668 1.10381,0.359668 1.94717,0.868164 l 0.50849,-0.843359 h 0.99219 l 0.11162,6.151562 h -1.01699 q -0.26045,-1.016992 -0.64492,-1.996777 -0.38448,-0.992187 -0.99219,-1.773535 -0.60772,-0.781348 -1.48828,-1.240234 -0.86817,-0.471289 -2.0836,-0.471289 -1.32705,0 -2.36884,0.545703 -1.0418,0.5333 -1.81075,1.599902 -0.75654,1.029394 -1.16582,2.567285 -0.40927,1.537891 -0.40927,3.435449 0,1.674317 0.39687,3.162598 0.40928,1.475879 1.17822,2.554883 0.76895,1.103808 1.92237,1.736328 1.15342,0.632519 2.61689,0.632519 1.09141,0 1.98438,-0.334863 0.90537,-0.334863 1.27744,-0.706934 0.0992,-0.644921 0.0992,-1.302246 0.0124,-0.657324 0.0124,-1.116211 v -0.967382 q 0,-0.520899 -0.14883,-0.917774 -0.13642,-0.409277 -0.58291,-0.595312 -0.40928,-0.186035 -1.11621,-0.272852 -0.69453,-0.09922 -1.09141,-0.124023 v -0.905371 h 7.71426 z"
         id="path_G" />
      <path
         d="m 148.32334,68.851562 h -7.30498 v -0.880566 q 0.29765,-0.02481 0.85576,-0.07441 0.57051,-0.04961 0.78135,-0.148828 0.37207,-0.148828 0.5457,-0.446484 0.17363,-0.310059 0.17363,-0.79375 v -6.263184 h -8.27236 v 6.126758 q 0,0.434082 0.13643,0.731738 0.14882,0.297656 0.5705,0.520898 0.21084,0.111622 0.74414,0.223243 0.54571,0.111621 0.85577,0.124023 v 0.880566 h -7.30498 v -0.880566 q 0.29765,-0.02481 0.85576,-0.07441 0.5705,-0.04961 0.78134,-0.148828 0.37207,-0.148828 0.54571,-0.446484 0.17363,-0.310059 0.17363,-0.79375 v -12.7 q 0,-0.396875 -0.16123,-0.719336 -0.16123,-0.334863 -0.55811,-0.520899 -0.33486,-0.16123 -0.81855,-0.285254 -0.47129,-0.124023 -0.81855,-0.148828 v -0.880566 h 7.30498 v 0.880566 q -0.34727,0.0124 -0.85577,0.111621 -0.49609,0.09922 -0.74414,0.186036 -0.42168,0.148828 -0.5705,0.496093 -0.13643,0.347266 -0.13643,0.756543 v 5.457031 h 8.27236 V 53.80752 q 0,-0.396875 -0.16123,-0.719336 -0.16123,-0.334863 -0.5581,-0.520899 -0.33487,-0.16123 -0.81856,-0.285254 -0.47129,-0.124023 -0.81855,-0.148828 v -0.880566 h 7.30498 v 0.880566 q -0.34727,0.0124 -0.85576,0.111621 -0.4961,0.09922 -0.74414,0.186036 -0.42168,0.148828 -0.57051,0.496093 -0.13643,0.347266 -0.13643,0.756543 v 12.687598 q 0,0.434082 0.13643,0.731738 0.14883,0.297656 0.57051,0.520898 0.21084,0.111622 0.74414,0.223243 0.5457,0.111621 0.85576,0.124023 z"
         id="path_H" />
      <path
         d="m 158.49325,68.851562 h -7.9251 v -0.880566 q 0.33486,-0.02481 0.96738,-0.07441 0.63252,-0.04961 0.89297,-0.148828 0.40928,-0.161231 0.59532,-0.434082 0.18603,-0.285254 0.18603,-0.781348 V 53.782715 q 0,-0.434082 -0.13642,-0.719336 -0.13643,-0.297656 -0.64493,-0.496094 -0.37207,-0.148828 -0.94257,-0.272851 -0.55811,-0.136426 -0.91778,-0.161231 v -0.880566 h 7.9251 v 0.880566 q -0.38447,0.0124 -0.91777,0.09922 -0.53331,0.07441 -0.93018,0.198438 -0.47129,0.148828 -0.63252,0.483691 -0.16123,0.334863 -0.16123,0.744141 v 12.737206 q 0,0.409278 0.17363,0.731739 0.18604,0.310058 0.62012,0.496093 0.26045,0.09922 0.84336,0.223243 0.59531,0.111621 1.00459,0.124023 z"
         id="path_I" />
      <path
         d="m 171.9622,52.133203 q -0.34726,0.0124 -0.86816,0.09922 -0.5085,0.07441 -0.86816,0.198438 -0.42168,0.148828 -0.57051,0.496093 -0.14883,0.347266 -0.14883,0.756543 v 10.430371 q 0,0.818555 -0.33486,1.736328 -0.32246,0.917774 -0.95498,1.63711 -0.73174,0.843359 -1.74873,1.314648 -1.00459,0.471289 -2.30684,0.471289 -2.02158,0 -3.28662,-1.128613 -1.25264,-1.141016 -1.25264,-3.063379 0,-0.843359 0.43408,-1.488281 0.43409,-0.657324 1.26504,-0.657324 0.74414,0 1.19063,0.421679 0.45888,0.409278 0.45888,1.091407 0,0.396875 -0.16123,0.79375 -0.16123,0.396875 -0.35966,0.706933 -0.18604,0.285254 -0.42168,0.669727 -0.23565,0.384472 -0.33487,0.694531 0.26045,0.409277 0.80616,0.719336 0.5581,0.310058 1.48828,0.310058 0.90537,0 1.47588,-0.409277 0.58291,-0.42168 0.86816,-1.116211 0.27285,-0.644922 0.38447,-1.5875 0.12403,-0.942578 0.12403,-2.108398 v -9.31416 q 0,-0.434082 -0.14883,-0.719336 -0.13643,-0.297656 -0.58291,-0.520899 -0.38448,-0.198437 -0.96739,-0.297656 -0.5705,-0.111621 -0.94257,-0.136426 v -0.880566 h 7.76386 z"
         id="path_J" />
      <path
         d="m 190.92539,68.851562 h -4.93614 q -1.42627,-2.207617 -3.175,-4.378027 -1.73632,-2.182812 -3.64628,-4.229199 h -0.32247 v 6.126758 q 0,0.409277 0.14883,0.731738 0.16123,0.322461 0.57051,0.520898 0.19844,0.08682 0.73174,0.21084 0.5457,0.124024 0.90537,0.136426 v 0.880566 h -7.30498 v -0.880566 q 0.28525,-0.02481 0.83096,-0.07441 0.5457,-0.04961 0.76894,-0.148828 0.37207,-0.161231 0.5333,-0.471289 0.17364,-0.322461 0.17364,-0.768945 v -12.7 q 0,-0.42168 -0.14883,-0.731739 -0.13643,-0.310058 -0.55811,-0.508496 -0.33486,-0.16123 -0.79375,-0.285254 -0.45888,-0.124023 -0.80615,-0.148828 v -0.880566 h 7.30498 v 0.880566 q -0.34727,0.0124 -0.86816,0.111621 -0.5209,0.09922 -0.76895,0.186036 -0.42168,0.148828 -0.57051,0.496093 -0.14883,0.347266 -0.14883,0.756543 v 6.077149 h 0.24805 q 1.11621,-0.942578 2.19522,-1.959571 1.079,-1.029394 1.95957,-2.046386 0.97978,-1.128614 1.42627,-1.79834 0.45888,-0.682129 0.45888,-1.203027 0,-0.186036 -0.23564,-0.297657 -0.22324,-0.124023 -0.5209,-0.198437 -0.34727,-0.07441 -0.62012,-0.08682 -0.27285,-0.0248 -0.44648,-0.03721 v -0.880566 h 6.59804 v 0.880566 q -0.0372,0 -0.16123,0.0124 -0.12402,0.0124 -0.28525,0.0248 -0.17363,0.0124 -0.34727,0.04961 -0.17363,0.03721 -0.44648,0.08682 -0.43408,0.09922 -0.90537,0.322461 -0.45889,0.21084 -0.75654,0.533301 -1.27744,1.451074 -2.66651,3.001367 -1.38906,1.550293 -2.75332,2.827734 1.88516,2.133203 3.11299,3.671094 1.24023,1.537891 2.6293,3.286621 0.5333,0.669727 1.0666,1.079004 0.5333,0.396875 0.91777,0.595312 0.32246,0.161231 0.80615,0.248047 0.4837,0.08682 0.80616,0.09922 z"
         id="path_K" />
      <path
         d="m 205.60975,63.617774 -0.37207,5.233788 h -13.7542 v -0.880566 q 0.29766,-0.02481 0.85577,-0.08682 0.5705,-0.06201 0.79375,-0.161231 0.37207,-0.16123 0.5333,-0.471289 0.17363,-0.310058 0.17363,-0.79375 V 53.857129 q 0,-0.42168 -0.14883,-0.74414 -0.13642,-0.322461 -0.5581,-0.520899 -0.28526,-0.148828 -0.80616,-0.285254 -0.50849,-0.148828 -0.84336,-0.173633 v -0.880566 h 7.42901 v 0.880566 q -0.34727,0.0124 -0.90537,0.124024 -0.54571,0.111621 -0.79375,0.198437 -0.42168,0.148828 -0.58291,0.508496 -0.14883,0.359668 -0.14883,0.768946 v 11.819433 q 0,0.818555 0.0744,1.277441 0.0868,0.446485 0.38447,0.694532 0.28526,0.223242 0.84336,0.297656 0.57051,0.06201 1.5875,0.06201 0.45889,0 0.95498,-0.02481 0.4961,-0.02481 0.94258,-0.09922 0.43408,-0.07441 0.79375,-0.198437 0.37207,-0.136426 0.54571,-0.334864 0.50849,-0.570507 1.17822,-1.723925 0.68213,-1.165821 0.94258,-1.885156 z"
         id="path_L" />
      <path
         d="m 227.99599,68.851562 h -7.77627 v -0.880566 q 0.42168,-0.0124 1.079,-0.08682 0.66973,-0.07441 0.91777,-0.21084 0.38448,-0.235645 0.55811,-0.533301 0.18603,-0.310059 0.18603,-0.768945 V 53.571875 h -0.18603 l -6.00273,14.994434 h -0.62012 l -5.71748,-15.304492 h -0.16123 v 10.504785 q 0,1.525488 0.18603,2.319238 0.19844,0.79375 0.59532,1.141015 0.27285,0.26045 1.12861,0.496094 0.85576,0.235645 1.11621,0.248047 v 0.880566 h -7.10654 v -0.880566 q 0.5581,-0.04961 1.16582,-0.186035 0.62011,-0.136426 0.95498,-0.409277 0.43408,-0.347266 0.59531,-1.066602 0.16123,-0.719336 0.16123,-2.406055 v -9.004101 q 0,-0.781348 -0.18604,-1.277441 -0.18603,-0.496094 -0.5333,-0.806153 -0.38447,-0.334863 -0.94257,-0.496093 -0.55811,-0.161231 -1.10381,-0.186036 v -0.880566 h 6.00273 l 5.03535,13.196094 4.30362,-11.038086 q 0.23564,-0.607715 0.39687,-1.265039 0.17363,-0.669727 0.18604,-0.892969 h 5.74228 v 0.880566 q -0.34726,0.0124 -0.89297,0.111621 -0.5333,0.09922 -0.78134,0.186036 -0.42168,0.148828 -0.57051,0.496093 -0.14883,0.347266 -0.14883,0.756543 v 12.687598 q 0,0.434082 0.14883,0.731738 0.14883,0.297656 0.57051,0.520898 0.22324,0.124024 0.79375,0.235645 0.5705,0.09922 0.90537,0.111621 z"
         id="path_M" />
      <path
         d="m 248.42264,52.133203 q -0.34726,0.0124 -1.0666,0.198438 -0.71933,0.186035 -1.02939,0.384473 -0.44649,0.310058 -0.60772,1.190625 -0.14883,0.880566 -0.14883,2.232421 v 12.886035 h -1.079 L 233.82509,54.626074 v 9.078516 q 0,1.525488 0.18603,2.344043 0.19844,0.818555 0.59531,1.16582 0.28526,0.272852 1.17823,0.508496 0.89296,0.235645 1.17822,0.248047 v 0.880566 h -7.21817 v -0.880566 q 0.33487,-0.02481 1.12862,-0.235644 0.79375,-0.223243 0.99218,-0.396875 0.43409,-0.347266 0.59532,-1.0542 0.16123,-0.719336 0.16123,-2.443261 v -8.669238 q 0,-0.570508 -0.19844,-1.141016 -0.19844,-0.570508 -0.5333,-0.880566 -0.44648,-0.409278 -1.21543,-0.694532 -0.75654,-0.297656 -1.22783,-0.322461 v -0.880566 h 5.02295 l 9.89707,13.419336 v -8.371582 q 0,-1.537891 -0.19844,-2.356445 -0.19844,-0.830957 -0.57051,-1.103809 -0.34726,-0.235645 -1.14101,-0.458887 -0.78135,-0.223242 -1.19063,-0.248047 v -0.880566 h 7.15615 z"
         id="path_N" />
      <path
         d="m 264.062,53.336231 q 1.16582,1.215429 1.82315,2.939355 0.65732,1.711524 0.65732,3.795117 0,2.095996 -0.66973,3.80752 -0.66972,1.711523 -1.86035,2.91455 -1.15342,1.190625 -2.6789,1.835547 -1.52549,0.644922 -3.24942,0.644922 -1.83554,0 -3.39824,-0.682129 -1.55029,-0.694531 -2.6665,-1.922363 -1.11621,-1.203027 -1.76114,-2.914551 -0.63252,-1.723925 -0.63252,-3.683496 0,-2.145605 0.66973,-3.819922 0.66973,-1.686718 1.84795,-2.91455 1.16582,-1.21543 2.70371,-1.860352 1.55029,-0.644922 3.23701,-0.644922 1.74873,0 3.29903,0.657325 1.55029,0.657324 2.6789,1.847949 z m -1.84795,12.476757 q 0.69453,-1.128613 1.00459,-2.554882 0.32246,-1.42627 0.32246,-3.187403 0,-1.810742 -0.35966,-3.323828 -0.34727,-1.513086 -1.0294,-2.579687 -0.68213,-1.054199 -1.71152,-1.63711 -1.0294,-0.595312 -2.35645,-0.595312 -1.48828,0 -2.53008,0.682129 -1.04179,0.682129 -1.69912,1.823144 -0.62011,1.091407 -0.93017,2.554883 -0.29766,1.463477 -0.29766,3.075781 0,1.785938 0.32246,3.22461 0.32246,1.438671 1.01699,2.554882 0.66973,1.091407 1.68672,1.711524 1.017,0.607715 2.43086,0.607715 1.32705,0 2.39365,-0.620118 1.06661,-0.620117 1.73633,-1.736328 z"
         id="path_O" />
      <path
         d="m 282.21903,55.593457 q 0,1.37666 -0.5457,2.443262 -0.5333,1.054199 -1.48828,1.74873 -0.94258,0.694532 -2.0712,1.016993 -1.12861,0.32246 -2.39365,0.32246 h -1.97197 v 5.333008 q 0,0.434082 0.13643,0.768945 0.14882,0.322461 0.59531,0.496094 0.22324,0.08682 0.78135,0.161231 0.5705,0.07441 1.04179,0.08682 v 0.880566 h -7.55302 v -0.880566 q 0.29765,-0.02481 0.85576,-0.08682 0.5705,-0.06201 0.79375,-0.161231 0.37207,-0.16123 0.5333,-0.471289 0.17363,-0.310058 0.17363,-0.79375 v -12.7 q 0,-0.434082 -0.12402,-0.781347 -0.12403,-0.347266 -0.58291,-0.520899 -0.47129,-0.16123 -0.94258,-0.223242 -0.45889,-0.07441 -0.79375,-0.09922 v -0.880566 h 8.03672 q 2.45566,0 3.98115,1.190625 1.53789,1.178223 1.53789,3.150195 z m -3.77031,3.001367 q 0.42168,-0.595312 0.5581,-1.227832 0.13643,-0.644922 0.13643,-1.153418 0,-0.706933 -0.17363,-1.438671 -0.16123,-0.731739 -0.57051,-1.277442 -0.43408,-0.58291 -1.14102,-0.905371 -0.70693,-0.322461 -1.76113,-0.322461 h -1.74873 v 7.77627 h 1.26504 q 1.33945,0 2.17041,-0.409278 0.84336,-0.421679 1.26504,-1.041797 z"
         id="path_P" />
      <path
         d="m 298.45371,53.336231 q 1.16582,1.215429 1.82315,2.939355 0.65732,1.711524 0.65732,3.795117 0,1.661914 -0.43408,3.075781 -0.43408,1.413868 -1.22783,2.530079 -0.75655,1.066601 -1.79834,1.860351 -1.0418,0.79375 -2.33165,1.252637 0.0248,1.364258 0.97979,2.443261 0.95498,1.091407 2.05879,1.091407 1.01699,0 1.55029,-0.07441 0.5333,-0.06201 0.88057,-0.124024 v 0.979785 q -0.55811,0.161231 -1.40147,0.334864 -0.83095,0.186035 -2.31923,0.186035 -0.83096,0 -1.62471,-0.248047 -0.79375,-0.235645 -1.43867,-0.768945 -0.64493,-0.533301 -1.07901,-1.351856 -0.42168,-0.818555 -0.5457,-2.00918 -1.77354,-0.06201 -3.28662,-0.756542 -1.51309,-0.706934 -2.59209,-1.922364 -1.09141,-1.227832 -1.69912,-2.877343 -0.60772,-1.661914 -0.60772,-3.621485 0,-2.145605 0.66973,-3.819922 0.66973,-1.686718 1.84795,-2.91455 1.16582,-1.21543 2.70371,-1.860352 1.55029,-0.644922 3.23701,-0.644922 1.74873,0 3.29902,0.657325 1.5503,0.657324 2.67891,1.847949 z m -1.84795,12.476757 q 0.69453,-1.128613 1.00459,-2.554882 0.32246,-1.42627 0.32246,-3.187403 0,-1.810742 -0.35967,-3.323828 -0.34726,-1.513086 -1.02939,-2.579687 -0.68213,-1.054199 -1.71152,-1.63711 -1.0294,-0.595312 -2.35645,-0.595312 -1.48828,0 -2.53008,0.682129 -1.04179,0.682129 -1.69912,1.823144 -0.62012,1.091407 -0.93017,2.554883 -0.29766,1.463477 -0.29766,3.075781 0,1.785938 0.32246,3.22461 0.32246,1.438671 1.01699,2.554882 0.66973,1.091407 1.68672,1.711524 1.01699,0.607715 2.43086,0.607715 1.32705,0 2.39365,-0.620118 1.0666,-0.620117 1.73633,-1.736328 z"
         id="path_Q" />
      <path
         d="m 320.28182,68.851562 h -4.7377 q -1.5751,-2.468066 -2.85254,-4.266406 -1.26504,-1.79834 -2.75332,-3.7083 h -1.79834 v 5.581054 q 0,0.434082 0.13643,0.768945 0.13642,0.322461 0.58291,0.496094 0.22324,0.08682 0.78135,0.161231 0.5581,0.07441 0.94257,0.08682 v 0.880566 h -7.4414 v -0.880566 q 0.29765,-0.02481 0.85576,-0.08682 0.57051,-0.06201 0.79375,-0.161231 0.37207,-0.16123 0.5333,-0.471289 0.17363,-0.310058 0.17363,-0.79375 V 53.733106 q 0,-0.434082 -0.12402,-0.768946 -0.12402,-0.334863 -0.58291,-0.508496 -0.31006,-0.111621 -0.80615,-0.198437 -0.4961,-0.09922 -0.84336,-0.124024 v -0.880566 h 8.12353 q 1.11621,0 2.096,0.235645 0.97978,0.223242 1.77353,0.731738 0.76895,0.496094 1.22784,1.302246 0.45888,0.79375 0.45888,1.922363 0,1.016992 -0.31006,1.79834 -0.31005,0.781348 -0.91777,1.351855 -0.5581,0.533301 -1.33945,0.930176 -0.78135,0.384473 -1.72393,0.657324 1.30225,1.723926 2.15801,2.902149 0.86816,1.178222 2.1208,2.864941 0.5457,0.744141 0.97979,1.103809 0.44648,0.347265 0.88056,0.570507 0.32246,0.161231 0.80615,0.248047 0.4837,0.08682 0.80616,0.09922 z m -6.52364,-13.121679 q 0,-1.599902 -0.91777,-2.530078 -0.91777,-0.942578 -2.59209,-0.942578 h -2.1084 v 7.553027 h 1.62471 q 1.71152,0 2.85254,-1.091406 1.14101,-1.103809 1.14101,-2.988965 z"
         id="path_R" />
      <path
         d="m 331.91522,60.777637 q 0.55811,0.620117 0.81856,1.364258 0.27285,0.731738 0.27285,1.711523 0,2.331641 -1.72393,3.844727 -1.72392,1.513085 -4.27881,1.513085 -1.17822,0 -2.35644,-0.359668 -1.17822,-0.37207 -2.03399,-0.892968 l -0.5333,0.905371 h -0.99218 l -0.17364,-6.027539 h 1.00459 q 0.31006,1.116211 0.71934,2.021582 0.42168,0.892969 1.10381,1.674316 0.64492,0.731739 1.50068,1.165821 0.86817,0.434082 2.00918,0.434082 0.85576,0 1.48828,-0.223243 0.64492,-0.223242 1.0418,-0.632519 0.39687,-0.409277 0.58291,-0.954981 0.19844,-0.558105 0.19844,-1.277441 0,-1.054199 -0.59532,-1.95957 -0.59531,-0.917774 -1.77353,-1.389063 -0.80615,-0.322461 -1.84795,-0.706933 -1.0418,-0.396875 -1.79834,-0.744141 -1.48828,-0.669726 -2.31924,-1.74873 -0.81855,-1.091407 -0.81855,-2.840137 0,-1.00459 0.40927,-1.872754 0.40928,-0.868164 1.16582,-1.550293 0.71934,-0.644922 1.69913,-1.00459 0.97978,-0.37207 2.04638,-0.37207 1.21543,0 2.17041,0.37207 0.96739,0.372071 1.76114,0.868164 l 0.50849,-0.843359 h 0.99219 l 0.0992,5.841504 h -1.00459 q -0.27285,-1.00459 -0.62012,-1.922363 -0.33486,-0.917774 -0.88057,-1.661914 -0.5333,-0.719336 -1.30224,-1.141016 -0.76895,-0.434082 -1.88516,-0.434082 -1.17822,0 -2.00918,0.756543 -0.83095,0.756543 -0.83095,1.847949 0,1.141016 0.5333,1.897559 0.5333,0.74414 1.55029,1.227832 0.90537,0.434082 1.77353,0.756543 0.88057,0.310058 1.69912,0.669726 0.74415,0.322461 1.42627,0.731738 0.69454,0.409278 1.20303,0.954981 z"
         id="path_S" />
      <path
         d="m 349.51416,56.027539 h -0.85576 q -0.11162,-0.446484 -0.40928,-1.054199 -0.28525,-0.620117 -0.64492,-1.16582 -0.37207,-0.570508 -0.81856,-0.992188 -0.43408,-0.434082 -0.84336,-0.496093 -0.38447,-0.04961 -0.96738,-0.07442 -0.58291,-0.0248 -1.079,-0.0248 h -0.71934 v 14.07666 q 0,0.409277 0.17363,0.756543 0.17364,0.334863 0.60772,0.520898 0.22324,0.08682 0.93018,0.235645 0.71933,0.148828 1.11621,0.16123 v 0.880566 h -8.30957 v -0.880566 q 0.34726,-0.02481 1.0542,-0.09922 0.71933,-0.07441 0.99218,-0.186035 0.40928,-0.16123 0.59532,-0.458887 0.19843,-0.310058 0.19843,-0.818554 V 52.22002 h -0.71933 q -0.38448,0 -0.95498,0.0248 -0.57051,0.0124 -1.09141,0.07442 -0.40928,0.04961 -0.85576,0.496093 -0.43408,0.434082 -0.80615,0.992188 -0.37207,0.558105 -0.65733,1.190625 -0.28525,0.620117 -0.39687,1.029394 h -0.86817 v -4.774902 h 15.3293 z"
         id="path_T" />
      <path
         d="m 368.72537,52.133203 q -0.34727,0.0124 -1.017,0.148828 -0.66972,0.136426 -1.0914,0.409278 -0.42168,0.285254 -0.58291,1.178222 -0.16123,0.892969 -0.16123,2.182813 v 7.652246 q 0,1.463476 -0.60772,2.54248 -0.60771,1.079004 -1.5999,1.773535 -0.97979,0.669727 -2.07119,0.954981 -1.07901,0.297656 -2.07119,0.297656 -1.5875,0 -2.82774,-0.42168 -1.24023,-0.409277 -2.08359,-1.11621 -0.83096,-0.706934 -1.25264,-1.612305 -0.42168,-0.917774 -0.42168,-1.909961 V 53.80752 q 0,-0.434082 -0.14883,-0.719336 -0.13642,-0.297656 -0.5705,-0.545703 -0.31006,-0.173633 -0.79375,-0.272852 -0.48369,-0.111621 -0.79375,-0.136426 v -0.880566 h 7.32978 v 0.880566 q -0.34726,0.0124 -0.88056,0.111621 -0.5209,0.09922 -0.76895,0.186036 -0.42168,0.148828 -0.57051,0.496093 -0.13642,0.347266 -0.13642,0.756543 v 9.723438 q 0,0.706933 0.14882,1.488281 0.16123,0.768945 0.62012,1.438672 0.48369,0.682129 1.31465,1.116211 0.83096,0.434082 2.28203,0.434082 1.36426,0 2.28203,-0.434082 0.93018,-0.434082 1.46348,-1.141016 0.5085,-0.669726 0.71933,-1.401465 0.21084,-0.731738 0.21084,-1.475879 v -7.218164 q 0,-1.37666 -0.19843,-2.244824 -0.19844,-0.880566 -0.58291,-1.153418 -0.43408,-0.310058 -1.19063,-0.483691 -0.74414,-0.173633 -1.14101,-0.198438 v -0.880566 h 7.19336 z"
         id="path_U" />
      <path
         d="m 386.37391,52.133203 q -0.32246,0.0124 -0.78134,0.148828 -0.45889,0.124024 -0.75655,0.310059 -0.42168,0.260449 -0.68213,0.669727 -0.24804,0.409277 -0.49609,0.967382 -0.83096,1.971973 -2.49287,6.151563 -1.66192,4.167187 -3.42305,8.694043 h -1.02939 q -1.78594,-4.799707 -3.44785,-9.252149 -1.66192,-4.452441 -2.25723,-6.015136 -0.14883,-0.384473 -0.39688,-0.669727 -0.24804,-0.297656 -0.65732,-0.558105 -0.33486,-0.21084 -0.74414,-0.310059 -0.40928,-0.111621 -0.75654,-0.136426 v -0.880566 h 7.28017 v 0.880566 q -0.93017,0.04961 -1.5751,0.186036 -0.63251,0.136425 -0.63251,0.483691 0,0.136426 0.0496,0.322461 0.0496,0.186035 0.0868,0.297656 0.45889,1.21543 1.48828,3.96875 1.0294,2.740918 2.92696,7.813476 0.94257,-2.294433 2.17041,-5.419824 1.22783,-3.12539 1.64951,-4.291211 0.40927,-1.128613 0.47129,-1.562695 0.0744,-0.434082 0.0744,-0.706933 0,-0.285254 -0.26045,-0.471289 -0.24805,-0.198438 -0.66973,-0.334864 -0.40927,-0.124023 -0.83095,-0.186035 -0.42168,-0.06201 -0.85576,-0.09922 v -0.880566 h 6.54843 z"
         id="path_V" />
      <path
         d="m 411.00497,52.133203 q -0.31006,0.0124 -0.71934,0.148828 -0.40928,0.124024 -0.75654,0.334864 -0.43408,0.272851 -0.70693,0.632519 -0.26045,0.347266 -0.45889,0.979785 -0.88057,2.864942 -2.04639,6.697266 -1.16582,3.819922 -2.51767,8.14834 h -1.14102 l -4.44004,-13.543359 -4.62607,13.543359 h -1.09141 q -1.22783,-4.340821 -2.54248,-9.004102 -1.31465,-4.675683 -1.76113,-6.263183 -0.11162,-0.384473 -0.33487,-0.682129 -0.21084,-0.297656 -0.58291,-0.545703 -0.31005,-0.21084 -0.73173,-0.310059 -0.40928,-0.111621 -0.74414,-0.136426 v -0.880566 h 7.18095 v 0.880566 q -0.94258,0.04961 -1.6123,0.186036 -0.65733,0.136425 -0.65733,0.458886 0,0.124024 0.0372,0.334864 0.0372,0.198437 0.062,0.32246 0.28526,1.091407 1.00459,3.609082 0.73174,2.505274 2.15801,7.515821 l 4.39043,-13.059668 h 1.21543 l 4.42764,13.344922 q 0.89296,-3.075782 1.53789,-5.370215 0.64492,-2.306836 1.0666,-3.943945 0.29765,-1.153418 0.37207,-1.575098 0.0744,-0.434082 0.0744,-0.731738 0,-0.42168 -0.58291,-0.706934 -0.57051,-0.285254 -1.86035,-0.384473 v -0.880566 h 6.38721 z"
         id="path_W" />
      <path
         d="m 428.70311,68.851562 h -8.23516 v -0.880566 q 1.01699,-0.02481 1.63711,-0.186035 0.63252,-0.173633 0.63252,-0.520898 0,-0.186036 -0.28525,-0.768946 -0.28526,-0.58291 -0.73174,-1.302246 -0.4961,-0.79375 -1.17823,-1.860351 -0.68212,-1.079004 -1.35185,-2.058789 -1.09141,1.438671 -2.48047,3.472656 -1.38906,2.021582 -1.38906,2.38125 0,0.409277 0.37207,0.607715 0.38447,0.186035 1.67431,0.235644 v 0.880566 h -6.57324 v -0.880566 q 0.32246,-0.02481 0.81856,-0.08682 0.50849,-0.07441 0.83095,-0.235645 0.64493,-0.347265 1.0294,-0.74414 0.39687,-0.409278 0.79375,-0.954981 0.79375,-1.091406 2.03398,-2.716113 1.24024,-1.637109 2.19522,-2.976563 -0.71934,-1.054199 -1.83555,-2.666503 -1.11621,-1.624707 -2.38125,-3.472657 -0.5333,-0.781347 -0.84336,-1.103808 -0.29765,-0.322461 -0.80615,-0.558106 -0.29766,-0.136425 -0.83096,-0.21084 -0.5209,-0.08682 -0.83096,-0.111621 v -0.880566 h 8.14834 v 0.880566 q -0.71933,0.02481 -1.50068,0.186036 -0.76894,0.148828 -0.76894,0.471289 0,0.235644 0.31005,0.830957 0.31006,0.58291 0.73174,1.252636 0.43408,0.694532 0.96739,1.537891 0.5333,0.843359 1.30224,1.947168 1.40147,-1.897559 2.41846,-3.423047 1.01699,-1.525488 1.01699,-1.984375 0,-0.396875 -0.47129,-0.58291 -0.45889,-0.186035 -1.56269,-0.235645 v -0.880566 h 6.56084 v 0.880566 q -0.31006,0.0124 -0.81856,0.09922 -0.49609,0.07441 -0.83096,0.223242 -0.64492,0.310059 -0.96738,0.669727 -0.31006,0.359668 -0.84336,1.041797 -0.99219,1.277441 -1.83554,2.406054 -0.83096,1.116211 -2.00918,2.728516 0.99218,1.413867 2.20761,3.212207 1.22783,1.79834 2.34405,3.435449 0.38447,0.558106 0.88056,1.066602 0.4961,0.496093 0.80615,0.682129 0.29766,0.173632 0.79375,0.223242 0.5085,0.03721 0.85577,0.04961 z"
         id="path_X" />
      <path
         d="m 444.97498,52.133203 q -0.21084,0.0124 -0.66973,0.173633 -0.45888,0.148828 -0.65732,0.297656 -0.48369,0.297657 -0.65732,0.458887 -0.17364,0.161231 -0.66973,0.84336 -0.96738,1.364257 -1.78594,2.765722 -0.81855,1.401465 -2.04638,3.559473 -0.45889,0.79375 -0.60772,1.277441 -0.14883,0.483692 -0.14883,1.401465 v 3.361035 q 0,0.446484 0.17364,0.781348 0.18603,0.322461 0.62011,0.520898 0.26045,0.09922 0.93018,0.248047 0.66972,0.136426 1.079,0.148828 v 0.880566 h -8.23515 v -0.880566 q 0.34726,-0.02481 1.04179,-0.08682 0.69453,-0.07441 0.96739,-0.186035 0.44648,-0.186036 0.60771,-0.508497 0.17363,-0.32246 0.17363,-0.79375 V 62.11709 q 0,-0.198438 -0.24804,-0.719336 -0.23565,-0.533301 -0.57051,-1.178223 -0.74414,-1.438671 -1.64951,-3.112988 -0.90537,-1.674316 -1.5751,-2.864941 -0.40928,-0.706934 -0.73174,-1.066602 -0.31006,-0.359668 -0.71933,-0.632519 -0.29766,-0.186035 -0.71934,-0.285254 -0.40928,-0.09922 -0.74414,-0.124024 v -0.880566 h 7.50342 v 0.880566 q -1.26504,0.02481 -1.78594,0.173633 -0.5209,0.148828 -0.5209,0.42168 0,0.07441 0.0744,0.260449 0.0744,0.186035 0.21084,0.471289 0.16124,0.322461 0.38448,0.744141 0.22324,0.409277 0.42168,0.79375 0.58291,1.103808 1.19062,2.207617 0.60772,1.091406 1.5875,2.852539 1.94717,-3.137793 2.96416,-4.886523 1.0294,-1.761133 1.0294,-2.108399 0,-0.285254 -0.21084,-0.458887 -0.21084,-0.173632 -0.55811,-0.272851 -0.35967,-0.09922 -0.78135,-0.124024 -0.42168,-0.03721 -0.78134,-0.07441 v -0.880566 h 6.11435 z"
         id="path_Y" />
      <path
         d="m 459.3617,63.357324 -0.58291,5.494238 H 444.64012 V 68.41748 l 11.07529,-16.185058 h -4.05557 q -0.70693,0 -1.19062,0.02481 -0.47129,0.0248 -0.86816,0.09922 -0.81856,0.16123 -1.84795,1.351855 -1.017,1.190625 -1.53789,2.517676 h -0.86817 l 0.5333,-4.97334 h 13.18369 v 0.434082 l -11.07529,16.185058 h 4.17959 q 1.0542,0 2.24482,-0.148828 1.19063,-0.148828 1.5503,-0.508496 0.80615,-0.768945 1.50068,-1.885156 0.69453,-1.116211 1.0294,-1.971973 z"
         id="path_Z" />
    </g>
  </g>
</svg>
