<?xml version="1.0" encoding="UTF-8"?>
<!-- Created with Inkscape (http://www.inkscape.org/) -->
<svg xmlns="http://www.w3.org/2000/svg" xmlns:svg="http://www.w3.org/2000/svg" width="460mm" height="80mm" viewBox="0 0 460 80" version="1.1" id="slaine">
	<g id="layer1" style="opacity:0.5">
		<text style="font-size:22.5778px;line-height:1.25;font-family:Sl치ine;-inkscape-font-specification:'Sl치ine, Normal';font-variant-ligatures:none;stroke-width:0.264583" x="10" y="25" id="text_lowercase">
			<tspan>abcdefghijklmnopqrstuvwxyz</tspan>
		</text>
		<text  style="font-size:22.5778px;line-height:1.25;font-family:Sl치ine;-inkscape-font-specification:'Sl치ine, Normal';font-variant-ligatures:none;stroke-width:0.264583" x="10" y="60" id="text_uppercase">
			<tspan>ABCDEFGHIJKLMNOPQRSTUVWXYZ</tspan>
		</text>
		<path id="text_a" fill="#ff0000" fill-opacity="0.5" d="M 10,25.0110243164 Q 11.6646717773,22.7179665039 15.942106543,13.8874890625 L 17.3862919922,13.8874890625 Q 21.5534835938,22.6628449219 23.9347359375,25 L 20.3187601563,25 Q 20.4510519531,24.29444375 19.7013984375,23.1038175781 Q 18.2902859375,24.9118054687 16.2397630859,24.9118054687 T 12.9545167969,23.4124984375 Q 12.5135441406,24.1621519531 12.171790332,25 L 10,25.0110243164 Z M 13.7041703125,21.8690941406 Q 14.7184074219,24.3164923828 16.2177144531,24.239322168 T 18.9958421875,21.7808996094 Q 17.4965351563,17.9444375 16.3059089844,16.886103125 Q 15.4239636719,17.4593675781 13.7041703125,21.8690941406 Z" />
		<path id="text_b" fill="#ff0000" fill-opacity="0.5" d="M 24.81668125,12.8732519531 Q 26.4482800781,12.2558902344 27.2420308594,10.4919996094 Q 28.6090460937,12.0354039063 28.5649488281,15.0340179687 Q 29.7886479492,13.8544161133 31.9383896484,13.8709525879 T 35.5819262207,15.4529419922 T 36.6788457031,20.2044223633 T 34.1873501953,24.3936625977 T 29.6839169434,24.8897568359 T 26.4372557617,22.3651883789 T 26.0899897949,17.7956092285 T 26.2498423828,14.2127063965 T 24.81668125,12.8732519531 Z M 28.6090460937,16.2246441406 Q 28.1239761719,20.2374953125 28.8515810547,22.2659695313 T 31.2328333984,24.3826382812 T 33.636134375,22.4864558594 T 33.9889125,18.0105833984 T 31.9769747559,14.8962140137 T 28.6090460937,16.2246441406 Z" />
		<path id="text_c" fill="#ff0000" fill-opacity="0.5" d="M 48.7173992188,21.7808996094 L 49.808806543,22.9715257813 Q 48.3205238281,25.0110243164 45.6691757324,25.0716580566 T 41.1657424805,23.6550333984 T 39.2971208496,19.8902293457 T 40.7578427734,15.7561106934 T 45.2061544434,13.8764647461 T 50.0182685547,16.8089329102 L 47.7031621094,17.7680484375 Q 46.9094113281,14.3725589844 45.0352775391,14.41665625 T 42.2571498047,16.8640544922 T 42.4335388672,21.8470455078 T 45.5864933594,24.5369787109 T 48.7173992188,21.7808996094 Z" />
		<path id="text_d" fill="#ff0000" fill-opacity="0.5" d="M 51.4073324219,13.9756835938 Q 52.333375,12.652765625 52.8184449219,10.6683886719 Q 54.3618492187,13.00554375 56.6328583984,13.2480787109 T 61.5717521484,14.3725589844 T 64.7247066406,18.1814603027 T 63.5726655762,23.1203540527 T 58.7440149902,25.1102431641 T 53.8657549805,23.5227416016 T 52.388496582,19.5319390625 T 54.0531683594,15.6513796875 T 58.2424085937,14.1079753906 Q 54.6264328125,13.5788082031 51.4073324219,13.9756835938 Z M 59.3889375,14.4607535156 Q 55.6406699219,15.3426988281 55.0233082031,18.3413128906 T 55.86115625,22.88333125 T 58.7274785156,24.3826382812 T 61.152828125,22.4644072266 T 61.9024816406,17.8341943359 T 59.3889375,14.4607535156 Z" />
		<path id="text_e" fill="#ff0000" fill-opacity="0.5" d="M 69.97228125,19.4437445312 Q 70.2368648437,22.3982613281 71.7802691406,23.5888875 T 74.8009318359,24.4708328125 T 77.0719410156,22.2218722656 L 78.0641294922,22.9053798828 Q 77.4026705078,24.0188358398 76.3112631836,24.5976124512 T 73.3291855957,25.1157553223 T 69.5092599609,23.8314224609 T 67.2768358887,19.9563752441 T 68.478486377,15.6348432129 T 72.7338725098,13.8158310059 T 76.8735033203,14.6757276855 T 78.1082267578,16.8805909668 T 76.2781902344,18.64999375 Q 78.5822723633,18.4184831055 79.0563179687,18.0767292969 L 78.7035398437,19.1791609375 L 69.97228125,19.4437445312 Z M 69.9281839844,18.7381882813 Q 73.5000625,18.7822855469 74.5804455078,18.1428751953 T 75.5064880859,16.2687414063 T 74.1174242188,14.5709966797 T 71.4495396484,14.8796775391 T 69.9281839844,18.7381882813 Z" />
		<path id="text_f" fill="#ff0000" fill-opacity="0.5" d="M 81.0847921875,28.2631976563 Q 81.558837793,21.1635378906 81.4541067871,18.8704800781 T 81.1399137695,16.1033766602 T 80.2910414062,15.5521608398 Q 82.6502451172,14.7363614258 83.7747253906,13.7551972656 Q 83.5983363281,14.6371425781 83.730628125,16.2246441406 Q 86.3764640625,12.7850574219 88.9782027344,13.7111 T 91.4696982422,17.3932216797 L 89.2427863281,18.1208265625 Q 89.4632726562,15.3426988281 87.7875765625,14.5709966797 T 83.7747253906,17.6798539062 Q 83.4219472656,19.5760363281 83.730628125,24.1621519531 Q 88.1403546875,24.1180546875 90.4775097656,23.4124984375 L 89.5073699219,24.6913191406 L 83.7747253906,24.9118054687 Q 83.730628125,25.8378480469 84.2597953125,27.2489605469 L 81.0847921875,28.2631976563 Z" />
		<path id="text_g" fill="#ff0000" fill-opacity="0.5" d="M 93.5643183594,14.5930453125 Q 94.4021664062,13.4465164062 94.4903609375,12.0795011719 Q 95.9014734375,13.8433917969 98.2606771484,13.8985133789 T 104.202783691,13.7772458984 Q 103.783859668,14.3725589844 103.706689453,14.8576289062 Q 102.251479687,14.5489480469 100.377345898,14.5709966797 T 97.8858503906,15.4529419922 T 98.1063367187,17.7459998047 T 101.082902148,20.9871488281 T 103.662592187,24.6251732422 T 103.221619531,28.2191003906 T 100.382858057,30.3137205078 T 97.0976117676,29.2994833984 T 96.2983488281,24.7795136719 Q 98.0291665039,25.055121582 98.8559902344,24.5149300781 Q 98.3709203125,28.175003125 99.6276923828,28.9026080078 T 101.766409766,28.4616353516 T 102.008944727,26.058334375 T 100.090713672,23.8314224609 T 97.0920996094,20.8769056641 T 95.2841117187,17.1286380859 T 97.136196875,14.5048507812 Q 94.9423579102,14.4387048828 93.5643183594,14.5930453125 Z" />
		<path id="text_h" fill="#ff0000" fill-opacity="0.5" d="M 108.601485938,16.6656167969 Q 108.513291406,20.0170089844 108.557388672,21.4281214844 T 108.943239746,25 L 106.143063379,25 Q 106.352525391,21.2627567383 106.330476758,18.1704359863 T 105.977698633,14.0859267578 T 104.853218359,12.6086683594 Q 106.66120625,11.4180421875 106.969887109,10.4038050781 Q 108.866069531,10.7124859375 108.601485938,15.6954769531 Q 110.453571094,13.7111 112.636385742,13.8433917969 T 115.67909707,15.7616228516 T 115.921632031,19.708328125 T 113.099407031,24.1621519531 Q 114.422325,24.29444375 115.965729297,23.7211792969 L 115.447586426,25 L 111.291419141,25 Q 114.290033203,21.2958296875 114.069546875,18.7602369141 T 112.239510352,15.3426988281 T 108.601485938,16.6656167969 Z" />
		<path id="text_i" fill="#ff0000" fill-opacity="0.5" d="M 120.419553125,13.6670027344 Q 121.4778875,14.2402671875 121.698373828,15.2104070312 T 121.786568359,19.8626685547 T 121.962957422,25 L 118.688735449,25 Q 119.537607812,22.530553125 119.51555918,19.9508630859 T 119.173805371,16.505764209 T 117.641425391,15.3978204102 Q 119.824240039,14.6591912109 120.419553125,13.6670027344 Z" />
		<path id="text_j" fill="#ff0000" fill-opacity="0.5" d="M 126.372683984,13.7111 Q 127.210532031,14.0197808594 127.364872461,15.1442611328 T 127.541261523,19.5980849609 T 127.320775195,24.7133677734 T 125.937223486,27.6458359375 T 123.429191504,30.3798664063 L 123.065389063,29.7625046875 Q 124.917474219,26.2347234375 125.137960547,24.4487841797 T 125.336398242,20.3477384766 T 125.027717383,16.8420058594 T 123.682750781,15.5631851563 Q 125.479714355,14.8576289062 126.372683984,13.7111 Z" />
		<path id="text_k" fill="#ff0000" fill-opacity="0.5" d="M 132.987273828,20.4579816406 Q 132.7667875,23.5888875 133.207760156,25 L 130.407583789,25 Q 130.716264648,22.4974801758 130.760361914,19.7414010742 T 130.58948501,16.3073265137 T 129.415395312,15.0229936523 Q 131.212358887,14.6922641602 132.149425781,13.5347109375 Q 132.899079297,13.9315863281 133.009322461,14.6371425781 T 133.031371094,19.1791609375 Q 136.206374219,16.7538113281 136.956027734,15.6513796875 T 138.058459375,13.4906136719 Q 138.499432031,14.1079753906 139.337280078,14.5930453125 Q 136.779638672,17.5034648437 134.751164453,19.1350636719 Q 136.052033789,21.7257780273 136.961539893,23.0597203125 T 139.370353027,25 L 135.633109766,25 Q 134.431459277,22.6077233398 132.987273828,20.4579816406 Z" />
		<path id="text_l" fill="#ff0000" fill-opacity="0.5" d="M 143.526520312,10.2715132812 Q 144.673049219,10.3597078125 144.717146484,11.5062367187 T 144.276173828,14.7914830078 T 143.482423047,19.3996472656 T 144.651000586,23.0597203125 T 146.8779125,23.4124984375 L 147.362982422,23.8534710938 Q 146.17235625,25.352778125 144.518708789,25.0661458984 T 141.894921484,23.2581580078 T 141.453948828,19.4437445312 T 142.357942773,14.7253371094 T 140.660198047,12.4322792969 Q 142.909158594,11.1975558594 143.526520312,10.2715132812 Z" />
		<path id="text_m" fill="#ff0000" fill-opacity="0.5" d="M 159.313341406,16.2246441406 Q 159.225146875,18.6940910156 159.181049609,20.6784679687 T 159.269244141,25 L 156.447019141,25 Q 156.821845898,23.2691823242 156.965162012,19.8351077637 T 156.006046484,15.6954769531 T 152.5223625,16.7979085938 Q 152.345973437,19.7524253906 152.323924805,21.6265591797 T 152.786946094,25 L 149.556821387,25 Q 149.82140498,22.3872370117 149.981257568,19.8571563965 T 149.959208936,16.588446582 T 148.729997656,15.7836714844 Q 150.604131445,15.2104070312 151.508125391,13.9315863281 Q 152.742848828,14.3725589844 152.566459766,16.0482550781 Q 154.374447656,14.0418294922 156.491116406,13.8323674805 T 159.092855078,15.5190878906 Q 161.11030498,13.8433917969 163.078145459,13.7992945313 T 166.104320312,15.2986015625 T 165.92793125,19.7965226562 T 163.370289844,24.2503464844 Q 164.51681875,24.3716139648 166.104320312,23.7211792969 L 165.685396289,25 L 161.606399219,25 Q 163.734092285,22.1887993164 164.136479834,19.5539876953 T 163.144291357,15.7395742188 T 159.313341406,16.2246441406 Z" />
		<path id="text_n" fill="#ff0000" fill-opacity="0.5" d="M 172.2779375,16.4892277344 Q 172.145645703,19.9729117187 172.189742969,21.7588509766 T 172.674812891,25 L 169.147031641,25 Q 169.588004297,22.4313342773 169.643125879,19.763449707 T 169.604540771,16.4561547852 T 168.794253516,15.474990625 Q 170.503022559,14.9017261719 171.340870605,13.7772458984 Q 172.2779375,14.4607535156 172.2779375,15.6072824219 Q 174.085925391,13.8433917969 176.533323633,13.8654404297 T 179.664229492,16.0262064453 T 179.377597266,20.3256898437 T 177.040442187,24.1180546875 Q 178.021606348,24.4046869141 179.631156543,23.7873251953 L 179.124037988,25 L 175.056065234,25 Q 177.911363184,22.1447020508 177.729461963,19.1681366211 T 176.08132666,15.4805027832 T 172.2779375,16.4892277344 Z" />
		<path id="text_o" fill="#ff0000" fill-opacity="0.5" d="M 188.329342187,14.3725589844 Q 185.948089844,14.3725589844 185.374825391,15.8939146484 T 185.088193164,19.5980849609 T 186.521354297,23.1038175781 T 189.321530664,24.3385410156 T 191.680734375,22.8392339844 T 192.099658398,19.2673554687 T 190.688545898,15.7175255859 T 188.329342187,14.3725589844 Z M 188.119880176,13.8213431641 Q 190.6224,13.4906136719 192.364241992,14.5268994141 T 194.569105273,18.7602369141 T 193.157992773,23.5447902344 T 188.307293555,25.1322917969 T 183.985761523,23.5668388672 T 182.596697656,19.1571123047 T 184.250345117,15.0119693359 T 188.119880176,13.8213431641 Z" />
		<path id="text_p" fill="#ff0000" fill-opacity="0.5" d="M 200.059214844,16.0482550781 Q 199.882825781,20.1052035156 199.904874414,22.3982613281 T 199.838728516,28.2191003906 Q 198.074837891,29.1010457031 197.027527832,30.291671875 Q 197.567719336,25.1433161133 197.666938184,21.2131473145 T 197.595280127,16.6435681641 T 196.751919922,15.8608416992 Q 198.493761914,14.8907018555 199.375707227,13.8544161133 Q 199.838728516,14.41665625 199.971020313,15.1663097656 Q 201.382132813,13.7551972656 203.939774219,13.7111 T 207.379360938,17.4373189453 T 206.519464258,23.2140607422 T 203.013731641,25.1322917969 T 200.323798438,24.29444375 Q 200.764771094,23.6329847656 200.941160156,22.4864558594 Q 202.043591797,24.5590273437 203.47675293,24.1842005859 T 205.372935352,22.2659695313 T 205.042205859,18.0105833984 T 202.727099414,14.8796775391 T 200.059214844,16.0482550781 Z" />
		<path id="text_q" fill="#ff0000" fill-opacity="0.5" d="M 217.742218359,17.9003402344 Q 215.581452344,14.5930453125 214.126242578,14.7032884766 T 211.965476563,16.9963462891 T 212.604886914,21.4942673828 T 215.581452344,23.8975683594 T 217.609926563,22.2439208984 T 217.742218359,17.9003402344 Z M 217.654023828,24.3826382812 Q 215.713744141,25.3086808594 213.552978125,24.9779513672 T 210.488218164,22.5746503906 T 210.466169531,17.591659375 T 213.575026758,14.0859267578 T 217.698121094,15.3867960938 Q 217.742218359,14.8576289062 217.521732031,14.5489480469 Q 218.99899043,14.2623158203 220.564443359,13.4024191406 Q 220.2557625,16.9742976563 220.10142207,21.4942673828 T 220.343957031,28.6600730469 Q 218.888747266,28.880559375 217.389440234,30.291671875 Q 217.698121094,26.6756960937 217.654023828,24.3826382812 Z" />
		<path id="text_r" fill="#ff0000" fill-opacity="0.5" d="M 225.767920703,16.7979085938 Q 225.591531641,20.1052035156 225.767920703,21.824996875 T 226.341185156,25 L 222.857501172,25 Q 223.210279297,23.7652765625 223.342571094,20.5241275391 T 223.303985986,16.6435681641 T 222.460625781,15.8608416992 Q 224.202467773,14.8907018555 225.084413086,13.8544161133 Q 225.812017969,14.1961699219 225.767920703,15.7836714844 Q 227.620005859,13.7111 230.243793164,13.7772458984 T 232.999872266,16.886103125 L 230.574522656,18.0326320312 Q 230.662717187,15.2986015625 229.383896484,14.7473857422 T 225.767920703,16.7979085938 Z" />
		<path id="text_s" fill="#ff0000" fill-opacity="0.5" d="M 242.260298047,17.0845408203 Q 242.348492578,15.0340179687 241.020062451,14.5765088379 T 238.638810107,14.8410924316 T 237.784425586,16.8640544922 T 239.812899805,18.5728235352 T 243.406826953,19.8295956055 T 245.258912109,22.3541640625 T 243.41785127,24.7133677734 T 238.831735645,24.9779513672 T 235.160638281,21.2958296875 Q 236.825310059,21.3289026367 237.982863281,20.7666625 Q 238.159252344,22.9715257813 239.482170312,23.8314224609 T 241.819325391,24.3385410156 T 242.8335625,22.9053798828 T 241.400401367,20.8107597656 T 237.806474219,19.35555 T 235.314978711,17.3711730469 T 236.152826758,14.7639222168 T 240.959428711,13.8819769043 T 245.159693262,16.9081517578 Q 243.517070117,16.8750788086 242.260298047,17.0845408203 Z" />
		<path id="text_t" fill="#ff0000" fill-opacity="0.5" d="M 247.331483594,15.474990625 L 248.279574805,13.655978418 Q 249.999368164,14.1410483398 252.568033887,14.1134875488 T 259.667693652,13.9977322266 L 259.21569668,14.9458234375 Q 255.831231543,14.4387048828 254.227193506,14.9513355957 T 251.818380371,16.588446582 T 250.881313477,19.4327202148 T 251.928623535,22.7289908203 T 255.169772559,24.3275166992 T 258.796772656,21.7588509766 L 259.414134375,22.1557263672 Q 258.587310645,23.9196169922 257.209271094,24.5700516602 T 254.127974658,25.1433161133 T 251.02462959,24.3330288574 T 248.869375732,22.3045546387 T 248.257526172,19.3335013672 T 249.530834717,16.4285939941 T 252.645204102,14.7473857422 Q 249.007179687,14.8576289062 247.331483594,15.474990625 Z" />
		<path id="text_u" fill="#ff0000" fill-opacity="0.5" d="M 261.663094922,15.6513796875 Q 263.29469375,14.4607535156 263.735666406,13.6670027344 Q 265.367265234,13.7992945313 265.499557031,15.1222125 T 264.264833594,18.5617992188 T 264.308930859,22.5526017578 T 267.285496289,24.0463966309 T 269.203727344,22.4423585938 Q 269.6447,17.7239511719 269.269873242,16.6656167969 T 267.924906641,15.2104070312 Q 270.603815527,14.5048507812 271.0558125,13.7000756836 Q 272.059025293,14.2953887695 272.042488818,15.4419176758 T 271.860587598,20.143788623 T 271.937757812,25 L 268.806851953,25 Q 269.203727344,24.29444375 269.159630078,23.6770820313 Q 268.321782031,24.7795136719 265.521605664,25.1102431641 T 261.839483984,23.6550333984 T 262.456845703,19.9508630859 T 264.022298633,16.7979085938 T 261.663094922,15.6513796875 Z" />
		<path id="text_v" fill="#ff0000" fill-opacity="0.5" d="M 274.142621094,15.0340179687 Q 276.082900781,14.6040696289 277.670402344,13.7111 Q 279.125612109,19.5319390625 280.272141016,22.4423585938 Q 282.300615234,19.2232582031 282.962074219,17.23888125 T 283.226657812,13.5347109375 Q 284.240894922,14.1079753906 285.111815918,14.1630969727 Q 282.697490625,20.2374953125 281.925788477,21.8911427734 T 280.757210937,25 L 278.750785352,25 Q 278.078302051,22.5636260742 277.135722998,20.3697871094 T 275.592318701,16.7317626953 T 274.142621094,15.0340179687 Z" />
		<path id="text_w" fill="#ff0000" fill-opacity="0.5" d="M 287.327703516,15.6513796875 Q 288.959302344,14.4607535156 289.400275,13.6670027344 Q 291.031873828,13.7992945313 291.164165625,15.1222125 T 289.929442188,18.5617992188 T 289.973539453,22.5526017578 T 292.883958984,23.8975683594 T 294.780141406,20.9871488281 T 294.868335937,17.1065894531 T 293.589515234,15.2104070312 Q 295.926670312,14.5930453125 296.367642969,13.6670027344 Q 297.205491016,14.2402671875 297.293685547,15.3867960938 T 297.095247852,19.1350636719 T 297.536220508,23.0376716797 T 299.520597461,23.9637142578 T 301.350633984,22.4423585938 Q 301.791606641,17.7239511719 301.416779883,16.6656167969 T 300.071813281,15.2104070312 Q 302.750722168,14.5048507812 303.202719141,13.7000756836 Q 304.205931934,14.2953887695 304.189395459,15.4419176758 T 304.007494238,20.143788623 T 304.084664453,25 L 300.953758594,25 Q 301.350633984,24.29444375 301.306536719,23.6770820313 Q 300.292299609,25 297.933095898,25.2204863281 T 294.824238672,23.6770820313 Q 293.986390625,25 291.186214258,25.2204863281 T 287.504092578,23.6550333984 T 288.121454297,19.9508630859 T 289.686907227,16.7979085938 T 287.327703516,15.6513796875 Z" />
		<path id="text_x" fill="#ff0000" fill-opacity="0.5" d="M 305.848555078,15.0340179687 Q 307.612445703,14.824555957 308.736925977,13.7992945313 Q 309.993698047,15.82776875 312.419047656,18.64999375 Q 315.329467187,16.0923523438 316.387801562,13.6229054687 Q 317.049260547,14.063878125 318.107594922,14.41665625 Q 315.62712373,16.8420058594 312.948214844,19.4437445312 Q 315.197175391,22.530553125 317.887108594,25 L 314.315230078,25 Q 313.157676855,23.0376716797 311.316616016,20.9871488281 Q 308.196734473,23.6219604492 308.395172168,24.9669270508 T 310.114965527,27.2930578125 Q 308.814096191,28.1860274414 308.119564258,29.3215320313 Q 306.002895508,27.0946201172 306.658842334,25.3086808594 T 310.743351562,20.2815925781 Q 308.836144824,17.646780957 307.849468506,16.6049830566 T 305.848555078,15.0340179687 Z" />
		<path id="text_y" fill="#ff0000" fill-opacity="0.5" d="M 320.091971875,15.6513796875 Q 321.723570703,14.4607535156 322.164543359,13.6670027344 Q 323.796142187,13.7992945313 323.928433984,15.1222125 T 322.803953711,18.8043341797 T 322.848050977,22.7951367188 T 325.560032812,24.1401033203 T 327.897187891,22.3100667969 Q 328.073576953,17.7239511719 327.698750195,16.6656167969 T 326.353783594,15.2104070312 Q 329.03269248,14.5048507812 329.484689453,13.7000756836 Q 330.487902246,14.2953887695 330.471365771,15.4419176758 T 330.278440234,20.441445166 T 330.3225375,28.7923648438 Q 328.735035937,29.2333375 327.544409766,30.3357691406 Q 327.985382422,26.7197933594 327.897187891,23.6770820313 Q 326.882950781,24.9118054687 324.016628516,25.1763890625 T 320.268360937,23.6550333984 T 320.885722656,19.9508630859 T 322.451175586,16.7979085938 T 320.091971875,15.6513796875 Z" />
		<path id="text_z" fill="#ff0000" fill-opacity="0.5" d="M 332.791984375,15.2104070312 Q 333.541637891,13.4906136719 333.673929687,12.1235984375 Q 335.085042187,13.8433917969 337.973413086,13.9095376953 T 342.328018066,13.7772458984 Q 341.876021094,14.4497291992 341.876021094,15.3647474609 Q 339.671157812,16.7097140625 335.437820312,21.9572886719 Q 340.068033203,19.4437445312 341.655534766,21.3399269531 T 341.677583398,26.1244802734 T 333.541637891,30.1152828125 L 333.188859766,29.4979210938 Q 338.392337109,28.3072949219 339.516817383,25.8157994141 T 339.031747461,22.5746503906 T 333.365248828,24.6913191406 Q 333.188859766,23.5447902344 332.924276172,22.3982613281 Q 336.430008789,19.0909664063 340.509005859,14.769434375 Q 336.000060449,14.3394860352 332.791984375,15.2104070312 Z" />
		<path id="text_A" fill="#ff0000" fill-opacity="0.5" d="M 10.0440972656,60.0110243164 Q 12.0725714844,57.0454832031 17.2760488281,45.5801941406 L 19.0399394531,45.5801941406 Q 23.40556875,57.1336777344 25.7427238281,60 L 22.0826507813,60 Q 21.9062617188,58.941665625 21.4211917969,57.9715257813 Q 20.0541765625,59.7354164062 17.6729242187,59.8456595703 T 13.5718785156,57.7951367188 Q 12.9104195312,58.7211792969 13.0427113281,60 L 10.0440972656,60.0110243164 Z M 14.4538238281,55.7666625 Q 15.7326445312,59.1180546875 17.5571688965,59.1235668457 T 20.58334375,56.2076351562 Q 19.1281339844,50.474990625 17.9375078125,48.4465164062 Q 16.6586871094,50.3867960938 14.4538238281,55.7666625 Z" />
		<path id="text_B" fill="#ff0000" fill-opacity="0.5" d="M 27.1979335937,45.4038050781 Q 29.402796875,44.3454707031 30.2847421875,43.1107472656 Q 31.6076601562,44.830540625 31.3430765625,47.8291546875 Q 33.0628699219,45.6242914063 35.5323167969,45.6463400391 T 39.7215570313,47.8732519531 T 40.9783291016,53.9366259766 T 38.1340554687,59.1842005859 T 32.9746753906,59.8236109375 T 29.2043591797,56.4942673828 T 28.8074837891,50.6513796875 T 28.9397755859,46.4400908203 T 27.1979335937,45.4038050781 Z M 31.4312710937,48.9315863281 Q 30.5052285156,54.0909664063 31.5415142578,56.6265591797 T 34.6062742188,59.5149300781 T 37.6930828125,56.9793373047 T 38.1781527344,50.9159632813 T 35.6646085937,46.947209375 T 31.4312710937,48.9315863281 Z" />
		<path id="text_C" fill="#ff0000" fill-opacity="0.5" d="M 55.3760863281,55.7666625 L 56.3903234375,57.3541640625 Q 54.6264328125,60 51.4734783203,60.0661458984 T 46.1156605469,58.236109375 T 43.8887486328,53.3854101563 T 45.630590625,48.0496410156 T 50.9222625,45.6242914063 T 56.6549070313,49.41665625 L 54.1854601563,50.2986015625 Q 53.1271257813,46.1093613281 50.6576789062,46.1755072266 T 47.0637517578,49.4387048828 T 47.1739949219,56.0973919922 T 51.275040625,59.5590273438 T 55.3760863281,55.7666625 Z" />
		<path id="text_D" fill="#ff0000" fill-opacity="0.5" d="M 58.5069921875,46.1975558594 Q 59.7858128906,44.5218597656 59.7858128906,42.9343582031 Q 62.3434542969,44.7423460938 64.6144634766,44.8966865234 T 70.1045730469,46.3077990234 T 73.6764515625,51.2466927734 T 72.3094363281,57.475431543 T 66.8413753906,60.055121582 T 61.1087308594,57.8502583008 T 59.5873751953,52.3160514648 T 62.0127248047,47.7409601562 T 67.0618617187,46.1534585938 Q 62.6962324219,45.3156105469 58.5069921875,46.1975558594 Z M 68.2524878906,46.5503339844 Q 63.1372050781,46.9913066406 62.4536974609,51.125425293 T 63.297057666,57.4919680176 T 67.1114711426,59.3550774902 T 70.4793998047,56.4391458008 T 71.1188101562,50.772647168 T 68.2524878906,46.5503339844 Z" />
		<path id="text_E" fill="#ff0000" fill-opacity="0.5" d="M 79.0232450195,52.7680484375 Q 79.5083149414,56.769875293 81.3493757812,58.4731321777 T 85.0535460938,59.4818571289 T 87.8316738281,56.5934862305 L 88.5813273437,57.2769938477 Q 87.8316738281,58.6991306641 86.607974707,59.4377598633 T 83.2565825195,60.1047310059 T 78.9681234375,58.4731321777 T 76.4545792969,53.5232141113 T 77.8050580566,48.0000315918 T 82.6006356934,45.6132670898 T 87.2473850586,46.7101865723 T 88.6254246094,49.5930453125 T 86.8284610352,51.5994708984 Q 89.1545917969,51.5553736328 90.1578045898,51.0372307617 L 89.8491237305,52.3711730469 L 79.0232450195,52.7680484375 Z M 79.0232450195,52.1506867188 Q 82.5289776367,51.9853219727 84.3700384766,51.4010332031 T 86.2496844238,48.9481228027 T 84.7669138672,46.3298476563 T 81.0241584473,47.1621835449 T 79.0232450195,52.1506867188 Z" />
		<path id="text_F" fill="#ff0000" fill-opacity="0.5" d="M 92.55008125,63.2191003906 Q 92.8256891602,54.5760363281 92.8422256348,51.6876654297 T 92.4839353516,48.2921759766 T 91.3594550781,47.6968628906 Q 94.0934855469,46.6826257813 95.019528125,45.7124859375 Q 95.019528125,46.59443125 95.1077226563,48.7000756836 Q 98.8118929688,44.3895679688 101.634117969,45.6242914063 T 104.235856641,49.9458234375 L 102.207382422,50.7395742188 Q 102.604257812,47.3440847656 100.267102734,46.4180421875 T 95.1959171875,50.474990625 Q 94.7328958984,52.7349754883 95.1628442383,57.475431543 Q 99.60564375,57.232896582 103.353911328,56.2517324219 L 102.207382422,57.8392339844 L 95.1628442383,58.3243039063 Q 95.1077226563,59.702343457 95.725084375,62.1276930664 L 92.55008125,63.2191003906 Z" />
		<path id="text_G" fill="#ff0000" fill-opacity="0.5" d="M 106.264330859,47.0243795898 Q 106.925789844,46.0652640625 107.234470703,43.6178658203 Q 108.336902344,45.7565832031 111.75444043,45.7786318359 T 119.713996875,45.5801941406 Q 119.184829687,46.2857503906 119.140732422,46.7156987305 Q 117.376841797,46.4070178711 114.664859961,46.4290665039 T 110.982738281,47.6968628906 T 111.225273242,50.6568918457 T 114.995589453,54.1791609375 T 118.699759766,57.8392339844 T 118.413127539,62.2489605469 T 114.686908594,65.2255259766 T 111.115030078,64.0293876465 T 109.968501172,58.8534710938 Q 111.908780859,59.0188358398 112.790726172,58.1589391602 Q 112.041072656,62.9545167969 113.849060547,63.7262189453 T 116.847674609,63.0427113281 T 117.376841797,59.9779513672 T 115.017638086,57.2384087402 T 111.203224609,54.5264269043 T 108.954264062,50.4584541504 T 111.026835547,46.4511151367 Q 107.984124219,46.3739449219 106.264330859,47.0243795898 Z" />
		<path id="text_H" fill="#ff0000" fill-opacity="0.5" d="M 125.182057813,49.1961699219 Q 124.961571484,53.64999375 125.093863281,55.4359330078 T 125.843516797,60 L 122.315735547,60 Q 122.580319141,55.1933980469 122.558270508,51.4671791016 T 122.293686914,46.6605771484 T 120.728233984,45.5801941406 Q 123.109486328,44.2572761719 123.329972656,43.1107472656 Q 125.182057813,43.419428125 125.137960547,48.00554375 Q 126.637267578,45.6242914063 129.194908984,45.6242914063 T 133.406197852,48.0275923828 T 134.045608203,54.0248205078 T 130.826507813,59.4708328125 Q 132.7667875,59.29444375 134.707067188,58.2802066406 L 134.045608203,60 L 128.798033594,60 Q 133.163662891,56.3399269531 132.347863477,52.3491244141 T 129.040568555,47.6748142578 T 125.182057813,49.1961699219 Z" />
		<path id="text_I" fill="#ff0000" fill-opacity="0.5" d="M 139.337280078,45.536096875 Q 139.954641797,46.7267230469 140.153079492,47.7850574219 T 140.241274023,53.4736046875 T 140.439711719,60 L 137.308805859,60 Q 137.782851465,55.6343707031 137.744266357,53.0326320313 T 137.595438086,49.1520726562 T 136.162276953,47.5645710938 Q 138.543529297,46.59443125 139.337280078,45.536096875 Z" />
		<path id="text_J" fill="#ff0000" fill-opacity="0.5" d="M 145.069924609,45.4919996094 Q 145.951869922,46.3298476563 146.17235625,47.4543279297 T 146.348745313,52.5696107422 T 146.194404883,58.941665625 T 144.827389648,62.4033009766 T 142.071310547,65.3798664063 L 141.674435156,64.641237207 Q 143.658812109,60.7937507812 143.818664697,58.5006929688 T 143.862761963,53.3854101563 T 143.581641895,49.1245118652 T 141.894921484,47.7630087891 Q 144.320271094,46.7708203125 145.069924609,45.4919996094 Z" />
		<path id="text_K" fill="#ff0000" fill-opacity="0.5" d="M 152.213681641,53.64999375 Q 152.081389844,58.1479148438 152.610557031,60 L 149.523748437,60 Q 149.876526562,56.7368023437 149.920623828,53.1208265625 T 149.722186133,48.6229054687 T 148.377219531,46.947209375 Q 150.449791016,46.5062367188 151.243541797,45.4479023438 Q 152.037292578,45.888875 152.235730273,46.6385285156 T 152.257778906,52.6798539063 Q 156.226532812,50.4308933594 157.681742578,48.8213431641 T 159.313341406,45.3156105469 Q 160.239383984,46.4180421875 161.165426562,47.1235984375 Q 158.519590625,50.2545042969 154.286253125,52.591659375 Q 157.108478125,52.591659375 158.828271484,55.3697871094 T 161.474107422,60 L 157.990423437,60 Q 156.358824609,53.2531183594 152.213681641,53.64999375 Z" />
		<path id="text_L" fill="#ff0000" fill-opacity="0.5" d="M 166.060223047,43.1548445312 Q 166.721682031,43.9044980469 166.964216992,44.9407837891 T 167.030362891,48.4906136719 T 166.765779297,53.4515560547 T 167.559530078,57.6407962891 T 169.962831055,59.3826382812 T 172.586618359,56.8690941406 Q 172.98349375,58.7211792969 173.380369141,59.1621519531 Q 171.836964844,60.5732644531 168.75015625,60.2645835938 T 164.781402344,57.2659695313 T 164.318381055,51.533325 T 164.494770117,47.1456470703 T 163.149803516,45.536096875 Q 165.001888672,44.5659570313 166.060223047,43.1548445312 Z" />
		<path id="text_M" fill="#ff0000" fill-opacity="0.5" d="M 186.697743359,49.3284617187 Q 186.653646094,52.0624921875 186.455208398,54.5539876953 T 186.124478906,60 L 183.655032031,60 Q 184.096004687,57.7951367188 184.228296484,53.2090210938 T 182.949475781,47.5866197266 T 179.024819141,49.6371425781 Q 178.62794375,53.297215625 178.672041016,55.7446138672 T 179.245305469,60 L 175.717524219,60 Q 176.026205078,56.6486078125 176.158496875,53.0767292969 T 176.136448242,48.8654404297 T 174.747384375,48.1378355469 Q 176.930199023,47.3881820312 178.098776563,45.9329722656 Q 179.024819141,46.5503339844 179.024819141,48.358321875 Q 181.273779687,45.888875 183.588886133,45.5801941406 T 186.609548828,48.1819328125 Q 189.034898438,45.6242914063 191.085421289,45.5801941406 T 194.392716211,47.4984251953 T 194.293497363,53.1869724609 T 191.372053516,59.29444375 Q 192.981603711,59.2062492188 194.811640234,58.3684011719 L 194.315545996,60 L 189.91684375,60 Q 192.077609766,56.3840242187 192.540631055,52.9885347656 T 191.394102148,48.0716896484 T 186.697743359,49.3284617187 Z" />
		<path id="text_N" fill="#ff0000" fill-opacity="0.5" d="M 201.029354687,49.7253371094 Q 200.720673828,53.5617992187 200.808868359,55.8989542969 T 201.249841016,60 L 197.6779625,60 Q 198.207129687,56.6927050781 198.273275586,53.2531183594 T 198.22917832,48.9977322266 T 197.236989844,47.7409601562 Q 199.309561328,46.9913066406 200.323798437,45.536096875 Q 201.161646484,46.7267230469 201.029354687,48.6670027344 Q 203.101926172,45.4479023438 206.034394336,45.6463400391 T 209.914953711,48.4465164062 T 209.650370117,54.4657931641 T 206.85019375,59.29444375 Q 208.349500781,59.2503464844 210.289780469,58.4565957031 L 209.67241875,60 L 205.086303125,60 Q 208.217208984,56.3399269531 207.996722656,52.5034648438 T 205.813908008,47.7189115234 T 201.029354687,49.7253371094 Z" />
		<path id="text_O" fill="#ff0000" fill-opacity="0.5" d="M 220.167567969,46.241653125 Q 218.13909375,46.1975558594 216.705932617,48.1819328125 T 215.735792773,53.2310697266 T 217.367391602,57.7069421875 T 220.343957031,59.3164923828 T 223.607154687,57.7951367188 T 224.863926758,52.9444375 T 223.188230664,47.9614464844 T 220.167567969,46.241653125 Z M 219.902984375,45.5801941406 Q 223.563057422,45.3597078125 225.591531641,47.4322792969 T 227.377470898,52.9885347656 T 224.974169922,58.3243039063 T 219.969130273,60.0881945312 T 215.074333789,58.2140607422 T 213.04585957,52.8562429688 T 215.383014648,47.3661333984 T 219.902984375,45.5801941406 Z" />
		<path id="text_P" fill="#ff0000" fill-opacity="0.5" d="M 233.176261328,49.0197808594 Q 233.088066797,53.3854101563 232.999872266,56.5163160156 T 233.132164063,62.9545167969 Q 231.280078906,64.1892402344 229.913063672,65.3357691406 Q 230.574522656,59.2062492188 230.772960352,54.3335013672 T 230.68476582,48.8654404297 T 229.560285547,48.0937382812 Q 231.676954297,46.947209375 232.735288672,45.7124859375 Q 233.132164063,46.8590148438 232.999872266,47.652765625 Q 234.543276563,45.6683886719 236.770188477,45.4699509766 T 241.157866406,47.8291546875 T 242.458735742,54.7303767578 T 238.335641406,59.9338541016 T 233.308553125,59.0298601563 Q 234.234595703,58.236109375 234.675568359,57.4423585938 Q 236.439458984,59.9559027344 238.247446875,58.9196169922 T 239.768802539,53.0767292969 T 237.321404297,47.0133552734 T 233.176261328,49.0197808594 Z" />
		<path id="text_Q" fill="#ff0000" fill-opacity="0.5" d="M 255.313088672,50.1663097656 Q 253.284614453,46.241653125 251.167945703,46.7046744141 T 248.103185742,49.8355802734 T 248.301623438,55.8989542969 T 251.498675195,59.3164923828 T 254.387046094,57.3762126953 T 255.313088672,50.1663097656 Z M 255.004407813,59.2062492188 Q 252.975933594,60.4850699219 250.44034082,60.1543404297 T 246.229051953,56.9352400391 T 245.942419727,50.6072824219 T 249.999368164,45.9550208984 T 255.445380469,46.7267230469 L 255.357185937,45.9770695313 Q 256.856492969,45.4479023438 258.267605469,45.4038050781 Q 257.65024375,49.5048507812 257.49590332,54.9067658203 T 257.517951953,63.3072949219 Q 256.371423047,63.8364621094 254.519337891,65.3798664063 Q 255.048505078,61.2788207031 255.004407813,59.2062492188 Z" />
		<path id="text_R" fill="#ff0000" fill-opacity="0.5" d="M 263.779763672,48.4906136719 Q 263.471082813,53.2531183594 263.382888281,55.7446138672 T 263.603374609,60 L 260.560663281,60 Q 261.045733203,58.2802066406 261.200073633,53.9145773437 T 261.178025,48.8874890625 T 260.163787891,48.0496410156 Q 262.324553906,47.1676957031 263.118304688,45.7565832031 Q 263.603374609,46.5062367188 263.647471875,47.5645710938 Q 265.808237891,45.3597078125 268.564316992,45.4919996094 T 272.488973633,47.2779388672 T 272.775605859,51.2246441406 T 267.263447656,54.2232582031 Q 269.821089063,55.06110625 271.518833789,56.9793373047 T 273.17248125,60 L 269.600602734,60 Q 269.247824609,56.9572886719 264.441222656,54.2673554687 L 264.441222656,53.64999375 Q 268.498171094,53.5617992187 269.79904043,51.7097140625 T 270.592791211,48.1819328125 T 268.189490234,46.3959935547 T 263.779763672,48.4906136719 Z" />
		<path id="text_S" fill="#ff0000" fill-opacity="0.5" d="M 284.064505859,49.769434375 Q 285.1669375,47.0795011719 283.138463281,46.5282853516 T 279.765022461,46.947209375 T 278.794882617,49.3946076172 T 281.264329492,51.533325 T 285.519715625,53.0326320313 T 287.702530273,56.2076351562 T 285.453569727,59.4708328125 T 280.139849219,59.8236109375 T 275.553733594,55.5020789062 Q 277.802694141,55.1933980469 278.772833984,54.0909664063 Q 278.640542187,57.3541640625 280.448530078,58.5227416016 T 283.888116797,59.1621519531 T 285.563812891,57.0895804688 T 283.513290039,54.5319390625 T 278.927174414,52.8121457031 T 275.972657617,50.474990625 T 276.942797461,47.1456470703 T 282.675441992,45.6463400391 T 287.415898047,49.5489480469 Q 285.519715625,49.5048507812 284.064505859,49.769434375 Z" />
		<path id="text_T" fill="#ff0000" fill-opacity="0.5" d="M 290.017636719,47.4212549805 L 291.164165625,45.18331875 Q 293.280834375,45.6683886719 296.4558375,45.7345345703 T 305.054804297,45.536096875 L 304.481539844,46.7267230469 Q 300.380494141,46.0652640625 298.307922656,46.6991622559 T 295.243162695,48.8378796387 T 294.052536523,52.6578052734 T 295.309308594,57.0234345703 T 299.564694727,59.1290790039 T 304.569734375,55.8328083984 L 305.231193359,56.2627567383 Q 303.731886328,58.5447902344 302.056190234,59.3826382813 T 298.307922656,60.1322917969 T 294.537606445,59.0794695801 T 291.913819141,56.4115850098 T 291.164165625,52.5034648438 T 292.707569922,48.793782373 T 296.499934766,46.4621394531 Q 292.090208203,46.6054555664 290.017636719,47.4212549805 Z" />
		<path id="text_U" fill="#ff0000" fill-opacity="0.5" d="M 307.171473047,47.4322792969 Q 309.332239063,46.1534585938 309.376336328,45.3156105469 Q 312.066269531,46.3739449219 310.809497461,49.6812398437 T 309.86140625,54.9067658203 T 311.42685918,58.2581580078 T 314.381375977,59.29444375 T 316.961066016,56.7808996094 Q 317.754816797,50.7395742188 317.379990039,49.2843644531 T 316.035023438,47.3881820312 Q 318.32808125,46.5503339844 318.857248438,45.536096875 Q 320.047874609,46.2857503906 320.025825977,47.7409601562 T 319.805339648,53.7161396484 T 320.047874609,60 L 316.740579688,60 Q 317.049260547,59.3826382812 317.049260547,58.7652765625 Q 315.946828906,60 312.992312109,60.1984376953 T 308.45029375,58.1699634766 T 308.097515625,53.5838478516 T 309.133801367,49.6150939453 T 307.171473047,47.4322792969 Z" />
		<path id="text_V" fill="#ff0000" fill-opacity="0.5" d="M 321.723570703,47.3661333984 Q 324.468625488,46.6936500977 325.912810937,45.536096875 Q 327.941285156,53.1208265625 330.102051172,58.0597203125 Q 332.174622656,52.9444375 333.056567969,49.9237748047 T 333.1447625,45.0951242188 Q 334.599972266,45.8447777344 335.658306641,46.1203856445 Q 332.747887109,53.7822855469 331.910039063,55.9651001953 T 330.631218359,60 L 328.338160547,60 Q 327.191631641,56.824996875 325.896274463,54.0413569824 T 323.856775928,49.4111440918 T 321.723570703,47.3661333984 Z" />
		<path id="text_W" fill="#ff0000" fill-opacity="0.5" d="M 359.162149219,60 L 355.854854297,60 Q 356.163535156,59.3826382812 356.163535156,58.7652765625 Q 354.708325391,60.2204863281 352.547559375,60.1984376953 T 349.196167188,58.0156230469 Q 347.520471094,60.1322917969 344.102933008,60.1984376953 T 339.009698828,58.1038175781 T 338.568726172,53.5838478516 T 339.605011914,49.6150939453 T 337.642683594,47.4322792969 Q 339.803449609,46.1534585938 339.847546875,45.3156105469 Q 342.537480078,46.3739449219 341.280708008,49.6812398437 T 340.332616797,54.9067658203 T 341.898069727,58.2581580078 T 344.698246094,59.4046869141 T 347.167692969,56.8690941406 Q 348.226027344,50.7395742188 347.851200586,49.2843644531 T 346.506233984,47.3881820312 Q 348.799291797,46.5503339844 349.328458984,45.536096875 Q 350.519085156,46.2857503906 350.497036523,47.7409601562 T 349.989917969,53.0105833984 T 350.805717383,58.2802066406 T 353.672039648,59.2282978516 T 356.163535156,56.7808996094 Q 356.869091406,50.7395742188 356.494264648,49.2843644531 T 355.149298047,47.3881820312 Q 357.442355859,46.5503339844 357.971523047,45.536096875 Q 359.162149219,46.2857503906 359.140100586,47.7409601562 T 358.919614258,53.7161396484 T 359.162149219,60 Z" />
		<path id="text_X" fill="#ff0000" fill-opacity="0.5" d="M 360.970137109,47.4763765625 Q 363.395486719,46.8149175781 364.762501953,45.4919996094 Q 365.997225391,48.2701273437 369.039936719,52.1065894531 Q 373.758344141,48.00554375 373.758344141,44.9187351563 Q 374.640289453,45.9770695313 375.742721094,46.5503339844 Q 373.229176953,49.063878125 369.657298438,52.9885347656 Q 372.214939844,56.8690941406 375.610429297,60 L 371.773967187,60 Q 370.142368359,57.4423585938 367.849310547,54.6201335937 Q 364.101042969,58.1920121094 364.34357793,59.9338541016 T 366.438198047,62.9545167969 Q 364.850696484,64.1010457031 364.012848437,65.5562554687 Q 361.411109766,62.6899332031 362.22690918,60.3748267578 T 367.231948828,53.7822855469 Q 364.89479375,50.474990625 363.660070313,49.1520726562 T 360.970137109,47.4763765625 Z" />
		<path id="text_Y" fill="#ff0000" fill-opacity="0.5" d="M 377.683000781,47.4322792969 Q 379.843766797,46.1534585938 379.887864063,45.3156105469 Q 382.577797266,46.3739449219 381.321025195,49.6812398437 T 380.483177148,54.7965226563 T 382.114775977,57.9935744141 T 384.959049609,59.1401033203 T 387.913566406,56.0312460937 Q 388.398636328,51.0482550781 387.957663672,49.4387048828 T 386.546551172,47.3881820312 Q 388.839608984,46.5503339844 389.368776172,45.536096875 Q 390.559402344,46.2857503906 390.713742773,47.8291546875 T 390.515305078,53.7822855469 T 390.427110547,63.7482675781 Q 388.795511719,64.6743101563 387.560788281,65.8649363281 Q 388.089955469,62.7781277344 388.001760937,58.4565957031 Q 385.400022266,60.3968753906 383.23925625,60.2425349609 T 379.226405078,58.0156230469 T 378.609043359,53.5838478516 T 379.645329102,49.6150939453 T 377.683000781,47.4322792969 Z" />
		<path id="text_Z" fill="#ff0000" fill-opacity="0.5" d="M 393.072946484,47.0795011719 Q 394.043086328,45.536096875 393.8226,43.5958171875 Q 395.410101563,45.7565832031 398.629201953,45.7124859375 T 406.169834375,45.3156105469 Q 405.684764453,46.241653125 405.81705625,46.59443125 Q 401.70498623,49.3505103516 394.395864453,58.2802066406 Q 402.289275,50.8718660156 404.56028418,53.4736046875 T 404.56028418,60.2204863281 T 393.249335547,66.2618117187 L 393.293432812,65.6003527344 Q 400.304898047,63.9246566406 402.245177734,60.7717021484 T 402.597955859,55.7446138672 T 393.337530078,60.1212674805 Q 393.326505762,59.1401033203 393.381627344,57.5746503906 Q 397.879548437,52.3601487305 403.479901172,46.4180421875 Q 400.348995312,46.3739449219 398.232326563,46.3518962891 T 393.072946484,47.0795011719 Z" />
	</g>
</svg>
