<?xml version="1.0" encoding="UTF-8" standalone="no"?>
<svg version="1.1" width="200mm" height="220mm" viewBox="0 0 200 220" id="KT150-dro-x-attachment" xmlns="http://www.w3.org/2000/svg" xmlns:svg="http://www.w3.org/2000/svg">
	<!--
	
	-->
	<title>KT150 dro x axis attachment</title>
	<defs id="defs">
	   <polyline  id="bridge" points="0,0 0,27.5  17,27.5, 17,26 1.5,26 1.5,1.5 17,1.5 17,0 0,0" fill="none" stroke-width="0.1" stroke="black" />
	  
	   <polyline  id="M4" points="0,0  0,8  4,8  4,6   40,6,   40,2    4,2    4,0, 0,0 " style="fill:black;fill-opacity:0.8;stroke:black;stroke-width:0.1" />
	   <polyline  id="M3" points="0,0  0,6  3,6  3,4.5 18,4.5, 18,1.5  3,1.5  3,0, 0,0 " style="fill:blue;fill-opacity:0.8;stroke:black;stroke-width:0.1" />
	   
	   <rect  id="magnetic_band"  style="fill:black;fill-opacity:0.8;stroke:black;stroke-width:0.1" width="2"     height="10" x="0" y="0" />
	   <rect  id="device"         style="fill:black;fill-opacity:0.8;stroke:black;stroke-width:0.1" width="15.2"  height="10" x="0" y="0" />
	</defs>
	
	<g id="root" transform="translate(10,20)">

	   <polyline id="plate1b"   style="fill:black;fill-opacity:0.4;stroke:black;stroke-width:0.1" points="46,12 46,22  67.8,22  68.4,12 46,12" />
	   
	   <rect  id="plate2"       style="fill:black;fill-opacity:0.6;stroke:black;stroke-width:0.1" width="17"  height="2" x="46"  y="22.0" />
	  
	   <rect  id="KT150-top"    style="fill:black;fill-opacity:0.4;stroke:black;stroke-width:0.1" width="60.0" height="8"  x="35" y="0" />
	   <rect  id="KT150-base"   style="fill:black;fill-opacity:0.4;stroke:black;stroke-width:0.1" width="60.0" height="18" x="35" y="64" />
	   
	   <polyline id="KT150-corps" style="fill:black;fill-opacity:0.4;stroke:black;stroke-width:0.1" points="68.5,9  76,9  75,29  75,64 67.5,64, 67.5,29 68.5,9" />
     
	  
	   <use href="#bridge" transform="translate(46,24) " />
	  
	   <rect  id="protection"        style="fill:black;fill-opacity:0.9;stroke:black;stroke-width:0.1" width="8"  height="8" x="59.5" y="41.0" />
	   
	   <use  href="#magnetic_band"  transform="translate(65.5,51.5)" />
	   <use  href="#device"         transform="translate(49.0,51.5)" />
	  
       <use  href="#M3" transform="translate(50,63) rotate(-90)" />
	   <use  href="#M3" transform="translate(56,11) rotate(90)" />
	   
	   <use  href="#M4" transform="translate(42,13.0)" />
 
	 </g>
</svg>
