<?xml version="1.0" encoding="UTF-8" standalone="no"?>
<svg version="1.1" width="160mm" height="220mm" viewBox="0 0 160 220" id="vise1-1419" xmlns="http://www.w3.org/2000/svg" xmlns:svg="http://www.w3.org/2000/svg">
  <defs id="defs">
	<circle id="screw_3.0mm"               style="fill:#00f0ff;fill-opacity:1" cx="0" cy="0" r="1.5" />
	<circle id="screw_5.0mm"               style="fill:#0000ff;fill-opacity:1" cx="0" cy="0" r="2.5" />
	<circle id="shaft_8.0mm"               style="fill:#008080;fill-opacity:1" cx="0" cy="0" r="4.0" />
	<circle id="shaft_bearing_15.0mm"      style="fill:#808000;fill-opacity:1" cx="0" cy="0" r="7.5" />
	<circle id="backlash_item_hole_10.0mm" style="fill:#ff00ff;fill-opacity:1" cx="0" cy="0" r="5.0" />
	<!-- for a screw of diameter 3mm ... -->
	<circle id="backlash_item_screw_3.0mm" style="fill:#ff00ff;fill-opacity:1" cx="0" cy="0" r="1.5" />
	<!-- ... the hole is 2.5mm ==> need a bit of 2mm diameter -->
	<circle id="backlash_item_screw_3.0mm_threaded" style="fill:#ff00ff;fill-opacity:1" cx="0" cy="0" r="1.25" />
  </defs>
	
  <g id="root" transform="translate(10,10)">
    <g id="oben">
	  <rect  id="shaft1"    style="fill:black;fill-opacity:0.2" width="100" height="8" x="0" y="11" />
	  <rect  id="shaft2"    style="fill:black;fill-opacity:0.2" width="100" height="8" x="0" y="181" />
	  <rect  id="leadscrew" style="fill:black;fill-opacity:0.4" width="56" height="10" x="-10" y="95" />
	  
	  
	  <rect  id="shaft1_bearing"    style="fill:black;fill-opacity:0.2" width="25" height="15" x="30" y="7.5" />
	  <rect  id="shaft2_bearing"    style="fill:black;fill-opacity:0.2" width="25" height="15" x="30" y="177.5" />
		   
      <g id="part-1" transform="translate(0,0)">
        <rect                     id="part-l-bar"  style="fill:black;fill-opacity:0.1;stroke-width:0.1;stroke:black" width="25" height="200" x="0" y="0" rx="1" ry="1" />
		<use href="#screw_5.0mm"  id="part-l_screw_5.0mm_1" transform="translate(12.5,30)" />
		<use href="#screw_3.0mm"  id="part-l_screw_3.0mm_2" transform="translate(12.5,15)" />
		<use href="#screw_3.0mm"  id="part-l_screw_3.0mm_5" transform="translate(12.5,185)" />
		<use href="#screw_5.0mm"  id="part-l_screw_5.0mm_6" transform="translate(12.5,170)" />
	  </g>
	   
	  <g id="part-mid" transform="translate(30,0)">
        <rect  id="part-mid"         style="fill:black;fill-opacity:0.1;stroke-width:0.1;stroke:black" width="25" height="200" x="0" y="0" rx="1" ry="1" />
		<line  id="part-mid-schlitz" style="fill:none;stroke-width:0.1;stroke:black" y1="0" x1="19" y2="200" x2="19" />
		<use href="#screw_3.0mm"  id="part-mid_screw_3.0mm_1" transform="translate(4.5,95)" />
		<use href="#screw_3.0mm"  id="part-mid_screw_3.0mm_2" transform="translate(4.5,105)" />
		
		<line id="part-mid-schlitz-inner"   style="fill:none;stroke-width:0.1;stroke:black" x1="22" y1="30" x2="22" y2="170" />
		<line id="part-mid-schlitz-innerA"  style="fill:none;stroke-width:0.1;stroke:black" x1="22" y1="30" x2="25" y2="30" />
		<line id="part-mid-schlitz-innerB"  style="fill:none;stroke-width:0.1;stroke:black" x1="22" y1="170" x2="25" y2="170" />
		
	  </g>
		 
	  <g id="part-2" transform="translate(80,0)">
		<rect                       id="part-2-bar"      style="fill:black;;fill-opacity:0.1;stroke-width:0.1;stroke:black" width="25" height="200" x="0" y="0" rx="1" ry="1" />
		<line                       id="part-2-schlitz"  style="fill:none;stroke-width:0.1;stroke:black" x1="6" y1="0" x2="6" y2="200" />
		
		<use href="#screw_5.0mm"  id="part-2_screw_5.0mm_1" transform="translate(14.5,30)" />
		<use href="#screw_3.0mm"  id="part-2_screw_3.0mm_2" transform="translate(14.5,15)" />
		<use href="#screw_3.0mm"  id="part-2_screw_3.0mm_5" transform="translate(14.5,185)" />
		<use href="#screw_5.0mm"  id="part-2_screw_5.0mm_6" transform="translate(14.5,170)" />
		
		<line                     id="part-2-schlitz-inner"   style="fill:none;stroke-width:0.1;stroke:black" x1="3" y1="30" x2="3" y2="170" />
		<line                     id="part-2-schlitz-innerA"  style="fill:none;stroke-width:0.1;stroke:black" x1="0" y1="30" x2="3" y2="30" />
		<line                     id="part-2-schlitz-innerB"  style="fill:none;stroke-width:0.1;stroke:black" x1="0" y1="170" x2="3" y2="170" />
	  </g>
    </g>
  </g>
</svg>
