<?xml version="1.0" encoding="UTF-8" standalone="no"?>
<svg version="1.1" width="220mm" height="220mm" viewBox="0 0 220 220" id="vise1-1419" xmlns="http://www.w3.org/2000/svg" xmlns:svg="http://www.w3.org/2000/svg">
  <defs id="defs">
	<circle id="screw_3.0mm"               style="fill:#00f0ff;fill-opacity:1" cx="0" cy="0" r="1.5" />
	<circle id="screw_5.0mm"               style="fill:#0000ff;fill-opacity:1" cx="0" cy="0" r="2.5" />
	<circle id="welle_6.0mm"               style="fill:#008080;fill-opacity:1" cx="0" cy="0" r="3.0" />
	<circle id="welle_bearing_12.0mm"      style="fill:#808000;fill-opacity:1" cx="0" cy="0" r="6.0" />
	<circle id="backlash_item_hole_10.0mm" style="fill:#ff00ff;fill-opacity:1" cx="0" cy="0" r="5.0" />
	<!-- for a screw of diameter 3mm ... -->
	<circle id="backlash_item_screw_3.0mm" style="fill:#ff00ff;fill-opacity:1" cx="0" cy="0" r="1.5" />
	<!-- ... the hole is 2.5mm ==> need a bit of 2mm diameter -->
	<circle id="backlash_item_screw_3.0mm_gewinde" style="fill:#ff00ff;fill-opacity:1" cx="0" cy="0" r="1.25" />
  </defs>
	
  <g id="root" transform="translate(10,10)">
    <g id="oben">
	  <rect  id="shaft1"    style="fill:black;fill-opacity:0.2" width="105" height="6" x="0" y="17" />
	  <rect  id="shaft2"    style="fill:black;fill-opacity:0.2" width="105" height="6" x="0" y="177" />
	  <rect  id="leadscrew" style="fill:black;fill-opacity:0.4" width="52" height="10" x="-10" y="95" />
		   
      <g id="part-1X" transform="translate(0,0)">
        <rect                     id="part-l-barX"  style="fill:black;fill-opacity:0.1;stroke-width:0.1;stroke:black" width="25" height="200" x="0" y="0" rx="1" ry="1" />
		<use href="#screw_5.0mm"  id="part-lX_screw_5.0mm_1" transform="translate(12.5,10)" />
		<use href="#screw_3.0mm"  id="part-lX_screw_3.0mm_2" transform="translate(12.5,20)" />
		<use href="#screw_5.0mm"  id="part-lX_screw_5.0mm_3" transform="translate(12.5,50)" />
		<use href="#screw_5.0mm"  id="part-lX_screw_5.0mm_4" transform="translate(12.5,150)" />
		<use href="#screw_3.0mm"  id="part-lX_screw_3.0mm_5" transform="translate(12.5,180)" />
		<use href="#screw_5.0mm"  id="part-lX_screw_5.0mm_6" transform="translate(12.5,190)" />
	  </g>
	   
	  <g id="part-middleX" transform="translate(30,0)">
        <rect  id="part-middleX"         style="fill:black;fill-opacity:0.1;stroke-width:0.1;stroke:black" width="25" height="200" x="0" y="0" rx="1" ry="1" />
		<line  id="part-middleX-schlitz" style="fill:none;stroke-width:0.1;stroke:black" y1="0" x1="19" y2="200" x2="19" />
		<use href="#screw_3.0mm"  id="part-middleX_screw_3.0mm_1" transform="translate(4.5,95)" />
		<use href="#screw_3.0mm"  id="part-middleX_screw_3.0mm_2" transform="translate(4.5,105)" />
	  </g>
		 
	  <g id="part-2X" transform="translate(80,0)">
		<rect                       id="part-2X-bar"      style="fill:black;;fill-opacity:0.1;stroke-width:0.1;stroke:black" width="25" height="200" x="0" y="0" rx="1" ry="1" />
		<line                       id="part-2X-schlitz"  style="fill:none;stroke-width:0.1;stroke:black" x1="6" y1="0" x2="6" y2="200" />
		<use href="#screw_5.0mm"  id="part-2X_screw_5.0mm_1" transform="translate(14.5,10)" />
		<use href="#screw_3.0mm"  id="part-2X_screw_3.0mm_2" transform="translate(14.5,20)" />
		<use href="#screw_5.0mm"  id="part-2X_screw_5.0mm_3" transform="translate(14.5,50)" />
		<use href="#screw_5.0mm"  id="part-2X_screw_5.0mm_4" transform="translate(14.5,150)" />
		<use href="#screw_3.0mm"  id="part-2X_screw_3.0mm_5" transform="translate(14.5,180)" />
		<use href="#screw_5.0mm"  id="part-2X_screw_5.0mm_6" transform="translate(14.5,190)" />
	  </g>
    </g>
  </g>
</svg>
