<?xml version="1.0" ?>
<svg xmlns="http://www.w3.org/2000/svg" xmlns:xlink="http://www.w3.org/1999/xlink" 
    height="600mm" 
    width="600mm"
    version="1.1" 
    viewBox="0 0 600 600">
    <g
        id="text1437"
        style="fill:#ff2222:fill-opacity:0.5;font-size:10.5833px;line-height:1.25;font-family:Arial;-inkscape-font-specification:'Arial, Normal';stroke-width:0.264583">
        <path d="M 0.0,7.57574111328125 L 0.0,0.0 L 2.84219482421875,0.0 Q 3.7103561523437496,0.0 4.234870288085937,0.2299593994140625 Q 4.759384423828124,0.459918798828125 5.056522973632812,0.9379242919921875 Q 5.353661523437499,1.41592978515625 5.353661523437499,1.9378601074218749 Q 5.353661523437499,2.423617041015625 5.090112548828125,2.8525300781249996 Q 4.82656357421875,3.281443115234375 4.294297998046875,3.54499208984375 Q 4.9815923828125,3.746529541015625 5.351077709960937,4.232286474609374 Q 5.7205630371093745,4.718043408203124 5.7205630371093745,5.379499658203125 Q 5.7205630371093745,5.911765234374999 5.495771264648438,6.369100219726562 Q 5.2709794921875,6.826435205078124 4.9402513671875,7.0744812988281245 Q 4.6095232421875,7.322527392578125 4.110847241210937,7.449134252929687 Q 3.6121712402343746,7.57574111328125 2.888703466796875,7.57574111328125 L 0.0,7.57574111328125 M 1.00251962890625,3.183258203125 L 2.6406573730468748,3.183258203125 Q 3.30728125,3.183258203125 3.5966683593749997,3.0954085449218747 Q 3.97907275390625,2.981720751953125 4.172858764648437,2.71817177734375 Q 4.366644775390625,2.454622802734375 4.366644775390625,2.05671552734375 Q 4.366644775390625,1.6794787597656249 4.185777832031249,1.3926754638671874 Q 4.0049108886718745,1.10587216796875 3.6690151367187496,0.9999358154296875 Q 3.3331193847656246,0.8939994628906249 2.5166343261718747,0.8939994628906249 L 1.00251962890625,0.8939994628906249 L 1.00251962890625,3.183258203125 M 1.00251962890625,6.681741650390625 L 2.888703466796875,6.681741650390625 Q 3.3744604003906247,6.681741650390625 3.570830224609375,6.64556826171875 Q 3.9170612304687498,6.58355673828125 4.149604443359375,6.4388631835937495 Q 4.38214765625,6.29416962890625 4.532008837890625,6.017701586914063 Q 4.6818700195312495,5.741233544921875 4.6818700195312495,5.379499658203125 Q 4.6818700195312495,4.955754248046874 4.4648296875,4.6431128173828125 Q 4.24778935546875,4.33047138671875 3.862801147460937,4.203864526367187 Q 3.4778129394531248,4.077257666015625 2.754345166015625,4.077257666015625 L 1.00251962890625,4.077257666015625 L 1.00251962890625,6.681741650390625" />
        <path d="M 14.08695107421875,6.898781982421875 Q 13.570188378906249,7.3380302734375 13.092182885742186,7.518897216796875 Q 12.614177392578124,7.699764160156249 12.066408935546875,7.699764160156249 Q 11.16207421875,7.699764160156249 10.67631728515625,7.257932055664062 Q 10.1905603515625,6.816099951171875 10.1905603515625,6.12880556640625 Q 10.1905603515625,5.7257306640625 10.374011108398436,5.392418725585937 Q 10.557461865234375,5.059106787109375 10.854600415039062,4.8575693359375 Q 11.15173896484375,4.656031884765625 11.52380810546875,4.552679345703125 Q 11.797692333984374,4.480332568359374 12.35062841796875,4.41315341796875 Q 13.47717109375,4.278795117187499 14.009436669921875,4.092760546875 Q 14.014604296875,3.901558349609375 14.014604296875,3.8498820800781246 Q 14.014604296875,3.281443115234375 13.751055322265625,3.04889990234375 Q 13.3944890625,2.733674658203125 12.691691796874998,2.733674658203125 Q 12.035403173828124,2.733674658203125 11.722761743164062,2.9636340576171873 Q 11.4101203125,3.1935934570312496 11.260259130859374,3.7775353027343748 L 10.350756787109374,3.6535122558593747 Q 10.474779833984375,3.06957041015625 10.75899931640625,2.7104203369140625 Q 11.043218798828125,2.351270263671875 11.580652001953124,2.1574842529296876 Q 12.118085205078124,1.9636982421875 12.82605009765625,1.9636982421875 Q 13.52884736328125,1.9636982421875 13.968095654296874,2.1290623046875 Q 14.4073439453125,2.2944263671875 14.614049023437499,2.5450562744140623 Q 14.8207541015625,2.7956861816406247 14.903436132812498,3.1780905761718747 Q 14.949944775390623,3.4158014160156247 14.949944775390623,4.035916650390625 L 14.949944775390623,5.276147119140624 Q 14.949944775390623,6.573221484375 15.009372485351562,6.9168686767578125 Q 15.068800195312498,7.260515869140625 15.24449951171875,7.57574111328125 L 14.27298564453125,7.57574111328125 Q 14.12829208984375,7.28635400390625 14.08695107421875,6.898781982421875 M 14.009436669921875,4.821395947265625 Q 13.503009228515625,5.028101025390625 12.490154345703125,5.172794580078125 Q 11.916547753906249,5.255476611328125 11.678836914062499,5.3588291503906245 Q 11.441126074218749,5.462181689453125 11.311935400390624,5.661135327148438 Q 11.182744726562499,5.86008896484375 11.182744726562499,6.102967431640625 Q 11.182744726562499,6.4750365722656245 11.464380395507812,6.723082666015625 Q 11.746016064453125,6.971128759765625 12.28861689453125,6.971128759765625 Q 12.82605009765625,6.971128759765625 13.244627880859374,6.736001733398437 Q 13.663205664062499,6.50087470703125 13.85957548828125,6.092632177734375 Q 14.009436669921875,5.77740693359375 14.009436669921875,5.1624593261718745 L 14.009436669921875,4.821395947265625" />
        <path d="M 24.670251074218747,5.565534228515625 L 25.584921044921874,5.6843896484375 Q 25.43505986328125,6.630065380859374 24.817528442382812,7.164914770507812 Q 24.199997021484375,7.699764160156249 23.300829931640624,7.699764160156249 Q 22.174287255859372,7.699764160156249 21.489576684570313,6.963377319335937 Q 20.80486611328125,6.226990478515624 20.80486611328125,4.852401708984375 Q 20.80486611328125,3.963569873046875 21.099420849609373,3.2969459960937497 Q 21.3939755859375,2.630322119140625 21.99600412597656,2.2970101806640626 Q 22.598032666015623,1.9636982421875 23.30599755859375,1.9636982421875 Q 24.199997021484375,1.9636982421875 24.768435986328125,2.4158656005859376 Q 25.336874951171872,2.868032958984375 25.497071386718748,3.7000208984375 L 24.592736669921873,3.839546826171875 Q 24.46354599609375,3.2866107421875 24.13540168457031,3.00755888671875 Q 23.807257373046873,2.72850703125 23.342170947265625,2.72850703125 Q 22.639373681640624,2.72850703125 22.200125390624997,3.232350659179687 Q 21.760877099609374,3.7361942871093747 21.760877099609374,4.82656357421875 Q 21.760877099609374,5.9324357421875 22.184622509765624,6.433695556640625 Q 22.608367919921875,6.93495537109375 23.290494677734372,6.93495537109375 Q 23.838263134765626,6.93495537109375 24.2051646484375,6.599059619140625 Q 24.572066162109373,6.2631638671875 24.670251074218747,5.565534228515625" />

    </g>
</svg>  