<?xml version="1.0" ?>
<svg xmlns="http://www.w3.org/2000/svg" 
  xmlns:ev="http://www.w3.org/2001/xml-events" 
  xmlns:xlink="http://www.w3.org/1999/xlink" 
  baseProfile="full" 
  height="200mm" 
  width="200mm"
  version="1.1" 
  viewBox="0 0 1200 1200">
	<circle cx="100" cy="100" r="50" stroke="black" stroke-width="3" fill="rgb(121,0,121)"></circle>
	<path d="M 263.0,256.0 L 240.0,256.0 Q 180.0,256.0 149.5,272.5 Q 119.0,289.0 119.0,322.0 Q 119.0,351.0 142.0,367.5 Q 165.0,384.0 205.0,384.0 Q 262.0,384.0 295.0,353.0 Q 328.0,322.0 328.0,268.0 L 328.0,256.0 L 263.0,256.0 M 397.0,222.0 L 397.0,448.0 L 328.0,448.0 L 328.0,372.0 Q 306.0,411.0 272.5,429.5 Q 239.0,448.0 191.0,448.0 Q 127.0,448.0 88.5,414.5 Q 50.0,381.0 50.0,325.0 Q 50.0,259.0 97.0,225.5 Q 144.0,192.0 235.0,192.0 L 328.0,192.0 L 328.0,171.0 Q 328.0,115.0 302.5,89.5 Q 277.0,64.0 222.0,64.0 Q 187.0,64.0 151.0,64.0 Q 115.0,64.0 81.0,64.0 L 81.0,0.0 Q 119.0,0.0 154.0,0.0 Q 189.0,0.0 222.0,0.0 Q 274.0,0.0 311.0,18.0 Q 348.0,36.0 371.0,72.0 Q 385.0,94.0 391.0,126.0 Q 397.0,158.0 397.0,222.0" fill="none" stroke="#000000" stroke-width="0.448"/>
</svg>



